<?xml version="1.0" encoding="utf-8"?>
<!-- Generator: Adobe Illustrator 23.0.1, SVG Export Plug-In . SVG Version: 6.00 Build 0)  -->
<svg version="1.1" xmlns="http://www.w3.org/2000/svg" xmlns:xlink="http://www.w3.org/1999/xlink" x="0px" y="0px"
	 viewBox="0 0 800 600" style="enable-background:new 0 0 800 600;" xml:space="preserve">
<style type="text/css">
	.st0{fill:#808080;stroke:#FFFFFF;stroke-width:0.5;stroke-linecap:round;stroke-linejoin:round;}
	.st1{font-family:'Roboto-Regular';}
	.st2{font-size:14px;}
</style>
<g id="Bangladesh">
	<path class="st0" d="M593.894,518.727l0.152,0.914l-0.764,1.463l-1.632,1.719l-1.97,1.285l-1.701,0.144l-0.998-1.132l-0.599-1.863
		l-0.642-3.643l-1.632-3.625l-2.17-0.494l-2.795,0.61l-3.55-0.345l-1.918-0.662l-0.894-0.499l-0.712-0.746l-0.582-1.58l-0.174-1.51
		l-0.356-1.478l-1.111-1.478l-2.691-0.909l-3.203,3.865l-2.656-0.042l-1.397,0.219l-0.938,1.771l-1.137,3.84l-2.344,3.397
		l-0.451,1.575l-0.017,1.765l0.599,3.581l-0.104,1.76l-0.469,2.667l-0.286,1.41l0.486,1.596l0.634,1.243l1.97,1.852l0.556,1.34
		l0.495,1.391l3.433,2.888l-0.554,3.471l-0.123,3.726l0.369,3.674l0.882,3.304l2.406,3.698l0.403,0.936l0.185,1.686l1.538,4.727
		l0.615,1.155l0.253,0.95l-0.191,0.965L567.397,570l-0.519-0.296l-0.431-0.65l-0.431-0.358l-0.677-0.811l-1.927-4.657l-5.741-10.489
		l-1.415-5.833l-0.554-0.915l-4.381-3.749l-0.82-1.164l-1.367-2.651l-0.943-1.436l-3.725-4.404l-0.595-1.458l-0.123-1.898
		l0.697-5.821l-0.15-2.145l-0.437-1.72l-4.661-8.538l-0.779-0.859l-0.93-0.529l-0.813-1.296l-0.567-1.612l-0.273-1.494h0.519
		l0.178,0.305l0.068,0.055l0.109,0.015l0.273,0.191l0.629-1.616l1.012-1.697l1.353-0.962l1.586,0.577l-1.053-1.01l-0.841-1.653
		l-0.472-1.877l0.021-1.679l0.718-1.01l1.169-1.103l0.813-1.261l-0.355-1.507l1.264-1.533l0.239-0.673l-0.342-0.875l0.506-0.853
		l-0.157-0.776l-0.615-0.599l-0.485-0.184l0.232-0.941l0.314-0.813v-0.783l-0.328-0.717l-0.123,0.739l-0.15,0.28l-0.355,0.272h0.629
		l-1.093,3.104l-0.977,1.302l-1.415-0.029l-0.656-1.077l0.232-1.416l0.451-1.427l-0.027-1.074h-0.574l-0.431,1.552l-0.779-0.118
		l-0.759-1.074l-0.328-1.317l0.273-2.023l0.752-0.497l1.08-0.239l1.278-1.221l-0.513-0.618l-1.394,1.03l-0.588-0.758l0.526-1.361
		l1.968-0.817v-0.626l-3.889,0.309l-1.647,0.559l-1.292,0.368l-0.793-0.754l0.137-2.153l0.882-1.936l1.51-0.766l-0.649-0.928
		l0.328-0.854l0.902-0.722l1.128-0.53v-0.678l-0.882,0.103l-0.779,0.398l-0.656,0.641l-0.54,0.825l-0.451-1.127l-0.396-1.871
		l-0.369-3.603l-0.253-0.862l-1.189-1.382l-0.267-0.818v-3.427l-2.153-9.259l-0.143-3.121l0.875,0.365l0.273,0.199l-0.431-1.199
		l-0.738,0.17l-0.608,1.159v1.73h-0.519l-0.902-1.56l-0.82-1.981l-0.533-2.21l-0.082-2.24l0.41-1.384l0.752-0.886l0.745-0.687
		l0.431-0.82l-0.123-1.492l-0.718-0.746l-0.895-0.41l-0.602-0.506l-0.266-2.264l1.483-1.082l2.173-0.643l1.818-0.968l0.916-1.618
		l1.941-6.442l-0.52,0.063l-1.189-0.063l-0.185,1.371l-0.82,3.504l0.144,0.702l-0.588,0.477l-0.95,1.042l-1.271,1.06l-1.483,0.525
		l-0.26,0.454l-2.071,1.112l-0.608,0.909l0.219,1.44l0.889,0.687l1.066,0.399l0.765,0.572l-0.034,1.75l-1.429,1.108l-1.832-0.151
		l-1.299-2.031l-1.449-10.38l-0.902-3.308l-5.68-11.228l-10.744-15.078l-2.665-1.082l-1.483-1.371l-1.182-1.66l-0.656-1.427
		l-0.656,0.374l-0.554-0.441l-0.369-0.945l-0.143-1.142l0.171-1.116l0.793-1.116l0.52-2.643l1.346-3.85l0.041-2.185h-0.622
		l-0.287,1.699l-1.449,4.78l-0.834,0.983l-1.852,0.578l-1.148,1.487l-0.431,2.02l0.26,2.194l-1.264-0.964l-1.23-0.582l-1.401-0.3
		l-1.839-0.078v0.678l1.763,0.522l0.225,0.863l-0.841,0.8l-1.469,0.359l-4.354,0.093l1.517,0.485l1.36,0.634l0.649,0.541
		l-0.239,1.319l-1.052,0.774l-1.415,0.359l-1.353,0.089l-0.082-0.096l-2.577-0.541l-0.369,0.096l-0.301-0.015l-0.116-0.348
		l0.041-1.386l-0.041-0.252l-1.025-0.374l-1.271-0.159l-2.871-0.037v0.571l1.066,0.96l0.39,0.989l-0.595,0.652l-1.948-0.059v0.674
		l4.866,1.255l2.228,0.944l0.93,1.811L478,399.25l-0.67,1.277l-0.969,3.497l-1.697,1.656l-1.564,1.271l-2.199,0.618l-4.134,0.854
		l-3.203-1.582l-1.648-2.467l-0.922-3.89l-0.834-1.077l-0.902-1.611l-0.943-2.766l-0.704-0.804l-1.223,0.404l1.258,1.292
		l1.134,2.511l0.67,2.651l-0.191,1.74l-1.709,0.848l-2.727,0.448l-2.536-0.133l-1.107-0.914l-0.519-1.255l-2.296-1.655l-0.519-0.84
		l-0.273-0.826l-1.23-1.666l-0.642-2.578l-0.923-0.396l-2.481,0.207l-0.39-0.518l-0.991-3.267l-0.649-0.537l-0.772-0.367
		l-0.642-0.452l-0.554-1.627l-1.189-1.716l-0.266-0.615l-0.123-0.96l-1.025-2.487l-0.615-3.107l-0.677-1.591l-0.759-1.354
		l-0.615-1.517l-0.246-2.074l-0.437-1.109l-6.493-8.887l-0.902-2.407l-0.191-1.047l0.007-0.984l0.964-5.592l0.123-3.743l0.478-2.015
		l0.943-1.777l0.683-1.681l-0.342-1.726h0.519l-1.381-2.98l-0.061-1.217l0.923-0.796l-0.287-0.089l-0.246-0.007l-0.137-0.123
		l0.041-0.465l-2.119,0.752l-1.435-1.917l-0.806-2.743l-0.219-1.713l0.096-5.378l0.711-2.086l2.064-1.285l4.894,0.026l1.968-1.088
		l0.068-3.369l-0.389-1.252l-0.472-0.522l-0.274-0.03l0.003-0.01l0.004-0.017l0.747-1.101l1.857-1.189l0.838-0.952l-0.603-1.033
		l0.356-0.789l0.977-0.504l1.306-0.178l0.195-0.467l-0.734-1.035l-2.239-2.312l0.738-0.725l0.655-1.232l0.052-0.664l-0.195-0.656
		l-0.365-0.576l-0.469-0.434l-1.211-0.858l-0.299-0.59l0.182-0.811l1.302-2.015l1.736-4.522l0.13-0.633l-0.026-0.726l-0.469-1.986
		l0.056-0.742l0.317-0.645l0.477-0.56l0.53-0.467l0.551-0.37l0.56-0.221l0.595-0.093l2.565,0.112l0.642-0.1l0.521-0.164l0.582-0.254
		l0.53-0.335l1.905,1.274l0.603,0.346l0.447,0.178l0.508,0.104l0.794-0.432l1.141-0.961l3.212-4.453l1.719-3.842l0.425-2.268
		l-0.373-1.755l0.746-2.169l0.964-0.922l1.38-0.851l1.628-1.882l0.629-1.935l-1.632-0.987l0.599-1.317l-1.493-2.152l0.122-0.435
		l-0.373-1.807l0.504-0.316l0.981-0.255l0.95-0.371l2.765-3.859l1.154,0.88l0.616,0.252l0.59-0.102l0.234-0.714l-0.178-1.054v-0.959
		l0.751-0.416l1.649-0.162l1.432-0.476l1.094-0.785l6.901,3.605l2.109,0.4l2.817-2.358l0.521-0.312l0.612-0.231l0.981-0.157
		l0.608,0.109l0.46,0.347l0.091,0.298l-0.104,0.309l-0.326,0.362l-1.137,0.935l-2.305,1.373l-0.343,0.295l-0.191,0.333l0.013,0.435
		l0.464,0.243l2.022,0.569l0.408,0.312l0.139,0.217l-0.208,0.178l-0.326,0.121l-1.823,0.369l-0.312,0.114l-0.286,0.164l-0.343,0.307
		l-0.256,0.383l-0.117,0.678l0.061,0.863l0.629,1.379l0.247,0.782l0.143,0.785l-0.078,1.165l0.156,1.659l0.117,0.656l0.326,0.984
		l0.104,0.658l0.43,1.466l0.729,0.855l0.456,0.675l0.013,0.116l-0.039,0.715l-0.273,1.561l-0.069,0.549l-0.003,0.02l-0.293-0.125
		l-1.12-0.088l-1.467,0.606l-1.111,1.007l-0.885,1.216l-2.864,5.114l-0.365,1.279l0.069,1.26l0.946,2.136l0.347,1.148l-0.243,1.73
		l-1.684,5.009l-0.859,1.506l-1.545,0.792l-1.597,0.142l-1.328,0.467l-0.79,1.766l0.356,1.996l1.328,0.723l1.389,0.516l0.529,1.381
		l-0.738,1.488l-1.189-0.092l-1.059,0.14l-0.286,2.205l0.382,1.596l2.439,4.593l0.642,1.622l0.703,2.996l0.772,1.5l0.694,0.665
		l1.467,0.918l0.547,0.835l0.2,0.695l0.399,2.28l1.128,3.89l0.859,1.842l1.076,0.827l1.094,0.288l0.278,0.539l-0.365,0.723
		l-0.842,0.837l-0.599,0.837l0.148,0.714l0.451,0.737l0.365,0.936l1.953,14.708l1.094,3.768l2.005,2.736l2.812,0.757l0.312-3.007
		l-1.571-7.665l-0.017-4.066l0.443-2.137l0.937-1.313l1.866-0.071l1.614,1.283l1.224,1.747l0.703,1.339l-0.026-0.078l0.286-0.633
		l0.026-0.08l0.547,0.73l0.026,0.616l-0.113,0.526l0.087,0.47l1.241,1.23l0.2,0.028l0.573,2.816l0.391,0.932l1.936,6.677
		l0.434,2.332l0.234,0.295l0.798,0.217l0.217,0.339l0.104,2.688l0.356,0.95l1.085,1.219l1.111,0.422l1.12,0.205l1.146,0.563
		l0.53,1.004l-0.009,0.902l0.26,0.313l1.371-0.775l0.495-0.672l0.312-0.867l0.391-0.75l0.764-0.318l0.59,0.113l0.599,0.21l0.59,0.13
		l0.599-0.134l1.137-0.417l2.274-0.502l1.033-0.66l0.625-0.707l1.415-1.297l0.59-0.67l1.406-2.151l0.104-0.358l-0.061-0.427
		l0.035-0.429l0.417-0.361l0.278-0.014l0.799,0.068l0.208-0.033l1.267-1.38l0.356-0.833l-0.304-1.064l-1.085-2.796l-1.267-6.29
		l-1.241-2.904l-0.46-3.649l1.589-4.501l2.439-4.28l2.187-2.981l1.354-1.187l4.644-2.017l1.345-0.979l1.094-1.218l1.901-3.227
		l0.13-3.595L533,305.883l-0.13-3.499l0.174-1.976l0.521-1.202l1.172-0.052l1.05,1.263l1.05,1.709l3.515,4.009l1.302,0.675
		l1.962-0.505l1.45-1.277l2.734-3.839l1.363-1.55l3.559-1.23l1.667,2.569l0.851,3.509l1.137,1.58l1.267-1.234l1.068-4.234
		l1.397-0.832l1.727,0.95l0.036,0.353l0.164,1.607l-0.981,3.897l0.234,3.053l3.211,10.446l0.486,4.459l0.391,1.353l0.443,0.726
		l1.094,1.071l0.469,0.792l0.13,0.686l-0.13,1.267l0.113,0.631l0.417,0.605l1.111,0.872l0.312,0.459l0.078,0.837l-0.234,1.798
		l0.026,0.903l0.434,1.517l0.391,0.888l0.052,0.931l-0.573,1.642l-1.51,3.174l-0.347,1.377l-0.078,3.633l2.135,12.921l-0.07,6.348
		l0.642,3.075l1.58,2.386l2.786,1.14l1.215,1.538l0.729,7.087l0.59,2.765l0.981,1.363l2.266,1.986l0.911,1.374l0.365,1.407
		l0.59,7.007l-0.174,5.284l0.312,1.523l1.076,2.838l0.13,1.564l4.878,29.662l-0.122,2.301l-0.955,0.45l-1.25-0.014l-1.007,0.895
		l1.901,6.099l1.102,5.974l0.174,0.8l0.061,0.814l1.206,5.47l0.234,2.736l-1.467,13.837l1.232,21.539l0.208,2.29l0.885,4.518
		l3.021,9.144L593.894,518.727z M534.645,477.971l0.267,4.083l3.035,5.972l0.759,3.573l-0.184,1.908l-0.779,3.792l-0.185,2.032
		l-0.766,1.572l-1.839,0.074l-2.112-0.371l-1.64,0.242v0.485l0.39,0.683l0.041,0.705l-1.005,0.533l-0.888-0.081l-0.731-0.518
		l-0.492-0.738l-0.362-1.598l-0.253-0.617l0.021-0.65l1.312-1.896l0.219-0.933l0.027-2.153l-0.431-3.646l-1.763-6.015l0.472-3.347
		l0.793-1.788l0.786-0.835l0.923,0.085l1.23,0.957l0.41,1.177l-0.39,1.398l-0.615,1.435l-0.267,1.265l1.312-1.618l0.519-2.163
		l-0.096-2.296l-0.601-2.002l1.504-0.228l1.381-0.39l0.027,1.45L534.645,477.971z M530.627,468.368l-0.273,1.436l-1.182,2.323
		l-0.636,3.132l-1.825,4.934l-0.718,0.868l-0.718-1.519l1.333-7.496l-0.615-4.632l0.307-1.576l0.608-1.164l1.996-2.262l0.328,0.28
		l0.137,0.295l0.109,0.718l1.012,3.385L530.627,468.368z M468.575,423.867l0.639,2.268l1.255,1.129l0.841,3.272l0.041,2.112
		l0.411,2.955l-1.361,2.775l-0.813,1.369l-0.554,1.126L467.955,443l-1.743,1.442l-1.204,0.784l-1.065,0.254l-0.948,1.584
		l-1.605,1.046l-2.075-0.116l-1.353-0.339l-0.942-0.654l-0.516-1.335l2.422-2.897l1.537-2.418l0.574-1.506l0.771-4.417l0.071-6.38
		l0.477-7.043l1.466-0.25l2.909,1.496L468.575,423.867z M469.395,410.569l3.474-1.025l0.911,1.743l-0.824,2.12l-1.744,1.178
		l-1.739,0.778l-2.131,0.108l-1.718-1.085l0.828-2.52L469.395,410.569z M495.341,403.031l7.458,9.829l0.611,3.87l-0.71,3.052
		l-4.003,0.476l-2.643-1.501l-2.48-3.628l-1.416-3.614l-0.493-2.936l1.93-4.638L495.341,403.031z"/>
	<path class="st0" d="M552.653,223.815l-0.956,0.781l-1.293,0.77l-1.033,1.023l-0.417,1.758l0.443,5.624l-0.304,2.612l-1.623,2.245
		l-2.144,0.979l-2.465,0.2l-7.005-0.603l-0.095,1.094l1.892,3.12l0.069,1.255l-1.606-0.638l-1.858-1.288l-0.764-0.695l-1.849,0.595
		l-0.286,1.653l0.877,3.664l-0.078,1.816l-1.814,7.835l-0.608,1.612l-1.059,0.685l-1.701-0.435l-2.561-2.559l-0.2-0.821
		l-0.139-2.072l-0.226-0.607l-0.877-0.043l-5.347-1.168l-0.833,1.225l0.234,1.742l0.521,1.877l0.052,1.598l-0.964,1.41l-1.467,0.556
		l-1.641-0.233l-1.51-0.961L511.266,258l-1.484-3.714l-0.877-0.333l-0.382,1.092l-0.903,5.832l-0.651,1.954l-0.799,1.277
		l-1.232,0.818l-1.944,0.592l-3.455,0.411l-3.116-0.259l-6.371-1.391l-3.489,0.302l-1.024,2.355l-0.13,3.512l-0.859,3.754
		l-1.007,0.677l-0.911-0.147l-0.654-0.279l0.003-0.02l0.069-0.549l0.273-1.561l0.039-0.715l-0.013-0.116l-0.456-0.675l-0.729-0.855
		l-0.43-1.466l-0.104-0.658l-0.326-0.984l-0.117-0.656l-0.156-1.659l0.078-1.165l-0.143-0.785l-0.247-0.782l-0.629-1.379
		l-0.061-0.863l0.117-0.678l0.256-0.383l0.343-0.307l0.286-0.164l0.312-0.114l1.823-0.369l0.326-0.121l0.208-0.178l-0.139-0.217
		l-0.408-0.312l-2.022-0.569l-0.464-0.243l-0.013-0.435l0.191-0.333l0.343-0.295l2.305-1.373l1.137-0.935l0.326-0.362l0.104-0.309
		l-0.091-0.298l-0.46-0.347l-0.608-0.109l-0.981,0.157l-0.612,0.231l-0.521,0.312l-2.817,2.358l-2.109-0.4l-6.901-3.605l0.647-1.093
		l0.673-0.631l1.215-3.138l2.856-1.286l1.814-1.276l-1.137-1.846l0.924-1.017l0.573-0.188l0.443-0.836l-0.161-0.696l-0.425-0.701
		l-0.538-0.598l-1.823-1.649l1.397-1.006l0.091-1.12l-0.143-0.481l-0.312-1.704l-1.007-0.47l-0.92-0.057l-0.655-0.377l-0.638-0.775
		l-0.026-0.377l0.113-0.315l0.239-0.195l0.56-0.627l0.729-1.025l0.89-1.701l1.172-3.101l-1.497-0.814l-0.443-0.375l-0.551-0.575
		l-0.43-0.995l-1.042-1.315l-0.039-0.687l0.469-0.313l0.872-0.286l0.625-0.384l0.252-0.494l0.061-0.592v-0.53l0.078-0.637
		l0.234-0.537l0.356-0.501l0.269-0.506l0.069-0.714l-0.364-1.115l-0.46-0.7l-0.885-0.447l-2.578-0.091l-0.651,0.057l-0.486,0.1
		l-0.391,0.014l-0.451-0.172l-0.538-1.67l0.59-4.841l-0.304-4.116l-0.56-1.917l-1.12-4.149l-9.969,1.038l-2.426-1.088l-5.486-9.108
		l0.95-3.338l0.72-1.557l0.898-1.363l0.273-0.917l0.039-1.219l-1.254-4.061l0.259-3.995l0.722-0.1l2.665-0.964l13.454-2.173
		l4.661,0.163l1.033-0.173l1.832-0.954l0.903-0.029l4.053,2.129l12.421,3.807l3.29,0.374l0.816-0.125l1.693-0.547l0.903-0.125
		l0.99-0.249l1.406-1.155l0.721-0.321l1.458,0.105l0.616,0.714l0.564,1.055l1.345,1.112l1.423,0.35l2.144,0.101l1.962-0.292
		l0.859-0.863l0.434-1.496l0.964-0.034l1.085,0.542l0.746,0.23l0.59-0.479l0.503-1.122l0.538-0.513l1.276-0.177l4.062,0.374
		l8.975-1.137l4.678,0.724l1.58-0.518l2.239-0.705l2.708,0.12l2.691,0.662l2.257,0.911l0.634,0.523l0.833,1.318l0.486,0.503
		l0.668,0.23l1.215,0.053l0.582,0.436l0.46,0.182l1.154-0.355l0.668,0.149l0.547,0.489l1.25,1.625l1.172,1.026l1.016,0.717
		l1.137,0.503l1.502,0.386l4.366,0.604l0.72,0.527l1.345,1.909l2.361,1.02l2.083,1.257l0.326,1.73l0.163,0.865l0.004,0.022
		l0.002,0.01l0.651,0.172l1.441,0.529l0.023,0.009l0.011,0.004l0.016,0.281l0.001,0.026l2.685,2.006l0.006,0.004l0.777,0.384
		l0.022,0.011l0.319,0.422l0.019,0.025l-0.674,0.616l-0.02,0.018l2.056,0.9l0.01,0.004l0.79,0.783l0.628,1.463l0.006,0.013
		l0.269,1.612l-0.252,1.031l-1.163,1.834l-2.995,0.787l-5.147,1.731l-0.825-0.112l-0.616-0.287l-0.007-0.009l-0.349-0.469
		l-0.003-0.023l-0.084-0.669l-0.015-0.009l-5.688-3.476l-0.014-0.005l-3.197-1.076l-2.448,1.074l-0.451,1.555l0.344,1.623
		l0.003,0.013l1.103,2.954l0.008,0.021l0.156,1.497l-0.035,1.439l-0.226,1.434l-4.271,12.044l-0.799,3.59l-0.382,3.148l-0.443,1.396
		l-0.877,1.353L552.653,223.815z"/>
	<path class="st0" d="M355.23,144.074l-0.354,2.671l0.295,3.17l0.742,3.303l0.981,1.814l1.306,0.235l2.99-1.219l3.185-0.125
		l18.64,7.923l13.172,2.926l6.527,2.791l2.951,0.091l8.532-1.837l6.883,0.628l3.368-0.873l1.189,0.034l0.955,0.302l1.814,0.839
		l3.116,0.537l0.729-0.053l0.477-0.283l0.894-0.954l0.443-0.235l1.345,0.173l1.085,0.652l1.05,0.796l1.224,0.609l2.352,0.288
		l9.477-1.305l-0.259,3.995l1.254,4.061l-0.039,1.219l-0.273,0.917l-0.898,1.363l-0.72,1.557l-0.95,3.338l5.486,9.108l2.426,1.088
		l9.969-1.038l1.12,4.149l0.56,1.917l0.304,4.116l-0.59,4.841l0.538,1.67l0.451,0.172l0.391-0.014l0.486-0.1l0.651-0.057
		l2.578,0.091l0.885,0.447l0.46,0.7l0.364,1.115l-0.069,0.714l-0.269,0.506l-0.356,0.501l-0.234,0.537l-0.078,0.637v0.53
		l-0.061,0.592l-0.252,0.494l-0.625,0.384l-0.872,0.286l-0.469,0.313l0.039,0.687l1.042,1.315l0.43,0.995l0.551,0.575l0.443,0.375
		l1.497,0.814l-1.172,3.101l-0.89,1.701l-0.729,1.025l-0.56,0.627l-0.239,0.195l-0.113,0.315l0.026,0.377l0.638,0.775l0.655,0.377
		l0.92,0.057l1.007,0.47l0.312,1.704l0.143,0.481l-0.091,1.12l-1.397,1.006l1.823,1.649l0.538,0.598l0.425,0.701l0.161,0.696
		l-0.443,0.836l-0.573,0.188l-0.924,1.017l1.137,1.846l-1.814,1.276l-2.856,1.286l-1.215,3.138l-0.673,0.631l-0.647,1.093
		l-1.094,0.785l-1.432,0.476l-1.649,0.162l-0.751,0.416v0.959l0.178,1.054l-0.234,0.714l-0.59,0.102l-0.616-0.252l-1.154-0.88
		l-2.765,3.859l-0.95,0.371l-0.981,0.255l-0.504,0.316l0.373,1.807l-0.122,0.435l1.493,2.152l-0.599,1.317l1.632,0.987l-0.629,1.935
		l-1.628,1.882l-1.38,0.851l-0.964,0.922l-0.746,2.169l0.373,1.755l-0.425,2.268l-1.719,3.842l-3.212,4.453l-1.141,0.961
		l-0.794,0.432l-0.508-0.104l-0.447-0.178l-0.603-0.346l-1.905-1.274l-0.53,0.335l-0.582,0.254l-0.521,0.164l-0.642,0.1
		l-2.565-0.112l-0.595,0.093l-0.56,0.221l-0.551,0.37l-0.53,0.467l-0.477,0.56l-0.317,0.645l-0.056,0.742l0.469,1.986l0.026,0.726
		l-0.13,0.633l-1.736,4.522l-1.302,2.015l-0.182,0.811l0.299,0.59l1.211,0.858l0.469,0.434l0.365,0.576l0.195,0.656l-0.052,0.664
		l-0.655,1.232l-0.738,0.725l2.239,2.312l0.734,1.035l-0.195,0.467l-1.306,0.178l-0.977,0.504l-0.356,0.789l0.603,1.033
		l-0.838,0.952l-1.857,1.189l-0.747,1.101l-0.004,0.017l-0.003,0.01l-0.547-0.06l-1.476,0.037l-0.232,0.38l0.745,0.842l1.497,1.223
		l-0.574,1.878l-1.476-0.861l-0.923-0.086l-1.62,0.947l-2.132,0.716l-1.203,0.82l-0.369-0.328l-1.278-3.615l0.328-2.594l1.353-2.133
		l2.112-0.996l-0.52-0.626l-0.15,0.377l-0.007,0.093l-0.102,0.022l-0.369,0.134l-0.642-0.869l-1.387,0.157l-3.082,1.283l0.478,1.283
		l-0.424,0.776l-1.025,0.38l-1.319,0.119l-1.415-0.119l-1.087-0.38l-2.132-1.376l0.677,1.421l1.176,0.932l1.394,0.537l1.387,0.239
		l3.123,0.119l0.684,0.734l0.178,8.209l-0.253,0.998l-0.656,0.551l-0.69,1.33l-0.52,1.62l-0.15,1.441l-2.823-1.218l-16.451-3.206
		l-3.192-1.181l-2.864-1.9l-0.082,1.058l0.793,0.991l10.894,6.606l1.312,1.094l0.779,1.139l0.526,1.132l0.738,0.867l2.665,0.584
		l2.331,1.18l1.312,0.465l5.502,0.618l0.69,0.603l2.46,3.764l0.355,1.503l0.308,3.228l-0.349-0.521l-0.642-0.9l-0.772-0.811
		l0.41,1.777l0.376,5.401l-0.314,2.174l-2.283,3.266l-0.533,0.535l-0.998-0.245l-0.205-0.762l0.39-0.906l0.813-0.639v-0.624h-0.574
		l-0.936,1.271l-0.923,0.906l-1.162,0.609l-1.613,0.39l-3.151-0.089l-1.046,0.412l-0.396,1.515l0.102,0.583l-0.196,0.163
		l-0.391,0.856l-0.312,0.351l-1.445,0.854l-2.205-1.042l-1.137-1.106l-1.901-1.46l-1.693-0.415l-1.029-0.229l-0.208,0.208
		l-1.037,0.318l-0.937,0.604l-0.755,1.483l0.82,0.137l1.298-0.191l0.677,0.495l0.065,1.585l-0.065-0.054l-0.143,0.495l-0.352,0.479
		l-0.182,0.545l-0.642,0.599l-0.911,1.513l-0.833,0.561l-0.521,0.099l-0.716,0.066l-0.994-0.389l-1.189-0.834l-1.623-1.997
		l-0.46-1.497l-0.191-2.33l-0.299-0.734l-0.508-0.679l-0.694-0.33l-0.937-0.156l-4.106,0.802l-0.768,1.401l-0.651,1.7l-1.562,0.842
		l-1.411,1.433l-0.703,1.092l-1.654,1.567l-0.443,0.566l-1.159,2.555l-2.101,2.919l-1.992,2.035l-1.185,0.648l-1.41,0.309
		l-2.995,0.502l-0.03-0.026l-3.437-1.809l-0.638-0.568l-1.706-1.979l-0.512-0.325l-1.263-0.568l-0.469-0.353l-0.373-0.657
		l-0.473-1.659l-0.352-0.853l-1.115-1.501l-2.699-2.487l-1.345-1.617l-2.04-4.401l-0.829-1.208l-0.673-0.392l-1.419-0.283
		l-0.725-0.63l-0.356-0.566l-0.269-0.687l-0.121-0.838l0.069-1.027l1.649,1.406l0.855,0.319l0.625-1.307l1.298-1.836l0.525-0.396
		l1.072-0.356l0.265-0.805l-0.482-0.847l-1.168-0.486l-0.977,0.238l-0.716,0.63l-0.751,0.51l-1.05-0.13l-1.237-1.619l0.269-1.891
		l-0.191-1.566l-4.483-1.221l0.729-1.367l1.675-1.646l0.946-1.413l-2.509,0.054l-2.118-2.469l-1.246-3.46l0.087-2.924h0.621
		l0.304,0.508l0.326,0.314l1.094,0.485l-1.584-7.534l-0.76-1.84l-1.662-1.559l-2.574-1.424l-2.461-0.249l-1.337,1.98l-0.321-0.532
		l-0.221-0.622l-0.078-0.667l0.104-0.679l0.547-0.334l1.107-0.888l0.777-0.914l-0.473-0.424l-0.877-0.421l-0.486-0.992l-0.373-1.153
		l-0.534-0.902l-1.063-1.205l-4.982-7.464l-0.859-0.434l-1.111,0.1l-1.38,0.426l-2.413,0.156l-3.463-4.441l-0.252-0.832
		l4.357-11.355l0.087-1.834l-0.156-0.757l-1.228-3.627l0.03,0.014l2.751,1.882l7.517,3.23l1.905,1.108l3.355,3.053l2.157,0.432
		l1.471-0.47l2.534-1.639l1.363-0.546l4.652-0.434l1.923-0.517l-0.022-1.08l-0.859-4.265l-0.221-1.374l0.352-2.018l1.094-2.828
		l7.196-5.986l1.029-0.988l0.785-1.281l0.638-1.257l0.213-3.266l0.851-1.526l-0.252-0.19l0.165-1.313l0.326-1.315l-0.286-0.599
		l-0.078-0.385l0.161-0.844l-0.317-0.842l-1.515-0.385l-0.035-2.015l-0.078-0.493l-0.252-0.283l-0.937-0.73l-2.257-2.463
		l-0.152-0.338l-0.477-0.326l-0.135-0.126l-0.095-0.143l-0.061-0.809l0.052-3.614l-0.53-3.535l-0.009-0.9l0.799-6.641l0.078-3.44
		l0.677-2.893l0.13-1.817l-0.078-1.727l-0.221-1.129l0.43-0.981l0.924-1.143l0.625-2.312v-1.186l-0.417-1.769l0.117-1.027
		l0.924-4.208l-0.052-1.937l-0.417-1.703l-0.547-0.965l-0.69-0.887l-1.536-1.419l-2.478-1.307l-1.445-1.004l-0.859-0.92
		l-1.124-2.262l-0.729-1.834l-2.044-10.008l-0.117-0.768l0.482-7.782l0.781-4.9l1.107-4.995l1.879-3.976l0.794-1.242l0.99-1.185
		l1.237-1.821l0.486-2.349l-0.746-5.05l1.918-4.582l0.221-0.632l0.508-0.74l1.198-0.749l1.389-0.276L355.23,144.074z
		 M416.106,335.909l-1.51,0.737l-1.599-0.443l-1.538-1.15l-2.645-2.762l-0.895-1.296l0.26-0.841l2.187,0.019l3.034,1.091
		l3.991,2.107l3.212,2.412l0.718,2.002l-3.076-2.24l-1.681-0.67L416.106,335.909z"/>
	<path class="st0" d="M356.013,140.669l-0.661,2.477l-0.123,0.928l-0.012,0.002l-1.389,0.276l-1.198,0.749l-0.508,0.74l-0.221,0.632
		l-1.918,4.582l0.746,5.05l-0.486,2.349l-1.237,1.821l-0.99,1.185l-0.794,1.242l-1.879,3.976l-6.43-0.631h-8.277l-8.01-2.655
		l-5.073-1.18l-5.607,3.246l-2.67-2.655l-2.136-4.722l-0.267-3.543l-3.471-0.886h-9.078l-8.292-0.26l-4.101,0.202l-1.983-0.274
		l-1.406-1.455l-0.499-0.408l-1.758-0.115l-0.859-0.23l-0.59-0.523l-1.988-2.492l-0.36-0.999l-0.065-0.898l-0.243-0.778
		l-0.903-0.668l-0.026-0.567l1.428-3.301l-0.117-1.99l-0.764-1.216l-1.068-0.957l-1.02-1.231l-0.725-0.63l-2.552-1.005l0.052,1.635
		l-0.833,0.389l-0.798-0.038l-0.755-0.13l-0.668,0.106l-0.885,0.75l-0.72,0.904l-0.755,0.745l-0.985,0.279l-1.758-0.413
		l-2.708-1.774l-1.645-0.808l-3.581-0.13l-1.736-0.346l-0.825-0.846l-0.647-1.342l-2.283-1.76l-0.855-1.857l-3.16-1.607
		l-1.176-1.155l-0.365-5.733l-2.222-2.513l-6.106-4.147l-5.069-5.946l-2.725-1.422l-3.758,1.104l-1.384,0.819l-1.662,0.737
		l-1.571,0.077l-1.076-1.152l-0.577-1.774l-0.395-0.795l-1.324-1.509v-0.839l0.117-0.81l-0.582-1.418l-0.642-4.134l0.252-0.434
		l0.443-0.294l0.451-0.68l1.554-5.3l1.623-3.124l2.114-1.676l0.577-1.787l-0.126-1.024l-0.456-0.522l-0.521-0.329l-0.304-0.464
		l-0.104-0.923l0.122-0.483l0.26-0.503l0.937-3.05l0.686-1.122l2.782-1.794l0.733-0.633l0.53-0.687l0.581-0.6l0.916-0.363
		l1.723-0.372l4.904-1.693l1.476-0.919l0.694-1.393l-0.135-3.411l0.308-1.365l1.267-1.796l1.267-1.167l3.949-2.508l0.621-0.799
		l0.404-0.862l0.477-0.402l0.868,0.572l0.555,0.252l0.785,0.039l0.833-0.097l0.629-0.165l1.866,0.291l-0.182-2.378l-1.684-5.059
		l-1.198-2.05l-2.231-1.057l-4.843-0.955l-1.962-0.868l-0.59,0.053l-0.295,0.64l-0.234,2.162l-0.386,0.557l-1.098-0.334
		l-0.625-1.246l-0.104-1.547l0.46-1.251l1.094-1.857l1.719-6.011l0.625-1.354l1.029-1.738L236.481,30l0.764,0.519l0.13,1.733
		l-0.078,1.99l0.243,1.849l1.102,1.276l2.977,0.897l1.337,0.631l1.094,1.3l1.05,0.863l0.903,1.023l0.686,0.679l1.68,1.149
		l1.927,0.819l0.69,0.087l1.779-0.029l1.007,0.451l0.564,0.916l0.477,1.057l0.668,0.877l0.911,0.591l0.894,0.417l1.953,0.465
		l-0.365,0.756l-0.174,0.814l0.2,0.644l0.742,0.247l0.625,0.295l-0.091,1.647l0.499,0.697l1.923,0.978l1.128,0.906l0.213,1.157
		l-0.777,1.743l-1.081,0.92l-3.094,1.568l-0.625,0.663l1.476,1.084l7.1-2.628l3.029,1.176l0.673,1.438l0.543,1.587l0.798,1.331
		l1.415,0.643l1.328-0.513l1.259-3.097l1.693-1.147l2.261,0.416l3.706,3.745l2.391,0.803l3.706-0.948l1.701-1.19l-0.451-1.742
		l-0.907-0.286l-1.003-0.034l-0.608-0.61l0.304-2.009l-0.786,0.528l-0.751,0.198l-0.668-0.227l-0.538-0.76l-0.781-2.673l-2.083-1.09
		l-2.417-0.828l-1.727-1.86l-0.052-1.594l0.69-1.754l1.05-1.57l1.059-1.023l1.38-0.683l0.768,0.233l0.768,0.785l1.345,1.003
		l0.942,0.485l1.28,1.458l0.764,0.654l0.916,0.368l1.844,0.484l0.747,0.606l0.391,1.124l-0.269,0.814l0.095,0.649l1.398,0.6
		l2.005,0.571l0.603,0.673l0.052,1.278l-0.733,0.392l-1.215-0.571l-0.963,0.126l0.048,2.517l0.542,1.53l1.68,2.812l0.629,1.485
		l0.699,5.678l0.629,1.673l1.042,1.204l5.564,2.436l1.241,0.817l0.877,1.16l0.521,1.812l0.703,0.85l2.969,1.367l2.009,2.367
		l1.532,1.062l1.693,0.768l1.358,0.159l1.367-0.802l1.007-0.922l0.981-0.015l1.276,1.907l0.391,0.174l0.408,0.053l0.425-0.053
		l0.434-0.159l0.004-0.014l4.553-0.391l0.421,0.048l0.421,0.13l0.395,0.213l1.185,2.095l0.733,0.985l0.859,0.463l1.115-0.241
		l0.621-0.854l0.23-1.183l-0.095-1.265l0.712-2.54l3.672-3.087l0.712-1.585l-0.629-1.165l-1.098-0.034l-1.163,0.222l-0.833-0.415
		l-0.009-1.112l0.92-0.773l1.232-0.628l0.981-0.633l-1.549-0.203l-1.376-0.672l-0.556-1.17l0.894-1.697l0.547-0.503l0.573-0.29
		l0.608-0.048l1.714,0.517l0.074-0.459l-0.573-1.083l-0.174-2.839l0.582-0.784l1.814-0.605l1.519,0.295l0.451,1.388l-0.046,1.936
		l-0.049,2.039l-0.121,0.382l0.2,0.193l1.024,0.479l0.616,0.092l1.675-0.155l0.746,0.058l1.003,0.807l0.491,1.392l0.373,1.542
		l0.668,1.271l1.102,1.561l0.109,1.155l-0.204,1.169l0.126,1.633l0.473,0.855l1.727,2.26l0.634,1.227l0.46,0.666l0.512,0.188
		l0.547-0.251l0.573-0.604h0.026l0.013-0.01l0.143-0.077l0.139-0.029l0.121,0.019l0.096,0.097l1.124,1.468l-0.256,1.279l-1.18,0.98
		l-1.641,0.57l1.571,0.965l1.319,0.121l0.668,0.536l-0.365,2.22l-3.619,6.425l-0.321,2.305l1.545,8.371l1.905,4.715l0.855,3.664
		l-0.781,6.545l-0.156,7.012L356.013,140.669z"/>
	<path class="st0" d="M265.554,256.306l0.014-0.007l0.269-0.79l0.972-1.442l0.286-0.845l-0.195-0.343l-0.213-1.511l-0.161-0.383
		l-0.464-3.644l-1.927-2.61l-2.752-1.703l-1.818-0.402l-0.894,2.11l-1.259,1.957l-1.853,0.114l-4.145-1.412l-5.438-0.255
		l-1.927-0.414l-6.223-4.973l-22.047-11.607l-2.422-0.529l-0.169-0.644l-0.768-1.34l-0.738-0.971l-0.334-0.343l-0.087-0.463v-4.815
		l-0.265-0.554l-1.224-1.275l-0.842-1.888l-1.371-0.585l-1.606-0.477l0.451-2.784l0.694-1.672l1.094-1.607l0.399-4.047l0.929-0.387
		l1.068-0.186l0.59-0.858l0.113-1.255l0.243-1.121l0.551-0.645l1.089,0.187l0.807-1.681l1.163-1.157l0.816-1.186l-0.243-1.751
		l-1.102-3.208l-0.386-0.799l-0.456-0.486v-0.407l4.166-2.288l1.554-0.543l1.632,0.156l1.371,0.941l1.18,1.562l0.76,1.806
		l0.074,1.682l1.016,0.06l3.524,0.95l1.411,0.129l0.768-0.591l1.523-2.727l2.921-3.84l1.024-2.145l0.265-2.439l1.94-2.45
		l0.981-2.738l0.703-6.083l-0.226-5.231l0.825-1.549l2.864-0.499l1.38,0.369l2.63,1.05l2.257,0.619l0.391,0.187l0.395,0.034
		l0.951-0.23l0.59-0.393l1.042-1.175l0.755-0.278l2.951,0.081l2.548,0.499l5.034,1.894l5.013,0.513l0.681-0.523l0.855-2l0.555-0.662
		l0.668-0.144l0.547,0.182l0.556,0.326l5.746,2.043l2.144,0.134l-1.22-1.976l1.532-0.331l0.243-0.921l-0.234-1.233l0.091-1.252
		l0.729-0.998l3.155-2.327l0.59-0.897l0.217-0.936l-0.187-0.883l-0.621-0.758l8.292,0.26h9.078l3.471,0.886l0.267,3.543l2.136,4.722
		l2.67,2.655l5.607-3.246l5.073,1.18l8.01,2.655h8.277l6.43,0.631l-1.107,4.995l-0.781,4.9l-0.482,7.782l0.117,0.768l2.044,10.008
		l0.729,1.834l1.124,2.262l0.859,0.92l1.445,1.004l2.478,1.307l1.536,1.419l0.69,0.887l0.547,0.965l0.417,1.703l0.052,1.937
		l-0.924,4.208l-0.117,1.027l0.417,1.769v1.186l-0.625,2.312l-0.924,1.143l-0.43,0.981l0.221,1.129l0.078,1.727l-0.13,1.817
		l-0.677,2.893l-0.078,3.44l-0.799,6.641l0.009,0.9l0.53,3.535l-0.052,3.614l0.061,0.809l0.095,0.143l0.135,0.126l0.477,0.326
		l0.152,0.338l2.257,2.463l0.937,0.73l0.252,0.283l0.078,0.493l0.035,2.015l1.515,0.385l0.317,0.842l-0.161,0.844l0.078,0.385
		l0.286,0.599l-0.326,1.315l-0.165,1.313l0.252,0.19l-0.851,1.526l-0.213,3.266l-0.638,1.257l-0.785,1.281l-1.029,0.988
		l-7.196,5.986l-1.094,2.828l-0.352,2.018l0.221,1.374l0.859,4.265l0.022,1.08l-1.923,0.517l-4.652,0.434l-1.363,0.546l-2.534,1.639
		l-1.471,0.47l-2.157-0.432l-3.355-3.053l-1.905-1.108l-7.517-3.23l-2.751-1.882l-0.03-0.014l-1.949-0.848l-2.101-0.475
		l-2.265-0.164l-6.97,0.726l-2.283-0.427l-1.823-0.874l-1.801-1.168l-3.242-2.764l-0.798-0.974l-0.247-0.817l0.117-0.872
		l0.273-1.164v-0.967l-0.339-0.834l-0.542-0.734l-0.616-0.672l-0.547-0.751l-0.247-0.696l-0.169-0.732l-0.326-0.853l-0.321-0.435
		l-0.846-0.656l-1.918-1.9l-1.931-2.587l-0.655-0.559l-0.781-0.464l-0.759-0.309l-0.794-0.14l-0.881,0.036l-0.829,1.118
		l-1.133,0.775l-5.429,2.556l-1.528,0.378l-1.649-0.276l-0.668-0.357l-1.224-0.899l-2.044-1.075l-0.547-0.485l-1.311-2.014
		l-0.312-0.721L265.554,256.306z"/>
	<path class="st0" d="M293.179,444.481l0.025-0.056l1.467-1.846l-0.165-2.193l-0.46-1.795l-0.707-1.519l-3.667-4.82l-0.798-1.899
		l1.211-0.835l-1.393-2.416l-0.456-1.112l-1.003-4.834l-0.009-0.887l0.226-0.934l0.721-1.197l0.147-0.714l-0.347-2.113l-1.545-3.607
		l-0.755-3.364l-1.003-0.808l-2.608-1.029l1.875-1.259l0.512-2.092l-0.369-2.449l-0.812-2.327l-1.037-1.923l-0.343-2.022
		l-0.286-1.171l-1.003-2.63l-0.204-1.656l0.573-1.24l0.946-1.151l0.894-1.393l0.365-1.214l0.33-1.77l0.139-1.771l-0.191-1.229
		l-0.959-0.921l-2.348-0.758l-0.981-1.203l-1.788-4.297l-0.877-1.426l-1.593-2.022l-0.334-1.025l0.052-1.784l0.781-2.598
		l0.217-4.681l1.133-2.295l4.561-4.894l2.248-1.872l0.742-0.864l0.43-0.973l0.013-0.753l-0.482-0.432l-2.292,0.083l-0.746-0.189
		l-0.707-0.352l-5.881-2.045l-1.423-0.288l-1.102,0.175l-0.72,0.484l-0.569,0.529l-0.673,0.314l-0.881-0.009l-5.516-1.79
		l-1.128-1.018l-0.838-1.76l-0.056-1.984l0.764-1.765l2.035-3.264l4.084-10.889l0.191-1.973l-1.12-0.913l-1.102,0.868l-0.99,1.528
		l-1.05,0.414l-1.241-2.48l-0.911-0.424l-2.461-1.694l-1.415-1.536l-1.966-3.553l-1.259-1.368l-0.668-0.142l-1.658,0.185
		l-0.851-0.367l-0.816-0.888l-0.052-0.604l0.278-0.696l0.165-1.149l-0.43-0.343l-0.864-0.178l-0.79-0.398l-0.122-1.026l1.771-8.351
		l-0.121-0.851l-0.608-1.389l0.017-0.877l0.417-0.982l1.233-1.947l0.434-1.067l0.009-0.835l-0.182-0.821l-0.091-0.833l0.273-0.875
		l1.341-1.08l1.645-0.085l1.745,0.157l1.61-0.335l1.124-0.892l3.186-3.143l0.816-1.052l0.252-1.652l-0.234-1.954l-0.503-1.76
		l-0.569-1.078l1.029-1.784l0.977-1.307l-0.039-0.872l-2.022-0.485l-0.26-1.16l-1.58-1.376l-0.412-1.051l0.109-0.846l0.538-1.916
		l0.1-1.07l-0.395-1.874l-0.017-0.887l0.477-1.127l0.842-0.809l1.858-0.699l1.306-0.631l0.083,0.671l0.312,0.721l1.311,2.014
		l0.547,0.485l2.044,1.075l1.224,0.899l0.668,0.357l1.649,0.276l1.528-0.378l5.429-2.556l1.133-0.775l0.829-1.118l0.881-0.036
		l0.794,0.14l0.759,0.309l0.781,0.464l0.655,0.559l1.931,2.587l1.918,1.9l0.846,0.656l0.321,0.435l0.326,0.853l0.169,0.732
		l0.247,0.696l0.547,0.751l0.616,0.672l0.542,0.734l0.339,0.834v0.967l-0.273,1.164l-0.117,0.872l0.247,0.817l0.798,0.974
		l3.242,2.764l1.801,1.168l1.823,0.874l2.283,0.427l6.97-0.726l2.265,0.164l2.101,0.475l1.949,0.848l1.228,3.627l0.156,0.757
		l-0.087,1.834l-4.357,11.355l0.252,0.832l3.463,4.441l2.413-0.156l1.38-0.426l1.111-0.1l0.859,0.434l4.982,7.464l1.063,1.205
		l0.534,0.902l0.373,1.153l0.486,0.992l0.877,0.421l0.473,0.424l-0.777,0.914l-1.107,0.888l-0.547,0.334l-0.104,0.679l0.078,0.667
		l0.221,0.622l0.321,0.532l1.337-1.98l2.461,0.249l2.574,1.424l1.662,1.559l0.76,1.84l1.584,7.534l-1.094-0.485l-0.326-0.314
		l-0.304-0.508h-0.621l-0.087,2.924l1.246,3.46l2.118,2.469l2.509-0.054l-0.946,1.413l-1.675,1.646l-0.729,1.367l4.483,1.221
		l0.191,1.566l-0.269,1.891l1.237,1.619l1.05,0.13l0.751-0.51l0.716-0.63l0.977-0.238l1.168,0.486l0.482,0.847l-0.265,0.805
		l-1.072,0.356l-0.525,0.396l-1.298,1.836l-0.625,1.307l-0.855-0.319l-1.649-1.406l-0.069,1.027l0.121,0.838l0.269,0.687
		l0.356,0.566l0.725,0.63l1.419,0.283l0.673,0.392l0.829,1.208l2.04,4.401l1.345,1.617l2.699,2.487l1.115,1.501l0.352,0.853
		l0.473,1.659l0.373,0.657l0.469,0.353l1.263,0.568l0.512,0.325l1.706,1.979l0.638,0.568l3.437,1.809l0.03,0.026l1.211,1.171
		l1.588,2.729l-1.185,0.946l-0.195,0.085l-0.642-0.137l-0.234,0.024l-0.269,0.233l-0.273,0.436l-0.317,0.647l-0.061,0.327
		l0.078,0.231l0.234,0.188l0.339,0.353l0.026,0.306l-0.208,0.367l-0.382,0.221l-0.469,0.198l-0.391,0.261l-0.312,0.642v0.664
		l0.122,0.506l0.217,0.325l0.746,0.421l0.391,0.438l-0.052,0.374l-0.365,0.407l-2.569,1.687l-0.755,0.92l0.026,0.473l0.521,0.261
		l2.127,0.209l0.712,0.268l0.434,0.635l0.078,0.656l-0.13,0.633l-0.234,0.238l-0.365,0.014l-0.365-0.207l-0.434-0.118l-0.469,0.047
		l-0.469,0.348l0.026,0.374l0.898,0.84l0.56,0.748l0.968,2.784l0.273,0.284l1.076,0.71l0.486,0.487l0.273,0.599l0.391,1.356
		l0.039,1.133l-0.078,0.902l-0.117,0.449l-0.716,1.666l-0.2,0.601l-0.139,0.815l0.104,0.451l0.269,0.345l1.332,0.7l0.065,0.052
		l0.156,0.308l0.182,0.305l0.708,2.085l-2.693,2.762l-1.162,1.468l-0.451,1.438l-0.656,1.441l-1.456-0.418l-2.536-2.014l0.164,1.904
		l0.478,1.548l0.301,1.552l-0.314,1.932l-3.499,6.759l1.018,1.927l0.882,3.223l0.971,6.111l0.116,3.154l-0.246,1.538l-0.704,1.162
		l-1.408,0.763l-1.23-0.122l-1.292-0.365h-1.592v0.678l1.777,0.767l1.476,0.959l1.005,1.412l0.376,2.123l-0.109,0.866l-0.431,1.629
		l0.021,0.958l0.342,0.833l1.135,1.794l0.677,1.724l0.82,1.02l0.472,1.168l-0.574,1.44l-0.601,0.236l-1.873,0.368l-2.16,1.922
		l-0.472,0.608l-0.164,0.42l-0.287,0.372l-0.8,0.457l-1.538,0.618l-0.895,0.122l-0.383-0.431l-0.444-1.303l-1.046,0.258
		l-1.258,0.858l-1.059,0.497l-1.401-0.103l-1.572-0.331l-1.435-0.574l-1.012-0.839l-0.369-0.703l-0.314-0.961l-0.048-1.005
		l0.902-1.58l-0.171-0.862l-1.203-1.746l-2.351,5.002l0.957,1.664l1.627,2.272l1.873,1.999l1.681,0.854l0.724,0.902l-0.902,1.777
		l-1.825,1.295l-2.071-0.544l-1.012-0.648l-0.936-0.026l-2.091,0.394l-0.225,0.508l0.923,2.413l0.185,0.78l-1.599,1.648
		l-1.784-1.133l-2.399-3.657l0.15-1.597l-0.97-3.739l0.246-2.076l0.677-1.163l1.558-1.826l0.636-1.392l0.267-1.495l-0.349-6.558
		l0.656-5.263l0.451-1.854l2.009-3.584l0.451-1.992l-0.287-1.929l-0.738-1.896l-1.039-1.69l-1.135-1.347l-0.055-1.262l2.577-3.4
		l0.677-1.506l0.096-1.939l0.294-1.872l0.533-1.773l0.8-1.596l-0.923,0.702l-0.779,1.149l-1.155,2.486l-0.977,0.997l-0.307,0.794
		l0.759,2.094l-0.492,0.786l-1.62,1.24l-0.998,1.617l0.096,1.192l1.763,3.103l0.424,1.125l0.205,0.871l0.048,2.055l-0.198,1.084
		l-0.861,1.737l-0.191,0.896l-0.67,5.777l-0.424,1.305l-1.558,0.848l-0.683-1.4l-0.109-4.029l0.226-0.951l0.868-1.877l0.055-1.195
		l-3.786-9.009l-0.219-1.853l0.396-4.061l-0.096-1.809l-0.827-1.957h-0.622l-0.697,5.997l0.697,11.461h0.622l0.075-1.276
		l0.396-1.169l0.451-0.66l0.225,0.262l0.116,0.786l0.294,1.107l0.431,1.096l0.513,0.778l0.451,1.036l-0.075,1.316l-0.697,2.29
		l-0.417,0.409l-1.032,0.192l-0.205,0.302l0.082,0.656l0.191,0.435l0.348,0.483l0.308,1.021l1.025,2.219l0.615,0.807l0.15,0.623
		l-0.779,4.815l-0.861,1.05l-1.107,0.829l-1.121,1.057l-0.936,1.583l-0.082,1.281l0.287,1.487l0.205,2.19l-0.308,2.087l-0.806,1.711
		l-1.135,1.424l-3.048,2.649l-0.943,0.088l-2.146-2.435l-0.451-1.347l-0.123-2.318l0.26-4.078l0.451-1.649l1.094-2.776l0.225-2.114
		l-0.362-1.823l-1.565-3.054l-0.369-1.562h-0.622l-0.526,1.385l0.239,1.164l0.54,1.135l0.369,1.264v1.448l-0.308,0.829l-1.415,1.432
		l-0.861,1.09l-0.526,0.906l-1.381,3.35l-0.41,0.743l-0.424,0.03l-0.465-1.178h-0.567l0.041,2.286l0.861,3.529l-0.335,2.211
		l-1.428,3.123l0.246,1.015l1.757,0.853l-0.977,1.133l-1.442,1.048l-1.681,0.732l-1.633,0.177l-1.579-0.919l-0.506-1.677
		l0.321-1.622l0.868-0.717l0.178-0.982l-2.604-7.399l-0.123-0.766l-0.048-1.067l-0.362-0.372l-0.779,0.504l-0.8,0.891l-0.349,0.802
		l-0.492,0.405l-1.114-0.306l-1.839-0.972l-0.868-0.773l-0.369-0.574l-2.078-7.379l-0.178-1.525l0.219-1.868l0.895-3.795
		l0.034-2.123l-0.608-1.898l-1.866-2.566l-0.39-1.412l0.513-4.164L293.179,444.481z M297.827,476.057l1.955,1.295l0.479,2.487
		l-1.025,1.6l-2.536-1.368l-4.265-5.104l-0.007-0.353l0.533-0.56l0.54-1.701l-0.034-1.752l-0.848-3.012l-0.219-1.41l-0.54-1.58
		l0.082-0.84l0.984-0.055l0.349,0.247l0.287,0.427l0.225,0.53l0.328,1.271l0.82,6.097l0.964,2.672L297.827,476.057z"/>
	<path class="st0" d="M409.894,360.843l0.355,1.99l1.169,2.87l1.572,2.732l1.681,2.193l0.191,0.464l-0.143,1.061l0.239,0.653
		l0.212,0.104l0.328,0.022l0.349,0.104l0.26,0.334l0.998,0.786l0.342,0.623l-0.431,0.857l-1.251,0.634l-1.251-0.134l-1.23-0.323
		l-1.189,0.1l-1.606,2.036l-0.766,3.037l-1.011,2.536l-2.358,0.541l1.346,1.182l-0.342,1.223l-1.135,0.471l-1.018-1.071
		l-1.825,1.223l1.23,0.923l2.399,0.8l1.634,0.837l0.786-1.671l1.435,0.256l1.456,1.26l0.916,1.349l0.253,0.937l0.321,2.845
		l1.025,2.933l0.314,3.18l-0.226,0.659l-0.827,1.081l-0.738,0.411l-1.914,0.285l-0.786,0.492l-0.485,1.373l-0.95,5.043l-0.007,1.372
		l0.246-0.954l0.519-0.548l0.574-0.407l0.389-0.577l0.075-0.951l-0.26-1.794l0.185-0.981l0.827-1.24l1.244-0.74l1.497-0.229
		l1.592,0.289l2.994,1.887l1.517,2.605l0.998,3.022l1.422,3.151l-1.285-0.433l-0.431-0.244l0.02,2.056l0.602,1.66l1.668,3.22
		l0.417,1.837l0.075,1.885l-0.492,3.724l-2.679,6.958l-1.982,3.164l-1.647,0.406l-2.235,1.233l-0.889,0.779l-0.369,0.808
		l-0.198,1.229l-0.513,1.417l-2.406,4.231l-0.806,1.01l-0.957,0.435l-1.107-0.258l-1.428-0.642l-1.23-0.797l-0.533-0.715
		l0.485-2.246l2.037-4.321l0.349-2.163l-0.977-2.576l-0.171-1.193l0.513-2.847l-0.267-1.13l-1.394-0.362l0.369,1.883l-0.841,4.017
		l0.185,1.307l0.69,0.598l0.54,0.244l0.417,0.347l0.314,0.901l-0.116,0.701l-0.39,0.62l-0.643,0.649l-0.116,0.155l-0.171,0.155
		l-0.164,0.31l-0.219,1.288l-0.328-0.041l-0.41-0.207l-0.314,0.192l-0.246,0.908l-0.28,2.811l-0.328,1.158l-0.349,0.782
		l-1.538,2.345l-1.066,1.224l-0.212,0.339l-0.362,1.593l-1.62,3.302l-0.355,1.655l-0.369,3.449l-0.779,3.381l-0.656,1.768
		l-0.854,1.211l-4.627,3.976l-1.162,0.802l-1.592,0.328l-1.715-0.298l-3.158-1.314l-1.49-0.298l-1.353-0.74l-0.369-1.491
		l0.574-1.149l1.435,0.287l-0.629-1.267l0.492-0.891l0.841-0.832l0.451-1.075l-0.143-0.773l-0.225-0.508l-0.041-0.564l0.41-0.939
		l-0.841,1.142l-1.49,3.687l-0.806,0.792l-0.8,0.265l-1.046,1.222l-0.759,0.368l-0.718-0.151l-1.093-0.917l-0.998-0.118l0.574-2.423
		l0.225-4.917l0.923-2.045l0.779-0.656l0.97-0.59l0.957-0.733l0.724-1.109l0.403-1.379l0.164-1.135l0.287-1.099l0.813-1.283
		l3.451-3.149l0.41-0.531l0.608-1.092l0.437-0.572l0.738-0.343l0.752,0.199l0.663,0.361l0.451,0.118l1.77-1.243l1.305-2.033
		l0.622-2.413l-0.253-2.414l-1.497,3.915l-1.046,2.062l-1.189,0.893l-2.255,0.299l-1.387,0.819l-4.989,5.403l-0.595,0.922
		l-0.677,1.972l-1.066,1.67l-0.26,0.641l-0.465,0.428l-1.203,0.221l-0.834-0.14l-2.672-1.098l0.485-1.257l0.089-1.382l0.636-1.073
		l0.793-0.689l0.738-0.376l0.54-0.62l0.226-1.409l-0.287-2.703l0.369-1.007l0.307-1.357l0.786-0.893l0.936-0.421l0.786-0.572
		l0.485-1.088l-2.167,0.779l-1.052,1.575l-1.312,4.448l-0.759,1.01l-2.255,2.249l-0.485,0.763l0.205,4.095l-0.205,1.165
		l-1.258,1.087l-1.517-0.575l-1.285-1.522l-0.519-1.773l-0.164-0.896l-0.738-2.057l-0.246-1.069l-0.185-6.698l-0.779-3.749
		l-0.185-2.273l-0.219-0.879l-1.073-1.72l-0.431-0.89l-0.314-1.185l-0.109-0.953l0.123-0.975l0.301-1.226l1.661-4.148l6.937-10.112
		l0.465-1.135l0.308-1.102l0.499-0.999l1.025-0.851l-2.296,1.546l-0.273,0.285l-0.708-2.085l-0.182-0.305l-0.156-0.308l-0.065-0.052
		l-1.332-0.7l-0.269-0.345l-0.104-0.451l0.139-0.815l0.2-0.601l0.716-1.666l0.117-0.449l0.078-0.902l-0.039-1.133l-0.391-1.356
		l-0.273-0.599l-0.486-0.487l-1.076-0.71l-0.273-0.284l-0.968-2.784l-0.56-0.748l-0.898-0.84l-0.026-0.374l0.469-0.348l0.469-0.047
		l0.434,0.118l0.365,0.207l0.365-0.014l0.234-0.238l0.13-0.633l-0.078-0.656l-0.434-0.635l-0.712-0.268l-2.127-0.209l-0.521-0.261
		l-0.026-0.473l0.755-0.92l2.569-1.687l0.365-0.407l0.052-0.374l-0.391-0.438l-0.746-0.421l-0.217-0.325l-0.122-0.506v-0.664
		l0.312-0.642l0.391-0.261l0.469-0.198l0.382-0.221l0.208-0.367l-0.026-0.306l-0.339-0.353l-0.234-0.188l-0.078-0.231l0.061-0.327
		l0.317-0.647l0.273-0.436l0.269-0.233l0.234-0.024l0.642,0.137l0.195-0.085l1.185-0.946l-1.588-2.729l-1.211-1.171l2.995-0.502
		l1.41-0.309l1.185-0.648l1.992-2.035l2.101-2.919l1.159-2.555l0.443-0.566l1.654-1.567l0.703-1.092l1.411-1.433l1.562-0.842
		l0.651-1.7l0.768-1.401l4.106-0.802l0.937,0.156l0.694,0.33l0.508,0.679l0.299,0.734l0.191,2.33l0.46,1.497l1.623,1.997
		l1.189,0.834l0.994,0.389l0.716-0.066l0.521-0.099l0.833-0.561l0.911-1.513l0.642-0.599l0.182-0.545l0.352-0.479l0.143-0.495
		l0.065,0.054l-0.065-1.585l-0.677-0.495l-1.298,0.191l-0.82-0.137l0.755-1.483l0.937-0.604l1.037-0.318l0.208-0.208l1.029,0.229
		l1.693,0.415l1.901,1.46l1.137,1.106l2.205,1.042l1.445-0.854l0.312-0.351l0.391-0.856L409.894,360.843z M421.936,457.467v1.85
		l0.321,0.435l0.294,0.612l0.485,1.43l-1.326,0.331l-0.841,2.048l-0.697-0.468h-0.581l-0.711,1.823l-1.374,1.955l-1.64,1.307
		l-1.483-0.088v-0.67l0.602-0.14l1.066-0.387l0.677-0.092l-0.718-1.031l-0.424-0.468l-0.629-0.416l0.547-0.6l-0.007-0.696
		l-0.123-0.825l0.205-0.965l0.349-0.619l0.369-0.435L421.936,457.467z M399.99,461.793l1.832-3.438l1.463-1.633l1.921-0.494
		l-0.308,1.99l-2.112,3.581l-2.009,7.097l-0.786,0.976l-0.779,0.508l-0.362-0.214v-4.212l0.328-2.162L399.99,461.793z
		 M404.631,451.898l-0.533,2.26l-2.379,2.728l-0.574,1.872h-0.533l0.526-1.927l1.073-2.635l1.278-2.072L404.631,451.898z
		 M408.643,452.517l3.199,3.402l1.08,2.432l-0.827,2.878l-1.804,1.083l-1.927,2.287l-1.374,0.656l-1.107-0.575l-0.656-1.319
		l-0.02-1.569l0.458-1.282l0.56-0.943l0.458-1.146l0.198-1.913l-0.198-2.86l0.308-0.87l1.087-0.881L408.643,452.517z
		 M417.815,450.663l-0.513-0.62l-3.609,2.131l-0.458,0.907h-0.526l0.164-2.116l0.513-1.977l0.957-1.468l1.49-0.568l1.059-0.675
		l2.235-2.505l1.046,0.026l0.718-1.04l0.984-0.956l0.984-0.561l0.752,0.14l-1.674,5.571l-0.007-0.9l-0.137-0.594l-0.472-1.04
		l-0.977,3.121l-0.492,3.448l-0.752,3.112l-1.797,2.13l-1.579,0.501l-0.882-0.427l-0.369-1.003l-0.089-1.235l0.451-0.818
		L417.815,450.663z M451.181,437.666l0.451-0.598l0.342-0.078l0.246,0.399l0.219,0.834v4.901l-0.649,2.103l-1.647,0.432
		l-0.854-1.383l0.089-2.531l0.608-2.738l0.677-2.015L451.181,437.666z M454.093,439.411l0.055-4.847l0.492-1.813l1.175,0.517
		l0.075,1.669l-0.253,1.931l-0.588,1.672L454.093,439.411z M452.118,435.694l-1.319-0.543l0.253-1.277l0.868-1.525l0.519-1.274
		l0.294-4.115l0.499-2.217l0.861-1.448l0.629,0.676l0.472,1.375l0.335,1.673l0.075,1.84l-0.362,1.876L452.118,435.694z
		 M424.13,417.718l-0.506-0.351l-0.56,0.107l-0.465-0.159l-0.191-1.176l0.205-0.562l0.506-0.185l0.574,0.118l0.437,0.344
		l1.135,1.239l1.223,2.218l0.923,2.513l0.205,2.147l-0.923-1.84l-0.225-0.691l-0.595,1.611l0.533,3.628l-0.554,1.574l-0.431-0.805
		l-0.082-0.975l0.02-1.016l-0.082-0.92h0.574l-0.533-1.629l-0.643-3.574L424.13,417.718z M426.467,417.718l0.506-5.336l0.212,0.251
		l0.431,0.059l0.349,0.991l0.144,0.973l0.027,1.764l-0.861,0.488l-0.287,0.237L426.467,417.718z M438.484,411.304l3.702,3.366
		l1.712,2.147l-1.68,8.633l0.098,14.651l-0.697,2.336l-4.463,6.935l-1.463,1.291l-0.123-0.391l-0.492-0.907l-1.927,2.021
		l-0.779,0.479l-2.194,3.749l-0.738,0.276l-1.046,0.568l-1.066,0.439l-0.861-0.107l-0.677-1.998l0.991-2.584l1.572-2.747
		l0.998-2.508l-4.689,6.836l-1.339,0.276l-0.547-1.803l0.355-2.566l0.943-2.626l1.203-1.977l-0.93-1.992l0.806-3.358l3.499-7.649
		l0.417-1.484l0.28-1.736l0.007-5.312l0.513-1.563l-0.677-2.683l-0.185-1.774l0.342-1.12v-0.566l-0.943-1.69l-0.977-5.504
		l-0.964-2.172l-1.353-1.21l-4.736-3.39l-1.36-0.37l-0.403-3.354l0.198-3.177l1.873-7.495l0.574-1.004l0.902-0.667l1.449-0.574
		l1.476-0.359l1.64-0.163l0.844,2.698l0.918,3.223l1.054,2.553l1.451,2.956l1.187,2.149l1.324,1.616l1.319,2.149l0.632,4.409
		l1.044,2.81L438.484,411.304z M426.281,379.088l1.543,1.856l1.226,1.875l-1.333,0.259l-2.882-0.601l-3.116-0.167l-2.45,2.288
		l-1.278,0.467l-1.26,1.315l-0.158,2.265l0.414,1.419l-1.144,1.549l-0.842-0.998l-1.07-1.011l-0.123-0.849l-0.328-0.919
		l-0.834-0.593l-2.283-0.697l0.711-1.045l0.123-0.838l-0.253-2.528l0.041-1.661l0.246-1.613l0.615-1.22l1.128-0.482l2.884,0.527
		l1.381-0.193l0.574-1.268l0.697-0.096l3.322-0.015l1.203,0.423l1.692,1.827L426.281,379.088z M428.135,369.63l-2.16,0.067
		l-0.697-0.067l0.957,0.642l0.834,0.79l0.649,0.868l0.417,0.876l-2.611-0.286l-0.766-0.338l-0.629-0.683l-1.005-1.829l-0.718-0.601
		l-0.875-0.264l-0.335,0.152l-0.294,0.353l-0.731,0.319l-0.909,0.134l-2.283,0.03l-0.875-0.163l-1.346-2.075l1.674-2.907l2.795-2.28
		l2.091-0.208l1.77,1.53l3.199,3.95l1.845,1.429V369.63z M414.958,359.045l0.56,0.888l-0.123,0.672l-1.298,1.27l-1.879,2.339
		l-0.697,0.434l-0.718-3.728l-0.437-1.307l3.246-0.011l0.677-0.178L414.958,359.045z"/>
</g>
<g id="Copyright">
	<text transform="matrix(1 0 0 1 681.6426 577.5916)" class="st1 st2">© Vemaps.com</text>
</g>
</svg>
