<?xml version="1.0" encoding="utf-8"?>
<!-- Generator: Adobe Illustrator 23.0.1, SVG Export Plug-In . SVG Version: 6.00 Build 0)  -->
<svg version="1.1" xmlns="http://www.w3.org/2000/svg" xmlns:xlink="http://www.w3.org/1999/xlink" x="0px" y="0px"
	 viewBox="0 0 800 600" style="enable-background:new 0 0 800 600;" xml:space="preserve">
<style type="text/css">
	.st0{fill:#808080;stroke:#FFFFFF;stroke-width:0.5;stroke-linecap:round;stroke-linejoin:round;}
	.st1{font-family:'Roboto-Regular';}
	.st2{font-size:14px;}
</style>
<g id="Bolivia">
	<path class="st0" d="M184.243,367.098l-0.382-0.647l-0.474,0.017l-0.615,0.251l-0.82,0.038l-0.66-0.208l-0.633-0.281l-1.185-0.731
		l-0.924-0.229l-0.275-0.106L178,364.946l-0.788-0.935l-0.608,0.145l-0.486,0.374l-0.484-0.017l-0.604-1.011l-0.353-1.5l-0.03-3.024
		l-0.258-1.469l-0.984-1.906l-1.383-1.57l-3.168-2.822l-0.835-1.273l-0.352-1.489l-0.155-3.222l0-0.047l0.069-2.928l-0.119-1.449
		l-0.439-1.211l-0.567-0.737l-0.776-0.805l-1.577-1.27l-0.616-0.22l-2.011-0.269l-0.081-0.011l0.668-1.046l0.609-2.273l0.432-0.889
		l0.174-0.055l0.673-0.11l0.239-0.076l2.114-1.942l1.209-0.825l1.067-0.423l1.121-0.212l1.045-0.398l0.838-0.977l0.186-0.647
		l-0.186-0.258l-0.285-0.127l-0.127-0.237l0.116-0.397l0.252-0.271l1.676-1.002l0.464-0.549l1.037-2.269l3.97-4.25l0.54-0.866
		l0.743-2.208l0.364-0.583l0.625-0.392l1.4-0.135l0.725-0.177l2.278-1.19l0.655-0.494l0.648-0.848l0.476-0.624l-1.048-1.477
		l-0.195-0.679l0.097-1.269l-0.049-2.382l0.081-0.831l0.35-0.708l1.023-1.277l1.305-0.67l4.401-1.761l0.874-1.394l-0.397-1.099
		l-0.9-0.615l-2.037-0.825l-1.594-1.764l-0.881-0.543l-1.1,0.37l-1.274-0.4l-0.423-0.038l-0.428,0.151l-0.758,0.589l-0.442,0.19
		h-1.003l-0.934-0.316l-0.844-0.53l-0.728-0.627l-1.36-1.721l-0.879-2.222l-1.66-4.198l-1.665-4.191l-1.661-4.189l-1.667-4.191
		l-0.474-1.201l-0.222-1.217l0.346-1.213l2.534-3.856l0.207-0.793l0.101-0.814l0.2-0.797l0.51-0.73l0.395-0.218l1.069-0.365
		l0.274-0.18l0.02-0.352l-0.452-1.208l0.226-0.654l0.624-0.834l0.755-0.687l1.303-0.453l0.527-1.563l0.759-0.05l0.923,0.063
		l0.615-0.499l0.091-0.742l-0.926-0.913l-0.967-1.387l-0.633-0.62l-2.328-1.746l-0.641-0.657l-2.25-3.462l-0.654-0.615l-0.841-0.791
		l-0.249-0.703l0.174-0.753l0.641-1.519l0.082-0.314l-0.166-3.312l0.057-0.694l0.357-0.548l0.875-0.535l2.172-0.61l0.622-0.364
		l0.54-1.166l0.248-5.181l0.502-0.785l0.771-0.079l0.888,0.188l0.854,0.025l0.23-0.451l-0.114-1.863l0.123-0.697l0.238-0.184
		l0.667-0.175l0.279-0.138l1.543-1.791l0.76-0.564l2.542-1.427l0.778-0.73l-0.171-0.809l-0.536-0.805l-0.307-0.722l-0.041-1.56
		l0.06-0.78l0.217-0.697l0.987-0.709l1.314-0.338l2.644-0.342l0.754-0.817l-0.174-1.413l-0.971-2.701l-0.245-1.388l-0.226-0.625
		l-0.407-0.579l-2.094-1.387l-0.518-0.737l-0.237-1.295l-0.006-1.466l-0.148-1.366l-0.671-1.024l-0.506-1.544l-0.047-0.545
		l0.135-0.649l0.19-0.474v-0.462l-0.434-0.599l-2.112-1.723l-0.803-1.161l0.548-0.915l0.51-0.05l1.193,0.216l0.446-0.083
		l0.344-0.441l0.009-0.47l-0.075-0.507l0.091-0.553l0.305-0.462l0.827-0.902l0.337-0.516l0.346-0.965l0.238-0.998l-0.145-0.91
		l0.456-7.849l-0.557-3.16l-0.103-1.621l0.294-4.757l-0.07-0.577L188,159.794l-0.014-1.721l0.22-0.904l1.233-0.966l0.418-0.97
		l0.474-0.75l0.86,0.12l0.494-1.132l0.603-0.833l0.796-0.543l3.226-0.883l0.297-0.356l0.906-1.794l-0.392-0.443l-1.265-0.352
		l-0.363-0.377l0.047-0.654l0.373-0.58l0.539-0.456l1.167-0.634l0.556-0.505l0.451-0.592l0.323-0.609l0.236-0.799l0.228-0.368
		l0.396-0.174l-0.204-0.364l0.442,0.066l1.274,0.062l0.376-0.062l0.246-0.17l0.468-0.516l0.185-0.11l0.764-2.173l0.45-0.561
		l0.929-0.186l0.671,0.317l0.574,0.455l0.643,0.234l0.807-0.108l0.487-0.321l0.722-1.188l1.815-4.568l0.855-1.22l4.631-2.447
		l1.001-1.106l0.306-1.333l0.287-2.906l0.621-1.11l1.197-0.575l2.945-0.401l1.053-0.527l0.799,0.05l0.98-0.186l0.938-0.357
		l0.669-0.473l0.566-0.878l0.321-1.045l-0.019-0.209l0.703,0.178l40.197,18.922l-0.308,0.724l-0.101,0.789l0.05,2.445l0.084,0.515
		l0.308,0.619l-0.026,0.64l-0.477,0.824l-1.048,1.427l0.613,1.723l0.176,0.835l-0.082,1.021l-2.172,9.236l-1.884,4.609l-0.542,0.166
		l-0.659-0.081l-0.789,0.145l-0.657,0.627l-1.531,2.82l-0.315,0.249l-0.724,0.378l-0.295,0.264l-0.18,0.367l-0.167,0.799
		l-0.153,0.367l-3.187,3.764l-1.356,1.067l-0.569,0.658l-1.687,2.601l-0.618,1.34l0.032,1.396l0.654,3.673l0.676,1.042l-0.012,0.784
		l-0.331,0.684l-1.625,2.086l-0.766,1.292l-0.463,0.526l-0.645,0.412l-0.495,0.499l-0.361,0.816l-0.46,1.633l-0.035,0.778
		l0.538,1.049l-0.114,0.803l-0.346,0.639l-0.37,0.512l-0.32,0.593l-1.047,4.771l0.021,0.644l0.488,1.8l0.046,0.496l0.408,3.126
		l-0.154,2.42l0.383,1.32l0.074,0.692l-0.17,0.649l-0.496,0.563l-1.251,0.565l-0.462,0.378l-0.146,0.736l0.1,0.764l0.194,0.803
		l0.568,1.471l0.101,0.138l0.263,0.242l0.098,0.142l0.062,0.244l-0.011,0.497l0.025,0.253l0.178,0.407l0.853,0.852l0.473,0.739
		l0.234,0.772l-0.042,0.796l-0.346,0.808l-0.266,0.33l-0.62,0.551l-0.279,0.313l-0.225,0.418l-0.102,0.299l0.209,0.338l1.037,2.503
		l0.754,1.068l1.898,1.73l0.345,0.65l0.189,0.882l0.029,1.67l-0.163,1.531l-0.194,0.801l-0.125,0.87l0.038,0.625l0.127,0.826
		l0.487,1.469l0.576,0.738l0.582,0.356l0.563,0.446l0.378,0.224l0.43,0.132l0.491,0.038l0.932-0.117l0.466-0.008l0.466,0.09
		l0.447,0.333l0.421,0.519l0.733,1.49l0.34,0.563l0.517,0.496l0.934,1.097l1.053,1.571l2.486,5.053l0.125,0.555l0.007,0.492
		l-0.293,1.704l-0.015,0.417l0.055,0.428l0.157,0.43l0.278,0.449l0.4,0.434l0.563,0.321l0.814,0.346l0.242,0.182l0.343,0.352
		l0.84,1.474l7.817,7.4l1.618,1.635l-3.251,2.793l-1.416,1.817l-1.202,1.301l0.088,0.139l0.168,0.128l0.173,0.095l0.139,0.145
		l0.067,0.277l-0.073,0.628l-0.229,0.429l-0.306,0.395l-0.299,0.515l-0.115,0.467l0.009,0.473l0.141,0.961l0.004,1.026l-0.372,2.992
		l0.043,0.41l0.127,0.301l0.705,0.907l0.6,1.043l1.154,1.258l0.416,0.692l0.085,0.89l-0.081,0.642l0.055,0.265l1.226,0.442
		l0.169,0.137l0.321,0.541l0.824,1.072l0.235,0.581l-0.179,5.057l-0.525,2.061l0.055,1.022l0.453,1.102l1.166,2.077l0.347,1.168
		l-0.039,3.09l0.012,0.538l0.293,1.887l0.027,0.675l-0.116,0.68l-0.53,0.809l-0.909,0.722l-1.036,0.555l-0.916,0.315l-2.349,0.298
		l-0.944,0.462l-0.773,1.138l-0.741,1.396l-0.278,0.714l-0.082,0.832l0.105,0.803l-0.015,0.378l-0.158,0.442l-0.683,0.907
		l-0.194,0.334l-0.311,0.869l-0.113,0.844l0.189,0.744l0.602,0.565l1.806,0.721l0.424,0.677l0.588,0.628l0.499,0.755l0.27,0.52
		l0.237,0.633l0.58,2.971l-0.131,1.272l0.026,0.529l0.174,0.419l0.289,0.536l0.304,0.383l0.587,2.185l-0.765,1.552l0.161,0.415
		l0.242,0.445l0.364,0.358l0.226,0.384l0.106,0.559l-0.285,0.354l-0.471,0.343l-5.033,2.715l-0.906-0.856l-0.129-0.18l-0.94-1.085
		l-0.653-0.956l-0.514-1.123l-0.252-0.43l-0.275-0.375l-0.323-0.35l-0.564-0.468l-0.251-0.129l-0.284-0.112l-0.49-0.095l-0.36-0.028
		l-0.352,0.026l-5.1,1.481l-0.832,0.328l-4.617,2.734l-4.773,3.449l-0.938,0.734l-6.474,4.069l-0.742,0.569l-0.143,0.216
		l-0.048,0.274l0.053,0.584l0.099,0.346l0.125,0.28l0.373,0.609l0.232,0.565l0.042,0.197l0.01,0.259l-0.027,0.263l-0.119,0.425
		l-0.111,0.289l-0.21,0.425l-0.272,0.306l-0.834,0.546l-0.528,0.087l-0.484-0.038l-0.227-0.055l-0.214-0.087l-7.684-5.829
		l-0.866-0.407l-1.294-0.458l-3.11-1.574l-1.168-0.371l-6.121-0.265l-4.684,0.363l-1.292,0.354l-2.452,1.124l-0.381,0.263
		l-2.188,1.852l-3.456,4.405l-1.383,1.287l-3.326,2.545l-1.991,1.086l-5.148,1.415l-2.844,1.435L184.243,367.098z"/>
	<path class="st0" d="M187.868,404.523l1.164-1.598l0.315-0.765l0.013-0.91l-0.125-0.427l-2.171-4.616l-0.015-0.03l-0.005-0.034
		l0.005-0.03l0.288-0.555l0.081-0.551l-0.093-0.559l-0.261-0.533l-0.927-1.664l-0.352-2.022l0.047-2.128l0.264-1.974l0.02-0.938
		l-0.286-0.848l-1.413-2.429l-0.159-0.673l0.101-2.245l-0.068-0.366l-0.576-1.746l-0.042-0.362l-0.004-0.43l-0.133-0.958
		l-0.403-0.672l-1.195-1.281l-0.557-1.919l1.154-1.2l1.436-1.153l0.293-1.773l-0.022-0.037l0.401-0.124l2.844-1.435l5.148-1.415
		l1.991-1.086l3.326-2.545l1.383-1.287l3.456-4.405l2.188-1.852l0.381-0.263l2.452-1.124l1.292-0.354l4.684-0.363l6.121,0.265
		l1.168,0.371l3.11,1.574l1.294,0.458l0.866,0.407l7.684,5.829l0.214,0.087l0.227,0.055l0.484,0.038l0.528-0.087l0.834-0.546
		l0.272-0.306l0.21-0.425l0.111-0.289l0.119-0.425l0.027-0.263l-0.01-0.259l-0.042-0.197l-0.232-0.565l-0.373-0.609l-0.125-0.28
		l-0.099-0.346l-0.053-0.584l0.048-0.274l0.143-0.216l0.742-0.569l6.474-4.069l0.938-0.734l4.773-3.449l4.617-2.734l0.832-0.328
		l5.1-1.481l0.352-0.026l0.36,0.028l0.49,0.095l0.284,0.112l0.251,0.129l0.564,0.468l0.323,0.35l0.275,0.375l0.252,0.43l0.514,1.123
		l0.653,0.956l0.94,1.085l0.129,0.18l0.906,0.856l6.409,4.92l0.693,0.687l2.035,2.599l2.966,4.632l2.173,5.232l-0.322,0.806
		l-0.388,0.363l-0.434,0.312l-0.475,0.23l-2.677,0.867l-0.287,0.661l-0.244,3.813l0.071,0.93l0.167,0.511l0.237,0.434l0.31,0.33
		l0.385,0.283l1.325,0.59l0.477,0.111l0.495-0.021l1.021-0.192l1.033-0.013l0.412,0.089l0.812,0.319l0.376,0.07l0.845-0.013
		l0.902,0.277l-0.899,1.011l-1.132,0.734l-1.764,0.866l-0.98,0.652l-0.844,0.419l-0.409,0.381l-0.16,0.277l-0.021,0.249l0.08,1.357
		l-0.018,0.682l-0.066,0.505l-0.399,1.83l-0.024,0.473l0.028,0.522l0.043,0.166l0.024,0.064l0.489,0.752l1.373,3.008l0.31,0.491
		l0.236,0.269l0.439,0.361l3.281,2.596l1.14,0.717l3.478,1.255l2.483,0.252l2.003,0.809l0.58,0.465l0.46,0.48l0.209,0.433
		l1.751,5.502l0.087,0.222l1.501,2.875l1.932,2.626l2.901,3.375l0.703,1.327l-0.046,0.407l-0.173,0.366l-0.384,0.295l-0.458,0.206
		l-1.15,0.225l-4.783,0.39l-8.241,0.597l-0.933,0.357l-1.637,0.912l-4.693,4.316l-2.845,2.175l-1.549,0.887l-8.132,3.703
		l-11.931,5.188l-12.157,5.263l-5.303,1.815l-2.039-0.045l-3.611-0.709l-17.889-5.998l-11.075-4.028l-0.168-0.081l1.745-2.641
		v-0.004l0.857-1.214l0.542-0.549l1.575-0.712l0.331-0.274l-0.289-0.797l-0.687-0.827l-0.806-0.767l-4.18-3.05l-1.395-0.531
		l-1.079-0.702l-1.375-2.402l-0.891-0.989l-3.683-3.248l-1.25-0.881l-1.855-0.642l-0.537-0.355l-0.438-0.586l-0.918-2.177
		l-0.726-1.312l-0.48-0.547L187.868,404.523z"/>
	<path class="st0" d="M205.784,486.959l-0.922-0.577l-0.659-1.739l-0.032-5.419l0.301-0.977l0.582-0.856l2.682-2.342l0.026-0.765
		l-1.144-0.954l-1.021-0.423l-1.839-1.2l-3.998-1.93l-0.861-0.665l-0.865-0.906l-0.823-1.143l-0.575-1.277l-0.141-1.281l0.444-1.095
		l0.881-0.698l2.215-0.789l-1.546-2.78l-0.447-1.387l0.046-1.628l0.196-1.193l-0.117-0.418l-1.282-0.284l-1.19-0.762l-0.122-0.801
		l0.667-0.706l4.797-1.476l1.203-0.12l0.562,0.095l0.414,0.129l0.346-0.047l0.352-0.422l0.188-0.426l0.329-1.428l0.046-0.813
		l0.794-1.94l0.119-0.598l-0.053-0.258l-0.158-0.249l-0.18-0.572l-0.038-1.229l-0.038-0.292l-0.297-0.563l-0.38-0.279l-1.203-0.507
		l-0.677-0.499l-1.231-1.323l-1.88-1.465l-0.275-0.52l0.087-0.76l0.505-0.837l1.631-1.455l0.689-0.764l2.121-3.211l0.168,0.081
		l11.075,4.028l17.889,5.998l3.611,0.709l2.039,0.045l5.303-1.815l12.157-5.263l11.931-5.188l8.132-3.703l1.549-0.887l2.845-2.175
		l4.693-4.316l1.637-0.912l0.933-0.357l8.241-0.597l4.783-0.39l1.15-0.225l0.458-0.206l0.384-0.295l0.173-0.366l0.046-0.407
		l-0.703-1.327l-2.901-3.375l-1.932-2.626l-1.501-2.875l-0.087-0.222l-1.751-5.502l-0.209-0.433l-0.46-0.48l-0.58-0.465
		l-2.003-0.809l-2.483-0.252l-3.478-1.255l-1.14-0.717l-3.281-2.596l-0.439-0.361l-0.236-0.269l-0.31-0.491l-1.373-3.008
		l-0.489-0.752l-0.024-0.064l-0.043-0.166l-0.028-0.522l0.024-0.473l0.399-1.83l0.066-0.505l0.018-0.682l-0.08-1.357l0.021-0.249
		l0.16-0.277l0.409-0.381l0.844-0.419l0.98-0.652l1.764-0.866l1.132-0.734l0.899-1.011l-0.902-0.277l-0.845,0.013l-0.376-0.07
		l-0.812-0.319l-0.412-0.089l-1.033,0.013l-1.021,0.192l-0.495,0.021l-0.477-0.111l-1.325-0.59l-0.385-0.283l-0.31-0.33
		l-0.237-0.434l-0.167-0.511l-0.071-0.93l0.244-3.813l0.287-0.661l2.677-0.867l0.475-0.23l0.434-0.312l0.388-0.363l0.322-0.806
		l2.658-0.506l0.883-0.083l0.375,0.053l0.315,0.083l1.516,0.172l2.349-0.091l1.988,0.332h0.452l0.357-0.068l0.426-0.236l2.255-1.859
		l0.855-0.673l3.163-2.239l0.503-0.172l1.044-0.242l1.576-0.089l1.338,0.115l0.458,0.083l0.399,0.117l0.809-0.002l0.206,0.801
		l0.497,1.036l0.578,0.892l0.455,0.382l0.436,0.102l0.378,0.278l0.264,0.395l0.248,1.012l0.357,0.102l2.593-0.648l0.842,0.011
		l0.697,1.065l2.356,1.309l2.428,2.119l0.3,0.712l0.698,0.57l1.38,0.838l0.936,1.149l0.466,0.73l0.435,1.194l0.574,0.604
		l0.708,0.496l0.643,0.351l1.402,1.143l1.691,2.964l1.205,1.263l0.225,0.089l0.585,0.107l0.258,0.085l0.185,0.141l0.35,0.422
		l1.353,0.739l0.382,0.107l0.147,0.149l0.127,0.362l-1.285,0.3l-0.59-0.072l-0.904-0.418l-2.967-0.99l-0.306-0.185l-0.076-0.036
		l-0.1-0.028l-0.193,0.025l-0.251,0.083l-1.098,0.543l-0.228,0.064l-0.228-0.006l-0.222-0.085l-0.174-0.16l-0.121-0.213l-0.089-0.23
		l-0.095-0.194l-0.124-0.151l-0.165-0.121l-0.23-0.092l-0.279-0.055l-1.153,0.043l-0.257-0.038l-0.215-0.113l-0.191-0.138
		l-0.232-0.085l-0.472-0.055l-0.156-0.098l-0.097-0.153l-0.095-0.313l-0.097-0.145l-0.173-0.072l-0.207,0.032l-0.213,0.083
		l-0.204,0.13l-0.142,0.153l-0.077,0.383l0.229,1.472l0.002,0.375l0.059,0.232l0.132,0.266l0.357,0.439l0.274,0.237l0.268,0.173
		l0.85,0.398l0.401,0.286l0.126,0.307l0.044,0.441l-0.253,1.969l0.085,1.716l0.814,4.473l-0.03,0.186l-0.173,0.388l-0.307,0.371
		l-0.909,0.775l-0.173,0.184l-0.135,0.201l-0.109,0.228l-0.056,0.25l0.043,0.288l0.111,0.209l0.284,0.173l0.2,0.034l0.195-0.026
		l0.201-0.064l4.247-2.13l0.785-0.288l1.705-0.41l0.23-0.006l0.19,0.038l0.237,0.072l0.22,0.102l0.193,0.145l0.153,0.199
		l0.092,0.252l0.076,0.399l-0.055,0.431l-0.152,0.482l-0.393,0.704l-0.275,0.348l-0.249,0.229l-0.611,0.384l-1.42,1.245
		l-0.067,0.096l-0.085,0.243l-0.039,0.365l0.091,0.442l0.106,0.235l0.081,0.117l0.321,0.278l0.305,0.32l0.117,0.186l0.098,0.199
		l0.08,0.239l0.06,0.254l0.056,0.543l0.085,0.447l0.063,0.182l-0.036,0.205l-0.109,0.235l-0.495,0.444l-0.279,0.303l-0.98,1.633
		l-0.657,1.122l-0.088,0.21l-0.08,0.143l-0.044,0.169l-0.009,0.098l0.019,0.139l0.726,2.014l0.617,1.086l1.25,0.841l0.26,0.242
		l0.232,0.345l0.169,0.516l0.162,1.1l0.233,0.49l0.547,0.548l1.047,0.762l0.865,1.327l0.451,0.482l1.928,1.33l0.554,0.557
		l0.648,0.437l1.752,0.332l0.638,0.377l0.62,0.465l2.38,1.358l0.956,0.326l0.774-0.249l0.282-0.193l0.169,0.073l0.109,0.167
		l0.106,0.094l0.871,0.007l3.04-1.001l1.174-0.092l1.045,0.279l0.665,0.557l0.616,0.829l0.448,0.934l0.17,0.868l0.115-0.015
		l0.257,0.257l0.262,0.343l0.141,0.244l0.032,0.375l-0.062,0.35l-0.2,0.693l-0.117,0.875l0.046,0.796l0.217,0.774l0.394,0.811
		l3.311,4.384l0.844,1.644l0.297,0.857l-0.361,0.55l-1.313,1.856l-3.052,3.247l-7.381,4.171l-0.659,0.174l-4.01,0.348l-0.857,0.245
		l-1.194,0.176l-0.755,0.295l-0.146,0.071l-0.786,0.611l-0.658,0.665l-0.162,0.123l-0.188,0.095l-0.434,0.118l-0.197,0.146
		l-0.132,0.254l-0.006,0.889l0.029,0.22l0.203,0.725l-0.167,0.678l-1.037,1.47l-0.255,0.336l-0.218,0.349l-0.188,0.398l-0.404,1.378
		l-0.033,0.396l0.029,1.486l0.113,0.866l2.742,11.048l-2.987,7.159l-0.181,0.622l-0.465,2.401l-0.299,0.733l-1.026,1.754
		l-0.257,5.266l-1.671,5.812l-0.076,0.875l0.021,0.553l0.082,0.47l0.122,0.431l0.036,0.241l-0.416,4.382l0.039,1.052l0.052,0.226
		l0.669,1.579l5.518,6.001l3.225,2.416l0.019,1.352l-0.042,0.396l-0.115,0.524l-0.658,1.809l-0.526,0.929l-0.517,0.602l-0.159,0.128
		l-0.133,0.278l-0.101,0.392l-0.116,1.218l-0.105,0.374l-0.243,0.3l-0.361,0.376l-0.259,0.653l-0.346,1.928l0.392,0.216l0.148,0.104
		l0.198,0.17l0.176,0.2l0.194,0.324l0.229,0.314l0.426,0.381l0.273,0.305l0.633,0.971l0.993,1.939l0.463,0.702l0.314,0.27
		l0.138,0.155l0.406,1.286l1.043,4.996l0.056,0.116l-0.682,0.007l-0.001,0.01l-10.438,0.125l-2.078-0.236l-2.715-0.397l-0.338,0.035
		l-0.192,0.161l-0.174,0.192l-0.291,0.144l-5.448,0.633l-1.201-0.38l-1.144-0.811l-5.012-5.961l-0.853-0.484l-3.6-0.636
		l-0.204-0.227l-0.463-2.047l-1.209-1.311l-1.695-0.862l-3.311-1.075l-0.686,0.231l-1.859,6.935l-0.376,3.937l-0.17,0.619
		l-0.239,0.51l-0.087,0.048l-0.166-0.1l-0.493,0.065l-0.336,0.209l-0.303,0.345l-0.242,0.41l-0.159,0.397l-0.948,0.738l-5.197,1.514
		l-4.554,1.253l-0.15,0.201l-0.105,0.319l-0.119,0.271L279.715,541l-0.643-0.218l-0.766-0.096l-0.432-0.144l-0.424-0.039l-0.53,0.24
		l-0.901,0.786l-0.507,0.839l-0.283,0.987l-0.463,3.142l-0.283,0.957l-0.503,0.63l-0.097,0.35l0.237,1.224l-0.024,0.437
		l-0.445,0.306l-4.388,1.382l-1.043,0.551l-0.792,0.853l-0.378,0.578l-0.505,0.346l-0.602,0.14l-0.865-0.083l-0.667,0.031
		l0.327,3.94l-0.089,0.924l-0.433,0.644l-2.955,2.353l-1.152,1.385l-2.003,3.372l-12.374,2.698l-1.441,0.285L241.564,570
		l-6.05-0.364l-1.257-0.426l-0.301-0.298l-0.851-1.338l-0.192,0.031l-1.502-0.307l-0.42-0.632l-0.172-1.096l0.006-3.275l1.275-6.307
		l-0.018-0.827l-1.193-2.376l-0.333-2.104l-0.342-0.905l-1.5-2.785l-0.259-0.852l-0.012-0.843l0.681-2.639l-0.047-0.821
		l-0.352-1.013l-1.098-1.594l-0.139-0.454l0.129-0.397l0.495-0.707l0.135-0.384l-0.135-0.916l-0.469-1.016l-0.687-0.894
		l-0.784-0.536l-1.898-1.862l-0.938-0.863l-0.364-0.501l-0.164-0.61l-0.445-6.926l-0.812-3.255l-2.434-4.458l-0.307-1.452
		l0.184-10.228l-0.54-1.853l-8.166-13.608l-0.617-0.619l-0.855-0.221l-1.645,0.078l-0.556-0.061L205.784,486.959z"/>
	<path class="st0" d="M435.817,541.926l-0.338-0.118l-0.111-0.301l-0.055-0.38l-0.166-0.38l-0.463-0.498l-1.672-1.205l-1.851-0.908
		l-0.552-0.585l-0.291-0.746l-0.006-1.335l-0.263-0.515l0.107-0.349l0.002-0.419l-0.249-1.592l-0.117-0.397l-0.556-0.135l-1.7-0.323
		l-5.785,0.314l-0.02,0.004l-12.3-0.07l-12.3-0.07l-1.504,0.262L395,532.535l-1.819,1.627l-0.445-0.205l-1.613-1.443l-0.786-0.357
		l-3.648-0.249l-1.047,0.196l-0.564,0.244l-0.131,0.135l-0.02,0.249l-0.374,0.946l-0.141,0.82l-0.135,0.336l-0.301,0.31
		l-0.299,0.148l-0.271,0.083l-0.206,0.153l-0.342,0.689l-0.602,2.37l-1.222,3.117l-0.304,0.472l-0.785,0.432l-0.288,0.31
		l-2.907,7.636l-0.945,1.387l-2.019,1.925l-0.567,1.015l-1.688,6.363l-0.024,3.055l-0.348,0.824l-0.918,3.263l0.065,0.54
		l-0.728-0.351l-0.15-1.983l-0.48-0.592l0.3-1.013l-0.133-1.153l-0.518-0.942l-0.852-0.39l-0.428-0.346l-1.039-2.261l-0.389-0.302
		l-0.352-0.136l-0.254-0.245l-0.099-0.631l0.04-0.482l0.186-0.828l0.04-0.425l0.152-0.46l0.324-0.377l0.29-0.433l0.061-0.626
		l-2.169-2.166l-0.563-0.779l-0.231-0.967l-0.148-0.254l-0.701-0.464l-0.218-0.31l0.01-0.429l0.304-0.818l-0.05-0.459l-0.521-0.468
		l-0.821-0.577l-0.514-0.739l0.389-0.988l0.505-0.612l0.27-0.585l-0.02-0.677l-0.355-0.865l-0.327-0.502l-1.043-1.284l-0.365-0.262
		l-0.785-0.183l-0.877-0.445l-0.746-0.559l-0.832-0.127l-0.328-0.109l-0.305,0.057l-0.722,0.319l-0.36,0.065l-1.542-0.375
		l-2.744-1.558l-7.349-1.728l-6.654,0.08l0.001-0.01l0.682-0.007l-0.056-0.116l-1.043-4.996l-0.406-1.286l-0.138-0.155l-0.314-0.27
		l-0.463-0.702l-0.993-1.939l-0.633-0.971l-0.273-0.305l-0.426-0.381l-0.229-0.314l-0.194-0.324l-0.176-0.2l-0.198-0.17
		l-0.148-0.104l-0.392-0.216l0.346-1.928l0.259-0.653l0.361-0.376l0.243-0.3l0.105-0.374l0.116-1.218l0.101-0.392l0.133-0.278
		l0.159-0.128l0.517-0.602l0.526-0.929l0.658-1.809l0.115-0.524l0.042-0.396l-0.019-1.352l0.163-2.416l1.079-8.424l-0.075-0.863
		v-1.687l0.056-0.418l0.656-2.337l0.493-7.657l0.093-0.26l0.138-0.253l0.233-0.314l0.227-0.115l0.223,0.007l0.177,0.104l0.335,0.247
		l0.197,0.095l0.671,0.217l0.228,0.032l0.238-0.035l0.526-0.208l0.237-0.069l0.223,0.004l0.185,0.08l0.306,0.271l1.215,1.518
		l0.014,0.013l0.028,0.013l0.094,0.019l0.186,0.002l0.258-0.061l0.272,0.009l0.036,0.024l0.226,0.292l0.129,0.121l0.162,0.028
		l0.208-0.033l0.342-0.143l0.25-0.061l0.216,0.041l0.17,0.111l0.299,0.279l0.17,0.115l0.197,0.074l0.233,0.011l0.48-0.039
		l0.244,0.026l0.2,0.08l0.165,0.13l0.109,0.173l0.073,0.212l0.051,0.223l0.075,0.208l0.17,0.124l0.445,0.147l0.201,0.093
		l0.166,0.123l0.137,0.145l0.118,0.156l0.091,0.165l0.111,0.163l0.145,0.143l0.176,0.115l0.591,0.288l0.166,0.123l0.143,0.152
		l0.127,0.156l0.163,0.106l0.194,0.03l0.475-0.215l0.736-0.221l0.636-0.31l0.281-0.251l0.158-0.273l0.101-0.494l0.071-0.227
		l0.288-0.589l0.06-0.225l0.008-0.24l-0.022-0.5l0.071-0.539l0.247-0.598l0.567-0.894l0.328-0.63l0.383-0.567l0.29-0.21l0.288-0.084
		l0.221,0.048l0.192,0.069l0.53,0.288l0.214,0.078l0.224,0.052l0.482-0.002l0.221,0.022l0.198,0.078l0.14,0.136l0.097,0.19
		l0.22,0.619l0.11,0.18l0.139,0.145l0.742,0.424l0.163,0.126l0.267,0.29l0.16,0.23l0.766,0.875l0.106,0.175l0.937,2.164l0.11,0.176
		l0.13,0.152l0.164,0.132l0.181,0.106l0.285,0.046l0.357-0.015l1.204-0.321l0.728-0.091l0.268,0.007l0.495,0.091l0.202,0.095
		l0.345,0.238l1.405,1.194l1.438,0.633l0.723,0.143l2.35-0.26l0.506,0.065l1.042,0.332l0.335,0.026l0.265-0.048l0.195-0.121
		l0.189-0.143l0.213-0.215l0.152-0.184l0.128-0.193l0.093-0.202l0.071-0.228l0.045-0.251l0.043-0.83l-0.024-0.249l-0.2-0.611
		l0.029-0.212l0.175-0.364l0.051-0.186l0.028-0.217l0.068-0.26l0.278-0.366l0.146-0.266l0.075-0.249l0.008-0.214l-0.234-2.509
		l0.028-1.035l0.055-0.396l0.061-0.212l0.301-0.74l0.252,0.13l0.479,0.543l0.544,0.37l0.466-0.069l0.59-0.203l0.849,0.013
		l0.765,0.175l0.332,0.29l0.13,0.762l0.351,0.245l1.122,0.02l0.227-0.076l0.451-0.087l0.278,0.1l-0.289,0.491l-0.085,0.403
		l0.275,0.439l0.769,0.732l0.009,0.132l0.811,0.004l3.639,0.106l62.456,0.046h0.022l0,0.022l-0.15,2.75l-1.259,4.307l-1.271,4.345
		l-1.372,4.687l-1.427,4.89l-1.338,4.459l-1.823,6.099l-1.425,4.772l-1.706,5.722l-1.039,3.76l-1.099,3.998L435.817,541.926z"/>
	<path class="st0" d="M611.496,455.107l-0.028-1.085l0.578-2.204l0.063-0.869l-0.053-1.756l0.103-0.925l-0.129-1.303l-0.667-2.382
		l-0.079-1.333l0.119-1.376l-0.127-0.593l-0.424-0.481l-1.532-0.958l-3.65-2.272l-3.646-2.276l-3.648-2.271l-3.646-2.274
		l-3.65-2.269l-3.648-2.269l-3.65-2.272l-3.646-2.271l-1.973-1.225l-1.118-0.801l-1.172-0.835l-0.778-0.197l-3.175,0.043
		l-7.367,0.099l-7.369,0.094l-7.367,0.099l-7.371,0.094l-3.21,0.043l-5.891,1.281l-13.239,2.879l-13.238,2.881l-13.237,2.886
		l-13.239,2.883l-0.839,0.129l-1.848,0.283l-1.845,0.283l-0.841,0.129l-3.482,0.532l-0.625,0.262L470.594,434l-0.738,2.044
		l-1.1,3.049l-1.1,3.055l-1.1,3.061l-1.102,3.058l-0.507,1.076l-0.503,1.076l-0.247,0.523l-0.26,0.549l-0.503,1.076l-0.653,0.995
		l-0.651,0.99l-0.649,0.995l-0.651,0.995l-1.748,2.538l-1.748,2.534l-1.75,2.54l-1.748,2.536l-0.818,1.189l-0.031,0l-42.028,0.16
		l-0.364-0.104l-0.31-0.158l-0.335-0.531l-1.194-2.89l-0.525-0.839l-0.504-0.392l-0.336,0.166l-0.272,0.297l-0.463,0.718
		l-0.249,0.304l-0.508,0.427l-0.22,0.121l-0.318,0.123l-0.765,0.123l-0.408,0.112l-0.317,0.235l-0.273,0.304l-0.679,1.001
		l-0.234,0.246l-0.195,0.119l-0.323,0.097l-0.414-0.007l-1.78-0.408l-2.445-0.013l-0.884-0.097l-0.504-1.782l-1.647-16.821
		l-0.076-0.157l-0.501-1.118l-0.143-0.426l-1.656-28.721l0.097-2.503l0.932-6.893l-0.359-0.665l-2.455,0.284l-0.82-0.034
		l-1.044-0.338l-0.458,0.004l-0.488,0.366l-0.449,0.859l-0.365,3.022l-0.187,0.565l-0.27,0.466l-0.373,0.37l-0.495,0.27
		l-0.599,0.154l-0.718,0.06l-0.716-0.051l-0.593-0.188l-0.366-0.334l-0.182-0.445l-0.088-0.496l-1.622-5.712l-0.242-0.314
		l-0.258-0.103l-0.273-0.032l-0.288-0.1l-0.454-0.43l-0.308-0.472l-0.357-0.391l-0.603-0.184l-1.143-0.073L376,404.491l-0.481-0.269
		l-0.28-0.432l-0.113-0.553l-0.057-0.583l-0.106-0.536l-0.566-0.94l-0.756-0.519l-0.835-0.434l-0.8-0.673l-0.284-0.498l-0.284-1.106
		l-0.206-0.551l-0.561-1.063l-0.138-0.536l0.016-0.67l0.089-0.615l0.016-0.538l-0.137-0.506l-0.38-0.501l-0.415-0.41l0.682-1.246
		l1.005-1.169l0.15-0.307l0.013-0.25l-0.263-0.644l-0.055-0.314l-0.025-0.422l0.094-1.639l-0.048-0.298l-0.052-0.181l-0.011-0.023
		l-0.122-0.153l-0.146-0.141l-0.18-0.128l-0.881-0.452l-0.375-0.281l-0.656-0.671l-0.556-0.445l-0.425-0.237l-0.708-0.232
		l-0.158-0.068l-0.198-0.16l-0.207-0.275l-0.284-0.492l-0.091-0.364l-0.02-0.311l0.051-0.624l-0.117-0.256l-0.459-0.415
		l-0.081-0.198l0.028-0.224l0.087-0.275l0.066-0.298l-0.008-0.451l-0.121-0.256l-0.195-0.185l-0.522-0.368l-0.584-1.086
		l-0.422-1.639l-0.614-1.081l-0.807-1.064l-0.535-0.989l-0.323-0.466l-0.261-0.306l-0.517-0.34l-0.329-0.296l-0.56-0.621
		l-0.739-2.016l-1.293-2.496l-0.523-0.801l-1.773-1.868l-0.24-0.416l-0.179-0.801l0.254-1.13l0.558-0.669l0.864-0.726l3.233-3.255
		l0.814-1.002l6.206-9.247l0.142-0.388l0.088-0.409l-0.053-0.945l0.022-0.398l0.163-0.487l0.308-0.295l1.471-0.987l0.445-0.178
		l0.366-0.021l0.769,0.091l0.373-0.032l0.845-0.212l0.344-0.013l0.449,0.142l0.72-0.095l0.63-0.053l0.294-0.767l0.193-0.76
		l-0.16-0.779l-0.322-0.629l-0.36-1.057l-0.18-0.313l-0.234-0.277l-1.794-1.463l-3.346-3.843l-1.296-1.026l-0.361-0.195
		l-1.042-0.332l-2.299-1.373l-0.593-0.455l-2.463-2.647l-0.388-0.29l-0.399-0.192l-0.859-0.292l-0.93-0.507l-3.685-3.992
		l-0.567-0.986l-0.847-3.26l-0.082-0.781l-0.091-0.372l-0.226-0.386l-0.59-0.707l-0.182-0.403l0.023-0.5l0.472-0.766l0.204-0.914
		l1.409-2.359l0.109-0.297l-0.123-0.39l-0.293-0.158l-0.352-0.131l-0.3-0.297l-0.155-0.614l0.095-0.656l0.258-0.645l0.336-0.592
		l0.378-0.417l0.895-0.62l0.353-0.379l0.21-1.134l0.033-0.108l0.072-0.089l1.207-2.859l0.081-0.571l-0.099-0.398l-0.376-0.506
		l-0.083-0.335l0.1-0.377l0.7-1.167l-0.932-0.057l0.067-0.474l0.865-1.137l0.081-0.804l-0.097-0.714l-0.017-0.724l0.324-0.819
		l-0.343-0.852l0.135-0.755l0.305-0.686l0.17-0.637l-0.172-0.625l-0.749-1.033l-0.172-0.844v-1.415l0.065-0.261l0.135-0.206
		l0.107-0.288l-0.016-0.507l-0.255-0.849l-0.437-0.755l-0.565-0.647l-0.638-0.528l0.517-0.399l0.527-0.044l0.539,0.179l0.554,0.265
		l0.029-0.664l-0.229-0.462l-0.892-0.815l1.091-0.006l0.454-0.086l0.269-0.895l51.497,2.732l0.794-0.042l0.125-0.103l-0.38-0.206
		l-0.414-0.172l-1.394-0.343l-0.449-0.204l-0.383-0.269l-1.021-1.145l-0.357-0.53l-0.231-0.8l-0.081-0.609l-0.039-1l-0.081-0.408
		l-0.207-0.386l-0.825-1.063l-0.488-0.993l-0.401-0.54l-0.34-0.357l-0.279-0.16l-1.271-0.581l-0.426-0.265l-1.17-1.005l-0.409-0.195
		l-0.455-0.025l-0.436-0.107l-0.448-0.29l-1.813-1.916l-0.275-0.531l-0.2-1.976l-0.227-0.548l-0.491-0.629l-0.511-0.331l-0.97-0.371
		l-0.399-0.262l-0.361-0.39l-4.114-6.408l-1.446-4.05l-1.251-1.981l-0.261-0.639l-0.429-1.941l0.193-0.975l0.232-0.588l0.163-0.774
		l0.026-1.122l-0.214-2.101l-0.025-4.695l-0.892-3.84l1.85-0.863l13.506-3.943l21.807-12.645l34.584-20.022l20.927-12.145
		l0.022-0.016l0.195,0.035l1.064,1.006l0.393,0.216l1.853,0.408l1.747-0.179l1.693-0.628l2.65-1.385l0.6,0.046l0.596,0.245
		l1.405,0.254l0.829,0.516l0.449,0.175h0.417l0.893-0.279l2.579,0.096l0.383-0.233l0.224-0.806l0.581-0.383l1.671-0.249l0.15-0.158
		l0.472-0.291l0.504-0.104l0.233,0.403v1.634l0.753,0.807l1.726,0.312l1.9,0.129l1.273,0.27l0.724,0.703l0.296,0.204l2.687,1.156
		l2.988,2.361l2.85,2.252l1.354,0.728l0.899,0.191l0.253,0.117l0.146,0.183l0.207,0.483l0.174,0.183l0.355,0.175l2.951,0.716
		l0.703,0.408l0.288,0.753l0.084,1.083l0.227,1.107l0.333,1.041l0.401,0.87l0.317,0.337l0.853,0.716l0.075,0.237l-0.191,0.408
		l0.242,0.25l0.379,0.171l0.237,0.158l0.098,0.337l-0.03,0.246l-0.334,0.767l-0.504,1.892l-0.392,0.871l-0.696,0.608l-0.945,0.267
		l-0.269,0.204l-0.205,0.546l-0.162,0.917l-0.05,0.917l0.127,0.538l0.519,0.905l0.015,1.026l-0.141,1.097l0.051,1.101l0.392,0.738
		l2.127,1.781l0.336,0.659l0.573,2.537l1.287,2.868l0.21,1.683l-1.204,0.413l0.645,1.316l1.904,1.324l0.482,0.886l0.113,2.453
		l0.155,3.315l0.156,3.316l0.158,3.317l0.155,3.318l0.121,2.625l-0.202,0.477l-4.472,0.054l-7.546,0.096l2.064,1.817l2.711,3.263
		l4.226,5.083l3.586,4.319l0.55,0.902l0.329,0.99l0.514,6.039l0.697,8.195l0.517,6.037l0.266,4.366l0.28,4.613l0.748,1.743
		l1.207,0.337l2.715,0.097l7.447,0.274l7.449,0.27l7.449,0.27l7.448,0.274l7.448,0.27l7.45,0.274l7.444,0.274l7.45,0.27l2.826,0.101
		l0.879-0.114l0.806-0.409l0.289-0.387l0.544-1.007l0.289-0.198l1.69,0.042l0.398,0.362l0.196,3.968l-0.168,0.565l-0.918,0.767
		l-0.05,0.708l0.819,1.488l-0.525,1.484l-3.903,4.47l-0.657,1.245l-0.297,1.393l0.141,1.768l0.798,3.082l0.129,1.588l-0.085,0.287
		l-0.35,0.727l-0.101,0.384l0.014,0.482l0.388,2.032l0.671,1.238l0.263,0.74l0.222,2.858l0.202,0.63l0.416,0.719l0.184,0.897
		l0.057,3.664l0.222,1.549l0.703,1.219l1.465,0.809l1.233,0.161l0.392,0.118l0.386,0.241l0.699,0.589l0.386,0.246l0.327,0.102
		l0.635,0.11l0.327,0.186l0.443,0.597l0.633,1.355l0.612,0.457l0.542,0.144l0.445,0.055l0.429,0.123l0.503,0.335l1.069,1.186
		l0.426,0.318l1.385,0.602l0.471,0.263l1.702,1.411l1.122,0.492l1.484,0.373l1.482,0.102l1.122-0.331l0.895-0.153l0.679,0.102
		l0.873,0.356l0.536,0.564l0.39,0.916l0.097,1.018l-0.051,0.967l0.079,0.67l-0.016,1.578l0.081,0.764l0.311,0.738l0.406,0.543
		l0.495,0.488l0.568,0.395l0.622,0.263l-0.333,1.307l0.143,0.446l0.703,0.883l0.568,0.998l-0.077,0.739l-1.225,0.123l3.644,6.373
		l2.011,5.005l1.346,2.506l1.56,0.902h0.8l0.633,0.102l0.348,0.4l-0.044,0.898l-2.696,0.038l-0.71,0.166l-0.503,0.477l-0.637,2.044
		l-1.839,5.883l-1.837,5.883l-1.837,5.888l-1.841,5.893l-0.441,1.41l1.568,0.132l0.408,0.346l0.166,0.825l0.226,2.449l0.232,1.796
		l-2.193,0.171l-0.669,0.436l-0.901,1.895l-1.215,2.559l-2.68,5.635l-2.676,5.639l-1.219,2.564v0.004l-0.002,0.004l-0.481,1.029
		l-1.053,2.261l-1.055,2.266l-0.481,1.026l-1.364,2.928l0.301,1.168l2.965,2.719l3.155,2.897l3.939,3.621l-0.392,0.533l-0.445,0.675
		l-0.566,0.624l-0.873,0.417l-0.988-0.254l-0.625-0.078l-0.281,0.202l-0.101,0.361l-0.269,0.323l-0.386,0.232l-0.447,0.09
		l-0.988,0.405l-1.219,1.778l-1.019,0.405l-0.261,0.146l-0.471,0.719l-0.206,0.245l-0.499,0.267L611.496,455.107z"/>
	<path class="st0" d="M453.018,467.877l-0.854,1.241l-1.425,2.176l-0.331,1.114l0.044,3.801l0.044,3.678l0.048,4.022l0.074,6.098
		h-0.022l-62.456-0.046l-3.639-0.106l-0.811-0.004l-0.009-0.132l-0.769-0.732l-0.275-0.439l0.085-0.403l0.289-0.491l-0.278-0.1
		l-0.451,0.087l-0.227,0.076l-1.122-0.02l-0.351-0.245l-0.13-0.762l-0.332-0.29l-0.765-0.175l-0.849-0.013l-0.59,0.203l-0.466,0.069
		l-0.544-0.37l-0.479-0.543l-0.252-0.13l-0.301,0.74l-0.061,0.212l-0.055,0.396l-0.028,1.035l0.234,2.509l-0.008,0.214l-0.075,0.249
		l-0.146,0.266l-0.278,0.366l-0.068,0.26l-0.028,0.217l-0.051,0.186l-0.175,0.364l-0.029,0.212l0.2,0.611l0.024,0.249l-0.043,0.83
		l-0.045,0.251l-0.071,0.228l-0.093,0.202l-0.128,0.193l-0.152,0.184l-0.213,0.215l-0.189,0.143l-0.195,0.121l-0.265,0.048
		l-0.335-0.026l-1.042-0.332l-0.506-0.065l-2.35,0.26l-0.723-0.143l-1.438-0.633l-1.405-1.194l-0.345-0.238l-0.202-0.095
		l-0.495-0.091l-0.268-0.007l-0.728,0.091l-1.204,0.321l-0.357,0.015l-0.285-0.046l-0.181-0.106l-0.164-0.132l-0.13-0.152
		l-0.11-0.176l-0.937-2.164l-0.106-0.175l-0.766-0.875l-0.16-0.23l-0.267-0.29l-0.163-0.126l-0.742-0.424l-0.139-0.145l-0.11-0.18
		l-0.22-0.619l-0.097-0.19l-0.14-0.136l-0.198-0.078l-0.221-0.022l-0.482,0.002l-0.224-0.052l-0.214-0.078l-0.53-0.288l-0.192-0.069
		l-0.221-0.048l-0.288,0.084l-0.29,0.21l-0.383,0.567l-0.328,0.63l-0.567,0.894l-0.247,0.598l-0.071,0.539l0.022,0.5l-0.008,0.24
		l-0.06,0.225l-0.288,0.589l-0.071,0.227l-0.101,0.494l-0.158,0.273l-0.281,0.251l-0.636,0.31l-0.736,0.221l-0.475,0.215
		l-0.194-0.03l-0.163-0.106l-0.127-0.156l-0.143-0.152l-0.166-0.123l-0.591-0.288l-0.176-0.115l-0.145-0.143l-0.111-0.163
		l-0.091-0.165l-0.118-0.156l-0.137-0.145l-0.166-0.123l-0.201-0.093l-0.445-0.147l-0.17-0.124l-0.075-0.208l-0.051-0.223
		l-0.073-0.212l-0.109-0.173l-0.165-0.13l-0.2-0.08l-0.244-0.026l-0.48,0.039l-0.233-0.011l-0.197-0.074l-0.17-0.115l-0.299-0.279
		l-0.17-0.111l-0.216-0.041l-0.25,0.061l-0.342,0.143l-0.208,0.033l-0.162-0.028l-0.129-0.121l-0.226-0.292l-0.036-0.024
		l-0.272-0.009l-0.258,0.061l-0.186-0.002l-0.094-0.019l-0.028-0.013l-0.014-0.013l-1.215-1.518l-0.306-0.271l-0.185-0.08
		l-0.223-0.004l-0.237,0.069l-0.526,0.208l-0.238,0.035l-0.228-0.032l-0.671-0.217l-0.197-0.095l-0.335-0.247l-0.177-0.104
		l-0.223-0.007l-0.227,0.115l-0.233,0.314l-0.138,0.253l-0.093,0.26l-0.493,7.657l-0.656,2.337l-0.056,0.418v1.687l0.075,0.863
		l-1.079,8.424l-0.163,2.416l-3.225-2.416l-5.518-6.001l-0.669-1.579l-0.052-0.226l-0.039-1.052l0.416-4.382l-0.036-0.241
		l-0.122-0.431l-0.082-0.47l-0.021-0.553l0.076-0.875l1.671-5.812l0.257-5.266l1.026-1.754l0.299-0.733l0.465-2.401l0.181-0.622
		l2.987-7.159l-2.742-11.048l-0.113-0.866l-0.029-1.486l0.033-0.396l0.404-1.378l0.188-0.398l0.218-0.349l0.255-0.336l1.037-1.47
		l0.167-0.678l-0.203-0.725l-0.029-0.22l0.006-0.889l0.132-0.254l0.197-0.146l0.434-0.118l0.188-0.095l0.162-0.123l0.658-0.665
		l0.786-0.611l0.146-0.071l0.755-0.295l1.194-0.176l0.857-0.245l4.01-0.348l0.659-0.174l7.381-4.171l3.052-3.247l1.313-1.856
		l0.361-0.55l-0.297-0.857l-0.844-1.644l-3.311-4.384l-0.394-0.811l-0.217-0.774l-0.046-0.796l0.117-0.875l0.2-0.693l0.062-0.35
		l-0.032-0.375l-0.141-0.244l-0.262-0.343l-0.257-0.257l-0.115,0.015l-0.17-0.868l-0.448-0.934l-0.616-0.829l-0.665-0.557
		l-1.045-0.279l-1.174,0.092l-3.04,1.001l-0.871-0.007l-0.106-0.094l-0.109-0.167L339.865,422l-0.282,0.193l-0.774,0.249
		l-0.956-0.326l-2.38-1.358l-0.62-0.465l-0.638-0.377l-1.752-0.332l-0.648-0.437l-0.554-0.557l-1.928-1.33l-0.451-0.482
		l-0.865-1.327l-1.047-0.762l-0.547-0.548l-0.233-0.49l-0.162-1.1l-0.169-0.516l-0.232-0.345l-0.26-0.242l-1.25-0.841l-0.617-1.086
		l-0.726-2.014l-0.019-0.139l0.009-0.098l0.044-0.169l0.08-0.143l0.088-0.21l0.657-1.122l0.98-1.633l0.279-0.303l0.495-0.444
		l0.109-0.235l0.036-0.205l-0.063-0.182l-0.085-0.447l-0.056-0.543l-0.06-0.254l-0.08-0.239l-0.098-0.199l-0.117-0.186l-0.305-0.32
		l-0.321-0.278l-0.081-0.117l-0.106-0.235l-0.091-0.442l0.039-0.365l0.085-0.243l0.067-0.096l1.42-1.245l0.611-0.384l0.249-0.229
		l0.275-0.348l0.393-0.704l0.152-0.482l0.055-0.431l-0.076-0.399l-0.092-0.252l-0.153-0.199l-0.193-0.145l-0.22-0.102l-0.237-0.072
		l-0.19-0.038l-0.23,0.006l-1.705,0.41l-0.785,0.288l-4.247,2.13l-0.201,0.064l-0.195,0.026l-0.2-0.034l-0.284-0.173l-0.111-0.209
		l-0.043-0.288l0.056-0.25l0.109-0.228l0.135-0.201l0.173-0.184l0.909-0.775l0.307-0.371l0.173-0.388l0.03-0.186l-0.814-4.473
		l-0.085-1.716l0.253-1.969l-0.044-0.441l-0.126-0.307l-0.401-0.286l-0.85-0.398l-0.268-0.173l-0.274-0.237l-0.357-0.439
		l-0.132-0.266l-0.059-0.232l-0.002-0.375l-0.229-1.472l0.077-0.383l0.142-0.153l0.204-0.13l0.213-0.083l0.207-0.032l0.173,0.072
		l0.097,0.145l0.095,0.313l0.097,0.153l0.156,0.098l0.472,0.055l0.232,0.085l0.191,0.138l0.215,0.113l0.257,0.038l1.153-0.043
		l0.279,0.055l0.23,0.092l0.165,0.121l0.124,0.151l0.095,0.194l0.089,0.23l0.121,0.213l0.174,0.16l0.222,0.085l0.228,0.006
		l0.228-0.064l1.098-0.543l0.251-0.083l0.193-0.025l0.1,0.028l0.076,0.036l0.306,0.185l2.967,0.99l0.904,0.418l0.59,0.072l1.285-0.3
		l0.091,0.422l0.034,0.345l0.146,0.439h0.355l0.445-0.113l0.414,0.111l0.242,1.407l0.245,0.388l0.374,0.467l0.439,0.39l0.437,0.164
		l0.443,0.418l0.117,0.976l0.002,1.122l0.105,0.838l0.513,0.614l0.696,0.107l1.503-0.301l0.7,0.085l0.697,0.324l1.782,1.207
		l0.536,0.211l0.523-0.045l0.467-0.439l0.234-0.552l0.28-1.194l0.281-0.578l0.382-0.48l0.892-0.836l1.461-1.015l2.124-1.015
		l2.797-0.818l0.888-0.092l0.737,0.198l0.304,0.277l0.442,0.712l0.252,0.32l0.793,0.307l1.886-0.023l0.711,0.497l0.463,0.895
		l0.337,0.382l0.488,0.151l0.06,0.201l0.561,1.213l0.335,0.378l0.758,0.599l0.34,0.352l0.62,0.828l0.359,0.226l0.537,0.077
		l1.983,0.004l0.633-0.1l0.472-0.186l2.657-2.148l0.883-0.326l0.838,0.294l0.208,0.282l0.364,1.011l0.214,0.316l0.379,0.373
		l0.415,0.41l0.38,0.501l0.137,0.506l-0.016,0.538l-0.089,0.615l-0.016,0.67l0.138,0.536l0.561,1.063l0.206,0.551l0.284,1.106
		l0.284,0.498l0.8,0.673l0.835,0.434l0.756,0.519l0.566,0.94l0.106,0.536l0.057,0.583l0.113,0.553l0.28,0.432l0.481,0.269
		l0.573,0.139l1.143,0.073l0.603,0.184l0.357,0.391l0.308,0.472l0.454,0.43l0.288,0.1l0.273,0.032l0.258,0.103l0.242,0.314
		l1.622,5.712l0.088,0.496l0.182,0.445l0.366,0.334l0.593,0.188l0.716,0.051l0.718-0.06l0.599-0.154l0.495-0.27l0.373-0.37
		l0.27-0.466l0.187-0.565l0.365-3.022l0.449-0.859l0.488-0.366l0.458-0.004l1.044,0.338l0.82,0.034l2.455-0.284l0.359,0.665
		l-0.932,6.893l-0.097,2.503l1.656,28.721l0.143,0.426l0.501,1.118l0.076,0.157l1.647,16.821l0.504,1.782l0.884,0.097l2.445,0.013
		l1.78,0.408l0.414,0.007l0.323-0.097l0.195-0.119l0.234-0.246l0.679-1.001l0.273-0.304l0.317-0.235l0.408-0.112l0.765-0.123
		l0.318-0.123l0.22-0.121l0.508-0.427l0.249-0.304l0.463-0.718l0.272-0.297l0.336-0.166l0.504,0.392l0.525,0.839l1.194,2.89
		l0.335,0.531l0.31,0.158l0.364,0.104l42.028-0.16L453.018,467.877z"/>
	<path class="st0" d="M328.479,58.292l-0.027,0.004l-2.055,0.341l-0.641,0.226l-0.558,0.43l-0.711,0.752l-0.608,0.876l-0.26,0.793
		l-0.289,0.337l-3.395,1.663l-0.754,0.553l-0.781,0.72l-0.846,0.444l-0.852-0.117l-0.843-0.319l-0.81-0.156l-0.918,0.296l-0.1,0.633
		l0.27,0.814l0.19,0.862l0.028,1.004l-0.063,0.782l-0.374,0.673l-0.902,0.691l-1.701,0.632l-1.056,0.235l-0.472-0.185l-0.188-0.405
		l-0.447-0.592l-0.53-0.539l-0.439-0.23l-0.489,0.335l-0.547,0.738l-0.261,0.739l0.363,0.337l0.74,0.216l0.632,0.537l0.445,0.714
		l0.186,0.732l-0.511,1.136l-1.373-0.08l-1.699-0.547l-1.49-0.261l-0.897,0.358l-1.61,1.288l-1.257,0.395l0.006,0.257l0.227,0.276
		l0.278,0.169l0.409-0.021l0.815-0.329l0.402,0.078l0.31,0.64l-0.316,0.834l-0.505,0.885l-0.458,1.61l-0.481,0.752l-0.617,0.34
		l-0.603-0.412l-0.355,0.544l-0.42,1.194l-0.029,1.433l-0.2,1.31l-0.937,0.805l-0.649-0.062l-0.678-0.198l-0.498,0.136l-0.11,0.935
		l0.326,1.446l0.03,0.684l-0.286,0.738l-1.43,1.778l-0.341,0.647l-0.142,0.932l0.281,0.49l0.415,0.369l0.266,0.563l-0.449,0.746
		l-2.123,0.511l-0.11,0.835l-0.201,0.819l-1.214,0.303l-2.691,0.291l-2.138,1.309l-1.003,0.346l-2.651-0.307l-3.57,0.223
		l-0.896,0.367l-0.394,0.773l-0.06,0.988l0.114,1.007l-0.123,0.753l-0.946,1.087l-0.228,0.747l0.275,1.96l-0.057,0.916l-0.538,0.766
		l-0.643,0.272l-1.341-0.008l-0.666,0.175l-0.548,0.518l-0.453,0.661l-0.518,0.502l-0.747,0.054l-0.685-0.122l-0.762,0.037
		l-0.532,0.334l0.006,0.764l0.435,0.632l0.484,0.458l0.188,0.549l-0.451,0.902l-0.505,0.527l-0.639,0.419l-0.708,0.217l-0.722-0.078
		l-0.643,0.149l-0.155,0.808l0.173,0.979l0.345,0.673l0.258,0.093l0.254-0.091l0.215-0.132l0.142-0.029l0.237,0.209l0.571,0.676
		l0.841,1.492l0.552,1.953l0.212,2.007l-0.179,1.647l-0.595,1.842l-0.059,0.862l0.278,1.02l0.089,0.958l-0.379,0.883l-0.503,0.86
		l-0.289,0.881l0.121,0.776l0.286,0.674l0.143,0.668l-0.303,0.768l-0.58,0.857l-40.197-18.922l-0.703-0.178l0.019,0.209
		l-0.321,1.045l-0.566,0.878l-0.669,0.473l-0.938,0.357l-0.98,0.186l-0.799-0.05l-1.053,0.527l-2.945,0.401l-1.197,0.575
		l-0.621,1.11l-0.287,2.906l-0.306,1.333l-1.001,1.106l-4.631,2.447l-0.855,1.22l-1.815,4.568l-0.722,1.188l-0.487,0.321
		l-0.807,0.108l-0.643-0.234l-0.574-0.455l-0.671-0.317l-0.929,0.186l-0.45,0.561l-0.764,2.173l-0.185,0.11l-0.468,0.516
		l-0.246,0.17l-0.376,0.062l-1.274-0.062l-0.442-0.066l-0.968-1.727l-4.081-7.25l-4.08-7.245l-4.084-7.241l-4.08-7.236l-4.082-7.231
		l-4.083-7.23l-4.077-7.222l-4.083-7.213l-0.138-0.243l-0.141-0.247l-0.141-0.251l-0.139-0.247l-0.139-0.247l-0.143-0.243
		l-0.137-0.243l-0.142-0.247l2.924,0.119l1.545-0.161l2.638-0.646l1.286,0.202l1.31,0.371l1.411,0.222l2.218-0.082l3.062,0.366
		l1.448,0.338l1.353-0.136l0.609,0.111l2.906,1.264l0.176,0.029h0.357l0.174-0.029l0.92-0.049l1.85,0.515l0.943,0.119l0.982-0.235
		l1.065-0.404l1.057-0.227l1.177,0.35l0.662,0.338l-0.64,0.923l-0.456,0.964l-0.216,1.03l0.163,1.631l0.118,0.371l0.315,0.21
		l0.688,0.021l5.578-1.141l1.083-0.552l2.031-1.479l1.674-0.564l0.655-0.103h0.661l0.675,0.115l0.556-0.161l1.243-1.166l0.71-0.375
		l1.843-0.181l0.677-0.28l0.802-0.576l0.742-0.754l0.659-0.848l0.538-0.869l1.025-2.347l0.548-0.761l2.201-2.362l1.377-2.609
		l0.556-0.65l0.912-0.638l1.205-0.588l0.651-0.206l0.661-0.082l1.112,0.185l4.661-0.222l0.582,0.086l0.564,0.16l0.746,0.436
		l1.538,1.218l0.75,0.304l1.332-0.346l0.649-1.148l0.356-1.44l0.445-1.193l0.424-0.444l1.186-0.987l0.495-0.596l0.77-1.225
		l0.437-0.53l0.6-0.543l0.764-0.234l1.399-0.691l1.609-0.547l0.788-0.497l0.685-0.65l0.544-0.736l0.172-0.452l0.014-0.325l0.101-0.3
		l0.428-0.354l0.358-0.107l1.728-0.029l0.451-0.074l0.416-0.148l0.295-0.247l0.063-0.382l-0.224-0.867l0.063-0.349l0.56-0.288
		l0.893-0.148l1.623-0.057l0.71,0.107l1.536,0.415l0.667-0.004l0.485-0.284l0.291-0.44l0.226-0.452l0.287-0.325l0.39-0.135
		l0.823-0.041l0.418-0.078l1.789-1.019l6.322-6.51l5.164-3.995l0.744-0.394l3.191-1.236l0.388-0.246l0.206-0.324l0.091-0.439
		l0.139-0.406l0.247-0.316l0.42-0.144l4.616-0.808l2.385,0.189l0.788-0.103l0.76-0.275l1.625-0.923l0.644-0.25l3.831-0.587
		l0.718-0.267l1.213-0.796l0.677-0.287l2.159-0.226l0.148,0.074l0.148,0.164l0.17,0.156l0.211,0.037l0.198-0.144l0.276-0.476
		l0.16-0.119l0.586-0.115l0.206,0.045l0.485,0.176l1.038,0.587l0.52,0.135l0.747-0.168l1.749-1.083l0.732-0.213l0.689-0.045
		l0.55,0.057l1.598,0.381l0.468,0.021l0.471-0.258l0.64-0.677l0.094,0.279l0.167,0.345l0.206,0.312l0.219,0.164l0.395-0.062
		l0.106-0.353l-0.007-0.427l0.049-0.295l0.318-0.779l0.232-0.185l0.249,0.525l0.088,0.386l0.102,0.295l0.192,0.213l0.362,0.139
		l1.475-0.615l0.607-0.033l-0.148,0.902l-0.139,0.496l0.164,0.119l0.315-0.037l0.312,0.041l0.106-0.025l0.42-0.152l0.182-0.021
		l0.248,0.127l0.349,0.41l0.204,0.176l1.158,0.775l0.567,0.279l0.715,0.16l0.475-0.029l0.18-0.176l0.091-0.263l0.202-0.291
		l0.049-0.119l0.027-0.39l0.076-0.156l0.202-0.115l0.47-0.086l0.156-0.074l0.45-0.505l0.387-0.578l0.158-0.369l0.167-0.611
		l0.249-0.361l1.782-1.493l0.523-0.599L326.607,30l1.027,0.012l0.714,0.262l1.075,0.947l0.565,1.23l0.091,0.135l0.535,1.772
		l0.381,0.439l0.537,0.468l0.478,0.521l0.206,0.619l-0.175,0.923l-0.847,1.613l-0.315,0.862l-0.138,1.605l0.153,1.634l0.344,1.511
		l0.727,2.065l0.161,0.846l0.092,1.721l0.09,0.411l0.39,0.92l0.079,0.411l-0.127,0.374l-0.676,1.031l-0.401,1.951l-0.477,0.92
		l-1.455,0.707l-0.556,0.764l-0.428,0.9L328.479,58.292z"/>
	<path class="st0" d="M328.479,58.292l-0.004,0.015l0.065,0.308l0.065,0.132l0.163,0.127l-0.926,1.689l-0.565,0.555l-0.962,0.197
		v0.271l0.472,0.703l0.087,0.263l-0.04,0.193l-0.186,0.37l-0.04,0.238l0.033,0.337l0.091,0.411l0.133,0.35l0.153,0.148l0.108,0.428
		l-0.251,1.966l-0.002,0.596l0.668,0.744l0.697,0.436l0.549,0.559l0.222,1.135l-0.047,0.699l-0.294,1.518l-0.585,1.811l0.197,0.519
		l1.541,0.412l0.708,0.49l0.589,0.622l0.318,0.593l0.242,3.409l0.104,0.222l0.219,0.218l0.192,0.305l0.019,0.494l-0.152,0.346
		l-0.261,0.235l-0.32,0.214l-0.337,0.292l-0.607,0.935l-0.028,0.708l0.221,0.684l0.146,0.828l-0.303,0.721l-1.511,1.187l-0.589,0.68
		l-0.133,0.981l0.506,0.622l0.66,0.47l0.325,0.536l-0.236,0.606l-0.491,0.317l-0.391,0.445l0.052,0.973l0.5,0.73l0.804,0.59
		l0.747,0.42l0.327,0.264l-0.141,0.507l-0.682,0.808l-0.244,0.466l-0.04,0.396l0.069,0.33l1.309,3.423l1.059,1.13l1.365-0.375
		l0.959,0.52l0.406,0.363l0.261,0.507v0.392l-0.298,0.718l0.008,0.524l0.163,0.536l0.184,0.12l0.281,0.004l0.466,0.182l0.84,0.574
		l0.256,0.359l-0.919,0.305l-0.095,0.367l0.16,0.986l-0.081,0.392l-0.349,0.603l-0.081,0.38l0.018,1.457l0.221,0.553l0.538,0.595
		l0.703,0.524l0.507,0.132l0.311-0.372l0.216-1.941l0.158-0.504l0.24-0.322l0.565-0.161l0.115,0.376l-0.121,0.904l0.562,0.545
		l0.71,0.289l0.606,0.384l0.362,1.301l0.508,0.88l0.19,0.442l0.039,0.388l-0.069,0.81l0.029,0.392l0.187,0.851l0.218,0.364
		l0.397,0.19l0.133,0.008l0.389,0.182l0.253,0.421l0.064,0.492l-0.171,0.392l-0.539,0.769l-0.067,0.727l0.27,0.632l0.469,0.479
		l0.548,0.306l0.62,0.161l1.66,0.078l0.809,0.165l0.821,0.293l0.838,0.136l0.87-0.322l0.478,0.223l0.716,0.141l0.657,0.269
		l0.286,0.595l0.184,0.81l0.466,0.752l1.243,1.331l-0.289,0.554l0.182,0.438l0.436,0.211l0.474-0.132l0.103-0.323l0.131-1.063
		l0.153-0.231l0.644-0.07l0.135,0.223l0.191,0.666v0.331l-0.274,0.492l-0.016,0.269l0.119,0.211l0.343,0.339l0.072,0.136l0.41,0.397
		l0.95,0.567l1.844,0.835l0.484,0.058l1.023,0.012l0.253,0.054l0.639,0.525l0.806,0.418l0.044-0.124l0.004-0.091l0.055-0.05
		l0.571,0.079l0.19,0.058l0.64,0.55l0.156,0.314l0.035,0.463l-0.046,0.889l-0.2,0.865l-0.704,1.605l0.104,0.683l0.241,0.161
		l0.86,0.306l0.357,0.203l0.331,0.377l0.458,0.849l0.293,0.418l0.53,0.551l0.61,0.489l0.742,0.344l0.922,0.132l1.586-0.294
		l0.585,0.153l0.397,1.259l0.364,0.087l0.373-0.083l0.19-0.079l0.275-0.178l0.435-0.456l0.358-0.161l0.835-0.066l0.691,0.199
		l0.565,0.368l1.089,1.163l0.409,0.137l0.392-0.381l0.584-0.849l0.601,0.7l2.347,0.079l0.846,1.151l0.73-0.095l1.241-0.464
		l0.513,0.166l0.364,0.352l0.428,0.294l0.697,0.008l0.473-0.402l0.261-0.356l0.218-0.389l1.318-1.64l0.012-0.224l0.677-0.091
		l1.197-0.389l0.532-0.091l5.619,0.82l0.113,0.116l2.128,1.114l1.631,1.354l0.647,0.323l0.859,0.128l0.497,0.017l0.445,0.07
		l0.406,0.166l0.374,0.294l0.291,0.439l0.069,0.402l0.024,0.381l0.152,0.394l0.323,0.277l0.348,0.112l0.281,0.174l0.115,0.447
		l0.148,0.265l1.492,1.106l0.869,0.215l0.455,0.191l1.136,0.895l0.489,0.199l2.761-0.025l0.445-0.112l0.154-0.298l0.366-0.344
		l0.815-0.588l0.178-0.042l0.459,0.066l0.19-0.025l0.18-0.17l0.174-0.452l0.18-0.199l1.079-0.472l0.109-0.075l0.455,0.087
		l0.776,0.373l1.18,0.298l0.402,0.543l0.271,1.434l0.166,0.257l0.255,0.207l0.142,0.224l-0.299,0.468l-0.042,0.228l0.042,0.228
		l0.125,0.182l0.869,0.763l0.428,0.481l0.184,0.41l0.115,0.883l0.309,0.767l0.436,0.593l0.497,0.361l0.422,0.149l0.366,0.037
		l0.338-0.091l0.332-0.232l0.358-0.137l0.2,0.274l0.129,0.377l2.056,2.679l0.111,0.261l0.194,0.191l0.435,0.075l0.394,0.025
		l0.293,0.087l0.186,0.203l0.063,0.348l0.192,0.651l0.499,0.56l0.687,0.473l0.758,0.394l0.071-0.797l0.42-0.22l0.649,0.008
		l0.754-0.112l0.503-0.319l0.398-0.319l0.483-0.066l0.75,0.456l0.374,0.332l0.257,0.315l0.15,0.365l0.091,0.954l0.138,0.187
		l3.406,1.477l2.422-0.071l0.804,0.137l0.534,0.382l1.077,1.278l0.087,0.191l0.048,0.403l0.131,0.079l0.542-0.033l0.139,0.033
		l0.665,0.423l0.307,0.112l1.831,0.212l0.526-0.058l0.432-0.39l0.79,0.324l0.653-0.145l0.566-0.307l1.467-0.382l0.396-0.037
		l0.414,0.096l1.055,0.726l0.059-0.921l0.394,0.116l0.881,1.054l0.418,0.158l0.34-0.087l0.226,0.058l0.085,0.585l0.002,2.693
		l0.119,0.689l0.398,0.548l0.841,0.615l1.726,1.915l0.544,0.283l0.041,0.17l0.602,0.951l0.214,0.145l0.877,0.403l0.665,0.457
		l1.898,1.866l0.404,0.295l0.766,0.399l0.297,0.279l0.146,0.316l0.806,2.69l0.455,0.395l0.875,0.146l0.77-0.158l0.784-0.279
		l0.778-0.125l0.752,0.312l0.758-0.461l0.893-0.345l0.97-0.22l2.776-0.258l0.159,0.028l-0.022,0.016l-20.927,12.145l-34.584,20.022
		l-21.807,12.645l-13.506,3.943l-1.85,0.863l0.892,3.84l0.025,4.695l0.214,2.101l-0.026,1.122L385.417,245l-0.232,0.588
		l-0.193,0.975l0.429,1.941l0.261,0.639l1.251,1.981l1.446,4.05l4.114,6.408l0.361,0.39l0.399,0.262l0.97,0.371l0.511,0.331
		l0.491,0.629l0.227,0.548l0.2,1.976l0.275,0.531l1.813,1.916l0.448,0.29l0.436,0.107l0.455,0.025l0.409,0.195l1.17,1.005
		l0.426,0.265l1.271,0.581l0.279,0.16l0.34,0.357l0.401,0.54l0.488,0.993l0.825,1.063l0.207,0.386l0.081,0.408l0.039,1l0.081,0.609
		l0.231,0.8l0.357,0.53l1.021,1.145l0.383,0.269l0.449,0.204l1.394,0.343l0.414,0.172l0.38,0.206l-0.125,0.103l-0.794,0.042
		l-51.497-2.732l-0.505-0.029l-0.535-0.277l-3.858,0.836l-14.909,1.776l-1.174,0.813l-1.88,3.252l-1.223,2.637l-0.137,0.583
		l0.014,1.26l-2.13,6.596l-0.587,1.125l-0.536,0.712l-3.754,1.822l-13.643,3.949l-1.257,0.116l-1.941-0.091l-4.125-0.87
		l-3.049-1.016l-1.956-0.944l-3.837-2.557l-0.843-0.703l-6.405-6.89l-2.261-2.996l-0.221-0.425l-0.448-1.212l-0.59-1.758
		l-0.412-0.767l-10.986-11.085l-1.618-1.635l-7.817-7.4l-0.84-1.474l-0.343-0.352l-0.242-0.182l-0.814-0.346l-0.563-0.321
		l-0.4-0.434l-0.278-0.449l-0.157-0.43l-0.055-0.428l0.015-0.417l0.293-1.704l-0.007-0.492l-0.125-0.555l-2.486-5.053l-1.053-1.571
		l-0.934-1.097l-0.517-0.496l-0.34-0.563l-0.733-1.49l-0.421-0.519l-0.447-0.333l-0.466-0.09l-0.466,0.008l-0.932,0.117
		l-0.491-0.038l-0.43-0.132l-0.378-0.224l-0.563-0.446l-0.582-0.356l-0.576-0.738l-0.487-1.469l-0.127-0.826l-0.038-0.625
		l0.125-0.87l0.194-0.801l0.163-1.531l-0.029-1.67l-0.189-0.882l-0.345-0.65l-1.898-1.73l-0.754-1.068l-1.037-2.503l-0.209-0.338
		l0.102-0.299l0.225-0.418l0.279-0.313l0.62-0.551l0.266-0.33l0.346-0.808l0.042-0.796l-0.234-0.772l-0.473-0.739l-0.853-0.852
		l-0.178-0.407l-0.025-0.253l0.011-0.497l-0.062-0.244l-0.098-0.142l-0.263-0.242l-0.101-0.138l-0.568-1.471l-0.194-0.803
		l-0.1-0.764l0.146-0.736l0.462-0.378l1.251-0.565l0.496-0.563l0.17-0.649l-0.074-0.692l-0.383-1.32l0.154-2.42l-0.408-3.126
		l-0.046-0.496l-0.488-1.8l-0.021-0.644l1.047-4.771l0.32-0.593l0.37-0.512l0.346-0.639l0.114-0.803l-0.538-1.049l0.035-0.778
		l0.46-1.633l0.361-0.816l0.495-0.499l0.645-0.412l0.463-0.526l0.766-1.292l1.625-2.086l0.331-0.684l0.012-0.784l-0.676-1.042
		l-0.654-3.673l-0.032-1.396l0.618-1.34l1.687-2.601l0.569-0.658l1.356-1.067l3.187-3.764l0.153-0.367l0.167-0.799l0.18-0.367
		l0.295-0.264l0.724-0.378l0.315-0.249l1.531-2.82l0.657-0.627l0.789-0.145l0.659,0.081l0.542-0.166l1.884-4.609l2.172-9.236
		l0.082-1.021l-0.176-0.835l-0.613-1.723l1.048-1.427l0.477-0.824l0.026-0.64l-0.308-0.619l-0.084-0.515l-0.05-2.445l0.101-0.789
		l0.308-0.724l0.58-0.857l0.303-0.768l-0.143-0.668l-0.286-0.674l-0.121-0.776l0.289-0.881l0.503-0.86l0.379-0.883l-0.089-0.958
		l-0.278-1.02l0.059-0.862l0.595-1.842l0.179-1.647l-0.212-2.007l-0.552-1.953l-0.841-1.492l-0.571-0.676l-0.237-0.209l-0.142,0.029
		l-0.215,0.132l-0.254,0.091l-0.258-0.093l-0.345-0.673l-0.173-0.979l0.155-0.808l0.643-0.149l0.722,0.078l0.708-0.217l0.639-0.419
		l0.505-0.527l0.451-0.902l-0.188-0.549l-0.484-0.458l-0.435-0.632l-0.006-0.764l0.532-0.334l0.762-0.037l0.685,0.122l0.747-0.054
		l0.518-0.502l0.453-0.661l0.548-0.518l0.666-0.175l1.341,0.008l0.643-0.272l0.538-0.766l0.057-0.916l-0.275-1.96l0.228-0.747
		l0.946-1.087l0.123-0.753l-0.114-1.007l0.06-0.988l0.394-0.773l0.896-0.367l3.57-0.223l2.651,0.307l1.003-0.346l2.138-1.309
		l2.691-0.291l1.214-0.303l0.201-0.819l0.11-0.835l2.123-0.511l0.449-0.746l-0.266-0.563l-0.415-0.369l-0.281-0.49l0.142-0.932
		l0.341-0.647l1.43-1.778l0.286-0.738l-0.03-0.684l-0.326-1.446l0.11-0.935l0.498-0.136l0.678,0.198l0.649,0.062l0.937-0.805
		l0.2-1.31l0.029-1.433l0.42-1.194l0.355-0.544l0.603,0.412l0.617-0.34l0.481-0.752l0.458-1.61l0.505-0.885l0.316-0.834l-0.31-0.64
		l-0.402-0.078l-0.815,0.329l-0.409,0.021l-0.278-0.169l-0.227-0.276l-0.006-0.257l1.257-0.395l1.61-1.288l0.897-0.358l1.49,0.261
		l1.699,0.547l1.373,0.08l0.511-1.136l-0.186-0.732l-0.445-0.714l-0.632-0.537l-0.74-0.216l-0.363-0.337l0.261-0.739l0.547-0.738
		l0.489-0.335l0.439,0.23l0.53,0.539l0.447,0.592l0.188,0.405l0.472,0.185l1.056-0.235l1.701-0.632l0.902-0.691l0.374-0.673
		l0.063-0.782l-0.028-1.004l-0.19-0.862l-0.27-0.814l0.1-0.633l0.918-0.296l0.81,0.156l0.843,0.319l0.852,0.117l0.846-0.444
		l0.781-0.72l0.754-0.553l3.395-1.663l0.289-0.337l0.26-0.793l0.608-0.876l0.711-0.752l0.558-0.43l0.641-0.226l2.055-0.341
		L328.479,58.292z"/>
	<path class="st0" d="M266.082,347.06l5.033-2.715l0.471-0.343l0.285-0.354l-0.106-0.559l-0.226-0.384l-0.364-0.358l-0.242-0.445
		l-0.161-0.415l0.765-1.552l-0.587-2.185l-0.304-0.383l-0.289-0.536l-0.174-0.419l-0.026-0.529l0.131-1.272l-0.58-2.971
		l-0.237-0.633l-0.27-0.52l-0.499-0.755l-0.588-0.628l-0.424-0.677l-1.806-0.721l-0.602-0.565l-0.189-0.744l0.113-0.844l0.311-0.869
		l0.194-0.334l0.683-0.907l0.158-0.442l0.015-0.378l-0.105-0.803l0.082-0.832l0.278-0.714l0.741-1.396l0.773-1.138l0.944-0.462
		l2.349-0.298l0.916-0.315l1.036-0.555l0.909-0.722l0.53-0.809l0.116-0.68l-0.027-0.675l-0.293-1.887l-0.012-0.538l0.039-3.09
		l-0.347-1.168l-1.166-2.077l-0.453-1.102l-0.055-1.022l0.525-2.061l0.179-5.057l-0.235-0.581l-0.824-1.072l-0.321-0.541
		l-0.169-0.137l-1.226-0.442l-0.055-0.265l0.081-0.642l-0.085-0.89l-0.416-0.692l-1.154-1.258l-0.6-1.043l-0.705-0.907l-0.127-0.301
		l-0.043-0.41l0.372-2.992l-0.004-1.026l-0.141-0.961l-0.009-0.473l0.115-0.467l0.299-0.515l0.306-0.395l0.229-0.429l0.073-0.628
		l-0.067-0.277l-0.139-0.145l-0.173-0.095l-0.168-0.128l-0.088-0.139l1.202-1.301l1.416-1.817l3.251-2.793l10.986,11.085
		l0.412,0.767l0.59,1.758l0.448,1.212l0.221,0.425l2.261,2.996l6.405,6.89l0.843,0.703l3.837,2.557l1.956,0.944l3.049,1.016
		l4.125,0.87l1.941,0.091l1.257-0.116l13.643-3.949l3.754-1.822l0.536-0.712l0.587-1.125l2.13-6.596l-0.014-1.26l0.137-0.583
		l1.223-2.637l1.88-3.252l1.174-0.813l14.909-1.776l3.858-0.836l0.535,0.277l0.505,0.029l-0.269,0.895l-0.454,0.086l-1.091,0.006
		l0.892,0.815l0.229,0.462l-0.029,0.664l-0.554-0.265l-0.539-0.179l-0.527,0.044l-0.517,0.399l0.638,0.528l0.565,0.647l0.437,0.755
		l0.255,0.849l0.016,0.507l-0.107,0.288l-0.135,0.206l-0.065,0.261v1.415l0.172,0.844l0.749,1.033l0.172,0.625l-0.17,0.637
		l-0.305,0.686l-0.135,0.755l0.343,0.852l-0.324,0.819l0.017,0.724l0.097,0.714l-0.081,0.804l-0.865,1.137l-0.067,0.474l0.932,0.057
		l-0.7,1.167l-0.1,0.377l0.083,0.335l0.376,0.506l0.099,0.398l-0.081,0.571l-1.207,2.859l-0.072,0.089l-0.033,0.108l-0.21,1.134
		l-0.353,0.379l-0.895,0.62l-0.378,0.417l-0.336,0.592l-0.258,0.645l-0.095,0.656l0.155,0.614l0.3,0.297l0.352,0.131l0.293,0.158
		l0.123,0.39l-0.109,0.297l-1.409,2.359l-0.204,0.914l-0.472,0.766l-0.023,0.5l0.182,0.403l0.59,0.707l0.226,0.386l0.091,0.372
		l0.082,0.781l0.847,3.26l0.567,0.986l3.685,3.992l0.93,0.507l0.859,0.292l0.399,0.192l0.388,0.29l2.463,2.647l0.593,0.455
		l2.299,1.373l1.042,0.332l0.361,0.195l1.296,1.026l3.346,3.843l1.794,1.463l0.234,0.277l0.18,0.313l0.36,1.057l0.322,0.629
		l0.16,0.779l-0.193,0.76l-0.294,0.767l-0.63,0.053l-0.72,0.095l-0.449-0.142l-0.344,0.013l-0.845,0.212l-0.373,0.032l-0.769-0.091
		l-0.366,0.021l-0.445,0.178l-1.471,0.987l-0.308,0.295l-0.163,0.487l-0.022,0.398l0.053,0.945l-0.088,0.409l-0.142,0.388
		l-6.206,9.247l-0.814,1.002l-3.233,3.255l-0.864,0.726l-0.558,0.669l-0.254,1.13l0.179,0.801l0.24,0.416l1.773,1.868l0.523,0.801
		l1.293,2.496l0.739,2.016l0.56,0.621l0.329,0.296l0.517,0.34l0.261,0.306l0.323,0.466l0.535,0.989l0.807,1.064l0.614,1.081
		l0.422,1.639l0.584,1.086l0.522,0.368l0.195,0.185l0.121,0.256l0.008,0.451l-0.066,0.298l-0.087,0.275l-0.028,0.224l0.081,0.198
		l0.459,0.415l0.117,0.256l-0.051,0.624l0.02,0.311l0.091,0.364l0.284,0.492l0.207,0.275l0.198,0.16l0.158,0.068l0.708,0.232
		l0.425,0.237l0.556,0.445l0.656,0.671l0.375,0.281l0.881,0.452l0.18,0.128l0.146,0.141l0.122,0.153l0.011,0.023l0.052,0.181
		l0.048,0.298l-0.094,1.639l0.025,0.422l0.055,0.314l0.263,0.644l-0.013,0.25l-0.15,0.307l-1.005,1.169l-0.682,1.246l-0.379-0.373
		l-0.214-0.316l-0.364-1.011l-0.208-0.282l-0.838-0.294l-0.883,0.326l-2.657,2.148l-0.472,0.186l-0.633,0.1l-1.983-0.004
		l-0.537-0.077l-0.359-0.226l-0.62-0.828l-0.34-0.352l-0.758-0.599l-0.335-0.378l-0.561-1.213l-0.06-0.201l-0.488-0.151
		l-0.337-0.382l-0.463-0.895l-0.711-0.497l-1.886,0.023l-0.793-0.307l-0.252-0.32l-0.442-0.712l-0.304-0.277l-0.737-0.198
		l-0.888,0.092l-2.797,0.818l-2.124,1.015l-1.461,1.015l-0.892,0.836l-0.382,0.48l-0.281,0.578l-0.28,1.194l-0.234,0.552
		l-0.467,0.439l-0.523,0.045l-0.536-0.211l-1.782-1.207l-0.697-0.324l-0.7-0.085l-1.503,0.301l-0.696-0.107l-0.513-0.614
		l-0.105-0.838l-0.002-1.122l-0.117-0.976l-0.443-0.418l-0.437-0.164l-0.439-0.39l-0.374-0.467l-0.245-0.388l-0.242-1.407
		l-0.414-0.111l-0.445,0.113h-0.355l-0.146-0.439l-0.034-0.345l-0.091-0.422l-0.127-0.362l-0.147-0.149l-0.382-0.107l-1.353-0.739
		l-0.35-0.422l-0.185-0.141l-0.258-0.085l-0.585-0.107l-0.225-0.089l-1.205-1.263l-1.691-2.964l-1.402-1.143l-0.643-0.351
		l-0.708-0.496l-0.574-0.604l-0.435-1.194l-0.466-0.73l-0.936-1.149l-1.38-0.838l-0.698-0.57l-0.3-0.712l-2.428-2.119l-2.356-1.309
		l-0.697-1.065l-0.842-0.011l-2.593,0.648l-0.357-0.102l-0.248-1.012l-0.264-0.395l-0.378-0.278l-0.436-0.102l-0.455-0.382
		l-0.578-0.892l-0.497-1.036l-0.206-0.801l-0.809,0.002l-0.399-0.117l-0.458-0.083l-1.338-0.115l-1.576,0.089l-1.044,0.242
		l-0.503,0.172l-3.163,2.239l-0.855,0.673l-2.255,1.859l-0.426,0.236l-0.357,0.068h-0.452l-1.988-0.332l-2.349,0.091l-1.516-0.172
		l-0.315-0.083l-0.375-0.053l-0.883,0.083l-2.658,0.506l-2.173-5.232l-2.966-4.632l-2.035-2.599l-0.693-0.687L266.082,347.06z"/>
</g>
<g id="Copyright">
	<text transform="matrix(1 0 0 1 681.6426 577.5916)" class="st1 st2"> Vemaps.com</text>
</g>
</svg>
