<?xml version="1.0" encoding="utf-8"?>
<!-- Generator: Adobe Illustrator 23.0.1, SVG Export Plug-In . SVG Version: 6.00 Build 0)  -->
<svg version="1.1" xmlns="http://www.w3.org/2000/svg" xmlns:xlink="http://www.w3.org/1999/xlink" x="0px" y="0px"
	 viewBox="0 0 800 600" style="enable-background:new 0 0 800 600;" xml:space="preserve">
<style type="text/css">
	.st0{fill:#808080;stroke:#FFFFFF;stroke-width:0.5;stroke-linecap:round;stroke-linejoin:round;}
	.st1{font-family:'Roboto-Regular';}
	.st2{font-size:14px;}
</style>
<g id="Costa_Rica">
	<path class="st0" d="M464.003,70.267l-0.024,0.398l-0.238,20.337l-0.203,15.356l-0.141,10.906l-0.15,13.083l-1.086,14.436
		l-0.024,0.236l-1.725,1.835l-0.465,0.753l-0.058,0.285l-0.024,0.266l0.01,0.512l0.167,0.836l-1.379,1.501l-2.605,0.851
		l-6.263,1.761l-1.672,0.236l-0.494-0.152l-1.124-0.133l-0.451-0.108l-0.359-0.123l-1.856-0.3l-1.82-0.526l-2.29,0.448l-4.17,0.349
		l-2.888,1.279l-0.758,0.467l-0.092,0.138l-0.119,0.226l-1.093,1.082l-1.614,0.846l-0.618,0.462l-0.274,0.335l0.027,0.246
		l-0.044,0.31l-1.732,2.159l-0.155,0.359l-0.121,0.723l-0.153,0.177l-0.683,0.02l-2.038-2.725l-0.843-0.659l-1.122-0.226
		l-1.221-0.069l-1.551-0.423l-1.96-0.787l-0.645-0.452l-0.313-0.354l0.136-0.502l-0.007-0.561l0.046-0.261l0.16-0.212l0.15-0.143
		l0.661-0.295l1.735-2.74l0.722-0.704l1.039-0.32l4.613-3.021l1.473-0.59l0.463-0.246l0.31-0.285l0.082-0.207l0.073-0.708
		l-1.19-1.958l-0.674-0.325l-0.233,0.098l-0.739,0.576l-0.724,0.202l-0.312-0.01l-0.199-0.059l-0.087-0.138l-0.129-0.295
		l-0.058-0.226l-0.586-0.915l-1.534-1.85l-0.756-1.24l-1.534-1.91l-0.555-0.852l-1.037-2.151l-0.422-1.521l0.356-2.397l-0.036-0.359
		l-0.102-0.532l-0.521-0.955l-0.075-0.389v-0.35l0.54-2.137l0.281-0.704l0.991-1.822l0.107-0.482l-0.036-0.355l-0.148-0.162
		l-0.564-0.443l-0.378-0.537l-0.521-1.477l-1.674-1.093l-0.715-0.103l-0.245,0.089l-0.216,0.098l-0.613,0.369l-1.284,0.374
		l-1.786,0.32l-0.768,0.035l-0.528-0.035l-0.608-0.399l-0.17-0.148l-0.601-0.729l-2.098-3.359l1.502-2.872l0.16-0.946l-0.223-0.414
		l-0.131-0.187l-0.262-0.655l-0.368-1.764l1.444-5.252l-2.043-4.1l-0.703-1.094l-5.357-4.14l-1.694-0.868l-5.151-1.351l-1.306-0.522
		l-1.003-1.124l-2.503-2.248l-0.303-0.345l-0.531-0.813l-0.276-0.666l-0.429-2.569l-1.071-1.938l-1.33-2.125l-0.589-0.631
		l-0.594-0.37l-1.267-0.543l-1.049-0.306l-4.977-1.193l-1.466-0.498l-0.579-0.429l-0.698-0.661l-2.784-1.909l-0.722-0.37
		l-0.548-0.227l-0.596-0.049l-0.618,0.02l-1.153,0.148l-2.052,0.503l-2.447,0.237l-2.806-0.099l-2.307-4.598l-0.819-1.263
		l-0.414-0.306l-0.216-0.128l-0.233-0.104l-0.237-0.084l-2.115-0.266l-0.572-0.207l-2.287-1.332l-1.066-0.819l-4.252-4.959
		l-0.116-0.163l-0.208-0.4l-0.017-0.252l0.044-0.217l0.349-0.414l3.186-0.237l0.858-0.375l0.271-0.434l0.189-0.424l7.361-5.045
		l4.483-5.075l0.349-0.247l0.252-0.079l0.368-0.049l0.567-0.202l0.698-0.163l0.222-0.19L376.314,50l15.139,5.612l2.156,0.242
		l2.198-0.795l9.677-6.42l6.939-4.602l2.937-0.704l1.662,0.733l3.569,2.577l1.635,0.237l2.021-0.114l2.164,0.694l4.676,2.071
		l0.506,0.143l0.485,0.195l0.456,0.247l0.393,0.291l2.132,2.666l0.802,0.679l0.841,0.479l1.001,0.395l1.027,0.104l0.889-0.375
		l5.045-3.302l0.797-0.479l0.889,0.452l0.218,0.718l-0.019,0.965l0.194,1.182l0.412,0.691l1.248,1.575l0.262,0.671l0.991,0.93
		l4.357,1.68l0.996,0.679l0.838,0.935l1.788,0.918l1.621,1.369l0.349,2.289l-1.301,0.683l-0.388,0.266l-0.417,0.738l0.174,0.538
		l0.383,0.407l0.213,0.331l2.064,1.665l0.494,0.649l1.049-0.767l1.461,0.03L464.003,70.267z"/>
	<path class="st0" d="M500.941,71.674l6.159-1.478l3.293-1.704l0.271-2.593l-0.86-3.397l-0.087-4.101l0.044-0.461l-0.112-0.486
		l0.681-0.486l0.552,0.118l0.594-0.015l0.668,0.066l1.885,2.2l2.396,4.422l1.702,4.705l-0.217,3.018l-1.377-1.709l-2.465-6.111
		l1.587,7.622l-0.16,3.08l-2.709,2.33l1.435-0.264l0.969-0.668l0.912-0.831l1.225-0.781l-0.427,0.485l-0.099,0.583l0.16,0.691
		l0.366,0.784l0.359-1.122l0.397-2.19l0.527-1.188l4.544,12.617l5.701,13.5l6.719,11.298l17.892,23.51l1.439,1.105l5.975,7.348
		l3.69,3.662l2.232-1.255l0.855,0.546l2.473,0.434l0.511,0.728l0.069,1.778l0.298,1.484l0.687,1.317l1.221,1.271l4.365,6.507
		l1.396,0.999l5.403,7.327l4.075,3.864l2.396-0.736l0.542,1.494l0.515,3.832l0.866,1.757l1.446,1.115l6.292,2.198l2.236,0.232
		l2.198-0.077l2.068,0.17l1.824,0.968l2.347,3.553l1.58,0.967l0.091,0.058l1.009,3.566l-0.729,0.044l-1.432-0.762l-1.427-0.231
		l-0.666,1.027l-0.392,3.648l-0.606,1.216l-1.245,0.194l-1.742-0.302l-1.64-0.506l-0.923-0.437l-0.996-1.11l-1.199-2.292
		l-0.959-1.088l-0.754,0.349l-0.904-0.339l-3.913-3.324l-5.432-2.175l-1.73,0.197l-1.742,1.482l-1.064,1.511l-0.174,0.882
		l1.136,2.022l0.649,2.609l0.402,0.548l0.613,0.187l0.431,0.265l-0.15,0.774l-1.398,0.803l-5.001,0.688l-1.752,0.621l-0.787,1.329
		l-0.242,1.825l0.102,7.874l0.145,11.392l0.2,15.557l-0.066-0.056l-0.87-0.731l-0.296-0.196l-1.517-0.481l-1.592-1.595l-0.477-0.702
		l-0.586-1.639l-0.499-0.79l-0.388-0.24l-0.586-0.275l-3.23-0.903l-0.281-0.167l-0.262-0.236l-0.284-0.491l-0.128-0.353
		l-1.022-5.105l-0.334-0.933l-0.218-0.412l-0.138-0.186l-0.17-0.157l-0.194-0.147l-3.358-1.915l-0.371-0.27l-0.676-0.648
		l-3.664-4.758l-0.407-0.118l-0.615-0.069l-2.016,0.147l-1.299,0.241h-0.32l-0.497-0.088l-0.664-0.201l-1.466-0.751l-0.894-0.604
		l-0.451-0.236l-1.732-0.579l-0.48-0.216l-0.216-0.133l-0.213-0.103l-1.735-1.513l-0.412-0.275l-0.443-0.226l-0.312-0.015
		l-0.407,0.074l-0.686,0.363l-0.346,0.226l-0.242,0.236l-1.095,1.542l-0.155,0.162l-0.397,0.133l-1.754,0.167l-0.523,0.128
		l-0.349,0.167l-0.332,0.344l-0.174,0.137l-0.211,0.128l-0.204,0.02l-0.211-0.088l-0.247-0.737l-0.058-0.309l-0.073-0.25
		l-0.342-0.295l-0.303-0.187l-2.45-0.722l-1.148-0.82l-0.329-0.324l-0.795-1.1l-3.116-8.582l-0.334-1.017l-0.601-1.253l-0.199-0.275
		l-0.3-0.324l-0.174-0.261l-0.567-1.287l-0.194-1.174l-0.204-0.899l0.317-2.909l1.306-2.673l5.427-6.537l2.108-5.368l0.739-1.18
		l2.832-3.447l3.998-5.011l0.625-1.643l-0.242-1.731l-1.083-3.374l-0.138-2.096l0.31-1.682l0.741-1.555l1.158-1.697l0.223-0.369
		l-1.883-0.379l-9.932-0.231l-13.518-0.108l-2.454-0.895l-9.193-4.301l-5.655-2.687l-4.117-1.949l-11.746-5.316l1.279-4.283
		l0.613-0.852l0.843-0.842l4.415-4.742l0.288-0.458l1.156-2.452l0.25-0.69l0.111-0.522l-0.046-0.266l0.08-1.158l0.305-1.364
		l0.082-0.675l-0.017-0.468l-0.114-0.217l-0.291-0.365l-0.247-0.384l-0.177-0.483l-0.286-1.035l-1.25-2.335l-0.121-0.36
		l-0.211-1.389l0.056-0.567l0.075-0.409l0.327-0.685l0.267-0.389l0.751-1.453l0.189-0.227l0.213-0.098l0.247-0.03l0.259-0.069
		l0.211-0.113l0.182-0.148l0.378-0.389l0.843-1.291l0.526-2.001l0.003-0.473l-0.044-0.261l-0.376-0.941l-0.058-0.286l-0.015-0.325
		l0.087-0.779l0.01-0.315l-0.039-0.276l-0.109-0.222l-0.131-0.202l-0.298-0.355l-0.138-0.197l-0.09-0.227l-0.014-0.562l0.531-4.091
		l-0.063-0.897l0.131-2.909l0.124-0.868l0.155-0.562l0.15-0.173l0.359-0.306l0.792-0.518l0.901-0.473l0.371-0.286l0.94-1.016
		l1.589-1.031l0.979-0.33l0.545-0.113l2.736-0.237l0.988-0.252l0.361-0.01l0.337,0.03l0.431,0.143l0.095-0.089l-0.012-0.163
		l-0.196-0.306l-0.233-0.271l-0.349-0.296l-0.812-0.498l-0.368-0.306l-0.315-0.326l-0.288-0.365l-0.082-0.335l-0.036-0.464
		l0.281-1.914l-0.015-0.335l-0.053-0.316l-0.257-0.459l-0.354-0.429l-0.473-0.464l-0.216-0.158l-0.225-0.143l-0.291-0.113
		l-1.073-0.301L500.941,71.674z"/>
	<path class="st0" d="M464.003,70.267l0.817,0.119l1.127-0.19l1.742,1.712l1.078,0.412l1.078-0.821h0.645l1.136,1.117l2.326-1.502
		l1.602,0.385l1.112-1.117l1.262-0.212l1.035,0.705l0.429,1.628l5.655,4.481l0.632,0.301l0.872,0.136l0.918-0.18l1.306-0.912
		l0.628-0.212l2.564,0.513l0.349-0.212l1.919-2.254l6.225-2.373l0.483-0.116l0.283,0.21l1.073,0.301l0.291,0.113l0.225,0.143
		l0.216,0.158l0.473,0.464l0.354,0.429l0.257,0.459l0.053,0.316l0.015,0.335l-0.281,1.914l0.036,0.464l0.082,0.335l0.288,0.365
		l0.315,0.326l0.368,0.306l0.812,0.498l0.349,0.296l0.233,0.271l0.196,0.306l0.012,0.163l-0.095,0.089l-0.431-0.143l-0.337-0.03
		l-0.361,0.01l-0.988,0.252l-2.736,0.237l-0.545,0.113l-0.979,0.33l-1.589,1.031l-0.94,1.016l-0.371,0.286l-0.901,0.473
		l-0.792,0.518l-0.359,0.306l-0.15,0.173l-0.155,0.562l-0.124,0.868l-0.131,2.909l0.063,0.897l-0.531,4.091l0.014,0.562l0.09,0.227
		l0.138,0.197l0.298,0.355l0.131,0.202l0.109,0.222l0.039,0.276l-0.01,0.315l-0.087,0.779l0.015,0.325l0.058,0.286l0.376,0.941
		l0.044,0.261l-0.003,0.473l-0.526,2.001l-0.843,1.291l-0.378,0.389l-0.182,0.148l-0.211,0.113l-0.259,0.069l-0.247,0.03
		l-0.213,0.098l-0.189,0.227l-0.751,1.453l-0.267,0.389l-0.327,0.685l-0.075,0.409l-0.056,0.567l0.211,1.389l0.121,0.36l1.25,2.335
		l0.286,1.035l0.177,0.483l0.247,0.384l0.291,0.365l0.114,0.217l0.017,0.468l-0.082,0.675l-0.305,1.364l-0.08,1.158l0.046,0.266
		l-0.111,0.522l-0.25,0.69l-1.156,2.452l-0.288,0.458l-4.415,4.742l-3.467,0.364l-1.82,2.354l-0.567,0.591l-0.451,0.158
		l-2.076,0.158l-1.815,0.394l-4.138,0.325l-0.468,0.177l0.073,0.473l0.334,0.763l2.154,3.204l1.236,1.339l0.245,0.763l0.155,2.284
		l0.763,0.842l0.453,0.404l0.305,0.335l0.094,0.699l-0.572,1.89l-1.17,3.149l-1.827,1.097l-2.479,0.792l-0.967,0.187l-2.411-0.202
		l-0.434,0.03l-3.448,1.56l-1.071-0.453l-1.844-0.935l-1.648,0.285l-0.167-0.836l-0.01-0.512l0.024-0.266l0.058-0.285l0.465-0.753
		l1.725-1.835l0.024-0.236l1.086-14.436l0.15-13.083l0.141-10.906l0.203-15.356l0.238-20.337L464.003,70.267z"/>
	<path class="st0" d="M362.844,44.99l-0.222,0.19l-0.698,0.163l-0.567,0.202l-0.368,0.049l-0.252,0.079l-0.349,0.247l-4.483,5.075
		l-7.361,5.045l-0.189,0.424l-0.271,0.434l-0.858,0.375l-3.186,0.237l-0.349,0.414l-0.044,0.217l0.017,0.252l0.208,0.4l0.116,0.163
		l4.252,4.959l1.066,0.819l2.287,1.332l0.572,0.207l2.115,0.266l0.237,0.084l0.233,0.104l0.216,0.128l0.414,0.306l0.819,1.263
		l2.307,4.598l2.806,0.099l2.447-0.237l2.052-0.503l1.153-0.148l0.618-0.02l0.596,0.049l0.548,0.227l0.722,0.37l2.784,1.909
		l0.698,0.661l0.579,0.429l1.466,0.498l4.977,1.193l1.049,0.306l1.267,0.543l0.594,0.37l0.589,0.631l1.33,2.125l1.071,1.938
		l0.429,2.569l0.276,0.666l0.531,0.813l0.303,0.345l2.503,2.248l1.003,1.124l1.306,0.522l5.151,1.351l1.694,0.868l5.357,4.14
		l0.703,1.094l2.043,4.1l-1.444,5.252l0.368,1.764l0.262,0.655l0.131,0.187l0.223,0.414l-0.16,0.946l-1.502,2.872l-1.466-1.192
		l-0.414-0.187l-0.535-0.177l-0.47-0.03l-0.705,0.03l-0.4,0.084l-0.312,0.104l-0.555,0.384l-0.812,0.872l-0.349,0.296l-0.85,0.443
		l-0.557,0.379l-0.414,0.429l-0.257,0.384l-0.172,0.325l-0.058,0.281v0.281l0.051,0.251l0.109,0.207l0.136,0.187l0.69,0.64
		l0.124,0.187l0.07,0.251l0.034,0.251l-0.044,0.256l-0.439,1.261l-0.211,1.832l-0.095,0.286l-0.572,1.201l-0.087,0.325l-0.003,0.256
		l0.075,0.236l0.09,0.207l0.128,0.197l0.298,0.345l0.131,0.276l0.065,0.359l-0.051,0.689l-0.155,0.325l-0.194,0.251l-1.798,0.783
		l-0.41,0.271l-1.694,1.497l-0.441,0.542l-0.252,0.423l-0.077,0.581l-0.007,0.295l0.099,0.546l0.354,1.019l0.048,0.364l-0.148,0.148
		l-0.225,0.02l-0.254-0.059l-0.238-0.079l-0.87-0.468l-0.737-0.566l-0.344-0.344l-1.144-1.447l-0.7-0.611l-0.189-0.138l-0.863-0.473
		l-0.465-0.182l-0.276-0.059l-0.303-0.015l-0.373,0.059l-0.48,0.148l-0.15,0.03l-0.228,0.015l-0.25-0.059l-0.218-0.094l-0.196-0.138
		l-0.354-0.295l-0.206-0.098l-0.247-0.059l-0.259,0.005l-0.531,0.103l-0.586,0.059l-0.3-0.01l-0.288-0.049l-0.771-0.015
		l-1.878,0.566l-0.016,0.005l-0.403-0.28l-0.366-0.174l-1.229-1.124l-1.69,0.554l-6.345,0.097l-1.679-0.434l-1.5-1.054l-2.35-2.47
		v-0.593l0.538-1.741l-1.637-2.005l-4.026-2.823l0.572,1.927l2.709,1.989l0.622,2.326l0.248,4.42l0.565,2.593l1.107,1.768
		l-1.221,0.791l0.172,1.318l1.107,1.244l2.865,1.012l1.019,1.112l1.236,2.383h0.584l0.756-0.314l0.328,0.256l0.141,0.651
		l-0.817,0.062l-0.843-0.109l-0.801-0.24l-0.687-0.306v0.593l1.758,1.565l-0.948,3.087l-0.55,0.777l-2.06,0.497l-0.468,0.202
		l-2.421,1.402l-0.436,0.123l-0.191-0.098l-0.177-0.157l-0.145-0.162l-0.17-0.152l-0.637,0.064l-0.979,0.31l-2.309,1.122
		l-0.86,0.797l-0.392,0.733l0.16,0.546l0.315,0.433l0.359,0.32l0.397,0.202l0.397,0.064l0.875-0.118l0.303-0.005l0.286,0.01
		l0.833,0.152l0.23,0.103l0.405,0.236l0.233,0.098l0.262,0.059l0.887-0.01l0.538,0.118l0.625,0.354l0.722,0.251l0.22,0.113
		l0.179,0.152l0.4,0.561l0.516,0.472l0.254,0.398l0.102,0.226l0.126,0.207l0.189,0.448l0.082,0.566l0.136,0.531l0.124,0.197
		l0.196,0.138l0.24,0.084l1.371,0.325l0.177,0.182l0.041,0.231l-0.276,0.585l-0.356,0.979l-0.962,3.649l-0.024,0.585l0.131,0.393
		l0.264,0.305l0.041,0.216l-0.087,0.177l-0.535,0.433l-0.189,0.29l-0.203,0.413l-0.267,0.826l-0.203,0.398l-0.225,0.251
		l-0.242,0.162l-0.274,0.231l-0.603,1.254l-0.23,0.148l-0.196,0.039l-0.552,0.256l-0.24,0.251l-0.01,0.011l-0.491-1.19l-0.385-0.445
		l-0.87-0.546l-2.35-0.976l-0.195-0.755l0.034-0.867l-0.076-0.662l-2.232-2.474l-3.106-1.77l-10.085-3.609l-0.901,0.194
		l-1.343,0.941l-0.607,0.225l-0.904-0.213l-1.271-0.93l-1.03-0.217l-0.603-0.05l-0.21-0.151l-0.122-0.287l-0.343-0.43l-0.656-0.306
		l-0.546,0.143l-0.359,0.302l-0.069,0.186l-5.3-1.712l-2.538-0.395l-0.599-0.372l-0.477-0.453l-0.748-0.372l-1.053,0.046
		l-0.694,0.422l-0.618,0.043l-0.836-1.104l0.672-1.774l-0.992-2.398l-9.604-11.845l-0.572-1.046l-0.755-2.566l-1.156-1.795
		l-3.655-8.99l-0.332-2.699l-0.401-1.64l-0.549-1.194l1.294-1.272l0.538-0.915l-0.202-0.772l-1.996-2.56l-1.255-0.768l0.694-0.939
		l1.625-1.296l1.099-1.618l0.767-1.579l1.603,0.64l0.87-1.013l0.679-1.478l1.992-1.513l-0.771-1.711l-1.416-1.785l-0.977-1.009
		l0.588-0.407l0.252-0.14l0.435-0.105v-0.652h-1.274v-0.652l1.068-0.202l0.687-0.664l0.801-1.801h0.641l1.305,1.067l1.839-0.765
		l1.877-1.06l1.435,0.171h0.584l-0.126-1.254l0.321-0.605l0.534-0.33l0.496-0.419l0.859-1.491l0.34,0.082l1.16,0.109l2.824-2.962
		l-0.214-0.792l-0.496-0.606l-1.213-0.85l-3.842,3.906l-0.092-0.314l0.012-0.28l-0.103-0.155l-0.458,0.039v-0.594l1.087-1.192
		l0.664-0.501l0.813-0.256l-0.641-0.652l-0.084,0.085l-0.126,0.182l-0.195,0.202l-0.294,0.182l0.237-0.792l0.046-0.276l1.057-0.295
		v-0.594h-0.641v-0.711l1.564-1.254l0.309-3.242l-0.534-6.288l-1.408-1.67l-3.102-1.387l-3.106-0.509l-1.408,0.963h-0.561
		l-2.587-2.152l-0.752-0.816l0.446,0.148l0.557-0.256l0.233-0.532l-0.538-0.664l-0.687-0.155l-1.812,0.179l-0.755-0.023
		l-2.759-1.041l-2.171-1.278l-2.427-1.076l-3.53-0.451v-0.711l2.122-0.536l3.968-1.811l2.232-0.264l-0.355-0.587l-0.282-0.361
		l-0.435-0.218l-0.847-0.14v-0.645l4.636-0.28l1.179,0.28l0.492,0.735l-0.118,0.855l-0.229,0.711l0.183,0.303l0.389,0.183
		l1.206,1.119h0.584l0.698-0.707V57.79l-1.068-1.065l1.023-0.688l1.999-0.299l1.889,0.093l0.641,0.303l0.84,0.835l0.763,0.167
		l0.611-0.225l0.259-0.548l-0.103-0.649l-0.454-0.529v-0.711l1.393-0.521l0.393-1.049l-0.324-1.24l-0.763-1.108l-0.679-0.498
		l-1.58-0.657l-0.675-0.474l-0.79-0.84v-0.226l0.473-0.101l0.637-0.467l1.435-1.333l0.832,0.459l0.973,0.906l1.881-0.031
		l1.129-1.042l-0.252-1.388l-1.015-1.337l-1.145-0.855l-0.798-0.339l2.265-3.703l1.713-3.746l2.641-3.574L328.962,30l2.685,1.391
		l2.646,2.396l3.031,1.711l9.491,3.534l12.665,4.706L362.844,44.99z"/>
	<path class="st0" d="M578.239,233.806l0.013,1.051l2.806-1.18l0.865-0.005l0.652,0.486l0.337,0.719l0.264,0.748l0.417,0.584
		l0.55,0.324l2.108,0.945l4.306,3.192l4.264,1.46l1.272,0.846l2.418,4.096l0.373,0.893l-0.074,0.122l-1.285,2.112l-2.806,1.712
		l-9.672,3.975l-1.093,0.787l-0.913,1.219l0.446,0.431l0.744,0.461l-0.015,1.292l-0.875,1.017l-2.791,1.746l-0.758,0.819
		l-0.111,1.419l0.463,1.341l0.833,1.248l2.944,3.307l1.568,2.216l1.165,2.451l0.744,2.882l0.552,6.611l-0.276,3.332l-0.88,2.793
		l-2.074,2.565l-2.447,1.21l-2.651,0.816l-2.694,1.389l-4.151,3.975l-4.269,2.41l-0.826,0.673l-0.107,1.188l0.86,0.923l2.626,1.55
		l0.497,0.534l0.906,1.339l0.523,0.419l0.594,0.034l1.132-0.453l0.855,0.12l1.64,0.867l0.642,0.972l0.429,3.006l4.94,10.861
		l-0.465,4.229l-0.587,2.159l-1.277-1.005l0.145-1.445l0.71-1.595l0.424-1.453l-0.259-1.16l-6.388-11.005l-2.259-2.387
		l-11.653-8.503l-3.19-3.143l2.755-3.379l0.508-0.27l0.527-0.972l1.019-1.261l0.649-1.454l-0.595-1.52l-3.064-3.839l-0.515-1.076
		l-0.05-1.401l0.668-0.49l1.168-0.347l1.473-0.938l-1.107-0.355l-2.736,0.147l-1.339-0.498l-0.698-0.783l-1.866-3.693l0.309-0.49
		l0.149-0.332l0.183-0.533h0.641l0.904,1.54l0.275,0.753l0.103,1.27l0.412,0.212l2.789-1.123v-0.706l-1.282-0.544l-1.358-1.011
		l-1.156-1.212l-0.687-1.123h-0.641l-0.71,1.165l-1.706,0.07l-1.95-0.228l-1.454,0.289l-0.687-1.274l-1.099-1.335l-1.301-0.679
		l-1.332,0.702l-2.972-1.756l-0.87-1.424l0.58-2.003l-0.641-0.046l-0.637,0.046l0.385-1.552l-1.328-0.745l-1.977-0.413l-1.568-0.525
		l-0.549,1.112l-0.496-0.081l-0.618-0.452l-0.95,0.004l-0.446,0.51l-0.115,0.668l-0.389,0.579l-1.267,0.247l-3.102-0.467
		l-1.263,0.463l-0.466,1.888l0.71-0.544l-0.011-0.043h0.584l3.293,4.975l0.435,1.509l1.923,3.041l0.748,0.895l1.236,0.637
		l3.503,1.065l1.408,0.181l1.29,0.776l1.229,1.509l1.187,1.015l1.156-0.706l0.05,2.338l-0.187,0.961l-0.569,0.641v0.648l1.416,1.944
		l0.572,3.318l-0.248,3.448l-1.034,2.353l-2.106,0.077l-3.43-1.107l-3.232-1.566l-1.534-1.284h0.576l0.42,0.336l0.343,0.154
		l1.274,0.15l-1.809-0.814l-0.733-0.482l-0.778-0.698v1.354l-5.407-2.372l-1.923-0.278l-5.743,0.698l-1.591,0.008l-1.355-0.644
		l-1.248-1.288l-2.286-2.982l-8.154-7.616l-0.523-0.861l-0.404-0.104l-1.919-0.787l-0.584-0.37l-0.29-2.948l2.854-4.415l0.664-0.764
		l1.473-0.88l1.007-0.39l0.462,0.274l0.298,0.567l0.649-0.656l2.282-3.501l0.614-0.656l-1.175-1.506l1.416-1.695l2.576-1.39
		l2.305-0.591v-0.587l-2.03-0.243l-1.019,0.093l-0.698,0.564l-1.084,1.174l-1.099,0.517l-0.366-0.911l0.446-1.61l1.312-1.587
		l2.324-1.135l1.068-0.741l0.446-1.07l-0.584-0.962l-1.217-0.668l-1.107-0.896l-0.233-1.657l1.812,0.931l0.878,0.274l1.148,0.035
		l-0.561-0.695l-0.71-0.529l-1.351-0.722l-0.572-0.475l-0.324-0.44l-0.5-0.301l-1.103-0.077l1.137-0.688l-0.16-0.498l-0.653-0.379
		l-0.324-0.324l0.424-1.043l0.481-0.776l0.656-0.688l0.939-0.788l-2.484-6.548l-0.458-0.831l-1.538-1.696l-0.641,0.641l-2.106-2.747
		l-1.919-3.204l-2.465-2.512l-3.751-0.673l0.217-2.45l-2.064-2.095l-2.835-1.45l-2.099-0.549l-7.368-7.075l-7.223-3.372
		l-1.156-0.905l-9.02-3.566h-0.584l-0.607,0.445l-0.527-0.004l-0.439-0.406l-0.351-0.743l-1.286,0.557l-0.767-0.615l-0.87-0.893
		l-1.61-0.29l1.007-1.752l-1.339-2.472l-2.45-2.166l-2.347-0.805v0.642l0.824,0.162l0.557,0.232l1.24,0.905l-2.438-0.429
		l-3.869-2.286l-2.453-0.526l-2.377-0.186l-12.538-3.513l-2.4-0.197l-1.122,0.197l-1.202,0.383l-1.248,0.255l-1.259-0.19
		l-1.099-0.929l-0.37-1.122l-0.443-0.906l-1.286-0.29l0.24,0.383l0.137,0.286l0.198,0.689l-1.549-1.254l-3.476-2.256l-0.675-1.416
		l-0.332-1.308l-0.824-0.631l-1.042-0.414l-1.007-0.631l-0.321-0.964l0.134-0.995l-0.259-0.643l-1.469,0.062l0.37-1.08l-0.103-1.037
		l-0.24-0.975l-0.027-0.859l0.553-1.068l1.614-1.614l0.637-1.611l0.656-0.801l0.66-1.038l0.301-1.371l-0.313-1.138l-0.733-0.987
		l-1.461-1.475l-3.793-5.669l-1.061-0.833l-1.522-0.655l0.202-1.441l1.32-2.185l-2.305-1.906l-0.424-0.926l0.485-1.395l-2.69-0.829
		l-8.311,0.829v-0.709l1.152-0.453l1.477-0.163l3.251,0.023v-0.651l-2.988-0.143l-2.667-0.477l-2.411-0.825l-2.236-1.209
		l-2.827-2.36l-0.431-0.511l-0.607-0.14l-1.19-0.81l-0.84-0.899l0.45-0.426l-1.568-0.818l-3.846-3.624l-2.049-1.023l-0.965-0.895
		l-0.591-0.202l-0.469,0.213l-0.404,0.357l-0.534,0.081l-0.828-0.651l0.553-1.012l0.183-0.647l-0.02-0.014l0.016-0.005l1.878-0.566
		l0.771,0.015l0.288,0.049l0.3,0.01l0.586-0.059l0.531-0.103l0.259-0.005l0.247,0.059l0.206,0.098l0.354,0.295l0.196,0.138
		l0.218,0.094l0.25,0.059l0.228-0.015l0.15-0.03l0.48-0.148l0.373-0.059l0.303,0.015l0.276,0.059l0.465,0.182l0.863,0.473
		l0.189,0.138l0.7,0.611l1.144,1.447l0.344,0.344l0.737,0.566l0.87,0.468l0.238,0.079l0.254,0.059l0.225-0.02l0.148-0.148
		l-0.048-0.364l-0.354-1.019l-0.099-0.546l0.007-0.295l0.077-0.581l0.252-0.423l0.441-0.542l1.694-1.497l0.41-0.271l1.798-0.783
		l0.194-0.251l0.155-0.325l0.051-0.689l-0.065-0.359l-0.131-0.276l-0.298-0.345l-0.128-0.197l-0.09-0.207l-0.075-0.236l0.003-0.256
		l0.087-0.325l0.572-1.201l0.095-0.286l0.211-1.832l0.439-1.261l0.044-0.256l-0.034-0.251l-0.07-0.251l-0.124-0.187l-0.69-0.64
		l-0.136-0.187l-0.109-0.207l-0.051-0.251v-0.281l0.058-0.281l0.172-0.325l0.257-0.384l0.414-0.429l0.557-0.379l0.85-0.443
		l0.349-0.296l0.812-0.872l0.555-0.384l0.312-0.104l0.4-0.084l0.705-0.03l0.47,0.03l0.535,0.177l0.414,0.187l1.466,1.192
		l2.098,3.359l0.601,0.729l0.17,0.148l0.608,0.399l0.528,0.035l0.768-0.035l1.786-0.32l1.284-0.374l0.613-0.369l0.216-0.098
		l0.245-0.089l0.715,0.103l1.674,1.093l0.521,1.477l0.378,0.537l0.564,0.443l0.148,0.162l0.036,0.355l-0.107,0.482l-0.991,1.822
		l-0.281,0.704l-0.54,2.137v0.35l0.075,0.389l0.521,0.955l0.102,0.532l0.036,0.359l-0.356,2.397l0.422,1.521l1.037,2.151
		l0.555,0.852l1.534,1.91l0.756,1.24l1.534,1.85l0.586,0.915l0.058,0.226l0.129,0.295l0.087,0.138l0.199,0.059l0.312,0.01
		l0.724-0.202l0.739-0.576l0.233-0.098l0.674,0.325l1.19,1.958l-0.073,0.708l-0.082,0.207l-0.31,0.285l-0.463,0.246l-1.473,0.59
		l-4.613,3.021l-1.039,0.32l-0.722,0.704l-1.735,2.74l-0.661,0.295l-0.15,0.143l-0.16,0.212l-0.046,0.261l0.007,0.561l-0.136,0.502
		l0.313,0.354l0.645,0.452l1.96,0.787l1.551,0.423l1.221,0.069l1.122,0.226l0.843,0.659l2.038,2.725l-0.836,0.684l0.894,0.408
		l0.674,0.374l0.373,0.285l0.351,0.325l0.16,0.187l0.54,0.757l0.458,0.875l0.077,0.369l0.051,0.526l-0.138,0.787l-0.153,0.379
		l-0.187,0.241l-0.184,0.128l-0.228,0.098l-0.257,0.064l-0.288,0.034l-1.8-0.098l-0.557,0.069l-0.262,0.079l-0.225,0.123
		l-0.182,0.148l-0.126,0.192l-0.073,0.226l-0.012,0.261l0.029,0.251l0.72,2.399l0.228,1.145l-0.068,1.839l0.029,0.295l0.223,0.56
		l2.081,3.672l0.07,0.216l0.618,3.16l0.254,0.713l0.414,0.885l0.581,0.791l0.669,0.629l0.296,0.206l0.964,0.118l2.895-0.477
		l0.666,0.27l0.233,0.034l0.378-0.005l1.461-0.383l0.286-0.005l0.286,0.03l0.223,0.098l0.206,0.138l0.443,0.506l0.179,0.162
		l0.208,0.118l0.228,0.079l0.274,0.024l0.254-0.034l0.291-0.128l0.254-0.236l0.569-1.15l0.133-0.196l0.254-0.246l1.059-0.855
		l0.332-0.324l0.206-0.29l0.087-0.241l0.051-0.565l-0.327-1.882l0.015-0.241l0.233-0.157l0.535-0.108l1.095,0.02l2.462-0.472
		l4.005-0.211l1.391,0.128l0.492,0.452l0.363,0.26l0.632,0.796l0.148,0.143l0.998,0.177l3.339-0.083l1.221,0.531l1.4,0.118
		l4.197-0.379l0.843,0.098l0.225,0.079l0.318,0.26l0.254,0.418l0.199,0.747l0.029,0.442l-0.031,0.374l-0.179,0.796l-0.051,0.609
		l0.022,0.29l0.16,0.349l0.329,0.393l0.712,0.649l0.717,0.26l0.436,0.089l0.85-0.147l1.224-0.025l0.85,0.128l0.482,0.177
		l0.228,0.138l0.208,0.349l0.191,0.516l0.191,1.189l-0.002,0.57l-0.07,0.403l-0.25,0.437l-0.191,0.472l0.351,0.59l2.038,0.929
		l1.534,2.958l2.135,2.088l6.145,4.111l1.442,0.462l0.124-0.216l0.16-0.167l0.17-0.147l0.201-0.128l0.211-0.098l0.245-0.079
		l0.264-0.039h0.291l0.259,0.049l0.288,0.216l0.313,0.334l0.671,1.208l0.143,0.373l0.393,1.837l0.099,0.236l3.034,3.084l0.62,0.83
		l0.337,0.604l-0.121,0.933l0.012,0.579l0.153,1.046l0.598,1.91l0.456,0.923l0.254,0.383l0.346,0.403l0.645,0.584l4.662,2.106
		l0.7,0.187l0.262-0.039l0.233-0.074l0.174-0.142l0.16-0.177l0.821-1.139l0.172-0.137l0.216-0.118l0.25-0.098l0.274-0.074
		l0.305-0.044h0.247l0.267,0.044l0.252,0.074l0.916,0.442l1.301,1.252l2.135,2.636l0.332,0.569l0.024,0.255l0.051,0.245l0.708,2.444
		l0.104,0.206l0.247,0.363l0.642,0.761l8.514,5.531l0.216,0.098l1.023-0.069l0.792-0.118l0.242-0.005l0.329,0.029l0.233,0.093
		l0.397,0.294l0.422,0.505l0.155,0.152l0.412,0.245l0.266,0.078l0.25,0.054l0.245-0.024l0.22-0.064l0.194-0.123l0.17-0.172
		l1.013-1.423l0.337-0.319l0.296-0.196l0.203-0.098l0.196-0.128l0.179-0.167l0.124-0.344l0.065-0.496l-0.269-2.179l0.058-0.407
		l0.153-0.481l0.72-1.325l0.179-0.589l-0.056-1.129l-0.114-0.53l-0.141-0.383l-0.131-0.196l-0.068-0.25l-0.104-0.206l-0.162-0.123
		l-0.24-0.005l-0.245,0.044h-0.252l-0.213-0.078l-0.179-0.137l-0.145-0.167l-0.174-0.157l-0.213-0.108l-0.819-0.167l-0.201-0.118
		l-0.119-0.186l-0.019-0.255l0.921-4.792l0.08-0.245l0.305-0.462l2.566-2.892l0.213-0.378l0.237-0.545l0.63-2.313l0.271-0.491
		l0.252-0.359l2.05-2.161l2.45,0.722l0.303,0.187l0.342,0.295l0.073,0.25l0.058,0.309l0.247,0.737l0.211,0.088l0.204-0.02
		l0.211-0.128l0.174-0.137l0.332-0.344l0.349-0.167l0.523-0.128l1.754-0.167l0.397-0.133l0.155-0.162l1.095-1.542l0.242-0.236
		l0.346-0.226l0.686-0.363l0.407-0.074l0.312,0.015l0.443,0.226l0.412,0.275l1.735,1.513l0.213,0.103l0.216,0.133l0.48,0.216
		l1.732,0.579l0.451,0.236l0.894,0.604l1.466,0.751l0.664,0.201l0.497,0.088h0.32l1.299-0.241l2.016-0.147l0.615,0.069l0.407,0.118
		l3.664,4.758l0.676,0.648l0.371,0.27l3.358,1.915l0.194,0.147l0.17,0.157l0.138,0.186l0.218,0.412l0.334,0.933l1.022,5.105
		l0.128,0.353l0.284,0.491l0.262,0.236l0.281,0.167l3.23,0.903l0.586,0.275l0.388,0.24l0.499,0.79l0.586,1.639l0.477,0.702
		l1.592,1.595l1.517,0.481l0.296,0.196l0.87,0.731L578.239,233.806z M369.322,143.587l2.145,1.911l5.689,2.325l0.717,0.407
		l0.668-0.263l1.496,0.616l3.621,2.092l1.671,0.542l1.793,0.047l1.687-0.732l1.107,0.887l2.362,1.495l1.076,0.93v0.593l-1.87,0.453
		l0.084,1.371l1.133,1.596l1.233,1.185l-0.763,0.263l-0.721,0.511l-1.133,1.173l1.385,0.627l1.637,0.186l3.377-0.105v0.592
		l-1.32,0.895l-1.679,0.709l-1.446,0.976l-0.618,1.673l-0.351,0.387l-2.209,1.266l-0.416,0.697l-0.481,1.754l-0.385,0.74
		l-2.942-1.463l-1.561-0.128l-0.675,1.266l0.416,0.778l1.442,1.839l-0.229,0.368l-3.037,1.49l-0.511,0.128l-0.343,0.488
		l-2.221,1.138l-0.458,0.755l-2.049,6.544l-0.859,1.664l-1.122,1.486h-0.691l-2.621-5.437l-7.814-10.633l-0.017-0.041l0.01-0.011
		l0.24-0.251l0.552-0.256l0.196-0.039l0.23-0.148l0.603-1.254l0.274-0.231l0.242-0.162l0.225-0.251l0.203-0.398l0.267-0.826
		l0.203-0.413l0.189-0.29l0.535-0.433l0.087-0.177l-0.041-0.216l-0.264-0.305l-0.131-0.393l0.024-0.585l0.962-3.649l0.356-0.979
		l0.276-0.585l-0.041-0.231l-0.177-0.182l-1.371-0.325l-0.24-0.084l-0.196-0.138l-0.124-0.197l-0.136-0.531l-0.082-0.566
		l-0.189-0.448l-0.126-0.207l-0.102-0.226l-0.254-0.398l-0.516-0.472l-0.4-0.561l-0.179-0.152l-0.22-0.113l-0.722-0.251
		l-0.625-0.354l-0.538-0.118l-0.887,0.01l-0.262-0.059l-0.233-0.098l-0.405-0.236l-0.23-0.103l-0.833-0.152l-0.286-0.01
		l-0.303,0.005l-0.875,0.118l-0.397-0.064l-0.397-0.202l-0.359-0.32l-0.315-0.433l-0.16-0.546l0.392-0.733l0.86-0.797l2.309-1.122
		l0.979-0.31l0.637-0.064l0.17,0.152l0.145,0.162l0.177,0.157l0.191,0.098l0.436-0.123l2.421-1.402l0.468-0.202l2.06-0.497
		l0.55-0.777L369.322,143.587z M372.704,136.035l0.916,0.221l0.519,0.446l0.763,0.205l0.992-0.027v0.589l-1.141,0.415l-1.438,0.349
		l-1.595,0.139l-1.591-0.19l-1.625-0.674l-0.859-0.876l-1.297-2.411l1.767-0.597l0.79-0.054l2.992,0.512l2.766,0.849v0.651h-3.251
		l0.889,0.477L372.704,136.035z M188.185,569.912L186.438,570l1.225-2.105l1.133-0.874l1.313-0.79l1.305-0.261v0.966l-0.088,1.223
		l-1.217,1.315L188.185,569.912z M488.488,268.369l1.234-0.617l1.346-0.056l-0.112,1.121l-0.729,0.28l-1.178-0.224L488.488,268.369z
		"/>
	<path class="st0" d="M460.042,149.508l1.648-0.285l1.844,0.935l1.071,0.453l3.448-1.56l0.434-0.03l2.411,0.202l0.967-0.187
		l2.479-0.792l1.827-1.097l1.17-3.149l0.572-1.89l-0.094-0.699l-0.305-0.335l-0.453-0.404l-0.763-0.842l-0.155-2.284l-0.245-0.763
		l-1.236-1.339l-2.154-3.204l-0.334-0.763l-0.073-0.473l0.468-0.177l4.138-0.325l1.815-0.394l2.076-0.158l0.451-0.158l0.567-0.591
		l1.82-2.354l3.467-0.364l-0.843,0.842l-0.613,0.852l-1.279,4.283l1.32,4.529l0.213,0.379l0.354,0.428l0.819,0.728l0.795,0.561
		l0.424,0.226l0.191,0.133l1.875,2.136l0.351,0.536l0.252,0.837l0.184,2.475l0.419,2.101l-0.211,0.773l-0.284,0.379l-0.354,0.315
		l-0.523,0.187l-1.134,0.133l-1.177,1.294l-0.305,0.098l-0.351,0.079l-0.274-0.084l-0.22-0.113l-0.86-0.138l-2.469,0.03l-0.09,0.049
		l-4.313,1.54l-2.474,4.108l-0.162,0.777l0.155,0.123l0.359,0.212l1.873,0.821l-2.704,4.392l-0.698,0.757l-1.161,0.797l-1.648,1.495
		l-0.625,1.033l-0.291,0.615l-0.063,0.418l0.01,0.295l0.044,0.266l0.102,0.236l0.141,0.177l0.206,0.108l0.267,0.01l0.269-0.029
		l1.141-0.443l0.758-0.202l0.276-0.025l0.56,0.079l0.54,0.128l3.46-0.777l0.773,0.108l0.204,0.905l0.199,0.462l0.162,0.482
		l0.62,1.156l1.812,0.595l0.509,0.452l0.058,0.221l0.029,0.182l0.836,1.406l2.079,2.714l0.497,0.452l0.271,0.069l1.141,0.413
		l1.926,0.964l0.47,0.108l0.233-0.079l0.201-0.123l0.276-0.133l0.385-0.069l0.751,0.083l0.383,0.138l0.274,0.187l0.15,0.182
		l0.71,1.175l0.635,1.352l0.07,0.236l0.182,0.442l0.397,0.757l0.468,0.747l0.313,0.354l0.288,0.236l0.254,0.089l2.06,0.432
		l0.446-0.029l1.798-0.197l1.056,1.474l0.247,0.196l0.468,0.295l1.42,0.482l0.419,0.246l0.257,0.246l0.095,0.236l0.284,1.012
		l0.201,1.258l0.16,0.147l0.201,0.02l1.299-0.644l0.468-0.177l0.274-0.059l1.09,0.103l0.317-0.01l0.279-0.034l0.259-0.064
		l0.24-0.093l0.204-0.103l0.174-0.133l0.179-0.152l0.141-0.187l0.465-0.845l0.373-0.423l1.11-0.339l2.394,2.511l0.814,0.678
		l0.923,0.447l0.238,0.084l9.873,6.009l3.116,8.582l0.795,1.1l0.329,0.324l1.148,0.82l-2.05,2.161L530,209.436l-0.271,0.491
		l-0.63,2.313l-0.237,0.545l-0.213,0.378l-2.566,2.892l-0.305,0.462l-0.08,0.245l-0.921,4.792l0.019,0.255l0.119,0.186l0.201,0.118
		l0.819,0.167l0.213,0.108l0.174,0.157l0.145,0.167l0.179,0.137l0.213,0.078h0.252l0.245-0.044l0.24,0.005l0.162,0.123l0.104,0.206
		l0.068,0.25l0.131,0.196l0.141,0.383l0.114,0.53l0.056,1.129l-0.179,0.589l-0.72,1.325l-0.153,0.481l-0.058,0.407l0.269,2.179
		l-0.065,0.496l-0.124,0.344l-0.179,0.167l-0.196,0.128l-0.203,0.098l-0.296,0.196l-0.337,0.319l-1.013,1.423l-0.17,0.172
		l-0.194,0.123l-0.22,0.064l-0.245,0.024l-0.25-0.054l-0.266-0.078l-0.412-0.245l-0.155-0.152l-0.422-0.505l-0.397-0.294
		l-0.233-0.093l-0.329-0.029l-0.242,0.005l-0.792,0.118l-1.023,0.069l-0.216-0.098l-8.514-5.531l-0.642-0.761l-0.247-0.363
		l-0.104-0.206l-0.708-2.444l-0.051-0.245l-0.024-0.255l-0.332-0.569l-2.135-2.636l-1.301-1.252l-0.916-0.442l-0.252-0.074
		l-0.267-0.044h-0.247l-0.305,0.044l-0.274,0.074l-0.25,0.098l-0.216,0.118l-0.172,0.137l-0.821,1.139l-0.16,0.177l-0.174,0.142
		l-0.233,0.074l-0.262,0.039l-0.7-0.187l-4.662-2.106l-0.645-0.584l-0.346-0.403l-0.254-0.383l-0.456-0.923l-0.598-1.91
		l-0.153-1.046l-0.012-0.579l0.121-0.933l-0.337-0.604l-0.62-0.83l-3.034-3.084l-0.099-0.236l-0.393-1.837l-0.143-0.373
		l-0.671-1.208l-0.313-0.334l-0.288-0.216l-0.259-0.049h-0.291l-0.264,0.039l-0.245,0.079l-0.211,0.098l-0.201,0.128l-0.17,0.147
		l-0.16,0.167l-0.124,0.216l-1.442-0.462l-6.145-4.111l-2.135-2.088l-1.534-2.958l-2.038-0.929l-0.351-0.59l0.191-0.472l0.25-0.437
		l0.07-0.403l0.002-0.57l-0.191-1.189l-0.191-0.516l-0.208-0.349l-0.228-0.138l-0.482-0.177l-0.85-0.128l-1.224,0.025l-0.85,0.147
		l-0.436-0.089l-0.717-0.26l-0.712-0.649l-0.329-0.393l-0.16-0.349l-0.022-0.29l0.051-0.609l0.179-0.796l0.031-0.374l-0.029-0.442
		l-0.199-0.747l-0.254-0.418l-0.318-0.26l-0.225-0.079l-0.843-0.098l-4.197,0.379l-1.4-0.118l-1.221-0.531l-3.339,0.083
		l-0.998-0.177l-0.148-0.143l-0.632-0.796l-0.363-0.26l-0.492-0.452l-1.391-0.128l-4.005,0.211l-2.462,0.472l-1.095-0.02
		l-0.535,0.108l-0.233,0.157l-0.015,0.241l0.327,1.882l-0.051,0.565l-0.087,0.241l-0.206,0.29l-0.332,0.324l-1.059,0.855
		l-0.254,0.246l-0.133,0.196l-0.569,1.15l-0.254,0.236l-0.291,0.128l-0.254,0.034l-0.274-0.024l-0.228-0.079l-0.208-0.118
		l-0.179-0.162l-0.443-0.506l-0.206-0.138l-0.223-0.098l-0.286-0.03l-0.286,0.005l-1.461,0.383l-0.378,0.005l-0.233-0.034
		l-0.666-0.27l-2.895,0.477l-0.964-0.118l-0.296-0.206l-0.669-0.629l-0.581-0.791l-0.414-0.885l-0.254-0.713l-0.618-3.16
		l-0.07-0.216l-2.081-3.672l-0.223-0.56l-0.029-0.295l0.068-1.839l-0.228-1.145l-0.72-2.399l-0.029-0.251l0.012-0.261l0.073-0.226
		l0.126-0.192l0.182-0.148l0.225-0.123l0.262-0.079l0.557-0.069l1.8,0.098l0.288-0.034l0.257-0.064l0.228-0.098l0.184-0.128
		l0.187-0.241l0.153-0.379l0.138-0.787l-0.051-0.526l-0.077-0.369l-0.458-0.875l-0.54-0.757l-0.16-0.187l-0.351-0.325l-0.373-0.285
		l-0.674-0.374l-0.894-0.408l0.836-0.684l0.683-0.02l0.153-0.177l0.121-0.723l0.155-0.359l1.732-2.159l0.044-0.31l-0.027-0.246
		l0.274-0.335l0.618-0.462l1.614-0.846l1.093-1.082l0.119-0.226l0.092-0.138l0.758-0.467l2.888-1.279l4.17-0.349l2.29-0.448
		l1.82,0.526l1.856,0.3l0.359,0.123l0.451,0.108l1.124,0.133l0.494,0.152l1.672-0.236l6.263-1.761l2.605-0.851L460.042,149.508z"/>
	<path class="st0" d="M526.913,196.09l-9.873-6.009l-0.238-0.084l-0.923-0.447l-0.814-0.678l-2.394-2.511l-1.11,0.339l-0.373,0.423
		l-0.465,0.845l-0.141,0.187l-0.179,0.152l-0.174,0.133l-0.204,0.103l-0.24,0.093l-0.259,0.064l-0.279,0.034l-0.317,0.01
		l-1.09-0.103l-0.274,0.059l-0.468,0.177l-1.299,0.644l-0.201-0.02l-0.16-0.147l-0.201-1.258l-0.284-1.012l-0.095-0.236
		l-0.257-0.246l-0.419-0.246l-1.42-0.482l-0.468-0.295l-0.247-0.196l-1.056-1.474l-1.798,0.197l-0.446,0.029l-2.06-0.432
		l-0.254-0.089l-0.288-0.236l-0.313-0.354l-0.468-0.747l-0.397-0.757l-0.182-0.442l-0.07-0.236l-0.635-1.352l-0.71-1.175
		l-0.15-0.182l-0.274-0.187l-0.383-0.138l-0.751-0.083l-0.385,0.069l-0.276,0.133l-0.201,0.123l-0.233,0.079l-0.47-0.108
		l-1.926-0.964l-1.141-0.413l-0.271-0.069l-0.497-0.452l-2.079-2.714l-0.836-1.406l-0.029-0.182l-0.058-0.221l-0.509-0.452
		l-1.812-0.595l-0.62-1.156l-0.162-0.482l-0.199-0.462l-0.204-0.905l-0.773-0.108l-3.46,0.777l-0.54-0.128l-0.56-0.079l-0.276,0.025
		l-0.758,0.202l-1.141,0.443l-0.269,0.029l-0.267-0.01l-0.206-0.108l-0.141-0.177l-0.102-0.236l-0.044-0.266l-0.01-0.295
		l0.063-0.418l0.291-0.615l0.625-1.033l1.648-1.495l1.161-0.797l0.698-0.757l2.704-4.392l-1.873-0.821l-0.359-0.212l-0.155-0.123
		l0.162-0.777l2.474-4.108l4.313-1.54l0.09-0.049l2.469-0.03l0.86,0.138l0.22,0.113l0.274,0.084l0.351-0.079l0.305-0.098
		l1.177-1.294l1.134-0.133l0.523-0.187l0.354-0.315l0.284-0.379l0.211-0.773l-0.419-2.101l-0.184-2.475l-0.252-0.837l-0.351-0.536
		l-1.875-2.136l-0.191-0.133l-0.424-0.226l-0.795-0.561l-0.819-0.728l-0.354-0.428l-0.213-0.379l-1.32-4.529l11.746,5.316
		l4.117,1.949l5.655,2.687l9.193,4.301l2.454,0.895l13.518,0.108l9.932,0.231l1.883,0.379l-0.223,0.369l-1.158,1.697l-0.741,1.555
		l-0.31,1.682l0.138,2.096l1.083,3.374l0.242,1.731l-0.625,1.643l-3.998,5.011l-2.832,3.447l-0.739,1.18l-2.108,5.368l-5.427,6.537
		l-1.306,2.673l-0.317,2.909l0.204,0.899l0.194,1.174l0.567,1.287l0.174,0.261l0.3,0.324l0.199,0.275l0.601,1.253L526.913,196.09z"
		/>
</g>
<g id="Copyright">
	<text transform="matrix(1 0 0 1 681.6426 577.5916)" class="st1 st2">© Vemaps.com</text>
</g>
</svg>
