<svg xmlns="http://www.w3.org/2000/svg" xmlns:xlink="http://www.w3.org/1999/xlink" version="1.1" width="256" height="256" viewBox="0 0 256 256" xml:space="preserve">

<defs>
</defs>
<g style="stroke: none; stroke-width: 0; stroke-dasharray: none; stroke-linecap: butt; stroke-linejoin: miter; stroke-miterlimit: 10; fill: none; fill-rule: nonzero; opacity: 1;" transform="translate(1.4065934065934016 1.4065934065934016) scale(2.81 2.81)" >
	<circle cx="45" cy="45" r="45" style="stroke: none; stroke-width: 1; stroke-dasharray: none; stroke-linecap: butt; stroke-linejoin: miter; stroke-miterlimit: 10; fill: rgb(255,255,255); fill-rule: nonzero; opacity: 1;" transform="  matrix(1 0 0 1 0 0) "/>
	<circle cx="45" cy="45" r="40" style="stroke: none; stroke-width: 1; stroke-dasharray: none; stroke-linecap: butt; stroke-linejoin: miter; stroke-miterlimit: 10; fill: rgb(0,0,0); fill-rule: nonzero; opacity: 1;" transform="  matrix(1 0 0 1 0 0) "/>
	<path d="M 72.126 51.346 V 38.654 h -5.092 v 3.831 h -1.89 h -3.002 v 0.074 c -0.414 -2.933 -1.551 -5.634 -3.243 -7.903 l -0.001 0 l 2.123 -2.123 l 1.336 -1.336 l 2.709 2.709 l 3.601 -3.601 l -8.974 -8.974 l -3.601 3.601 l 2.709 2.709 l -1.336 1.336 l -2.123 2.123 l 0 0 c -2.268 -1.691 -4.968 -2.828 -7.9 -3.242 h 0.071 v -3.003 v -1.889 h 3.831 v -5.092 H 38.654 v 5.092 h 3.831 v 1.889 v 3.002 h 0.077 c -2.934 0.414 -5.636 1.551 -7.906 3.243 l 0 0 l -2.123 -2.123 l -1.336 -1.336 l 2.709 -2.709 l -3.601 -3.601 l -8.974 8.974 l 3.601 3.601 l 2.709 -2.709 l 1.336 1.336 l 2.123 2.123 l 0 0 c -1.691 2.268 -2.828 4.968 -3.242 7.9 v -0.07 h -3.003 h -1.89 v -3.831 h -5.092 v 12.691 h 5.092 v -3.831 h 1.89 h 3.002 v -0.077 c 0.414 2.934 1.551 5.636 3.243 7.906 l 0.001 0 l -2.123 2.123 l -1.336 1.336 l -2.709 -2.709 l -3.601 3.601 l 8.974 8.974 l 3.601 -3.601 l -2.709 -2.709 l 1.336 -1.336 l 2.123 -2.123 c 2.268 1.69 4.967 2.827 7.898 3.242 h -0.069 v 3.003 v 1.889 h -3.831 v 5.092 h 12.691 v -5.092 h -3.831 v -1.889 v -3.002 H 47.44 c 2.933 -0.414 5.634 -1.551 7.903 -3.243 l 0 -0.001 l 2.123 2.123 l 1.336 1.336 l -2.709 2.709 l 3.601 3.601 l 8.974 -8.974 l -3.601 -3.601 l -2.709 2.709 l -1.336 -1.336 l -2.123 -2.123 l 0 0 c 1.69 -2.268 2.827 -4.967 3.242 -7.898 v 0.069 h 3.003 h 1.89 v 3.831 H 72.126 z M 46.673 57.765 c -8.419 1.061 -15.499 -6.019 -14.438 -14.438 c 0.723 -5.736 5.355 -10.369 11.091 -11.092 c 8.419 -1.061 15.499 6.019 14.438 14.438 C 57.042 52.409 52.41 57.042 46.673 57.765 z" style="stroke: none; stroke-width: 1; stroke-dasharray: none; stroke-linecap: butt; stroke-linejoin: miter; stroke-miterlimit: 10; fill: rgb(255,255,255); fill-rule: nonzero; opacity: 1;" transform=" matrix(1 0 0 1 0 0) " stroke-linecap="round" />
</g>
</svg>