<?xml version="1.0" encoding="utf-8"?>
<!-- Generator: Adobe Illustrator 23.0.1, SVG Export Plug-In . SVG Version: 6.00 Build 0)  -->
<svg version="1.1" xmlns="http://www.w3.org/2000/svg" xmlns:xlink="http://www.w3.org/1999/xlink" x="0px" y="0px"
	 viewBox="0 0 800 600" style="enable-background:new 0 0 800 600;" xml:space="preserve">
<style type="text/css">
	.st0{fill:#808080;stroke:#FFFFFF;stroke-width:0.5;stroke-linecap:round;stroke-linejoin:round;}
	.st1{font-family:'Roboto-Regular';}
	.st2{font-size:14px;}
</style>
<g id="Cuba">
	<path class="st0" d="M704.179,421.404l0.004-5.411l-2.879,0.002l0.128-0.344l0.37-0.354l1.005-0.69l0.888-0.166l0.817-1.546
		l0.361-0.856l-0.407-0.697l-0.111-1.876l-1.393,0.272l-0.656,0.988l-0.426,0.758l-0.492,0.889l-0.549-0.339l-0.72-0.38
		l-1.032,0.407l-0.412,0.862l-0.131,0.711l0.225,0.764l0.368,0.112l0.449,0.111l0.276-0.069l0.181-0.261l0.145-0.308l0.142,0.335
		l0.29,0.75l-0.83,0.474l-0.073,0.518l-1.277-0.006l-3.428,2.423l-0.266,2.721l-3.544,0.859l-6.665,0.415l-0.002-0.003l-4.149-5.84
		l-1.472-1.379l-0.428-0.517l-0.902-1.503l-0.313-1.099l-0.095-2.702l0.928-0.399h0.216l0.285-0.179l0.811-1.011l1.619-0.811
		l0.191-0.258l0.113-0.395l-0.055-0.649l-0.168-0.326l-0.43-0.243l-0.285-0.023l-0.207-0.056l-0.175-0.151l-0.212-0.83l0.048-1.936
		l-0.652-0.473l-0.125-0.147l-0.058-0.105l-0.348-0.97l-0.164-0.311l-0.346-1.049l-0.391-1.744l-0.035-0.465l0.073-0.328l0.308-0.59
		l0.18-0.273l0.184-0.171l0.225-0.175l0.148-0.158l0.115-0.394l0.096-2.354l-0.168-1.203l-0.723-1.489l-0.274-0.622l0.124-0.205
		l0.327-0.283l0.861-0.347l0.78-0.496l0.79-0.651l0.686-1.048l0.271-0.588l0.087-0.475l0.009-0.36l0.048-0.266l0.117-0.236
		l0.184-0.087l0.346,0.075l0.251,0.119l0.64,0.226l0.336-0.064l0.284-0.226l0.317-0.613l0.636-0.521l0.78-0.211l1.319-0.938
		l0.518-0.094l0.445,0.14l0.29,0.272l0.651,0.445l0.375,0.368l0.24,0.402l0.09,0.124l0.458,0.419l0.606,0.383l0.299,0.119
		l0.309-0.032l1.253-0.617l0.255-0.028l0.249,0.175l0.101,0.221l0.997,0.756l0.622-1.113l0.212-2.196l0.173-0.407l0.917-0.841
		l1.55-0.911l0.456-0.117l0.355,0.074l0.571,0.485l0.334,0.072l0.428-0.066l1.264-0.689l1.573-0.6l0.438-0.111l0.377,0.042
		l0.419,0.357l1.941,2.079l1.52,1.249l2.217,0.187l1.853,1.309l0.447,0.087l0.274-0.074l0.064-0.266l0.004-0.204l-0.051-0.202
		l-0.085-0.211l-0.173-0.323l-0.254-0.319l-0.405-0.339l-0.543-0.059l-0.08-0.026l-0.014-0.113l0.035-0.23l0.143-0.515l-0.016-0.189
		l-0.076-0.213l-0.27-0.572l0.15-0.14l0.371-0.115l1.847-0.274l0.633,0.06l0.663,0.357l2.303,1.675l2.499,1.173l0.755,0.456
		l0.698,0.517l0.917,0.424l0.43,0.104l0.274-0.125l0.101-0.234l0.074-0.417l0.106-0.294l0.099-0.221l0.187-0.208l0.191-0.143
		l2.768-1.134l-0.578-1.956l0.09-1.421l0.382-1.144l0.346-0.693l0.488-0.719l0.364-0.423l0.52-0.459l0.246-0.121l0.281-0.032
		l0.539,0.013l0.21-0.049l0.228-0.138l0.674-0.534l0.861-0.453l0.365,0.28l2.486,0.823l0.239,0.972l1.32,1.064l3.112,1.997
		l0.543,0.654l0.738,1.533l2.168,3.018l0.518,0.321l0.225,0.475l3.349,3.531l0.632,0.318l0.935,0.119l1.492,0.445l1.837,1.131
		l1.525,1.481l0.557,1.514h0.507l0.916-1.021l1.386,0.006l1.52,0.38l1.319,0.095l1.144-0.51l1.194-0.751l1.303-0.615l1.453-0.116
		l0.849,0.282l0.679,0.466l1.361,1.244l2.33,1.496l0.83,1.039l0.54,1.228l0.312,1.35l0.15,1.403l-0.621,1.602l-1.434,0.878
		l-1.448,0.575l-0.958,1.005l-1.386,0.804l-0.462,0.157l-0.356,0.391l-0.387,2.597l-2.152,1.921l-2.539-0.074l-2.878-0.747
		l-3.173-0.107l-4.306,0.901l-2.903,0.222l-5.618,1.309l-2.612-0.501l-2.157,0.9l-4.306-0.702l-5.152,0.898l-1.68,0.161L721.761,412
		l-1.172,0.995l-1.063,1.147l-1.172,0.942l-1.52,0.394l-1.607,0.033l-0.945,0.165l-0.56,0.592l-0.414,1.514l-1.116,1.745
		l-2.204,0.834l-2.435,0.289l-0.367-0.857l-0.492-0.262l-0.362,0.099l-0.196,0.527l0.003,0.692l-1.741,0.562L704.179,421.404z"/>
	<path class="st0" d="M482.651,373.473l0.482,1.427l-0.156,1.008l-0.727,0.241l-1.253-0.907l-0.799-0.446l-1.019-0.297l-0.871-0.428
		l-0.902-1.986l-1.236-0.877l-2.436-1.228l0.974-0.767l1.075,0.25l0.997,0.761l0.735,0.755l1.01,1.374l0.632,0.571l1.158,0.55
		l0.189-1.139l0.629-0.235l0.802,0.446L482.651,373.473z M475.603,360.947l-0.888,1.051l-3.19,0.759l-1.099,0.738l-1.094-0.595
		l-1.203-0.363l0.835-0.625l2.383-0.539l0.985-0.878l0.367,0.146l0.011,0.071l0.134,0.235l0.724-0.381l0.69-0.042L475.603,360.947z
		 M530.467,263.35l0.521,0.901l0.15,0.91l-0.184,1l-1.478,3.323l0.212,0.711l0.779,1.215l-1.058,0.039l-0.813,0.321l-1.442,1.107
		l0.323-1.32l-0.44-0.6l-0.735,0.228l-0.551,1.189l0.184,0.228l0.292,0.486l0.05,0.522l-0.526,0.321l-0.395-0.099l-0.256-0.351
		l-0.223-0.45l-0.841-1.161l-0.328-0.693l-0.42-0.666l-0.849-0.657l-0.974,0.468l-1.47-0.315l-1.464-0.702l-0.952-0.705
		l-0.173-0.642l0.27-0.781l0.401-0.826l0.2-0.775l-0.326-0.531l-0.74-0.354l-1.308-0.375l0.345,0.634l0.134,0.637l-0.109,0.637
		l-0.37,0.616l-0.468-1.513h-0.423l-0.693,1.054l-1.119,0.297l-1.044-0.441l-0.459-1.183l-0.593-0.88l-1.18-0.958l-0.866-1.232
		l0.348-1.7l-0.507-0.499l1.319,0.036l0.952,0.613l0.863,0.781l1.066,0.535l1.119,0.027l0.771-0.393l0.657-0.571l0.763-0.529
		l1.175-0.345l0.958,0.072l0.83,0.333l0.777,0.445l0.259,0.312l0.635,0.991l0.292,0.21l0.587-0.156l0.985-0.694l0.512-0.159
		l0.746,0.336l2.196,1.448l0.793,0.276l0.885-0.487l0.562-0.625l0.665-0.069L530.467,263.35z M515.903,248.13l0.512-0.993
		l-0.76-1.113l-1.216-0.957l-0.835-0.518l1.681-0.274l1.498,1.225l1.08,1.829l0.868,3.173l1.066,1.236l1.239,1.136l0.98,1.311
		l-1.642,0.042l-1.737-1.831L515.903,248.13z M505.625,256.476l-0.468-1.1l-2.182-1.563l-0.663-1.143l1.113-0.418l0.888-0.953
		l0.585-1.212l0.217-1.2l0.097-2.683l-0.239-0.836l-0.752-1.273l1.036,0.163l1.061,0.361l0.838,0.659l0.34,1.041l-0.39,0.68
		l-0.74,0.743l-0.473,0.92l0.409,1.212l0.601,0.259l1.687-0.244l0.816,0.262l0.473,0.662l0.312,0.752l0.49,0.553l1.016,0.099
		l-0.894-0.55l0.273-0.469l0.303-0.406l0.351-0.343l0.392-0.298l0.512,0.896l0.682,0.448l0.671-0.111l0.512-0.773l0.546,1.266
		l-0.743,0.547l-1.244,0.28l-0.935,0.472l0.791,0.214l0.587,0.433l0.498,0.487l0.501,0.382l0.724,0.246l1.409,0.295l0.713,0.466
		l-1.539,3.092l-1.022,1.244l-0.752-0.763l-0.312,0.144l-0.788,0.216l-0.301,0.15l-0.22-0.568l-0.181-0.31l-0.535-0.637
		l-0.292-1.485l-1.445-0.517l-1.15,0.595l0.596,1.866l-0.882-0.397l-2.405-1.445L505.625,256.476z M491.996,243.039l1.448-0.921
		l-0.651-1.228l-1.389-0.722l-0.768,0.62l-0.086,0.689l-0.264,0.767l-0.451,0.479l-0.637-0.19l-0.429-0.785l-0.033-0.924
		l0.315-0.578l0.61,0.265l0.017-1.288l-1.086-1.469l-1.603-0.704l-1.531,0.982l-0.348-0.382l-0.309-0.087l-0.328,0.015l-0.415-0.093
		l0.949-1.192l1.347-0.373l2.416,0.051l2.199-0.876l0.955-0.045l0.543,0.921l1.364-0.762l1.748,0.452l1.72,1.123l1.281,1.25
		l0.657,0.918l0.596,1.093l0.443,1.156l0.267,2.456l0.315,0.77l1.459,1.643l0.582,0.015l0.949,0.37l0.846,0.12l-1.141,1.137
		l-1.637-0.457l-3.335-2.196l-1.492-0.292h-1.654l-1.726-0.361L491.996,243.039z M499.843,261.245l0.137,0.045l1.01-0.354
		l0.649,0.703l0.908,1.94l1.303,1.243l0.373,0.501l0.451,1.348l1.23,2.183l0.548,0.711l0.81,0.288l0.824,0.582l3.143,3.244
		l0.234,0.609l1.161,2.142l0.476,0.522l0.821-0.123l0.39-0.738l0.326-5.509l0.376-0.729l0.752-0.324l1.837,0.3l1.102,0.024
		l-0.607,0.765l-2.188,0.396l-0.473,0.63l0.095,1.314l0.273,0.99l0.437,0.783l0.593,0.711l0.785,0.741l0.596,0.282l1.681-0.018
		l0.738,0.492l0.518,1.14l0.298,1.269l0.1,0.873l0.251,0.9l0.637,0.639l0.902,0.441l1.937,0.624l0.384,0.069l1.005-0.489
		l0.582,0.309l0.551,0.513l0.585,0.264l4.159-0.633l1.194,0.135l1.147,0.54l3.056,1.972l0.039-1.019l0.535-0.513l1.762-0.483
		l0.109,0.731l0.401,0.372l0.626,0.084l0.777-0.132l-0.142-0.276l-0.175-0.528l-0.15-0.252l0.963,0.318l0.916,0.755l1.386,1.487
		l-0.983,0.132l-0.679-0.414l-0.429-0.033l-0.239,1.277l0.159,1.349l1.002,2.298l0.237,1.174l0.365,0.755l0.877,0.288l2.071,0.264
		l1.631,0.874l0.451,0.126l0.657-0.153l0.342-0.344l0.187-0.347l0.198-0.156l-0.025-0.401l-0.409-0.881l-0.651-0.881l-1.779-0.809
		l-0.735-0.983l-0.844-2.172l-0.384-1.711l-0.315-0.504l-0.47-0.285l-1.35-0.558l-0.278-0.213l-0.092-0.773l-0.348-1.007
		l-0.707-0.543l-1.191,0.612l-0.977-1.052l-0.927,0.863l-0.969-0.612l-1.843-2.309l-2.572-2.22l-0.724-1.14l-0.468-0.126
		l-0.946,0.462l0.582-1.26l1.088-1.326l1.25-0.852l1.069,0.168l2.38,2.016l0.256,0.603l0.437,1.863l0.242,0.39l7.266,5.305
		l1.395,0.686l3.482,1.091l0.977,0.695l0.972,0.998l2.316,1.903l0.919,0.345l4.028,3.059l1.01,0.518l0.952,0.302l1.019,0.006
		l1.225-0.324l-0.532,1.39l0.37,0.889l0.69,0.644l0.407,0.641l-0.239,1.461l-1.645,1.781l-0.451,1.278l-0.601-0.398l-1.183-1.326
		l-0.337-0.281l-4.401-2.054l-1.113-0.329l-1.283-0.132l0.036,0.132l-0.17,0.27l-0.225,0.255l-0.109,0.075l-0.147,0.266
		l-0.345-0.111l-0.401-0.249l-0.61-0.278l-0.743-0.677l-0.596-0.228l-1.576,0.132l-0.551,0.728l0.226,0.808l0.777,0.386l0.793,0.189
		l0.568,0.431l0.526,0.503l0.635,0.38l0.679,0.159l1.918-0.159l1.344,0.563l0.351,1.221l-0.496,1.221l-1.2,0.557l-0.192,0.604
		l0.434,1.323l0.596,1.277l0.306,0.494l0.774,0.153l1.531-0.254l1.086,0.126l-0.546,1.298l0.674-0.182l1.704-0.865l0.064-0.087
		l0.649-0.377l0.646-0.087l0.601-1.113l0.843-3.908l1.729-3.296l0.562-0.719l1.297-0.236l1.255,0.766l7.341,9.056l1.086,0.999
		l0.134,0.096l-0.164,0.144l-0.559,0.541l-1.087,0.439l-1.948,1.531l-0.868,0.403l-1.856,0.467l-1.225,0.057l-1.589-0.389
		l-1.354-0.158l-1.085,3.364l-0.569,0.678l-0.415,0.953l-0.058,0.689l0.304,1.205l0.332,0.431l0.308,0.216l2.62-0.015l0.398,0.106
		l0.138,0.256l-0.108,0.268l-3.862,3.585l-0.348,0.863l-0.049,0.503l0.301,4.738l-2.492,4.158l-0.445,0.534l-0.884,0.769
		l-0.444,0.142l-2.001,0.432l-0.343,0.15l-0.64,0.405l-0.811,0.388l-0.962,1.353l-1.973,4.755l-0.564,0.284l-0.562-0.165
		l-0.408-0.204l-0.686-0.665l-0.322-0.237l-0.318-0.074l-0.414,0.214l-0.452,0.371l-0.704,1.528l-0.688-0.717l-0.216-0.488
		l0.009-0.229l0.048-0.208l0.454-0.691l0.055-0.197l-0.021-0.167l-0.141-0.193l-0.334-0.108l-0.578-0.106l-1.142-0.087l-1.197-0.311
		l-0.156-0.15l-0.057-0.186l0.032-0.436l-0.058-0.337l-0.138-0.337l-0.594-0.915l-0.207-0.231l-0.29-0.388l-0.111-0.19l-0.078-0.182
		l-0.034-0.154l-0.106,0.011l-0.231,0.161l-0.47,0.574l-0.99,0.491l-0.244,0.178l-0.133,0.241l0.009,0.426l0.048,0.318l0.159,0.555
		l-0.005,0.1l-0.281,0.64l-0.072,0.506l-0.217,0.509l-0.449,0.579l-1.245,0.25l-0.919,0.097l-0.877-0.062l-0.178,0.006l-0.179,0.237
		l-0.191,1.072l-0.99,0.148l-1.386,0.409l-0.689,0.384l-0.364,0.986l0.003,0.926l-0.134,0.225l-0.214,0.182l-0.521-0.062
		l-0.354-0.083l-0.778-0.051l-0.377-0.062l-0.26-0.227l-0.346-0.466l-0.267-0.454l-0.377-0.515l-0.378-0.163l-0.453,0.079
		l-0.527,0.367l-0.002,0.583l0.111,0.471l0.06,0.466l-0.046,0.42l-0.288,1.185l-0.069,0.572l-0.011,0.515l0.041,0.424l-0.543,0.392
		l-1.036,0.424l-4.173,0.81l-1.616-0.112l-3.553,5.043l-0.916,5.972l-0.001,0.009l-0.662-0.197l-2.511-0.286l-1.487,0.357
		l-1.022,0.798l-0.868,0.839l-1.038,0.506l-4.448,0.131l-2.33-0.607l-0.738-1.571h-0.512l-0.42,1.048l-2.246-2.667l-0.813-0.375
		l-1.492-0.304l-0.824-0.795l-1.208-2.355l-0.724-0.828l-1.261-1.161l-1.386-0.87l-1.086,0.042l-0.735,0.405l-0.248-0.375
		l-0.039-0.685l-0.128-0.524l-0.821-0.995l-0.434-0.697l-0.186-0.623l-0.496-1.058l-4.832-3.538l-0.935-0.265l-2.402,0.131
		l-0.852-0.492l-0.76-1.109l-1.019-1.95l-0.844-0.838l-2.514-1.939l-0.61-0.072l-0.468-0.686l-0.42-2.506l-0.239-4.769l-0.54-2.054
		l-1.047-2.066l-0.727-2.081l0.443-2.112l0.626,0.741l0.76,0.107l0.64-0.493l0.267-1.057l-0.501-0.753l-2.221-0.744l-0.507-0.532
		l-0.142-1.285l-0.643-2.379l-0.145-1.399l-0.295-1.244l-1.286-2.236l-0.29-1.053l-0.418-2.47l-1.052-2.345l-1.392-2.011
		l-0.921-0.942l0.009-0.004l2.505-1.102l3.567-2.254l0.475-0.416l0.228-0.298l0.801-0.734l0.769-0.466l1.552-0.723l1.172-0.359
		l0.173,0.042l0.15,0.122l0.35,0.434l0.126,0.194l0.14,0.182l0.173,0.086l0.279,0.002l0.375-0.422l0.209-0.314l0.783-2.164
		l0.677-1.811l0.608-0.31l0.373,0.074l1.593,0.105l0.919,0.175l1.282-0.049l0.498-0.091l0.186-0.183l-0.131-0.154l-0.311-0.2
		l-0.219-0.348l-0.101-0.527l0.824-1.242l0.334-0.4l0.43-0.696l0.228-0.141l0.364-0.042l0.166-0.112l0.117-0.27l0.053-0.455
		l-0.023-0.582l-0.062-0.447l-0.355-1.182l-0.223-1.372l0.223-0.411l0.415-0.605l1.029-1.015l0.707-0.432l0.569-0.211l0.295,0.023
		l0.191,0.074l0.111,0.16l0.067,0.244l0.005,0.445l0.097,0.354l0.202,0.377l0.417,0.426l0.228,0.396l1.043,1.445l0.709,0.333
		l0.942,0.038l2.662-0.36l0.387-0.147l-0.025-0.247l-0.286-1.504l0.009-0.295l0.106-0.206l0.212-0.204l0.985-0.522l0.856-0.626
		l-1.374-2.333l-1.165-1.213l-3.352-2.831l-0.251-0.257l-0.415-1.29l0.79-2.144l0.359-0.217l0.475-0.233l0.465-0.017l0.408-0.07
		l1.112-0.358l1.064-0.025l0.841-0.173l0.589-0.309l0.76-0.543l1.653-1.741l1.218-1.041l0.797-0.45l0.917-0.332l0.387-0.273
		l0.249-0.343l0.251-0.784l0.064-0.427l-0.014-0.427l-0.134-0.389l-0.148-0.275l-0.582-0.372L499.843,261.245z M465.646,365.655
		l0.22,0.289l0.014,0.675l-0.507,0.351l-0.568,0.054l-0.479-0.173l-0.365-0.363l-0.37-0.25l-0.114-0.315l0.298-0.202l0.34,0.173
		l1.651,0.318l-0.053-0.247l-0.039-0.119L465.646,365.655z M460.869,365.411l0.54,0.122l0.949,0.324l-0.098,0.417l-1.047,0.062
		l-0.663-0.455l0.1-0.387L460.869,365.411z"/>
	<path class="st0" d="M448.893,358.953l1.336-0.292l1.442,0.604l2.402,1.682l-1.178,1.006l-1.662-0.562l-1.537-1.283
		L448.893,358.953z M442.101,354.957l3.368-0.101l1.236,0.709l0.788,1.932h-0.509l-1.164-0.858l-4.799-0.569l-1.553-1.572
		l0.835-1.263l0.676-0.602l0.651,0.048l0.317,0.572l0.134,0.759L442.101,354.957z M435.303,349.187l0.799,0.322l1.612,0.194
		L439,350.15l-0.192,1.078l-0.599,1.037l-0.42,0.408l-0.192-0.468l-0.234-0.274l-1.629-0.429l-3.441-2.264l-0.727-0.828l0.874-0.137
		l1.247,0.083l1.13,0.313L435.303,349.187z M431.993,346.914l-0.342-0.042l-1.058,0.042l0.189,0.411l0.278,1.085l-1.94-0.992
		l-1.294-1.189l-2.372-2.772v-0.546l1.191,0.462l0.88,0.835l0.777,0.948l0.888,0.799l-0.896-1.469l-1.514-1.899l-1.726-1.482
		l-1.509-0.197v0.546l0.228,0.259l0.061,0.143l0.044,0.182l0.178,0.373l-0.779-0.236l-0.668-0.394l-0.54-0.566l-0.395-0.757
		l2.895-0.158l3.04,1.858l2.65,2.611L431.993,346.914z M410.422,331.851l2.16-0.319l1.74,1.056l2.686,2.817l-1.052,0.439
		l-1.147,0.036l-1.091-0.337l-0.916-0.683l0.459,0.039l1.409-0.039l-0.298-0.791l-0.504-0.501l-0.565-0.104l-0.501,0.394
		l-1.787-1.316L410.422,331.851z M476.285,233.167l-1.333,0.593l-1.854,0.253l-3.098-0.069l-1.559-0.473l-1.874-1.319l-2.825-0.53
		l-1.976-0.633l-1.203-0.823l0.985-0.816l-1.052-1.172l-1.395,1.058l-1.111,0.606l-0.178-2.513l0.251,0.202l0.64,0.304l0.234-1.468
		l0.624-0.157l0.727,0.344l0.537,0.015l0.746-0.124l3.034,0.63l1.665,1.067l1.926,0.154l1.946-0.154l1.723,0.148l1.668-0.102
		l1.086-0.88l0.938-1.013l1.216-0.485l1.553,0.16l1.64,0.464l1.392,0.778l0.785,1.079l-0.251-0.102l-0.64-0.353l0.306,0.997
		l4.576,4.715l0.256,0.651l-0.206,0.732l-0.493-0.009l-0.615-0.31l-0.554-0.16l-8.493,1.973v-0.455l0.145-0.226l0.173-0.187
		l0.134-0.301l0.059-0.572l0.2-0.277l0.451,0.036l0.47,0.099l0.281-0.09l0.058-0.696l-0.239-0.714l-0.562-0.334L476.285,233.167z
		 M442.009,237.892l6.739,0.771l3.204-0.169l0.351,0.744l1.306,4.307l0.248-0.187l0.643-0.319l0.685,0.957l0.635-0.59l1.058-2.344
		l-0.874-1.243l-0.468-0.476L454.967,239v-0.506l2.032,0.274l2.185,2.212l7.474,2.66l0.96,0.68l0.585,0.945l1.361,1.167l1.57,1.065
		l1.197,0.632l1.634,0.496l4.117,0.707l1.258-0.192l-0.031,0.496l0.067,1.029l-0.036,0.496l0.704-0.349l0.27-0.201l0.462,0.737
		l0.64,1.413l0.496,0.646l0.618,0.469l1.225,0.64l0.532,0.451l0.532,0.295l0.674,0.012l0.715-0.072l0.649,0.042l2.338,0.959
		l1.063,0.297l3.391,0.253l0.596,0.316l0.134,0.73l0.056,0.838l0.362,0.634l0.565,0.144l1.754-0.021l-0.225,0.111l-0.225,0.276
		l0.718,0.676l0.849,0.328l0.885,0.204l0.726,0.255l-0.115,0.655l0.582,0.372l0.148,0.275l0.134,0.389l0.014,0.427l-0.064,0.427
		l-0.251,0.784l-0.249,0.343l-0.387,0.273l-0.917,0.332l-0.797,0.45l-1.218,1.041l-1.653,1.741l-0.76,0.543l-0.589,0.309
		l-0.841,0.173l-1.064,0.025l-1.112,0.358l-0.408,0.07l-0.465,0.017l-0.475,0.233l-0.359,0.217l-0.79,2.144l0.415,1.29l0.251,0.257
		l3.352,2.831l1.165,1.213l1.374,2.333l-0.856,0.626l-0.985,0.522l-0.212,0.204l-0.106,0.206l-0.009,0.295l0.286,1.504l0.025,0.247
		l-0.387,0.147l-2.662,0.36l-0.942-0.038l-0.709-0.333l-1.043-1.445l-0.228-0.396l-0.417-0.426l-0.202-0.377l-0.097-0.354
		l-0.005-0.445l-0.067-0.244l-0.111-0.16l-0.191-0.074l-0.295-0.023l-0.569,0.211l-0.707,0.432l-1.029,1.015l-0.415,0.605
		l-0.223,0.411l0.223,1.372l0.355,1.182l0.062,0.447l0.023,0.582l-0.053,0.455l-0.117,0.27l-0.166,0.112l-0.364,0.042l-0.228,0.141
		l-0.43,0.696l-0.334,0.4l-0.824,1.242l0.101,0.527l0.219,0.348l0.311,0.2l0.131,0.154l-0.186,0.183l-0.498,0.091l-1.282,0.049
		l-0.919-0.175l-1.593-0.105l-0.373-0.074l-0.608,0.31l-0.677,1.811l-0.783,2.164l-0.209,0.314l-0.375,0.422l-0.279-0.002
		l-0.173-0.086l-0.14-0.182l-0.126-0.194l-0.35-0.434l-0.15-0.122l-0.173-0.042l-1.172,0.359l-1.552,0.723l-0.769,0.466
		l-0.801,0.734l-0.228,0.298l-0.475,0.416l-3.567,2.254l-2.505,1.102l-0.009,0.004l-0.507-0.518l-1.116-0.754l-1.069-0.401
		l-3.627-0.569l-0.844-0.272l-0.326-0.548l0.443-1.015l0.774,0.446l0.868,0.147l1.882-0.045l0.273-0.335l-0.348-0.754l-0.86-1.174
		l-0.473-0.44l-0.702-0.512l-1.414-0.809l-1.002-0.299l-0.496,0.066l-0.448,0.299l-0.855,0.392l-3.171,0.737l-3.182,0.314
		l-0.34,0.135l-0.387,0.332l-0.309,0.404l-0.128,0.362l-0.228,0.275l-0.529,0.063l-2.093-0.126l-0.83-0.177l-0.735-0.057
		l-0.335-1.528l-0.199-2.25l0.199-1.929l-0.398-0.965l-1.494-1.072l-1.693-0.751l-0.996,1.501v1.179l-0.797,0.965l-1.992,0.857
		h-1.892l-0.598-0.857l0.398-1.286l0.299-2.037l-0.498-1.179l-1.096-1.716l0.498-1.18l1.494-3.218l0.697-2.897l0.697-1.61
		l0.996-1.932l0.797-1.61l0.398-1.503l0.797-0.537l1.096,0.107l0.996,0.215l0.398-0.859l1.195-1.826l0.996-1.826v-1.719
		l-0.299-1.289l-0.896-0.43l-1.494-0.752l-2.092-1.72l-1.096-0.967l-0.1-1.505l0.996-2.366l-0.1-2.043l0.896-0.861l0.598-1.721
		l0.896-1.614l0.996-1.722l0.697-1.399l0.598-2.368l0.697-1.507l0.398-0.861l0.598-0.538l0.498-0.538l0.199-2.262L442.009,237.892z
		 M454.975,226.812l0.153-0.211l0.49,0.247l-0.039,0.464l-0.504,0.82l-0.175,0.464l-1.247,0.428l-0.615-0.018l-0.131-0.476
		l-0.017-1.218l0.406-0.139l0.952,0.277l0.643-0.09L454.975,226.812z"/>
	<path class="st0" d="M675.304,355.952l0.61,0.563l0.985,1.867l0.551,0.822l0.242,0.881l-1.278-0.012l-2.274-0.619l-1.214-0.19
		l-1.075-0.569l-0.699-0.932l-0.05-1.31l3.374-0.613L675.304,355.952z M620.815,322.41l1.592,1.335l0.986,0.636l7.266,2.78
		l2.18,1.463l0.301,1.725l0.234,0.597l-0.05,1.57l0.284,0.883l0.671,0.779l0.473-0.054l0.685-0.725l1.097-0.618l0.763-0.179
		l0.985,0.251l0.696,0.421l0.484,0.525l0.259,0.683l0.003,0.922h0.429l0.136-0.352l0.217-0.364l0.15-0.331l0.468,1.128l0.585,0.248
		l0.409-0.57l-0.058-1.307l0.576,0.098l1.829,0.042l0.86-0.14l0.429-0.286l1.066-0.964l0.587-0.203l0.852,0.039l0.857,0.176
		l0.66,0.37l0.568,1.28l0.576,0.11l0.359-0.316l-0.348-0.662l3.53-2.548l0.376,0.089l1.027,0.466l0.209,0.197l0.287,0.555
		l0.665,0.03l1.194-0.337l2.363-0.003l1.935,0.316l1.347,1.164l0.612,2.53l2.7-0.57l1.556,1.011l2.372,3.606l-1.4,3.005l-0.404,0.51
		l-0.766,0.635l-0.278,0.402l-0.125,0.471l-0.153,1.094l-0.148,0.432l-0.585,0.837l-0.949,0.962l-1.122,0.682l-1.122-0.027
		l-0.34-0.703l-0.256-1.109l-0.42-0.709l-0.852,0.525l-0.56-0.355l-0.451-0.062l-0.401,0.143l-0.412,0.274l0.557,0.083l0.406,0.155
		l0.267,0.301l0.125,0.501l-1.937,0.143l0.042,0.894l0.885,1.254l0.59,1.257h0.42l0.766-1.156l1.804-0.542l2.049-0.095l1.495,0.203
		l2.837,1.46l0.437,0.357l0.075,1.016l0.278,0.771l0.573,0.444l0.944-0.003l-0.543,1.745h-0.963l-1.091-0.733l-0.93-0.47
		l-0.512-0.179l-0.223-0.435l-0.156-0.524l-0.301-0.453l-0.501-0.411l-0.217-0.119l-3.747,0.584l-1.325,0.471l-4.482-0.524
		l0.359,0.837l-0.092,0.938l-0.693,1.769l0.053,0.447l-0.061,0.923l-0.189,0.863l-0.312,0.768l0.635,0.643l0.793,1.58l2.636,1.5
		l1.072,0.36l0.468-0.771l0.752-1.592l3.274-2.768l0.688-1.453l1.083,0.875l0.654,1.131l0.139,1.256l-0.473,1.28l1.765-0.22
		l0.637,0.223l-0.301,0.768l-0.114,0.711l0.701,0.5l1.517,0.512l-0.381-1.613l4.031,0.952l1.063-1.333h0.423l0.328,0.405
		l0.448,0.402l0.537,0.375l0.598,0.318l0.51-1.5l-1.13-0.461l-0.599-0.092l-0.693,0.054l0.852-1.14l1.637-0.479l1.787-0.039
		l1.328,0.161l1.203,0.497l1.406,0.896l0.465,0.836l-1.628,0.309l0.596,0.94l0.34,1.012h0.462l0.083-0.315l0.384-0.678l0.585,1.571
		l1.67,0.36l3.864-0.437l-1.191-0.794l-2.589-1.306l-1.356-0.351l0.869-0.94l1.67-0.44l1.801-0.015l1.264,0.354l-0.468-0.548
		l1.047,0.086l3.196,0.67l0.846,0.476l0.231,0.506l-1.116,0.31v0.5l1.91,0.494l0.125-0.149l0.019-0.101l0.061-0.101l0.22-0.143
		l0.799,0.589l1.18-0.315l1.127,0.059l0.632,1.705l0.136-0.39l0.309-0.664l0.061-0.491l0.635,0.491l0.618,0.295l0.579,0.03
		l0.504-0.315l-0.971-0.994l5.501-0.702l1.333,0.452l0.66,0.369l0.693,0.161l0.548,0.274l0.22,0.69l0.487,0.419l1.1,0.027
		l1.684-0.196l1.13,0.821l0.974,0.991l1.258,0.83l5.409,0.642l1.411,0.455l1.069,0.753l-0.693,0.39l-0.284,0.11l0.977,1.746
		l0.045,0.8l0.161,0.202l0.287,0.03l0.443,0.262l0.461,0.35l-0.861,0.453l-0.674,0.534l-0.228,0.138l-0.21,0.049l-0.539-0.013
		l-0.281,0.032l-0.246,0.121l-0.52,0.459l-0.364,0.423l-0.488,0.719l-0.346,0.693l-0.382,1.144l-0.09,1.421l0.578,1.956
		l-2.768,1.134l-0.191,0.143l-0.187,0.208l-0.099,0.221l-0.106,0.294l-0.074,0.417l-0.101,0.234l-0.274,0.125l-0.43-0.104
		l-0.917-0.424l-0.698-0.517l-0.755-0.456l-2.499-1.173l-2.303-1.675l-0.663-0.357l-0.633-0.06l-1.847,0.274l-0.371,0.115
		l-0.15,0.14l0.27,0.572l0.076,0.213l0.016,0.189l-0.143,0.515l-0.035,0.23l0.014,0.113l0.08,0.026l0.543,0.059l0.405,0.339
		l0.254,0.319l0.173,0.323l0.085,0.211l0.051,0.202l-0.004,0.204l-0.064,0.266l-0.274,0.074l-0.447-0.087l-1.853-1.309l-2.217-0.187
		l-1.52-1.249l-1.941-2.079l-0.419-0.357l-0.377-0.042l-0.438,0.111l-1.573,0.6l-1.264,0.689l-0.428,0.066l-0.334-0.072
		l-0.571-0.485l-0.355-0.074l-0.456,0.117l-1.55,0.911l-0.917,0.841l-0.173,0.407l-0.212,2.196L694.226,385l-0.997-0.756
		l-0.101-0.221l-0.249-0.175l-0.255,0.028l-1.253,0.617l-0.309,0.032l-0.299-0.119l-0.606-0.383l-0.458-0.419l-0.09-0.124
		l-0.24-0.402l-0.375-0.368l-0.651-0.445l-0.29-0.272l-0.445-0.14l-0.518,0.094l-1.319,0.938l-0.78,0.211l-1.778-2.428l-1.07-0.934
		l-0.438-0.577l-0.074-0.264l0.286-0.168l0.249-0.207l0.168-0.258l0.108-0.242l0.067-0.245l0.141-0.266l0.17-0.208l0.255-0.151
		l0.461-0.193l0.118-0.104l0.11-0.345l0.223-1.791l-0.037-0.489l-0.138-0.232l-0.631,0.312l-0.346,0.117l-0.279,0.057l-0.845,0.008
		l-2.996,0.568l-1.271-0.402l-1.094-0.88l-0.383-0.096l-0.29,0.072l-0.232,0.198l-0.254,0.147l-0.415,0.138l-0.256,0.13
		l-0.217,0.162l-0.26,0.328l-1.361,1.412l-1.031,0.821l-0.509,0.326l-0.318,0.085l-0.873-0.474l-0.44-0.164l-0.507-0.255
		l-0.152,0.083l-0.191,0.257l-0.092,0.292l-0.014,0.227l0.064,0.228l0.361,0.796l-0.201,0.655l-0.209,0.525l-2.959,2.07l-2.91,0.264
		l-2.176-0.306l-0.765,0.074l-0.552,0.147l-4.944,2.294l-2.162-0.181l-1.145-0.6l-0.249-0.249l-0.096-0.192l-0.095-0.251
		l-0.281-1.181l-1.135-0.3l-2.026-1.387l-0.509-0.428l-0.232-0.306l0.083-0.153l0.175-0.215l0.177-0.302l0.172-0.345l0.064-0.498
		l-0.171-0.191l-0.469-0.087l-0.841,0.013l-1.19-0.109l-0.507-0.21l-0.223-0.283l0.295-0.762l-0.645-1.068l-3.244-2.418
		l-0.933-0.419l-0.173,0.087l-0.15,0.463l0.166,0.627l0.486,1.174l0.055,0.493l-0.163,0.374l-1.225,0.504l-0.339,0.213l-0.87,0.774
		l-1.062,0.713l-0.163,0.249l0.035,0.191l0.242,0.098l0.177,0.232l0.133,0.683l0.453,1.1l-0.18,1.638l-0.423,1.566l-0.141,0.226
		l-1.282,1.23l-0.237-0.562l0.527-1.154l0.065-0.304l-0.042-0.145l-0.341,0.109l-0.311,0.023l-0.348-0.1l-0.62-0.315l-0.529-0.2
		l-0.566-0.125l-0.613-0.021l-1.658,0.094l-1.688-2.683l-2.027-2.078l-0.714-0.489l-0.594-0.304l-1.845-0.434l-1.4-0.657
		l-0.845-0.26l-1.722-0.31l-1.527-0.598l-0.834-0.091l0.385-1.539l-0.06-0.372l-0.203-0.493l-0.253-0.187l-0.233-0.085l-0.196-0.023
		l-0.311,0.072l-0.14,0.098l-0.191,0.17l-0.2,0.111l-0.21,0.011l-0.59-0.259l-2.381-0.729l-3.169-1.89l-1.227-0.55l-3.205-0.772
		l-0.628-0.319l-0.313-0.268l-0.002-0.313l0.111-1.079l-0.041-0.856l-0.076-0.542l-0.396-1.2l-0.748-0.045l-1.842,0.969
		l-0.689,0.149l-0.661-0.047l-0.513-0.176l-0.993-0.212l-0.552-0.238l-0.444-0.376l-0.626-1.064l-0.244-0.183h-0.217l-0.656,0.384
		l-0.674,0.249l-0.511-0.119l-0.382-0.255l-0.288-0.355l-0.332-0.571l0.651-0.244l0.695-0.471l0.189-0.329l0.044-0.444l-0.255-0.718
		l-0.361-0.518l-0.746-0.826l-0.148-0.408l-0.016-0.577l0.101-0.951l0.196-0.668l0.493-0.966l1.25-1.634l0.232-0.702l0.108-1.023
		l-0.065-5.173l0.864-2.506l0.815,0.369l0.681,0.617l0.378,0.261l0.306,0.129l0.412,0.034l0.483-0.04l1.105-0.259l3.609-1.571
		l0.891-0.233l0.642-0.044l0.401,0.151l0.338,0.057l0.468-0.062l0.242-0.21l0.196-1.094l0.815-2.051l1.292-1.328l1.693-1.345
		l0.392-0.216l1.1-0.936l3.039-1.967l1.488-0.625l1.842-1.158l0.37-0.481l0.113-0.461l-0.235-1.313l0.023-0.457l0.357-0.483
		l0.267-0.248l0.353-0.229l0.52-1.225l0.265-4.14L620.815,322.41z"/>
	<path class="st0" d="M274.733,289.071l-0.29,0.171l-2.806,2.588l-5.414,3.639l-2.121,0.928l-2.255,0.213l-0.008-1.428l0.643-0.383
		l1.907,0.305l0.757-0.545l0.643-1.093l0.651-0.836l0.777,0.234l0.896,0.419l0.997-0.266l0.807-0.602l0.334-0.581l0.418-1.261
		l0.985-0.899l2.143-1.381l0.568-0.219l0.412,0.309l0.156,0.456L274.733,289.071z M192.931,294.139l-0.49,0.871l0.551,0.934
		l0.991,0.782l0.813,0.431l-0.693,1.123l-1.406,1.509l-1.587,1.32l-1.236,0.569l-1.283,0.245l-8.738,4.422l-5.225,1.902
		l-4.835,0.532l-0.813-0.302l-0.624-0.691l-4.471-0.084l-0.663-0.212l-1.339-0.592l-0.802-0.2l-2.458,0.048l-0.618-0.299
		l-2.233-2.98l-0.852-0.787l-1.924-1.284l-0.71-0.835l-0.635-1.398l-0.468-2.006l-0.774-1.82l-0.156-0.74h0.462l0.76,0.752
		l3.443,2.536l0.451,1.024l1.075,0.877l1.32,0.614l1.147,0.224h2.828l0.228-0.299l1.915-1.664l1.072-0.718l0.526-0.47l0.225-0.59
		l0.214,0.072l0.354,0.437l0.075,0.748l-0.643,1.024l0.468,0.461l1.236-2.287l-0.348-0.85l-2.038-0.335l-0.804-0.779l-5.871-10.366
		l-0.829-2.926l0.713-3.16l2.898-2.298l0.376-0.954l0.593-0.768l1.378-0.978l1.562-0.801l1.136-0.243l-0.752-0.36l-0.749-0.144
		h-0.79l-0.83-0.42l-0.036-0.144l0.443-0.165l0.635-0.486l8.927,1.089l5.576,1.386l3.836,1.089l1.211,0.537l0.927,0.81l0.373,1.155
		l-0.239,1.365l-0.359,0.9l0.064,0.84l1.002,1.196l3.073,2.518l0.919-0.051l0.679,0.348l0.456,0.818l0.345,0.917l0.362,0.683
		l0.017,0.566l-0.367,0.857l-0.771,1.39h-0.509l0.367,0.62l0.106,0.629l-0.131,0.638l-0.342,0.623l1.545,0.985l0.818,0.392
		l0.949,0.132V294.139z M233.077,293.312l0.518,0.581l0.059,1.3l-1.166,0.985l-2.711,1.006l-1.993,1.009l-0.459,0.126l-0.354,0.239
		l-0.264,0.314l-0.96,0.296l-1.481,0.054l-0.29-0.21l0.827-0.305l1.367-1.146l0.752-0.216l0.64-0.398l0.501-0.572l0.423-0.332
		l1.954-0.764l0.813-0.036l0.768-0.374l0.618-0.605l0.239-0.521l0.083-0.323L233.077,293.312z M241.88,292.15l0.924-0.195
		l0.084,0.377l-1.016,0.824l-1.194,0.767l-2.138,1.755l-1.197,0.012l-0.924-0.958l-0.228-0.988l0.195,0.126l0.729,0.8l1.133-0.123
		l0.919-0.74l0.276-0.44l-0.267-0.027l0.2-0.144l2.049-0.899L241.88,292.15z M187.653,270.709l2.561,1.168l1.133,0.888l-0.802,0.348
		l-1.862,0.09l-1.898-0.837l-0.699-1.258L187.653,270.709z"/>
	<path class="st0" d="M438.109,220.197l-0.387-1.019l-1.002-0.392l-4.1-0.268l-0.696-0.29l-0.863-0.561l1.152-0.163l6.419,0.407
		l1.075,0.621l-0.022,0.818L438.109,220.197z M408.518,232.434l5.128,4.391l2.004,0.952l1.821-0.295l0.693,0.699l1.286,0.93
		l1.244,0.434l0.56-0.798l0.735-0.09l3.583,0.78l1.286,0.018l0.743-0.533l0.148-0.47l0.172-0.331l0.849-0.09l0.693,0.169
		l1.063,0.656l0.791,0.145l1.47-0.214l2.567-0.984l1.314-0.319l1.559-0.024l3.783,0.434l-0.285,1.043l-0.199,2.262l-0.498,0.538
		l-0.598,0.538l-0.398,0.861l-0.697,1.507l-0.598,2.368l-0.697,1.399l-0.996,1.722l-0.896,1.614l-0.598,1.721l-0.896,0.861
		l0.1,2.043l-0.996,2.366l0.1,1.505l1.096,0.967l2.092,1.72l1.494,0.752l0.896,0.43l0.299,1.289v1.719l-0.996,1.826l-1.195,1.826
		l-0.398,0.859l-0.996-0.215l-1.096-0.107l-0.797,0.537l-0.398,1.503l-0.797,1.61l-0.996,1.932l-0.697,1.61l-0.697,2.897
		l-1.494,3.218l-0.498,1.18l1.096,1.716l0.498,1.179l-0.299,2.037l-0.398,1.286l0.598,0.857h1.892l1.992-0.857l0.797-0.965v-1.179
		l0.996-1.501l1.693,0.751l1.494,1.072l0.398,0.965l-0.199,1.929l0.199,2.25l0.335,1.528l-0.727,0.296l-0.465-0.548l-1.175,0.656
		l-1.25,0.293l-2.948,0.057l-1.345,0.237l-3.599,1.772l-2.812,0.757l-2.711,0.236l-2.773-0.254l-5.484-1.598l-1.13-0.698
		l-1.269-1.185l-0.966-0.147l-3.549,0.431l-1.345-0.009l-1.503-0.476l-0.649-0.395l-0.654-0.638l-1.035-1.749l-0.604-0.647
		l-0.267,0.617l-0.206,0.749l-0.512,0.485l-0.682,0.108l-0.685-0.362l-0.649-0.596l-0.395-0.213l-2.931-0.818l-0.404-0.171
		l-0.546-0.464l-0.406-0.686l-0.323-0.83l-0.476-0.701l-0.877-0.294l-4.833-0.126l-4.61-1.339l-1.757,0.027l-0.771,1.186
		l-0.465,1.285l-1.161-0.177l-1.514-0.794l-1.534-0.566v-0.503l1.403-0.548v-0.458l-1.061-0.246l-0.223-0.824l0.067-1.043
		l-0.187-0.902l-1.161,0.857l-1.208,0.372l-1.331,0.015l-1.52-0.243l-1.395-0.509l-0.793-0.183l-0.618,0.147l-0.184,0.521
		l0.434,0.501l0.676,0.363l0.56,0.123l-0.841,0.917l-1.269-0.611l-1.164-1.322l-0.507-1.199l-0.153-1.583l-0.47-1.385l-0.816-0.983
		l-1.169-0.372l-1.142-0.197l0-0.006l0.152-3.062l0.074-0.375l0.247-0.362l0.467-0.518l1.863-1.496l2.462-2.567l2.425-1.136
		l1.28-1.046l0.467-0.128l1.011,0.078l0.348-0.219l0.186-0.375l0.148-0.627l0.26-0.583l0.675-0.867l0.695-0.296l0.652-0.091
		l3.974,0.957l0.498,0.214l0.332,0.255l0.97,0.515l2.042,0.158l1.695-1.458l1.345-2.212l1.128-2.277l0.362-1.366l0.064-0.96
		l-0.267-0.406l-0.299-0.153l-0.401-0.019l-0.345,0.036l-0.302-0.063l-0.212-0.219l-0.242-0.483l-0.309-0.83l-0.997-1.956
		l-0.437-1.273l-0.026-0.767l0.145-0.502l0.746-0.674l2.259,0.055l0.794,0.659l0.253,0.485l0.341,0.504l0.716,0.63l0.714,0.181
		l0.587-0.034l0.497-0.273l0.981-0.662l0.905-0.103l0.635,0.05l2.8,0.857l1.398-0.456l0.926,0.428l0.592,0.401l0.972,0.393
		l0.965-0.118l0.762-0.326l0.615-0.561l0.58-0.788l0.509-1.029l0.35-0.936l0.371-1.321l1.223-1.264l0.817-0.434l1.206-0.449
		l0.838-0.061l0.673,0.158l1.699,0.898l1.764,0.283l0.21-1.329l-0.074-1.173l0.17-0.886l0.271-0.925l-0.053-0.539l-1.941-2.694
		l-2.293-4.603l-0.571-0.931l-0.799-0.621l1.267-2.368l-0.035-1.702L408.518,232.434z M421.668,220.046l0.601-0.244l2.658-0.124
		l-0.883,0.754l-1.138,0.748h-0.468l0.003-0.492l-0.22-0.413L421.668,220.046z"/>
	<path class="st0" d="M412.569,220.197l-0.604-0.124l-0.629-0.287l-0.913-0.6l-1.019-0.914l-2.297-2.583l-1.233,0.459l-1.255-0.151
		l-1.169-0.573l-1.556-1.213l-0.445-0.169l-0.27-0.32l-0.097-0.845l-0.234-0.29l-1.091-0.824l-0.331-0.172l-0.568-0.477
		l-0.351-1.045l-0.593-1.042l-1.292-0.474l-2.032,0.854l-0.91-0.051l-0.114-1.359l1.943-0.601l1.395-0.072l1.133,0.529l3.558,4.046
		l1.481,1.219l3.151,0.981l2.555,2.118l2.8,1.089l1.372,1.436l1.116,1.677l0.601,1.345l-1.551-1.393L412.569,220.197z
		 M375.773,196.338l0.565-0.039l-0.05,0.998l-0.732,0.71l-1.456-0.934l-0.651,0.208l-0.715,1.013l-0.676,0.329l-0.529-1.829
		l0.985-0.602l1.08-0.384l1.111-0.006L375.773,196.338z M346.686,194.307l3.329-1.648l1.514-0.166l1.228,0.801l-0.353,0.212
		l-0.665,0.584l-0.337,0.218l0.624,0.293l0.44,0.432l0.242,0.58l0.05,0.726l-6.89-1.2l-1.047-0.832l0.418-0.336l0.406-0.172
		l0.465,0.082L346.686,194.307z M355.138,184.066l0.429,0.956l0.746,0.829l0.913,0.578l0.946,0.218l1.1,0.039l0.365,0.151
		l-0.195,0.309l-0.568,0.518l-1.37,0.635l-1.389-0.269l-2.889-1.383l0.159-0.76l0.359-0.548l0.451-0.545l0.434-0.73H355.138z
		 M328.04,188.247l2.484,4.508l1.406,0.998l1.086,0.079l2.773,0.538l1.049,0.399l0.646,0.611l0.707,0.868l0.905,0.777l1.244,0.329
		l3.858-0.009l0.852,0.263l1.03,0.91l1.099,0.635l1.139,0.417l1.169,0.272l2.252,0.073l2.121-0.447l4.078-1.608l-0.512-1.771
		l1.152-0.039l3.633,1.823l1.612,0.502l1.37-0.257l0.262-1.778l0.732,0.396l0.749,0.532l0.579,0.641l0.234,0.713l1.548,2.811
		l0.15,0.483l2.589,1.523l0.373,0.061l1.219-0.061l0.473,0.169l0.195,0.363l0.039,0.363l-0.006,0.166l1.42-0.435l2.23-2.118
		l4.201-1.191l0.601,0.145v0.568l-0.643,0.592l-1.269,0.87l-1.57-0.761l-0.76,0.604l-0.894,2.695l0.743,1.154l0.429,0.489
		l0.651,0.429l0.729,0.199l2.817,0.26l1.208,0.411l4.02,2.88l0.217,0.35l0.259,0.32l0.409,0.139l0.379-0.169l0.412-0.365
		l0.303-0.362l0.075-0.163l1.559-0.199l0.587,0.377l1.69,7.511l0.039,0.042l1.024,0.341l0.83,0.428l0.74,0.597l0.771,0.844
		l0.782,1.182l0.938,2.288l0.635,1.082l1.734,1.965l0.387,0.335l1.019,0.196l1.979,0.042l0.785,0.217l1.826,2.833l0.351,0.85
		l0.546,0.464l-0.043,0.077l0.035,1.702l-1.267,2.368l0.799,0.621l0.571,0.931l2.293,4.603l1.941,2.694l0.053,0.539l-0.271,0.925
		l-0.17,0.886l0.074,1.173l-0.21,1.329l-1.764-0.283l-1.699-0.898l-0.673-0.158l-0.838,0.061l-1.206,0.449l-0.817,0.434
		l-1.223,1.264l-0.371,1.321l-0.35,0.936l-0.509,1.029l-0.58,0.788l-0.615,0.561l-0.762,0.326l-0.965,0.118l-0.972-0.393
		l-0.592-0.401l-0.926-0.428l-1.398,0.456l-2.8-0.857l-0.635-0.05l-0.905,0.103l-0.981,0.662l-0.497,0.273l-0.587,0.034
		l-0.714-0.181l-0.716-0.63l-0.341-0.504l-0.253-0.485l-0.794-0.659l-2.259-0.055l-0.746,0.674l-0.145,0.502l0.026,0.767
		l0.437,1.273l0.997,1.956l0.309,0.83l0.242,0.483l0.212,0.219l0.302,0.063l0.345-0.036l0.401,0.019l0.299,0.153l0.267,0.406
		l-0.064,0.96l-0.362,1.366l-1.128,2.277l-1.345,2.212l-1.695,1.458l-2.042-0.158l-0.97-0.515l-0.332-0.255l-0.498-0.214
		l-3.974-0.957l-0.652,0.091l-0.695,0.296l-0.675,0.867l-0.26,0.583l-0.148,0.627l-0.186,0.375l-0.348,0.219l-1.011-0.078
		l-0.467,0.128l-1.28,1.046l-2.425,1.136l0.053-1.004l-0.101-0.154l-1.386-1.062l-0.233-0.635l-0.101-0.707l0.042-1.108
		l-0.108-1.956l-0.173-0.606l-0.369-0.509l-1.273-1.066l-0.461-0.914l-0.359-0.998l-0.718-2.927l-0.042-0.626l0.046-1.456
		l-0.258-2.852l0.079-0.67l0.263-0.617l0.246-0.43l0.746-2.379l-1.718-0.798l-0.838-1.11l-0.601-1.093l-0.375-0.848l-0.186-0.669
		l-0.217-1.655l-0.117-0.262l-0.164-0.142l-0.288-0.061l-0.346,0.034l-1.027,0.317l-0.486,0.038l-0.491-0.092l-0.843-0.445
		l-2.487-2.437l-0.417-0.581l-0.235-0.48l-0.035-0.793l1.301-1.428l0.217-0.971l-0.186-0.321l-0.255-0.287l-0.49-0.258l-0.279-0.532
		l-0.035-0.423l0.111-0.53l0.263-0.647l-0.205-0.754l-1.303-0.74l-0.242-0.379l-0.762-1.793l-0.079-0.643l0.021-0.383l0.21-0.188
		l0.221-0.103l0.272-0.077l0.196-0.101l0.168-0.362l0.101-0.63l0.002-1.309l-0.097-0.486l-0.147-0.218l-0.177,0.144l-0.318,0.364
		l-0.203,0.136l-0.408,0.073l-0.44,0.006l-0.956-0.092l-0.398,0.013l-0.244,0.096l-0.225,0.27l-0.253,0.49l-0.514,1.65l-0.134,0.201
		l-0.217,0.124l-0.376,0.019l-0.53-0.023l-0.371,0.033l-0.316,0.124l-0.762,0.507l-0.442,0.216l-0.774,0.264l-0.373,0.015
		l-0.301-0.101l-0.106-0.165l-0.048-0.203l0.053-0.322l0.338-0.989l0.133-0.695l0.037-1.076l-0.322-0.396l-0.573-0.115l-1.699,0.327
		l-1.635-1.359l-0.352-0.121l-0.574-0.05l-0.329,0.182l-0.258,0.239l-0.186,0.289l-0.838,0.963l-2.841,1.667l-0.986-1.709
		l-0.428-0.469l-0.302-0.739l-0.194-0.75l-0.159-1.457l-0.336-0.578l-0.306-0.347l-0.164-0.308l-0.064-0.544l0.35-3.482
		l-0.032-0.644l-0.111-0.489l-0.311-0.508l-0.497-0.523l-0.117-0.328l0.081-0.424l0.382-0.558l0.64-0.28l0.357-0.213l0.101-0.38
		l-0.182-0.558l-1.032-1.777l-0.49-1.534l-0.297-0.648l-0.081-0.249l-0.285-0.646l-0.187-0.284l-0.506-0.224l-0.661,0.012
		l-1.34,0.514l-1.356,0.999l-0.499,0.219l-1.1,0.077l-1.386-1.208l-1.14-0.754l-0.283-0.259l-0.198-0.291l-0.205-0.405l-0.431-0.625
		l-0.698-0.769l-0.237-0.357l-0.133-0.345l-0.071-0.487l-0.134-0.24l-0.255-0.18l-0.26-0.142l-0.108-0.213l0.087-0.28l0.481-0.276
		l0.345-0.353l0.371-0.537l0.178-1.077l-0.083-0.603l-0.27-1.13l-0.039-0.829l0.048-0.591l0.186-0.703l0.235-0.321l0.357-0.19
		l1.706,0.05l0.292-0.035l0.962-0.369l0.329-0.079l0.366-0.025l0.265,0.046l0.279,0.132l0.592,0.421l0.313,0.065l0.398-0.046
		l0.693-0.213l0.491-0.405l0.341-0.586l0.041-1.237l-0.051-0.768l0.196-1.702l1.096-2.119L328.04,188.247z M390.502,203.746
		l0.938,0.544l0.381,0.517l-0.618,0.662l-1.058,0.19l-0.484-0.48l0.006-0.52l-0.198-0.248l-0.267-0.148l-0.376,0.054l-0.476-0.127
		l-1.322-0.94l-0.615-0.719l0.075-0.743l0.86-0.236l-0.142-0.471l0.05-0.641l0.367-0.242l0.459,0.822l-0.198,1.197l0.482,0.163
		l1.319,0.29l0.42,0.64L390.502,203.746z M380.5,195.93l0.535,0.768l0.097,0.526l-0.415,0.357l-0.818,0.26l-0.484,0.532l0.309,0.417
		l0.59,0.106l0.111,0.417l-0.518,0.544l-0.791,0.109l-0.788-0.49l-0.443-0.671l0.206-0.444l0.423-0.354l0.161-0.366l-0.612-0.097
		l-0.635-0.354l0.69-1.106l1.542-0.408L380.5,195.93z M364.416,189.604l0.259,0.548l0.276,0.983l-0.186,0.188l-0.384-0.563
		l-0.317-0.345l-0.284,0.024l-0.451,0.094l-0.551-0.076l-0.401-0.339l-0.245-0.405l0.022-0.175l0.234,0.051l0.108-0.408l0.125-0.889
		l0.743-0.182l0.832,0.883L364.416,189.604z M351.875,185.313l0.173,0.236l0.276,0.496l-0.086,0.493l-0.356,0.427l-0.39,0.03
		l-0.462-0.33l-0.323-0.511l-0.278-0.563l-0.543-0.188l-1.01-0.581l-0.306-0.133l-0.117-0.339l-0.117-0.163l-0.445-0.282
		l-0.189-0.602l0.665-0.442l0.509-0.097l0.509-0.042l0.593,0.169l-0.008,0.415l0.482,0.524l1.002,0.902L351.875,185.313z
		 M341.152,181.807l0.782,0.009l0.938,0.173l-0.117,0.333l-0.554,0.139l-0.537-0.045l-1.759,0.227l-0.657,0.533l-1.035,0.448
		l-0.935,0.254l-0.117-0.136l-0.167-0.49l0.262-0.148l0.612,0.073l-0.111-0.66l0.34-0.412l0.98-0.142l0.501-0.018L341.152,181.807z"
		/>
	<path class="st0" d="M311.954,180h0.51l0.662,1.087l0.432,0.503l-0.003,0.345l-0.629,0.605l-1.136,0.678l-0.818-0.076l-0.724-0.378
		l-0.846-0.224l-2.208,0.224l-1.667,0.587l-3.385,1.725l0.768-0.854l4.148-2.755l1.222-0.27l1.328,0.045l1.453,0.327l-0.267-0.406
		l-0.384-0.775L310.125,180l0.468-0.463l0.301,0.515l1.061,0.966V180z M334.967,178.982l0.37-0.091l0.482-0.191l0.412,0.024
		l0.178,0.533l-0.153,0.545l-0.404,0.306l-0.54,0.263l-0.576,0.412l-0.688-0.103l-1.208-0.521l-1.378-0.406L330.293,180
		l-0.267-0.436l-0.301-0.027L328.893,180l0.251-1.018l0.448-0.621l0.735-0.309l1.116-0.088l0.278,0.142l0.543,0.66l0.368,0.215
		l0.593,0.058L334.967,178.982z M253.415,181.635l1.768,0.009l1.077-0.151l0.913-0.475l0.779,0.418l0.763,0.057l0.81-0.036
		l0.919,0.115l0.471,0.282l1.197,0.981l1.453,0.851l0.237,1.492l-0.22,1.71l-0.334,1.286l-0.412,0.584l-0.423,0.284l-0.011,0.224
		l0.846,0.43l0.779,0.103l0.763-0.194l1.024-0.415l0.267-0.381l0.426-1.812l0.242-0.623l0.568-0.526l0.507-0.17l0.621-0.018
		l5.754-1.005l0.768-0.339l0.735-0.805l1.695-0.484l3.221-0.484l1.019-0.357l2.542-1.257l1.67-1.287l3.026-1.793l1.125-0.339
		l1.269,0.503l-0.969,0.845l-1.893,0.79l-3.109,0.818l-3.716,2.283l-0.963,0.854v0.466l3.034,0.784l3.903,4.584l2.444,1.277
		l1.358,0.03l0.587-0.333l0.482-0.762l1.035-1.247l0.328-0.611l0.724-1.822l0.345-0.381l0.777-0.085l1.403-0.363l0.434-0.061
		l2.842,0.508l0.473-0.018l0.267-0.133l0.125,0.269l0.031,1.177l0.512,1.634l1.258,0.402l1.548-0.29l1.395-0.454l10.742-2.079
		l1.681-0.045l3.19,0.669l1.709-0.07l1.431-0.614l1.28-1.126l0.376-1.398l-1.261-1.435l0.891-0.424l0.93-0.109l0.86,0.158
		l0.671,0.375v0.466l-0.585,0.545l-1.793,3.562l1.907,1.443l0.086,0.156l-0.423,0.176l-1.096,2.119l-0.196,1.702l0.051,0.768
		l-0.041,1.237l-0.341,0.586l-0.491,0.405l-0.693,0.213l-0.398,0.046l-0.313-0.065l-0.592-0.421l-0.279-0.132l-0.265-0.046
		l-0.366,0.025l-0.329,0.079l-0.962,0.369l-0.292,0.035l-1.706-0.05l-0.357,0.19l-0.235,0.321l-0.186,0.703l-0.048,0.591
		l0.039,0.829l0.27,1.13l0.083,0.603l-0.178,1.077l-0.371,0.537l-0.345,0.353l-0.481,0.276l-0.087,0.28l0.108,0.213l0.26,0.142
		l0.255,0.18l0.134,0.24l0.071,0.487l0.133,0.345l0.237,0.357l0.698,0.769l0.431,0.625l0.205,0.405l0.198,0.291l0.283,0.259
		l1.14,0.754l1.386,1.208l1.1-0.077l0.499-0.219l1.356-0.999l1.34-0.514l0.661-0.012l0.506,0.224l0.187,0.284l0.285,0.646
		l0.081,0.249l0.297,0.648l0.49,1.534l1.032,1.777l0.182,0.558l-0.101,0.38l-0.357,0.213l-0.64,0.28l-0.382,0.558l-0.081,0.424
		l0.117,0.328l0.497,0.523l0.311,0.508l0.111,0.489l0.032,0.644l-0.35,3.482l0.064,0.544l0.164,0.308l0.306,0.347l0.336,0.578
		l0.159,1.457l0.194,0.75l0.302,0.739l0.428,0.469l0.986,1.709l-1.377,0.943l-0.24,0.304l-1.501,2.836l-0.437,0.608l-0.304,0.316
		l-0.281,0.061l-0.567,0.069l-0.43,0.092l-0.465,0.161l-1.515,0.717l-0.437,0.025l-0.329-0.042l-0.661-0.228l-6.316-0.679
		l-1.605,0.134l-0.513-0.029l-3.447-0.916l-0.757-0.029l-0.536,0.098l-0.598,0.409l-0.263,0.222l-0.822,0.513l-1.449,0.683
		l-0.417,0.264l-0.806,0.773l-0.207,0.239l-0.364,0.333l-0.826,0.597l-0.513,0.618l0.019,0.138l0.202,0.109l0.35,0.061l0.27,0.128
		l0.106,0.166l-0.037,0.314l-0.435,1.208l-0.233,0.51l-1.068,1.738l-0.154,0.386l0.074,0.149l0.166,0.046l0.269-0.025l0.332-0.113
		l0.322-0.149l0.219-0.076l0.194,0.006l0.202,0.076l0.244,0.147l0.09,0.298l-0.09,0.382l-0.534,0.803l-0.209,0.439l-0.09,0.39
		l0.087,0.298l0.212,0.487l-0.002,0.382l-0.09,0.583l-0.364,1.026l-0.14,0.646l-0.069,0.55l0.074,0.672l0.106,0.386l0.133,0.243
		l0.189,0.151l0.283,0.078l1.105-0.134l0.271,0.01l0.145,0.082l0.071,0.168l0.034,0.338l0.101,0.275l0.069,0.611l-0.286,1.379
		l2.879,2.043l0.841,0.806l0.737,1.138l2.155,1.241l2.386,0.981l0.948,0.582l0.497,0.195h0.246l0.2-0.181l0.179-0.225l0.193-0.162
		l0.274-0.092l1.089-0.042l0.504-0.078l0.635-0.013l0.346,0.155l0.442,0.441l0.323,0.126l0.636-0.031l0.978-0.263l1.426-0.183
		l0.744,0.065l0.447,0.164l0.486,0.54l0.196,0.292l0.136,0.336l0.069,0.389l0.028,1.286l0.125,0.837l0.148,0.452l0.504,0.812
		l0.004,0.006l-3.054,0.087l-8.421-0.595l-9.863,1.105l-5.94-0.601l-1.336-0.463l-2.569-1.322l-2.686-0.547l-1.041-0.742
		l-0.69-1.133l-1.759-3.735l-0.239-0.718l-0.044-1.172l0.515-3.139l-0.315-0.21l-1.809-2.815l-0.916-0.596l-0.919-0.199
		l-0.768,0.259l-0.454,0.761l0.017,0.92l0.958,3.167l0.047,8.954l-0.534,2.286l-1.422-0.102l0.974-1.61l-0.287-2.326l-0.983-2.14
		l-0.638-0.526l-1.912,0.7l-0.426,0.31l-0.214,0.628l0.081,1.376l-0.292,0.565l-0.807,0.373l-0.546-0.273l-0.462-0.451l-0.562-0.159
		l-0.496,0.354l-0.083,0.508l-0.195,0.454l-0.841,0.198l-2.477-1.118l-1.506-4.917l-2.597-1.112h-3.29l-0.779-0.229l-1.317-0.968
		l-0.732-0.225l-0.529,0.225l-1.002,0.968l-0.802,0.229l-0.178,0.084l-0.131,0.189l-0.209,0.189l-0.412,0.084l-0.214-0.129
		l-0.167-0.646l-0.301-0.234l-2.842-0.959L257.254,252l-0.805-0.352l-0.816-0.018l-0.367,0.812l-0.668,0.301l-1.506,0.078
		l-1.598-0.171l-0.941-0.433h-0.429l-0.178,0.905l-0.443,0.234l-1.289-0.18l0.206,0.295l0.114,0.198l0.186,0.517l-0.754-0.003
		l-3.193-0.4l-0.974-0.376l-1.726-1.927l-0.621-1.028l-0.248-1.083l-1.186-1.245l-9.693-3.911l-0.991-0.569l-1.036-0.858
		l-0.612-0.349l-1.364-0.147l-0.571-0.217l-0.337-0.415l-0.785-1.357l-0.067-0.295l-0.933,0.009l-1.255-0.154l-1.158-0.572
		l-0.646-1.258l0.382-1.159l0.82-0.714l1.038-0.44l0.854-0.274l7.875,0.272l2.569-0.664l1.82,0.289l2.082-0.167l1.263-0.228
		l1.826,0.438l1.557,0.138l3.523-0.56l2.707-1.161l0.768,0.142l0.707-0.38l1.353,0.003l0.743-0.175l0.983-0.3l0.903-0.914l0.64-0.61
		l0.642-0.27l-0.085-1.552l0.274-0.704l-0.172-1.151l0.592-2.083l-0.041-0.799l-0.51-0.173l0.102-0.155l0.078-0.12l0.058-0.052
		l0.226-0.103l0.304-0.224l0.23-0.218l0.873-1.421l0.589-0.77l0.387-0.645l0.217-0.546l0.141-0.523l0.525-3.749l-0.131-1.104
		l-1.112-0.998l-2.584-1.594l-0.401-0.7l0.03-1.133l0.746-1.875v-0.462l-0.292-0.41l-0.882-0.633l-1.052-0.993l-1.117-2.01
		l0.882-2.774l0.172-2.122l0.072-0.303l-0.051-0.507l-0.06-0.236l-0.794-1.173l-1.115-1.453l-0.537-0.501l-0.497-0.39l-0.499-0.194
		l-0.755-0.092l-0.244-0.133l-0.11-0.238l0.173-0.574l0.111-0.274l0.078-0.152l0.034-0.05l0.385-0.34l1.386-0.956l0.636-0.891
		l0.269-0.115l0.166-0.213l-0.018-0.211l-0.3-0.407l-0.587-0.475l-0.042-0.279l0.133-0.371l0.486-0.678l0.354-0.206l0.354-0.012
		l0.654,0.392l0.184,0.069l0.102-0.031l-0.012-0.517l-0.126-0.945l-0.873-3.896l0.693-0.907L253.415,181.635z M262.148,262.485
		l0.47,0.559l0.161,1.021l-0.54,0.042l-0.718-0.432l-0.707,0.06l-0.418-0.114l-0.306-0.457l-0.173-0.559v-0.616l0.434-0.288
		l0.752,0.183l0.71,0.367L262.148,262.485z M322.88,177.52l0.181,0.227l0.153,0.579l-0.17,0.515l-0.301-0.024l-0.217,0.058
		l-0.067,0.536l-0.354,0.091l-0.785-0.158l-0.515,0.285l-0.136,0.5l-0.234-0.233l-0.047-0.948l0.688-0.809l1.183-0.473
		L322.88,177.52z M315.595,177.938l4.279,0.5l0.1,0.215l-0.061,0.46l-0.401,0.139l-0.507-0.285l-0.487-0.021l-0.309,0.469
		l-0.275,0.185l-1.453-0.663l-0.804-0.254l-0.473-0.082l-1.264,0.136l-0.74-0.055l-1.946-0.718l-0.668-0.167l-0.504-0.688
		l-0.398-0.197l0.281-0.406l1.331,0.17l1.912,0.724L315.595,177.938z M308.497,174.675l0.317,0.109l0.22,0.639l-0.523,0.615
		l-0.791-0.13l-0.76-0.248l-0.816-0.112l-0.774-0.327l-0.34-0.524l-0.295-0.321l-0.612-0.209l0.468-0.436l1.564-0.182l1.873,1.154
		L308.497,174.675z"/>
	<path class="st0" d="M577.629,307.289l1.019,0.721l2.478,1.199l3.78,0.81l0.891,0.691l-0.468,1.005h1.403l-0.401,1.516
		l-0.543,0.753l-0.832,0.254l-2.425,0.155l-0.977,0.398l-0.685,0.702l-0.256,1.034l0.952,1.811l3.496-1.844l-0.2,1.829l0.66-0.481
		l0.303-0.756l0.167-0.894l0.273-0.879h-0.468l0.958-1.435l0.284-0.738l0.117-0.879l4.203,1.456l0.393-0.021l0.534-0.323
		l0.303,0.123l1.15,0.771l1.851,0.451l0.738,0.051l1.055,0.469l0.93,1.031l0.404,1.04l-0.501,0.466l-1.111,0.251l-3.833,1.757
		l0.265-1.099l-0.629-0.648l-0.679-0.033l0.109,0.777l-0.331,1.159l0.913,0.478l1.381,0.233l1.091,0.433l1.03,0.803l1.152,0.523
		l1.294,0.287l1.453,0.093v-0.454l-1.489-0.526l-0.448-0.335l-0.401-0.642l-0.459-1.055l0.033-0.469l1.32-0.529l1.197-0.036
		l1.631,0.514l1.514,0.911l0.88,1.162h0.429v-1.547h0.462l-0.239,2.939l-0.785,0.962l-3.644,0.158v0.499h1.4l-0.662,0.394
		l-0.27,0.108l0.551,0.944l0.671-0.036l0.763-0.367l0.818-0.045l0.585,0.496l0.688,1.278l0.635,0.233l0.348-0.152l0.47-0.358
		l0.409-0.415l0.175-0.352l0.164-0.236l0.384-0.015l0.445,0.054l0.367-0.03l2.013-1.188l0.788-0.311l-1.058-0.373l-2.235-0.305
		l-0.869-0.326l-0.827-0.983l-0.228-1.174l0.468-0.986l1.247-0.412l8.193,0.245l1.679,0.532l0.974,0.81l2.207,0.869l0.203,0.17
		l-0.045,0.09l-0.265,4.14l-0.52,1.225l-0.353,0.229l-0.267,0.248l-0.357,0.483l-0.023,0.457l0.235,1.313l-0.113,0.461l-0.37,0.481
		l-1.842,1.158l-1.488,0.625l-3.039,1.967l-1.1,0.936l-0.392,0.216l-1.693,1.345l-1.292,1.328l-0.815,2.051l-0.196,1.094
		l-0.242,0.21l-0.468,0.062l-0.338-0.057l-0.401-0.151l-0.642,0.044l-0.891,0.233l-3.609,1.571l-1.105,0.259l-0.483,0.04
		l-0.412-0.034l-0.306-0.129l-0.378-0.261l-0.681-0.617l-0.815-0.369l-0.864,2.506l0.065,5.173l-0.108,1.023l-0.232,0.702
		l-1.25,1.634l-0.493,0.966l-0.196,0.668l-0.101,0.951l0.016,0.577l0.148,0.408l0.746,0.826l0.361,0.518l0.255,0.718l-0.044,0.444
		l-0.189,0.329l-0.695,0.471l-0.651,0.244l-2.756,1.122l-0.281,0.195l-1.135,0.973l-0.723-0.314l-1.271-2.731l-0.635-0.524
		l-1.013-0.261l-1.545,0.017l-2.91-0.348l-1.368,0.019l-0.55,0.078l-2.853-0.514l-1.524,0.52l-1.016,0.144l-0.926,0.04l-1.124,0.363
		l-0.603,0.017l-0.451-0.155l-0.997-0.713l-2.485-0.938L560,358.008l-1.6-0.444l-0.17-0.435l-0.263-0.442h-0.44l-0.518,0.233
		l-1.068,0.766l-0.437,0.221l-0.274,0.006l-0.278-0.699l-0.371-0.418l-0.249,0.081l-0.191,0.333l-0.085,0.781l-0.136,0.423
		l-0.163,0.357l-0.681,0.788l-0.246,0.414l-0.161,0.463l-0.079,0.174l-0.133,0.161l-0.283,0.174l-1.064,0.497l-0.283,0.204
		l-0.01,0.007l-0.441-0.157l-1.957,0.173l-2.152,0.509l-1.79,0.786l-0.891,1.027l-0.651-0.411l-0.395,0.009l-0.345,0.211
		l-0.479,0.19l-0.724,0.19l-0.44,0.19l-0.456,0.125l-0.76-0.006l-1.194-0.202l-3.474-1.291l-2.661,1.428l-0.607,0.065l-0.991-0.759
		l-0.459-0.235l-0.518-0.104l-2.024,0.104l-0.534-0.066l-1.331-0.393l-0.451-0.271l-0.253,0.164l-0.883,0.065l-3.36-0.202
		l-1.172-0.375l-1.818-1.256l-0.615-0.184l0.001-0.009l0.916-5.972l3.553-5.043l1.616,0.112l4.173-0.81l1.036-0.424l0.543-0.392
		l-0.041-0.424l0.011-0.515l0.069-0.572l0.288-1.185l0.046-0.42l-0.06-0.466l-0.111-0.471l0.002-0.583l0.527-0.367l0.453-0.079
		l0.378,0.163l0.377,0.515l0.267,0.454l0.346,0.466l0.26,0.227l0.377,0.062l0.778,0.051l0.354,0.083l0.521,0.062l0.214-0.182
		l0.134-0.225l-0.003-0.926l0.364-0.986l0.689-0.384l1.386-0.409l0.99-0.148l0.191-1.072l0.179-0.237l0.178-0.006l0.877,0.062
		l0.919-0.097l1.245-0.25l0.449-0.579l0.217-0.509l0.072-0.506l0.281-0.64l0.005-0.1l-0.159-0.555l-0.048-0.318l-0.009-0.426
		l0.133-0.241l0.244-0.178l0.99-0.491l0.47-0.574l0.231-0.161l0.106-0.011l0.034,0.154l0.078,0.182l0.111,0.19l0.29,0.388
		l0.207,0.231l0.594,0.915l0.138,0.337l0.058,0.337l-0.032,0.436l0.057,0.186l0.156,0.15l1.197,0.311l1.142,0.087l0.578,0.106
		l0.334,0.108l0.141,0.193l0.021,0.167l-0.055,0.197l-0.454,0.691l-0.048,0.208l-0.009,0.229l0.216,0.488l0.688,0.717l0.704-1.528
		l0.452-0.371l0.414-0.214l0.318,0.074l0.322,0.237l0.686,0.665l0.408,0.204l0.562,0.165l0.564-0.284l1.973-4.755l0.962-1.353
		l0.811-0.388l0.64-0.405l0.343-0.15l2.001-0.432l0.444-0.142l0.884-0.769l0.445-0.534l2.492-4.158l-0.301-4.738l0.049-0.503
		l0.348-0.863l3.862-3.585l0.108-0.268l-0.138-0.256l-0.398-0.106l-2.62,0.015l-0.308-0.216l-0.332-0.431l-0.304-1.205l0.058-0.689
		l0.415-0.953l0.569-0.678l1.085-3.364l1.354,0.158l1.589,0.389l1.225-0.057l1.856-0.467l0.868-0.403l1.948-1.531l1.087-0.439
		l0.559-0.541L577.629,307.289z"/>
	<path class="st0" d="M224.943,179.349l0.81-0.206l1.59-0.161l0.69-0.163l0.746-0.294l0.74-0.133l0.668,0.339l2.572,1.823
		l2.032,0.581l4.382,0.43l2.032,0.509l1.525-0.503l10.684,0.064l-0.089,0.609l-0.693,0.907l0.873,3.896l0.126,0.945l0.012,0.517
		l-0.102,0.031l-0.184-0.069l-0.654-0.392l-0.354,0.012l-0.354,0.206l-0.486,0.678l-0.133,0.371l0.042,0.279l0.587,0.475l0.3,0.407
		l0.018,0.211l-0.166,0.213l-0.269,0.115l-0.636,0.891l-1.386,0.956l-0.385,0.34l-0.034,0.05l-0.078,0.152l-0.111,0.274
		l-0.173,0.574l0.11,0.238l0.244,0.133l0.755,0.092l0.499,0.194l0.497,0.39l0.537,0.501l1.115,1.453l0.794,1.173l0.06,0.236
		l0.051,0.507l-0.072,0.303l-0.172,2.122l-0.882,2.774l1.117,2.01l1.052,0.993l0.882,0.633l0.292,0.41v0.462l-0.746,1.875
		l-0.03,1.133l0.401,0.7l2.584,1.594l1.112,0.998l0.131,1.104l-0.525,3.749l-0.141,0.523l-0.217,0.546l-0.387,0.645l-0.589,0.77
		l-0.873,1.421l-0.23,0.218l-0.304,0.224l-0.226,0.103l-0.058,0.052l-0.078,0.12l-0.102,0.155l-0.476-0.162l-1.023-0.031
		l-1.874-1.624l-1.288-1.045l-2.363-1.804l-2.396-0.894l-6.095-2.197l-2.389,0.089l-5.481,0.507l-7.269,1.244l-2.201-0.96
		l-4.644-1.327l-5.198,0.012l-2.899,0.344l-1.492,0.172l-1.425-0.16l-2.171-0.564l0.249-1.577l-0.229-0.931l-0.893-0.57
		l-0.862-0.505l-1.398-1.97l-1.398-2.88v-2.729l0.559-2.427l0.839-1.82v-1.973l0.1-2.575l1.11-0.453l0.521-0.156l0.482,0.315
		l0.732,0.91l0.378,0.084l0.474-0.205l0.901-0.804l0.265-0.518l0.615-0.614l2.68,0.252l1.762-0.119l0.723,0.323l0.679,0.092
		l0.811-0.006l0.596-0.236l0.414-0.57l0.523-0.96l2.326-2.598l0.06-0.273l-0.092-0.353l-0.576-1.197l-0.106-0.645l0.025-0.476
		l0.166-0.628l0.051-0.375l-0.016-0.363l-0.106-0.282l-0.042-0.21l0.074-0.106l0.392-0.029l0.38,0.413l0.488,0.698l0.232,0.04
		l0.398-0.271l0.446-0.421l0.343-0.93l0.074-0.396l0.122-0.244l0.237-0.225l0.281-0.098l0.608,0.308l0.398,0.281l2.4,2.848
		l0.659-1.22l0.094-1.259l0.078-0.336l0.168-0.21l0.371-0.317l0.064-0.319l-0.187-0.667l-0.03-0.419l0.164-0.263l0.645-0.031
		l0.354-0.298l-1.149-1.451l-0.382-0.669l0.117-0.746L224.943,179.349z"/>
	<path class="st0" d="M194.934,187.836l0.454-0.263l1.512-0.463l0.379-0.236l0.679-1.053l0.34-0.236l0.846-0.1l0.651-0.251
		l1.072-0.666l2.029-1.589l1.058-0.639l2.723-0.415l3.151-1.372l4.785-0.793l2.171-0.902l4.724,1.142l1.498-0.161l1.937-0.49
		l0.22,0.725l-0.117,0.746l0.382,0.669l1.149,1.451l-0.354,0.298l-0.645,0.031l-0.164,0.263l0.03,0.419l0.187,0.667l-0.064,0.319
		l-0.371,0.317l-0.168,0.21l-0.078,0.336l-0.094,1.259l-0.659,1.22l-2.4-2.848l-0.398-0.281l-0.608-0.308l-0.281,0.098l-0.237,0.225
		l-0.122,0.244l-0.074,0.396l-0.343,0.93l-0.446,0.421l-0.398,0.271l-0.232-0.04l-0.488-0.698l-0.38-0.413l-0.392,0.029
		l-0.074,0.106l0.042,0.21l0.106,0.282l0.016,0.363l-0.051,0.375l-0.166,0.628l-0.025,0.476l0.106,0.645l0.576,1.197l0.092,0.353
		l-0.06,0.273l-2.326,2.598l-0.523,0.96l-0.414,0.57l-0.596,0.236l-0.811,0.006l-0.679-0.092l-0.723-0.323l-1.762,0.119l-2.68-0.252
		l-0.615,0.614l-0.265,0.518l-0.901,0.804l-0.474,0.205l-0.378-0.084l-0.732-0.91l-0.482-0.315l-0.521,0.156l-1.11,0.453
		l-0.629-2.477l-0.148-0.181l-0.24-0.186l-0.15,0.079l-0.173,0.017l-2.512-1.081l-0.511-0.38l-0.223-0.323l0.064-0.161l1.361-1.158
		l0.581-0.87l-0.092-0.68l-0.686-0.943l-0.546-0.154l-0.472,0.125l-0.371,0.334l-0.813,0.424l-1.177-0.523L194.934,187.836z"/>
	<path class="st0" d="M167.18,194.413l0.135-0.092l0.732-1.839l0.969-1.591l2.219-0.048l2.45,0.396l1.645-0.275l1.506-0.544
		l6.197,0.29l6.344-0.835l1.64-0.687l1.403,0.1l2.516-1.453l0.296,0.506l1.177,0.523l0.813-0.424l0.371-0.334l0.472-0.125
		l0.546,0.154l0.686,0.943l0.092,0.68l-0.581,0.87l-1.361,1.158l-0.064,0.161l0.223,0.323l0.511,0.38l2.512,1.081l0.173-0.017
		l0.15-0.079l0.24,0.186l0.148,0.181l0.629,2.477l-0.1,2.575v1.973l-0.839,1.82l-0.559,2.427v2.729l1.398,2.88l1.398,1.97
		l0.862,0.505l0.893,0.57l0.229,0.931l-0.249,1.577l-4.5,0.596l-3.601-0.883l-0.802,0.157l-1.325,0.694l-0.674,0.16l-3.18-0.693
		l-2.431,0.58l-7.217-1.941l-1.467,0.03l-1.423,0.73l-0.699,1.204l-0.234,1.439l-0.02,1.457l-0.417,1.339l-1.008,0.691l-0.628,0.211
		l-0.028-0.291l-0.205-0.435l-0.53-0.804l-2.264-2.559l-0.313-0.582l-1.349-3.163l-0.513-0.912l-0.44-0.607l-0.387-0.293
		l-0.626-0.351l-0.244-0.184l-0.829-1.118l-1.13-1.954l-0.343-0.47l-0.274-0.259l-0.764-0.339l-0.148-0.119l-0.11-0.134l0.095-0.144
		l0.323-0.132l1.665-0.192l0.537-0.203l0.354-0.303l1.273-1.509l0.087-0.664l-0.308-1.801l-1.725-3.358l0.242-1.476l0.002-0.34
		l-0.313-2.686L167.18,194.413z M196.594,221.126l0.251,0.887l0.212,1.713l-0.401,1.305l-0.356,0.497l-0.278,0.476l-0.314-0.308
		l0.148-4.661l-0.173-0.621l-0.033-0.392l0.256-0.06l0.328,0.311l0.262,0.558L196.594,221.126z"/>
	<path class="st0" d="M175.378,222.205l-1.685,0.567l-4.109,3.509l-0.818,0.539l-1.553,0.127l-1.055,0.335l-4.557,2.393
		l-2.238,1.504l-1.873,1.973l-3.906,7.513l-1.62,1.607l-2.221,0.262l-2.252-0.65l-0.93-0.084l-0.977,0.274l-0.031,0.184l0.031,1.035
		l-0.114,0.28l-0.267-0.021l-0.312-0.096l-0.493,0.187l-0.309-0.096l-0.262-0.027l-0.111,0.298l0.033,1.038l-0.033,0.202
		l-2.475,1.604l-0.835,0.921l-0.367,0.623l-0.059,0.355l0.039,0.259l-0.081,0.325l-0.451,1.071l-0.334,0.472l-0.618,0.478
		l-0.22-0.229l-0.106-0.235l-0.039,0.866l-0.484,0.508l-0.382-0.751l-0.567-0.238l-0.601,0.08l-0.053,1.215l-1.128,1.237
		l-3.41,0.297l-3.533-0.454l-3.023-1.242l0.568-0.622l-0.181-0.752l-0.504-0.83l-0.392-0.872h-0.468l-0.969,1.976l-1.695,1.786
		l-2.001,1.29l-1.873,0.499l0.142-0.259l0.15-0.511l0.134-0.283l-7.572,1.112l-0.37-0.06l-0.267-0.289l-0.187-0.511l-0.084-0.493
		l0.07-0.222l-0.782,0.24l-0.813,1.037l-0.994,0.238l-5.314-0.307l-1.52,0.307l-2.806,2.774l-0.084,0.562l-0.523,2.034l-0.326,0.724
		l0.359,0.484l0.106,0.442l0.045,1.093l-0.777-0.655l-0.752,0.168l-0.465,0.79l0.081,1.207l0.518,0.976l0.671,0.36l0.791-0.198
		l0.868-0.679l-0.39,1.598l-2.366,1.759l-0.56,1.498l0.248,0.351l0.462,0.423l0.276,0.54l-0.303,0.702l-0.646,0.63l-0.738,0.576
		l-0.802,0.414l-0.835,0.162l-1.286-0.315l-2.586-1.386l-1.52-0.315l-1.487,0.345l-2.639,1.626l-1.264,0.549l-0.693,0.054
		l-1.42-0.105l-0.688,0.051l-0.757,0.315l-1.553,0.984l-2.138,0.642l-8.078,6.796l-2.937,1.61l-2.887,0.267l-0.888-1.454
		l2.739-5.793l0.532-2.907l-1.548-2.151l-2.728-0.471l-3.045,0.462l-5.434,1.611l-2.65,1.269l-6.909,4.625l-2.75,0.678l-2.976-0.048
		l-2.873-0.9l-0.938-0.762l-0.557-1.05L30,276.443l0.245-1.236l0.225-0.48l0.354-0.594l0.434-0.489l0.457-0.183l0.326,0.183
		l0.22,0.378l0.184,0.435l0.212,0.348l0.495,0.396l0.56,0.225l0.601,0.075l0.615-0.057l1.169-0.495l0.805-0.837l0.036-0.936
		l-1.122-0.801l1.166-0.639l1.038,0.003l0.649,0.714l-0.006,1.479l5.604-3.022l4.969-1.48l5.823-2.63l3.725-2.718l0.515-0.273
		l0.91-0.072l0.829,0.123l0.429,0.336l-0.301,0.577l2.149,0.955l1.595-0.451l1.551-0.949l2.007-0.52l0.994,0.303l1.161,0.727
		l0.969,0.916l0.401,0.829l0.331,0.432l1.857-1.351l1.044,0.162l0.974-4.082l-0.818,0.931l-0.724,1.286l-0.774,0.685l-0.955-0.838
		l-0.404-1.409l0.086-1.087l-0.234-0.847l-1.356-0.685l0.635-1.577l0.337-0.487l-1.269-0.144l-1.383-0.502l-1.247-0.679
		l-0.857-0.694l-0.554-1.043l-0.451-1.23l-0.632-0.965l-1.122-0.244l0.682-0.64l0.768-1.143l0.624-1.347l0.264-1.227l0.125-1.721
		l0.295-1.589l0.98-3.256l0.17-0.178l0.999-1.887l0.351-0.193l0.738-0.072l0.334-0.217l0.276-0.476l0.273-0.933l0.173-0.358
		l1.459-2.15l1.01-1.148l1.228-0.75v-0.551h-1.403l1.18-0.967l2.928-0.539l1.281-0.744l0.816-1.121l0.86-1.66l0.317-1.604
		l-0.802-0.947v-0.555l0.718,0.223l0.685,0.332l0.974-0.748l0.924-0.145l0.796,0.416l0.574,0.935l0.607-2.774l0.368-0.718
		l0.674-0.277l1.771-0.157l0.362-0.35l0.05-0.745l0.217-1.264l0.49-0.89l0.874,0.365l0.916,0.591l0.718-0.38l0.66-0.812l0.743-0.688
		l-0.518-0.848l-0.704-0.519l-0.913-0.205l-1.13,0.103l0.309-0.576l0.498-0.522l0.618-0.368l0.654-0.145l1.102,0.404l0.585,0.905
		l0.451,0.902l0.665,0.407l0.919-0.163l0.818-0.404l4.162-3.024l0.935,0.972l0.651-1.576l1.044-0.694l2.979-0.217l1.136-0.223
		l4.716-2.403l2.366-0.858l1.122-0.109l0.766,0.133l0.863,0.405l0.746,0.018l0.473-0.16l0.944-0.616l0.498-0.239v-0.556l-0.49,0.232
		l-0.49,0.323l-0.089-0.272l0.02-0.169l-0.059-0.081l-0.34-0.033l1.459-0.927l1.503-0.45l3.413-0.139l0.289-0.444l0.852-2.347
		l0.434-0.236l2.837-0.018l-0.175,0.514l-0.106,0.212l-0.186,0.29l1.336,0.248l0.802-0.767l0.551-1.142l0.585-0.876l1.022-0.423
		l0.785,0.314l0.824,0.626l1.147,0.499l-0.484,0.767l0.746-0.233l1.091-0.686l0.557-0.583l0.412-1.224l1.019-1.608l1.286-1.409
		l1.233-0.602l0.921-0.308l3.538-2.277l1.386-0.587l1.269-0.061l1.105,0.393l0.908,0.807v0.463l-0.626,0.481l-0.264,0.889
		l0.131,1.043l0.526,0.931l0.835,0.384l0.702-0.453l0.59-0.747l0.487-0.502l-1.25-1.034l0.081-0.967l1.005-0.85l1.52-0.65
		l2.85-0.556l0.535-0.272l0.888-0.617l0.401-0.121l0.71,0.127l0.944,0.656l0.721,0.227l0.356-0.2l0.409-0.423l0.504-0.239
		l0.646,0.36l0.429,0.765l-0.445,0.233l-0.685,0.112l-0.278,0.408l0.281,0.771l0.418,0.254l0.535-0.257l0.635-0.768l-0.142,1.469
		l1.194,0.097l1.355-0.906l-0.067,0.409l0.313,2.686l-0.002,0.34l-0.242,1.476l1.725,3.358l0.308,1.801l-0.087,0.664l-1.273,1.509
		l-0.354,0.303l-0.537,0.203l-1.665,0.192l-0.323,0.132l-0.095,0.144l0.11,0.134l0.148,0.119l0.764,0.339l0.274,0.259l0.343,0.47
		l1.13,1.954l0.829,1.118l0.244,0.184l0.626,0.351l0.387,0.293l0.44,0.607l0.513,0.912l1.349,3.163l0.313,0.582l2.264,2.559
		l0.53,0.804l0.205,0.435L175.378,222.205z M125.557,270.205l0.17-0.009l0.345,0.018l-0.365,0.135l-1.333,0.045l-1.537-0.096
		l-1.041-0.471l0.685-0.387l2.032,0.408L125.557,270.205z"/>
	<path class="st0" d="M361.704,280.277l-0.264-0.046l-2.806-1.071l-2.895-0.63l-2.015-1.698l-3.574-1.146l-2.11-1.818l-7.466-8.041
		l-0.134-0.324v-0.381l-0.05-0.411l-0.284-0.396l-0.301-0.051l-0.827,0.126l-0.276-0.075l-0.743-0.67l-0.203-0.469l0.011-0.877
		l0.969,0.192l1.191-0.054l1.175-0.372l0.916-0.775l-1.052,0.27l-0.392,0.186l0.278-0.643l0.379-0.625l0.284-0.607l-0.011-0.601
		l-0.546-0.228l-0.824,0.222l-0.618-0.033l0.081-0.964l-1.35-0.006l-0.863-0.535l-0.084-0.91l0.98-1.118l-1.631-1.013l-0.646-0.631
		l-0.529-0.878l-0.468,0.755l-0.841,0.268l-1.016-0.126l-0.985-0.433l-0.37,1.575l0.646,1.004l2.063,1.5l1.002,1.379l0.899,1.682
		l0.423,1.796l-0.417,1.739l-2.94-1.117l-5.447,0.156l-0.004-0.006l-0.504-0.812l-0.148-0.452l-0.125-0.837l-0.028-1.286
		l-0.069-0.389l-0.136-0.336l-0.196-0.292l-0.486-0.54l-0.447-0.164l-0.744-0.065l-1.426,0.183l-0.978,0.263l-0.636,0.031
		l-0.323-0.126l-0.442-0.441l-0.346-0.155l-0.635,0.013l-0.504,0.078l-1.089,0.042l-0.274,0.092l-0.193,0.162l-0.179,0.225
		l-0.2,0.181h-0.246l-0.497-0.195l-0.948-0.582l-2.386-0.981l-2.155-1.241l-0.737-1.138l-0.841-0.806l-2.879-2.043l0.286-1.379
		l-0.069-0.611l-0.101-0.275l-0.034-0.338l-0.071-0.168l-0.145-0.082l-0.271-0.01l-1.105,0.134l-0.283-0.078l-0.189-0.151
		l-0.133-0.243l-0.106-0.386l-0.074-0.672l0.069-0.55l0.14-0.646l0.364-1.026l0.09-0.583l0.002-0.382l-0.212-0.487l-0.087-0.298
		l0.09-0.39l0.209-0.439l0.534-0.803l0.09-0.382l-0.09-0.298l-0.244-0.147l-0.202-0.076l-0.194-0.006l-0.219,0.076l-0.322,0.149
		l-0.332,0.113l-0.269,0.025l-0.166-0.046l-0.074-0.149l0.154-0.386l1.068-1.738l0.233-0.51l0.435-1.208l0.037-0.314l-0.106-0.166
		l-0.27-0.128l-0.35-0.061l-0.202-0.109l-0.019-0.138l0.513-0.618l0.826-0.597l0.364-0.333l0.207-0.239l0.806-0.773l0.417-0.264
		l1.449-0.683l0.822-0.513l0.263-0.222l0.598-0.409l0.536-0.098l0.757,0.029l3.447,0.916l0.513,0.029l1.605-0.134l6.316,0.679
		l0.661,0.228l0.329,0.042l0.437-0.025l1.515-0.717l0.465-0.161l0.43-0.092l0.567-0.069l0.281-0.061l0.304-0.316l0.437-0.608
		l1.501-2.836l0.24-0.304l1.377-0.943l2.841-1.667l0.838-0.963l0.186-0.289l0.258-0.239l0.329-0.182l0.574,0.05l0.352,0.121
		l1.635,1.359l1.699-0.327l0.573,0.115l0.322,0.396l-0.037,1.076l-0.133,0.695l-0.338,0.989l-0.053,0.322l0.048,0.203l0.106,0.165
		l0.301,0.101l0.373-0.015l0.774-0.264l0.442-0.216l0.762-0.507l0.316-0.124l0.371-0.033l0.53,0.023l0.376-0.019l0.217-0.124
		l0.134-0.201l0.514-1.65l0.253-0.49l0.225-0.27l0.244-0.096l0.398-0.013l0.956,0.092l0.44-0.006l0.408-0.073l0.203-0.136
		l0.318-0.364l0.177-0.144l0.147,0.218l0.097,0.486l-0.002,1.309l-0.101,0.63l-0.168,0.362l-0.196,0.101l-0.272,0.077l-0.221,0.103
		l-0.21,0.188l-0.021,0.383l0.079,0.643l0.762,1.793l0.242,0.379l1.303,0.74l0.205,0.754l-0.263,0.647l-0.111,0.53l0.035,0.423
		l0.279,0.532l0.49,0.258l0.255,0.287l0.186,0.321l-0.217,0.971l-1.301,1.428l0.035,0.793l0.235,0.48l0.417,0.581l2.487,2.437
		l0.843,0.445l0.491,0.092l0.486-0.038l1.027-0.317l0.346-0.034l0.288,0.061l0.164,0.142l0.117,0.262l0.217,1.655l0.186,0.669
		l0.375,0.848l0.601,1.093l0.838,1.11l1.718,0.798l-0.746,2.379l-0.246,0.43l-0.263,0.617l-0.079,0.67l0.258,2.852l-0.046,1.456
		l0.042,0.626l0.718,2.927l0.359,0.998l0.461,0.914l1.273,1.066l0.369,0.509l0.173,0.606l0.108,1.956l-0.042,1.108l0.101,0.707
		l0.233,0.635l1.386,1.062l0.101,0.154l-0.053,1.004l-2.462,2.567l-1.863,1.496l-0.467,0.518l-0.247,0.362l-0.074,0.375
		l-0.152,3.062L361.704,280.277z"/>
	<path class="st0" d="M571.483,422.092l-3.653,0.169l-1.737-0.281l-3.418-1.368l-1.748-0.326l-0.946,0.705h-0.468L559,420.503
		l-0.696-0.107l-0.677,0.305l-0.451,0.74l-1.737-0.568l-1.99-0.157l-1.768,0.465l-1.088,1.297h1.865v0.497l-1.214,0.059
		l-1.918,0.752l-1.283,0.184l-6.341,0.175l-4.337,1.065l-2.461,0.249l-2.884-0.228l-4.226,1.142l-1.319,0.08l-0.924-0.16
		l-0.924-0.426l-0.754-0.648l-0.454-0.793l0.083-1.344l1.275-2.404l0.081-0.681l0.504-0.154l0.869-0.095l0.498-0.249l0.459-0.45
		l0.468-0.749l0.476-0.293l-0.209-0.791l0.317-0.56l1.292-1.179l1.526-2.121l0.111-0.362l0.239-0.551l3.262-2.969l-0.134-0.634
		l-0.919-0.922l0.117-0.442l0.618,0.042l1.804,0.596l0.679-0.655l1.314-0.421l0.301-0.285l0.189-0.436l1.214-1.823l1.192-0.83
		l2.937-1.572l1.122-1.649l1.292-0.949l6.89-3.257l1.319-0.205l1.019-0.561l1.077-2.629l0.985-0.837l0.2-0.033l0.242-0.009
		l0.448,0.042l-0.39,0.849l0.412,0.419l0.882,0.039l1.002-0.267l0.935-0.608l0.721-0.905l0.473-1.086l0.167-1.179l0.501-0.419
		l2.812-1.781l0.217-3.498l0.462-0.529l0.526-0.475l0.916-2.564l-2.121-3.444l-0.668-0.621l-1.843-1.24l-2.45-0.951l-0.665-0.089
		l0.443,0.818l-0.426,0.499l-1.272-0.883l-1.058-0.491l-0.713-0.74l-0.264-1.629l0.231-0.494l0.54-0.285l0.624-0.205l0.473-0.265
		l1.439-1.999v-0.494l-2.48-1.589l-1.325-0.28l-0.479,1.368l-1.378-1.366l-1.161-1.83l-1.347-1.607l-1.493-0.533l0.01-0.007
		l0.283-0.204l1.064-0.497l0.283-0.174l0.133-0.161l0.079-0.174l0.161-0.463l0.246-0.414l0.681-0.788l0.163-0.357l0.136-0.423
		l0.085-0.781l0.191-0.333l0.249-0.081l0.371,0.418l0.278,0.699l0.274-0.006l0.437-0.221l1.068-0.766l0.518-0.233h0.44l0.263,0.442
		l0.17,0.435l1.6,0.444l6.714,0.199l2.485,0.938l0.997,0.713l0.451,0.155l0.603-0.017l1.124-0.363l0.926-0.04l1.016-0.144
		l1.524-0.52l2.853,0.514l0.55-0.078l1.368-0.019l2.91,0.348l1.545-0.017l1.013,0.261l0.635,0.524l1.271,2.731l0.723,0.314
		l1.135-0.973l0.281-0.195l2.756-1.122l0.332,0.571l0.288,0.355l0.382,0.255l0.511,0.119l0.674-0.249l0.656-0.384h0.217l0.244,0.183
		l0.626,1.064l0.444,0.376l0.552,0.238l0.993,0.212l0.513,0.176l0.661,0.047l0.689-0.149l1.842-0.969l0.748,0.045l0.396,1.2
		l0.076,0.542l0.041,0.856l-0.111,1.079l0.002,0.313l0.313,0.268l0.628,0.319l3.205,0.772l1.227,0.55l3.169,1.89l2.381,0.729
		l0.59,0.259l0.21-0.011l0.2-0.111l0.191-0.17l0.14-0.098l0.311-0.072l0.196,0.023l0.233,0.085l0.253,0.187l0.203,0.493l0.06,0.372
		l-0.385,1.539l0.834,0.091l1.527,0.598l1.722,0.31l0.845,0.26l1.4,0.657l1.845,0.434l0.594,0.304l0.714,0.489l2.027,2.078
		l1.688,2.683l-1.775,2.42l-0.953,0.771l-0.532,0.045l-0.246-0.311l-0.338-0.964l-0.343-0.694l-0.071-0.392v-0.449l0.058-0.438
		l0.005-0.445l-0.154-0.451l-0.352-0.381l-0.689-0.426l-0.52,0.038l-0.292,0.108l-0.069,0.326l0.26,1.353l0.011,0.66l-0.106,0.638
		l-0.233,0.492l-0.324,0.436l-0.41,0.424l-0.239,0.33l-0.118,0.29l-0.062,0.688l-0.058,0.334l-0.23,0.492l-0.368,0.143h-0.644
		l-1.481-0.287l-0.67-0.057l-1.091,0.03l-0.525,0.456l-0.43,0.728l-1.435,5.864l0.011,0.343l-0.019,0.22l0.101,0.718l-1.047,1.076
		L614,396.82l-0.444,0.269l-0.053,0.371l0.202,0.503l0.385,2.155l0.244,6.138l-0.707,1.355l-1.967,1.863l-1.031,0.723l-0.979,0.519
		l-0.82,0.333l-0.659,0.158l-0.479,0.047l-1.602-0.105l-1.937-0.327l-0.453,0.279l0.011,0.201l0.094,0.41l0.539,1.467l-0.085,0.344
		l-0.474,0.126l-1.907-0.461l-0.566-0.214l-0.405-0.105l-0.136,0.119l-0.237,0.64l-0.239,0.137l-1.61,0.021l-1.211,0.188
		l-0.597,0.009l-0.371-0.043l-0.134-0.075l-0.251-0.1l-1.128-0.267l-0.541-0.218l-0.43-0.305l-0.599-0.698l-0.417-0.342
		l-0.399,0.009l-1.305,0.335l-0.366,0.145l-0.247,0.169l-0.127,0.237l-0.249,0.263l-0.228,0.006l-0.253-0.164l-0.175-0.207
		l-0.179-0.135l-0.187-0.085l-0.237-0.056l-0.23-0.073l-0.233-0.147l-0.277-0.26l-0.15-0.179l-0.675-0.632l-1.114,0.683
		l-1.131,1.176l-0.665,0.297l-1.057,0.199l-1.497,0.023l-0.958-0.083l-1.637,0.103l-0.502,0.12l-0.332,0.164l-2.593,3.504
		l-0.357,0.246l-0.484,0.151l-3.983,0.44l-0.592,0.186l-0.005,0.22l0.042,0.226l0.21,0.344l0.619,1.271L571.483,422.092z"/>
	<path class="st0" d="M684.539,422.472l-0.083,0.005l-0.752-0.074l-2.28-0.524l-0.676-0.361l-0.473-0.077l-0.201,0.142l-0.568,0.675
		l-0.423,0.219l-1.851,0.246l-2.191-0.039l-2.049-0.403l-1.423-0.841l-2.263,0.34l-2.798-1.495l-2.831-2.022l-2.383-1.247
		l-1.498-0.172l-4.897,0.172l-1.303-0.166l-2.669-0.711l-1.398-0.166l-2.622,0.302l-1.375,0.397l-0.908,0.569l-0.999,0.148
		l-9.028-2.192l-6.172-0.717l-3.14,0.124l-5.462,1.49l-2.608,0.376h-4.966l-1.475,0.21l-2.873,0.998l-1.514,0.326l-8.702-0.524
		l-8.858,0.755l-1.414,0.728l-1.495-0.062l-1.506-0.341l-1.425-0.104l-1.052,0.459l-2.21,1.8l-1.448,0.722l-1.615,0.411l-5.182,0.24
		l-0.032-1.661l-0.619-1.271l-0.21-0.344l-0.042-0.226l0.005-0.22l0.592-0.186l3.983-0.44l0.484-0.151l0.357-0.246l2.593-3.504
		l0.332-0.164l0.502-0.12l1.637-0.103l0.958,0.083l1.497-0.023l1.057-0.199l0.665-0.297l1.131-1.176l1.114-0.683l0.675,0.632
		l0.15,0.179l0.277,0.26l0.233,0.147l0.23,0.073l0.237,0.056l0.187,0.085l0.179,0.135l0.175,0.207l0.253,0.164l0.228-0.006
		l0.249-0.263l0.127-0.237l0.247-0.169l0.366-0.145l1.305-0.335l0.399-0.009l0.417,0.342l0.599,0.698l0.43,0.305l0.541,0.218
		l1.128,0.267l0.251,0.1l0.134,0.075l0.371,0.043l0.597-0.009l1.211-0.188l1.61-0.021l0.239-0.137l0.237-0.64l0.136-0.119
		l0.405,0.105l0.566,0.214l1.907,0.461l0.474-0.126l0.085-0.344l-0.539-1.467l-0.094-0.41l-0.011-0.201l0.453-0.279l1.937,0.327
		l1.602,0.105l0.479-0.047l0.659-0.158l0.82-0.333l0.979-0.519l1.031-0.723l1.967-1.863l0.707-1.355l-0.244-6.138l-0.385-2.155
		l-0.202-0.503l0.053-0.371L614,396.82l0.599-0.669l1.047-1.076l-0.101-0.718l0.019-0.22l-0.011-0.343l1.435-5.864l0.43-0.728
		l0.525-0.456l1.091-0.03l0.67,0.057l1.481,0.287h0.644l0.368-0.143l0.23-0.492l0.058-0.334l0.062-0.688l0.118-0.29l0.239-0.33
		l0.41-0.424l0.324-0.436l0.233-0.492l0.106-0.638l-0.011-0.66l-0.26-1.353l0.069-0.326l0.292-0.108l0.52-0.038l0.689,0.426
		l0.352,0.381l0.154,0.451l-0.005,0.445l-0.058,0.438v0.449l0.071,0.392l0.343,0.694l0.338,0.964l0.246,0.311l0.532-0.045
		l0.953-0.771l1.775-2.42l1.658-0.094l0.613,0.021l0.566,0.125l0.529,0.2l0.62,0.315l0.348,0.1l0.311-0.023l0.341-0.109l0.042,0.145
		l-0.065,0.304l-0.527,1.154l0.237,0.562l1.282-1.23l0.141-0.226l0.423-1.566l0.18-1.638l-0.453-1.1l-0.133-0.683l-0.177-0.232
		l-0.242-0.098l-0.035-0.191l0.163-0.249l1.062-0.713l0.87-0.774l0.339-0.213l1.225-0.504l0.163-0.374l-0.055-0.493l-0.486-1.174
		l-0.166-0.627l0.15-0.463l0.173-0.087l0.933,0.419l3.244,2.418l0.645,1.068l-0.295,0.762l0.223,0.283l0.507,0.21l1.19,0.109
		l0.841-0.013l0.469,0.087l0.171,0.191l-0.064,0.498l-0.172,0.345l-0.177,0.302l-0.175,0.215l-0.083,0.153l0.232,0.306l0.509,0.428
		l2.026,1.387l1.135,0.3l0.281,1.181l0.095,0.251l0.096,0.192l0.249,0.249l1.145,0.6l2.162,0.181l4.944-2.294l0.552-0.147
		l0.765-0.074l2.176,0.306l2.91-0.264l2.959-2.07l0.209-0.525l0.201-0.655l-0.361-0.796l-0.064-0.228l0.014-0.227l0.092-0.292
		l0.191-0.257l0.152-0.083l0.507,0.255l0.44,0.164l0.873,0.474l0.318-0.085l0.509-0.326l1.031-0.821l1.361-1.412l0.26-0.328
		l0.217-0.162l0.256-0.13l0.415-0.138l0.254-0.147l0.232-0.198l0.29-0.072l0.383,0.096l1.094,0.88l1.271,0.402l2.996-0.568
		l0.845-0.008l0.279-0.057l0.346-0.117l0.631-0.312l0.138,0.232l0.037,0.489l-0.223,1.791l-0.11,0.345l-0.118,0.104l-0.461,0.193
		l-0.255,0.151l-0.17,0.208l-0.141,0.266l-0.067,0.245l-0.108,0.242l-0.168,0.258l-0.249,0.207l-0.286,0.168l0.074,0.264
		l0.438,0.577l1.07,0.934l1.778,2.428l-0.636,0.521l-0.317,0.613l-0.284,0.226l-0.336,0.064l-0.64-0.226l-0.251-0.119l-0.346-0.075
		l-0.184,0.087l-0.117,0.236l-0.048,0.266l-0.009,0.36l-0.087,0.475l-0.271,0.588l-0.686,1.048l-0.79,0.651l-0.78,0.496
		l-0.861,0.347l-0.327,0.283l-0.124,0.205l0.274,0.622l0.723,1.489l0.168,1.203l-0.096,2.354l-0.115,0.394l-0.148,0.158
		l-0.225,0.175l-0.184,0.171l-0.18,0.273l-0.308,0.59l-0.073,0.328l0.035,0.465l0.391,1.744l0.346,1.049l0.164,0.311l0.348,0.97
		l0.058,0.105l0.125,0.147l0.652,0.473l-0.048,1.936l0.212,0.83l0.175,0.151l0.207,0.056l0.285,0.023l0.43,0.243l0.168,0.326
		l0.055,0.649l-0.113,0.395l-0.191,0.258l-1.619,0.811l-0.811,1.011l-0.285,0.179h-0.216l-0.928,0.399l0.095,2.702l0.313,1.099
		l0.902,1.503l0.428,0.517l1.472,1.379l4.149,5.84L684.539,422.472z"/>
</g>
<g id="Copyright">
	<text transform="matrix(1 0 0 1 681.6426 577.5916)" class="st1 st2"> Vemaps.com</text>
</g>
</svg>
