<?xml version="1.0" encoding="utf-8"?>
<!-- Generator: Adobe Illustrator 23.0.1, SVG Export Plug-In . SVG Version: 6.00 Build 0)  -->
<svg version="1.1" xmlns="http://www.w3.org/2000/svg" xmlns:xlink="http://www.w3.org/1999/xlink" x="0px" y="0px"
	 viewBox="0 0 800 600" style="enable-background:new 0 0 800 600;" xml:space="preserve">
<style type="text/css">
	.st0{fill:#808080;stroke:#FFFFFF;stroke-width:0.5;stroke-linecap:round;stroke-linejoin:round;}
	.st1{font-family:'Roboto-Regular';}
	.st2{font-size:14px;}
</style>
<g id="Denmark">
	<path class="st0" d="M193.672,530.497l-0.055,0.044l-1.395,0.474l-1.601-0.186l-1.903-1.804l-1.708,0.39l-1.034,0.931l-1.347,0.373
		l-0.917,0.957l-1.415,0.262l-6.89-0.025l-1.669-0.677l-0.693-1.947L172.762,527l-0.429-1.652l-1.581-1.407l-20.025-4.748
		l-7.417-3.054l-7.544-1.307l-2.205,0.339l-6.431,2.427l-3.484-0.153l-3.315-1.039l0.757-2.826l-0.699-1.116l1.268-4.541
		l-0.799-4.176l-1.506-4.058l-0.891-4.181l0.361-5.33l1.106-4.415l1.36-4.062l1.037-4.307l-10.043-1.801l-1.122,0.121l-0.354,1.371
		l-0.238,6.388l-0.592,0.826l-0.922,0.181l-1.206,1.369l-1.299,1.846l-1.46,0.859l-1.46-0.335l-1.291-1.812l-1.076-4.102l0.131-3.95
		l0.592-3.999l0.354-4.291l1.767-3.244l3.927-0.592l3.973,1.171l1.998,2.1l-1.268,0.337l-1.022,0.854l-1.644,2.186l0.292,1.849
		l5.625,0.827l5.148,1.23l1.906-0.773l-0.215-3.14l-1.737-5.632l-1.214-7.092l-0.707-7.086l0.184-1.902l0.845-2.335l0.192-1.431
		l-0.161-2.12l-1.06-4.161l-0.853-7.499l-0.692-3.553l-1.36-3.189l-2.374-1.89l-3.389-0.833l-6.293-0.169l-4.541-1.437l-3.85-3.62
		l-8.568-12.848l0.077-1.182l1.998-0.374v-1.047l-1.813-0.741l-2.167-0.184l-2.113,0.551l-1.637,1.421l-1.083,2.351l0.284,1.569
		l2.805,3.015l-0.876,0.21l-0.576,0.401l-1.199,1.67l2.182,0.4l2.567,1.676l2.151,2.489l0.891,2.881l-1.214,0.468l-11.303-9.442
		l-2.305-1.358l-5.533-1.025l-1.452-1.474l-0.115-2.479l5.31-14.263l1.783-6.479l1.183-6.894l0.161-6.799l-0.732-5.353l0.019,0
		l18.176-0.178l2.918,2.088l2.386,1.067l3.328,2.13l1.156,0.277l1.718-0.347l1.215-1.31l4.748-5.377l0.205-0.369l0.044-0.434
		l-0.161-0.512l-0.483-1.064l-0.058-0.543l0.483-0.478l0.673-0.434l0.834-0.217l0.864,0.026l0.922,0.634l0.981,0.382l1.132,0.213
		l1.581-0.313l1.552-0.691l0.995-0.148l3.079,0.812l6.636,4.733l1.615,0.499l3.059-0.964l1.522-0.972l-0.015-1.086l-0.498-2.849
		l1-1.529l1.434-4.955l3.455-1.731l4.63,0.435l2.859,2.692l3.767,4.924l1.303,0.999l3.235-0.356l1.015-0.96l1.215,0.152l0.834-2.112
		l0.498-0.887l0.834-0.974l0.849-0.652l1.717-0.478l1.596-1.322l4.382-5.59l2.576-5.264l3.562-0.784l8.851,2.953l2.986,1.872
		l2.376,2.141l4.791,6.038l0.717,1.235l0.132,0.865l0.307,1.212l0.556,1.555l2.108,2.545l2.391,4.055l1.317,1.684l1.493,0.512
		l3.342-0.391l1.801,0.386l0.454,0.95l-0.278,1.041l-0.395,0.967l-0.19,1.019l0.146,1.249l1.025,0.659l3.108,0.425l2.108,0.667
		l1.088,0.988l0.483,1.439l-0.088,1.482l-0.39,1.832l-0.004,0.02l-8.734-0.049l-2.213-1.091l-0.3,0.641l-0.177,0.464l-0.1,0.505
		l-0.069,0.784l1.967,0.948l6.793,0.095l1.229,0.757l4.887,5.062l1.007,1.988l0.684,1.797l0.953,1.307l1.875,0.51h9.029
		l-1.544,1.912l-4.902,3.89l-2.628,3.399l-1.276,0.877l-2.198,0.292l-0.799,0.72l-0.169,1.562l-0.031,1.562l-0.323,0.713l-5.947,1.5
		l-2.152,1.561l-1.306,0.36l-1.137-0.265l-2.121-0.923l-1.245,0.047l0.246,0.686l0.4,0.455l-1.368,1.947l-3.496,1.153l-1.591,1.458
		l1.66,1.051l1.775-0.115l4.649-1.221l0.861-0.522l0.907-0.251l5.456,2.97l0.384,1.878l-0.407,2.277l-1.037,1.992l-1.291,0.887
		l-3.197,0.65l-1.383,0.731l0.5,1.848l1.16,2.518l0.338,1.319l-0.261,1.867l-0.553,1.44l0.146,1.237l1.913,1.224l1.168,1.088
		l1.114,1.541l0.284,1.628l-1.291,1.31v1.236l0.968,1.1l3.496,6.019l1.16,0.499l1.122,1.086l0.4,2.717l-0.354,1.934l-0.669,1.193
		l-0.622,1.455l-0.292,2.667l-0.507,1.212l-1.214,0.848l-1.491,0.498l-1.291,0.168l-5.548-1.03l-1.276,0.35l-0.784,0.882
		l-0.622,1.097l-0.853,1.063l-2.274,1.44l-1.383,0.578l-1.206,0.229l-0.761,0.713v1.459l0.784,1.21h1.629v1.136l-2.782-0.094
		l-1.291,0.329l-1.153,1.001l0.953,0.712l1.183,0.282l2.728,0.027l1.253,0.605l1.368,1.485l2.244,3.545l-2.443,3.228l-1.614,1.53
		l-1.752,0.966l-4.311,0.879l-1.706,1.287l0.807,2.333l1.168,0.034l5.348-2.172l2.405,0.161l0.807-0.161l0.692-0.536l0.661-0.791
		l0.784-0.718l1.076-0.315l2.044,0.872l3.804,4.23l1.959,1.648l5.187,1.407l1.268,0.944l0.722,2.397l2.09,12.475l0.23,0.742
		l-0.154,0.501l-0.907,0.721l-1.406,0.04l-1.329-0.802l-1.091-0.154l-0.753,2.038l1.183,0.394l1.122,0.708l0.938,0.975l0.63,1.188
		l0.361,1.382l0.184,1.902l-0.407,1.681l-1.391,0.734l-1.099-0.707l-1.345-3.069l-0.822-0.708l-3.926,0.294l-1.222-0.294
		l-1.775-1.055l0.131-0.654l0.768-0.628l0.169-1.022l-1.667-2.445l-0.622-1.477l0.676-0.668l2.52-0.982l-0.507-1.885l-2.251-1.304
		l-2.666,0.816l-0.522,0.976l-1.245,3.342l-1.06,1.824l-0.592,1.249l-0.438,0.554l-0.715,0.234l-1.529-0.227l-0.661,0.554
		l-1.614,1.903l-3.934,3.364l-1.275,2.015l-0.622,3.454L193.672,530.497z M289.292,515.833l1.552,1.517l1.798,1.129l1.276,1.496
		l-0.046,2.577l0.891,0.648l0.984,0.48l-7.407,1.722l-2.029,2.241l-1.168,0.514l-2.152-0.994l-16.244-17.827l-1.537-3.7l-0.561-2.57
		l1.383,1.546l8.014,4.496l2.359,2.14l2.221,3.583l1.168,1.51l1.383,0.608l1.429-0.007l1.13-0.394l0.423-1.316l-0.661-2.767
		l1.345,1.958l1.145,4.91l1.022,0.982l1.959,0.02l1.337-0.347l0.254-1.309L289.292,515.833z M247.86,503.387l1.368,2.59
		l3.704,11.333l-0.061,1.61l-1.322,0.354l-2.689-0.08l-1.406,0.741l-1.844,1.462l-1.844,1.048l-1.36-0.507l-1.552-1.362
		l-4.349-1.376l-1.591-1.129v-1.122l2.513-1.263l2.966,1.296l2.981,2.111l2.613,1.222v-1.122l-4.518-3.988l-4.288-1.537
		l-0.976-0.087l-0.945,0.361l-1.36,1.357l-0.922,0.535l-3.688-0.207l-3.189-2.586l-1.859-4.313l0.3-5.34h-0.592v-1.024l2.09,1.466
		l2.244,2.577l2.205,1.927l1.898-0.448l-0.4-0.582l-0.622-1.124l-0.369-1.084l0.369-0.482l0.515-0.361l-0.653-0.803l-3.919-2.799
		l-0.653-1.313l1.16-1.574v-1.126l-7.415,0.704l-1.291-0.141l-0.937-0.724l-1.145-0.168l-1.007-0.415l-0.507-1.508l0.338-0.731
		l1.783-1.341l0.507-1.301l-1.737,0.081l-1.568,0.604l-1.521,0.275l-1.614-0.959v-1.214l8.329-3.986l3.335-0.524l3.919,0.765
		l5.625,6.702l2.997,1.629l4.18,0.664l3.012,1.836l2.42,2.847L247.86,503.387z M327.513,492.138l0.661-4.655l3.166-8.158
		l3.658-6.299l2.121,0.982l-4.51,20.376l-1.798,5.407l-4.926,9.892l-9.129,30.313l-0.922,2.017l-1.299,0.699l-2.236,0.08
		l-1.13-1.557l-2.405-9.632l-1.03-1.793l-1.268-1.447l-2.928-2.441l2.29-0.16l1.468-0.641l1.191-1.381l1.491-2.403l0.876-2.751
		l0.553-0.788l0.891,0.835l0.476,0.26l2.413-0.821l-0.215-1.623l-0.415-1.844l-0.83,0.708l-0.815,0.234l-0.799-0.234l-0.845-0.708
		l1.329-3.951l2.005-2.93l5.271-6.151l2.275-1.647L327.513,492.138z M102.924,442.247l-2.336,0.946l-2.49-2.622l-2.167-4.07
		l-2.966-7.883l-0.63-3.596l0.953-2.371l3.197-0.854l0.353,4.946l1.568,0.86l1.921-0.332l1.368,1.347l-0.031,1.95l-1.214,3.715
		l0.254,1.664l0.715,1.826l0.661,3.103L102.924,442.247z M309.694,488.771h-4.234l-1.575,0.282l-1.76,0.832l-1.629,1.261
		l-1.176,1.609l-1.714,1.71l-2.021-0.261l-3.711-2.065l-6.316-0.51l-2.059-0.617l-0.914-0.63l-0.738-0.745l-0.83-0.611l-1.099-0.255
		l-2.359,0.228l-1.245-0.128l-7.415-4.711l-2.735-0.242l-0.722,1.255l-0.054,3.597l-1.429-1.087l-2.221-2.604l-1.567-0.92
		l-1.936-0.04l-3.565,0.906l-1.66-0.866l7.238-5.541l1.268-2.359l-1.637-2.346l-1.183-2.704l-1.245-2.173l-1.79-0.767l-1.421,0.41
		l-1.076,0.606l-1.106,0.417l-1.56-0.202l-2.144-2.201l-1.229-0.505l-1.137,1.474l0.277,2.584l3.273,5.023l-0.33,2.755l-0.469,0.208
		l-3.32-0.544l-0.246-0.47l0.138-0.672l-0.023-0.894l0.269,0.121l0.261-0.665l-0.092-1.398l-1.368-3.665l-0.215-1.77l0.215-1.743
		l0.607-1.595l-0.115-1.313l-1.452-0.882l-3.788-0.956l-1.191-0.755l-1.06-0.93l-0.453-0.809l-0.2-0.903l-0.876-1.496l-0.215-0.998
		l0.215-1.011l0.876-1.497l0.2-0.931l-0.2-1.821l-0.876-2.909l-0.215-0.938l0.292-5.714l-0.968-0.743l-1.475-0.122l-2.743,0.297
		l-1.253-0.487l-1.337-1.19l-2.298-2.975l1.59-0.595l1.767-0.216l1.552-0.622l0.945-1.86l-5.156-2.274l0.776,0.162l2.443-0.162
		l-0.976-1.95l-1.721-1.056l-3.75-0.508l-1.322-0.549l-3.197-3.99v-1.044l2.528,1.152l2.666,2.331l2.628,1.714l2.444-0.643
		l-9.328-8.323l-3.504-0.773l0.722-1.73l0.907-0.692l1.06-0.366l1.23-0.733l3.527-4.562l5.095-1.025l1.729,0.312l0.323,0.883
		l0.046,1.399l0.83,1.853l4.541,2.491l4.918-1.758l9.352-6.43l12.21-4.091l4.157-3.073l2.328-0.816l2.536-0.184l0.753,0.184
		l0.061,0.503l0.592,2.373l0.046,0.537l1.329-0.496l0.33-1.265l-0.315-3.421l1.306-0.354l2.905,1.361l6.516,4.535l1.475,1.828
		l1.168,2.052l0.83,1.094l0.891,0.482l1.729,0.211l1.568,0.591l2.858,2.01l-1.544-0.625h-1.475l-1.091,0.869l-0.43,1.962
		l0.346,0.733l1.391,1.12l0.2,0.997l-0.492,1.391l-0.776,0.38l-0.945,0.061l-1.014,0.448l-3.535,5.104l1.552,2.778l3.35-0.156
		l1.86-3.699l1.06,0.285l6.086-3.179l3.573-1.132l0.415-0.522l-0.184-1.139l-0.461-1.14l-0.438-0.516l-0.845-0.224l-0.907-0.57
		l-0.761-0.767l-0.392-0.821l0.277-1.466l1.176,0.55l1.253,1.29l0.522,0.767l1.199-1.853l-0.307-2.627l-0.914-2.934l-0.622-2.847
		l0.461,0.768l1.46,1.515l0.039-2.814l-0.622-4.148l0.015-1.122l1.798-0.102l2.766,3.129l4.457,7.448l0.184,1.066l0.092,1.487
		l0.207,1.324l0.484,0.57l0.23,0.367l2.013,2.015l0.599,2.3l-0.2,1.343l-0.876,0.936l-2.751,1.79l-4.388,1.904l-6.524-0.61
		l-1.614,0.352l-1.122,0.989l-0.507,2.12l0.876,1.056l1.521,0.061l1.398-0.867l-0.438-0.86l-0.1-0.528l0.699-1.707l1.867,0.467
		l6.347,1.49l1.414,1.273l9.321,13.586l0.607,1.46l2.39,7.166l0.561,2.706h-0.699l-1.114-1.755l-1.721-1.134l-1.568,0.459
		l-0.691,2.956l0.538,2.03l2.52,4.046l0.753,2.46l0.177,3.563l-0.238,3.272l-0.63,2.793l-1.437,3.383l-0.277,1.23l-0.115,3.307
		l-0.307,0.867l-2.321,3.124l-0.891,2.015l-0.63,1.88l-0.853,1.624l-1.498,1.248l-1.153,0.282L309.694,488.771z"/>
	<path class="st0" d="M74.522,366.082l-3.778-27.699l-0.461-1.71l-0.277-0.35l-0.092-0.803l0.092-0.783l0.277-0.357l0.569,0.192
		l0.254,0.433l0.161,0.433l0.277,0.192l0.615,0.893l2.351,12.931l1.69,4.46l0.246,1.862l-0.223,1.609l-0.922,2.306l-0.208,1.875
		l0.323,2.305l0.807,0.472l4.242-2.394l4.51-3.599l2.129-0.76l3.681-2.916l3.765-3.966l0.53-2.741l-0.607-2.921l-1.322-2.853
		l-1.506-2.573l-3.535-4.614v-5.236l-1.076-6.065l-2.428-3.882l-3.273-2.362l-7.285-3.341l-1.975-0.269l-0.853,1.426l0.092,7.229
		l-0.161,3.426l-0.576,3.837l0.346,2.811l-0.254,1.085l-1.383-0.44l-0.392-0.893l-0.407-1.759l-0.354-2.035l-0.43-12.27l0.292-3.824
		l2.282-10.595l0.3-3.991l-1.076-59.035l0.4-2.872l0.676-2.951l4.242-14.836l1.913-4.61l1.406-2.226l0.576,0.455l0.377,1.505
		l0.868,0.854l-0.069,1.217l-2.121,5.573l-0.738,1.531v1.174l0.584,0.587l0.638,0.314l1.706,0.168l0.323,0.733l0.369,1.655
		l0.499,1.655l0.768,0.74l3.873,0.705l1.037,0.719l-1.36,0.824l0.346,1.577l-0.254,2.762l0.553,1.611l0.853,0.676l0.738-0.432
		l0.269-1.157l-0.569-1.43v-1.172l2.974-0.984l4.587-0.126l4.195,0.865l1.829,2.002l0.876,0.286l4.672,3.806l1.306-0.599
		l1.214-1.485l1.014-1.917l0.707-1.848h0.584l2.858,8.052l0.077,1.31l-0.361,0.724l0.146,1.616l0.615,1.601l1.545,1.253l1.844,2.408
		l1.083,0.682l1.614-0.028l5.763-1.252l0.622-0.313l0.507-0.856l0.33-1.315l0.131-1.594l0.023-2.5l0.123-1.693l0.553-3.512
		l0.407-0.983l0.499-0.397l0.2-0.558l-0.469-1.471l-2.928-2.344l-0.945-0.091l-0.715-0.412l-0.43-0.879l-0.138-1.487l-0.423-1.522
		l-1.606-0.866l0.038-1.76l1.252-1.152l4.319-0.293l6.093-10.396l1.421-0.847l3.881-1.218l5.21-0.231l0.184-0.378l-2.259-0.854
		l-4.126-0.14l-0.968-0.959l0.876-3.068l1.383-2.698l1.122-1.458l3.005-2.257l4.464-4.405l1.752-0.414l1.03,0.21l1.744,0.877
		l1.06,0.21l1.106-0.309l0.576-0.716l0.461-0.821l0.753-0.632l1.66-0.063l2.167,0.716l1.875,1.432l0.807,2.091l0.561,4.032
		l1.322,2.39l1.521,1.689l1.16,1.94l1.245,3.627l-2.628,0.658l-2.774,4.464l-2.397,0.65v1.28l0.384,1.566l-1.022,1.517l-2.582,2.683
		l-0.884,2.431l-0.108,2.171l0.392,5.45l0.715,1.653l1.552-0.279l1.552-1.834l1.26-5.611l1.398-0.384l1.706,0.342l1.491-0.328
		l-0.592-1.641l-0.761-0.608l-0.907,0.21l-0.96,0.768l0.715-1.872l0.738-1.341l0.661-1.481l0.461-2.341h0.645l-0.569,3.858
		l2.467,0.587l3.366-0.587l2.121,0.294l1.283,0.88l1.437-0.293l1.299,0.133l0.861,2.165l-0.277,1.683l-2.167,3.19l-0.861,2.253
		l1.03,0.419l0.2,0.753l0.061,1.039l0.645,1.304l0.922,0.941l2.367,1.394l0.384,0.711l0.23,0.927l0.4,0.732l0.922,0.084l1.36-2.864
		l0.576-0.857l1.337,1.255l1.153-1.366l-0.031-2.168l-2.113-1.13l-2.928,1.757l-0.184,0.523l-0.43,0.153l-0.999-0.091l-0.807-0.467
		l-0.054-0.99l0.284-0.823l0.253-0.063l0.169-6.371l1.552-5.489l0.845-4.865l6.768,3.366l3.562,1.943l2.279-3.896l-0.834-2.411
		l0.761-1.701l2.728,0.222l1.4,1.563l-0.586,4.098l2.62,2.951l10.735,0.12l1.849,1.809l-2.459,2.86l-0.678,3.744l1.81,0.602
		l3.084-1.71l4.674,5.372l4.143-1.125l2.532,1.412l1.596,0.367l3.928-0.629l3.142-3.724l3.757-2.206l2.298-0.714l5.626-0.66
		l6.47-4.052l3.147-4.49l4.391-3.711l3.137-3.557l4.603,0.896l3.927-0.238l2.528-1.567l2.259-0.854l1.752,3.785l0.461,5.684
		l-1.637,4.876l-6.362,4.914l-4.687,5.329l-0.845,0.397l-0.669,5.568l-0.323,1.56l0.715,1.943l-0.438,2.457l-1.068,2.268
		l-1.145,1.391l2.905-0.153l1.083-0.904l-0.115-6.48l0.3-4.702l0.953-2.279l3.957-3.012l3.127-4.228l1.667-1.131l1.944,1.256
		l0.338,1.089l0.507,3.676l0.092,1.095l0.415,0.565l2.797,2.356l7.085,4.069l7.707,0.912l22.43-3.559l3.135,0.362l3.089,1.728
		l1.406,1.616l3.043,5.388l5.855,5.946v1.063l-2.19,2.168l-1.176,3.931l-0.469,4.54l-0.085,4.023l-1.037,3.785l-8.691,12.443
		l-4.403,3.05l-1.66,2.323l-0.507,2.253l0.246,5.277l-1.322,5.162l-2.981,0.621l-3.289-2.428l-2.198-3.934l2.428-0.414l0.999-0.918
		l0.492-2.148l-0.261-2.266l-0.953-0.691l-1.229-0.221l-1.13-0.871l-2.267-0.816l-2.344,2.806l-2.129,3.703l-3.027,3.563
		l0.661,3.947l1.245,4.317l0.415,2.853l-0.922,1.185l-1.506,0.737l-1.606,0.186l-1.176-0.434l-0.953-1.406l-0.938-3.246
		l-0.691-1.655l0.753-0.807l1.598-1.166l0.876-0.345l-0.676-1.89l-0.83-0.904l-3.904-1.18l-0.861,0.166l-2.105,1.387l-2.643,0.518
		l-1.629-1.325l-1.437-2.375l-2.036-2.61l2.105-0.214l3.158-2.577l1.775-0.677l1.337,0.995l1.637,1.769l1.614,0.656l1.268-2.37
		l-1.598-2.709l0.108-2.116l2.766-5.624l-1.276,0.021l-1.36-0.554l-1.245-1.011l-0.945-1.302l-1.037-0.706l-2.443,1.149l-1.299-1.08
		l-0.353,2.278l-0.515,1.419l-0.83,0.74l-1.314,0.208l-0.691,0.913l-2.536,5.581l-2.305,2.985l-5.102,4.227l-2.29,3.21l-1.322,3.974
		l0.63,2.482l1.56,2.316l1.475,3.479l0.622,4.283l-0.392,3.262l-1.16,2.958l-1.706,3.362l2.267-1.114l1.66-0.206l0.453,1.196
		l-2.367,5.325l-0.23,2.156l0.154,4.262l-0.085,2.943l-0.138,1.296l-0.369,1.419l-2.267,2.981l-0.361,1.192l-0.461-0.007
		l-1.022,0.671l-1.099,1.041l-0.646,1.007l0.469,0.432l0.684,1.657l0.361,1.78l-0.83,1.218l-0.307,0.821l-0.492,0.828l-0.891,0.369
		l-1.16-0.308l-0.884-0.807l-1.468-2.333l-0.423-1.088l-0.277-1.246l-0.407-1.246l-0.876-1.109l-1.199-0.425l-9.175,0.425
		l-1.222,0.425l-0.761,1l-0.592,1.15l-0.653,0.863l-2.451,0.986l-4.979-0.301l-2.298,0.568l2.374,2.648l13.508,2.996l0.953,0.752
		l-0.338,1.771l-1.56,3.424l-0.784,2.931l0.23,1.291l1.314,0.307l2.466-0.061v1.161l-3.873,2.218l-1.13,1.883l1.076,2.762
		l-0.354,0.286l-0.876,0.961l-2.221-1.391l-10.373,3.048l-4.726,2.556l-2.789,0.252l-5.786-2.29l-3.335-2.959l-0.861-0.464
		l-1.04-0.006l0.004-0.02l0.39-1.832l0.088-1.482l-0.483-1.439l-1.088-0.988l-2.108-0.667l-3.108-0.425l-1.025-0.659l-0.146-1.249
		l0.19-1.019l0.395-0.967l0.278-1.041l-0.454-0.95l-1.801-0.386l-3.342,0.391l-1.493-0.512l-1.317-1.684l-2.391-4.055l-2.108-2.545
		l-0.556-1.555l-0.307-1.212l-0.132-0.865l-0.717-1.235l-4.791-6.038l-2.376-2.141l-2.986-1.872l-8.851-2.953l-3.562,0.784
		l-2.576,5.264l-4.382,5.59l-1.596,1.322l-1.717,0.478l-0.849,0.652l-0.834,0.974l-0.498,0.887l-0.834,2.112l-1.215-0.152
		l-1.015,0.96l-3.235,0.356l-1.303-0.999l-3.767-4.924l-2.859-2.692l-4.63-0.435l-3.455,1.731l-1.434,4.955l-1,1.529l0.498,2.849
		l0.015,1.086l-1.522,0.972l-3.059,0.964l-1.615-0.499l-6.636-4.733l-3.079-0.812l-0.995,0.148l-1.552,0.691l-1.581,0.313
		l-1.132-0.213l-0.981-0.382l-0.922-0.634l-0.864-0.026l-0.834,0.217l-0.673,0.434l-0.483,0.478l0.058,0.543l0.483,1.064
		l0.161,0.512l-0.044,0.434l-0.205,0.369l-4.748,5.377l-1.215,1.31l-1.718,0.347l-1.156-0.277l-3.328-2.13l-2.386-1.067
		l-2.918-2.088l-18.176,0.178L74.522,366.082z M299.604,355.187l1.291-2.116l0.753-2.638l-0.077-2.865l-1.26-2.825l-1.729-1.255
		l-1.913-0.823l-1.222-1.791l0.3-4.201l0.968-2.204l1.429-1.484l1.214,0.371l0.699,7.079l1.514,2.923l2.129,1.9l2.405,0.741
		l-0.838,1.666l-0.376,1.789l0.092,1.775l0.476,1.672l1.629,2.315l1.13-0.671l0.807-1.794l0.669-1l0.284,1.123l-1.345,2.465
		l-2.528,3.299l-0.469,3.038l0.1,5.607l-0.922,2.938l-3.058,2.868l-3.312-0.915l-2.536-3.921l-0.822-6.167l0.538-3.407l0.983-1.41
		l1.368-0.712L299.604,355.187z M389.569,214.144l-0.254-2.526l1.068-0.903l8.053-0.861l4.088-1.59v1.288l-0.4,0.028l-0.307,0.231
		l-0.584,0.805l-1.675,0.798l-1.299,1.75l-1.107,1.945l-1.083,1.483l-1.591,0.65l-1.936-0.21l-1.806-1.042L389.569,214.144z"/>
	<path class="st0" d="M183.145,218.62l-0.008-0.035l-1.913-4.442l-0.922-1.05l-0.492-0.392l-1.875,0.259l-3.796,1.763l-0.937,1.343
		l-2.044,1.322l-1.998,0.126l-0.83-2.203l1.06-2.078l4.349-2.667l0.984-2.892l0.538-2.41l-0.192-1.191l-2.359-0.841l-0.968-0.855
		l-0.822-1.143l-0.645-1.199l-0.499-1.136l-0.538-1.747l-0.354-2.056l0.1-2.134l0.484-0.569l2.167-3.434l0.246-0.815l0.446-0.892
		l-0.077-2.003l-0.446-1.982l-0.599-0.907l-1.107-0.232l-0.837-0.591l-1.521-1.646l1.76-4.32l1.767-3.429l1.913-2.797l2.928-3.03
		l0.661-0.395l0.707-0.24l0.822-0.071l0.499-0.55l0.523-2.454l0.307-0.55l14-4.728l3.12,0.099l11.019,4.629v1.291l-1.206,0.811
		l-0.085,1.072l0.73,1.015l1.268,0.656l1.291-0.12l0.922-0.895l3.443-5.501l1.56-3.133l1.729-2.478l3.704-1.377l3.12-1.999
		l4.518,1.187l10.074-1.187l-5.586-5.23l-2.828-1.075l-1.913-1.627l-1.014-0.375l-0.761,0.424l-3.319,4.547l-1.813,1.908
		l-2.013,0.961l-1.767-1.371l-1.706-1.739l-1.798,0.488l-3.304,3.088l-3.804,1.611l-8.199,0.127l-21.607,7.836l-1.867,0.183
		l-1.79-0.811l-10.566-8.946l0.599,2.289l-0.761,1.172l-3.112,1.285l-2.305,1.751l-1.206,0.593l-1.598,0.028l0.592-1.087
		l-1.698-1.101l-1.629,0.367l-1.614,1.313l-1.56,1.786l-1.529-0.169l-1.936,1.912l-1.644,2.074l-0.699,0.331l-0.807-2.32
		l-1.875-0.896l-2.152,0.233l-1.614,1.1l1.383,1.502l-3.427,3.222l-4.687,2.495l-3.366-1.001l-2.213,0.486l-2.213,1.022
		l-1.014,1.254l-0.515,3.352l-1.268,2.041l-1.491,1.548l-1.229,1.914l-0.538,4.922l-0.108,0.394l-0.161,1.497l-0.438,0.864
		l-0.622,0.717l-2.997,4.677l-2.128,0.19l-1.014,0.484l-0.43,0.99l-0.707,0.695l-1.552,0.632l-1.552,1.179l-0.707,2.259l0.807,5.839
		l-0.092,2.732l-1.421,1.59v1.064l3.773-0.385l0.868,0.385l0.707,2.093l-0.569,1.462l-1.229,0.868l-1.229,0.273l-1.106-0.357
		l-2.213-1.616l-1.222-0.378l-1.13,0.336l-1.89,1.553l-1.199,0.462v1.28l4.503-1.28l1.352,0.441l1.982,1.567l0.922,0.343
		l6.662-2.917l1.391,0.567l0.261,1.259l-0.261,3.273v1.447l1.422,2.278l0.638,1.642l-1.398,2.521l-0.968,1.208l-1.268,0.551
		l-1.337,0.209l-0.83,0.544l0.038,0.726l1.183,0.768l-1.913,0.042l-2.628-2.443l-2.313-3.142l-0.999-2.033l-0.861-2.558
		l-2.121-2.062l-2.651-1.377l-2.421-0.503l-1.675-0.902l-1.998-2.183l-1.86-2.659l-1.229-2.366l-1.053-6.207l-0.599-0.953
		l-1.283-0.449l-2.659-1.781l-1.567-0.126l1.36,6.35l0.484,3.719l-0.23,2.331l-1.406,0.238l-0.715-3.619l-0.2-7.946l1.106-7.113
		l2.121-5.315l16.936-27.807l5.087-5.322l7.807-12.46l2.997-2.866l3.381,0.064l7.868,2.802l4.418,0.276l8.537-1.967l3.796-1.967
		l4.533-5.07l1.691-0.779l23.621,3.471l8.583-1.034l8.552-3.202l8.091-5.501l7.123-8.005l20.316-37.873l3.589-5.381l6.508-7.317
		l3.258-6.315l1.253-0.888l2.251-3.325l4.572-0.925l8.714,0.645l8.491-1.455l7.738-3.471l6.708-4.952l11.511-12.009l6.286-4.749
		l2.551-0.993L303.062,30l2.736,0.648l2.259,1.857l-5.148,1.965l-4.902,4.769l-7.746,12.068l-2.835,10.576l2.636,7.933l4.78,7.28
		l3.55,8.557l-2.751,7.711l0.046,9.126l1.998,17.901l-1.614,2.612l-4.826,3.59l-2.275,2.837l-3.335,7.043l-1.506,4.729l-1.084,7.483
		l-2.344,8.349l-1.137,2.76L278.765,161l-0.768,0.677l-1.03,0.317l-4.457-0.063l-1.368,0.353l-1.721,0.522l-7.907-5.377
		l-5.855-6.363l-3.896-1.604l-3.15-3.252l-2.336-0.743l-1.906,1.082l-2.674,4.396l-1.814,0.452l1.752,0.219l1.99-2.586l1.66-1.188
		l1.683-0.841l1.952,0.834l9.313,9.889l3.089,1.539l3.627,3.33l2.075,0.755l7.623,0.19l1.76,0.994l-2.651,3.32l-0.576,1.416
		l-0.453,2.289l-0.515,4.717l-0.323,1.267l0.684,2.828l1.03,8.814l0.407,6.936l0.668,3.662l2.321,7.303l0.799,1.149l0.922,1.008
		l0.223,1.134l-1.299,1.512l-0.768,0.056l-2.221-1.043l-1.191-0.287h-4.249l-1.483,0.665l-1.698,1.68l-1.591-1.701l-1.783-1.344
		l-2.044-0.399l-2.382,1.099l-2.105,1.694l-0.884,0.357l-1.521,0.294l-1.429,0.707l-2.912,2.4l-3.458,1.259l-4.28,3.23
		l-13.186,1.908v1.174l4.288,0.768l14.177-4.396l3.158-1.979l1.383-0.371l0.315-0.371l0.054-0.804l0.184-0.804l0.699-0.371
		l0.768,0.203l1.26,0.881l0.592,0.196l1.014-0.252l1.16-0.693l0.961-0.965l0.407-1.127l0.63-2.324l1.491-0.35l3.097,1.008
		l-0.238,0.63l-0.476,1.624l1.644,0.322l-3.137,3.557l-4.391,3.711l-3.147,4.49l-6.47,4.052l-5.626,0.66l-2.298,0.714l-3.757,2.206
		l-3.142,3.724l-3.928,0.629l-1.596-0.367l-2.532-1.412l-4.143,1.125l-4.674-5.372l-3.084,1.71l-1.81-0.602l0.678-3.744l2.459-2.86
		l-1.849-1.809l-10.735-0.12l-2.62-2.951l0.586-4.098l-1.4-1.563l-2.728-0.222l-0.761,1.701l0.834,2.411l-2.279,3.896l-3.562-1.943
		L183.145,218.62z M135.919,205.819l-1.245,1.597l-3.911,3.2l-0.484,2.968l-7.53,2.085l-2.643,1.455l-0.938-0.504l-2.52-5.654
		l-1.03-1.414l-2.321-2.465l-2.267-1.163l-0.599-0.105l-2.928,1.128l-0.968-0.161l0.323-2.039l0.446-0.862l0.707-0.736l0.845-0.547
		l0.891-0.21l0.43-0.757l-0.154-1.662l-0.338-1.634l-0.261-0.659l2.62-1.979l6.685-0.947l2.359-3.068l-1.183,0.119l-1.176-0.126
		l-1.114-0.379l-1.03-0.681l0.53-1.643l1.89-2.557l0.792-1.813l-0.307,0.141l-0.2-1.42l-0.123-2.841l0.3-0.605l0.73-0.049
		l0.838,0.12l0.646-0.056l2.712-1.027l5.54-0.929l2.766-1.576l2.067,0.725l1.898-2.492l3.181-6.614l2.167,1.409l1.383-1.938
		l1.06-2.263l1.191,0.423l-0.546,1.396l-1.107,2.156l-0.277,1.282l0.184,0.747l0.945,2.408l0.215,1.464l-0.215,0.366l-1.13,5.643
		l-0.761,2.152l-0.484,0.78l-0.692,0.598l-0.023-2.053l-0.476-1.322l-0.722-0.816l-0.715-0.52l-2.236,1.843l-0.392,0.626l-0.3,1.821
		l0.246,1.11l0.43,0.801l0.323,0.885l0.768,5.752l0.83,1.769l1.621,0.716l-0.599,0.863l-0.599,0.393l-0.669,0.091l-0.761-0.049
		l0.699,0.505l0.638,0.66l-1.252,1.922l-1.422,3.905L135.919,205.819z M354.645,103.686l2.605-0.064l1.091,0.42l0.815,0.84
		l0.676,2.12l-0.073,1.846l-0.698,1.492l-2.1-0.436l-2.233-0.8l-7.238,1.752l1.521,1.301l1.083,2.6l-0.289,2.83l-2.26,2.517
		l-1.289,2.121l-0.791,2.352l-1.539,1.883l-2.921,0.698l-1.883-1.538l-2.469-4.708l-3.331-0.635l-2.619-1.392l-1.671-1.62
		l-1.521-1.748v-1.094l3.157-0.692l3.101-3.042l2.392-2.161l3.802-0.236l2.192-0.678l1.665-1.891l7.007,0.048L354.645,103.686z"/>
	<path class="st0" d="M421.012,543.345l-1.076,1.204l-0.968,0.399l-0.837,0.559l-0.73,1.749l3.727,1.662l-0.361,3.529l-3.012,3.448
		l-4.211,1.394l-14.692-3.241l-4.764,1.109l-4.518,2.132l-3.573,3.332l-2.129-0.365l-8.79-5.252l-5.763-5.063l-10.381-6.651
		l-4.68-1.038l-5.056-2.376l-5.11-1.232l-2.005-1.798l-0.953-2.478l0.615-2.766l2.367-1.393l2.882,0.467l2.682-0.213l1.744-3.428
		l-1.529-0.574l-1.283-1.001l-5.018-6.288l-0.607-1.102v-2.826l1.283-2.607l3.927-4.755l1.337,0.662l13.555-2.81l2.298,1.097
		l4.48,3.639l1.66,0.776l1.683,1.411l2.835,6.247l2.251,1.409l2.267,0.521l16.805,9.547l-0.907-2.854l-1.091-1.774l-0.077-1.414
		l2.075-1.789h2.582l2.29-1.068l0.938-0.147l-0.853-1.783l-0.23-2.05l0.146-2.078l0.292-1.844l7.208,6.594l0.584,2.377l2.236,2.91
		l1.421,1.121l1.568,0.454l-0.953,0.907l-0.4,0.214l1.383,2.92l4.733,3.945l1.03,1.572l0.254,2.677l0.392,1.205v0.958
		L421.012,543.345z M475.015,494.384l8.268,1.723l3.104,2.861l1.521,5.645l-0.184,1.793l-0.861,0.99l-1.552,0.408l-2.213,0.08
		l-11.157-2.449l-3.419,0.502l-3.25,1.505l-3.204,2.682l-5.025,6.884l-1.798,1.062l-2.743-0.461l-6.017-3.007v-1.023h1.337
		l-0.423-1.678l0.4-1.297l0.876-0.923l1.03-0.589l-0.476-0.488l-0.899-1.284l-0.507-0.462l2.098-2.382l1.229-0.616l1.191,0.75
		l0.692-1.225l-0.692-2.25l1.522,0.141l2.282,1.594l1.406,0.515l0.945-0.181l3.074-1.285l1.145-0.784l-0.507-1.627l-0.023-1.326
		l0.415-0.985l0.807-0.563v-1.126l-3.081-2.212l-0.837-1.16l-0.484-1.65l0.323-1.134l1.037-0.584h1.706l2.052,3.662l3.166,1.448
		L475.015,494.384z M469.543,399.074l-2.634,1.536l-1.821,1.91l-6.009,6.298l-0.015,0.02l-4.733,9.779l2.528,8.762l4.587,4.102
		l1.614,0.548l5.809,0.413l1.583,0.724l4.088,3.484l2.136,2.569l0.93,2.46l0.161,2.851l0.43,2.404l1.337,4.468l-1.398,1.754
		l-0.53,0.519l-4.926,3.52l-19.794,4.657l-1.491,1.63l-2.421,1.549l-1.913,2.801l-1.137,3.364l0.561,2.811l-0.715,1.425
		l-0.799,0.605l-0.838-0.134l-0.884-0.766l0.699-3.551l-1.083-2.247l-1.913-0.619l-1.852,1.346l-0.845,0.807l-0.738,0.283
		l-0.507,0.578l-0.207,1.708l0.515,0.679l2.712,2.138l7.922,0.692l3.596,1.223l0.791,3.829l-0.53,1.625l-0.599,0.685l-0.692,0.349
		l-0.814,0.624l-1.952,1.081l-0.938,0.872l0.684,0.403l3.55,7.866l-0.1,3.129l-1.26,1.688l-1.936,0.683l-2.213,0.127l-1.46,0.583
		l-3.173,2.45l-2.167,0.442l-3.296-1.386l-5.118-4.869l-3.181-0.596l-0.061,0.784l0.154,0.188l0.254-0.007l0.284,0.161l-0.515,0.322
		l-0.284,0.382l-0.353,0.335l-0.707,0.188l0.415,3.134l-0.676,1.874l-0.884,1.619l-0.207,2.355l0.691,1.839l1.245,1.09l1.429,0.174
		l1.199-0.949l-0.246-0.602l-0.461-1.552l0.822-0.107l2.405-1.104l0.768,0.916l1.345,3.016l0.184,0.649l0.876,0.655l3.066,3.007
		l1.552,0.822l1.752-0.22l1.829-0.575l1.714-0.04l1.452,1.396l2.651,4.047l2.859,3.344v1.021l-8.353,6.861l-1.375,1.579
		l-3.696,7.079l-0.499,1.351l-0.945,0.685l-2.536,3.073l-0.999,0.705l-1.375,2.274l-0.046,5.183l1.06,9.253l-0.23,5.841L430.817,570
		l-1.967-2.506l-0.43-2.307l-1.352-1.857l-3.089-6.106l-0.707-2.065l0.138-3.388l1.137-2.625l2.597-4.123l-1.913-0.412l-1.329-0.905
		l-0.331-1.67l0.991-2.696l-1.076-0.639l-0.584-0.839l-0.922-1.878l-4.38-4.585l-0.346-0.753l-0.423-1.367l-0.2-1.314l0.115-0.874
		l-0.023-0.88l-0.599-1.308l-1.644-1.902l-1.46-1.161l-1.03-1.622l-0.384-3.266l-0.023-3.007l-0.315-2.32l-0.953-1.618l-1.936-0.91
		v-1.211l3.619-2.884l0.899-0.388l1.352,0.502l1.829,2.255l1.037,0.515l1.022-0.642l2.152-2.309l0.4,0.241l0.615,0.91l1.337-0.749
		l1.921-1.948v-1.024l-0.991-1.286l-1.775-5.024l-1.106-1.669l-6.339-3.024l-1.798-0.349l-0.507-0.349l-1.253-1.549l-0.776-0.342
		l-5.971-0.349l-1.783-0.98l-1.537-1.45l-1.368-1.833l5.071,1.087l9.974,4.65l4.933,1.113l-2.09-3.824l-5.848-4.397l-2.436-4.158
		l8.153-1.505l0.53-0.665l-0.246-1.324l-2.036-1.708l-5.371,0.404l-1.614-2.172l1.398-1.493l0.799-1.938l-0.154-1.898l-1.46-1.353
		l-2.129,0.04l-1.591,1.441l-1.36,1.831l-1.36,1.211l-1.245-0.108l-3.481-1.602l-7.1-1.784l-1.714-1.03l-1.291,0.687l-6.531-2.936
		l-1.214,0.296l-2.582,1.482l-1.329,0.471h-6.508v1.131l1.936,1.131l-3.266-0.121l-2.351-0.862l-1.475-2.35l-0.645-4.574
		l1.375,1.017l1.391,0.061l1.153-1.065l0.592-2.278l-0.968,0.742l-1.007,0.357l-2.213,0.128l-0.3-0.903l0.261-4.039l-0.607-0.911
		l-1.698-1.032l-5.194-4.799l-0.876-1.54l0.861-0.405l1.368-0.162l1.114-0.567l0.177-1.689l-0.738-0.824l-1.352-0.392l-1.452-0.074
		l-0.968,0.156l-0.653,0.899l-0.43,1.398l-0.692,1.094h-1.452l-0.592-0.743l-1.337-3.689v-1.23l2.536,0.257l1.352-0.128l0.945-0.696
		l0.83-1.089l1.083-0.893l1.183-0.629l1.091-0.223l1.99-0.9l0.93-1.989l-0.1-1.99l-1.153-0.907l0.369-1.686l-0.791-3.746
		l-1.89-5.931l-1.183-2.075l-1.206-1.404l-1.468-0.801l-1.944-0.278l-1.683,1.215l-1.076,0.326l-0.461-0.923l0.177-2.246
		l0.546-1.215l0.907-0.475l1.268-0.102l2.49-0.937l0.991-2.404l-0.261-3.139l-1.283-3.202l-4.173-5.292l-4.595-2.763l-10.32-2.792
		v-1.253l14.899,1.253l-1.575-2.814l-5.894-2.569l-2.267-1.479l-0.976-1.63l-0.569-1.269l-0.761-0.996l-1.568-0.792l-4.926-0.368
		l-1.506-0.88v-1.044l14.876,2.293l3.081-0.532l5.901-2.361l3.266-0.532v1.133l-1.045-0.15l-0.999,0.068l-0.968,0.368l-0.853,0.757
		l1.483,2.927l2.443,2.292l2.759,0.845l2.397-1.377l-3.927-3.438l1.291-1.249l0.884,0.908l1.575,0.396l3.404-0.055l1.529-0.614
		l3.212-2.314l3.235-0.737l1.468-0.819l1.114-1.564l0.461-2.493l0.1-1.312l0.446-2.317l0.092-1.066l-0.338-1.333l-1.644-2.414
		l-0.592-1.361l2.405,1.608l2.321,0.397l2.198-0.937l2.044-2.32l3.227,0.712l2.613-4.572l0.499-6.659l-3.127-5.575l-2.736-1.153
		l-6.055-0.446l-7.53-2.869l-2.136-1.874l-0.876-2.974l12.079,5.837l2.49-0.597l14.553,2.306l1.729,1.647l3.919-0.226l6.662-2.059
		l3.435-2.128l1.936-0.384l1.083,1.462l-0.415,1.688l-2.651,3.211l-0.807,2.016l1.107,1.762l-0.615,1.117l-1.521,0.247l-1.552-0.822
		l0.2-0.617l0.384-1.686l-3.004,0.165l-1.222,0.665l-0.922,1.474l4.68,8.261l1.79,4.605l-1.322,3.317l-1.437,0.253l-2.943-0.807
		l-1.414,0.554l-1.729,2.502l-1.107,0.923l-1.744,0.021v1.25l1.56,0.506l4.657-0.506l1.268-0.574l1.491-1.168l1.66-0.882
		l1.737,0.219l0.63,1.34l0.983,2.76l0.738,2.704l-0.092,1.229l-7.592,1.379l-1.675,0.696l-0.691,1.051l1.199,1.344l1.36,0.205
		l4.242-0.327l0.899-0.402l0.715-0.846l1.575,1.617l2.29,3.396l0.676,2.209l-0.061,0.825l-0.553,1.015l-0.768,2.814l1.683-1.587
		l1.222-1.587l3.942-8.68l0.198-0.21l0.117,0.017l3.576-0.269l1.156-0.542l0.166-0.429l0.146-0.199l1.493,0.451l4.512,2.77
		l-0.691,2.769l-0.676,1.923l-3.319,3.23l-1.214,2.343l1.913,0.422l2.712-1.253l2.175-2.31l0.284-2.678l1.506-0.634l1.552,0.498
		l1.352,1.425l0.799,2.133l-2.935-1.009l-0.392,0.388l0.592,1.533l1.437,1.165l3.181,1.349l0.83-3.508l2.167-5.324l0.284-3.745
		l-1.792-8.364h0.02l3.46,0.017l3.65,3.565l1.537,1.513l6.855,1.227l-1.303,1.248l0.161,0.91l0.205,0.425l0.22,0.398l0.337,0.381
		l1.82,1.117l0.22,0.39l-0.293,0.745l-3.708,2.727l-2.171,0.861l-3.279,2.644l0.717,1.047l0.073,0.311l0.073,0.381l-0.044,0.411
		l-0.146,0.506l-0.117,0.666l-0.117,1.167l0.176,0.891l0.439,0.73l0.103,1.979l2.918,1.326l1.8-0.104l1.859-1.115l1.147,0.873
		l2.767-0.441l3.342,0.406l4.006,1.996L469.543,399.074z"/>
	<path class="st0" d="M733.183,477.396l-0.446,0.82l-0.2,0.564l-0.208,0.444l-0.438,0.43l0.692,2.418l0.254,1.531l-0.284,1.403
		l-0.984,2.02l-2.029,3.334l-0.584,1.643l0.354,1.368v1.012l0.272,1.964l-1.5,1.724l-1.007,1.417l-1.324,1.247l-4.627-1.268
		l-3.852-0.276l-5.25-2.088l-6.483-4.041l-7.344-2.126l-7.674-6.275l-1.452-2.008l1.215-3.517l0.414-6.946l0.407-10.083l0.33-1.684
		l0.784-1.813l1.844-3.297l0.761-2.469l0.661-2.854l0.83-1.741l1.291,0.891l3.811,5.553l1.322,1.443l2.122,2.237l3.549,2.481
		l3.568,2.884l2.602-0.572l1.798,0.517l1.545,3.326l1.014,1.259l1.168,0.76l6.768,4.835l4.443,1.508L733.183,477.396z
		 M493.764,385.095l5.486,13.821l0.069,0.714L496,403.471l-1.437,0.442l-1.744,1.06l-1.591,1.325l-1.03,1.223l-2.044,0.591
		l-2.029-3.145l-1.352-4.581l-0.031-3.755l1.022-2.123l1.222-1.416l1.214-1.103l0.999-1.178l1.014-2.084l1.598-4.17l1.26-1.636
		l0.392,1.002l0.146,0.45L493.764,385.095z M421.879,377.718l0.102-0.111l-0.207-1.201l-0.876-2.13l-0.207-0.628l0.3-1.926
		l0.73-2.418l1.552-3.772l1.406-1.497l3.343-0.964l1.69-0.985l1.537-4.749l-1.936-5.492l-2.228-4.941l0.692-3.209l1.69,0.144
		l3.327,3.552l1.76,0.912l0.907,0.733l-0.031,1.693l-0.384,1.891l-0.169,1.315l0.407,2.13l0.361,0.767l0.446,0.513l0.715,1.293
		l1.775,4.905l1.675,6.93l0.277,6.493l-2.436,3.561l-3.412-1.241l-1.637,0.232l-4.512-2.77l-1.493-0.451l-0.146,0.199l-0.166,0.429
		l-1.156,0.542l-3.576,0.269L421.879,377.718z M442.81,369.87l-2.135-9.981v-5.955l-0.346-2.404l-2.236-8.987l-1.468-2.347
		l-1.713-0.899l-2.052,0.124l-7.215,2.964l-2.72,0.494l-1.591-1.489l1.598-4.139l4.887-4.203l8.983-5.588l14.438-12.347l7.53-4.238
		l7.868,0.31l8.16,4.72h6.724l1.821,0.992l3.304,3.009l2.805,1.205l4.895,4.142l-1.276,2.661l-3.873,5.313l-1.383,2.85l-2.566,6.713
		l-1.214,1.955v1.255l2.605,3.804l1.337,2.59l0.576,2.178l0.43,3.163l1.03,3.695l1.291,3.31l1.183,2.037l-0.4,1.64l-0.2,2.241
		l-0.108,3.565l-0.538,2.894l-0.108,1.119l0.123,0.805l0.338,0.859l0.891,1.773l-1.983,2.598l-3.796,7.399l-3.565,2.485
		l-0.615,2.048l-0.907,1.993l-2.09,0.721l-1.552-0.558l-1.114-0.925l-1.237-0.742l-1.898-0.061l-4.189,2.443l-0.008-0.004
		l-4.006-1.996l-3.342-0.406l-2.767,0.441l-1.147-0.873l-1.859,1.115l-1.8,0.104l-2.918-1.326l-0.103-1.979l-0.439-0.73
		l-0.176-0.891l0.117-1.167l0.117-0.666l0.146-0.506l0.044-0.411l-0.073-0.381l-0.073-0.311l-0.717-1.047l3.279-2.644l2.171-0.861
		l3.708-2.727l0.293-0.745l-0.22-0.39l-1.82-1.117l-0.337-0.381l-0.22-0.398l-0.205-0.425l-0.161-0.91l1.303-1.248l-6.855-1.227
		l-1.537-1.513l-3.65-3.565l-3.46-0.017H442.81z"/>
</g>
<g id="Copyright">
	<text transform="matrix(1 0 0 1 681.6426 577.5916)" class="st1 st2">© Vemaps.com</text>
</g>
</svg>
