<?xml version="1.0" encoding="utf-8"?>
<!-- Generator: Adobe Illustrator 23.0.1, SVG Export Plug-In . SVG Version: 6.00 Build 0)  -->
<svg version="1.1" xmlns="http://www.w3.org/2000/svg" xmlns:xlink="http://www.w3.org/1999/xlink" x="0px" y="0px"
	 viewBox="0 0 800 600" style="enable-background:new 0 0 800 600;" xml:space="preserve">
<style type="text/css">
	.st0{fill:#808080;stroke:#FFFFFF;stroke-width:0.5;stroke-linecap:round;stroke-linejoin:round;}
	.st1{font-family:'Roboto-Regular';}
	.st2{font-size:14px;}
</style>
<g id="Dominica">
	<path class="st0" d="M538.599,406.562l0.392,9.964l-3.53,49.152l-24.759,43.858l-8.678,6.758l-5.883,1.525l-4.706-0.356
		l-12.257,1.626l-10.247-2.439l-7.599,1.423l-6.521,5.996l-6.177,16.26l-16.816,7.367l-3.922,9.145l-0.539,0.813l-11.17-40.086
		l-1.152-12.488l16.811-25.655l11.986-9.682l11.145-5.874l4.825-3.389l3.456-3.389l14.788-24.756l0.187-1.872l-0.56-0.71
		l-4.327-3.195l9.682-8.651l4.576-2.389L538.599,406.562z"/>
	<path class="st0" d="M521.047,185.026l1.765,2.646l11.423,44.007l2.01,45.83l-8.335,35.041l5.491,1.983l5.001,4.17l5.981,2.39
		l-7.55,45.611l1.765,39.859l-50.995,8.957l-4.576,2.389l-9.682,8.651l1.868-7.263l0.062-1.356l-0.249-2.389l-0.56-2.066
		l-0.965-2.518l-0.218-0.936l-0.062-0.872l0.498-2.066l-4.016-3.68l-19.675-12.913l0.156-52.788l-8.592-21.473l20.734-49.896
		l22.82-21.77l5.51-3.876l0.467,0.291l0.529,0.194l0.405,0.161l0.342-0.065l0.872-0.194l0.467,0.032l0.81,0.161h0.405l0.841-0.484
		l1.027-0.904l2.055-2.261l3.051-2.616l0.467-0.194l0.405-0.097l1.961-0.032l0.56-0.097l0.654-0.194l0.685-0.388l1.245-1.034
		l4.358-4.49l0.747-0.582l0.467-0.194l0.311-2.423l-0.872-25.392l-0.467-1.777l1.961-4.62L521.047,185.026z"/>
	<path class="st0" d="M303.46,30.951l14.421,0.576l13.629,5.193l14.708,11.149l19.464,28.71l15.59,10.333l17.944-9.467l14.953-2.952
		l59.813,23.821l2.157,8.5l7.648,19.085l11.963,20.305l6.717,11.958l18.581,26.866l-6.639,8.475l-1.961,4.62l0.467,1.777
		l0.872,25.392l-0.311,2.423l-0.467,0.194l-0.747,0.582l-4.358,4.49l-1.245,1.034l-0.685,0.388l-0.654,0.194l-0.56,0.097
		l-1.961,0.032l-0.405,0.097l-0.467,0.194l-3.051,2.616l-2.055,2.261l-1.027,0.904l-0.841,0.484h-0.405l-0.81-0.161l-0.467-0.032
		l-0.872,0.194l-0.342,0.065l-0.405-0.161l-0.529-0.194l-0.467-0.291l-5.51,3.876l-22.82,21.77l-6.631-16.828l-18.368-14.891
		l-7.067-3.909l-4.67-2.003l-3.642-0.388l-3.829-0.808l-4.39-1.518l-12.546-5.556l-1.494-0.323l-1.307,0.258l-4.95,2.52
		l-4.857,1.551l-7.098,0.743l-5.79-2.584l-4.327-2.811l-15.441-15.442l-2.459-10.694l-2.926-24.555l-1.557-6.171l-7.876-6.527
		l-1.059-7.367l0.716-36.226l-1.152-13.541l-0.56-0.226l-0.903-1.357l-0.342-0.226l-0.405-0.161l-0.374-0.097l-0.436,0.065
		l-0.405,0.065l-0.529,0.129l-1.121-0.065l-0.654-0.097l-2.148-0.937l-0.467-0.323l-0.467-0.485l-0.56-1.131l-0.311-0.517
		l-4.359-1.745l-8.125-8.145l-3.238-5.559L303.46,30.951z"/>
	<path class="st0" d="M261.544,160.428l-1.025-0.945l-4.903-6.717l0.049-11.704l5.883-8.142l20.15-14.25l6.177-12.52l-8.335-1.629
		l-14.61-5.344l-9.266-0.865l9.952-14.71L279.639,30l23.82,0.951l10.739,47.509l3.238,5.559l8.125,8.145l4.359,1.745l0.311,0.517
		l0.56,1.131l0.467,0.485l0.467,0.323l2.148,0.937l0.654,0.097l1.121,0.065l0.529-0.129l0.405-0.065l0.436-0.065l0.374,0.097
		l0.405,0.161l0.342,0.226l0.903,1.357l0.56,0.226l1.152,13.541l-0.716,36.226l1.059,7.367l7.876,6.527l1.557,6.171l2.926,24.555
		l-66.872-35.993l-0.436,0.194l-0.778,0.097l-0.934-0.065l-5.137-1.002l-0.529,0.032l-6.289-1.648l-0.996-0.129l-1.121,0.194h-0.747
		l-2.677-0.646l-0.934,0.549l-0.498,0.42L261.544,160.428z"/>
	<path class="st0" d="M296.091,239.519l-5.666-8.197l-6.668-4.07l-7.844-6.562l-2.647-15.109l-1.128-30.374l-5.001-9.617
		l-5.594-5.161l3.964-4.763l0.498-0.42l0.934-0.549l2.677,0.646h0.747l1.121-0.194l0.996,0.129l6.289,1.648l0.529-0.032l5.137,1.002
		l0.934,0.065l0.778-0.097l0.436-0.194l66.872,35.993l2.459,10.694l-21.886,2.972l-8.219,3.974l-1.712,2.197l-1.183,2.068
		l-7.347,7.462L296.091,239.519z"/>
	<path class="st0" d="M343.47,334.75l-2.498-19.76l-3.775-10.985l-27.7-27.616l-4.412-10.376l-2.304-11.902l-5.393-12.717
		l-1.296-1.875l19.477-16.491l7.347-7.462l1.183-2.068l1.712-2.197l8.219-3.974l21.886-2.972l15.441,15.442l4.327,2.811l5.79,2.584
		l7.098-0.743l4.857-1.551l4.95-2.52l1.307-0.258l1.494,0.323L413.727,226l4.39,1.518l3.829,0.808l3.642,0.388l4.67,2.003
		l7.067,3.909l18.368,14.891l6.631,16.828L441.59,316.24l-40.316,19.019l-3.736,0.484l-5.23-0.743l-20.578-4.973l-14.85,0.387
		L343.47,334.75z"/>
	<path class="st0" d="M370.469,430.431l-1.699-24.377l-5.491-22.572l-17.061-36.76l-2.353-8.848l-0.395-3.123l13.411-4.335
		l14.85-0.387l20.578,4.973l5.23,0.743l3.736-0.484l40.316-19.019l8.592,21.473l-0.156,52.788l-49.687,25.761l-0.374,0.904
		l-0.187,0.452l-0.218,0.517l-2.677,8.812l-1.121,1.937l-1.775,1.582l-0.934,0.258l-0.841,0.194l-0.498-0.064l-0.529-0.161
		l-0.529-0.032l-0.623,0.032l-2.304,0.613l-0.716,0.064l-2.148-0.129l-0.374,0.032L370.469,430.431z"/>
	<path class="st0" d="M395.073,496.901l-0.122-7.59l0.588-5.336l-6.619-14.179l-15.247-17.789l-2.746-14.995l-0.459-6.58
		l14.026,0.84l0.374-0.032l2.148,0.129l0.716-0.064l2.304-0.613l0.623-0.032l0.529,0.032l0.529,0.161l0.498,0.064l0.841-0.194
		l0.934-0.258l1.775-1.582l1.121-1.937l2.677-8.812l0.218-0.517l0.187-0.452l0.374-0.904l49.687-25.761l19.675,12.913l4.016,3.68
		l-0.498,2.066l0.062,0.872l0.218,0.936l0.965,2.518l0.56,2.066l0.249,2.389l-0.062,1.356l-1.868,7.263l4.327,3.195l0.56,0.71
		l-0.187,1.872l-14.788,24.756l-3.456,3.389l-4.825,3.389l-11.145,5.874l-11.986,9.682l-16.811,25.655L395.073,496.901z"/>
	<path class="st0" d="M395.539,525.796l-0.466-28.896l19.962,8.18l1.152,12.488l-20.703,9.841L395.539,525.796z"/>
	<path class="st0" d="M427.357,557.654l-5.246,8.18L407.501,570l-13.531-3.76l-2.451-10.009l4.02-30.435l-0.055,1.613l20.703-9.841
		L427.357,557.654z"/>
</g>
<g id="Copyright">
	<text transform="matrix(1 0 0 1 681.6426 577.5916)" class="st1 st2">© Vemaps.com</text>
</g>
</svg>
