<?xml version="1.0" encoding="utf-8"?>
<!-- Generator: Adobe Illustrator 23.0.1, SVG Export Plug-In . SVG Version: 6.00 Build 0)  -->
<svg version="1.1" xmlns="http://www.w3.org/2000/svg" xmlns:xlink="http://www.w3.org/1999/xlink" x="0px" y="0px"
	 viewBox="0 0 800 600" style="enable-background:new 0 0 800 600;" xml:space="preserve">
<style type="text/css">
	.st0{fill:#808080;stroke:#FFFFFF;stroke-width:0.5;stroke-linecap:round;stroke-linejoin:round;}
	.st1{font-family:'Roboto-Regular';}
	.st2{font-size:14px;}
</style>
<g id="Ecuador">
	<path class="st0" d="M611.218,162.838l2.589,1.773l0.925,1.29l1.301,1.05l0.453,0.745l0.434,0.975l0.664,0.889l0.865,0.672
		l1.032,0.319l0.693-0.114l0.619-0.196l0.414,0.123l0.075,0.848l0.169,0.456l0.923,0.975l0.248,0.711l0.637-0.365l0.662-0.055
		l2.442,0.561l0.312,0.243l-0.008,0.007l-0.767,0.688l-0.069,0.317l0.01,0.62l0.116,0.773l0.011,1.404l-0.284,0.984l-1.049,1.659
		l-0.276,0.857l-0.183,2.529l0.123,0.795l0.375,0.777l0.167,0.153l0.527,0.522l0.453-0.052l0.694,0.417l0.802,0.829l0.722,0.513
		l0.222,0.107l-0.068,1.659l0.084,0.816l-0.128,0.643l-0.264,0.538l-0.368,0.333l-0.302,0.184l-0.349,0.109l-0.84,0.057l-0.409,0.08
		l-0.417,0.248l-0.086,0.273l0.099,0.399l1.326,2.395l0.185,0.444l0.333,1.322l0.196,0.479l0.253,0.431l1.178,1.447l0.365,0.743
		l0.036,0.62l-0.129,0.602l-0.214,0.317l-0.335,0.257l-0.434,0.153l-0.621,0.118l-0.452-0.014l-0.703-0.128l-0.375,0.018
		l-0.427,0.196l-1.416,0.998l-0.344,0.374l-0.611,0.879l-1.484,1.581l-1.437,1.948l-0.76,0.777l-0.735,0.567l-0.282,0.139
		l-0.351,0.039l-0.257-0.103l-0.369-0.255l-0.642-0.615l-0.297-0.214l-0.384-0.164l-0.372-0.062l-0.489-0.016l-0.894-0.201
		l-0.534-0.173l-1.546-0.187l-1.291-0.424l-0.522,0.025l-0.54,0.15l-0.831,0.52l-0.493,0.456l-0.55,0.618l-0.255,0.353l-0.128,0.267
		l-0.017,0.23l0.022,0.287l-0.066,0.109l-0.522,0.253l-0.892,0.998l-1.431,2.29l-0.255,0.312l-0.208,0.157l-0.253,0.041
		l-0.767-0.039l-0.708-0.854l-0.227-0.164l-0.366-0.198l-4.623-0.998l-1.18,0.032l-1.027-0.087l-0.649,0.018l-0.53,0.128
		l-1.254,0.827l-0.46,0.239l-0.567,0.228l-0.38,0.242l-0.923,0.763l-0.655,0.39l-0.851,0.403l-0.414,0.271l-0.243,0.337l0.007,0.299
		l0.14,0.253l1.136,0.791l0.403,0.358l0.305,0.333l0.141,0.292l0.009,0.251l-0.134,0.278l-0.544,0.795l-0.538,1.315l-0.563,1.014
		l-0.874,2.169l-0.267,0.483l-0.603,0.595l-0.557,0.253l-1.202,0.289l-0.392,0.21l-0.795,0.28l-0.075,0.201l0.09,0.28l0.471,0.622
		l0.15,0.128l0.128,0.014l0.125-0.036l0.14-0.016l0.179,0.089l0.1,0.15l-0.048,0.271l-0.214,0.139l-0.15,0.148l-0.137,0.18
		l-0.126-0.016l-0.434-0.333l-0.337-0.201l-0.46-0.203l-1.28-0.328l-2.684-0.342l-0.941-0.244l-0.896,0.055l-0.748-1.166
		l-0.103-0.219l0.022-0.365l-0.022-0.148l-0.155-0.41l-0.029-0.148l0.026-0.144l0.064-0.166l0.075-0.134l0.09-0.121l0.085-0.082
		l0.092-0.041l0.183-0.059l0.075-0.041l0.05-0.05l0.047-0.077l0.038-0.087l0.044-0.212l0.033-0.298l0.063-0.187l0.115-0.182
		l1.167-1.251l0.015-0.075l-0.007-0.073l-0.085-0.068l-0.133-0.05l-0.297-0.018l-0.28-0.077l-0.347-0.144l-0.843-0.797l-0.295-0.342
		l-0.191-0.15l-0.178-0.046l-0.264,0.102l-0.344,0.255l-0.137,0.068l-0.116,0.016l-0.107-0.034l-0.076-0.1l-0.071-0.248
		l-0.073-0.736l-0.088-0.15l-0.119-0.1l-0.229,0.018l-0.137,0.05l-0.17,0.091l-0.103,0.071l-0.139,0.055l-0.217-0.041l-0.244-0.137
		l-0.474-0.422l-0.163-0.191l-0.06-0.169l0.05-0.109l0.84-1.185l0.184-0.326l0.235-0.312l0.215-0.219l0.313-0.214l0.27-0.273
		l0.099-0.15l0.05-0.114l0.004-0.091l-0.032-0.107l-0.095-0.116l-0.174-0.173l-2.088-1.258l-0.14-0.141l-0.119-0.166l-0.072-0.148
		l-0.05-0.178l0.005-0.173l0.027-0.15l0.056-0.15l0.075-0.146l0.174-0.255l0.452-0.474l0.052-0.077l0.016-0.082l-0.002-0.082
		l-0.025-0.084l-0.055-0.109l-0.097-0.13l-0.352-0.367l-0.441-0.353l-0.191-0.1l-0.244-0.087l-0.28-0.014l-0.321,0.055l-0.512,0.212
		l-0.273,0.18l-0.221,0.187l-0.928,0.993l-0.467,0.342l-0.263,0.137l-0.575,0.216l-0.816,0.148l-0.744,0.036l-1.488-0.059
		l-0.143,0.014l-0.12,0.036l-0.088,0.055l-0.072,0.089l-0.039,0.103l-0.096,0.485l-0.245,0.503l-0.149,0.392l-0.116,0.164
		l-0.147,0.162l-0.208,0.171l-0.156,0.155l-0.286,0.232l-0.15,0.064l-0.178,0.027l-0.284-0.002l-0.321-0.041l-0.318-0.098
		l-0.302-0.141l-0.563-0.802l-1.123-2.675l-0.003-0.007l0.266-0.508l0.111-0.389l-0.104-0.558l-0.257-0.387l-0.597-0.587
		l-1.048-1.717l-0.314-0.872l-0.117-0.888l0.126-0.976l0.305-0.506l0.391-0.416l0.382-0.701l0.086-0.92l-0.239-0.893l-0.316-0.77
		l-0.301-1.261l-0.398-0.526l-0.619-0.332l-0.797-0.115l-0.565-0.215l-0.391-0.531l-0.255-0.682l-0.145-0.678l-0.016-1.898
		l0.5-1.862l0.945-1.579l1.306-1.037l0.753,0.38l0.646,0.077l1.462-0.129l0.657-0.188l0.866-0.807l0.597-0.183l0.63-0.1l1.105-0.432
		l1.397-0.237l0.831-0.624l0.553-0.14l0.326-0.163l1.342-1.066l0.318-0.334l0.565-0.822l0.323-0.323l1.049-0.477l2.639-0.836
		l1.155-0.824l0.237,0.452l0.018,0.404l-0.886,2.759l0.204,0.659l0.366,0.386l0.463,0.319l0.499,0.468l0.592,1.197l0.31,0.337
		l-0.721-1.977l-0.569-0.483l-0.185-0.28l0.002-0.246l0.226-0.405l0.043-0.251l-0.066-1.105l0.099-0.84l0.386-0.619l0.786-0.443
		l1.9,0.545l2.085-1.179l2.996-2.734l0.947-0.246l3.104,0.246l0.384-0.092l1.005-0.395l0.431-0.09l1.206,0.021l0.556-0.092
		l0.495-0.258l1.06,0.56l1.249-0.174l1.265-0.438l1.119-0.249l0.813-0.431l3.328-4.409l0.644-0.352l1.087,0.373l0.861,0.718
		l0.554,0.903l0.296,1.077l0.091,1.243l0.843-0.447l0.459-0.655l0.194-0.825l0.14-1.938l0.273-0.506l0.391-0.404l0.466-0.669
		l0.145,0.377l0.258,0.174l0.357-0.027l0.441-0.223l0.398-0.373l0.063-0.312l-0.02-0.346l0.161-0.474l0.719-0.816l0.734-0.118
		l1.86,0.633l-0.321-0.637l-0.789-0.208l-0.922-0.093l-0.707-0.294l-0.307-0.619l0.152-0.581l0.388-0.515l1.647-1.64l0.255-0.585
		l-0.02-0.667l-0.156-0.599L611.218,162.838z M607.999,165.49l0.007,0.42l0.061,0.294l0.208,0.52l0.043,1.479l-0.214,1.818
		l-0.583,1.154l-1.053-0.51l-0.422,0.495l-0.483,0.409l-0.893-0.682l-0.658-0.729l-0.147-0.816l0.646-0.949L607.999,165.49z"/>
	<path class="st0" d="M626.674,173.739l0.494,0.385l4.149,4.612l1.04,0.793l0.844,0.41l2.621,0.706l0.902,0.479l5.738,4.339
		l1.855,0.902l3.126,0.114l2.998,1.13l0.479,0.009l0.226-0.118l0.212,0.027l0.428,0.451l0.157,0.449l-0.014,0.49l0.091,0.476
		l0.467,0.399l1.027,0.397l0.941,0.212l0.893,0.016l0.886-0.182l3.515-1.335l1.089,0.009l1.317,1.034l0.287,3.172l0.936,1.385
		l2.898,2.001l1.609,0.638l1.288-0.18l-0.158,0.192l-1.573,1.203l-0.732,0.185l-0.874-0.355l-0.238-0.048l-1.21-0.002l-0.399-0.059
		l-0.686-0.226l-0.374-0.08l-0.257-0.005l-0.201,0.03l-0.15,0.13l-0.122,0.214l-0.086,0.465l0.056,0.278l0.122,0.223l0.482,0.38
		l0.207,0.216l0.13,0.223l0.057,0.196l0.018,0.171l-0.166,0.267l-0.314,0.31l-1.648,1.23l-0.351,0.333l-3.039,3.887l-0.379,0.599
		l-0.246,0.538l-0.075,0.736l0.032,0.415l0.109,0.57l-0.178,0.551l-0.98,1.116l-1.074-0.535l-0.753-0.987l-0.53-0.371l-2.088-1.139
		l-1.774-1.265l-1.998-1.126l-1.542-0.36l-0.784-0.077l-0.891-0.228l-0.563-0.355l-0.284-0.296l-1.684-0.312l-0.488-0.667
		l-0.232-0.757l-0.056-0.8l0.067-1.276l-0.041-0.383l-0.917-2.545l-1.746-2.203l-1.146-1.992l-1.067-1.274l-1.35-1.162l-2-1.312
		l-0.773-0.706l-0.368-0.232l-0.516-0.137l-1.619-0.137l-0.877-0.28l-0.595-0.289l-0.222-0.107l-0.722-0.513l-0.802-0.829
		l-0.694-0.417l-0.453,0.052l-0.527-0.522l-0.167-0.153l-0.375-0.777l-0.123-0.795l0.183-2.529l0.276-0.857l1.049-1.659l0.284-0.984
		l-0.011-1.404l-0.116-0.773l-0.01-0.62l0.069-0.317l0.767-0.688L626.674,173.739z"/>
	<path class="st0" d="M669.175,196.959l0.211-0.03l1.82,0.456l0.595,2.137l0.283,4.634l0.399,1.481l0.194,1.317l0.456,1.126
		l1.187,0.911l1.54,0.565l4.691,0.952l0.832,0.301l0.649,0.333l0.688,0.205l0.959-0.055l2.221-0.834l0.766-0.141l0.599,0.15
		l0.926,0.232l1.686,1.905l1.31,0.442l1.763,0.032l0.549,0.091l0.731,0.255l0.449,0.319l0.962,0.971l0.752,0.551l0.633,0.228
		l0.668,0.027l3.062-0.46l0.556,0.055l1.572,0.706l0.672-0.018l-0.112-1.754l0.544-0.205l1.524,0.415l2.148,0.237l0.633,0.187
		l0.697,0.487l1.178,1.098l0.834,0.287l0.645-0.082l1.141-0.588l4.374-0.506l0.779-0.519l-0.456-2.925l0.109-3.285l-0.023-0.287
		l0.417,0.077l0.952-0.059l0.469-0.091l0.41-0.15l1.096-1.308l0.246-0.223l0.23-0.137l0.8-0.606l0.49-0.137l0.44,0.196l1.217,1.285
		l0.847,0.556l0.88,0.383l0.955,0.219l1.08,0.073l0.959-0.05l0.492,0.037l0.369,0.164l0.264,0.469l0.248,1.167l0.226,0.346
		l0.804-0.041l1.116-0.355l0.993-0.123l0.424,0.661l0.191,0.524l2.955,3.737l0.219,0.556l0.201,0.848l0.485,0.711l1.096,1.012
		l2.679,1.654l0.369,0.606l1.768,1.308l1.242,0.693l0.727,0.292l0.854,0.21l0.98,0.082l1.014-0.096l1.901-0.433l0.83-0.1
		l0.877,0.287l0.697,0.629l0.56,0.629l0.453,0.287l0.786,0.26l2.073,1.85l2.565,1.577l1.059,0.369l0.859,0.62l2.468,0.469
		l2.799,1.025l0.815,0.483l-0.523,0.674l-0.997,0.706l-0.564,0.278l-0.587,0.196l-0.704,0.036l-1.508-0.214l-0.368,0.032
		l-1.187,0.788l-1.136-0.109l-3.108-1.672l-0.596-0.141l-0.619-0.009l-0.788,0.082l-0.688-0.132l-0.804-0.324l-0.793-0.21
		l-0.644,0.214l-0.247,0.766l0.212,0.975l0.431,0.861l0.4,0.46l0.416,0.091l0.944-0.073l0.43,0.059l0.535,0.324l0.923,0.87
		l0.546,0.278l0.942,0.31l0.704,0.442l0.503,0.643l1.413,4.981l0.816,1.868l1.261,1.736l0.821,0.775l0.5,0.31l0.452,0.077
		l0.543-0.046l0.252,0.141l0.18,0.26l1.719,1.335l0.188,0.205l0.228,0.506l0.171,0.21l0.223,0.046l0.413-0.214l0.198,0.068
		l0.5,0.784l0.162,0.816l-0.137,1.732l0.036,0.364l0.102,0.319l0.062,0.333l-0.091,0.392l-0.396,0.419l-0.048,0.002l-0.633,0.034
		l-0.134-0.096l-0.08-0.253l0.079-0.526l-0.044-0.13l-0.157-0.105l-0.253,0.112l-0.35,0.071l-0.526,0.011l-1.529-0.44l-0.681-0.328
		l-0.427-0.064l-0.335-0.093l-0.237-0.26l-0.155-0.396l-0.116-0.428l-0.163-0.355l-0.222-0.16L761.539,251l-0.375-0.112l-0.469-0.28
		l-0.5-0.191l-1.996-0.048l-0.293,0.055h-0.387l-1.414-0.431l-0.512-0.417l-0.284-0.28l-0.168-0.287l-0.132-0.301l-0.07-0.447
		l-0.096-0.239l-0.153-0.109l-0.451,0.226l-0.17-0.014l-0.121-0.253l-0.091-0.262l-0.284-0.257l-0.515-0.287l-0.963-0.431
		l-0.5-0.312l-0.429-0.18l-0.42,0.057l-0.42,0.169l-0.617,0.153l-0.535,0.025l-0.525-0.267l-0.279-0.319l-0.375-0.626l-0.229-0.283
		l-0.4-0.26l-0.341-0.077l-0.463,0.112l-0.437,0.153l-0.506,0.082l-1.055,0.005l-0.387,0.071l-0.448,0.164l-0.378,0.034
		l-0.481-0.125l-0.53-0.36l-0.626-0.333l-0.8-0.207l-1.41-0.025l-0.742,0.164l-0.525,0.278l-0.14,0.462l-0.009,0.702l0.42,3.618
		l0.216,0.524l0.208,0.308l0.083,0.207l-0.083,0.178l-0.236,0.121l-0.507-0.068l-1.022-0.066l-0.995-0.235l-1.006-0.567
		l-1.805-1.303l-0.874-0.408l-0.245-0.301l-0.172-1.064l-0.212-0.558l-0.254-0.497l-0.213-0.212l-4.157-0.276l-3.406,0.328
		l-0.428,0.132l-0.902,0.447l-1.438,0.433l-0.396,0.169l-1.784,1.296l-1.04,0.485l-0.459-0.415l-0.299-0.67l-0.727-0.171
		l-1.74,0.048l-0.83-0.408l-2.306-1.754l-0.938-1.269l-1.047,0.294l-0.986,0.579l-0.501-0.643l-0.19-0.362l-0.391-0.469
		l-2.482-1.738l-0.502-0.444l-0.238-0.321l-0.133-0.26l-0.45-0.661l-0.377-0.435l-0.811-1.221l-0.086-0.266l-0.035-0.392
		l-0.05-0.137l-0.178-0.244l-1.357-1.187l-4.521-5.382l-0.436-0.731l-0.296-0.374l-0.624-0.396l-0.605-0.173l-1.162,0.194
		l-0.677,0.264l-0.614,0.314l-0.524,0.362l-0.636,0.346l-0.964,0.171l-1.075-0.046l-2.483-0.715l-0.763-0.125l-0.722,0.125
		l-0.465,0.214l-0.523,0.091l-0.502-0.098l-1.293-0.9l-1.211-0.592l-0.726-0.264l-0.588-0.15l-0.679,0.494L677.489,230l-0.344,0.563
		l-0.464,0.952l-0.269,0.369l-0.285,0.246l-0.278,0.157l-0.506,0.014l-0.743-0.073l-2.059-0.478l-0.384-0.164l-0.109-0.26v-0.296
		l0.055-0.296l0.084-0.269l0.031-0.23l-0.029-0.214l-0.165-0.38l-0.011-0.216l0.066-0.214l0.129-0.246l0.062-0.219l-0.034-0.175
		l-0.137-0.217l-0.173-0.335l-0.12-0.458l-0.199-0.326l-0.261-0.118l-0.523,0.212l-0.599,0.408l-0.219,0.091l-0.188,0.109
		l-0.136,0.171l-0.148,0.237l-0.296,0.219l-0.412,0.134l-0.752,0.105l-0.497,0.314l-0.948,0.973l-0.467,0.337l-0.287,0.066
		l-0.474-0.305l-0.574-0.248l-1.239-0.285l-4.383-0.116l-0.821-0.148L657.8,229l-0.297-0.854l-0.255-1.467l-0.015-0.437l0.035-0.185
		l0.051-0.105l0.05-0.055l0.043-0.059l0.046-0.087l0.03-0.087l0.015-0.087l0.006-0.098l-0.009-0.096l-0.433-0.235l-1.937-0.476
		l-0.551-0.178l-0.203-0.176l-0.036-0.089l-0.025-0.093l-0.071-0.488l-0.118-0.392l-0.156-0.242l-0.215-0.205l-0.647-0.374
		l-0.202-0.084l-0.181-0.041l-0.191-0.027l-0.629-0.226l-1.155-0.611l-0.085-0.002l-0.218,0.057h-0.059l-0.074-0.014l-0.485-0.207
		l-0.53-0.143l-0.149-0.068l-0.091-0.075l-0.017-0.066v-0.068l0.017-0.059l1.105-1.832l1.532-1.638l0.645-0.417l0.217-0.055
		l0.206-0.089l0.201-0.112l0.158-0.114l0.21-0.242l0.819-1.167l0.556-0.631l0.167-0.137l0.133-0.157l0.047-0.137l-0.084-0.191
		l-0.12-0.068l-0.122-0.036l-0.114-0.009l-0.114-0.023l-0.075-0.036l-0.061-0.046l-0.043-0.073l-0.039-0.114l-0.023-0.301
		l0.294-0.561l1.399-1.777l0.98-1.116l0.178-0.551l-0.109-0.57l-0.032-0.415l0.075-0.736l0.246-0.538l0.379-0.599l3.039-3.887
		l0.351-0.333l1.648-1.23l0.314-0.31l0.166-0.267l-0.018-0.171l-0.057-0.196l-0.13-0.223l-0.207-0.216l-0.482-0.38l-0.122-0.223
		l-0.056-0.278l0.086-0.465l0.122-0.214l0.15-0.13l0.201-0.03l0.257,0.005l0.374,0.08l0.686,0.226l0.399,0.059l1.21,0.002
		l0.238,0.048l0.874,0.355l0.732-0.185l1.573-1.203L669.175,196.959z"/>
	<path class="st0" d="M768.264,254.418l-0.534,0.273l-0.471,0.314l-0.2,0.524l0.045,0.433l0.189,0.811l0.023,0.447l-0.093,0.451
		l-0.28,0.793l-0.018,0.551l1.958,6.653l0.014,0.396l-0.071,0.761l0.081,0.41l0.341,0.501l0.423,0.369l0.32,0.438l0.01,0.296
		l-0.394,0.027h-2.085l-1.872,0.223l-1.005-0.023l-0.435-0.355l-0.256-0.442l-0.602-0.693l-1.25-1.148l-0.272,0.387l-0.558,2.178
		l-1.324,5.195l-1.324,5.2l-1.324,5.201l-1.324,5.196l-0.648,2.548l-0.573,1.531l-0.34,0.411l-0.016-0.028l-0.467-0.846
		l-0.203-0.962l-0.266-0.39l-0.317-0.173l-0.344-0.025l-0.485-0.157l-0.283-0.26l-0.273-0.144l-0.252-0.014l-0.245-0.271
		l-1.321-0.481l-0.408-0.1l-0.219-0.157l-0.113-0.189l-0.079-0.214l-0.1-0.046l-0.177,0.128l-0.188,0.194l-0.278,0.123l-0.164-0.13
		l-0.12-0.342l-0.441-0.581l-0.344-0.69l-0.109-0.103l-0.143-0.376l-0.205-0.15l-0.542,0.023l-0.637-0.178l-0.653-0.048
		l-0.191-0.103l-0.171-0.205l-0.19-0.148l-0.347-0.178l-0.294-0.05l-0.277,0.016l-0.261,0.082l-0.1-0.064l0.008-0.134l-0.085-0.271
		l-0.314-0.706l-0.303-0.155l-1.069-0.283l-0.219-0.201l-0.03-0.228l0.092-0.217l0.016-0.191l-0.168-0.034l-0.175,0.048
		l-0.326,0.014l-0.095,0.114l-0.031,0.159l0.064,0.237l-0.026,0.185l-0.177,0.109l-0.278,0.048l-0.417-0.066l-0.804-0.014
		l-0.73-0.091l-0.582-0.326l-0.287-0.303l-0.222-0.121l-0.568,0.021l-0.203-0.191l-0.205-0.267l-0.341-0.328l-0.511-0.164
		l-0.545-0.075l-0.472-0.264l-0.276-0.098l-0.158,0.03l-0.124,0.116l-0.189,0.059l-0.089-0.144l-0.011-0.198l0.028-0.258
		l-0.094-0.26l-0.148-0.244l-0.137-0.05l-0.118,0.075l-0.125,0.171l-0.246,0.078l-0.453-0.034l-0.79-0.376l-0.45,0.007l-0.212,0.048
		l-0.055,0.143l-0.107,0.066l-0.07-0.066l-0.055-0.159l-0.089-0.052l-0.109,0.027l-0.18,0.13l-0.446,0.417l-0.111,0.157
		l-0.159,0.139l-0.148,0.027l-0.289-0.034l-0.185-0.004l-0.281,0.025l-0.137-0.089l-0.202-0.196l-0.27,0.009l-0.775,0.1l-0.35-0.182
		l-0.215-0.034l-0.245,0.048l-0.227,0.169l-0.242,0.118l-0.188-0.059l-0.116-0.162l-0.102-0.185l-0.129-0.007l-0.144,0.157
		l-0.13,0.212l-0.191,0.162l-0.187-0.066l-0.171,0.02l-0.085,0.039l-0.098,0.109l-0.295,0.187l-0.139,0.155l-0.104,0.173
		l-0.173,0.128l-0.071-0.032l-0.034-0.337l-0.14-0.107l-0.371-0.118l-0.665-0.109l-1.104-0.287l-0.647-0.098l-0.236-0.143
		l0.042-0.157l0.095-0.164l-0.054-0.15l-0.189-0.255l-0.089-0.176l-0.198-0.034l-0.247,0.016l-0.345-0.014l-0.297-0.153
		l-0.283-0.232l-0.235-0.014l-0.273,0.082l-0.304,0.13l-0.535,0.116l-0.43-0.1l-0.441,0.08l-0.187-0.116l-0.021-0.162l0.036-0.187
		l-0.026-0.144l-0.125,0.064l-0.182,0.121l-0.357,0.048l-0.23-0.141l-0.269-0.335l-0.057-0.255l-0.032-0.283l-0.108-0.194
		l-0.215-0.223l-0.379-0.301l-0.226-0.26l-0.199-0.315l-0.383-0.497l-0.228-0.661l-0.131-0.932l0.041-1.746l0.13-0.586l0.021-0.636
		l-0.154-0.538l-0.586-0.636l-0.597-0.273l-0.747-0.226l-0.786-0.089l-0.64,0.084l-1.096,0.326l-0.836,0.15l-0.21,0.116
		l-0.342,0.492l-0.223,0.164l-0.409,0.13l-0.416,0.039l-0.89,0.26l-0.876,0.143l-1.087,0.043l-0.32,0.066l-0.627,0.342l-0.375,0.046
		l-0.645-0.121l-0.502-0.292l-0.403-0.082l-0.27,0.087l-0.818,0.772l-0.265,0.374l-0.154,0.483l-0.078,0.513l-0.117,0.46l-0.3,0.36
		l-0.791,0.025l-4.251-1.75l-3.568-0.809l-0.482-0.258l-0.3-0.465l-0.279-1.256l-0.15-0.376l-0.075-0.28l0.109-0.289l0.897-1
		l0.388-0.989l-0.393-0.476l-0.262-0.244l-0.185-0.349l0.116-0.273l0.744-0.697l0.329-0.422l-0.055-0.305l-0.246-0.212l-0.57-0.157
		l-1.852-0.289l-0.764-0.267l-2.013-1.376l-0.354-0.191l-0.395-0.13l-0.451-0.237l-0.246-0.358l-0.17-0.727l0.078-0.704l0.302-0.725
		l0.485-0.725l2.129-1.991l0.432-0.504l0.169-0.513l-0.091-0.271l-0.323-0.205l-0.629-0.021l-0.56,0.39l-0.602,0.287l-1.972,1.848
		l-1.081,2.121l-0.574,0.738l-0.349,0.189l-1.609,0.565l-6.977,3.338l-0.474,0.355l-0.845,0.232l-0.133,0.103l-0.729,0.321
		l-0.857,0.185l-1.091,0.082l-1.004-0.185l-0.571-0.314l0.005-0.383l0.453-0.403l0.368-0.463l0.383-0.631l1.024-2.479l0.105-0.659
		l-0.366-1.372l0.049-0.633l0.266-0.814l0.327-0.743l0.312-0.554l0.622-0.829l0.121-0.431l-0.031-0.572l-0.317-1.114l-0.261-0.458
		l-0.38-0.312l-0.574-0.369l-0.235-0.294l-0.477-0.939l-1.225-1.556l-0.483-0.419l-0.44-0.219l-0.464-0.128l-0.532-0.298
		l-0.129-0.358l0.068-0.36l0.252-0.335l0.436-0.349l1.362-0.822l0.317-0.296l0.173-0.335l-0.065-0.545l0.011-0.383l0.159-0.326
		l0.379-0.075l0.62,0.23l1.888,1.146l0.977,0.458l1.08,0.362l0.848,0.121l0.588-0.066l0.504-0.216l0.398-0.321l1.057-1.727
		l0.468-1.112l0.17-0.301l0.215-0.153l0.242-0.011l0.559,0.171l0.197-0.077l0.126-0.264l-0.034-0.709l0.039-0.367l0.125-0.276
		l1.332-0.581l0.484-0.271l0.391-0.34l0.161-0.392l-0.036-0.697l0.098-0.296l0.197-0.239l0.271-0.262l0.133-0.36l0.006-0.643
		l-0.395-0.816l0.065-0.207l0.094-0.21l0.059-0.255l0.032-0.346l-0.1-0.305l-0.527-0.781l-0.605-0.743l-0.271-0.41l-0.27-0.538
		l-0.01-0.417l0.156-0.638l0.124-1.196l0.102-0.444l-0.439-3.112l0.679-0.494l0.588,0.15l0.726,0.264l1.211,0.592l1.293,0.9
		l0.502,0.098l0.523-0.091l0.465-0.214l0.722-0.125l0.763,0.125l2.483,0.715l1.075,0.046l0.964-0.171l0.636-0.346l0.524-0.362
		l0.614-0.314l0.677-0.264l1.162-0.194l0.605,0.173l0.624,0.396l0.296,0.374l0.436,0.731l4.521,5.382l1.357,1.187l0.178,0.244
		l0.05,0.137l0.035,0.392l0.086,0.266l0.811,1.221l0.377,0.435l0.45,0.661l0.133,0.26l0.238,0.321l0.502,0.444l2.482,1.738
		l0.391,0.469l0.19,0.362l0.501,0.643l0.986-0.579l1.047-0.294l0.938,1.269l2.306,1.754l0.83,0.408l1.74-0.048l0.727,0.171
		l0.299,0.67l0.459,0.415l1.04-0.485l1.784-1.296l0.396-0.169l1.438-0.433l0.902-0.447l0.428-0.132l3.406-0.328l4.157,0.276
		l0.213,0.212l0.254,0.497l0.212,0.558l0.172,1.064l0.245,0.301l0.874,0.408l1.805,1.303l1.006,0.567l0.995,0.235l1.022,0.066
		l0.507,0.068l0.236-0.121l0.083-0.178l-0.083-0.207l-0.208-0.308l-0.216-0.524l-0.42-3.618l0.009-0.702l0.14-0.462l0.525-0.278
		l0.742-0.164l1.41,0.025l0.8,0.207l0.626,0.333l0.53,0.36l0.481,0.125l0.378-0.034l0.448-0.164l0.387-0.071l1.055-0.005
		l0.506-0.082l0.437-0.153l0.463-0.112l0.341,0.077l0.4,0.26l0.229,0.283l0.375,0.626l0.279,0.319l0.525,0.267l0.535-0.025
		l0.617-0.153l0.42-0.169l0.42-0.057l0.429,0.18l0.5,0.312l0.963,0.431l0.515,0.287l0.284,0.257l0.091,0.262l0.121,0.253l0.17,0.014
		l0.451-0.226l0.153,0.109l0.096,0.239l0.07,0.447l0.132,0.301l0.168,0.287l0.284,0.28l0.512,0.417l1.414,0.431h0.387l0.293-0.055
		l1.996,0.048l0.5,0.191l0.469,0.28l0.375,0.112l0.712,0.014l0.222,0.16l0.163,0.355l0.116,0.428l0.155,0.396l0.237,0.26
		l0.335,0.093l0.427,0.064l0.681,0.328l1.529,0.44l0.526-0.011l0.35-0.071l0.253-0.112l0.157,0.105l0.044,0.13l-0.079,0.526
		l0.08,0.253l0.134,0.096l0.633-0.034L768.264,254.418z"/>
	<path class="st0" d="M754.416,294.279l-0.697,0.843l-2.422,2.247l-1.775,2.07l-2.2,2.562l-2.201,2.567l-2.204,2.567l-2.201,2.567
		l-2.201,2.567l-2.203,2.567l-2.201,2.562l-2.203,2.567l-2.629,2.015l-2.629,2.016l-2.634,2.011l-2.629,2.016l-2.634,2.02
		l-2.629,2.011l-2.632,2.016l-2.631,2.016l-2.497,1.916l-1.957,1.188l-0.037-0.009l-0.614-0.144l-0.879,0.411l-0.949,0.292
		l-1.849-0.921l-1.511-0.294l-0.572-0.301l-0.718-0.561l-0.513-0.055l-1.329,0.465l-1.99,0.048l-1.798-0.534l-1.492-0.981
		l-1.069-1.272l-0.542-1.5l-0.087-0.171l-0.142-0.41l-0.31-0.299l-0.309-0.239l-0.391-0.643l-1.557-1.858l-0.801-1.421l-0.532-0.675
		l-0.624-0.287l-0.764-0.182l-10.127-6.56l-12.134-5.148l-1.531-0.397l-0.723-0.274l-0.57-0.506l-0.31-0.698l-0.169-0.729
		l-0.257-0.682l-0.57-0.547l-0.81-0.305l-1.79-0.424l-0.766-0.415l-0.39-0.533l-0.146-0.629l-0.115-1.324l-0.238-0.599l-0.652-1.106
		l-0.134-0.602l-0.019-0.969l-0.127-0.408l-0.813-1.286l-0.573-2.895l-0.525-0.973l-0.674-0.472l-0.843-0.08l-1.991,0.422
		l-0.673,0.13l-0.534-0.542l-0.441-1.01l-0.352-1.472l-1.353-3.476l-0.383-0.645l-0.542-0.684l-0.649-0.656l-1.049-0.859
		l-1.908-0.408l1.075-0.998l1.174-2.259l0.207-0.681l0.117-0.668l-0.104-4.818l2.244,0.155l1.236-0.073l3.138-0.513l1.078,0.014
		l0.674,0.087l0.468,0.214l0.39,0.23l0.442,0.055l0.264-0.251l0.247-0.602l0.155-0.164l0.25-0.034l0.398,0.148l0.407,0.226
		l0.538,0.13l0.655-0.128l1.072-0.554l1.7-1.148l0.466-0.235l0.885-0.335l0.57-0.116l0.868-0.529l0.414-0.178l0.628-0.073
		l0.572-0.148l0.536-0.057l0.638,0.144l0.457,0.048l0.46-0.041l0.543-0.237l0.603-0.13l2.112-0.207l3.93-1.796l0.547-0.34
		l0.473-0.157l1.5-0.007l1.224-0.189l4.181-1.306l0.985-0.551l0.499-0.353l0.475-0.205l0.654-0.105l7.375-0.52l-0.897,1
		l-0.109,0.289l0.075,0.28l0.15,0.376l0.279,1.256l0.3,0.465l0.482,0.258l3.568,0.809l4.251,1.75l0.791-0.025l0.3-0.36l0.117-0.46
		l0.078-0.513l0.154-0.483l0.265-0.374l0.818-0.772l0.27-0.087l0.403,0.082l0.502,0.292l0.645,0.121l0.375-0.046l0.627-0.342
		l0.32-0.066l1.087-0.043l0.876-0.143l0.89-0.26l0.416-0.039l0.409-0.13l0.223-0.164l0.342-0.492l0.21-0.116l0.836-0.15l1.096-0.326
		l0.64-0.084l0.786,0.089l0.747,0.226l0.597,0.273l0.586,0.636l0.154,0.538l-0.021,0.636l-0.13,0.586l-0.041,1.746l0.131,0.932
		l0.228,0.661l0.383,0.497l0.199,0.315l0.226,0.26l0.379,0.301l0.215,0.223l0.108,0.194l0.032,0.283l0.057,0.255l0.269,0.335
		l0.23,0.141l0.357-0.048l0.182-0.121l0.125-0.064l0.026,0.144l-0.036,0.187l0.021,0.162l0.187,0.116l0.441-0.08l0.43,0.1
		l0.535-0.116l0.304-0.13l0.273-0.082l0.235,0.014l0.283,0.232l0.297,0.153l0.345,0.014l0.247-0.016l0.198,0.034l0.089,0.176
		l0.189,0.255l0.054,0.15l-0.095,0.164l-0.042,0.157l0.236,0.143l0.647,0.098l1.104,0.287l0.665,0.109l0.371,0.118l0.14,0.107
		l0.034,0.337l0.071,0.032l0.173-0.128l0.104-0.173l0.139-0.155l0.295-0.187l0.098-0.109l0.085-0.039l0.171-0.02l0.187,0.066
		l0.191-0.162l0.13-0.212l0.144-0.157l0.129,0.007l0.102,0.185l0.116,0.162l0.188,0.059l0.242-0.118l0.227-0.169l0.245-0.048
		l0.215,0.034l0.35,0.182l0.775-0.1l0.27-0.009l0.202,0.196l0.137,0.089l0.281-0.025l0.185,0.004l0.289,0.034l0.148-0.027
		l0.159-0.139l0.111-0.157l0.446-0.417l0.18-0.13l0.109-0.027l0.089,0.052l0.055,0.159l0.07,0.066l0.107-0.066l0.055-0.143
		l0.212-0.048l0.45-0.007l0.79,0.376l0.453,0.034l0.246-0.078l0.125-0.171l0.118-0.075l0.137,0.05l0.148,0.244l0.094,0.26
		l-0.028,0.258l0.011,0.198l0.089,0.144l0.189-0.059l0.124-0.116l0.158-0.03l0.276,0.098l0.472,0.264l0.545,0.075l0.511,0.164
		l0.341,0.328l0.205,0.267l0.203,0.191l0.568-0.021l0.222,0.121l0.287,0.303l0.582,0.326l0.73,0.091l0.804,0.014l0.417,0.066
		l0.278-0.048l0.177-0.109l0.026-0.185l-0.064-0.237l0.031-0.159l0.095-0.114l0.326-0.014l0.175-0.048l0.168,0.034l-0.016,0.191
		l-0.092,0.217l0.03,0.228l0.219,0.201l1.069,0.283l0.303,0.155l0.314,0.706l0.085,0.271l-0.008,0.134l0.1,0.064l0.261-0.082
		l0.277-0.016l0.294,0.05l0.347,0.178l0.19,0.148l0.171,0.205l0.191,0.103l0.653,0.048l0.637,0.178l0.542-0.023l0.205,0.15
		l0.143,0.376l0.109,0.103l0.344,0.69l0.441,0.581l0.12,0.342l0.164,0.13l0.278-0.123l0.188-0.194l0.177-0.128l0.1,0.046
		l0.079,0.214l0.113,0.189l0.219,0.157l0.408,0.1l1.321,0.481l0.245,0.271l0.252,0.014l0.273,0.144l0.283,0.26l0.485,0.157
		l0.344,0.025l0.317,0.173l0.266,0.39l0.203,0.962l0.467,0.846L754.416,294.279z"/>
	<path class="st0" d="M706.406,339.189l-0.658,0.399l-4.06,1.419l-5.545,1.943l-5.543,1.939l-5.548,1.939l-5.543,1.943l-5.543,1.939
		l-5.543,1.944l-5.545,1.939l-5.543,1.939l-1.219,0.426l-1.704,0.596l-0.829,0.424l-3.247,2.838l-4.456,5.978l-2.13,1.771
		l-0.62,0.68l-1.362,2.615l-0.544,0.785l-1.606,1.196l-0.521,0.625l-0.005,0.968l0.509,0.803l0.695,0.493l0.554,0.634l0.093,1.214
		l-0.406,0.904l-0.679,0.288l-0.781,0.169l-0.698,0.571l-0.6,0.288l-0.422-0.803l-0.609-2.84l-0.33-0.662l-0.551-0.443l-1.91-0.534
		l-0.924-0.128l-0.742,0.224l-0.482,0.835l0.041,0.283l0.269,0.867l-0.026,0.484l-0.337,1.908l-0.57,1.794l-0.034,0l-5.489-0.025
		l-3.244,0.578l-0.881,0.014l-1.71-0.183l-0.521,0.059l-0.41,0.123l-0.229,0.164l-0.157,0.185l-0.442,0.836l-0.198,0.26
		l-0.287,0.196l-0.294-0.025l-0.781-0.363l-0.463-0.153l-1.493-0.203l-1.819-0.493l-1.226-0.189l-0.49-0.235l-0.248-0.267
		l-0.044-0.313l-0.106-0.26l-0.202-0.258l-0.352-0.31l-0.231-0.278l-0.172-0.274l-0.104-0.306l-0.075-0.399l-0.069-0.797
		l-0.173-0.605l-0.034-0.311l0.055-0.274l0.164-0.29l0.223-0.253l0.48-0.447l0.206-0.228l0.111-0.274l-0.003-0.272l-0.133-0.322
		l-0.289-0.329l-3.66-2.604l-0.212-0.792l0.08-0.322l0.194-0.429l5.43-4.347l0.9-0.867l1.652-0.545l1.504-0.812l1.089-0.876
		l1.149-1.253l0.431-0.783l0.165-0.792l-0.086-0.659l-0.003-0.701l0.179-0.7l1.059-2.206L620,356.11l0.271-0.721l2.086-3.445
		l0.269-0.634l-0.014-0.418l-0.171-0.429l-0.309-0.44l-0.38-0.406l-0.262-0.356l-0.132-0.303l0.053-0.299l1.371-2.575l0.383-0.479
		l0.444-0.36l4.887-2.495l0.488-0.422l0.189-0.383l0.003-0.376l-0.113-0.356l-0.173-0.395l-0.297-0.312l-1.382-1.038l-0.272-0.116
		l-0.379-0.007l-0.433,0.13l-0.407,0.23l-0.464,0.395l-0.26,0.474l-0.164,0.47l-0.096,0.479l-0.19,0.237l-0.307,0.048l-0.417-0.189
		l-0.33-0.315l-0.166-0.452l-0.055-0.424l0.272-1.311l0.317,0.173l0.126,0.007l0.15-0.007l0.153-0.082l0.182-0.123l0.456-0.554
		l1.057-1.605l0.154-0.326l0.066-0.376l-0.001-0.513l0.044-0.415l0.167-0.814l-0.05-2.506l0.073-0.493l0.098-0.408l-0.291-0.499
		l-0.652-0.49l-2.757-1.222l-0.584-0.347l-0.067-0.493l1.555-1.088l0.236-0.41l0.22-0.565l-0.008-0.463l0.19-0.613l0.433-0.413
		l0.754-0.561l0.239-0.344l0.002-0.267l-0.162-0.233l-0.109-0.228l-0.13-1.719l0.277-1.234l0.433-0.704l0.631-0.547l0.668-0.292
		l0.559-0.406l0.124-0.34l-0.434-0.841l-0.185-0.552l0.027-1.069l-0.177-0.554l-0.313-0.41l-0.339-0.221l-0.326-0.34l-0.162-0.347
		l-0.021-0.536l0.178-0.47l1.19-1.878l1.771-1.944l0.119-0.581l-0.314-1.343l-0.128-1.046l-0.169-0.36l-0.245-0.237l-0.22-0.26
		l-0.21-0.397l-0.157-0.711l-0.075-0.748l-0.005-0.944l0.114-0.499l0.215-0.397l0.279-0.253l0.232-0.264l0.301-0.292l0.343-0.492
		l0.329-0.378l0.394-0.331l1.04-0.597l0.41-0.315l0.344-0.399l0.165-0.39l0.068-0.486l-0.071-0.449l-0.418-1.235l-0.006-0.609
		l0.098-0.365l0.428-0.672l0.752-0.991l0.47-0.353l0.843-0.499l0.63-0.116l1.483,0.23l1.13-0.046l0.636-0.178l0.745-0.335
		l0.394-0.326l0.889-0.887l1.908,0.408l1.049,0.859l0.649,0.656l0.542,0.684l0.383,0.645l1.353,3.476l0.352,1.472l0.441,1.01
		l0.534,0.542l0.673-0.13l1.991-0.422l0.843,0.08l0.674,0.472l0.525,0.973l0.573,2.895l0.813,1.286l0.127,0.408l0.019,0.969
		l0.134,0.602l0.652,1.106l0.238,0.599l0.115,1.324l0.146,0.629l0.39,0.533l0.766,0.415l1.79,0.424l0.81,0.305l0.57,0.547
		l0.257,0.682l0.169,0.729l0.31,0.698l0.57,0.506l0.723,0.274l1.531,0.397l12.134,5.148l10.127,6.56l0.764,0.182l0.624,0.287
		l0.532,0.675l0.801,1.421l1.557,1.858l0.391,0.643l0.309,0.239l0.31,0.299l0.142,0.41l0.087,0.171l0.542,1.5l1.069,1.272
		l1.492,0.981l1.798,0.534l1.99-0.048l1.329-0.465l0.513,0.055l0.718,0.561l0.572,0.301l1.511,0.294l1.849,0.921l0.949-0.292
		l0.879-0.411l0.614,0.144L706.406,339.189z"/>
	<path class="st0" d="M631.182,381.785l-0.061,0.192l-0.812,1.771l-0.296,0.909l-0.103,0.858l0.021,1.589l0.183,0.9l-0.029,0.429
		l-0.336,0.256l-0.562,0.096l-0.21,0.073l-0.025,0.228l0.002,0.557l0.564,2.854l-0.269,0.849l-1.075,1.05l-0.35,0.224l-0.543,0.256
		l-0.267,0.201l-0.455,0.854l-0.316,0.845l-0.435,3.27l0.003,0.306l-0.182,0.183l-0.615,0.338l-0.57,0.178l-0.534,0.041
		l-0.491,0.128l-0.449,0.466l-0.213,0.726l0.043,2.631l-0.472,1.96l-2.687,5.629l-0.42,1.933l-0.38,0.864l-0.811,0.676l-0.366,0.928
		l0.054,1.659l0.355,1.641l0.536,0.846l1.048,0.64l-0.119,0.713l-0.681,0.836l-0.637,1.028l-0.114,0.814l0.041,0.882l-0.054,0.85
		l-0.398,0.713l-1.202,0.796l-0.475,0.315l-4.037,1.614l-1.842,1.042l-2.01,1.856l-0.825,1.138l-0.497,1.216l0.032,1.212
		l0.995,1.989l0.226,1.056l-0.467,0.878l-1.021,0.229l-1.16,0.009l-0.885,0.224l-0.47,0.727l-0.489,2.156l-0.317,0.929l-1.138,1.212
		l-1.271,1.057l-0.817-0.81l-0.482-0.352l-0.475-0.224l-0.457-0.055l-0.712,0.178l-0.449,0.018l-0.77-0.174l-1.474-0.517
		l-0.775-0.128l-1.074,0.039l-2.054,0.075l-1.012-0.27l-0.615-0.746l-0.47-0.935l-0.582-0.842l-0.388-0.256l-0.86-0.325
		l-0.384-0.279l-0.236-0.38l-0.287-0.873l-0.238-0.393l-0.766-0.567l-0.909-0.48l-0.761-0.608l-0.317-0.937l-0.135-0.821
		l0.406-0.185l1.884-2.055l1.488-2.371l0.556-0.615l1.364-1.952l0.286-0.544l0.206-0.59l0.064-0.48l-0.186-0.793l-0.042-0.482
		l0.255-1.303l0.655-0.535l0.269-0.329l0.26-0.514l0.312-0.258l0.334-0.055l0.46,0.11l0.514,0.21l0.576,0.075l0.372,0.162
		l0.466,0.329l0.371,0.322l0.406,0.021l0.278-0.247l0.227-0.395l0.248-0.217l0.368-0.126l0.385-0.075l0.391-0.155l0.262-0.263
		l0.354-0.674l0.648-0.9l0.543-0.484l0.196-0.315l0.134-0.347l0.256-1.43l0.074-0.919l-0.041-1.088l-0.075-0.505l0.338-2.497
		l-0.115-1.163l0.094-0.569l-0.05-0.758l-0.058-0.361l-0.098-0.345l-0.496-0.599l-0.13-0.215l-0.201-0.206l-0.208-0.144
		l-0.448-0.185l-0.162-0.107l-0.14-0.123l-0.126-0.137l-0.123-0.238l-0.109-0.315l0.016-0.658l0.116-0.925l0.631-2.49l0.069-0.642
		l-0.219-1.332l-0.068-1.021l0.123-1.395l0.267-0.966l0.421-0.955l0.169-0.505l0.041-0.411l-0.104-0.731l-0.125-0.418l-0.518-0.909
		l-0.843-1.009l-0.438-0.669l-0.617-1.443l-0.422-0.783l-0.117-0.356l-0.092-0.402l0.068-0.311l0.131-0.217l0.223-0.116l0.236-0.027
		l0.245,0.018l0.458-0.025l0.242-0.105l0.191-0.141l0.213-0.263l0.044-0.279l-0.031-0.648l0.166-0.283l0.624-0.543l0.338-0.173
		l0.876-1.084l0.775-0.119l0.289-0.1l0.314-0.158l0.243-0.356l0.181-0.429l0.491-2.543l-0.255-1.568l0.025-0.525l0.11-0.491
		l0.293-0.835l-0.027-0.367l-0.122-0.281l-0.219-0.26l-0.226-0.657l-0.064-0.356l0.065-0.395l0.205-0.443l0.398-0.577l0.582-0.573
		l0.768-0.587l2.493-1.388l0.879-0.828l3.66,2.604l0.289,0.329l0.133,0.322l0.003,0.272l-0.111,0.274l-0.206,0.228l-0.48,0.447
		l-0.223,0.253l-0.164,0.29l-0.055,0.274l0.034,0.311l0.173,0.605l0.069,0.797l0.075,0.399l0.104,0.306l0.172,0.274l0.231,0.278
		l0.352,0.31l0.202,0.258l0.106,0.26l0.044,0.313l0.248,0.267l0.49,0.235l1.226,0.189l1.819,0.493l1.493,0.203l0.463,0.153
		l0.781,0.363l0.294,0.025l0.287-0.196l0.198-0.26l0.442-0.836l0.157-0.185l0.229-0.164l0.41-0.123l0.521-0.059l1.71,0.183
		l0.881-0.014l3.244-0.578l5.489,0.025L631.182,381.785z"/>
	<path class="st0" d="M552.298,397.308l0.655-0.046l3.228-0.164l2.793-0.598l2.62-1.261l0.854-0.192l2.559-0.247l0.801,0.014
		l0.66,0.144l0.9,0.317l0.75,0.073l2.863-0.155l0.903-0.215l0.681-0.315l1.12-1.306l0.472-0.443l1.329-0.717l0.649-0.281
		l0.428-0.251l0.371-0.048l0.223,0.103l0.318,0.591l0.283,0.331l0.696,0.66l0.531,0.212l0.731,0.091l1.513-0.247l0.564,0.116
		l0.844,0.342l0.513,0.103l0.834,0.048l0.799-0.212l0.572-0.308l0.342-0.347l0.33-0.475l0.163-0.404l0.016-0.461l-0.338-1.185
		l0.05-0.288l0.226-0.301l0.664-0.639l0.207-0.281l0.228-0.445l0.182-0.664l0.089-0.696l-0.089-0.614l-0.207-0.489l-0.294-0.356
		l-0.285-0.228l-0.547-0.329l-0.508-0.479l-0.304-0.215l-0.484-0.112l-0.392,0.146l-0.308,0.247l-0.493,0.687l-0.541,0.55
		l-0.33,0.26l-0.285,0.137l-0.206-0.306l-0.079-0.429l0.058-0.568l0.653-2.025l-0.052-0.582l0.058-1.036l0.164-0.516l0.266-0.484
		l1.512-1.751l0.139-0.244l0.066-0.274l-0.023-0.24l-0.152-0.274l-0.239-0.185l-0.314-0.121l-0.32-0.084l-0.243-0.183l-0.202-0.397
		l-0.203-0.771l-0.093-0.76l0.246-2.344l1.11,0.445l1.196,0.183l1.541,0.021l1.209-0.121l0.599,0.041l0.513,0.26l0.483,0.445
		l0.264,0.68l0.027,0.488l-0.061,0.833l0.091,0.963l0.269,0.589l0.522,0.557l1.112,0.475l0.878,0.005l0.671-0.13l1.219-0.621
		l0.387-0.075l0.27,0.269l0.334,0.872l0.456,0.924l1.34,2.15l0.314,0.863l0.002,1.027l0.126,1.354l0.802,1.107l-0.876,1.084
		l-0.338,0.173l-0.624,0.543l-0.166,0.283l0.031,0.648l-0.044,0.279l-0.213,0.263l-0.191,0.141l-0.242,0.105l-0.458,0.025
		l-0.245-0.018l-0.236,0.027l-0.223,0.116l-0.131,0.217l-0.068,0.311l0.092,0.402l0.117,0.356l0.422,0.783l0.617,1.443l0.438,0.669
		l0.843,1.009l0.518,0.909l0.125,0.418l0.104,0.731l-0.041,0.411l-0.169,0.505l-0.421,0.955l-0.267,0.966l-0.123,1.395l0.068,1.021
		l0.219,1.332l-0.069,0.642l-0.631,2.49l-0.116,0.925l-0.016,0.658l0.109,0.315l0.123,0.238l0.126,0.137l0.14,0.123l0.162,0.107
		l0.448,0.185l0.208,0.144l0.201,0.206l0.13,0.215l0.496,0.599l0.098,0.345l0.058,0.361l0.05,0.758l-0.094,0.569l0.115,1.163
		l-0.338,2.497l0.075,0.505l0.041,1.088l-0.074,0.919l-0.256,1.43l-0.134,0.347l-0.196,0.315l-0.543,0.484l-0.648,0.9l-0.354,0.674
		l-0.262,0.263l-0.391,0.155l-0.385,0.075l-0.368,0.126l-0.248,0.217l-0.227,0.395l-0.278,0.247l-0.406-0.021l-0.371-0.322
		l-0.466-0.329l-0.372-0.162l-0.576-0.075l-0.514-0.21l-0.46-0.11l-0.334,0.055l-0.312,0.258l-0.26,0.514l-0.269,0.329l-0.655,0.535
		l-0.255,1.303l0.042,0.482l0.186,0.793l-0.064,0.48l-0.206,0.59l-0.286,0.544l-1.364,1.952l-0.556,0.615l-1.488,2.371l-1.884,2.055
		l-0.406,0.185l-0.009-0.057l-1.154-2.176l-0.507-2.624l-1.285-1.884l0.03-0.951l1.016-1.81l0.11-0.649l-0.246-0.416l-0.896-0.526
		l-1.062,0.009l-0.271-0.146l-0.629-0.466l-0.344-0.165l-2.226-2.203l-1.219-0.608l-1.594,0.215l-1.52,0.905l-2.961,0.914
		l-1.637-0.256l-1.096-1.134l-0.926-1.385l-1.117-1.033l-1.157-0.292l-1.132-0.014l-1.146-0.137l-1.194-0.654l-0.89-0.626
		l-1.426-1.558l-0.795-0.681l-0.759-0.274l-0.898-0.164l-0.734-0.228l-0.281-0.48l-0.125,0.046l-1.797,0.233l-0.482,0.164
		l-0.453,0.224l-0.37,0.297l-0.375,0.621l-0.452,1.549l-0.329,0.699l-0.694,0.75l-3.39,2.605l-1.806,0.969l-0.424,0.384
		l-0.348,0.032l-0.783,0.023l-0.732-0.265l-1.978-1.124l-0.598-0.535l-0.386-0.928l0.165-0.754l5.83-7.755l0.487-0.978l-2.035,0.251
		l-1.909,0.566l-1.538-0.164l-0.933-1.956l0.003-0.411l0.17-0.841l-0.015-0.416l-0.239-0.566l-0.726-1.001l-0.221-0.548l0.079-0.813
		l0.003-0.037l0.38-1.11l0.511-1.069l0.481-0.713l0.658-0.47l0.813-0.237l0.892-0.064l0.898,0.05l0.91,0.288l1.86,1l0.827,0.169
		l0.921-0.452l0.742-0.918l0.64-1.023l0.627-0.777l3.436-1.58l0.701-0.79L552.298,397.308z"/>
	<path class="st0" d="M552.298,397.308l0.001-0.053l-0.267-0.26l-0.395-0.256l-0.384-0.448l-0.118-0.379v-0.818l-0.056-0.397
		l-0.39-0.891l-0.885-1.416l-0.206-0.891l0.082-0.338l0.188-0.306l0.147-0.342l-0.044-0.434l-0.27-0.827l-0.042-0.342v-0.443
		l0.073-0.388l0.287-0.858l0.07-0.438l-0.052-0.484l-0.253-0.845l-0.007-0.493l-0.12-0.415l-0.383-0.178l-0.435-0.142l-0.284-0.306
		l0.003-0.342l0.343-1.192l0.082-0.845l-0.001-0.434l-0.105-0.393l-0.283-0.32l-0.727-0.301l-0.268-0.247l-0.099-0.922l0.269-0.918
		l0.094-0.771l-0.621-0.479l-1.67-0.443l-0.718-0.374l-0.301-0.157l-0.095-0.317l-0.054-0.331l0.135-0.453l0.592-0.356l0.273-0.521
		l0.219-0.618l0.423-0.618l-0.447,1.24l-0.156,0.298l0.275,0.906l0.529-0.41l0.248-1.387l0.452-0.647l1.206,1.208l0.599-0.252
		l3.19-0.654l0.549,0.054l0.362,0.09l0.323,0.018l0.423-0.162l1.005-1.186l0.199-0.172l1.667-3.472l0.466-0.625l0.987,0.187
		l0.204,1.053l-0.312,2.109l0.474-0.28l0.292-0.428l0.249-0.492l0.352-0.478l0.402-0.32l1.403-0.884l0.653-0.758l0.429-0.923
		l0.242-0.995l0.205-1.703l0.718-1.595l0.933-1.494l0.003,0l0.35,0.041l3.373,0.18l0.458,0.087l1.786,0.541l5.377,2.834l1.679,1.451
		l0.232,0.586l0.093,0.65l-0.073,0.646l-0.193,0.577l-0.968,1.91l-0.259,0.924l-0.232,0.411l-0.465,0.306l-0.847,0.413l-0.172,0.18
		l-0.085,0.379l0.27,0.212l0.515,0.182l1.548,0.048l2.507-0.561l1.619-0.203l0.588,0.018l0.779,0.125l1.433,0.539l-0.246,2.344
		l0.093,0.76l0.203,0.771l0.202,0.397l0.243,0.183l0.32,0.084l0.314,0.121l0.239,0.185l0.152,0.274l0.023,0.24l-0.066,0.274
		l-0.139,0.244l-1.512,1.751l-0.266,0.484l-0.164,0.516l-0.058,1.036l0.052,0.582l-0.653,2.025l-0.058,0.568l0.079,0.429
		l0.206,0.306l0.285-0.137l0.33-0.26l0.541-0.55l0.493-0.687l0.308-0.247l0.392-0.146l0.484,0.112l0.304,0.215l0.508,0.479
		l0.547,0.329l0.285,0.228l0.294,0.356l0.207,0.489l0.089,0.614l-0.089,0.696l-0.182,0.664l-0.228,0.445l-0.207,0.281l-0.664,0.639
		l-0.226,0.301l-0.05,0.288l0.338,1.185l-0.016,0.461l-0.163,0.404l-0.33,0.475l-0.342,0.347l-0.572,0.308l-0.799,0.212
		l-0.834-0.048l-0.513-0.103l-0.844-0.342l-0.564-0.116l-1.513,0.247l-0.731-0.091l-0.531-0.212l-0.696-0.66l-0.283-0.331
		l-0.318-0.591l-0.223-0.103l-0.371,0.048l-0.428,0.251l-0.649,0.281l-1.329,0.717l-0.472,0.443l-1.12,1.306l-0.681,0.315
		l-0.903,0.215l-2.863,0.155l-0.75-0.073l-0.9-0.317l-0.66-0.144l-0.801-0.014l-2.559,0.247l-0.854,0.192l-2.62,1.261l-2.793,0.598
		l-3.228,0.164L552.298,397.308z"/>
	<path class="st0" d="M556.936,343.522l2,0.065l3.03,1.871l1.894,0.478l-0.07,0.341l-0.124,0.316l-0.178,0.287l-0.231,0.262
		l-0.492,0.413l-2.217,0.956l-0.14,0.388l-0.621,0.593l-0.142,0.237l-0.267,0.679l-0.362,0.679l-0.366,0.384l-0.093,0.007
		l-0.468,0.803l-0.529,1.06l-0.556,1.007l-0.291,0.715l-0.715,0.292l-0.583,0.663l0.027,1.033l-0.672,0.632l-0.269,0.636
		l-0.702,1.013l-1.578-0.158l-0.879,0.514l-0.748,0.226l-1.075-0.086l-1.035-0.27l-0.633-0.334l-0.261-0.975l0.267-1.565
		l0.158-5.302l0.156-0.597l1.485-2.737l0.63-1.785l0.63-0.453l2.682-0.78l2.411-1.196L556.936,343.522z M564.166,360.414l0.55-0.881
		l0.377-0.884l-0.44-0.769l0.16-0.999l0.581-1.724l0.097-0.776l1.378-4.501l0.931-1.67l0.101-0.291l0.432-0.945l0.163-1.027
		l0.936-2.572l0.506-0.758l1.322-1.354l0.377-0.783l0.059-1.063l-0.283-1.972l-0.596-1.541l-0.143-0.244l-0.965,0.057l-0.499-0.043
		l-0.355-0.172l-0.533-0.815l-0.85-2.367l-0.551-0.869l-0.267-0.539l-0.081-0.625l0.038-2.571l-0.296-2.054l-0.018-0.575
		l0.271-0.969l0.07-0.596l-0.205-0.266l-0.072-0.18l-0.56-0.754l-0.136-0.122l-0.066-0.302l-0.131-0.223l-0.101-0.302l0.027-0.531
		l0.221-0.485l0.291-0.377l0.102-0.398l-0.343-0.542l0.682-0.718l0.696-0.205l0.542-0.32l0.215-1.034l0.334-0.495l0.728-0.33
		l0.728-0.488l0.319-0.955l-2.616,1.486l-0.283,0.215l-0.115,0.388l-0.027,0.779l-0.323,0.14l-1.43,0.097l-0.325,0.37l-0.075,0.345
		l-0.377,1.074l-0.375,1.766l-0.061,1.275l0.269,1.278l1.342,2.338l0.1,1.339l-0.685,8.593l-0.466,1.792l-0.307,0.481l-1.207,1.347
		l-0.429,0.28l-0.711,0.216l-1.528,0.884l-0.635,0.133l-0.443-0.219l-0.258-0.593l-0.352-0.119l-0.944,0.104l-0.316-0.108
		l-0.561-0.431l-0.235-0.725l0.59-0.69l1.315-0.887l0.402-0.927l0.197-0.664l0.456-0.391l1.188-0.129l0.28,0.183l0.264,0.377
		l0.334,0.341l0.493,0.029l0.422-0.251l0.199-0.374l-0.032-0.453l-0.262-0.481l-0.197,0.927l-0.596-0.194l-1.04-1.009l-0.967,0.111
		l-0.881,0.449l-0.639,0.197l-0.247-0.618l0.185-0.97l0.829-1.885l0.188-1.059l0.165-0.546l0.398-0.215l0.502-0.097l0.467-0.19
		l0.334-0.345l0.897-1.429l-0.405,0.108l-0.226,0.137l-0.463,0.481l-0.366,0.151l-0.893-0.072l-0.409,0.043l-0.499,0.341
		l-0.391,0.539l-1.903,4.913l-3.008,4.22l-1.36,1.473l-1.432,0.621l-0.33,0.578l-0.33,0.413l-0.407,0.241l-0.422-0.007l-0.23-0.18
		l-0.165-0.273l-0.223-0.294l-0.646-0.287l-0.423,0.33l-0.154,0.729l0.154,0.887l0.169,0.129l1.202,1.225l0.154,0.366l0.034,0.499
		l-0.052,0.955l-0.443,0.402l-1.012-0.137l-1.857-0.729l-1.862-1.584l-0.649-0.366l-0.57-0.56l-0.258-0.201l-0.276-0.079
		l-0.786-0.108l-0.414-0.115l-1.679-1.077l-3.301-3.891l3.186-3.043l2.633-1.948l3.777-0.916l2.141-1.234l1.962-3.008l0.704-4.465
		l0.115-3.895l-1.717-2.634l-1.588-1.467l-2.603-1.579l-3.478-0.849l-2.289-1.374l-1.259-2.062l-0.408-1.924l1.826,0.046
		l1.282-0.128l0.355-0.144l0.196-0.233l0.08-0.312l0.105-0.28l0.047-0.344l0.006-0.376l0.093-0.481l0.337-0.499l0.386-0.426
		l0.33-0.476l0.248-0.52l0.325-0.399l0.539-0.41l0.426-0.221l0.624-0.244l0.27-0.242l0.433-0.777l0.327-0.312l0.369-0.155
		l0.327,0.176l0.33,0.267l0.277,0.176l0.275-0.068l0.257-0.301l0.586-0.317l1.736,0.125l0.611-0.187l0.214-0.444l-0.441-1.292
		l-0.072-0.415l0.039-0.346l0.047-0.226l-0.106-0.157l-0.285-0.096l-0.461-0.089l-0.419-0.233l-0.576-0.472l-0.468-0.554
		l-0.235-0.362l0.026-0.298l2.699-0.362l1.494-1.01l0.23-0.39l-0.031-0.306l-0.494-0.759l-0.189-0.463l-0.109-0.547l0.01-0.513
		l0.202-1.174l0.214-0.497l0.27-0.356l0.208-0.123l0.287-0.08l0.686-0.438l0.996-0.292l0.246-0.187l0.078-0.271l-0.171-1.032
		l0.086-0.88l0.297-0.629l0.487-0.394l0.966-0.422l1.74-1.381l0.379-0.545l0.884-2.397l0.353-1.356l0.4-0.882l0.289-1.023
		l0.287-0.647l0.412-0.458l0.282-0.164l0.154,0.089l-0.036,0.326l-0.096,0.397l0.074,0.226l0.239,0.068l0.701-0.027l0.333,0.057
		l0.379,0.107l0.832-0.226l0.638-0.353l2.262-1.828l0.512-0.595l0.732-1.18l0.581-0.629l0.341-0.472l0.226-0.417l0.101-0.344
		l0.056-0.314l-0.024-0.324l0.055-0.367l0.222-0.237l0.668-0.438l0.236-0.399l0.18-0.565l0.202-0.485l1.676-2.365l0.449-0.396
		l0.532-0.28l0.711-0.226l2.838-0.465l1.446-0.387l1.549-0.182l0.697,0.007l0.565,0.344l0.264,0.67l-0.207,1.426l-0.704,1.937
		l-0.007,0.426l0.15,0.319l0.075,0.26l-0.273,0.36l-0.349,0.214l-0.365,0.278l-0.287,0.346l-0.221,0.485l-0.116,0.365l-0.278,1.513
		l-0.235,0.456l-0.298,0.314l-0.369,0.153l-0.406,0.055l-0.403,0.137l-0.291,0.251l-0.159,0.271l-0.485,0.526l-0.414,0.656
		l-0.285,0.253l-0.694,0.075l-0.288,0.116l-0.172,0.289l-0.098,0.54l-0.121,0.328l-0.166,0.269l-0.256,0.144l-0.296,0.068
		l-0.189,0.025l-0.158,0.121l-0.063,0.221l-0.081,0.504l-0.171,0.191l-0.22,0.1l-0.486,0.103l-0.183,0.075l-0.185,0.132
		l-0.137,0.189l-0.048,0.294l-0.023,0.866l-0.089,0.458l-0.138,0.413l-2.466,4.66l-0.355,0.481l-0.791,0.861l-0.547,0.811
		l-0.213,0.417l-0.71,1.992l-0.09,0.506l-0.224,2.79l0.039,0.479l0.617,1.924l-0.061,0.296l-0.275,0.773l-0.041,0.531l0.092,0.636
		l0.107,0.419l0.191,0.31l3.623,1.878l0.631,0.59l0.48,0.887l0.325,0.957l0.406,0.698l1.099,1.482l0.295,0.563l0.608,1.484
		l0.987,1.817l0.272,1.01l0.35,0.36l0.988,0.219l1.528-0.251l2.249-0.841l0.787-0.071l0.952,0.112l0.864,0.431l2.006,1.372
		l0.977,0.47l0.539,0.335l1.304,1.028l0.534,0.574l3.302,5.494l2.224,2.059l1.785,0.34l0.522,0.025l0.508-0.027l0.291-0.176
		l0.28-0.267l0.418-0.274l0.409,0.034l0.359,0.344l0.199,0.372l-0.123,1.806l-0.413,0.919l-0.236,0.322l-0.449,0.502l-0.606,0.47
		l-1.026,0.579l-1.017,0.41l-0.876,0.246l-5.189,0.949l-0.535,0.23l-0.615,0.342l-1.194,0.917l-0.466,0.479l-0.409,0.566
		l-0.002,1.065l-0.185,0.383l-0.055,0.333l0.142,0.363l0.174,0.312l-0.052,0.239l-1.459,0.955l-2.472,2.283l0.064,0.602l0.362,0.306
		l0.657,0.089l1.038-0.538l1.27-0.376l0.547,1.127l0.345,0.511l-0.086,0.502l-0.253,0.433l-0.968,1.029l-0.375,0.337l-0.263,0.192
		l-0.262,0.139l-0.202,0.148l-9.645,10.088l-0.405,1.061l-0.169,1.113l0.071,0.819l0.27,1.202l0.072,1.262l-0.027,0.344
		l-2.381,2.939l-0.305,0.559l-0.166,0.395l-0.041,0.856l-1.786-0.541l-0.458-0.087l-3.373-0.18l-0.35-0.041L564.166,360.414z
		 M567.528,335.717l0.469,1.137l1.071,0.401l0.536,0.936l-0.936,1.406l-1.539,0.804l-0.2,1.941l-1.07,0.669l-0.87-0.067
		l-0.201-1.004l0.602-1.673l0.936-2.409L567.528,335.717z"/>
	<path class="st0" d="M133.622,285.17l1.173,0.384l0.886,0.937l0.057,0.955l-1.324,0.438l-1.446-0.179l-3.563-1.629l0.904-0.905
		l0.693,0.136l2.072-0.029L133.622,285.17z M101.904,281.395l0.095,0.122l0.206,0.14l0.213,0.197l0.117,0.309l-0.03,0.301
		l-0.108,0.172l-0.109,0.122l-0.054,0.144l-0.118,0.165l-0.578,0.165l-0.208,0.104l-0.047,0.194l0.083,0.535l-0.036,0.201
		l-0.248,0.276l-1.446,0.886l-0.287,0.065l-1.613-0.237l-0.63-0.459l-0.603-0.589l-0.92-0.546l0.407-0.456l0.379-0.581l0.28-0.628
		l0.292-1.332l0.431-0.693l0.509-0.244l0.413,0.624l0.875-0.23l1.206,0.241l1.069,0.499L101.904,281.395z M149.194,256.311
		l0.549,0.344l0.576-0.007l0.579-0.223l0.54-0.294l0.106,1.658l-0.811,1.798l-1.275,1.59l-1.304,1.034l-1.57,0.456l-0.237,0.28
		l-0.084,0.413l-0.518,1.285l-0.893,1.342l-0.592,0.632l-0.648,0.438l-0.687,0.219l-0.673,0.075l-1.502-0.021l-0.457,0.143
		l-0.915,0.642l-0.61,0.147l-0.429-0.129l-0.953-0.603l-0.425-0.201l-1.572-0.23l-0.386-0.194l-0.065-0.406l0.278-0.474l0.538-0.657
		l0.366-0.352l1.755-0.832l0.59-0.467l0.465-1.507l0.457-0.05l1.834-0.445l0.517-0.502l0.669-1.414l0.396-0.509l1.164-1.098
		l0.246-0.373l0.344-0.28l1.589-0.581l0.474-0.47l0.673-0.032l1.365-0.359L149.194,256.311z M110.225,249.813l0.504,0.452
		l-0.108,1.037l-0.562,1.848l0.021,0.52l0.248,0.642l0.061,0.495l-0.104,0.126l-0.38,0.969l0.018,0.23l-0.739,0.294l-0.533,0.689
		l-0.465,0.811l-0.536,0.646l-0.404,0.284l-0.231,0.075l-2.155-0.054l-0.219,0.147l-0.231,0.868l-0.583,0.445l-0.782,0.129
		l-0.811-0.065l-1.503-0.517l-0.951-0.187l-0.294-0.215l-0.21-0.215l-0.231-0.093l-0.33-0.298l-0.94-1.378l-0.384-0.434
		l-0.644,0.072l-0.823-0.194l-0.77-0.359l-0.474-0.452l-0.075-0.56l0.075-2.146l0.258-1.148l0.49-1.069l0.639-0.933l0.692-0.739
		l0.427-0.287l1.197-0.513l0.511-0.129l0.481,0.018l0.994,0.24l0.334,0.043l0.416-0.118l0.502-0.334l0.284-0.126l4.18-0.474
		l0.965-0.481l0.244,0.093l0.262,0.151l0.244,0.187l0.183,0.197l0.097,0.431l-0.041,0.506l0.043,0.42l0.335,0.176l0.45,0.04
		l0.867,0.194L110.225,249.813z M56.915,246.049l-0.431,0.244l-3.05,1.227l-0.766,0.161l-0.447,0.021l-0.414-0.14l-0.936-0.624
		l-0.816-0.208l-1.32-0.531l-0.208-0.029l-0.463,0.057l-0.204-0.029l-0.215-0.154l-0.007-0.14l0.032-0.151l-0.111-0.187
		l-0.757-0.793l-0.579-0.901l-0.366-0.99l-0.296-2.024l-0.56-1.661l0.124-0.556l3.862,0.1l1.638-0.836l2.05-0.47l1.019-0.366
		l0.3,0.05l0.517,0.316l1.534,1.564l0.409,0.244l0.533,0.409l0.118,0.933l-0.188,1.668V246.049z M93.778,238.644l0.596,0.344
		l-0.294,0.797l-0.929,1.421l-0.332,0.911l-0.798,0.269l-0.997-0.129l-1.886-0.57H86.06l-0.852-0.269l-0.784-0.492l-0.825-0.266
		l-0.985,0.395l-0.612-0.746l-0.287-1.13l-0.456-0.944l-1.11-0.194l1.873-2.583l0.113-0.588l-0.264-0.782l0.364-0.768l0.725-0.567
		l0.829-0.158l0.319,0.233l0.131-0.018l0.181-0.215l0.868,0.621l3.008,1.015l1.075,0.172l1.432,0.553l2.295,2.576l1.254,0.811
		l-0.188,0.043l-0.117,0.061L93.778,238.644z M82.913,258.296l0.411,0.215h0.271l0.149,0.151l0.045,0.664l-0.219,0.262l-1.064,0.434
		l-0.371,0.215l-1.383,4.32l0.172,1.08l-0.091,0.807l-0.954-0.294l-0.513,0.736l-1.13,1.267l-0.491,0.711l-0.746-0.344l-0.728-0.072
		l-1.399,0.115l-0.845,0.23l-1.415,1.041l-5.054,1.672l-0.979-0.237l-0.68,0.208l-3.961-0.56l-4.959,0.072l-0.929-0.294
		l-0.664-0.632l-0.19-0.463l-0.079-0.474l-0.002-1.034l-0.167-0.499l-0.405-0.126l-0.509-0.004l-0.479-0.136l-1.098-1.73l0.4-2.009
		l1.205-1.888l1.324-1.299l5.145-3.337l0.233-0.359v-0.294l0.151-0.204l0.685-0.075l1.119-0.463l1.532-0.406l0.52-0.007l0.484,0.133
		l0.278,0.19l0.192,0.176l0.226,0.133l0.764,0.258l0.475,0.036l0.454-0.172l0.226-0.266l0.423-0.657l0.242-0.133l0.011-0.466
		l0.396-0.919l0.615-0.682l0.658,0.262l0.526-0.728l0.032-0.66l-0.328-0.574l-0.556-0.474l-0.589-0.276l-1.299-0.388l-0.522-0.237
		l-1.044-0.958l-1.046-1.406l-0.838-1.579l-0.411-1.478l0.066-1.274l-0.131-0.452l-0.536-0.409l-0.35-0.111l-0.578-0.061
		l-0.278-0.129l-0.156-0.19l-0.42-0.71l-2.677-1.428l-1.015-1.116l0.054-1.399l-0.879-0.52l-0.563-0.969l0.086-0.904l1.055-0.316
		l-0.802-1.141l-0.307-0.653l-0.122-0.761v-1.521l-0.045-0.388l-0.185-0.712l-0.043-0.42l-0.38-1.466l-0.979-0.728l-1.362-0.043
		l-1.523,0.581l-1.523,1.044l-0.775,0.169l-0.874-0.461l-0.902-1.195l-0.138-0.307l0.095-0.384l0.248-0.192l0.336-0.135l2.98-1.654
		l0.841-0.872l0.316-1.762l1.091,0.348l0.874-0.244l0.838-0.44l1.439-0.387l0.301-0.355l0.262-0.411l0.341-0.316l0.522-0.158
		l0.818,0.032l0.465-0.172l0.707,0.639l0.335,1.015l0.16,0.942l0.169,0.411l0.585,0.427l0.52,1.884l0.386,0.427l0.275,0.187
		l0.624,0.831l0.307,0.188l0.945,0.039l0.441,0.093l0.294,0.169l0.312,0.775l0.068,1.082l-0.104,2.054l0.814,4.923l0.484,0.768
		l1.835,1.665l0.172,0.201l0.038,0.255l-0.007,0.513l0.142,0.502l0.31,0.208l0.309,0.072l0.144,0.129l4.489,2.835l0.326,0.488
		l0.104,0.409l0.251,0.359l0.578,0.603l0.197,0.126l0.703,0.176l0.014,0.258l-0.111,0.266l-0.126,0.222l-0.052,0.129l0.393,1.679
		l0.183,1.823l-0.258,0.832l-1.189,1.019l-0.357,0.696l0.983-0.646l0.291,0.38l0.031,0.825l0.199,0.671l1.866,0.344l0.915,0.477
		l-0.072,0.987l0.617,0.083l0.511,0.237l0.409,0.388l0.296,0.524l-0.301,0.599l0.592,0.248L82.913,258.296z M96.036,213.582
		l-0.429-0.158l-0.423-0.362l-0.341-0.402l-0.163-0.283l0.099-1.001l0.698-0.737l0.971-0.474l0.944-0.196l0.997,0.319l1.058,0.511
		l0.857,0.694l0.398,0.883l-0.291,0.642l-0.775,0.714l-0.99,0.56l-0.929,0.19l-0.529-0.176l-0.58-0.599L96.036,213.582z
		 M83.516,197.268l1.798,1.01l0.551,1.993l-0.709,1.397l-1.97-0.789l0.312-0.933L83.2,198.06L83.516,197.268z M38.484,164.95
		l0.203,0.075l0.16,0.332l-0.079,0.212l-0.221,0.19l-0.215-0.131l-0.118-0.264l-0.002-0.251L38.484,164.95z M38.358,164.595
		l0.197-0.013l-0.129,0.151L38.358,164.595z M30,152.944l0.242-0.253l0.276,0.194v0.388l-0.301,0.07L30,152.944z M120.579,211.009
		l0.225-0.064l0.386,0.064l0.29,0.612l-0.064,0.741l-0.29,0.322l0.032-0.483l-0.354-0.129l-0.451,0.193v0.322l-0.386-0.161
		l-0.161-0.612l0.193-0.483L120.579,211.009z"/>
	<path class="st0" d="M535.647,337.652l-1.382-1.629l-3.64-3.401l-1.42-0.463l-1.287-0.62l-1.431,0.049l-2.334-0.776l-0.813-0.37
		l-1.853-1.637l-0.972-0.37l-0.694,0.007l-0.526-0.1l-0.334-0.399l-0.26-1.49l-0.339-0.664l-0.721-1.031l-0.61-0.628l-1.634-1.311
		l-0.181-0.284l-0.208-0.463l-0.093-0.431l0.169-0.194l0.352,0.086l0.161,0.187l0.093,0.208l0.147,0.122l1.121,0.269l0.529,0.032
		l0.235,0.14l0.222,0.753l0.574,0.62l1.1-0.047l1.577-0.572l2.245-1.81l1.718-0.857l1.575-1.762l0.332-2.621l-0.622-1.336
		l-0.351-1.375l-0.133-0.359l0.196-0.46l0.477-0.095l0.62-0.333l0.131-1.076l-0.124-1.12l-1.215-4.695l-0.664-1.856l-0.287-0.815
		l-0.388-0.678l-0.416-0.506l-0.524-0.818l-0.261-0.644l0.006-0.001l1.182-0.248l0.841,0.098l0.314-0.05l0.616-0.189l3.169,0.155
		l0.85-0.164l1.544-0.531l0.8-0.014l1.293,0.185l0.599,0.335l0.261,0.387l-0.08,0.408l-0.027,0.301l0.071,0.26l0.574,0.556
		l0.198,0.337l0.061,0.399l-0.187,1.288l-0.073,0.255l-0.515,0.805l-0.137,0.374l-0.106,0.394l-0.041,0.419l0.1,0.417l0.385,0.49
		l0.685,0.333l0.934,0.228l0.408,1.924l1.259,2.062l2.289,1.374l3.478,0.849l2.603,1.579l1.588,1.467l1.717,2.634l-0.115,3.895
		l-0.704,4.465l-1.962,3.008l-2.141,1.234l-3.777,0.916l-2.633,1.948L535.647,337.652z"/>
	<path class="st0" d="M523.504,300.028l-0.776-1.915l-0.606-0.783l-0.201-0.567l-0.066-0.646l0.178-0.503l1.546-1.088l-0.19-1.03
		l0.011-1.278l0.398-0.367l0.524-0.477l0.54-0.137l0.728,0.005l0.191-0.571l-0.022-0.63l0.094-0.859l0.226-0.762l-0.199-1.013
		l0.188-0.63l0.765-0.372l-0.07-1.076l-1.313-1.818l-2.625-3.145l-2.141-3.769l-0.93-2.248l-0.57-1.29l0.29-0.909l0.532-0.531
		l0.618-0.523l0.573-0.621l0.337-0.431l0.334-0.429l0.57-0.618l0.525-0.62l0.144-0.382l0.477-0.191l0.621,0.189l0.62-0.001
		l0.62-0.382l0.572-0.238l0.668,0.142l0.524-0.191l0.524-0.191l-0.094,0.386l0.81,0.381l0.667,0.047l0.525-0.455l0.333-0.143
		l0.333-0.428l0.476-0.143l0.429,0.619l0.381,0.095l0.81,0.095l1.095-0.429l0.952-0.857l1-1.047l0.634-2.744l0.167-0.861l0.579-2.85
		l0.809-2.189l0.999-1.998l0.548-1.287l0.214-0.238l0.381-0.286l0.619-0.095l0.57-0.19l0.095,1.143l0.618,0.905l1.191,0.522
		l1.143,0.143l2.375,0.049l0-0.524l-1.232-0.335l-1.333-0.286l-0.905,0l-0.619-0.476l-0.476-1.238l-0.574-1.043l-0.618-0.238
		l-0.333-0.477l-0.048-1.046l-0.474-1.241l-0.136-1.276l-0.625-1.392l-0.809-0.951l-0.523-1.861l0.477-0.624l0.904-0.087l1.43-1.149
		l1.378-2.084l0.446-0.775l0.113-0.596l0.392-0.962l0.381-0.714l0.951-0.334l0.572-0.904l0.573-0.952l0.809,0.714l0.954-0.476
		l1.048-0.809l1.239-0.905l2.624-2.858l2.094-2.701l0.746-0.911l0.312-0.876l0.09-0.542l0.219-0.187l0.289-0.095l0.917-0.291
		l0.666-1.666l0.38-1.476l0.253-2.315l-0.063-1.06l-0.344-1.878l-0.101-3.337l0.402-1.164l0.014-0.38l0.111-0.165l0.477,0.23
		l0.203,0.219l0.167,0.325l0.205,0.662h0.328l0.066-0.553l0.186-0.354l0.003,0.007l1.123,2.675l0.563,0.802l0.302,0.141l0.318,0.098
		l0.321,0.041l0.284,0.002l0.178-0.027l0.15-0.064l0.286-0.232l0.156-0.155l0.208-0.171l0.147-0.162l0.116-0.164l0.149-0.392
		l0.245-0.503l0.096-0.485l0.039-0.103l0.072-0.089l0.088-0.055l0.12-0.036l0.143-0.014l1.488,0.059l0.744-0.036l0.816-0.148
		l0.575-0.216l0.263-0.137l0.467-0.342l0.928-0.993l0.221-0.187l0.273-0.18l0.512-0.212l0.321-0.055l0.28,0.014l0.244,0.087
		l0.191,0.1l0.441,0.353l0.352,0.367l0.097,0.13l0.055,0.109l0.025,0.084l0.002,0.082l-0.016,0.082l-0.052,0.077l-0.452,0.474
		l-0.174,0.255l-0.075,0.146l-0.056,0.15l-0.027,0.15l-0.005,0.173l0.05,0.178l0.072,0.148l0.119,0.166l0.14,0.141l2.088,1.258
		l0.174,0.173l0.095,0.116l0.032,0.107l-0.004,0.091l-0.05,0.114l-0.099,0.15l-0.27,0.273l-0.313,0.214l-0.215,0.219l-0.235,0.312
		l-0.184,0.326l-0.84,1.185l-0.05,0.109l0.06,0.169l0.163,0.191l0.474,0.422l0.244,0.137l0.217,0.041l0.139-0.055l0.103-0.071
		l0.17-0.091l0.137-0.05l0.229-0.018l0.119,0.1l0.088,0.15l0.073,0.736l0.071,0.248l0.076,0.1l0.107,0.034l0.116-0.016l0.137-0.068
		l0.344-0.255l0.264-0.102l0.178,0.046l0.191,0.15l0.295,0.342l0.843,0.797l0.347,0.144l0.28,0.077l0.297,0.018l0.133,0.05
		l0.085,0.068l0.007,0.073l-0.015,0.075l-1.167,1.251l-0.115,0.182l-0.063,0.187l-0.033,0.298l-0.044,0.212l-0.038,0.087
		l-0.047,0.077l-0.05,0.05l-0.075,0.041l-0.183,0.059l-0.092,0.041l-0.085,0.082l-0.09,0.121l-0.075,0.134l-0.064,0.166
		l-0.026,0.144l0.029,0.148l0.155,0.41l0.022,0.148l-0.022,0.365l0.103,0.219l0.748,1.166l-0.348,0.394l-0.1,0.307l-0.071,0.499
		l0.177,0.884l0.201,0.481l0.395,0.299l0.314,0.102l0.251,0.109l0.385,0.349l0.552,0.355l0.327,0.314l1.143,1.376l1.132,1.066
		l0.293,0.143l1.554,0.463l0.289,0.052l0.713-0.048l0.31,0.014l0.385,0.13l0.215,0.403l-0.068,0.736l0.267,7.876l-0.147,0.654
		l-0.284,0.656l-1.427,2.167l-0.055,1.005l-0.083,0.353l-0.505,1.29l-0.72,0.943l-0.588,2.046l-0.368,0.93l-0.989,1.971
		l-0.528,1.547l-0.133,0.253l-0.451,0.298l-0.45,0.105l-0.403,0.251l-0.444,0.508l-0.346,0.757l-0.604,3.042l-0.853,1.807
		l-2.838,0.465l-0.711,0.226l-0.532,0.28l-0.449,0.396l-1.676,2.365l-0.202,0.485l-0.18,0.565l-0.236,0.399l-0.668,0.438
		l-0.222,0.237l-0.055,0.367l0.024,0.324l-0.056,0.314l-0.101,0.344l-0.226,0.417l-0.341,0.472l-0.581,0.629l-0.732,1.18
		l-0.512,0.595l-2.262,1.828l-0.638,0.353l-0.832,0.226l-0.379-0.107l-0.333-0.057l-0.701,0.027l-0.239-0.068l-0.074-0.226
		l0.096-0.397l0.036-0.326l-0.154-0.089l-0.282,0.164l-0.412,0.458l-0.287,0.647l-0.289,1.023l-0.4,0.882l-0.353,1.356l-0.884,2.397
		l-0.379,0.545l-1.74,1.381l-0.966,0.422l-0.487,0.394l-0.297,0.629l-0.086,0.88l0.171,1.032l-0.078,0.271l-0.246,0.187
		l-0.996,0.292l-0.686,0.438l-0.287,0.08l-0.208,0.123l-0.27,0.356l-0.214,0.497l-0.202,1.174l-0.01,0.513l0.109,0.547l0.189,0.463
		l0.494,0.759l0.031,0.306l-0.23,0.39l-1.494,1.01l-2.699,0.362l-0.026,0.298l0.235,0.362l0.468,0.554l0.576,0.472l0.419,0.233
		l0.461,0.089l0.285,0.096l0.106,0.157l-0.047,0.226l-0.039,0.346l0.072,0.415l0.441,1.292l-0.214,0.444l-0.611,0.187l-1.736-0.125
		l-0.586,0.317l-0.257,0.301l-0.275,0.068l-0.277-0.176l-0.33-0.267l-0.327-0.176l-0.369,0.155l-0.327,0.312l-0.433,0.777
		l-0.27,0.242l-0.624,0.244l-0.426,0.221l-0.539,0.41l-0.325,0.399l-0.248,0.52l-0.33,0.476l-0.386,0.426l-0.337,0.499l-0.093,0.481
		l-0.006,0.376l-0.047,0.344l-0.105,0.28l-0.08,0.312l-0.196,0.233l-0.355,0.144l-1.282,0.128l-1.826-0.046l-0.934-0.228
		l-0.685-0.333l-0.385-0.49l-0.1-0.417l0.041-0.419l0.106-0.394l0.137-0.374l0.515-0.805l0.073-0.255l0.187-1.288l-0.061-0.399
		l-0.198-0.337l-0.574-0.556l-0.071-0.26l0.027-0.301l0.08-0.408l-0.261-0.387l-0.599-0.335l-1.293-0.185l-0.8,0.014l-1.544,0.531
		l-0.85,0.164l-3.169-0.155l-0.616,0.189l-0.314,0.05l-0.841-0.098l-1.182,0.248L523.504,300.028z"/>
	<path class="st0" d="M584.381,336.208l1.482,0.073l0.69,0.399l0.517,0.579l0.779,1.715l0.418,0.451l0.583,0.212l1.114,0.1
		l0.738,0.484l0.369,0.452l0.207,0.458l0.263,0.458l0.359,0.506l3.93,4.067l0.62,0.399l0.472,0.148l0.456-0.287l0.13-0.326
		l0.066-0.404l0.009-0.383l0.246-0.278l0.378-0.26l0.875-0.347l0.385-0.283l0.236-0.306l0.083-0.322l0.164-0.312l0.244-0.208
		l0.294-0.039l0.508,0.189l0.562,0.358l0.658,0.579l0.58,0.609l1.26,1.672l0.788,0.531l0.979,1.013l0.277,0.401l0.182,0.449
		l0.199,1.102l0.269,0.472l0.655,0.24l1.622,0.164l0.679-0.03l0.449-0.066l0.429-0.109l0.329-0.027l0.393,0.055l0.287,0.073
		l0.174-0.059l0.055-0.281l-0.091-0.716l0.05-0.349l0.171-0.372l0.845-1.036l0.164-0.255l0.096-0.319l-0.038-0.319l-0.156-0.426
		l-0.102-0.495l0.125-0.417l0.29-0.438l0.371-0.34l0.423-0.212l0.587,0.041l0.877,0.169l0.328-0.039l0.418-0.228l0.595-0.415
		l0.849-0.718l0.478-0.312l0.989-0.221l0.532-0.178l0.633-0.49l0.277-0.566l0.073-0.525l0.222-0.479l0.447-0.474l1.593-1.104
		l0.676,0.059l-0.272,1.311l0.055,0.424l0.166,0.452l0.33,0.315l0.417,0.189l0.307-0.048l0.19-0.237l0.096-0.479l0.164-0.47
		l0.26-0.474l0.464-0.395l0.407-0.23l0.433-0.13l0.379,0.007l0.272,0.116l1.382,1.038l0.297,0.312l0.173,0.395l0.113,0.356
		l-0.003,0.376l-0.189,0.383l-0.488,0.422l-4.887,2.495l-0.444,0.36l-0.383,0.479l-1.371,2.575l-0.053,0.299l0.132,0.303
		l0.262,0.356l0.38,0.406l0.309,0.44l0.171,0.429l0.014,0.418l-0.269,0.634l-2.086,3.445L620,356.11l-0.114,0.465l-1.059,2.206
		l-0.179,0.7l0.003,0.701l0.086,0.659l-0.165,0.792l-0.431,0.783l-1.149,1.253l-1.089,0.876l-1.504,0.812l-1.652,0.545l-0.9,0.867
		l-5.43,4.347l-0.194,0.429l-0.08,0.322l0.212,0.792l-0.879,0.828l-2.493,1.388l-0.768,0.587l-0.582,0.573l-0.398,0.577
		l-0.205,0.443l-0.065,0.395l0.064,0.356l0.226,0.657l0.219,0.26l0.122,0.281l0.027,0.367l-0.293,0.835l-0.11,0.491l-0.025,0.525
		l0.255,1.568l-0.491,2.543l-0.181,0.429l-0.243,0.356l-0.314,0.158l-0.289,0.1l-0.775,0.119l-0.802-1.107l-0.126-1.354
		l-0.002-1.027l-0.314-0.863l-1.34-2.15l-0.456-0.924l-0.334-0.872l-0.27-0.269l-0.387,0.075l-1.219,0.621l-0.671,0.13l-0.878-0.005
		l-1.112-0.475l-0.522-0.557l-0.269-0.589l-0.091-0.963l0.061-0.833l-0.027-0.488l-0.264-0.68l-0.483-0.445l-0.513-0.26
		l-0.599-0.041l-1.209,0.121l-1.541-0.021l-1.196-0.183l-1.11-0.445l-1.433-0.539l-0.779-0.125l-0.588-0.018l-1.619,0.203
		l-2.507,0.561l-1.548-0.048l-0.515-0.182l-0.27-0.212l0.085-0.379l0.172-0.18l0.847-0.413l0.465-0.306l0.232-0.411l0.259-0.924
		l0.968-1.91l0.193-0.577l0.073-0.646l-0.093-0.65l-0.232-0.586l-1.679-1.451l-5.377-2.834l0.041-0.856l0.166-0.395l0.305-0.559
		l2.381-2.939l0.027-0.344l-0.072-1.262l-0.27-1.202l-0.071-0.819l0.169-1.113l0.405-1.061l9.645-10.088l0.202-0.148l0.262-0.139
		l0.263-0.192l0.375-0.337l0.968-1.029l0.253-0.433l0.086-0.502l-0.345-0.511L584.381,336.208z"/>
	<path class="st0" d="M623.544,339.116l-0.676-0.059l-1.593,1.104l-0.447,0.474l-0.222,0.479l-0.073,0.525l-0.277,0.566l-0.633,0.49
		l-0.532,0.178l-0.989,0.221l-0.478,0.312l-0.849,0.718l-0.595,0.415l-0.418,0.228l-0.328,0.039l-0.877-0.169l-0.587-0.041
		l-0.423,0.212l-0.371,0.34l-0.29,0.438l-0.125,0.417l0.102,0.495l0.156,0.426l0.038,0.319l-0.096,0.319l-0.164,0.255l-0.845,1.036
		l-0.171,0.372l-0.05,0.349l0.091,0.716l-0.055,0.281l-0.174,0.059l-0.287-0.073l-0.393-0.055l-0.329,0.027l-0.429,0.109
		l-0.449,0.066l-0.679,0.03l-1.622-0.164l-0.655-0.24l-0.269-0.472l-0.199-1.102l-0.182-0.449l-0.277-0.401l-0.979-1.013
		l-0.788-0.531l-1.26-1.672l-0.58-0.609l-0.658-0.579l-0.562-0.358l-0.508-0.189l-0.294,0.039l-0.244,0.208l-0.164,0.312
		l-0.083,0.322l-0.236,0.306l-0.385,0.283l-0.875,0.347l-0.378,0.26l-0.246,0.278l-0.009,0.383l-0.066,0.404l-0.13,0.326
		l-0.456,0.287l-0.472-0.148l-0.62-0.399l-3.93-4.067l-0.359-0.506l-0.263-0.458l-0.207-0.458l-0.369-0.452l-0.738-0.484l-1.114-0.1
		l-0.583-0.212l-0.418-0.451l-0.779-1.715l-0.517-0.579l-0.69-0.399l-1.482-0.073l-1.27,0.376l-1.038,0.538l-0.657-0.089
		l-0.362-0.306l-0.064-0.602l2.472-2.283l1.459-0.955l0.052-0.239l-0.174-0.312l-0.142-0.363l0.055-0.333l0.185-0.383l0.002-1.065
		l0.409-0.566l0.466-0.479l1.194-0.917l0.615-0.342l0.535-0.23l5.189-0.949l0.876-0.246l1.017-0.41l1.026-0.579l0.606-0.47
		l0.449-0.502l0.236-0.322l0.413-0.919l0.166,1.151l0.135,0.269l0.286,0.404l0.237,0.18l0.293,0.137l0.222,0.137l0.187,0.18
		l0.23,0.661l0.223,0.34l0.27,0.208l0.43,0.26l0.4,0.342l1.405,1.972l0.66,0.618l0.648,0.458l0.932,0.376l0.873,0.602l0.56,0.251
		l1.003,0.132l1.255-0.132l1.385-0.326l1.545-0.791l0.747-0.618l0.989-1.024l1.146-0.392l1.623-0.392l5.575-0.641l0.832,0.397
		l0.067,0.493l0.584,0.347l2.757,1.222l0.652,0.49l0.291,0.499l-0.098,0.408l-0.073,0.493l0.05,2.506l-0.167,0.814l-0.044,0.415
		l0.001,0.513l-0.066,0.376l-0.154,0.326l-1.057,1.605l-0.456,0.554l-0.182,0.123l-0.153,0.082l-0.15,0.007l-0.126-0.007
		L623.544,339.116z"/>
	<path class="st0" d="M630.495,268.566l0.944,1.515l1.111,1.308l0.401,0.777l0.179,0.645l-0.017,2.074l-0.068,0.622l-0.102,0.454
		l-0.393,0.777l-0.154,0.488l0.143,0.191l0.287,0.005l1.536-0.927l0.521-0.137l0.604-0.014l0.956,0.219l0.351,0.041l0.751-0.191
		l0.443-0.066l0.211,0.157l0.125,0.258l0.116,0.408l0.203,0.098l0.475-0.082l0.277,0.007l0.164,0.216l0.445,0.886l0.68,0.219
		l1.48,0.219l0.313,0.289l0.137,0.374l0.003,1.066l0.104,4.818l-0.117,0.668l-0.207,0.681l-1.174,2.259l-1.075,0.998l-0.889,0.887
		l-0.394,0.326l-0.745,0.335l-0.636,0.178l-1.13,0.046l-1.483-0.23l-0.63,0.116l-0.843,0.499l-0.47,0.353l-0.752,0.991l-0.357-0.476
		l-0.148-0.796l-0.181-0.191l-0.319-0.169l-0.574-0.21l-0.47-0.276l-0.523-0.212l-0.801-0.232l-0.568-0.26l-1.066-0.693
		l-0.579-0.269l-0.485,0.061l-0.402,0.467l-0.272,0.729l-0.399,0.486l-0.502,0.162l-0.736-0.171l-0.699-0.094l-0.831,0.116
		l-0.753,0.246l-1.076,0.169l-1.151-0.021l-2.326-0.497l-1.066-0.433l-0.889-0.517l-1.318-0.955l-0.63-0.292l-0.567-0.173
		l-0.594,0.05l-0.607,0.262l-1.408,0.925l-0.952,0.301l-0.354-0.604l-0.494-0.579l-1.05-1.557l-0.165-0.615l0.495-2.222l0.272-0.807
		l0.615-1.274l0.182-0.725l0.082-1.686l0.109-0.567l0.947-1.752l1.262-0.492l1.186-1.03l1.088-0.349l0.843-0.182l0.764-0.014
		l2.085,0.449l1.098,0.041l0.712-0.178l0.721-0.353l1.059-0.841l0.444-0.15l1.153-0.073l0.419-0.16l0.314-0.26l0.168-0.333v-0.586
		l0.033-0.28l0.448-0.387l0.45-0.109l0.457,0.041l0.322,0.114l0.312,0.191l0.24,0.258l0.377,0.26l0.524,0.187l1.085-0.077
		l0.547-0.253l0.41-0.447l0.518-0.891l-0.006-0.782l0.041-0.458l0.154-0.442l0.277-0.424l0.169-0.376L630.495,268.566z"/>
	<path class="st0" d="M642.616,280.461l-0.003-1.066l-0.137-0.374l-0.313-0.289l-1.48-0.219l-0.68-0.219l-0.445-0.886l-0.164-0.216
		l-0.277-0.007l-0.475,0.082l-0.203-0.098l-0.116-0.408l-0.125-0.258l-0.211-0.157l-0.443,0.066l-0.751,0.191l-0.351-0.041
		l-0.956-0.219l-0.604,0.014l-0.521,0.137l-1.536,0.927l-0.287-0.005l-0.143-0.191l0.154-0.488l0.393-0.777l0.102-0.454l0.068-0.622
		l0.017-2.074l-0.179-0.645l-0.401-0.777l-1.111-1.308l-0.944-1.515l-0.701-0.419l-1.022-0.173l-0.33-0.226l-0.156-0.303
		l0.108-0.285l0.235-0.194l0.306-0.207l0.214-0.296l0.108-0.397l-0.003-0.62l0.068-0.438l0.212-0.608l0.476-0.693l0.499-0.907
		l0.146-0.839l-0.047-0.991l-0.239-1.543l-0.461-1.584l-0.014-0.449l0.366-1.142l0.921-0.458l0.529-0.153l1.139-0.214l0.369-0.23
		l0.239-0.328l0.172-0.627l0.157-1.187l0.26-0.59l0.419-0.572l0.795-0.82l0.512-0.679l0.416-0.884l0.059-0.572l-0.039-0.472
		l0.092-0.453l0.207-0.492l0.542-0.909l0.232-0.567l0.058-0.476l-0.627-1.201l0.207-0.656l0.489-0.829l1.22-1.661l0.561-1.034
		l0.297-1.037l0.136-3.973l-0.067-0.476l0.118-0.342l0.262-0.305l0.461-0.125l0.392-0.068l1.024-0.312h0.348l0.343,0.121
		l0.459,0.438l0.259,0.109l0.334-0.005l0.53-0.242l0.401-0.38l0.517-0.866l0.105-0.451l0.134-0.342l0.166-0.087l0.403,0.014
		l0.941,0.237l0.419-0.021l0.244-0.175l0.49-0.811l0.232-0.246l0.283-0.119l0.197-0.21l0.133-0.485l0.1-1.142l0.153-0.408
		l0.313-0.292l1.596-0.547l3.142-1.622l0.519-0.365l0.554-0.982l1.937,0.476l0.433,0.235l0.009,0.096l-0.006,0.098l-0.015,0.087
		l-0.03,0.087l-0.046,0.087l-0.043,0.059l-0.05,0.055l-0.051,0.105l-0.035,0.185l0.015,0.437l0.255,1.467L657.8,229l0.582,0.39
		l0.821,0.148l4.383,0.116l1.239,0.285l0.574,0.248l0.474,0.305l0.287-0.066l0.467-0.337l0.948-0.973l0.497-0.314l0.752-0.105
		l0.412-0.134l0.296-0.219l0.148-0.237l0.136-0.171l0.188-0.109l0.219-0.091l0.599-0.408l0.523-0.212l0.261,0.118l0.199,0.326
		l0.12,0.458l0.173,0.335l0.137,0.217l0.034,0.175l-0.062,0.219l-0.129,0.246l-0.066,0.214l0.011,0.216l0.165,0.38l0.029,0.214
		l-0.031,0.23l-0.084,0.269l-0.055,0.296v0.296l0.109,0.26l0.384,0.164l2.059,0.478l0.743,0.073l0.506-0.014l0.278-0.157
		l0.285-0.246l0.269-0.369l0.464-0.952l0.344-0.563l1.153-1.337l0.439,3.112l-0.102,0.444l-0.124,1.196l-0.156,0.638l0.01,0.417
		l0.27,0.538l0.271,0.41l0.605,0.743l0.527,0.781l0.1,0.305l-0.032,0.346l-0.059,0.255l-0.094,0.21l-0.065,0.207l0.395,0.816
		l-0.006,0.643l-0.133,0.36l-0.271,0.262l-0.197,0.239l-0.098,0.296l0.036,0.697l-0.161,0.392l-0.391,0.34l-0.484,0.271
		l-1.332,0.581l-0.125,0.276l-0.039,0.367l0.034,0.709l-0.126,0.264l-0.197,0.077l-0.559-0.171l-0.242,0.011l-0.215,0.153
		l-0.17,0.301l-0.468,1.112l-1.057,1.727l-0.398,0.321l-0.504,0.216l-0.588,0.066l-0.848-0.121l-1.08-0.362l-0.977-0.458
		l-1.888-1.146l-0.62-0.23l-0.379,0.075l-0.159,0.326l-0.011,0.383l0.065,0.545l-0.173,0.335l-0.317,0.296l-1.362,0.822
		l-0.436,0.349l-0.252,0.335l-0.068,0.36l0.129,0.358l0.532,0.298l0.464,0.128l0.44,0.219l0.483,0.419l1.225,1.556l0.477,0.939
		l0.235,0.294l0.574,0.369l0.38,0.312l0.261,0.458l0.317,1.114l0.031,0.572l-0.121,0.431l-0.622,0.829l-0.312,0.554l-0.327,0.743
		l-0.266,0.814l-0.049,0.633l0.366,1.372l-0.105,0.659l-1.024,2.479l-0.383,0.631l-0.368,0.463l-0.453,0.403l-0.005,0.383
		l0.571,0.314l1.004,0.185l1.091-0.082l0.857-0.185l0.729-0.321l0.133-0.103l0.845-0.232l0.474-0.355l6.977-3.338l1.609-0.565
		l0.349-0.189l0.574-0.738l1.081-2.121l1.972-1.848l0.602-0.287l0.56-0.39l0.629,0.021l0.323,0.205l0.091,0.271l-0.169,0.513
		l-0.432,0.504l-2.129,1.991l-0.485,0.725l-0.302,0.725l-0.078,0.704l0.17,0.727l0.246,0.358l0.451,0.237l0.395,0.13l0.354,0.191
		l2.013,1.376l0.764,0.267l1.852,0.289l0.57,0.157l0.246,0.212l0.055,0.305l-0.329,0.422l-0.744,0.697l-0.116,0.273l0.185,0.349
		l0.262,0.244l0.393,0.476l-0.388,0.989l-7.375,0.52l-0.654,0.105l-0.475,0.205l-0.499,0.353l-0.985,0.551l-4.181,1.306
		l-1.224,0.189l-1.5,0.007l-0.473,0.157l-0.547,0.34l-3.93,1.796l-2.112,0.207l-0.603,0.13l-0.543,0.237l-0.46,0.041l-0.457-0.048
		l-0.638-0.144l-0.536,0.057l-0.572,0.148l-0.628,0.073l-0.414,0.178l-0.868,0.529l-0.57,0.116l-0.885,0.335l-0.466,0.235
		l-1.7,1.148l-1.072,0.554l-0.655,0.128l-0.538-0.13l-0.407-0.226l-0.398-0.148l-0.25,0.034l-0.155,0.164l-0.247,0.602l-0.264,0.251
		l-0.442-0.055l-0.39-0.23l-0.468-0.214l-0.674-0.087l-1.078-0.014l-3.138,0.513l-1.236,0.073L642.616,280.461z"/>
	<path class="st0" d="M622.186,328.022l-0.832-0.397l-5.575,0.641l-1.623,0.392l-1.146,0.392l-0.989,1.024l-0.747,0.618
		l-1.545,0.791l-1.385,0.326l-1.255,0.132l-1.003-0.132l-0.56-0.251l-0.873-0.602l-0.932-0.376l-0.648-0.458l-0.66-0.618
		l-1.405-1.972l-0.4-0.342l-0.43-0.26l-0.27-0.208l-0.223-0.34l-0.23-0.661l-0.187-0.18l-0.222-0.137l-0.293-0.137l-0.237-0.18
		l-0.286-0.404l-0.135-0.269l-0.166-1.151l2.37-1.258l1.574-1.589l0.859-1.252l0.211-0.529l0.076-0.465l-0.073-0.461l-0.228-0.406
		l-0.134-0.399l-0.048-0.559l1.146-5.674l-0.002-0.481l-0.279-0.946l-0.123-1.411l0.173-1.965l-0.009-0.791l0.147-0.424l0.213-0.349
		l0.411-0.328l0.544-0.264l1.565-0.205l0.618-0.166l1.541-1.386l0.907-1.352l0.458-1.151l0.159-1.176l-0.08-1.472l0.047-1.023
		l0.178-1.051l0.009-0.704l-0.224-0.586l-0.703-1.115l-0.246-0.572l-0.082-0.403l0.017-0.925l0.952-0.301l1.408-0.925l0.607-0.262
		l0.594-0.05l0.567,0.173l0.63,0.292l1.318,0.955l0.889,0.517l1.066,0.433l2.326,0.497l1.151,0.021l1.076-0.169l0.753-0.246
		l0.831-0.116l0.699,0.094l0.736,0.171l0.502-0.162l0.399-0.486l0.272-0.729l0.402-0.467l0.485-0.061l0.579,0.269l1.066,0.693
		l0.568,0.26l0.801,0.232l0.523,0.212l0.47,0.276l0.574,0.21l0.319,0.169l0.181,0.191l0.148,0.796l0.357,0.476l-0.428,0.672
		l-0.098,0.365l0.006,0.609l0.418,1.235l0.071,0.449l-0.068,0.486l-0.165,0.39l-0.344,0.399l-0.41,0.315l-1.04,0.597l-0.394,0.331
		l-0.329,0.378l-0.343,0.492l-0.301,0.292l-0.232,0.264l-0.279,0.253l-0.215,0.397l-0.114,0.499l0.005,0.944l0.075,0.748
		l0.157,0.711l0.21,0.397l0.22,0.26l0.245,0.237l0.169,0.36l0.128,1.046l0.314,1.343l-0.119,0.581l-1.771,1.944l-1.19,1.878
		l-0.178,0.47l0.021,0.536l0.162,0.347l0.326,0.34l0.339,0.221l0.313,0.41l0.177,0.554l-0.027,1.069l0.185,0.552l0.434,0.841
		l-0.124,0.34l-0.559,0.406l-0.668,0.292l-0.631,0.547l-0.433,0.704l-0.277,1.234l0.13,1.719l0.109,0.228l0.162,0.233l-0.002,0.267
		l-0.239,0.344l-0.754,0.561l-0.433,0.413l-0.19,0.613l0.008,0.463l-0.22,0.565l-0.236,0.41L622.186,328.022z"/>
	<path class="st0" d="M609.562,278.036l-0.947,1.752l-0.109,0.567l-0.082,1.686l-0.182,0.725l-0.615,1.274l-0.272,0.807
		l-0.495,2.222l0.165,0.615l1.05,1.557l0.494,0.579l0.354,0.604l-0.017,0.925l0.082,0.403l0.246,0.572l0.703,1.115l0.224,0.586
		l-0.009,0.704l-0.178,1.051l-0.047,1.023l0.08,1.472l-0.159,1.176l-0.458,1.151l-0.907,1.352l-1.541,1.386l-0.618,0.166
		l-1.565,0.205l-0.544,0.264l-0.411,0.328l-0.213,0.349l-0.147,0.424l0.009,0.791l-0.173,1.965l0.123,1.411l0.279,0.946l0.002,0.481
		l-1.146,5.674l0.048,0.559l0.134,0.399l0.228,0.406l0.073,0.461l-0.076,0.465l-0.211,0.529l-0.859,1.252l-1.574,1.589l-2.37,1.258
		l0.123-1.806l-0.199-0.372l-0.359-0.344l-0.409-0.034l-0.418,0.274l-0.28,0.267l-0.291,0.176l-0.508,0.027l-0.522-0.025
		l-1.785-0.34l0.689-1.359l0.328-1.498l0.314-0.72l-0.01-0.363l-0.283-0.618l-1.523-2.451l-1.399-1.833l-0.057-0.399l0.194-0.367
		l0.532-0.353l0.199-0.242l0.746-2.929l0.419-0.873l0.116-0.616l-0.204-0.504l-0.309-0.456l-0.329-0.588l-0.158-0.572l-0.059-0.463
		l0.196-0.875l-0.059-0.369l-1.335-1.947l-0.481-0.98l-0.34-0.451l-0.298-0.123l-0.296,0.018l-0.212-0.087l-0.178-0.251
		l-0.239-0.119l-0.321-0.068l-0.259-0.109l-0.163-0.198l0.137-0.287l0.218-0.164l0.361-0.221l0.33-0.283l1.222-1.386l0.263-0.062
		l0.224,0.077l0.265,0.164l0.194-0.002l0.199-0.155l0.236-0.369l0.203-0.403l0.214-0.622l0.067-0.586l-0.229-0.552l-0.402-0.385
		l-1.392-0.905l-0.607-0.611l-0.386-0.761l-0.167-0.937l0.064-3.405l0.084-0.456l0.212-0.283l0.18-0.062l0.231,0.036l0.232-0.125
		l0.232-0.198l0.147-0.235l-0.055-0.228l-1.264-0.914l-0.404-0.8l-0.322-0.196l-0.256,0.002l-0.291,0.235l-0.559,0.841l-0.32,0.287
		l-0.359,0.169l-0.33-0.08l-0.134-0.267l0.106-0.547l0.686-0.761l1.047-1.689l0.831-1.098l2.078-0.996l2.036-0.135l3.233-1.618
		l1.033-0.294l1.248-0.173l0.614,0.016l0.594,0.1l0.284,0.235l0.22,0.301l0.286,0.321l1.326,0.859l0.851,0.39l1.053,0.292
		l0.989-0.027l0.761-0.23l1.211-1.032l0.742-0.374l0.525-0.068L609.562,278.036z"/>
	<path class="st0" d="M655.95,210.842l-1.399,1.777l-0.294,0.561l0.023,0.301l0.039,0.114l0.043,0.073l0.061,0.046l0.075,0.036
		l0.114,0.023l0.114,0.009l0.122,0.036l0.12,0.068l0.084,0.191l-0.047,0.137l-0.133,0.157l-0.167,0.137l-0.556,0.631l-0.819,1.167
		l-0.21,0.242l-0.158,0.114l-0.201,0.112l-0.206,0.089l-0.217,0.055l-0.645,0.417l-1.532,1.638l-5.076-1.577l-0.758-0.032
		l-0.565,0.314l-0.989,0.825l-0.781,0.474l-1.956,0.902l-1.197,0.264l-1.085,0.064l-1.239-0.392l-0.784-0.383l-0.685-0.494
		l-0.931-0.818l-0.487-0.349l-0.457-0.071l-0.487,0.21l-0.785,0.747l-0.256,0.077l-0.078-0.219l0.055-0.314l0.252-0.77l0.048-0.424
		l-0.071-0.524l-0.138-0.442l-0.272-0.369l-0.737-0.273l-1.203-0.137l-2.347,0.137l-2.308,0.442l-0.615-0.036l-0.936,0.267
		l-2.317,0.262l-0.494,0.164l-0.552,0.105l-0.938-0.025l-4.482-0.934l-1.064-0.112l-3.791,0.415l-1.736,0.542l-0.931,0.123
		l-0.564,0.128l-0.63,0.027l-0.788-0.196l-0.65-0.283l-0.421-0.296l-0.743-1.7l0.767,0.039l0.253-0.041l0.208-0.157l0.255-0.312
		l1.431-2.29l0.892-0.998l0.522-0.253l0.066-0.109l-0.022-0.287l0.017-0.23l0.128-0.267l0.255-0.353l0.55-0.618l0.493-0.456
		l0.831-0.52l0.54-0.15l0.522-0.025l1.291,0.424l1.546,0.187l0.534,0.173l0.894,0.201l0.489,0.016l0.372,0.062l0.384,0.164
		l0.297,0.214l0.642,0.615l0.369,0.255l0.257,0.103l0.351-0.039l0.282-0.139l0.735-0.567l0.76-0.777l1.437-1.948l1.484-1.581
		l0.611-0.879l0.344-0.374l1.416-0.998l0.427-0.196l0.375-0.018l0.703,0.128l0.452,0.014l0.621-0.118l0.434-0.153l0.335-0.257
		l0.214-0.317l0.129-0.602l-0.036-0.62l-0.365-0.743l-1.178-1.447l-0.253-0.431l-0.196-0.479l-0.333-1.322l-0.185-0.444
		l-1.326-2.395l-0.099-0.399l0.086-0.273l0.417-0.248l0.409-0.08l0.84-0.057l0.349-0.109l0.302-0.184l0.368-0.333l0.264-0.538
		l0.128-0.643l-0.084-0.816l0.068-1.659l0.595,0.289l0.877,0.28l1.619,0.137l0.516,0.137l0.368,0.232l0.773,0.706l2,1.312
		l1.35,1.162l1.067,1.274l1.146,1.992l1.746,2.203l0.917,2.545l0.041,0.383l-0.067,1.276l0.056,0.8l0.232,0.757l0.488,0.667
		l1.684,0.312l0.284,0.296l0.563,0.355l0.891,0.228l0.784,0.077l1.542,0.36l1.998,1.126l1.774,1.265l2.088,1.139l0.53,0.371
		l0.753,0.987L655.95,210.842z"/>
	<path class="st0" d="M630.261,256.254l-0.366,1.142l0.014,0.449l0.461,1.584l0.239,1.543l0.047,0.991l-0.146,0.839l-0.499,0.907
		l-0.476,0.693l-0.212,0.608l-0.068,0.438l0.003,0.62l-0.108,0.397l-0.214,0.296l-0.306,0.207l-0.235,0.194l-0.108,0.285
		l0.156,0.303l0.33,0.226l1.022,0.173l0.701,0.419l-1.259,1.085l-0.169,0.376l-0.277,0.424l-0.154,0.442l-0.041,0.458l0.006,0.782
		l-0.518,0.891l-0.41,0.447l-0.547,0.253l-1.085,0.077l-0.524-0.187l-0.377-0.26l-0.24-0.258l-0.312-0.191l-0.322-0.114
		l-0.457-0.041l-0.45,0.109l-0.448,0.387l-0.033,0.28v0.586l-0.168,0.333l-0.314,0.26l-0.419,0.16l-1.153,0.073l-0.444,0.15
		l-1.059,0.841l-0.721,0.353l-0.712,0.178l-1.098-0.041l-2.085-0.449l-0.764,0.014l-0.843,0.182l-1.088,0.349l-1.186,1.03
		l-1.262,0.492l-1.269-0.367l-0.525,0.068l-0.742,0.374l-1.211,1.032l-0.761,0.23l-0.989,0.027l-1.053-0.292l-0.851-0.39
		l-1.326-0.859l-0.286-0.321l-0.22-0.301l-0.284-0.235l-0.594-0.1l-0.614-0.016l-1.248,0.173l-1.033,0.294l-3.233,1.618
		l-2.036,0.135l-0.304-1.418l-1.146-1.518l-0.413-0.665l0.017-1.041l0.113-1.098l0.664-3.095l-0.097-0.779l0.027-0.779l0.124-0.795
		l0.574-1.538l0.4-0.643l0.432-0.456l0.535-0.394l0.494-0.442l1.18-2.208l0.343-0.387l0.433-0.34l0.376-0.191l0.367-0.255
		l0.294-0.351l0.644-1.171l3.017-7.154l0.475-1.973l0.671,1.03l0.16,0.157l0.268,0.164l0.328,0.118l0.319-0.007l0.45-0.187
		l0.238-0.328l0.171-0.346l0.141-0.633l0.198-0.221l0.32-0.176l0.507-0.173l0.298-0.137l0.164-0.155l-0.008-0.239l-0.092-0.333
		l-0.146-0.371l-0.214-0.34l-0.338-0.264l-0.737-0.337l-0.243-0.191l-0.101-0.191l0.048-0.203l0.185-0.239l0.398-0.736l0.535-1.283
		l0.19-0.253l0.189-0.196l0.201-0.118l0.737-0.342l0.198-0.162l0.14-0.219l0.098-0.298l0.075-0.355l0.141-0.314l0.19-0.296
		l0.222-0.187l0.189-0.089l0.485-0.105l0.171-0.157l0.133-0.178l0.157-0.144l0.248-0.082l0.372,0.328l0.133,0.232l0.009,0.558
		l0.127,0.276l1.641,2.142l0.654,1.235l0.518,0.797l0.151,0.376l0.268,1.089l0.188,0.485l0.581,0.515l2.835,1.982l0.733,1.032
		l0.406,0.939l0.085,0.711l0.154,0.474l0.294,0.385l0.286,0.144l0.431-0.114l1.153-0.827l0.399-0.203l0.342-0.084l0.313-0.135
		l0.308-0.184l0.469-0.355l0.535-0.264l0.416-0.062l0.326,0.319l0.221,0.269l0.277,0.132l0.501-0.16l1.149-0.643l0.465-0.071
		l0.655,0.007l1.061,0.173l0.579-0.071l1.225,0.488L630.261,256.254z"/>
	<path class="st0" d="M591.289,279.107l-2.078,0.996l-0.831,1.098l-1.047,1.689l-0.686,0.761l-0.106,0.547l0.134,0.267l0.33,0.08
		l0.359-0.169l0.32-0.287l0.559-0.841l0.291-0.235l0.256-0.002l0.322,0.196l0.404,0.8l1.264,0.914l0.055,0.228l-0.147,0.235
		l-0.232,0.198l-0.232,0.125l-0.231-0.036l-0.18,0.062l-0.212,0.283l-0.084,0.456l-0.064,3.405l0.167,0.937l0.386,0.761l0.607,0.611
		l1.392,0.905l0.402,0.385l0.229,0.552l-0.067,0.586l-0.214,0.622l-0.203,0.403l-0.236,0.369l-0.199,0.155l-0.194,0.002
		l-0.265-0.164l-0.224-0.077l-0.263,0.062l-1.222,1.386l-0.33,0.283l-0.361,0.221l-0.218,0.164l-0.137,0.287l0.163,0.198
		l0.259,0.109l0.321,0.068l0.239,0.119l0.178,0.251l0.212,0.087l0.296-0.018l0.298,0.123l0.34,0.451l0.481,0.98l1.335,1.947
		l0.059,0.369l-0.196,0.875l0.059,0.463l0.158,0.572l0.329,0.588l0.309,0.456l0.204,0.504l-0.116,0.616l-0.419,0.873l-0.746,2.929
		l-0.199,0.242l-0.532,0.353l-0.194,0.367l0.057,0.399l1.399,1.833l1.523,2.451l0.283,0.618l0.01,0.363l-0.314,0.72l-0.328,1.498
		l-0.689,1.359l-2.224-2.059l-3.302-5.494l-0.534-0.574l-1.304-1.028l-0.539-0.335l-0.977-0.47l-2.006-1.372l-0.864-0.431
		l-0.952-0.112l-0.787,0.071l-2.249,0.841l-1.528,0.251l-0.988-0.219l-0.35-0.36l-0.272-1.01l-0.987-1.817l-0.608-1.484
		l-0.295-0.563l-1.099-1.482l-0.406-0.698l-0.325-0.957l-0.48-0.887l-0.631-0.59l-3.623-1.878l-0.191-0.31l-0.107-0.419
		l-0.092-0.636l0.041-0.531l0.275-0.773l0.061-0.296l-0.617-1.924l-0.039-0.479l0.224-2.79l0.09-0.506l0.71-1.992l0.213-0.417
		l0.547-0.811l0.791-0.861l0.355-0.481l2.466-4.66l0.138-0.413l0.089-0.458l0.023-0.866l0.048-0.294l0.137-0.189l0.185-0.132
		l0.183-0.075l0.486-0.103l0.22-0.1l0.171-0.191l0.081-0.504l0.063-0.221l0.158-0.121l0.189-0.025l0.296-0.068l0.256-0.144
		l0.166-0.269l0.121-0.328l0.098-0.54l0.172-0.289l0.288-0.116l0.694-0.075l0.285-0.253l0.414-0.656l0.485-0.526l0.159-0.271
		l0.291-0.251l0.403-0.137l0.406-0.055l0.369-0.153l0.298-0.314l0.235-0.456l0.278-1.513l0.116-0.365l0.221-0.485l0.287-0.346
		l0.365-0.278l0.349-0.214l0.273-0.36l-0.075-0.26l-0.15-0.319l0.007-0.426l0.704-1.937l0.207-1.426l-0.264-0.67l-0.565-0.344
		l-0.697-0.007l-1.549,0.182l-1.446,0.387l0.853-1.807l0.604-3.042l0.346-0.757l0.444-0.508l0.403-0.251l0.45-0.105l0.451-0.298
		l0.133-0.253l0.528-1.547l0.989-1.971l0.368-0.93l0.588-2.046l1.296,0.059l0.966,0.132l2.41-0.103l0.976,0.164l0.434,0.21
		l-0.185,0.271l-0.267,0.324l-0.222,0.417l0.101,0.606l0.232,0.725l0.109,0.652l-0.17,0.52l-0.294,0.586l-0.127,0.376l0.099,0.433
		l0.116,0.371l0.219,0.376l0.44,0.289l0.525,0.216l0.559,0.084l0.574-0.009l0.592-0.162l0.441-0.321l0.477-0.54l0.591-0.561
		l0.57-0.408l1.159-0.606l0.477-0.328l3.259-3.254l0.71-0.383l0.466-0.05l0.796,0.273l-0.475,1.973l-3.017,7.154l-0.644,1.171
		l-0.294,0.351l-0.367,0.255l-0.376,0.191l-0.433,0.34l-0.343,0.387l-1.18,2.208l-0.494,0.442l-0.535,0.394l-0.432,0.456l-0.4,0.643
		l-0.574,1.538l-0.124,0.795l-0.027,0.779l0.097,0.779l-0.664,3.095l-0.113,1.098l-0.017,1.041l0.413,0.665l1.146,1.518
		L591.289,279.107z"/>
	<path class="st0" d="M655.13,224.673l-0.554,0.982l-0.519,0.365l-3.142,1.622l-1.596,0.547l-0.313,0.292l-0.153,0.408l-0.1,1.142
		l-0.133,0.485l-0.197,0.21l-0.283,0.119l-0.232,0.246l-0.49,0.811l-0.244,0.175l-0.419,0.021l-0.941-0.237l-0.403-0.014
		l-0.166,0.087l-0.134,0.342l-0.105,0.451l-0.517,0.866l-0.401,0.38l-0.53,0.242l-0.334,0.005l-0.259-0.109l-0.459-0.438
		l-0.343-0.121h-0.348l-1.024,0.312l-0.392,0.068l-0.461,0.125l-0.262,0.305l-0.118,0.342l0.067,0.476l-0.136,3.973l-0.297,1.037
		l-0.561,1.034l-1.22,1.661l-0.489,0.829l-0.207,0.656l0.627,1.201l-0.058,0.476l-0.232,0.567l-0.542,0.909l-0.207,0.492
		l-0.092,0.453l0.039,0.472l-0.059,0.572l-0.416,0.884l-0.512,0.679l-0.795,0.82l-0.419,0.572l-0.26,0.59l-0.157,1.187l-0.172,0.627
		l-0.239,0.328l-0.369,0.23l-1.139,0.214l-0.529,0.153l-0.921,0.458l-2.88-3.039l-1.225-0.488l-0.579,0.071l-1.061-0.173
		l-0.655-0.007l-0.465,0.071l-1.149,0.643l-0.501,0.16l-0.277-0.132l-0.221-0.269l-0.326-0.319l-0.416,0.062l-0.535,0.264
		l-0.469,0.355l-0.308,0.184l-0.313,0.135l-0.342,0.084l-0.399,0.203l-1.153,0.827l-0.431,0.114l-0.286-0.144l-0.294-0.385
		l-0.154-0.474l-0.085-0.711l-0.406-0.939l-0.733-1.032l-2.835-1.982l-0.581-0.515l-0.188-0.485l-0.268-1.089l-0.151-0.376
		l-0.518-0.797l-0.654-1.235l-1.641-2.142l-0.127-0.276l-0.009-0.558l-0.133-0.232l-0.372-0.328l1.341-2.095l5.589-0.559
		l0.838-3.074l-2.236-2.515l-4.192-2.236l-1.397-1.397l-7.825,0.28l-0.279-3.633l-8.943-0.279l-2.395-1.777l0.874-2.169l0.563-1.014
		l0.538-1.315l0.544-0.795l0.134-0.278l-0.009-0.251l-0.141-0.292l-0.305-0.333l-0.403-0.358l-1.136-0.791l-0.14-0.253l-0.007-0.299
		l0.243-0.337l0.414-0.271l0.851-0.403l0.655-0.39l0.923-0.763l0.38-0.242l0.567-0.228l0.46-0.239l1.254-0.827l0.53-0.128
		l0.649-0.018l1.027,0.087l1.18-0.032l4.623,0.998l0.366,0.198l0.227,0.164l0.708,0.854l0.743,1.7l0.421,0.296l0.65,0.283
		l0.788,0.196l0.63-0.027l0.564-0.128l0.931-0.123l1.736-0.542l3.791-0.415l1.064,0.112l4.482,0.934l0.938,0.025l0.552-0.105
		l0.494-0.164l2.317-0.262l0.936-0.267l0.615,0.036l2.308-0.442l2.347-0.137l1.203,0.137l0.737,0.273l0.272,0.369l0.138,0.442
		l0.071,0.524l-0.048,0.424l-0.252,0.77l-0.055,0.314l0.078,0.219l0.256-0.077l0.785-0.747l0.487-0.21l0.457,0.071l0.487,0.349
		l0.931,0.818l0.685,0.494l0.784,0.383l1.239,0.392l1.085-0.064l1.197-0.264l1.956-0.902l0.781-0.474l0.989-0.825l0.565-0.314
		l0.758,0.032l5.076,1.577l-1.105,1.832l-0.017,0.059v0.068l0.017,0.066l0.091,0.075l0.149,0.068l0.53,0.143l0.485,0.207
		l0.074,0.014h0.059l0.218-0.057l0.085,0.002l1.155,0.611l0.629,0.226l0.191,0.027l0.181,0.041l0.202,0.084l0.647,0.374l0.215,0.205
		l0.156,0.242l0.118,0.392l0.071,0.488l0.025,0.093l0.036,0.089l0.203,0.176L655.13,224.673z"/>
	<path class="st0" d="M607.122,241.299l-0.248,0.082l-0.157,0.144l-0.133,0.178l-0.171,0.157l-0.485,0.105l-0.189,0.089
		l-0.222,0.187l-0.19,0.296l-0.141,0.314l-0.075,0.355l-0.098,0.298l-0.14,0.219l-0.198,0.162l-0.737,0.342l-0.201,0.118
		l-0.189,0.196l-0.19,0.253l-0.535,1.283l-0.398,0.736l-0.185,0.239l-0.048,0.203l0.101,0.191l0.243,0.191l0.737,0.337l0.338,0.264
		l0.214,0.34l0.146,0.371l0.092,0.333l0.008,0.239l-0.164,0.155l-0.298,0.137l-0.507,0.173l-0.32,0.176l-0.198,0.221l-0.141,0.633
		l-0.171,0.346l-0.238,0.328l-0.45,0.187l-0.319,0.007l-0.328-0.118l-0.268-0.164l-0.16-0.157l-0.671-1.03l-0.796-0.273l-0.466,0.05
		l-0.71,0.383l-3.259,3.254l-0.477,0.328l-1.159,0.606l-0.57,0.408l-0.591,0.561l-0.477,0.54l-0.441,0.321l-0.592,0.162
		l-0.574,0.009l-0.559-0.084l-0.525-0.216l-0.44-0.289l-0.219-0.376l-0.116-0.371l-0.099-0.433l0.127-0.376l0.294-0.586l0.17-0.52
		l-0.109-0.652l-0.232-0.725l-0.101-0.606l0.222-0.417l0.267-0.324l0.185-0.271l-0.434-0.21l-0.976-0.164l-2.41,0.103l-0.966-0.132
		l-1.296-0.059l0.72-0.943l0.505-1.29l0.083-0.353l0.055-1.005l1.427-2.167l0.284-0.656l0.147-0.654l-0.267-7.876l0.068-0.736
		l-0.215-0.403l-0.385-0.13l-0.31-0.014l-0.713,0.048l-0.289-0.052l-1.554-0.463l-0.293-0.143l-1.132-1.066l-1.143-1.376
		l-0.327-0.314l-0.552-0.355l-0.385-0.349l-0.251-0.109l-0.314-0.102l-0.395-0.299l-0.201-0.481l-0.177-0.884l0.071-0.499l0.1-0.307
		l0.348-0.394l0.896-0.055l0.941,0.244l2.684,0.342l1.28,0.328l0.46,0.203l0.337,0.201l0.434,0.333l0.126,0.016l0.137-0.18
		l0.15-0.148l0.214-0.139l0.048-0.271l-0.1-0.15l-0.179-0.089l-0.14,0.016l-0.125,0.036l-0.128-0.014l-0.15-0.128l-0.471-0.622
		l-0.09-0.28l0.075-0.201l0.795-0.28l0.392-0.21l1.202-0.289l0.557-0.253l0.603-0.595l0.267-0.483l2.395,1.777l8.943,0.279
		l0.279,3.633l7.825-0.28l1.397,1.397l4.192,2.236l2.236,2.515l-0.838,3.074l-5.589,0.559L607.122,241.299z"/>
</g>
<g id="Copyright">
	<text transform="matrix(1 0 0 1 681.6426 577.5916)" class="st1 st2"> Vemaps.com</text>
</g>
</svg>
