<?xml version="1.0" encoding="utf-8"?>
<!-- Generator: Adobe Illustrator 23.0.1, SVG Export Plug-In . SVG Version: 6.00 Build 0)  -->
<svg version="1.1" xmlns="http://www.w3.org/2000/svg" xmlns:xlink="http://www.w3.org/1999/xlink" x="0px" y="0px"
	 viewBox="0 0 800 600" style="enable-background:new 0 0 800 600;" xml:space="preserve">
<style type="text/css">
	.st0{fill:#808080;stroke:#FFFFFF;stroke-width:0.5;stroke-linecap:round;stroke-linejoin:round;}
	.st1{font-family:'Roboto-Regular';}
	.st2{font-size:14px;}
</style>
<g id="Слой_1">
	<path class="st0" d="M571.985,55.967l0.511,1.589l1.96,6.128l1.569,4.897l1.909,5.055l2.537,6.733l3.067,8.113l1.086,4.601
		l0.108,2.39l0.299,0.983l0.792,1.087l0.494,0.714l-0.01,0.785l-0.473,1.725l-0.087,1.015l0.108,0.665l0.345,0.543l2.717,2.389
		l0.551,0.826l1.652,4.756l2.938,8.494l1.93,5.544l0.139,0.321l0.088,0.339l0.031,0.345l-0.026,0.354l0.314,3.121l2.182,6.003
		l1.95,5.392l1.281,5.899l-0.093,3.958l0.35,1.369l1.137,2.37l0.429,0.814l-0.061,0.032l-20.778-3.259l-6.218-2.269l-5.773-3.11
		l-10.103-3.827l-12.748-6.873l-31.765-5.636l-13.712,0.658l-0.371-0.533l-0.432-0.778l-0.44-1.207l-0.612-11.707l-0.942-5.354
		l-2.634-6.854l-4.566-7.34v-0.009l-0.1-0.227l-0.177-0.773l-0.162-1.186l-0.108-5.14l-2.038-20.103l-0.126-5.034l0.007-0.065
		l0.094,0.031l2.188,0.069l2.091-0.27l3.707-0.975l4.42-2.186l0.859-0.667l2.05-1.041l0.559-0.421h0.34v0.436l-1.588,0.613
		l-2.775,2.104l-1.617,0.459l-2.723,1.277l-4.278,1.107h2.415v0.393l-0.713,0.397l1.523-0.002l0.575-0.225l0.316-0.563h0.308
		l0.041,0.336l0.162,0.054l0.219-0.043l0.284,0.045l3.063-1.982l2.577-0.809l0.51-0.419h0.308l0.211,0.31l0.709,0.187l-0.166,0.286
		l-0.381,0.047v0.397l0.523-0.185l1.179-0.61v-0.433h-1.361v-0.357l0.673-0.284l0.843,0.227l0.77,0.549l0.462,0.695l0.121,0.326
		l0.105,0.572l0.089,0.293h-0.689l1.653,0.605l0.77-0.043l0.673-0.563v-0.433l-0.474-0.277l-0.239-0.085v-0.397l1.929-0.501
		l0.478-0.329l-0.247-0.438l0.109-0.421l0.267-0.487l0.211-0.639h-0.34l-0.32,0.395l-1.033,0.797l-0.158,0.213L511.02,62v0.18
		l0.324,0.225l-0.664,0.154l-1.134-0.019l-1.175-0.175l-0.802-0.317l1.503-0.152l0.855-0.89l0.628-1.172l0.79-1.001l0.6-0.294
		l1.232-0.218l0.575-0.284l0.956-0.914l0.575-0.284l0.851,0.005v0.398h-1.386v0.362l0.62,0.462l1.787,2.353l0.535,0.992
		l-0.207,0.319l-0.628,0.161l-0.721,0.513l-0.061-0.144v-0.154l-0.061-0.097l-0.251,0.038v0.357l0.835,0.582l0.446,0.75l-0.02,0.889
		l-0.547,0.988l1.783-0.724l0.924-0.213l0.66,0.109l0.336-0.071l0.235,0.002l0.45,0.069v-0.36l-0.681-0.433h-0.34v0.433h-0.304
		v-0.433l2.642-1.036l0.725-0.554h0.365l-0.365,0.433l0.365,0.397l0.369-0.326l0.409-0.035l0.352,0.248l0.203,0.511h0.369
		l0.045-0.492l-0.016-0.587l-0.065-0.092l0.717-0.057l-0.474-0.253l-0.494,0.071l-0.47-0.057l-0.575-0.118l5.441-0.435l-0.438-1.055
		l0.644-0.213l0.786-0.062v-1.056l0.539,0.27l0.17,0.166h0.34l0.668-0.189l1.985,1.044l0.932,0.301l3.634,0.379l0.972,0.416v-0.4
		l1.13,0.343l1.653-0.109l10.275-2.689l9.594-3.825l7.54-4.899l0.088-0.056l1.212,2.246l0.288,0.96L571.985,55.967z M508.768,63.515
		l-0.17-0.279l-0.267-0.005l0.365-0.272l0.3,0.078l0.195,0.364l0.113,0.594L508.768,63.515z M528.555,57.243l1.495,0.294
		l1.341,0.722l2.139,1.764l-1.074-0.753l-7.75-3.381l-1.438-0.232l1.56,0.052l2.561,1.222L528.555,57.243z M513.751,55.054
		l1.3-0.768l7.852,0.971l-0.316,0.251h-0.628l-1.54-0.291l-1.479-0.216l-1.483-0.218l-1.698,0.474l-0.818-0.182l-1.301,0.467
		l-6,3.235l-1.053,0.885l0.583-0.892l1.159-0.568l0.964-0.526l0.616-0.362l0.664-0.49l2.593-1.206L513.751,55.054z"/>
	<path class="st0" d="M434.897,569.945l-2.949,0.002l1.59-4.768l1.153-3.444l0.062-1.344l-0.443-1.195l-1.096-1.078l-0.916-0.467
		l-0.957-0.15l-0.957,0.172l-0.931,0.5l-1.286,1.417l-2.246,4.613l-0.01-0.022l-0.072-0.162l-0.365-0.585l-0.494-0.533l-2.194-1.604
		l-0.509-0.501l-0.44-0.522l-0.262-0.583l-0.1-0.572l0.162-0.738l0.37-0.806l0.749-1.134l0.659-0.681l0.672-0.528l1.243-0.612
		l1.23-0.363l1.25-0.185l2.526-0.14l1.181-0.199l1.23-0.414l1.204-0.556l0.805-0.467l1.752-1.382l3.501-4.476l0.417-0.845
		l0.316-0.855l0.378-1.726l0.031-0.354l-0.316-2.933l-0.826-3.174l-0.188-1.185V534.8l0.203-0.793l0.386-0.857l0.872-1.393
		l0.695-0.772l0.725-0.597l0.666-0.315l0.671-0.229l0.625-0.144l0.61-0.073l1.137,0.04l4.278,1.145l0.543,0.049l0.556-0.063
		l15.843-7.579l1.392-0.404l0.656-0.089l0.594,0.06l0.612,0.211l1.096,0.722l2.264,1.874l0.594,0.286l0.664,0.14l0.674,0.001
		l1.374-0.251l0.587-0.02l0.579,0.137l0.52,0.317l0.432,0.469l0.617,1.041l0.409,0.446l0.517,0.142l0.548-0.208l0.466-0.536
		l1.003-2.082l0.355-0.539l0.44-0.542l0.504-1.013l0.471-1.467l0.602-3.051l0.502-1.506l0.502-1.021l0.471-0.607l0.17-0.289
		l0.45-1.001l1.482-4.874l2.426-5.42l1.281-1.751l4.366-4.699l0.432-0.751l0.301-0.726l0.185-1.002l-0.038-0.866l-0.34-0.984
		l-0.509-0.279l-0.594-0.08l-6.715,0.997l-4.973-0.172l-2.025-0.388l-0.586-0.221l-0.535-0.303l-0.409-0.6l-0.162-0.827l0.262-1.343
		l0.232-0.759l0.427-0.958l0.371-1.43l0.71-4.113l0.617-2.381l0.293-0.558l1.199-1.764l0.934-1.097l1.098-1.059l0.579-0.399
		l0.571-0.313l0.587-0.237l1.261-0.305l6.118-0.866l0.625-0.232l0.556-0.35l0.316-0.597l0.023-0.706l-0.424-1.019l-0.486-0.548
		l-0.556-0.401l-1.153-0.539l-2.246-1.329l-0.543-0.452l-0.455-0.536l-0.247-0.761l-0.1-0.923l0.147-1.565l0.347-1.677l0.332-0.704
		l0.141-0.203l0.255-0.32l0.44-0.384l0.525-0.266l0.594-0.197l1.181-0.182l3.193,0.113l1.204-0.186l0.602-0.196l0.62-0.285
		l0.563-0.372l0.533-0.484l0.409-0.602l0.17-0.399l0.46-0.462l0.085-0.545l0.533-1.966l-0.026-1.009l-0.651-2.27l-0.103-0.694
		l0.103-1.745l0.108-0.642l0.031-1.263l0.347-2.738l0.01-0.635l-0.443-3.814l0.124-3.004l0.154-1.163l-0.003-0.759l-0.069-0.131
		l0.27-2.187l1.85-4.434l0.484-2.084l-0.17-0.743l-0.028-0.313l-0.394-2.036l-0.957-2.913l-2.125-4.472l-0.34-0.931l-0.185-0.777
		l-0.556-5.631l-0.72-2.054l-0.594-1.194l-0.857-1.275l-1.044-1.225l-1.744-1.352l-4.049-2.343l0.867-0.732l0.417-0.236l0.486-0.368
		l0.216-0.507l0.162-0.788l0.015-2.922l0.371-1.28l10.098,7.752l1.863,2.408l1.721,2.968l0.641,1.624l0.396,1.571l0.432,3.253
		l0.139,7.354l0.34,1.951l0.247,0.792l5.369,11.277l0.069,0.435l-0.069,1.026l-0.363,1.354l-0.185,0.486l-0.617,1.203l-0.744,1.188
		l-4.07,5.392l-0.463,0.98l-1.052,4.319l-0.44,3.719l1.407,9.312l0.455,1.251l1.173,2.187l1.322,3.724l0.44,0.948l0.803,1.077
		l0.949,0.839l1.029,0.693l0.556,0.477l0.54,0.648l0.594,1.165l0.201,0.808l0.041,0.732l-0.062,0.822l0.015,1.026l0.309,2.878
		l-0.072,0.892l-0.221,0.566l-1.014,1.662l-0.131,0.886l0.023,1.4l1.096,5.06l0.311,0.838l1.405,2.196l0.579,1.247l0.185,0.849
		l0.046,0.757l-0.093,0.593l-0.378,1.357l-1.767,4.601l-0.278,0.556l-0.334,0.481l-1.521,1.22l-0.486,0.537l-0.35,0.635
		l-0.695,1.866l-0.27,0.544l-0.371,0.53l-0.972,1.074l-0.293,0.775l0.108,0.661l0.34,0.597l0.517,0.45l3.422,2.099l2.959,1.105
		l0.571,0.314l0.504,0.427l0.417,0.535l0.648,1.203l0.44,0.532l0.965,0.873l0.419,0.549l0.301,0.565l2.11,7.05l0.108,1.381
		l-0.201,0.607l-0.427,0.276l-0.494-0.026l-0.525-0.166l-0.517-0.247l-3.229-2.406l-4.011-4.141l-1.165-0.722l-1.153-0.394
		l-1.266-0.121l-4.073,0.678l-0.486-0.008l-0.533-0.084l-0.533-0.148l-0.556-0.25l-1.184-0.905l-2.171-2.353l-0.571-0.507
		l-0.571-0.374l-0.533-0.134l-0.494,0.082l-0.409,0.38l-0.257,0.515l-0.509,1.623l-0.34,0.503l-0.98,0.956l-0.386,0.741
		l-0.039,0.726l0.324,2.346l-0.062,1.561l-0.177,0.961l-0.286,0.735l-0.674,1.118l-1.289,1.686l-6.45,5.86l-1.585,1.752l-1.84,1.65
		l-0.864,0.572l-0.988,0.512l-2.256,0.725l-2.38,0.401l-2.766-0.067l-0.656-0.106l-1.268-0.412l-1.219-0.579l-0.533-0.345
		l-0.466-0.372l-2.053-2.392l-2.279-1.853l-0.548-0.343l-0.571-0.251l-0.551-0.071l-0.533,0.19l-0.486,0.393l-0.355,0.52
		l-0.548,1.173l-3.231,9.139l-0.826,1.378l-0.88,1.139l-0.687,0.733l-2.009,1.478l-0.556,0.321l-0.594,0.216l-0.605,0.115
		l-1.698,0.047l-0.635,0.111l-0.664,0.247l-0.563,0.516l-0.409,0.557l-0.671,1.195l-0.852,1.098l-0.579,0.456l-10.314,4.85
		l-1.088,0.662l-1.127,0.876l-1.122,1.319l-1.405,2.702l-0.067,0.24L434.897,569.945z"/>
	<path class="st0" d="M425.919,564.204l-0.172,0.353l-2.454,5.046L422.634,570h-1.906h-4.839l-4.847-0.003l-4.85-0.003h-4.849
		h-4.842h-4.847h-4.847h-4.842l-4.842-0.003h-4.847h-4.855h-4.839h-4.847l-4.842-0.003l-4.842-0.003h-4.847h-4.847h-4.847
		l-4.85-0.003h-4.839h-4.842h-4.847h-4.847l-4.842-0.003l-4.847-0.003h-4.847h-4.847h-4.85h-4.839h-4.847l-4.849-0.003h-4.839
		h-4.847l-4.847-0.003l-4.847-0.003h-4.842h-4.847h-4.847h-4.847h-4.847l-4.842-0.003h-4.847h-4.847h-4.842h-4.847l-4.842-0.003
		l-4.847-0.003h-4.847h-4.847h-4.842l-4.842-0.003h-4.847h-4.842l-4.852-0.003l-4.847-0.003h-4.842h-4.842H139.7l-4.844-0.003
		h-4.842h-4.852h-4.847h-4.847l-4.842-0.003v-15.685v-15.717v-15.751v-15.787v-15.816v-15.855v-15.892v-15.926v-15.96v-16.001
		v-16.04V379.44v-16.109v-16.158v-16.198v-16.236v-10.897V293.27v-4.966v-18.905v-8.556v-2.174h0.934l115.738-0.078h66.136
		l101.292,0.014l-0.587,1.204l-0.239,0.685l-0.201,2.17l0.154,1.534l0.533,1.769l4.613,9.902l0.857,1.269l0.78,0.959l6.614,6.237
		l2.418,1.433l4.603,1.896l0.805,0.558l0.934,0.779l2.326,2.562l0.61,0.87l6.257,12.67l6.915,8.582l4.734,4.059l20.828,26.159
		l7.888,7.451l0.502,0.391l0.872,0.518l1.222,0.569l0.725,0.228l0.911,0.186l1.407,0.064l2.418-0.396l4.402-1.268l11.479-5.384
		l1.346-0.378l2.287-0.265l0.849,0.037l0.718,0.132l0.54,0.238l0.527,0.374l0.486,0.463l0.424,0.548l0.324,0.587l0.216,0.58
		l0.185,1.122v1.141l-0.116,0.749l-0.185,0.567l-0.486,1.109l-2.094,3.608l-0.27,0.641l-0.185,0.653l-0.386,2.604l-0.332,1.226
		l-0.224,0.573l-0.301,0.559l-0.365,0.543l-0.949,1.083l-6.867,5.438l-1.461,1.517l-0.725,1.077l-0.224,0.564l-0.131,0.581
		l-0.054,1.147l0.077,0.849l1.698,6.684l1.33,7.898l0.749,1.99l0.463,0.85l0.471,0.7l1.037,1.125l4.726,3.63l4.049,2.343
		l1.744,1.352l1.044,1.225l0.857,1.275l0.594,1.194l0.72,2.054l0.556,5.631l0.185,0.777l0.34,0.931l2.125,4.472l0.957,2.913
		l0.394,2.036l0.028,0.313l0.17,0.743l-0.484,2.084l-1.85,4.434l-0.27,2.187l0.069,0.131l0.003,0.759l-0.154,1.163l-0.124,3.004
		l0.443,3.814l-0.01,0.635l-0.347,2.738l-0.031,1.263l-0.108,0.642l-0.103,1.745l0.103,0.694l0.651,2.27l0.026,1.009l-0.533,1.966
		l-0.085,0.545l-0.46,0.462l-0.17,0.399l-0.409,0.602l-0.533,0.484l-0.563,0.372l-0.62,0.285l-0.602,0.196l-1.204,0.186
		l-3.193-0.113l-1.181,0.182l-0.594,0.197l-0.525,0.266l-0.44,0.384l-0.255,0.32l-0.141,0.203l-0.332,0.704l-0.347,1.677
		l-0.147,1.565l0.1,0.923l0.247,0.761l0.455,0.536l0.543,0.452l2.246,1.329l1.153,0.539l0.556,0.401l0.486,0.548l0.424,1.019
		l-0.023,0.706l-0.316,0.597l-0.556,0.35l-0.625,0.232l-6.118,0.866l-1.261,0.305l-0.587,0.237l-0.571,0.313l-0.579,0.399
		l-1.098,1.059l-0.934,1.097l-1.199,1.764l-0.293,0.558l-0.617,2.381l-0.71,4.113l-0.371,1.43l-0.427,0.958l-0.232,0.759
		l-0.262,1.343l0.162,0.827l0.409,0.6l0.535,0.303l0.586,0.221l2.025,0.388l4.973,0.172l6.715-0.997l0.594,0.08l0.509,0.279
		l0.34,0.984l0.038,0.866l-0.185,1.002l-0.301,0.726l-0.432,0.751l-4.366,4.699l-1.281,1.751l-2.426,5.42l-1.482,4.874l-0.45,1.001
		l-0.17,0.289l-0.471,0.607l-0.502,1.021l-0.502,1.506l-0.602,3.051l-0.471,1.467l-0.504,1.013l-0.44,0.542l-0.355,0.539
		l-1.003,2.082l-0.466,0.536l-0.548,0.208l-0.517-0.142l-0.409-0.446l-0.617-1.041l-0.432-0.469l-0.52-0.317l-0.579-0.137
		l-0.587,0.02l-1.374,0.251l-0.674-0.001l-0.664-0.14l-0.594-0.286l-2.264-1.874l-1.096-0.722l-0.612-0.211l-0.594-0.06
		l-0.656,0.089l-1.392,0.404l-15.843,7.579l-0.556,0.063l-0.543-0.049l-4.278-1.145l-1.137-0.04l-0.61,0.073l-0.625,0.144
		l-0.671,0.229l-0.666,0.315l-0.725,0.597l-0.695,0.772l-0.872,1.393l-0.386,0.857l-0.203,0.793v0.567l0.188,1.185l0.826,3.174
		l0.316,2.933l-0.031,0.354l-0.378,1.726l-0.316,0.855l-0.417,0.845l-3.501,4.476l-1.752,1.382l-0.805,0.467l-1.204,0.556
		l-1.23,0.414l-1.181,0.199l-2.526,0.14l-1.25,0.185l-1.23,0.363l-1.243,0.612l-0.672,0.528l-0.659,0.681l-0.749,1.134l-0.37,0.806
		l-0.162,0.738l0.1,0.572l0.262,0.583l0.44,0.522l0.509,0.501l2.194,1.604l0.494,0.533l0.365,0.585l0.072,0.162L425.919,564.204z"/>
	<path class="st0" d="M486.165,569.945h-4.055h-5.094h-5.099h-5.094h-5.099h-5.094h-5.099h-5.094h-5.099h-5.094l-1.347,0.001
		l0.004-0.015l0.067-0.24l1.405-2.702l1.122-1.319l1.127-0.876l1.088-0.662l10.314-4.85l0.579-0.456l0.852-1.098l0.671-1.195
		l0.409-0.557l0.563-0.516l0.664-0.247l0.635-0.111l1.698-0.047l0.605-0.115l0.594-0.216l0.556-0.321l2.009-1.478l0.687-0.733
		l0.88-1.139l0.826-1.378l3.231-9.139l0.548-1.173l0.355-0.52l0.486-0.393l0.533-0.19l0.551,0.071l0.571,0.251l0.548,0.343
		l2.279,1.853l2.053,2.392l0.466,0.372l0.533,0.345l1.219,0.579l1.268,0.412l0.656,0.106l2.766,0.067l2.38-0.401l2.256-0.725
		l0.988-0.512l0.864-0.572l1.84-1.65l1.585-1.752l6.45-5.86l1.289-1.686l0.674-1.118l0.286-0.735l0.177-0.961l0.062-1.561
		l-0.324-2.346l0.039-0.726l0.386-0.741l0.98-0.956l0.34-0.503l0.509-1.623l0.257-0.515l0.409-0.38l0.494-0.082l0.533,0.134
		l0.571,0.374l0.571,0.507l2.171,2.353l1.184,0.905l0.556,0.25l0.533,0.148l0.533,0.084l0.486,0.008l4.073-0.678l1.266,0.121
		l1.153,0.394l1.165,0.722l4.011,4.141l3.229,2.406l0.517,0.247l0.525,0.166l0.494,0.026l0.427-0.276l0.201-0.607l-0.108-1.381
		l-2.11-7.05l-0.301-0.565l-0.419-0.549l-0.965-0.873l-0.44-0.532l-0.648-1.203l-0.417-0.535l-0.504-0.427l-0.571-0.314
		l-2.959-1.105l-3.422-2.099l-0.517-0.45l-0.34-0.597l-0.108-0.661l0.293-0.775l0.972-1.074l0.371-0.53l0.27-0.544l0.695-1.866
		l0.35-0.635l0.486-0.537l1.521-1.22l0.334-0.481l0.278-0.556l1.767-4.601l0.378-1.357l0.093-0.593l-0.046-0.757l-0.185-0.849
		l-0.579-1.247l-1.405-2.196l-0.311-0.838l-1.096-5.06l-0.023-1.4l0.131-0.886l1.014-1.662l0.221-0.566l0.072-0.892l-0.309-2.878
		l-0.015-1.026l0.062-0.822l-0.041-0.732l-0.201-0.808l-0.594-1.165l-0.54-0.648l-0.556-0.477l-1.029-0.693l-0.949-0.839
		l-0.803-1.077l-0.44-0.948l-1.322-3.724l-1.173-2.187l-0.455-1.251l-1.407-9.312l0.44-3.719l1.052-4.319l0.463-0.98l4.07-5.392
		l0.744-1.188l0.617-1.203l0.185-0.486l0.363-1.354l0.069-1.026l-0.069-0.435l-5.369-11.277l-0.247-0.792l-0.34-1.951l-0.139-7.354
		l-0.432-3.253l-0.396-1.571l-0.641-1.624l-1.721-2.968l-1.863-2.408l-10.098-7.752l-1.582-1.484l-0.44-0.569l-0.636-1.174
		l-0.556-1.547l-0.857-4.131l-0.093-2.926l0.093-0.795l0.594-1.833l0.525-1.094l0.751-1.094l3.275-3.66l4.819-4.353l1.099-1.247
		l0.934-1.287l2.542-5.293l0.463-1.468l0.255-1.496l0.085-1.297l-0.062-1.98l-0.533-4.058l-0.71-2.583l-0.525-1.268l-0.702-1.262
		l-1.963-2.66l-1.716-1.597l-1.227-0.869l-0.96-0.509l-3.885-1.143l-3.167-0.198l-1.454,0.115l-2.58,0.488l-10.026,4.843
		l-1.538,0.343l-5.269-6.647l-1.343-2.53l-0.448-0.667l-0.52-0.627l-0.772-0.52l-0.633-0.25l-3.26-0.735l-1.438-0.556l-1.304-0.692
		l-0.898-0.632l-0.695-0.74l-0.78-1.003l-1.204-1.856l-0.759-1.499l-0.123-0.632l-0.255-2.476l-0.27-0.869l-0.525-1.017
		l-1.299-1.794l-1.158-1.967l-0.772-1.854l-2.194-2.143l-8.359-5.843l-5.323-11.159l-1.15-1.944l-0.705-0.864l-3.121-3.22
		l-2.063-1.741l-1.142-0.698l-0.355-0.34l-0.37-0.495l-0.386-0.826l-0.79-2.267l-0.448-0.807l-0.61-0.806l-1.096-0.991l-0.774-0.526
		l-0.702-0.376l-3.152-0.987l-5.053-2.152l-4.363-2.533l-0.486-0.438l-0.443-0.578l-0.355-0.633l-0.316-0.739l-0.478-1.566
		l-0.162-0.766l-0.077-1.645l0.177-4.963l0.895-5.373l0.039-0.9l-0.039-1.323l-0.224-1.715l-0.247-1.092l-1.15-3.007l-0.285-1.268
		l-0.412-5.32l-0.262-1.535l-0.78-2.254l-2.688-5.286l-0.216-0.662l-0.108-0.648l-0.216-2.437l-0.502-2.555l-0.07-0.612l0.116-1.014
		l0.301-1.285l1.436-3.765l2.426-4.161l0.293-0.651l0.255-1.181l1.585-13.827l0.093-1.15l0.347-1.676l0.934-2.62l1.052-1.96
		l3.344-4.496l2.874-4.664l1.405-1.859l2.218-2.394l0.69-1.051l0.625-1.246l0.88-2.348l0.563-1.195l0.363-1.055l0.085-0.809
		l-0.185-2.264l0.201-2.407l3.64,4.501l1.05,0.917l0.332,0.383l0.355,0.533l0.689,1.584l0.224,0.412l0.586,0.753l1.971,2.073
		l0.965,0.758l1.482,0.907l0.944,0.455l18.323,5.563l2.11,0.96l6.838-1.017l4.031,0.225l0.756-0.15l1.068-0.34l15.171-6.656
		l1.415-0.874l2.045-0.655l0.952-0.121l4.795-0.053l0.138,0.562l0.036,1.236l-0.275,0.468l-0.494,0.454l-0.263,0.658l-0.535,0.246
		l-0.174,0.505l0.381,0.602l-0.255,1.691l-0.085,2.001l0.328,0.616l1.527,1.583l0.527,0.713l0.158,0.602l0.036,1.148l0.178,0.581
		l1.126,1.242l0.202,0.134l2.074,2.928l1.758,0.31l1.114,1.207l0.685,1.719l2.22,8.416l0.182,1.17l0.531,0.198l2.374,1.352
		l1.203,1.167l0.604,0.752l0.466,1.014l0.482,0.184l0.559,0.134l0.454,0.267l0.162,0.348l0.34,1.15l1.43,2.769l0.45,0.408
		l0.012,0.247l-0.073,0.069l-0.142-0.005l-0.174,0.037l2.208,1.821l0.952,1.215l-0.069,1.215l0.381,0.317l0.34,0.635l0.243,0.704
		l0.089,0.499l0.203,0.189l1.122,1.583l2.362,2.531l0.579,1.211l0.498,0.299l0.571,0.244l0.413,0.308l0.239,0.754l-0.032,0.625
		l0.162,0.427l0.835,0.158l0.851,0.434l1.653,2.033l1.082,0.618l-0.069,0.354l0.069,0.459v0.34l-0.101,0.464l0.373,0.349
		l0.591,0.142l0.527-0.147l0.429,0.835l1.094,0.487l2.245,0.604l3.525,3.242l1.138,2.403l0.596,0.548l0.348,0.575l1.086,2.59
		l0.109,0.678v0.35l0.243,0.433l0.19,1.092l0.247,0.433v0.348h-0.34h-0.681l-0.571-1.248l-1.175-0.712l-1.329-0.499l-1.037-0.616
		h-0.336l-0.304,0.804l-0.13,0.474l0.097,0.412l0.336,0.616l0.948,0.98l0.523,0.698l0.227,0.854l0.32,0.451l0.717-0.217l0.713-0.33
		l0.32,0.096l-0.073,0.767l-0.195,0.81l-0.328,0.753l-0.454,0.586l0.198,0.199l0.267,0.357l0.215,0.176l0.9,0.663l0.32,0.105
		l0.146,0.222l0.482,1.036l0.223,0.311v0.384l-0.523-0.441l-1.179-1.512h-0.369v0.416l0.174,0.3l0.194,0.505h-0.369l-0.312-1.098
		l-0.879,0.092l-0.964,0.778l-0.539,0.961l1.163,0.608l0.826,1.102l1.414,2.51l-0.194,0.357l-0.126,0.452l-0.065,0.535l0.044,0.608
		l0.827,0.612l2.176,0.996l0.737,0.69l0.146,0.512l0.065,1.231l0.158,0.559l0.336,0.468l0.843,0.906l0.352,0.557l0.316,1.136
		l0.365,2.491l0.34,0.775l1.649,1.578l1.92,1.309l2.107,1.021l0.98,0.695l0.648,0.959l0.105,0.588l-0.105,2.123l-0.114,0.187
		l-0.454,0.373l-0.114,0.205l0.032,0.328l0.247,0.487l0.061,0.332l0.049,1.236l0.211,0.958l0.519,0.769l0.936,0.662l0.855,0.803
		l0.908,1.233l0.365,0.928l-0.745-0.1l0.008,0.896l0.348,0.764l0.997,1.391l0.425,0.846l0.628,1.655l0.478,0.759l0.632,0.509
		l0.721,0.386l0.604,0.42l0.255,0.607l0.328,1.767l0.045,0.89l-0.373,0.618l-0.818,0.043l-0.543-0.518l-0.454-0.191l-0.567,1.049
		l-0.122,0.738v0.992l0.097,0.98l0.194,0.733l0.012,1.445l-0.984,3.386l0.462,1.621l0.697,0.585l1.612,0.496l0.786,0.471
		l0.519,0.779l0.494,1.722l1.617,2.138l0.709,1.526l1.702,4.906l0.737,1.466l1.013,1.556l0.664,1.399l1.203,1.792l4.205,9.733
		l1.945,2.865l1.876,4.767l3.922,5.461l0.373,0.716l0.486,1.567l3.338,4.991l1.815,1.988l0.413,0.587l4.327,8.595l0.681,2.613
		l1.207,2.334l0.523,2.813l0.9,1.525l2.159,2.74l0.3,0.688l0.47,1.607l0.308,0.746l1.491,2.296l0.596,2.354l2.305,4.004l4.278,7.445
		l0.194,1.763l0.532,1.489l0.805,0.974l0.989,1.174l0.162,1.005l0.045,2.052l0.134,1.029l0.28,0.819l0.401,0.614l0.575,0.509
		l0.786,0.509l1.288,1.194l0.859,1.573l1.159,4.303l0.276,0.718l0.867,1.431l0.948,1.739l0.71,0.617l0.019,0.882l-0.807,1.687
		l0.006,1.503l2.049,0.796l2.476,4.678l6.729,5.138l1.057,1.273l1.832,5.286l1.349,1.471l1.896,2.732l0.83-0.127l-0.37-0.757
		l-0.464-0.757l0.505-0.084l1.01,1.051l1.387,0.588l1.808,1.89l0.715,1.512l0.126,1.596l1.512,0.924l1.554-0.294l1.218,0.336
		l1.303,0.421l1.05,0.547l0.756,0.799l1.049,2.438l0.882,1.177l-0.336,0.503l-0.756-1.051l-1.008-1.093l-0.714-0.043l-1.807,0.838
		l-0.757,0.376l-1.008-0.421l-0.922-0.376l-0.923-0.168l-0.672,0.084l-0.756-0.126l-0.924-0.378l-0.336-0.462l-0.57-0.673
		l-0.515-0.175l-0.045-0.277l-0.76-0.344l-1.063-0.29l-0.448,0.333l-0.682,1.276l-0.366,1.623l0.338,2.602l-0.46,2.267l-0.331,1.656
		l0.421,1.384l0.921,0.206l0.419,0.67l-0.041,0.797l-0.16,0.39l0.077,0.91l0.042,0.629l0.085,1.215l-0.233,2.252l-0.093,4.717
		l-0.109,0.853l-0.486,1.509l-0.113,0.822l0.194,0.795l0.462,0.822l1.074,1.535l0.855,1.594l0.308,0.845l0.194,0.894l-0.057,2.564
		l0.392,2.609l0.459,1.987l0.363,1.78l2.31,3.968l0.701,1.536l0.969,2.012l0.656,4.93l0.361,0.865l1.008,1.865l2.079,2.602
		l1.325,0.732l-0.6-0.84l-1.406-2.481l0.972,0.031l0.636,0.486l0.433,0.792l0.336,0.939l0.535,2.656l0.15,0.429l0.814,0.574
		l0.413,0.607l0.353,0.672l0.644,0.76l0.894,1.179l1.913,1.474l1.803,0.733l0.897,0.297l0.146,0.206l0.632,0.448l0.681,0.351
		l0.741,0.226l2.771,0.195l4.011,0.782l3.841,1.295l1.41,0.876l2.419,2.324l0.79,1.303l0.29,2.489l0.849,1.637l1.482,1.319
		l1.56,1.178l0.766,0.35l0.74,0.316l-0.159-0.845l0.264,0l1.057,1.214l-0.263,1.531l0.846,2.216l3.379,1.528l1.637,0.949
		l1.109,0.739l3.01,2.534l4.501,4.325l0.948,0.512l0.737-0.072l0.186-0.321l0.097-0.335l0.178-0.201l0.401,0.105l0.863,0.564
		l0.405,0.367l0.263,0.367l0.685,1.614l0.438,0.641l0.75,0.698l1.926,1.168l1.167,0.429l0.189,1.949l-0.036,0.664l-0.328,0.577
		l-0.401,0.542l-0.008,0.05l-11.637,0l-11.582,0.003l-11.582,0.003h-11.587h-11.582l-11.587,0.003h-11.582h-11.582h-11.582
		l-11.587,0.003l-11.582,0.003h-11.582h-0.312h-11.275h-11.582H529.37l-10.516,0.003l-1.064,0h-5.096H507.6h-5.099h-5.094h-5.102
		h-5.099H486.165z M557.385,307.743l0.77-0.036l0.004,0.002l0.247,0.034l0.988,2.137l0.373,1.118l0.032,1.306l-0.697-0.674
		l-0.34-0.769L557.385,307.743z M559.95,267.49l1.09,0.418l0.32,0.955l0.174,1.032l0.64,0.662v0.347l-0.352-0.055l-0.652-0.105
		l-0.899-1.036l-0.296-0.342l-1.057-0.34l-0.486-0.295l-0.474-0.576l-0.506-0.379h-0.004l-1.122,0.544l-0.462-0.377l-0.348-0.66
		l-0.195-0.594l0.28-0.363l0.328-0.231l0.365-0.114l0.413-0.023l1.13,0.148l0.389,0.251l0.438,0.283l0.401,0.356l0.255,0.222
		L559.95,267.49z"/>
	<path class="st0" d="M110.626,234.439v-22.324v-22.623v-9.546v-7.035l-0.345-3.284l-0.88-3.067l-4.127-10.035l-0.494-1.977
		l-0.113-2.211l0.448-4.147l0.005-1.394l-0.72-2.357l-2.552-4.317l-0.334-2.388l0.834-2.992l0.062-1.139l-0.226-1.291l-4.286-10.776
		l-1.405-2.546l-0.448-1.24l0.015-2.223l0.798-2.024l2.063-3.738l0.834-1.979l0.473-0.805l1.348-1.72l1.508-1.542l2.907-4.434
		l0.972-1.982l0.468-1.953l0.165-1.15l1.508-3.984l0.525-3.185l0.617-2.316l0.746-1.987l0.314-2l-0.679-2.336l-2.171-4.661
		l-0.648-2.96l-1.744-3.604l-0.345-1.177l-1.153-6.213l-0.046-4.77l-0.494-4.9l0.015-2.132l0.612-1.85l8.088-6.655l1.827-4.962
		l1.394-1.997l3.11-2.512l-0.073,0.445l0.616,3.818l0.551,1.869l0.899,1.174l1.078,0.299l2.532,0.157l1.924,1l1.029,0.007
		l2.277-0.342l0.478,0.15l0.575,0.268l0.608,0.114l0.912-0.527l1.228-0.319l1.446-0.166l8.095-2.348l9.339-3.17l2.228-0.35
		l4.878,0.252l19.682,5.533l14.363,1.937l0.826,0.456l0.79,0.276l2.479-0.176l1.009,0.102l3.561,1.731l2.042,0.641l2.285,0.019
		l1.807-0.684l0.875-0.083l0.851,0.567l0.689,0.655l0.502,0.214l0.462,0.033l0.559,0.128l1.361,0.795l3.136,1.061l3.371,0.356
		l1.24,0.363l0.81,0.61l0.308-0.268l0.478-0.297l0.202-0.23l0.592,0.074l3.12-0.057l0.34,0.104l0.365,0.237l0.373,0.403
		l-0.016,0.209l-0.093,0.214l0.109,0.408l0.373,0.74l0.227,0.323l0.251,0.133l0.146,0.173l0.073,0.875l0.134,0.341l0.352,0.654
		l0.494,1.742l0.502,0.803l1.191,1.019l1.434,0.815l1.58,0.54l3.112,0.476l1.24,0.512l1.11,0.225l1.102-0.587l2.512,1.336
		l2.945-0.526l5.786-2.833l0.855-0.137l0.519,0.393l0.259,0.824l0.069,1.142l0.142,0.476l0.875,2.105l0.199,1.908l0.142,0.478
		l1.483,0.894l2.398,0.345l8.934-0.014l0.583,0.149l0.45,0.341l0.397,0.383l0.405,0.284l0.62,0.17l1.479-0.17l1.134,0.125
		l2.127,0.541l0.96,0.125l1.009-0.251l2.164-1.083l1.138-0.218l0.964,0.177l0.891,0.409l0.774,0.556l0.596,0.627l0.438,0.246
		l1.775-0.028l0.669,0.128l0.531,0.208l0.835,0.454l8.844,3.174l1.771,1.009l0.972,0.409l1.207,0.168l0.3,0.326l0.344,1.549
		l0.194,0.538l0.34,0.255l0.928,0.281l8.65,4.576l8.022-0.359l1.479-0.278l6.81-3.309l7.345-3.575l2.642-1.987l2.078-1.08v0.044
		l1.335,38.878l2.333,4.907l32.701,20.353l-38.734,23.805l-32.339,32.732l-10.049,7.604l-39.475,10.34l-3.702,1.497l-2.354,2.601
		l-1.369,2.098l-21.523,46.024l-115.738,0.078h-0.934v-19.821V234.439z"/>
	<path class="st0" d="M492.5,138.1l-0.166-0.264l-1.143-1.184l-1.045-0.511l0.251-0.558l0.519-0.532l0.276-0.182l-0.008-1.602
		l-0.64-1.119l-2.038-2.019l0.442-0.294l0.195-0.269l-0.04-0.271l-0.284-0.309l0.284-0.105l0.097-0.105l-0.097-0.108l-0.284-0.108
		l-0.203-0.341l-0.235-0.313l-0.275-0.276l-0.093-0.229l0.057-0.147l0.166-0.119l0.198-0.093l0.385-0.051v-0.353l-0.118-0.421
		v-0.337l0.118-0.491h-0.312l-0.644,1.396l-0.057,0.613l0.13,0.454l0.275,0.318l0.243,0.419l0.053,0.757h-0.369l-0.117-0.727
		l-0.389-0.395l-0.559-0.026l-0.632,0.365l-0.827-0.309l-0.972,0.629l-0.847,1.059l-0.446,0.975l-0.057,1.054l0.304,0.855
		l0.701,0.598l1.122,0.271l-0.895,0.733l-4.161,5.862l-0.247,0.455l-0.506,0.551l-1.438,2.645l-0.292,0.933l-0.032,2.371
		l-0.292,0.967l-0.693,0.788v0.426l0.531,0.426l0.563,0.787l0.45,0.806l0.405,1.208l0.543,0.598l2.536,1.65l0.632,0.542l2.289,2.699
		l1.556,0.94l1.414,1.474l1.207,1.641l0.51,1.12l0.195,1.406l0.502,1.882l0.656,1.756l0.681,1.033v0.357l-0.182,1.019l1.369,5.604
		l-4.795,0.053l-0.952,0.121l-2.045,0.655l-1.415,0.874l-15.171,6.656l-1.068,0.34l-0.756,0.15l-4.031-0.225l-6.838,1.017
		l-2.11-0.96l3.162-43.898l-0.185-2.661l0.371-5.127l-1.075-11.806l-1.304-5.613l-0.062-3.279l17.937-0.611l4.304,0.337l1.451,0.965
		l0.695,0.29l0.883,0.265l2.573,0.395l0.625,0.007l0.255-0.061l1.459-0.682l0.219-0.135l1.968-1.854l0.386-0.219l1.6-0.478
		l1.562-0.137l9.455,0.669l0.942,5.354l0.612,11.707l0.44,1.207l0.432,0.778l0.371,0.533l-10.1,7.097L492.5,138.1z"/>
	<path class="st0" d="M603.706,155.314l-0.506,0.268l-0.421,0.321l-0.357,0.403l-0.357,0.535l-0.276,0.668l-0.162,0.589
		l-0.279,0.451l-0.636,0.247l0.174,0.051l0.142,0.005l0.077,0.084l-0.024,0.288l-0.425,0.214l-0.328,0.298l-0.122,0.33l0.194,0.326
		l-0.474,0.091l-0.219,0.153l0.037,0.221l0.316,0.281l-0.579,0.558l-1.146,1.815l-0.243,0.242l-0.535,0.286l-0.247,0.216
		l-0.203,0.342l-0.158,0.337l-0.239,0.307l-0.417,0.26v0.351l0.433,0.787l-0.166,0.818l-0.389,0.792l-0.255,0.722v2.941
		l-0.267,0.699l-0.575,0.527l-0.583,0.404l-0.267,0.334l-0.057,0.8l-0.186,0.911l-0.312,0.879l-0.462,0.714l0.122,0.661
		l-0.122,3.446l0.101,0.547l0.494,0.704l0.109,0.686l-0.15,0.667l-0.373,0.315l-0.454,0.169l-1.114,0.725l-0.174,0.306l-0.146,0.755
		l0.032,0.347l0.251,1.157l0.057,3.383l-1.329,0.967v0.356l0.146,0.513l0.146,0.772v0.828l-0.292,0.67l0.178,0.201l0.162,0.257
		l0.308,0.673l-0.454,0.305l-0.077,0.312l0.109,0.347l0.085,0.411l-0.109,0.596l-0.231,0.386l-0.231,0.284l-0.109,0.284
		l-0.267,1.005l-1.167,1.653l-0.693,2.62l-2.002,3.032l-0.636,1.619l-0.049,0.15l0.004,0.143l-0.057,0.088l-0.235-0.032l0.648,1.738
		l-0.6,1.106l-1.134,0.853l-0.984,0.982l0.146,0.12l0.045,0.025l0.121,0.277l-0.677,0.334l-0.369,0.744l-0.47,2.515l-0.182,0.622
		l-0.587,0.946l-0.097,0.037l-0.154,0.645l-0.705,1.397l-0.162,0.679l0.049,0.952l0.138,0.736l0.219,0.626l0.276,0.616v0.352
		l-0.381,0.95l0.409,0.846l0.656,0.777l0.438,0.91l0.466,0.448l0.142,0.31l-0.004,0.418l-0.13,0.239l-0.134,0.163l-0.069,0.179
		l-0.041,0.705l-0.454,1.983l-0.592,1.581l0.86,1.58l-0.827,3.975l0.373,0.422l-1.297,0.195l-0.405,0.19l-0.162,0.319l-0.154,0.523
		l-0.219,0.482l-0.648,0.399l-0.304,0.818l-0.413,0.186l-0.377,0.048l-0.689,0.227l-0.49,0.076l0.101,0.227l0.008,0.055l0.049,0.021
		l0.211,0.117l-0.373,0.853l-0.51,1.705l-0.482,0.52h-0.34l-0.158-0.298l-0.413-0.142l-0.328-0.257l-0.344,0.341l-0.336,1.249
		l-0.458,0.641l0.409,0.694l-0.628,0.605l-0.976,0.426l-0.669,0.163l-0.462-0.039l-0.134,0.025l0.199,0.884l0.154,0.334l1.799,0.018
		v0.348h-0.373v0.385l0.259,0.231l0.17,0.259l0.251,0.661l-0.486-0.247l-0.195-0.135l0.069,0.21v0.103l0.061,0.044l0.243,0.025
		v0.419h-0.373l-0.243-0.494l-0.867-1.172l-0.948-0.998l-0.425-0.35l-0.506-0.259l-0.746-0.252l-4.797-0.531l-1.195-0.779
		l-3.33-4.062l-0.255-0.186l-0.43,0.041l-2.84-2.62l-0.636-0.342l-0.652-0.041l-0.571,0.445l-0.689-1.504l-0.332,0.349l-0.45-0.546
		l-1.73-1.477l-0.409-0.2l-0.134-0.083l-0.186-0.25l-0.178-0.482l-0.158-0.232l-0.344-0.273l-0.381-0.161l-0.786-0.179l0.028-1.411
		l-2.386-1.481l-0.024-0.996l-0.701-0.616l-0.851-1.158l-0.587-1.222l0.101-0.823l-0.239-0.179l-0.203-0.113l-0.162-0.172
		l-0.105-0.345h-0.312v0.423h-0.369l-0.154-0.278l-0.438-0.508l-0.089-0.179l-0.737-2.758l-0.267-0.414l-0.357,0.246l-0.385-0.761
		l-1.171-1.753l-0.482-0.925l-6.511-3.919l-0.32-0.594l-0.215-0.076l-1.146-2.049l-0.96-0.894l-0.592-0.684l0.008-0.318
		l-3.184-2.367l-0.519-0.549l-0.223-0.424l-0.158-0.463l-0.413-0.705l-0.547-0.643l-0.579-0.298l0.312-0.422v0.422h0.365
		l-0.34-1.866l-0.839-0.138l-0.421,0.759l0.924,0.823l-0.835-0.284l-0.535-0.727l-0.276-1.045l-0.207-2.277l-0.32-0.965
		l-0.883-1.708l0.494-1.129l0.648-2.612l0.523-1.296l-0.62-0.756l-0.284-0.448l-0.267-1.142l-0.361-0.275l-0.438-0.166l-0.385-0.317
		l-0.32-1.05l-0.158-2.526l-0.203-0.729v-0.349l0.434-0.532l0.077-0.491l-0.199-1.31l-0.101-0.301l-0.194-0.82l-0.089-0.852
		l0.235-0.394l0.365-0.375l-0.357-0.769l-0.575-0.628l-0.304,0.042l-0.101-0.614l-0.3-0.431l-0.425-0.165l-0.498,0.183l-0.519-0.667
		l-1.345-0.732l-0.519-0.508l-0.62-1.432l-0.093-0.336l-0.154-0.311l-0.725-0.58l-0.17-0.276l-0.15-0.097l-0.835-1.282l-0.154-0.107
		l-0.413-0.19l-0.146-0.09l-0.081-0.167l-0.13-0.462l-0.097-0.153l-2.245-2.337l-0.786-0.258l-1.11-0.622l-1.053-0.771l-0.648-0.687
		l-0.272-0.901l-0.231-1.177l-0.357-1.024l-0.652-0.439l-0.462-0.184l-0.328-0.451l-1.009-2.447l-0.085-0.04l0.182-2.129
		l-0.19-0.972l-1.341-0.651l-2.427-1.745h0.381l-0.19-0.41l-0.215-0.207l-0.267-0.091l-0.356-0.074l0.122-0.128l0.134-0.114
		l0.085-0.195l-0.032-0.375h-0.308l-0.235,0.489l-0.117,0.447l0.073,0.377l0.28,0.281h-0.673l0.373-2.104l0.081-2.677l-0.583-2.343
		l-1.572-1.113v-0.357l0.3-0.687l-0.041-0.809l-0.178-0.846l-0.081-0.821l0.122-0.844l0.429-1.171l0.097-0.546l-0.036-0.963
		l-0.121-0.618l-0.194-0.471l-0.296-0.513l-1.215-1.507l-0.17-0.644L492.5,138.1l0.008-0.006l10.1-7.097l13.712-0.658l31.765,5.636
		l12.748,6.873l10.103,3.827l5.773,3.11l6.218,2.269L603.706,155.314z M588.752,242.423l0.004,0.005l0.802,0.702l0.952,0.835v0.42
		l-1.904,0.137l-1.742-0.099l-1.45-0.605l-0.993-1.28l-0.089-0.115l0.073-0.766l-0.17-1.099l-0.243-0.441l0.174-0.268l0.069-0.055
		l0.004,0.007l0.093,0.317l0.004-0.009l0.178-0.429l0.243-0.344l0.292-0.239l0.328-0.135l0.004,0.002l0.867,0.466l0.284,0.289
		l0.182,0.399l-1.292,0.264l-0.567,0.289l-0.182,0.601l0.235,0.248l0.199,0.209l0.843,0.09l1.45-0.241l0.628-0.223l0.109,0.11
		l0.105,0.002l0.235,0.372l0.219,0.427L588.752,242.423z M596.058,242.31l0.014,2.152l-1.367,0.596l-1.178-0.383l-0.959-0.848
		l0.995-1.605L596.058,242.31z"/>
	<path class="st0" d="M472.827,51.462l2.184,0.429l0.665,0.51h0.312l0.563,0.073l0.121,0.974l0.519,0.746l0.741,0.49l1.531,0.405
		l0.571,0.547l0.936,1.208l2.115,2.055l0.924,0.708l1.41,2.44l1.309,1.181l1.487,0.934l1.692,0.525l-0.007,0.065l0.126,5.034
		l-14.479-8.428l-1.057,0.29l-0.093-3.213l-0.039-0.065l0.122,0.031l0.247-1.731l0.016-0.815l-0.263-0.995l-0.839-1.071
		l-0.121-0.507l0.62-0.45l-0.75-0.429l-0.57-0.208v-0.01v-0.314L472.827,51.462z"/>
	<path class="st0" d="M472.82,52.195l-0.483-0.176l-1.017-0.164l-0.608,0.22l-0.353-0.979l0.62,0.076l0.656,0.052l1.191,0.237
		l-0.007,0.409v0.314V52.195z M449.843,52.109l0.073-0.033l-0.097-0.102l-0.065-0.026l-0.065-0.057l-0.081-0.213l0.705,0.299
		l0.34,0.074l0.466,0.026l0.401,0.242l0.081,0.538l0.004,0.531l0.19,0.242l0.559,0.154l0.778,0.384l0.745,0.528l0.486,0.564
		l0.381-0.95l0.259-0.391l0.381-0.289l-0.207,0.54l-0.073,0.365l0.069,0.318l0.211,0.407h-0.681v0.398h0.681l-0.162,0.128
		l-0.142,0.09l-0.085,0.182l0.049,0.391l0.235-0.038l0.138-0.104l0.113-0.142l0.186-0.149l0.065,0.097l-0.016,0.144l0.057,0.13
		l0.235,0.062v-0.433h0.34l-0.247,0.824l0.239,0.552l0.413-0.033l0.275-0.909l0.579-0.081l0.778-0.829l0.948-0.668l1.13,0.389
		h-0.713v0.398l0.713,0.358l0.134-0.242l0.312-0.249l0.227-0.265l0.713,0.398v0.358l-0.207,0.258l-0.085,0.194l-0.081,0.777
		l0.555-0.256l0.158-0.142l-0.081,0.49l-0.097,0.327l-0.178,0.215l-0.356,0.161v0.362l0.336,0.497l0.024,0.627l-1.033,0.895v0.398
		l0.535,0.024l0.413-0.118l0.292-0.265l0.146-0.435h0.308l0.065,0.615l0.044,0.139l-1.518,1.005l-0.494,0.224l-0.124,0.009
		l-0.88-0.032l-0.231,0.028l-0.196,0.063l-1.528,1.22l-0.108,0.05l-0.108,0.032l-0.594,0.056l-2.333,0.556l-0.705,0.066
		l-0.108,0.027l-0.34,0.152l-0.224,0.069l-0.116,0.003l-0.116-0.012l-0.208-0.051l-0.378-0.161l-0.108-0.025l-0.124-0.005
		l-0.224,0.035l-0.432,0.225l-0.093,0.032l-0.381,0.012l-0.232,0.033l-0.201,0.063l-0.108,0.018h-0.247l-0.34-0.068l-0.247-0.013
		l-0.239,0.021l-0.1,0.027l-0.255,0.32l-1.832,3.457l-2.611,3.119l-0.471,0.975l-0.247,0.681l-0.324,0.583l-0.641,0.477
		l-0.381,0.184l-0.548,0.144l-0.44,0.184l-0.378,0.412l-0.023,0.671l0.177,0.916l-0.054,0.512l-0.293,0.521l-1.531,1.314
		l-0.494,0.647l-0.787,0.469l-0.633,0.085l-1.662-0.211l-0.471,0.157l-0.772,0.121l-0.489-0.021l-0.471-0.091l-2.426,0.049
		l-0.965,0.217l-0.803,0.298l-0.486,0.386l-0.412,0.493l-0.309,0.651l-0.147,0.805l-0.031,1.176l0.44,2.002l0.226,1.632l0.316,1.038
		l0.116,0.547l0.054,1.121l-0.232,1.164l-1.152,1.319l-1.088-0.321l-0.424,0.305l-0.651,0.184l-0.679,0.031l-0.633-0.489
		l-1.461-0.556l0.759-2.646l0.072-1.557l-0.586-2.664l-0.167-1.565l-0.108-0.431l-0.232-0.12l-0.232-0.036l-0.108-0.187l-0.34-1.419
		l-0.193-2.439l-0.476-0.515l-0.242-0.409l-0.131-0.41l0.25-0.247l1.132-0.333l0.337-0.202l0.208-0.021l0.108-0.163l0.026-0.622
		l-0.111-0.226l-0.275-0.298l-0.332-0.285l-0.301-0.198l0.378-0.066l0.208-0.099l0.17-0.117l0.262-0.115l-0.671-0.616l0.175-0.459
		l0.507-0.417l0.332-0.489l-0.046-0.732l-0.234-0.456l-0.177-0.457l0.116-0.732l0.412-0.591l0.535-0.162l0.581-0.082l0.543-0.354
		l0.121-0.257l0.319-1.649l-0.085-0.437l0.07-0.3l-0.193-0.143l-0.262-0.04l-0.455,0.21l-0.486,0.086l-0.509,0.147l-0.424,0.252
		l-0.551,0.182l-0.139-0.031l-0.463-0.195l-0.309-0.081l-0.286-0.135l-0.255-0.33l0.062-0.461l0.471-1.538l0.355-2.752l0.062-0.113
		l0.131,0.081l0.093,0.092l0.324,0.111l0.828-0.454l0.401-0.324l0.563-0.298l0.448-0.008l0.301-0.144l-0.17-0.54l-0.841-0.798
		l-0.286-0.476l-0.054-0.528l0.479-1.31l0.17-0.959l-0.054-1.68l-0.162-0.987l-0.054-1.01l0.162-2.586l-0.039-1.822l-0.448-3.52
		l-0.154-0.565l-0.216-0.526l-0.697-0.804l-0.216-0.308l-0.131-0.479l0.046-0.499l0.108-0.511l0.178-0.342l1.253-1.021l3.63-1.962
		l0.005-0.004l1.428,0.652l2.042,1.597l5.182,2.423l1.649,0.368l0.737-0.024l-0.019,0.097l-0.162,0.541l-0.131,0.333l-0.247,0.41
		l-0.347,0.381l-1.708,1.276l-0.864,1.01l-0.124,0.222l0.054,0.325l0.409,0.292l2.249,0.354l0.293,0.149l0.139,0.378l-0.085,0.402
		l0.031,0.408l0.147,0.298l0.332,0.158l0.371-0.099l0.37,0.068l0.628,0.528l0.355,0.185l0.332,0.027l0.232,0.229l0.347,0.741
		l0.17,0.101l0.332,0.114l0.494-0.235l0.316-0.292l0.124-0.34l-0.015-0.232l-0.154-0.542l0.01-0.185l0.082-0.235l0.967-0.397
		l0.262-0.039l0.309,0.005l0.208,0.443l0.077,0.405l0.136,0.479l-0.19,0.25v0.434l0.322,0.455l-0.167,0.263l-0.417-0.005
		l-0.417-0.352h-0.34l-0.116,0.176l-0.09,0.206l-0.134,0.45l0.926,0.465l-0.085,0.667l-0.71,0.596l-0.967,0.26l-0.844,0.063
		l-0.013,0.236l0.286,0.486l0.046,0.805l-0.918,1.244l-0.839,0.275l0.113,0.711l0.201,0.535l0.347,0.271l0.61-0.05l2.781-2.388
		l1.304-0.701l2.218-0.559l1.531-1.031L449.843,52.109z M464.72,46.982l0.523,0.244l1.24,1.404l0.304,0.228l0.717,0.332l1.981,1.574
		l0.502,0.332l-1.523-0.33l-4.923-3.104l0.28,0.029l0.219-0.029l0.134,0.071l0.389,0.327l-0.122-0.425l-0.231-0.256l-0.029-0.01
		l0.008-0.005l0.18-0.109L464.72,46.982z"/>
	<path class="st0" d="M467.113,63.185l-0.173-0.347l0.794-0.028l0.255,0.028v-0.433l-0.223-0.057l-0.045-0.045l0.012-0.085
		l-0.073-0.151L467.734,62l0.596-0.388l0.028,0.353l0.142,0.071l0.223-0.026l0.288,0.038l-0.195-0.634L469.205,61l0.547-0.05
		l0.543,0.965l0.636,0.232l0.778,0.019l0.701-0.118l1.195-0.696l0.559-1.027l-0.146-1.072l-0.899-0.852l1.195-0.043l0.044,0.012
		l0.039,0.065l0.093,3.213l-1.272,0.628l-1.79,0.413l-4.301,0.493L467.113,63.185z M462.658,60.777l0.109,0.336l0.3,0.327
		l0.474,0.173v0.435l-0.506,0.132l-0.365,0.225l-0.247,0.343l-0.182,0.487l0.251,0.114l0.397,0.284l0.478-0.308l0.446-0.083
		l0.409,0.114l0.34,0.277v0.362h-0.34v0.433l0.498,0.433l0.632,0.3l0.664,0.026l0.612-0.4v-0.36l-0.729-0.019l-0.498-0.378
		l-0.308-0.577l-0.162-0.615l0.745,0.161l1.005,0.513l0.47,0.085l0.03,0.348l0.836,1.125l0.733,0.442l0.872,0.661l0.463,1.767
		l0.015,0.681l-0.069,0.72l-0.301,0.921l-1.474,1.854l-0.705,2.173l-0.695,1.186l-0.309,1.024l-0.625,1.432l-0.038,2.238
		l0.641,3.053l-0.517,1.508l-1.044,2.245l-3.314,4.369l-1.536,1.59l-1.353,0.849l-1.451,0.049l-1.276,0.185l-0.756,0.267
		l-1.335,0.17l-2.164,0.013l-0.162-0.031l-2.279-0.703l-0.17,0.028l-0.1-0.009l-0.309-0.085l-0.224-0.031l-0.131,0.084l-0.111,0.202
		l-0.015,0.599l0.234,0.612l0.556,0.718l0.563,0.463l0.486,0.661l0.463,1.452l0.185,2.097l1.477,5.996l-12.408,8.565l-10.365-5.187
		l-0.486-0.48l-0.412-0.542l-0.424-1.177l-0.448-0.923l-0.37-1.42l-0.479-0.75L426.354,104l-0.466-0.456l-0.363-0.528l-0.486-1.032
		l-0.849-0.697l-0.355-0.421l0.085-1.595l0.633-2.036l0.077-0.99l0.278-0.651l0.556-0.733l1.276-0.895l1.096-1.004l1.152-1.319
		l0.232-1.164l-0.054-1.121l-0.116-0.547l-0.316-1.038l-0.226-1.632l-0.44-2.002l0.031-1.176l0.147-0.805l0.309-0.651l0.412-0.493
		l0.486-0.386l0.803-0.298l0.965-0.217l2.426-0.049l0.471,0.091l0.489,0.021l0.772-0.121l0.471-0.157l1.662,0.211l0.633-0.085
		l0.787-0.469l0.494-0.647l1.531-1.314l0.293-0.521l0.054-0.512l-0.177-0.916l0.023-0.671l0.378-0.412l0.44-0.184l0.548-0.144
		l0.381-0.184l0.641-0.477l0.324-0.583l0.247-0.681l0.471-0.975l2.611-3.119l1.832-3.457l0.255-0.32l0.1-0.027l0.239-0.021
		l0.247,0.013l0.34,0.068h0.247l0.108-0.018l0.201-0.063l0.232-0.033l0.381-0.012l0.093-0.032l0.432-0.225l0.224-0.035l0.124,0.005
		l0.108,0.025l0.378,0.161l0.208,0.051l0.116,0.012l0.116-0.003l0.224-0.069l0.34-0.152l0.108-0.027l0.705-0.066l2.333-0.556
		l0.594-0.056l0.108-0.032l0.108-0.05l1.528-1.22l0.196-0.063l0.231-0.028l0.88,0.032l0.124-0.009l0.494-0.224L462.658,60.777z"/>
	<path class="st0" d="M467.15,63.597l0.187,0.035l-0.224-0.448l0.013-0.003l4.301-0.493l1.79-0.413l1.272-0.628l1.057-0.29
		l14.479,8.428l2.038,20.103l0.108,5.14l0.162,1.186l0.177,0.773l0.1,0.227v0.009l4.566,7.34l2.634,6.854l-9.455-0.669l-1.562,0.137
		l-1.6,0.478l-0.386,0.219l-1.968,1.854l-0.219,0.135l-1.459,0.682l-0.255,0.061l-0.625-0.007l-2.573-0.395l-0.883-0.265
		l-0.695-0.29l-1.451-0.965l-4.304-0.337l-17.937,0.611l-2.202-6.149l-1.477-5.996l-0.185-2.097l-0.463-1.452l-0.486-0.661
		l-0.563-0.463l-0.556-0.718l-0.234-0.612l0.015-0.599l0.111-0.202l0.131-0.084l0.224,0.031l0.309,0.085l0.1,0.009l0.17-0.028
		l2.279,0.703l0.162,0.031l2.164-0.013l1.335-0.17l0.756-0.267l1.276-0.185l1.451-0.049l1.353-0.849l1.536-1.59l3.314-4.369
		l1.044-2.245l0.517-1.508l-0.641-3.053l0.038-2.238l0.625-1.432l0.309-1.024l0.695-1.186l0.705-2.173l1.474-1.854l0.301-0.921
		l0.069-0.72l-0.015-0.681l-0.463-1.767l-0.872-0.661l-0.733-0.442l-0.836-1.125L467.15,63.597z"/>
	<path class="st0" d="M464.18,47.37l-0.319-0.111l-1.021-0.114l-0.227-0.209l-0.13-0.266l-0.243-0.242l-1.325-0.721l-0.535-0.456
		l-0.207,0.021h-0.373l-0.15-0.79l-0.312-0.691l-0.405-0.556l-0.462-0.387h0.648l0.608-0.076l-2.508-3.142l-0.535-0.941
		l-0.717-0.948l-0.567-0.328l-0.016,0.25l-0.835-0.392l-0.324,0.207l-0.203,0.585l-0.681-0.399l-0.012,0.188l0.036,0.397
		l-0.024,0.178l-0.178-0.121l-0.344-0.126l-0.19-0.117l0.02,0.459l-0.093,0.326l-0.235,0.413h1.021l-0.275,0.648l0.762,1.375
		l-0.146,0.8h0.34v0.366h-0.34l0.109,0.259l0.158,0.278l0.073,0.292h-0.34l-0.17-0.712l-0.328-0.539l-0.506-0.323l-0.697-0.052
		l0.186-0.437l-0.198-0.057l-0.361,0.389l-0.308,0.902l0.308,0.045l0.166-0.071l0.207-0.34l0.353,0.28l0.28,0.109l0.389-0.024v0.399
		h-0.373v0.43l0.194,0.349l0.288,0.242l0.389,0.143l0.523,0.028l-0.352,0.366l-0.506,0.128l-0.494-0.119l-0.348-0.375h-0.34
		l0.032,0.306l-0.093,0.069l-0.15-0.009l-0.162,0.069l0.227,0.168l0.178,0.19l0.308,0.439l-0.697,0.885l-0.142,0.667l0.45,0.377
		l1.07,0.024v0.436l-0.664-0.128l-0.543-0.218l-0.454-0.043l-0.413,0.389h-0.308l-0.332-0.353l-0.332,0.031l-0.247,0.346
		l-0.101,0.591l0.202,0.292l0.349,0.209l0.073,0.209l-0.624,0.27v0.358l0.284,0.555l-0.349,0.206l-0.567,0.142l-0.421,0.363
		l-0.105,0.823l0.312,0.512l0.547,0.145l0.535-0.251l-0.761,1.844l-1.531,1.031l-2.218,0.559l-1.304,0.701l-2.781,2.388l-0.61,0.05
		l-0.347-0.271l-0.201-0.535l-0.113-0.711l0.839-0.275l0.918-1.244l-0.046-0.805l-0.286-0.486l0.013-0.236l0.844-0.063l0.967-0.26
		l0.71-0.596l0.085-0.667l-0.926-0.465l0.134-0.45l0.09-0.206l0.116-0.176h0.34l0.417,0.352l0.417,0.005l0.167-0.263l-0.322-0.455
		v-0.434l0.19-0.25l-0.136-0.479l-0.077-0.405l-0.208-0.443l-0.309-0.005l-0.262,0.039l-0.967,0.397l-0.082,0.235l-0.01,0.185
		l0.154,0.542l0.015,0.232l-0.124,0.34l-0.316,0.292l-0.494,0.235l-0.332-0.114l-0.17-0.101l-0.347-0.741l-0.232-0.229l-0.332-0.027
		l-0.355-0.185l-0.628-0.528l-0.37-0.068l-0.371,0.099l-0.332-0.158l-0.147-0.298l-0.031-0.408l0.085-0.402l-0.139-0.378
		l-0.293-0.149l-2.249-0.354l-0.409-0.292l-0.054-0.325l0.124-0.222l0.864-1.01l1.708-1.276l0.347-0.381l0.247-0.41l0.131-0.333
		l0.162-0.541l0.019-0.097l1.285-0.043l7.512-2.166l4.461-2.554l1.815-0.599l1.92,0.04l1.588,0.815l0.713,1.554l0.251,0.696
		l1.572,2.14l0.66,1.667l0.79,0.999l1.596,1.452l0.527,0.237l1.215,0.273l0.089,0.043l-0.351,0.275l-0.18,0.109L464.18,47.37z"/>
	<path class="st0" d="M380.31,42.438l-1.376-1.052l-0.741-1.722l0.32-1.029l1.815,1.026l1.345,1.024l1.531,0.636l1.799,0.204
		l2.155-0.271l7.005-1.886l14.804-5.291v0.4l-0.754,0.107l-4.598,1.74l-3.849,2.217l-2.638,1.262l-2.127,1.451l-0.28,0.131
		l-0.681,0.114l-0.401,0.154l-1.888,1.325l-0.867,0.301l-1.977,0.15l-0.429,0.252l-0.223,0.005l-0.758,1.154v0.434l1.025,0.278
		l0.352,0.007l0.316-0.285h0.34l0.754,0.444l1.398-0.076l1.349-0.418l0.608-0.565l0.45-0.938l0.997,0.273l1.041,0.864l0.575,0.814
		h0.34l0.316-1.013l0.77-1.021l0.92-0.807l0.741-0.38l0.446-0.183l0.551,0.256l0.648,0.43l0.737,0.325l0.47-0.059l0.64-0.185
		l0.697-0.069l0.6,0.313l-0.154,0.059l-0.138-0.002l-0.073,0.069l0.024,0.275l0.673,0.185l0.847-0.275l0.847-0.539l0.66-0.601
		l-0.122-0.062l-0.121,0.01l-0.077-0.052l0.016-0.261l0.17-0.124l0.024-0.052l0.008-0.069l0.101-0.188l1.706,0.755l0.336,0.442
		l0.462-0.394l0.344-0.458l0.555-1.18l-0.292-0.485l0.174-0.385l0.798-0.687l0.146-0.354l-0.053-0.299l-0.016-0.271l0.292-0.273
		l0.288-0.069l1.811,0.138l0.47,0.181l0.831,0.549l0.134,0.221l-0.016,0.271l0.089,0.228l0.474,0.078l0.401-0.114l0.304-0.273
		l0.199-0.39l-0.904-0.456l0.32-0.219l0.3-0.109l0.34,0.052l-0.96-1.328l-2.006-1.498l-2.37-1.03l-2.249-0.076l0.474-0.271
		l1.236-0.466l4.234-0.642l1.556,0.174l4.594,1.463l6.42,2.935l-0.005,0.004l-3.63,1.962l-1.253,1.021l-0.178,0.342l-0.108,0.511
		l-0.046,0.499l0.131,0.479l0.216,0.308l0.697,0.804l0.216,0.526l0.154,0.565l0.448,3.52l0.039,1.822l-0.162,2.586l0.054,1.01
		l0.162,0.987l0.054,1.68l-0.17,0.959l-0.479,1.31l0.054,0.528l0.286,0.476l0.841,0.798l0.17,0.54l-0.301,0.144l-0.448,0.008
		l-0.563,0.298l-0.401,0.324l-0.828,0.454l-1.019-0.977l-0.301-0.183l-0.479-0.141l-0.533-0.05l-0.574,0.038l-0.571,0.275
		l-1.065,0.996l-0.527,0.018l-1.111-0.502l-2.665-0.135l-0.401,0.517l-0.077,0.539v0.595l0.085,0.954l-0.039,0.333l-0.154,0.467
		l-0.216,0.515l-0.286,1.133l-0.44,0.5l-0.813,0.386l-3.584,0.221l-0.44,0.135l-0.486,0.315l-0.558,0.273l-0.19,0.149l-0.049,0.094
		l0.08,0.212l-0.134,0.102l-0.378,0.177l-0.787-0.09l-0.726,0.072l-0.859,0.351l-0.587,0.111l-2.935-1.074l-0.131-0.084
		l-0.363-0.117l-0.363,0.071l-0.461,1.14l-0.509-0.867l-0.849-0.848l-0.43-0.338l-0.136-0.495l0.157-0.862l-0.021-0.59l-0.224-0.569
		l-0.684-0.951l-0.142-0.266l-0.363-0.521l-2.357-1.302l-2.292-3.394l-0.394-0.421l-0.545-0.192l-0.293-0.17l-0.551-0.77
		l-0.376-0.217l-0.378,0.032l-0.198,0.161l-0.157,0.164l-0.255,0.041l-0.013,0.027l-0.852-0.027l0.005-0.335l-0.301-1.581
		l-0.232-0.504h-0.34v0.433h-0.309l-0.116-0.178l-0.015-0.071l-0.039-0.054l-0.201-0.131v-0.361l0.569-0.599l0.44-0.92l0.28-1.114
		l0.1-1.183l-0.054-0.607l-0.147-0.464l-0.224-0.366l-0.286-0.318l-0.195-0.154l-0.422-0.258l-0.216-0.221l-0.394-0.224
		l-0.283,0.251l-0.162,0.393l-0.028,0.212l-0.448-0.182l-0.327-0.292l-0.206-0.416l-0.069-0.557l-0.208-0.606l-0.455-0.261
		l-0.455-0.119l-0.208-0.19l0.031-1.447l-0.093-1.134l-0.476-0.696l-0.823-0.145L380.31,42.438z"/>
	<path class="st0" d="M365.386,51.704l1.868,0.571l1.823,0.199l-0.409,0.258l-0.563,0.649l-0.417,0.246l-0.032,0.294l0.073,0.085
		l0.154,0.002l0.174,0.054l-0.596,0.4l0.178,0.452l0.543,0.426l0.527,0.313l2.07-1.232l-0.255,0.666l0.275,0.327l0.43,0.088
		l0.231-0.047l0.195-0.389l1.503-1.44l0.138,0.28l0.036,0.024l0.166,0.133l0.121-0.336l0.105-0.194l0.089-0.237l0.053-0.464h0.312
		l-0.024,0.626l0.101,0.474l0.239,0.32l0.365,0.173l0.199-0.386l0.51-1.564l-0.766-0.396l-0.705,0.171l-0.737,0.374l-0.883,0.209
		v-0.358l0.154-0.028l0.365,0.05l0.162-0.021v-0.398l-0.802,0.249l-2.937,0.149v-0.398l1.847-0.476l1.75-0.989l3.043-2.749
		l1.078-1.775l0.693-2.352l0.199-2.443l-0.421-2.031h0.34l0.247,1.119l0.442,1.092l0.689,0.784l1.005,0.195l-0.018-0.014
		l0.025,0.004l0.823,0.145l0.476,0.696l0.093,1.134l-0.031,1.447l0.208,0.19l0.455,0.119l0.455,0.261l0.208,0.606l0.069,0.557
		l0.206,0.416l0.327,0.292l0.448,0.182l0.028-0.212l0.162-0.393l0.283-0.251l0.394,0.224l0.216,0.221l0.422,0.258l0.195,0.154
		l0.286,0.318l0.224,0.366l0.147,0.464l0.054,0.607l-0.1,1.183l-0.28,1.114l-0.44,0.92l-0.569,0.599v0.361l0.201,0.131l0.039,0.054
		l0.015,0.071l0.116,0.178h0.309v-0.433h0.34l0.232,0.504l0.301,1.581l-0.005,0.335l0.852,0.027l0.013-0.027l0.255-0.041
		l0.157-0.164l0.198-0.161l0.378-0.032l0.376,0.217l0.551,0.77l0.293,0.17l0.545,0.192l0.394,0.421l2.292,3.394l2.357,1.302
		l0.363,0.521l0.142,0.266l0.684,0.951l0.224,0.569l0.021,0.59l-0.157,0.862l0.136,0.495l0.43,0.338l0.849,0.848l0.509,0.867
		l-0.597,0.398l0.103,0.334l1.184,1.843l0.242,0.957l-0.437,0.757l-0.666,0.774l-0.152,0.604l1.101,0.243l0.533,0.231l0.193,0.552
		l-0.039,0.667l-0.162,0.566l-0.232,0.342l-1.158,0.811l1.533-0.321l0.705-0.04l0.481,0.361l-0.075,0.545l-0.622,0.317l-1.312,0.36
		l-0.291,0.316l-0.486,0.672l-0.363,0.782l0.09,0.641l0.671,0.255l0.672-0.219l0.517,0.013l0.208,0.938l-0.262,0.214l-0.502,0.762
		l-0.34,0.819l0.239,0.382l0.455,0.251l0.262,0.633l0.121,0.832l0.111,2.463l0.316,1.401l0.623,1.03l1.016,0.502v0.43l-0.563,0.241
		l-0.247,0.39l-0.013,0.469l0.144,0.479l0.262,0.303l0.324-0.015l0.371-0.072l0.401,0.143l-0.046,0.838l-0.247,0.759l-0.355,0.661
		l-0.371,0.539l0.677,1.3l0.247,0.655l0.095,0.609l-0.116,0.585l-0.224,0.752l-0.139,0.831l0.139,0.825l1.43,0.998l0.316,0.646
		l-2.303,0.647l-0.332,0.792l0.324,0.817l-23.105,20.901l-2.009,4.169l-32.701-20.353l-2.333-4.907l2.966-7.221l2.202-2.345
		l8.15-3.85l1.793-1.245l1.613-1.749l1.237-1.9l1.343-2.565l-0.679-2.161l-0.71-1.443l-2.302-2.803l-3.19-5.232l-0.363-1.022
		l-0.147-1.33l0.718-1.396l0.911-1.056l0.612-1.019l0.031-0.329l-0.45-1.538l-0.988-0.596l-0.316-0.581l-0.201-0.29l-0.046-0.203
		l-0.062-0.186l-0.062-0.467l0.023-0.233l0.062-0.204l0.07-0.089l0.247-0.21l2.835-1.275l3.383-2.014l0.563-0.46l1.346-1.896
		l2.874-5.658L365.386,51.704z"/>
	<path class="st0" d="M340.473,67.709l0.284-0.147l0.361-0.574l0.381-0.428l7.333-5.364l0.774-1.534l1.386,0.327l1.446-0.686
		l2.301-2.06l-0.446-0.661l-0.19,0.043l-0.413,0.22l0.28-0.59l0.389-0.412l0.389-0.012l0.304,0.616h0.365l0.571-0.635l2.318-2.094
		l0.685-0.45l0.656-0.317l0.993-1.389l0.405-0.318l0.689-0.135l0.393-0.32l0.328-0.394l0.474-0.346l-0.158-0.064h-0.134
		l-0.077-0.078l0.028-0.292l1.361-0.757l-0.146,1.667l1.406,1.124l0.178,0.055l-0.115,0.361l-2.874,5.658l-1.346,1.896l-0.563,0.46
		l-3.383,2.014l-2.835,1.275l-0.247,0.21l-0.07,0.089l-0.062,0.204l-0.023,0.233l0.062,0.467l0.062,0.186l0.046,0.203l0.201,0.29
		l0.316,0.581l0.988,0.596l0.45,1.538l-0.031,0.329l-0.612,1.019l-0.911,1.056l-0.718,1.396l0.147,1.33l0.363,1.022l3.19,5.232
		l2.302,2.803l0.71,1.443l0.679,2.161l-1.343,2.565l-1.237,1.9l-1.613,1.749l-1.793,1.245l-8.15,3.85l-2.202,2.345l-2.966,7.221
		l-1.335-38.878V67.709z"/>
	<path class="st0" d="M454.443,112.669l0.062,3.279l1.304,5.613l1.075,11.806l-0.371,5.127l-31.729,1.337l-0.404-0.736l0.347-0.676
		l0.319-1.207l-0.008-2.175l-0.394-2.391l-0.625-2.168l-0.702-1.498l-1.271-1.476l-0.545-0.86l-0.224-1.053l0.818-6.15l3.414-1.291
		l0.17-0.112l0.126-0.116l0.124-0.149l0.098-0.19l0.087-0.241l0.1-0.466l0.062-0.165l0.085-0.098l0.147-0.04l0.193,0.031
		l0.316,0.156l0.193,0.125l0.224,0.031l0.301-0.062l0.587-0.263l0.309-0.21l1.099-0.494l2.457-0.457l7.646-0.345l12.408-8.565
		L454.443,112.669z"/>
	<path class="st0" d="M347.998,196.928l-8.073,21.25l-6.329,8.391l-7.538,5.626l-23.02,12.161l-3.548,2.685l-2.496,3.768
		l-3.561,7.781h-66.136l21.523-46.024l1.369-2.098l2.354-2.601l3.702-1.497l39.475-10.34l10.049-7.604l32.339-32.732l38.734-23.805
		l2.009-4.169l23.105-20.901l0.903,0.435l1.569-1.128l1.335,0.34l0.37,0.216l0.075,0.522l-0.015,0.647l0.095,0.584l0.342,0.806
		l0.147,0.037l0.473,0.177l0.553,0.171l0.587,0.275l0.062,0.143l0.316,0.255l0.154,0.602l0.057,1.291l0.232,0.853l0.617,0.602
		l0.88,0.32l1.019,0.013l0.388-0.164l0.69-0.543l0.437-0.116l0.401,0.13l0.677,0.564l0.594,0.29l1.232,1.018l0.584,0.341
		l0.774,0.446l1.052,1.119l0.648,0.333l1.947,0.228l0.494,0.295l0.291,0.44l0.134,0.547l0.023,0.531l-0.818,6.15l0.224,1.053
		l0.545,0.86l1.271,1.476l0.702,1.498l0.625,2.168l0.394,2.391l0.008,2.175l-0.319,1.207l-0.347,0.676l0.404,0.736l31.729-1.337
		l0.185,2.661l-3.162,43.898l-18.323-5.563l-0.944-0.455l-1.482-0.907l-0.965-0.758l-1.971-2.073l-0.586-0.753l-0.224-0.412
		l-0.689-1.584l-0.355-0.533l-0.332-0.383l-1.05-0.917l-3.64-4.501l0.134-0.658l0.046-0.462l-0.015-0.62l-0.134-0.578l-0.239-0.565
		l-0.471-0.837l-0.34-0.437l-0.424-0.366l-0.448-0.306l-0.743-0.376l-1.482-0.459l-1.281-0.189l-2.241,0.064l-3.553-16.045
		l-1.4-1.426l-2.318-1.816l-10.445,1.307l-10.443,4.809l-9.025,5.377l-3.653,2.94l-23.237,22.639l-2.025,14.365L347.998,196.928z"/>
	<path class="st0" d="M293.434,258.591l3.561-7.781l2.496-3.768l3.548-2.685l23.02-12.161l7.538-5.626l6.329-8.391l8.073-21.25
		l50.754-1.23l0.888,0.958l7.849,2.749l-1.585,13.827l-0.255,1.181l-0.293,0.651l-2.426,4.161l-1.436,3.765l-0.301,1.285
		l-0.116,1.014l0.07,0.612l0.502,2.555l0.216,2.437l0.108,0.648l0.216,0.662l2.688,5.286l0.78,2.254l0.262,1.535l0.412,5.32
		l0.285,1.268l1.15,3.007l0.247,1.092l0.224,1.715l0.039,1.323l-0.039,0.9l-0.895,5.373l-5.315,0.643l-0.525-0.096l-2.912-1.153
		l-0.324-0.004l-0.481,0.045l-1.59,0.353l-0.942,0.017l-1.353-0.585l0.239-0.685l0.587-1.204L293.434,258.591z"/>
	<path class="st0" d="M415.338,160.424l-1.994,2.012l-1.924,3.805l-2.038,2.23l-0.913,1.791l-1.574,2.385l-3.383,3.727l-4.188,2.179
		l-20.733,5.844l-2.357,0.2l-3.316-2.384l-21.652-4.004l23.237-22.639l3.653-2.94l9.025-5.377l10.443-4.809l10.445-1.307
		l2.318,1.816l1.4,1.426L415.338,160.424z"/>
	<path class="st0" d="M351.265,178.208l21.652,4.004l3.316,2.384l2.357-0.2l20.733-5.844l4.188-2.179l3.383-3.727l1.574-2.385
		l0.913-1.791l2.038-2.23l1.924-3.805l1.994-2.012l2.241-0.064l1.281,0.189l1.482,0.459l0.743,0.376l0.448,0.306l0.424,0.366
		l0.34,0.437l0.471,0.837l0.239,0.565l0.134,0.578l0.015,0.62l-0.046,0.462l-0.134,0.658l-0.201,2.407l0.185,2.264l-0.085,0.809
		l-0.363,1.055l-0.563,1.195l-0.88,2.348l-0.625,1.246l-0.69,1.051l-2.218,2.394l-1.405,1.859l-2.874,4.664l-3.344,4.496
		l-1.052,1.96l-0.934,2.62l-0.347,1.676l-0.093,1.15l-7.849-2.749l-0.888-0.958l-50.754,1.23l1.243-4.355L351.265,178.208z"/>
	<path class="st0" d="M417.507,115.948l-0.774-0.446l-0.584-0.341l-1.232-1.018l-0.594-0.29l-0.677-0.564l-0.401-0.13l-0.437,0.116
		l-0.69,0.543l-0.388,0.164l-1.019-0.013l-0.88-0.32l-0.617-0.602l-0.232-0.853l-0.057-1.291l-0.154-0.602l-0.316-0.255
		l-0.062-0.143l-0.587-0.275l-0.553-0.171l-0.473-0.177l-0.147-0.037l-0.342-0.806l-0.095-0.584l0.015-0.647l-0.075-0.522
		l-0.37-0.216l-1.335-0.34l-1.569,1.128l-0.903-0.435l-0.324-0.817l0.332-0.792l2.303-0.647l-0.316-0.646l-1.43-0.998l-0.139-0.825
		l0.139-0.831l0.224-0.752l0.116-0.585l-0.095-0.609l-0.247-0.655l-0.677-1.3l0.371-0.539l0.355-0.661l0.247-0.759l0.046-0.838
		l-0.401-0.143l-0.371,0.072l-0.324,0.015l-0.262-0.303l-0.144-0.479l0.013-0.469l0.247-0.39l0.563-0.241v-0.43l-1.016-0.502
		l-0.623-1.03l-0.316-1.401l-0.111-2.463l0.638-0.395l0.656-0.425l0.509-0.151l2.549-0.31l0.502-0.305l0.563-0.265l0.54-0.174
		l0.589-0.09l0.571,0.057l0.517,0.225l0.81,0.974l0.424,0.174l0.404,0.055l0.471,0.598l0.232,0.069l0.888-0.112l0.432,0.081
		l0.262,0.021l0.378-0.027l0.234-0.072l0.849-0.416l0.147,0.03l0.185,0.171l1.019,1.715l0.154,0.347l0.124,0.191l0.265-0.019
		l0.733-0.145l1.755,0.214l0.61,0.218l0.71,0.386l0.371,0.254l0.324,0.314l0.108,0.411l0.224,0.427l0.412,0.302l1.042,0.959
		l0.386,0.68l1.07,0.693l0.545,0.744l-0.651,0.248l-0.442-0.254l-0.324-0.357l-0.283-0.067l-0.291,0.426l-0.093,0.594l0.1,0.597
		l0.283,0.427v0.36l-1.389,1.182l-0.782,0.333l-0.054,0.063l-0.208,0.148l0.015,0.349l0.067,0.406l-0.059,0.315l-0.401,0.324
		l-0.831,0.154l-0.468,0.276l-0.466,0.591l-0.07,0.485l0.026,0.546l-0.17,0.779l-0.327,0.709l-0.136-0.085l-0.159-0.397
		l-0.396-0.227l-0.455-0.045l-0.044-0.031l0.116,0.201l0.013,0.664l0.054,0.397l0.131,0.339l-0.044,0.355l-0.45,0.45l-0.525,0.252
		l-0.458,0.012l-1.088-0.264l0.545,0.81l1.294,0.955l0.54,0.669l0.018,0.583l-0.172,2.567l0.365,0.401l0.147,0.91l0.013,1.623
		l0.208,0.661l0.939,1.323L417.507,115.948z"/>
	<path class="st0" d="M439.833,115.084l-7.646,0.345l-2.457,0.457l-1.099,0.494l-0.309,0.21l-0.587,0.263l-0.301,0.062l-0.224-0.031
		l-0.193-0.125l-0.316-0.156l-0.193-0.031l-0.147,0.04l-0.085,0.098l-0.062,0.165l-0.1,0.466l-0.087,0.241l-0.098,0.19l-0.124,0.149
		l-0.126,0.116l-0.17,0.112l-3.414,1.291l-0.023-0.531l-0.134-0.547l-0.291-0.44l-0.494-0.295l-1.947-0.228l-0.648-0.333
		l-1.052-1.119l-0.55-0.984l-0.939-1.323l-0.208-0.661l-0.013-1.623l-0.147-0.91l-0.365-0.401l0.172-2.567l-0.018-0.583l-0.54-0.669
		l-1.294-0.955l-0.545-0.81l1.088,0.264l0.458-0.012l0.525-0.252l0.45-0.45l0.044-0.355l-0.131-0.339l-0.054-0.397l-0.013-0.664
		l-0.116-0.201l0.044,0.031l0.455,0.045l0.396,0.227l0.159,0.397l0.136,0.085l0.327-0.709l0.17-0.779l-0.026-0.546l0.07-0.485
		l0.466-0.591l0.468-0.276l0.831-0.154l0.401-0.324l0.059-0.315l-0.067-0.406l-0.015-0.349l0.208-0.148l0.054-0.063l0.782-0.333
		l1.389-1.182v-0.36l-0.283-0.427l-0.1-0.597l0.093-0.594l0.291-0.426l0.283,0.067l0.324,0.357l0.442,0.254l0.651-0.248
		l-0.545-0.744l0.126-1.348l1.461,0.556l0.633,0.489l0.679-0.031l0.651-0.184l0.424-0.305l1.088,0.321l-1.096,1.004l-1.276,0.895
		l-0.556,0.733l-0.278,0.651l-0.077,0.99l-0.633,2.036l-0.085,1.595l0.355,0.421l0.849,0.697l0.486,1.032l0.363,0.528l0.466,0.456
		l0.494,0.605l0.479,0.75l0.37,1.42l0.448,0.923l0.424,1.177l0.412,0.542l0.486,0.48L439.833,115.084z"/>
	<path class="st0" d="M422.773,93.464l-1.07-0.693l-0.386-0.68l-1.042-0.959l-0.412-0.302l-0.224-0.427l-0.108-0.411l-0.324-0.314
		l-0.371-0.254l-0.71-0.386l-0.61-0.218l-1.755-0.214l-0.733,0.145l-0.265,0.019l-0.124-0.191l-0.154-0.347l-1.019-1.715
		l-0.185-0.171l-0.147-0.03l-0.849,0.416l-0.234,0.072l-0.378,0.027l-0.262-0.021l-0.432-0.081l-0.888,0.112l-0.232-0.069
		l-0.471-0.598l-0.404-0.055l-0.424-0.174l-0.81-0.974l-0.517-0.225l-0.571-0.057l-0.589,0.09l-0.54,0.174l-0.563,0.265
		l-0.502,0.305l-2.549,0.31l-0.509,0.151l-0.656,0.425l-0.638,0.395l-0.121-0.832l-0.262-0.633l-0.455-0.251l-0.239-0.382
		l0.34-0.819l0.502-0.762l0.262-0.214l-0.208-0.938l-0.517-0.013l-0.672,0.219l-0.671-0.255l-0.09-0.641l0.363-0.782l0.486-0.672
		l0.291-0.316l1.312-0.36l0.622-0.317l0.075-0.545l-0.481-0.361l-0.705,0.04l-1.533,0.321l1.158-0.811l0.232-0.342l0.162-0.566
		l0.039-0.667l-0.193-0.552l-0.533-0.231l-1.101-0.243l0.152-0.604l0.666-0.774l0.437-0.757l-0.242-0.957l-1.184-1.843l-0.103-0.334
		l0.597-0.398l0.461-1.14l0.363-0.071l0.363,0.117l0.131,0.084l2.935,1.074l0.587-0.111l0.859-0.351l0.726-0.072l0.787,0.09
		l0.378-0.177l0.134-0.102l-0.08-0.212l0.049-0.094l0.19-0.149l0.558-0.273l0.486-0.315l0.44-0.135l3.584-0.221l0.813-0.386
		l0.44-0.5l0.286-1.133l0.216-0.515l0.154-0.467l0.039-0.333l-0.085-0.954v-0.595l0.077-0.539l0.401-0.517l2.665,0.135l1.111,0.502
		l0.527-0.018l1.065-0.996l0.571-0.275l0.574-0.038l0.533,0.05l0.479,0.141l0.301,0.183l1.019,0.977l-0.324-0.111l-0.093-0.092
		l-0.131-0.081l-0.062,0.113l-0.355,2.752l-0.471,1.538l-0.062,0.461l0.255,0.33l0.286,0.135l0.309,0.081l0.463,0.195l0.139,0.031
		l0.551-0.182l0.424-0.252l0.509-0.147l0.486-0.086l0.455-0.21l0.262,0.04l0.193,0.143l-0.07,0.3l0.085,0.437l-0.319,1.649
		l-0.121,0.257l-0.543,0.354l-0.581,0.082l-0.535,0.162l-0.412,0.591l-0.116,0.732l0.177,0.457l0.234,0.456l0.046,0.732
		l-0.332,0.489l-0.507,0.417l-0.175,0.459l0.671,0.616l-0.262,0.115l-0.17,0.117l-0.208,0.099l-0.378,0.066l0.301,0.198l0.332,0.285
		l0.275,0.298l0.111,0.226l-0.026,0.622l-0.108,0.163l-0.208,0.021l-0.337,0.202l-1.132,0.333l-0.25,0.247l0.131,0.41l0.242,0.409
		l0.476,0.515l0.193,2.439l0.34,1.419l0.108,0.187l0.232,0.036l0.232,0.12l0.108,0.431l0.167,1.565l0.586,2.664l-0.072,1.557
		l-0.759,2.646L422.773,93.464z"/>
	<path class="st0" d="M457.68,343.901l-20.828-26.159l-4.734-4.059l-6.915-8.582l4.636-2.516l0.556-0.446l0.471-0.472l0.332-0.457
		l0.332-0.574l0.496-0.684l0.386-0.378l0.309-0.19l0.548-0.017l0.633,0.268l0.867,0.825l0.401,0.486l0.363,0.632l0.787,1.774
		l0.409,0.678l0.489,0.604l0.571,0.476l0.733,0.301l0.571,0.17l1.994-0.246l8.359,5.843l2.194,2.143l0.772,1.854l1.158,1.967
		l1.299,1.794l0.525,1.017l0.27,0.869l0.255,2.476l0.123,0.632l0.759,1.499l1.204,1.856l0.78,1.003l0.695,0.74l0.898,0.632
		l1.304,0.692l1.438,0.556l3.26,0.735l0.633,0.25l0.772,0.52l0.52,0.627l0.448,0.667l1.343,2.53l5.269,6.647l-1.343,1.446
		l-0.525,0.052l-0.674-0.027l-1.181-0.643l-1.073-0.861l-0.99-1.128l-1.467-2.462l-0.628-0.631l-0.602-0.106l-0.533,0.228
		l-0.278,0.244l-1.142,1.454l-0.62,0.396l-0.756,0.241l-2.851,0.364l-0.525,0.268l-0.54,0.355L457.68,343.901z"/>
	<path class="st0" d="M457.68,343.901l1.955-1.829l0.54-0.355l0.525-0.268l2.851-0.364l0.756-0.241l0.62-0.396l1.142-1.454
		l0.278-0.244l0.533-0.228l0.602,0.106l0.628,0.631l1.467,2.462l0.99,1.128l1.073,0.861l1.181,0.643l0.674,0.027l0.525-0.052
		l1.343-1.446l1.538-0.343l10.026-4.843l2.58-0.488l1.454-0.115l3.167,0.198l3.885,1.143l0.96,0.509l1.227,0.869l1.716,1.597
		l1.963,2.66l0.702,1.262l0.525,1.268l0.71,2.583l0.533,4.058l0.062,1.98l-0.085,1.297l-0.255,1.496l-0.463,1.468l-2.542,5.293
		l-0.934,1.287l-1.099,1.247l-4.819,4.353l-3.275,3.66l-0.751,1.094l-0.525,1.094l-0.594,1.833l-0.093,0.795l0.093,2.926
		l0.857,4.131l0.556,1.547l0.636,1.174l0.44,0.569l1.582,1.484l-0.371,1.28l-0.015,2.922l-0.162,0.788l-0.216,0.507l-0.486,0.368
		l-0.417,0.236l-0.867,0.732l-4.726-3.63l-1.037-1.125l-0.471-0.7l-0.463-0.85l-0.749-1.99l-1.33-7.898l-1.698-6.684l-0.077-0.849
		l0.054-1.147l0.131-0.581l0.224-0.564l0.725-1.077l1.461-1.517l6.867-5.438l0.949-1.083l0.365-0.543l0.301-0.559l0.224-0.573
		l0.332-1.226l0.386-2.604l0.185-0.653l0.27-0.641l2.094-3.608l0.486-1.109l0.185-0.567l0.116-0.749v-1.141l-0.185-1.122
		l-0.216-0.58l-0.324-0.587l-0.424-0.548l-0.486-0.463l-0.527-0.374l-0.54-0.238l-0.718-0.132l-0.849-0.037l-2.287,0.265
		l-1.346,0.378l-11.479,5.384l-4.402,1.268l-2.418,0.396l-1.407-0.064l-0.911-0.186l-0.725-0.228l-1.222-0.569l-0.872-0.518
		l-0.502-0.391L457.68,343.901z M492.481,369.18l0.355-0.881l0.49-0.768l0.051-0.45l-0.98-0.488l-1.233,2.361l0.609,0.151
		L492.481,369.18z"/>
	<path class="st0" d="M393.9,260.495l1.353,0.585l0.942-0.017l1.59-0.353l0.481-0.045l0.324,0.004l2.912,1.153l0.525,0.096
		l5.315-0.643l-0.177,4.963l0.077,1.645l0.162,0.766l0.478,1.566l0.316,0.739l0.355,0.633l0.443,0.578l0.486,0.438l4.363,2.533
		l5.053,2.152l3.152,0.987l0.702,0.376l0.774,0.526l1.096,0.991l0.61,0.806l0.448,0.807l0.79,2.267l0.386,0.826l0.37,0.495
		l0.355,0.34l1.142,0.698l2.063,1.741l3.121,3.22l0.705,0.864l1.15,1.944l5.323,11.159l-1.994,0.246l-0.571-0.17l-0.733-0.301
		l-0.571-0.476l-0.489-0.604l-0.409-0.678l-0.787-1.774l-0.363-0.632l-0.401-0.486l-0.867-0.825l-0.633-0.268l-0.548,0.017
		l-0.309,0.19l-0.386,0.378l-0.496,0.684l-0.332,0.574l-0.332,0.457l-0.471,0.472l-0.556,0.446l-4.636,2.516l-6.257-12.67
		l-0.61-0.87l-2.326-2.562l-0.934-0.779l-0.805-0.558l-4.603-1.896l-2.418-1.433l-6.614-6.237l-0.78-0.959l-0.857-1.269
		l-4.613-9.902l-0.533-1.769l-0.154-1.534L393.9,260.495z"/>
	<path class="st0" d="M492.481,369.18l-0.709-0.075l-0.609-0.151l1.233-2.361l0.98,0.488l-0.051,0.45l-0.49,0.768L492.481,369.18z"
		/>
</g>
<g id="Copyright">
	<text transform="matrix(1 0 0 1 681.6426 577.5916)" class="st1 st2">© Vemaps.com</text>
</g>
</svg>
