<?xml version="1.0" encoding="utf-8"?>
<!-- Generator: Adobe Illustrator 23.0.1, SVG Export Plug-In . SVG Version: 6.00 Build 0)  -->
<svg version="1.1" xmlns="http://www.w3.org/2000/svg" xmlns:xlink="http://www.w3.org/1999/xlink" x="0px" y="0px"
	 viewBox="0 0 800 600" style="enable-background:new 0 0 800 600;" xml:space="preserve">
<style type="text/css">
	.st0{fill:#808080;stroke:#FFFFFF;stroke-width:0.5;stroke-linecap:round;stroke-linejoin:round;}
	.st1{font-family:'Roboto-Regular';}
	.st2{font-size:14px;}
</style>
<g id="El_Salvador">
	<path class="st0" d="M35.034,322.492l-4.892-20.407L30,297.134l0.758-5.115l1.626-4.977l2.424-4.546l3.656-3.766l8.385-4.481
		l3.75-3.018l2.834-4.433l2.021-4.58l2.598-4.417l4.524-4.011l29.364-20.627l6.506-6.519l3.261-2.141l13.525-5.169l4.508-0.309
		l5.543,1.449l7.951,6.202l4.485,1.823l4.469-2.409l0.118-1.75l-0.23-0.534l2.552,1.079l5.527,3.508l1.121,0.952l0.521,0.659
		l0.371,0.692l0.655,2.555l0.316,0.757l0.45,0.684l1.105,1.082l1.24,0.96l1.105,1.139l0.024,0.073l0.655,1.229l0.292,0.749
		l-0.9,5.631l-6.119,21.054l-5.424,2.286l-6.711,1.863l-3.719,0.569l-0.845,0.578l-0.655,0.903l-0.308,2.009l-0.071,1.334
		l0.726,5.888l0.505,1.83l0.561,1.431l0.719,1.448l0.276,0.732l-0.182,1.09l-6.222,9.497l-0.568,1.708l-0.166,1.26l2.582,8.179
		l0.324,1.748l-0.418,1.244l-0.908,1.496l-2.321,2.748l-0.892,1.699l-0.49,1.349l-0.174,2.894l-0.253,0.797l-3.916,7.055
		l-0.561,1.52l-1.729,6.997l-1.532,0.618l-2.535,0.333l-9.222-0.528l-1.887-0.398l-0.608-0.431l-2.219-2.121l-4.003-4.624
		l-0.608-0.512l-1.263-0.878l-0.734-0.341l-0.821-0.293l-1.082-0.122h-1.232l-1.753,0.325l-1.019,0.333l-0.908,0.423l-0.742,0.512
		l-0.861,0.731l-2.29,2.739l-4.856,7.663l-0.691,1.165l-20.684-9.467L35.034,322.492z"/>
	<path class="st0" d="M142.079,223.809l-1.973-4.57l-0.3-2.418l0.868-2.572l13.06-23.154l6.119-6.71l7.706-5.937l8.038-3.689
		l32.815-7.884l1.966-1.955l-0.047-4.92l-0.979-1.287l-3.877-1.939l-1.334-1.328l-0.569-2.053l-0.553-4.815l-0.395-1.475
		l-1.777-3.389l-0.884-1.198l-1.769-1.679l-2.108-0.945l-6.388-0.848l-1.887-4.466l1.808-2.648l3.064-2.2l1.934-3.081l-0.884-3.676
		l-2.234-3.122l-1.311-3.562l1.99-4.997l4.335-3.22l4.493,0.375l3.34,3.399l0.884,5.845l4.153-3.008l7.556-9.147l2.104-0.898
		l3.32-1.417l4.848,0.636l3.451,1.826l3.45,1.28l4.809-1.003l6.948-7.199l3.111-1.215l0.403,6.099l1.579-2.422l0.332-0.717
		l8.798,6.465l0.061,0.009l4.71,0.758l11.658,10.908l2.029,2.266l0.379,0.603l1.018,2.38l1.358,2.29l0.679,0.693l1.082,0.856
		l4.54,2.404l0.663,0.538l1.461,1.964l5.598,3.561l-3.94,11.416l-1.192,6.347l-2.692,3.014l-11.378,4.635l-0.047,6.305l0.292,3.486
		l-0.118,1.189l-0.584,1.474l-5.914,8.242l-1.082,1.059l-0.6,0.448l-0.711,0.407l-0.75,0.293l-0.853,0.244l-0.948,0.155
		l-3.142,0.195l-0.805,0.122l-0.829,0.236l-0.734,0.326l-0.592,0.407l-0.616,0.537l-3.569,6.531l-0.726,1.01l-0.6,0.578
		l-0.703,0.399l-0.758,0.285l-5.748-0.383l-5.867,20.231l0.932,6.764l3.395,3.125l4.572,0.879l4.564-0.016l3.593-0.977
		l-3.308,17.423l-0.529,4.549l0.079,0.976l-0.474,6.037l-0.332,0.984l-0.687,0.846l-1.563,0.692l-1.137,0.073l-1.011-0.024
		l-0.845,0.089l-0.648,0.342l-2.44,3.929l-1.003,0.651l-0.853,0.122l-0.766-0.244l-0.821-0.065l-0.734,0.195l-0.648,0.431
		l-0.474,0.602l-0.371,1.757l-0.403,8.435l0.253,5.677l-0.568,6.693l-5.361,14.653l-1.413,8.764l-14.56-2.788l-3.9-1.325l-0.49-0.61
		l-0.418-0.65l-1.848-4.602l-4.058-3.805l-6.459-4.822l-2.953-1.773l-2.077-0.919l-0.829,0.211l-0.592,0.439l-0.529,0.586
		l-0.813,1.342l-0.979,2.212l-0.403,1.732l0.008,2.822l-0.197,0.764l-0.687,0.715l-1.105,0.561l-2.195,0.52l-1.445-0.293
		l-0.987-0.398l-0.671-0.537l-0.521-0.577l-0.379-0.732l-0.355-0.976l-0.726-1.041l-1.398-1.439l-1.903-0.358l-0.987-0.618
		l-0.395-0.675l0.134-0.789l0.355-0.699l0.521-0.61l1.176-0.968l0.474-0.545l0.395-0.707l0.245-0.87l0.071-0.886l-0.332-1.626
		l-1.358-2.212l-1.871-1.732l-0.955-1.065l-0.679-0.911l-0.963-2.245l-0.908-1.253l-4.958-4.856l-1.777-1.31l-1.421-0.691h-0.971
		l-0.924,0.122l-1.674,0.447l-2.74,0.089l-7.114-1.79l6.119-21.054l0.9-5.631l-0.292-0.749l-0.655-1.229l-0.024-0.073l-1.105-1.139
		l-1.24-0.96l-1.105-1.082l-0.45-0.684l-0.316-0.757l-0.655-2.555l-0.371-0.692l-0.521-0.659l-1.121-0.952l-5.527-3.508
		L142.079,223.809z"/>
	<path class="st0" d="M264.864,107.737l11.807,1.9l9.483,4.516l15.586,3.342l7.754,5.51l14.11,4.222l2.898-2.657l4.398-8.526
		l2.424-2.502l2.7-0.75l1.792,0.342l1.5,1.402l1.753,2.372l1.524,2.894l0.663,3.138l-0.268,3.211l-1.2,3.105l3.482,3.007
		l10.422,1.222l4.888,2.453l1.95,3.903l1.216,9.664l1.374,2.827l7.754,5.906l2.819,3.413l2.74,4.651l1.153,3.951l0.172,1.471
		l0.302,2.577l0.995,3.347l2.692,1.955l2.961-0.66l3.624-2.126l4.272-1.849l4.777,0.098l7.564,4.846l6.396,8.095l4.587,9.421
		l2.006,8.891l5.369-0.798l13.399,1.009l3.64-1.425l3.151-1.954l2.669-0.277l2.187,3.59l-0.253,5.332l-1.84,5.185l-0.174,4.436
		l4.793,3.15l6.553,0.879l1.421,0.521l2.203,1.896l1.516,2.116l0.687,2.629l-0.111,1.625l-14.069,2.143l-6.332,3.06l-2.298,3.117
		l-2.084,1.595l-3.64,1.701l-18.792,6.183l-4.611,1.757l-4.161,1.049l-8.006-0.74l-9.017,0.252l-5.038-0.578l-4.722-1.831
		l-5.543,0.456l-6.538-3.116l-1.169-0.732l-1.366-1.261l-1.611-2.4l-0.821-1.725l-0.521-1.44l-0.197-0.781l-0.118-0.797l0.008-0.846
		l0.237-1.343v-0.073l-0.126-0.513l-0.561-0.862l-6.704-7.992l-1.382-2.458l-0.474-0.586l-5.156-3.695l-2.219-1.986l-1.54-0.822
		l-7.88-2.873l-3.829-1.929l-1.066-0.138l-0.932-0.008l-5.401,2.825l-8.441,3.899l-3.474-0.871l-4.303-3.411l-1.934,3.899
		l-4.256-0.049l-6.332-2.776l-2.345,0.806l-3.956,2.865l-1.279,0.635l-2.171-0.309l-2.906-1.343l-0.995-0.301l-4.99-0.725
		l-5.511-3.142l-3.158-0.635l-2.992,2.263l-2.787,1.538l-3.608,0.7l-2.542,0.977l-0.979,2.149l-1.327,2.149l-3.593,0.977
		l-4.564,0.016l-4.572-0.879l-3.395-3.125l-0.932-6.764l5.867-20.231l5.748,0.383l0.758-0.285l0.703-0.399l0.6-0.578l0.726-1.01
		l3.569-6.531l0.616-0.537l0.592-0.407l0.734-0.326l0.829-0.236l0.805-0.122l3.142-0.195l0.948-0.155l0.853-0.244l0.75-0.293
		l0.711-0.407l0.6-0.448l1.082-1.059l5.914-8.242l0.584-1.474l0.118-1.189l-0.292-3.486l0.047-6.305l11.378-4.635l2.692-3.014
		l1.192-6.347l3.94-11.416l-5.598-3.561l-1.461-1.964l-0.663-0.538l-4.54-2.404l-1.082-0.856l-0.679-0.693l-1.358-2.29l-1.018-2.38
		l-0.379-0.603l-2.029-2.266L264.864,107.737z"/>
	<path class="st0" d="M465.143,234.236l-0.039,0.564l1.871-0.724l7.785-1.204l7.785,0.521l23.15,7.422l13.462,1.025l2.961,1.245
		l2.732,2.693l-0.237,0.993l-0.095,0.765l-0.177,0.156l-0.249,0.219l-0.086-0.011l-1.256-0.168l0.335,0.737l1.56,3.437l-0.221,3.669
		l-1.042,3.832l-0.632,4.645l0.853,2.993l3.308,8.264l0.205,5.042l-2.692,4.448l-0.568,0.513l-1.311,1.22l1.887,3.911l-0.434,3.732
		l-2.171,3.138l-3.269,2.114l0.64,4.366l-2.85,4.382l-2.795,5.43l0.016,0.089l-4.959,3.357l-2.89-0.772l-7.706-0.959l-1.121-0.382
		l-0.6-0.528l-0.363-0.683l-0.268-0.756l-0.379-1.707l-0.442-0.723l-0.853-0.447l-2.116-0.577l-0.742-0.325l-2.037-1.219
		l-3.253-1.138l-0.734-0.39l-5.614-4.163l-0.695-0.341l-3.364-0.634l-4.193-0.22l-2.005-0.366l-9.759,0.098l-2.179-0.195
		l-1.445-0.39l-4.398-3.187l-1.011,0.098l-1.098,0.569l-1.532,2.033l-0.995,1.057l-1.066,0.707l-1.808-0.154l-2.187-0.561
		l-2.013,0.545l-9.507,4.228l-2.953,0.943l-2.1,0.35l-3.174-1.065l-1.784-0.415l-1.966-0.081l-0.861,1.171l-0.553,0.951
		l-0.426,9.023l-10.572-2.886l-2.748-1.593l-0.3-0.788l-1.966-3l-2.953-3.171l-1.255-1.683l-0.734-1.382l-0.403-2.049l-0.379-1.195
		l-1.54-2.716l-0.363-1.325l-0.245-1.407l-1.09-2.456l-1.492-1.659l-2.495-1.7l-1.879-2.009l-5.953-8.466l-1.445-2.7l-0.774-2.001
		l0.158-0.944l0.245-0.862l0.3-0.748l0.458-0.667l0.49-0.553l0.632-0.488l4.059-2.367l1.168-0.968l1.026-1.098l0.9-1.358
		l0.363-0.708l4.501-7.143l9.017-0.252l8.006,0.74l4.161-1.049l4.611-1.757l18.792-6.183l3.64-1.701l2.084-1.595l2.298-3.117
		l6.332-3.06L465.143,234.236z"/>
	<path class="st0" d="M592.462,263.417l1.225-2.174l2.005-2.229l3.656-1.57l2.708,0.439l1.958-0.456l1.461-4.304l-0.545-0.846
		l-2.732-2.53l-0.632-1.123l-0.3-6.233l0.142-1.058l3-1.139l4.587,0.488l0.735,0.164l7.39,1.651l4.872,0.114l15.934-1.912
		l8.054,0.456l3.514,2.921l4.477,11.692l4.43,5.328l5.63,5.149l4.99,5.97l2.542,7.808l13.928-6.978l4.572-1.236l0.668,0.136
		l0.982,6.176l1.327,5.124l0.6,8.888l-1.263,19.106l0.079,1.024l0.213,0.845l0.371,0.667l1.382,1.788l0.426,0.691l0.3,0.748
		l0.237,0.788l0.308,1.902l-0.095,6.007l-0.9,7.306l-1.84,8.468l-7.004,18.151l-0.521,5.906l-2.242,3.396l-9.459,10.153
		l-6.585-1.096l-3.15,0.211l-11.97,3.679l-2.282,0.244l-1.469-0.219l-0.45-0.52l-0.505-0.861l-0.276-0.634l-0.727-0.861
		l-1.003-0.918l-4.524-2.729l-0.647-0.487l-0.458-0.634l-0.347-0.698l-0.884-5.613l-0.474-1.657l-1.129-2.112l-1.303-1.714
		l-1.129-0.699l-1.145-0.366l-11.812,0.951l-1.753,0.382l-1.54,0.593l-2.479,1.47l-1.65,0.487l-0.529-0.366l-0.024-0.552
		l0.355-0.674l1.808-2.445l0.316-0.755l0.047-0.812l-0.474-0.812l-0.703-0.699l-2.171-1.397l-0.687-0.552l-0.466-0.617l-0.3-0.731
		l-0.229-0.869l-0.134-0.951l-0.647-1.211l-1.113-1.487l-2.913-2.161l-1.121-1.105l-0.545-1.893l-1.019-1.552l-3.885-3.502
		l-1.579-1.829l-0.948-1.463l-0.513-7.899l0.047-0.837l0.332-0.683l0.513-0.561l10.059-7.266l1.382-0.756l2.345-0.837l0.711-0.439
		l0.592-0.504l0.474-0.593l0.237-0.935l-0.008-1.146l-0.513-1.878l-0.813-1.219l-0.711-0.805l-11.528-7.894l-1.737-1.553
		l-1.098-1.171l-0.261-0.797l-0.213-0.87l-0.142-3.033l0.276-1.773l0.166-0.586l0.19-0.529l0.355-0.618l0.932-1.171l0.553-0.464
		l0.647-0.431l0.537-0.537l0.458-0.651l0.355-0.691l0.3-0.797l0.19-0.878l-0.047-1.903l-0.995-2.627l-1.192-2.358l-0.49-1.366
		l-0.111-1.057l-0.537-2.521l-3.6-8.475L592.462,263.417z"/>
	<path class="st0" d="M524.425,284.798l8.148-0.407l5.716-3.489l5.567-2.358l12.31-2.741l2.929,0.163l4.872,1.936l2.234,0.228
		l0.363-0.911v-1.862l0.221-1.952l0.955-1.123l1.99-0.13l2.44,0.423l2.432,0.732l1.958,0.83l2.124-3.945l3.308-1.22l3.703-0.277
		l3.324-1.139l2.416-2.318l1.026-1.82l1.659,2.317l3.6,8.475l0.537,2.521l0.111,1.057l0.49,1.366l1.192,2.358l0.995,2.627
		l0.047,1.903l-0.19,0.878l-0.3,0.797l-0.355,0.691l-0.458,0.651l-0.537,0.537l-0.647,0.431l-0.553,0.464l-0.932,1.171l-0.355,0.618
		l-0.19,0.529l-0.166,0.586l-0.276,1.773l0.142,3.033l0.213,0.87l0.261,0.797l1.098,1.171l1.737,1.553l11.528,7.894l0.711,0.805
		l0.813,1.219l0.513,1.878l0.008,1.146l-0.237,0.935l-0.474,0.593l-0.592,0.504l-0.711,0.439l-2.345,0.837l-1.382,0.756
		l-10.059,7.266l-0.513,0.561l-0.332,0.683l-0.047,0.837l0.513,7.899l0.948,1.463l1.579,1.829l3.885,3.502l1.019,1.552l0.545,1.893
		l1.121,1.105l2.913,2.161l1.113,1.487l0.647,1.211l0.134,0.951l0.229,0.869l0.3,0.731l0.466,0.617l0.687,0.552l2.171,1.397
		l0.703,0.699l0.474,0.812l-0.047,0.812l-0.316,0.755l-1.808,2.445l-0.355,0.674l0.024,0.552l0.529,0.366l1.65-0.487l2.479-1.47
		l1.54-0.593l1.753-0.382l11.812-0.951l1.145,0.366l1.129,0.699l1.303,1.714l1.129,2.112l0.474,1.657l0.884,5.613l0.347,0.698
		l0.458,0.634l0.647,0.487l4.524,2.729l1.003,0.918l0.727,0.861l0.276,0.634l0.505,0.861l0.45,0.52l1.469,0.219l2.282-0.244
		l11.97-3.679l3.15-0.211l6.585,1.096l-1.99,2.697l-0.655,3.971l0.166,9.501l1.184,4.523v1.015l-0.308,1.08l-1.137,1.38
		l-0.853,0.739l-0.829,0.593l-1.326,0.755l-0.568,0.463l-0.474,1.267l-0.253,2.013l0.142,8.061l0.884,5.528l0.3,0.812l0.371,0.755
		l2.866,4.562l0.355,0.755l0.261,0.779l0.126,0.755l-3.916,22.592l0.095,1.298l0.474,1.842l-0.213,1.915l-3.987,13.094l-0.726,0.738
		l-1.421,0.43l-1.027-0.016l-0.987-0.195l-3.214-1.144l-2.629-1.59l-2.511-1.866l-0.639-0.268l-0.805,3.083l-0.411,2.434
		l-1.682,24.583l-0.002,0.026l-2.111-0.412h-2.089l-2.229,0.885l-18.718-21.805l-0.813-0.316l-0.876-0.17l-0.948-0.049l-8.306,1.298
		l-0.758-0.179l-0.568-0.624l-0.04-1.541l0.166-1.038l0.3-0.99l2.282-4.21l-0.174-0.868l-0.711-0.982l-2.005-1.087l-1.161-0.917
		l-0.711-1.144l-0.071-4.649l-0.095-0.901l-0.3-0.99l-0.513-0.925l-1.003-1.112l-1.295-0.17l-0.971,0.122l-2.866,1.55l-1.54,0.657
		l-0.868,0.17l-0.884,0.073l-0.837-0.154l-0.782-0.268l-0.639-0.422l-1.169-0.982l-0.648-0.438l-0.774-0.292l-0.869-0.065
		l-0.782,0.041l-0.892-0.6l-1.247-1.201l-2.724-3.229l-1.555-1.282l-1.382-0.795l-6.001-0.698l-1.619-0.422l-2.29-1.022
		l-0.663-0.414l-0.561-0.438l-2.148-2.751l-3.071-4.934l-1.658-3.36l-1.611-5.649l-0.45-2.402l-0.182-1.859l0.047-2.021
		l-0.174-0.974l-0.458-0.812l-1.247-0.414l-1.406,0.511l-0.553-0.008l-0.411-0.357l-0.363-1.007l-0.979-5.788l-0.071-2.03
		l-0.521-4.214l-0.024-0.926l0.071-0.95l0.261-0.779l0.474-0.585l0.568-0.179l0.442,0.179l0.347,0.3l0.419,0.503l0.497,0.365
		l0.561,0.057l0.434-0.487l0.284-0.804l0.134-1.965l-0.063-1.924l0.118-0.95l0.253-0.804l0.403-0.755l0.482-0.577l1.627-1.502
		l0.063-0.097l0.379-0.796l0.103-0.69l-0.126-1.194l-1.24-4.142l-0.245-1.632l-0.008-1.299l0.647-2.461l-0.016-0.755l-0.395-1.161
		l-3.695-7.83l-0.237-0.861l-0.11-0.893l-0.063-1.86l0.142-0.934l0.261-0.812l0.332-0.699l0.497-0.585l0.703-0.374l1.658-0.552
		l0.687-0.349l0.505-0.561l0.434-0.65l0.308-0.78l0.118-0.845l-0.166-1.129l-0.395-1.292l-0.869-2.202l-0.6-2.657l0.016-0.926
		l0.158-0.926l1.453-4.062l0.024-0.894l-1.019-0.804l-1.887-0.593l-7.446-0.926l-2.369-0.813l-2.645-1.909l-2.1-1.983l-2.55-4.047
		l-1.871-2.365l-3.648-0.219l-12.483,1.438l-3.514-5.494l-9.42-9.469l-0.821-7.405l-0.016-0.089l2.795-5.43l2.85-4.382l-0.64-4.366
		l3.269-2.114l2.171-3.138l0.434-3.732l-1.887-3.911l1.311-1.22L524.425,284.798z"/>
	<path class="st0" d="M690.731,271.946l1.732,0.352l4.508,2.944l2.092,0.61l1.398-0.708l3.932-3.042l2.377-0.822l3.056,0.187
		l5.977,1.253l2.945-0.195l2.961-2.107l2.527-3.221l3.072-2.562l4.587-0.195l2.882,2.278l2.977,8.28l2.479,3.733l1.587,0.968
		l4.272,1.659l1.863,1.025l4.83,4.168l8.656,7.468l5.377,2.171l-2.756,4.578l-6.167,14.268l-1.54,5.137l1.982,5.21l-1.508,3.381
		l-3.064,2.918l-2.661,3.86l-1.105,5.55l0.253,11.668l-0.695,5.728l-7.327,17.757l-1.792,8.69l3.198,7.179l3.15,1.137l6.474-2.16
		l4.445,1.738l2.353,2.745l1.571,3.768l0.545,4.182l-0.719,4.035l-5.274,6.016l-24.067,11.035l-0.211-0.077l-2.4-1.406l-1.517-2.582
		l-2.325-6.737l-8.604,14.956l-2.238,8.819l5.62,3.911l3.594,1.367l10.146,9.75l5.77,3.91l0.497,1.84v3.795l-2.499,6.707
		l-6.08,4.791l-22.717,11.458l-6.155,4.93l-1.082,5.019l7.05,4.904l-10.781,2.49l-42.115-2.899l-7.775-1.517l0.002-0.026
		l1.682-24.583l0.411-2.434l0.805-3.083l0.639,0.268l2.511,1.866l2.629,1.59l3.214,1.144l0.987,0.195l1.027,0.016l1.421-0.43
		l0.726-0.738l3.987-13.094l0.213-1.915l-0.474-1.842l-0.095-1.298l3.916-22.592l-0.126-0.755l-0.261-0.779l-0.355-0.755
		l-2.866-4.562l-0.371-0.755l-0.3-0.812l-0.884-5.528l-0.142-8.061l0.253-2.013l0.474-1.267l0.568-0.463l1.326-0.755l0.829-0.593
		l0.853-0.739l1.137-1.38l0.308-1.08v-1.015l-1.184-4.523l-0.166-9.501l0.655-3.971l1.99-2.697l9.459-10.153l2.242-3.396
		l0.521-5.906l7.004-18.151l1.84-8.468l0.9-7.306l0.095-6.007l-0.308-1.902l-0.237-0.788l-0.3-0.748l-0.426-0.691l-1.382-1.788
		l-0.371-0.667l-0.213-0.845l-0.079-1.024l1.263-19.106l-0.6-8.888l-1.327-5.124L690.731,271.946z M759.885,489.978l-0.273-3.995
		l2.223-1.593l4.225,1.401l2.604,5.779l0.174,4.786l1.162,3.202l-2.591,1.397l-3.946-1.409l-2.605,1.201l0.025-3.395l-1.627-3.384
		L759.885,489.978z M747.818,474.401l2.398,1.398l2,4.594l-1.797,2.597l-1.998,1.998l-3.999-3.594l-1.002-4.993l1.798-1.798
		L747.818,474.401z"/>
	<path class="st0" d="M184.429,391.145l-2.117-0.415l-19.378-6.396l-10.195,2.117l-29.006,0.358l-4.66-3.232l-3.08-11.551
		l-1.152-7.212l-3.824-3.159l-6.295-3.899l-24.769-14.098l-0.661-0.303l0.691-1.165l4.856-7.663l2.29-2.739l0.861-0.731l0.742-0.512
		l0.908-0.423l1.019-0.333l1.753-0.325h1.232l1.082,0.122l0.821,0.293l0.734,0.341l1.263,0.878l0.608,0.512l4.003,4.624l2.219,2.121
		l0.608,0.431l1.887,0.398l9.222,0.528l2.535-0.333l1.532-0.618l1.729-6.997l0.561-1.52l3.916-7.055l0.253-0.797l0.174-2.894
		l0.49-1.349l0.892-1.699l2.321-2.748l0.908-1.496l0.418-1.244l-0.324-1.748l-2.582-8.179l0.166-1.26l0.568-1.708l6.222-9.497
		l0.182-1.09l-0.276-0.732l-0.719-1.448l-0.561-1.431l-0.505-1.83l-0.726-5.888l0.071-1.334l0.308-2.009l0.655-0.903l0.845-0.578
		l3.719-0.569l6.711-1.863l5.424-2.286l7.114,1.79l2.74-0.089l1.674-0.447l0.924-0.122h0.971l1.421,0.691l1.777,1.31l4.958,4.856
		l0.908,1.253l0.963,2.245l0.679,0.911l0.955,1.065l1.871,1.732l1.358,2.212l0.332,1.626l-0.071,0.886l-0.245,0.87l-0.395,0.707
		l-0.474,0.545l-1.176,0.968l-0.521,0.61l-0.355,0.699l-0.134,0.789l0.395,0.675l0.987,0.618l1.903,0.358l1.398,1.439l0.726,1.041
		l0.355,0.976l0.379,0.732l0.521,0.577l0.671,0.537l0.987,0.398l1.445,0.293l2.195-0.52l1.105-0.561l0.687-0.715l0.197-0.764
		l-0.008-2.822l0.403-1.732l0.979-2.212l0.813-1.342l0.529-0.586l0.592-0.439l0.829-0.211l2.077,0.919l2.953,1.773l6.459,4.822
		l4.058,3.805l1.848,4.602l0.418,0.65l0.49,0.61l3.9,1.325l14.56,2.788l3.49,1.098l0.742,0.366l0.632,0.463l0.529,0.496l0.403,0.65
		l0.308,0.772l0.15,0.878l-0.434,1.154l-0.829,1.244l-2.195,1.943l-1.927,1.39l-4.509,2.617l-1.658,1.561l-3.616,4.43l-1.232,0.983
		l-1.2,0.528l-2.14,0.195l-0.679,0.195l-1.255,0.732l-0.608,0.561l-0.671,1.162l-0.679,1.707l-0.9,3.746l-0.482,3.632l0.395,6.931
		l-0.079,1.04l-0.821,1.528l-1.516,2.056l-6.648,6.67l-0.632,0.439l-0.616,0.617l-0.695,0.999l-0.726,1.543l-0.568,2.624
		l-0.403,3.785l-0.829,1.267l-1.35,1.56l-7.73,6.782l-1.634,2.656l-3.237,7.415L184.429,391.145z"/>
	<path class="st0" d="M329.187,422.129l-14.603-8.986l-20.765-9.193l-22.431-5.345h-10.432l-7.945-1.88l-43.414,0.356l-18.556-4.641
		l-6.611-1.295l0.842-1.978l3.237-7.415l1.634-2.656l7.73-6.782l1.35-1.56l0.829-1.267l0.403-3.785l0.568-2.624l0.726-1.543
		l0.695-0.999l0.616-0.617l0.632-0.439l6.648-6.67l1.516-2.056l0.821-1.528l0.079-1.04l-0.395-6.931l0.482-3.632l0.9-3.746
		l0.679-1.707l0.671-1.162l0.608-0.561l1.255-0.732l0.679-0.195l2.14-0.195l1.2-0.528l1.232-0.983l3.616-4.43l1.658-1.561
		l4.509-2.617l1.927-1.39l2.195-1.943l0.829-1.244l0.434-1.154l-0.15-0.878l-0.308-0.772l-0.403-0.65l-0.529-0.496l-0.632-0.463
		l-0.742-0.366l-3.49-1.098l1.413-8.764l5.361-14.653l0.568-6.693l-0.253-5.677l0.403-8.435l0.371-1.757l0.474-0.602l0.648-0.431
		l0.734-0.195l0.821,0.065l0.766,0.244l0.853-0.122l1.003-0.651l2.44-3.929l0.648-0.342l0.845-0.089l1.011,0.024l1.137-0.073
		l1.563-0.692l0.687-0.846l0.332-0.984l0.474-6.037l-0.079-0.976l0.529-4.549l3.308-17.423l1.327-2.149l0.979-2.149l2.542-0.977
		l3.608-0.7l2.787-1.538l2.992-2.263l3.158,0.635l5.511,3.142l4.99,0.725l0.995,0.301l2.906,1.343l-0.347,10.613l-1.634,6.762
		l-0.095,1.701l0.237,1.123l1.84,1.44l0.734,1.09l0.884,1.652l1.524,3.564l0.908,1.701l0.837,1.123l1.287,0.838l1.445,0.7
		l2.479,0.748l0.916,0.057l2.819-0.228l0.963,0.033l0.908,0.122l0.868,0.212l0.829,0.301l0.987,0.561l1.113,0.927l1.634,0.871
		l0.474,0.643l0.118,0.529l-0.805,2.066l-0.403,1.765l-0.118,0.391l-0.253,0.203l-2.282-0.065l-0.79,0.22l-0.568,0.553l-0.316,1.025
		l-1.532,17.56l-0.442,1.781l-0.34,0.716l-0.624,0.431l-1.571,0.586l-0.671,0.415l-0.632,0.48l-0.924,1.179l-0.616,1.512
		l-0.371,1.496l-0.569,5.489l-0.639,2.431l-0.995,2.309l-0.561,2.902l-0.363,5.032l-0.26,1.341l-0.229,0.789l-2.108,3.983
		l-1.334,3.926l0.095,1.26l0.553,0.658l0.782,0.211l0.987,0.081l1.532,1.991l-0.3,3.137l0.213,2.991l0.332,0.788l0.418,0.658
		l0.505,0.609l1.176,0.87l0.576,0.764l0.371,1.056l0.561,2.462l0.458,1.365l0.584,0.918l0.663,0.488l4.398,2.357l0.529,0.357
		l1.311,1.178l2.045,2.722l0.3,1.203l-0.095,0.967l-1.003,1.877l-0.711,1.722l0.032,0.975l0.663,0.707l2.345,1.121l0.363,0.756
		l-0.15,0.699l-0.497,0.617l-0.616,0.487l-0.426,1.796l-0.237,2.941l0.569,12.997l-0.142,0.991l-1.911,4.963l-0.687,2.704
		l-0.111,1.486l0.182,1.17l4.895,7.926l1.729,3.735l0.45,0.593l0.679,0.382l0.892,0.114l0.963-0.049l1.713-0.406l3.198-1.072
		l1.816-0.219l1.137,0.154l0.774,0.219l2.25,1.015l1.066,5.115l0.924,1.307l0.734-0.033l1.279,0.073l1.69,0.39l3.008,1.226
		l0.987,1.08l0.245,0.885l-0.782,1.364l-1.469,1.81l-0.395,0.641l-0.474,0.601l-2.385,4.237l-0.853,1.875l-0.924,2.906
		L329.187,422.129z"/>
	<path class="st0" d="M422.133,468.728l-71.278-33.267l-21.668-13.332l0.008-0.023l0.924-2.906l0.853-1.875l2.385-4.237l0.474-0.601
		l0.395-0.641l1.469-1.81l0.782-1.364l-0.245-0.885l-0.987-1.08l-3.008-1.226l-1.69-0.39l-1.279-0.073l-0.734,0.033l-0.924-1.307
		l-1.066-5.115l0.663-2.647l0.908-0.593l2.187-2.444l1.563-3.338l2.598-7.788l0.687-3.395l0.166-2.209l-0.592-1.543l-2.345-4.151
		l-0.892-2.526l-0.561-2.729l0.134-1.446l0.434-0.991l0.679-0.382L333,362.29h0.971l0.94,0.122l4.88,1.608l0.94,0.146l0.932,0.049
		l1.556-1.194l9.191-11.699l11.046-10.441l13.454,4.94l5.29,2.844l5.772,1.853l1.042-0.049l1.366-0.203l0.6-0.179l0.663-0.317
		l0.474-0.585l0.679-1.511l0.49-0.585l0.663-0.382l0.829-0.252l3.829-0.463l1.69-0.585l2.124-1.268l2.29,6.175l0.103,5.167
		l-0.34,5.321l0.332,2.145l0.576,1.259l0.948,0.106l0.979-0.024l0.955-0.122l7.303-2.291l1.255-0.065l1.39,0.236l2.408,0.902
		l0.813,1.024l7.533,16.156l0.221,0.877l0.134,0.918l-0.063,2.014l-0.379,1.811l-2.345,6.415l-0.166,0.747l-0.261,0.731
		l-0.213,1.007l-0.047,0.487v0.097l-1.224,6.878l-0.047,1.429l0.442,5.464l0.403,1.786l0.442,1.299l1.998,2.224l1.84,1.453
		l2.669,1.632l2.108,2.021l2.029,2.598l0.687,1.607l0.292,1.331l-0.095,0.974l-0.41,1.794l-0.261,0.763l-0.403,0.674l-1.848,1.453
		l-0.505,0.544l-0.387,0.674l-0.261,0.812l-0.134,0.925l-0.047,1.014l1.382,12.83l-0.087,1.777l-0.395,0.706l-0.474,0.584
		l-0.616,0.576l-0.639,0.438l-2.819,1.412l-2.25,0.901l-1.366,0.779l-1.176,0.974l-0.497,0.6l-0.426,0.649l-0.371,0.755
		l-0.292,0.787l-0.229,0.893l-0.742,9.451L422.133,468.728z"/>
	<path class="st0" d="M426.692,470.855l-4.559-2.127l0.003-0.036l0.742-9.451l0.229-0.893l0.292-0.787l0.371-0.755l0.426-0.649
		l0.497-0.6l1.176-0.974l1.366-0.779l2.25-0.901l2.819-1.412l0.639-0.438l0.616-0.576l0.474-0.584l0.395-0.706l0.087-1.777
		l-1.382-12.83l0.047-1.014l0.134-0.925l0.261-0.812l0.387-0.674l0.505-0.544l1.848-1.453l0.403-0.674l0.261-0.763l0.41-1.794
		l0.095-0.974l-0.292-1.331l-0.687-1.607l-2.029-2.598l-2.108-2.021l-2.669-1.632l-1.84-1.453l-1.998-2.224l-0.442-1.299
		l-0.403-1.786l-0.442-5.464l0.047-1.429l1.224-6.878v-0.097l0.047-0.487l0.213-1.007l0.261-0.731l0.166-0.747l2.345-6.415
		l0.379-1.811l0.063-2.014l-0.134-0.918l-0.221-0.877l-7.533-16.156l-0.813-1.024l-2.408-0.902l-1.39-0.236l-1.255,0.065
		l-7.303,2.291l-0.955,0.122l-0.979,0.024l-0.948-0.106l-0.576-1.259l-0.332-2.145l0.34-5.321l-0.103-5.167l-2.29-6.175l5.953-5.883
		l0.687-1.048l0.734-1.438l1.05-4.405l5.574-14.923l0.426-9.023l0.553-0.951l0.861-1.171l1.966,0.081l1.784,0.415l3.174,1.065
		l2.1-0.35l2.953-0.943l9.507-4.228l2.013-0.545l2.187,0.561l1.808,0.154l1.066-0.707l0.995-1.057l1.532-2.033l1.098-0.569
		l1.011-0.098l4.398,3.187l1.445,0.39l2.179,0.195l9.759-0.098l2.005,0.366l4.193,0.22l3.364,0.634l0.695,0.341l5.614,4.163
		l0.734,0.39l3.253,1.138l2.037,1.219l0.742,0.325l2.116,0.577l0.853,0.447l0.442,0.723l0.379,1.707l0.268,0.756l0.363,0.683
		l0.6,0.528l1.121,0.382l7.706,0.959l2.89,0.772l4.959-3.357l0.821,7.405l9.42,9.469l3.514,5.494l-19.195,14.025l-1.745,5.541
		l-4.516,6.255l-6.174,3.908l-6.719-1.552l-8.796,10.925l-0.403,1.957l-5.022,0.837L473,380.445l-0.719,9.551l-2.574,9.29
		l-13.928,26.587l-1.295,3.32l-0.742,3.985l-0.387,9.739l-0.758,2.134l-5.353,5.201l-2.858,4.236l-1.84,3.465l-2.866,2.345
		l-6.001,0.868l-3.624,1.363l-2.314,3.172l-1.208,4.429l0.008,0.625L426.692,470.855z"/>
	<path class="st0" d="M641.864,498.512l-2.882,1.145l-26.386,2.235l-28.3-4.329l-7.349,2.401l-3.917-1.341l-4.439-0.996v-1.954
		l6.901-0.46l0.485-4.828l-3.693-5.977l-5.571-3.934l1.206,2.44l3.643,5.096l1.417,3.18l-11.042-0.37l-5.409,0.562l-4.613,1.954
		l2.947,1.277l2.387-0.358l2.872-0.83l4.315-0.089v2.337l-7.112,2.95l-7.846-0.23l-6.118-3.793l-1.89-7.701l3.009,1.354l1.169,0.792
		l4.178-4.291v-1.941l-5.222-2.376l-5.745-8.099l-3.842-2.402l1.032,4.548l1.728,3.717l0.895,3.308l-1.38,3.244l-4.439-2.529
		l-12.919-3.257l-5.583-2.976l-5.048-9.044l-2.35-1.469l-3.581-0.294l-10.072-2.044h-4.501l-12.384,2.338l-17.271,0.46l-3.768,1.686
		l2.052,1.648l2.238,1.201l2.238,0.37l2.002-0.907l8.629,2.031l24.533-2.657l2.736,0.434l3.942,2.146l2.139,2.018l3.805,4.65
		l2.574,1.916v2.337l-5.72-0.971l-4.165-0.792l-9.077-2.721v2.146l25.043,5.16l13.081,4.266l5.869,5.773l-2.139,3.754l-5.471-0.919
		l-6.093-3.205l-4.016-3.039l-4.514-2.299l-78.908-14.702l-9.462-4.407l-0.15-0.102l-0.008-0.625l1.208-4.429l2.314-3.172
		l3.624-1.363l6.001-0.868l2.866-2.345l1.84-3.465l2.858-4.236l5.353-5.201l0.758-2.134l0.387-9.739l0.742-3.985l1.295-3.32
		l13.928-26.587l2.574-9.29l0.719-9.551l1.753-2.485l5.022-0.837l0.403-1.957l8.796-10.925l6.719,1.552l6.174-3.908l4.516-6.255
		l1.745-5.541l19.195-14.025l12.483-1.438l3.648,0.219l1.871,2.365l2.55,4.047l2.1,1.983l2.645,1.909l2.369,0.813l7.446,0.926
		l1.887,0.593l1.019,0.804l-0.024,0.894l-1.453,4.062l-0.158,0.926l-0.016,0.926l0.6,2.657l0.869,2.202l0.395,1.292l0.166,1.129
		l-0.118,0.845l-0.308,0.78l-0.434,0.65l-0.505,0.561l-0.687,0.349l-1.658,0.552l-0.703,0.374l-0.497,0.585l-0.332,0.699
		l-0.261,0.812l-0.142,0.934l0.063,1.86l0.11,0.893l0.237,0.861l3.695,7.83l0.395,1.161l0.016,0.755l-0.647,2.461l0.008,1.299
		l0.245,1.632l1.24,4.142l0.126,1.194l-0.103,0.69l-0.379,0.796l-0.063,0.097l-1.627,1.502l-0.482,0.577l-0.403,0.755l-0.253,0.804
		l-0.118,0.95l0.063,1.924l-0.134,1.965l-0.284,0.804l-0.434,0.487l-0.561-0.057l-0.497-0.365l-0.419-0.503l-0.347-0.3l-0.442-0.179
		l-0.568,0.179l-0.474,0.585l-0.261,0.779l-0.071,0.95l0.024,0.926l0.521,4.214l0.071,2.03l0.979,5.788l0.363,1.007l0.411,0.357
		l0.553,0.008l1.406-0.511l1.247,0.414l0.458,0.812l0.174,0.974l-0.047,2.021l0.182,1.859l0.45,2.402l1.611,5.649l1.658,3.36
		l3.071,4.934l2.148,2.751l0.561,0.438l0.663,0.414l2.29,1.022l1.619,0.422l6.001,0.698l1.382,0.795l1.555,1.282l2.724,3.229
		l1.247,1.201l0.892,0.6l0.782-0.041l0.869,0.065l0.774,0.292l0.648,0.438l1.169,0.982l0.639,0.422l0.782,0.268l0.837,0.154
		l0.884-0.073l0.868-0.17l1.54-0.657l2.866-1.55l0.971-0.122l1.295,0.17l1.003,1.112l0.513,0.925l0.3,0.99l0.095,0.901l0.071,4.649
		l0.711,1.144l1.161,0.917l2.005,1.087l0.711,0.982l0.174,0.868l-2.282,4.21l-0.3,0.99l-0.166,1.038l0.04,1.541l0.568,0.624
		l0.758,0.179l8.306-1.298l0.948,0.049l0.876,0.17l0.813,0.316L641.864,498.512z"/>
	<path class="st0" d="M392.132,254.353l-4.501,7.143l-0.363,0.708l-0.9,1.358l-1.026,1.098l-1.168,0.968l-4.059,2.367l-0.632,0.488
		l-0.49,0.553l-0.458,0.667l-0.3,0.748l-0.245,0.862l-0.158,0.944l0.774,2.001l1.445,2.7l5.953,8.466l1.879,2.009l2.495,1.7
		l1.492,1.659l1.09,2.456l0.245,1.407l0.363,1.325l1.54,2.716l0.379,1.195l0.403,2.049l0.734,1.382l1.255,1.683l2.953,3.171l1.966,3
		l0.3,0.788l2.748,1.593l10.572,2.886l-5.574,14.923l-1.05,4.405l-0.734,1.438l-0.687,1.048l-5.953,5.883l-2.124,1.268l-1.69,0.585
		l-3.829,0.463l-0.829,0.252l-0.663,0.382l-0.49,0.585l-0.679,1.511l-0.474,0.585l-0.663,0.317l-0.6,0.179l-1.366,0.203
		l-1.042,0.049l-5.772-1.853l-5.29-2.844l-13.454-4.94l-0.261-9.484l-0.671-1.56l-0.537-1.682l-1.492-1.845l-5.314-10.152
		l-0.45-1.504l0.521-6.78l-0.284-1.382l-0.545-0.87l-0.782-0.276l-1.161-0.797l-1.279-1.317l-3.869-5.667l-0.6-0.464l-0.758-0.317
		l-0.892-0.179l-1.966-0.098l-2.124-1.732l-2.795-3.212l-8.148-12.825l-0.829-2.391l0.537-0.537l2.211-0.976l0.797-0.561
		l0.592-0.659l0.537-1.171l-0.276-0.708l-1.887-2.383l-6.348-10.453l-2.906-5.988l-0.616-2.368l-0.348-2.701l0.213-0.48l0.45-0.448
		l0.569-0.456l0.553-0.513l0.805-1.269l0.268-0.773l0.221-0.863l0.253-1.847l0.45-1.725l0.134-1.294v-0.326l0.055-0.586
		l-0.245-3.035l-0.94-5.176l-0.118-1.384l0.3-1.001l1.477-3.02l1.342-3.752l0.166-3.052l5.401-2.825l0.932,0.008l1.066,0.138
		l3.829,1.929l7.88,2.873l1.54,0.822l2.219,1.986l5.156,3.695l0.474,0.586l1.382,2.458l6.704,7.992l0.561,0.862l0.126,0.513v0.073
		l-0.237,1.343l-0.008,0.846l0.118,0.797l0.197,0.781l0.521,1.44l0.821,1.725l1.611,2.4l1.366,1.261l1.169,0.732l6.538,3.116
		l5.543-0.456l4.722,1.831L392.132,254.353z"/>
	<path class="st0" d="M327.466,216.846l-0.166,3.052l-1.342,3.752l-1.477,3.02l-0.3,1.001l0.118,1.384l0.94,5.176l0.245,3.035
		l-0.055,0.586v0.326l-0.134,1.294l-0.45,1.725l-0.253,1.847l-0.221,0.863l-0.268,0.773l-0.805,1.269l-0.553,0.513l-0.569,0.456
		l-0.45,0.448l-0.213,0.48l0.348,2.701l0.616,2.368l2.906,5.988l6.348,10.453l1.887,2.383l0.276,0.708l-0.537,1.171l-0.592,0.659
		l-0.797,0.561l-2.211,0.976l-0.537,0.537l0.829,2.391l8.148,12.825l2.795,3.212l2.124,1.732l1.966,0.098l0.892,0.179l0.758,0.317
		l0.6,0.464l3.869,5.667l1.279,1.317l1.161,0.797l0.782,0.276l0.545,0.87l0.284,1.382l-0.521,6.78l0.45,1.504l5.314,10.152
		l1.492,1.845l0.537,1.682l0.671,1.56l0.261,9.484l-11.046,10.441l-9.191,11.699l-1.556,1.194l-0.932-0.049l-0.94-0.146l-4.88-1.608
		l-0.94-0.122H333l-0.829,0.154l-0.679,0.382l-0.434,0.991l-0.134,1.446l0.561,2.729l0.892,2.526l2.345,4.151l0.592,1.543
		l-0.166,2.209l-0.687,3.395l-2.598,7.788l-1.563,3.338l-2.187,2.444l-0.908,0.593l-0.663,2.647l-2.25-1.015l-0.774-0.219
		l-1.137-0.154l-1.816,0.219l-3.198,1.072l-1.713,0.406l-0.963,0.049l-0.892-0.114l-0.679-0.382l-0.45-0.593l-1.729-3.735
		l-4.895-7.926l-0.182-1.17l0.111-1.486l0.687-2.704l1.911-4.963l0.142-0.991l-0.569-12.997l0.237-2.941l0.426-1.796l0.616-0.487
		l0.497-0.617l0.15-0.699l-0.363-0.756l-2.345-1.121l-0.663-0.707l-0.032-0.975l0.711-1.722l1.003-1.877l0.095-0.967l-0.3-1.203
		l-2.045-2.722l-1.311-1.178l-0.529-0.357l-4.398-2.357l-0.663-0.488l-0.584-0.918l-0.458-1.365l-0.561-2.462l-0.371-1.056
		l-0.576-0.764l-1.176-0.87l-0.505-0.609l-0.418-0.658l-0.332-0.788l-0.213-2.991l0.3-3.137l-1.532-1.991l-0.987-0.081l-0.782-0.211
		l-0.553-0.658l-0.095-1.26l1.334-3.926l2.108-3.983l0.229-0.789l0.26-1.341l0.363-5.032l0.561-2.902l0.995-2.309l0.639-2.431
		l0.569-5.489l0.371-1.496l0.616-1.512l0.924-1.179l0.632-0.48l0.671-0.415l1.571-0.586l0.624-0.431l0.34-0.716l0.442-1.781
		l1.532-17.56l0.316-1.025l0.568-0.553l0.79-0.22l2.282,0.065l0.253-0.203l0.118-0.391l0.403-1.765l0.805-2.066l-0.118-0.529
		l-0.474-0.643l-1.634-0.871l-1.113-0.927l-0.987-0.561l-0.829-0.301l-0.868-0.212l-0.908-0.122l-0.963-0.033l-2.819,0.228
		l-0.916-0.057l-2.479-0.748l-1.445-0.7l-1.287-0.838l-0.837-1.123l-0.908-1.701l-1.524-3.564l-0.884-1.652l-0.734-1.09l-1.84-1.44
		l-0.237-1.123l0.095-1.701l1.634-6.762l0.347-10.613l2.171,0.309l1.279-0.635l3.956-2.865l2.345-0.806l6.332,2.776l4.256,0.049
		l1.934-3.899l4.303,3.411l3.474,0.871L327.466,216.846z"/>
</g>
<g id="Copyright">
	<text transform="matrix(1 0 0 1 681.6426 577.5916)" class="st1 st2">© Vemaps.com</text>
</g>
</svg>
