<?xml version="1.0" encoding="utf-8"?>
<!-- Generator: Adobe Illustrator 23.0.1, SVG Export Plug-In . SVG Version: 6.00 Build 0)  -->
<svg version="1.1" xmlns="http://www.w3.org/2000/svg" xmlns:xlink="http://www.w3.org/1999/xlink" x="0px" y="0px"
	 viewBox="0 0 800 600" style="enable-background:new 0 0 800 600;" xml:space="preserve">
<style type="text/css">
	.st0{fill:#808080;stroke:#FFFFFF;stroke-width:0.5;stroke-linecap:round;stroke-linejoin:round;}
	.st1{font-family:'Roboto-Regular';}
	.st2{font-size:14px;}
</style>
<g id="Guatemala">
	<path class="st0" d="M461.764,528.925l0.096,0.222l-0.049,0.728l-1.86,1.003l-1.867-0.759l-3.31-2.581l-2.307-0.603l-1.876,0.129
		l-5.63,2.151l-1.357,0.891l-2.708,2.713l-12.222,8.586l-1.883,1.669l-1.081,1.839l-0.841,1.906l-1.18,1.845l-1.561,1.256
		l-3.49,1.865l-1.522,1.567l-1.009,1.892l-0.677,2.071l-0.316,2.129l0.059,2.061l2.036,8.494l-0.003-0.001l-18.091-7.504l0.454-1.78
		l0.825-3.263l0.049-2.349l-0.089-0.63l-0.22-0.663l-1.64-2.979l-1.232-4.577l-0.43-1.05l-0.375-0.623l-0.641-0.305l-0.263-0.19
		l-0.21-0.237l-0.151-0.312l-0.92-5.411l-0.204-0.535l-0.638-0.671l-0.417-0.528l-0.44-0.948l-0.082-0.474l-0.026-0.684l0.148-0.752
		l0.184-0.461l0.779-0.589l2.31-0.65l3.572,2.073l2.461,2.08l0.651,0.257l4.999,1.212l1.269,0.508l0.532-0.034l0.414-0.075
		l1.988-1.382l1.985-3.739l0.799-1.463l0.444-0.332l0.72-0.427l1.462-0.42l1.712-0.325l0.296-0.115l0.723-0.799l2.212-3.164
		l0.67-1.464l0.365-1.118l0.135-0.766l0.016-0.4l-0.585-5.205l0.187-2.874l-0.615-1.308l-3.106-3.044l-3.95-3.268l-0.874-0.902
		l-0.493-0.393l-0.73-0.298l-5.899-1.675l-1.834-1.336l4.526-11.287l1.693-1.472l0.279-0.217l4.427-0.875l1.407,0.075l0.611,0.305
		l0.641,0.224l0.286-0.129l0.138-0.407l-0.385-2.49l1.781-0.204l2.297-7.227l8.055-0.109l3.027-4.018l0.523-0.577l0.365-0.197
		l0.483-0.176l0.878-0.177l0.572-0.041l0.513,0.041l0.375,0.082l0.348,0.122l0.388,0.177l5.669,4.48l0.667-4.521l1.065-1.582
		l2.59-1.772l2.435-1.616l2.087-1.412l2.478-0.686l0.91,0.17l0.483,0.407l0.411,0.509l0.848,0.862l1.403,1.113l0.256,0.122
		l7.934-3.863l2.744-1.623l0.089-0.421l-0.02-1.29l-0.973-2.941l5.127,0.577l1.597,0.55l0.27,0.238l0.887,0.971l0.72,1.053
		l0.608,1.195l1.446,2.152l0.447,0.299l0.47,0.143l9.557-0.387l0.795,0.292l1.781,1.969l0.358,0.903l-0.029,0.597l-0.128,0.679
		l-0.605,1.813l-0.381,0.842l-0.414,1.263l-0.332,1.507l-0.062,0.706l0.02,0.475l0.099,0.204l0.151,0.258l1.653,1.968l0.051,0.06
		l-0.876,0.374l-3.145,3.807l-1.729,1.252l-0.368-2.433l-1.39-1.415l-1.87-0.156l-1.804,1.34l-0.828,2.08l0.546,1.483l0.93,1.299
		l0.368,1.53l-0.805,1.282l-1.275,0.916l-0.753,1.102l0.786,1.859l2.659,0.353l0.878,0.393l0.736,0.699l0.368,0.499l0.739,1.411
		l0.164,0.614l0.23,2.004l0.237,0.855l0.555,0.553l1.614,0.807l0.408,0.536l0.02,2.048l-0.818,0.814l-13.658,3.282l-3.346,1.536
		l-3.208,2.471l-2.547,2.793l-5.436,9.638l-0.362,1.071l0.125,1.006L461.764,528.925z"/>
	<path class="st0" d="M510.91,480.297l-0.025-0.004l-3.662-2.691l-0.138,0.299l-0.657,1.008l-0.168-2.538l-1.295,0.506l-2.892,2.996
		l-2.001,0.417l-1.436-0.533l-1.436-0.76l-2.018-0.265l-1.382,0.59l-0.051-0.06l-1.653-1.968l-0.151-0.258l-0.099-0.204l-0.02-0.475
		l0.062-0.706l0.332-1.507l0.414-1.263l0.381-0.842l0.605-1.813l0.128-0.679l0.029-0.597l-0.358-0.903l-1.781-1.969l-0.795-0.292
		l-9.557,0.387l-0.47-0.143l-0.447-0.299l-1.446-2.152l-0.608-1.195l-0.72-1.053l-0.887-0.971l-0.27-0.238l-1.597-0.55l-5.127-0.577
		l-1.357,0.061l-0.437-0.061l0.453-2.805l4.555-12.718l-0.496-1.543l-0.463-1.094l-0.148-0.734l0.039-0.782l0.076-0.387l0.109-0.374
		l0.266-1.59l0.013-0.421l-0.256-1.516l-0.486-1.407l-0.664-1.061l-1.643-0.476l-6.027,0.313l3.01-5.459l0.516-2.162l-0.391-3.216
		l0.171-0.66l2.905-2.761l2.176-1.687l1.495,0.19l4.322,2.231l4.082,1.999l1.873,0.435l6.809,0.129l1.936-0.469l7.687-6.196
		l2.458-0.714l1.052,0.027l2.787,0.85l1.752,1.197h2.07l6.277-2.129l1.988,0.626l0.513,0.673l0.815,0.565l0.956-0.041l1.512-0.503
		l0.779-0.639l0.591-0.673l0.657-1l0.523-0.496l0.851-0.592l2.81-1.442l0.966-0.279l0.67-0.102l0.325,0.143l0.243,0.17l0.227,0.211
		l0.204,0.238l0.197,0.279l0.486,0.905l0.371,0.925l0.168,0.299l0.128,0.299l0.177,0.299l0.401,0.905l0.044,0.1l-1.221,1.743
		l-3.155,2.737l-0.996,1.54l-0.125,2.475l0.605,1.833l1.107,1.697l2.563,3.104l1.196,1.985l2.399,5.815l1.384,1.798l1.163,1.03
		l0.548,0.846l0.218,0.336l0.23,2.239l-0.322,1.029l-1.351,1.471l-0.453,0.826l0.532,6.624l-0.066,2.333l-0.592,2.177l-1.495,1.43
		l-1.469,0.115l-3.194-1.107l-1.561-0.282l-2.166,0.282l-0.963,0.652l-0.618,1.026l-1.154,1.436l-3.983,3.449l-1.771,1.925
		l-1.265,2.285l-1.048,1.117l-2.826,0.723l-1.301,0.855l-0.825,1.714l-0.23,2.081L510.91,480.297z"/>
	<path class="st0" d="M537.734,96.04l0.194,37.911l-2.145,34.466l-2.326,37.321l-1.118,13.692l-1.956,27.363l-3.259,30.602
		l-0.24,6.409l-0.085-0.079l-0.092-0.085l-0.651-0.499l-2.984-0.427l-11.703,0.239l-1.466,1.497l-0.815,2.166l-0.233,0.916
		l-0.151,0.437l-0.217,0.444l-0.499,0.495l-1.495,0.875l-3.822,0.967l-1.531,0.707l-1.012-0.099l-2.156-1.175l-2.711,0.54
		l-3.365,1.572l-0.168,0.024l-0.076-0.133l-0.316-6.885l-0.102-0.332l-0.546-0.212l-0.808-0.075l-1.765,0.085l-0.776,0.167
		l-0.559,0.191l-0.26,0.202l-0.292,0.167l-0.335,0.123l-0.375,0.082l-0.483-0.003l-7.874-1.042l-0.891,0.048l-1.489,1.21
		l-0.286,0.174l-0.315,0.133l-0.694,0.167l-1.706-0.103l-0.592-0.208l-0.716-0.355l-2.652-1.825l-2.011-1.716l-0.355-0.205
		l-2.997-1.394l-0.371-0.103l-0.384-0.038l-0.47,0.345l-0.69,0.4l-0.355,0.058l-1.114-0.099l-0.381,0.01l-0.335,0.113l-0.246,0.195
		l-0.217,0.225l-0.529,0.769l-0.158,0.184l-0.148,0.126l-0.237,0.137l-0.68,0.195l-4.279,0.236l-1.969-0.301l-0.542-0.038
		l-0.463,0.051l-0.345,0.099l-0.43-0.154l-0.453-0.414l-0.598-1.172l-0.201-0.66l-0.332-0.783l-1.66-2.259l-0.434-0.797
		l-0.384-0.537l-0.309-0.171l-0.713,0.113l-1.196-0.147l-2.222-1.521l-0.565,0.585l-0.312,0.133l-1.449-0.301l-2.159-1.665
		l0.319-0.906l-0.033-0.287l-0.24-0.205l-0.371-0.232l-0.171-0.325l0.02-0.065l0.039-0.079l0.089-0.246l0.069-0.291l-0.01-0.339
		l-0.177-0.243l-0.266-0.178l-0.963-0.397l-0.263-0.072l-0.217,0.055l-0.033,0.393l0.266,1.029l0.03,0.267l0.003,0.14l-0.01,0.044
		l-0.069,0.082l-0.237,0.147l-1.025,0.198l-0.355,0.164l-0.365,0.068l-0.302-0.062l-0.496-0.571l-0.197-0.061l-0.352,0.003
		l-0.697,0.164l-0.483-0.096l-0.352-0.448l-0.102-0.441l-0.335-0.362l-0.565-0.151l-1.39,0.205l-0.552,0.325l-0.345,0.342
		l-0.079,0.267l-0.069,0.164l-0.02,0.031l-0.207,0.161l-0.835-0.089l-21.641-6.972l-25.94-4.001l-3.445,0.356l0.468-0.657
		l0.858-1.881l0.375-1.101l-0.73,0.308l-0.322,0.089l-0.227,0.123l-0.46,0.465h-0.947l-0.496-2.258l3.076-2.579l-1.633-1.581v-0.821
		l2.8-1.156l-0.838-1.335l-3.701-2.108l-0.48-2.512l0.9-1.807l1.561-1.205l1.495-0.726l-1.719-0.685l-1.252-1.013l-0.204-1.315
		l1.436-1.595l0.562,0.562l0.394,0.205l1.647,0.226l-0.477-0.705l-0.776-1.472l-0.48-0.705l0.578,0.068l0.158-0.185v-0.335
		l0.132-0.37l0.753,0.52l1.058,0.301l0.785-0.329l0.007-1.397l-0.785,0.315l-1.85-0.692l-1.292-0.945l0.891-0.493l2.343-0.76
		l1.88-1.815l0.749-2.13l-1.068-1.706h-0.868v0.986h-0.864l0.329-1.877l1.206-0.685l1.732,0.123l1.942,0.548l-1.466-2.48
		l-0.168-0.76l-0.026-1.74l-0.256-1.905l-0.723-0.178l-1.127,0.514l-1.443,0.205l-0.749-0.343l-0.943-0.624l-1.305-0.582
		l-4.003-0.521l-0.329-0.754l0.171-1.138l-0.664-1.467l-0.753-0.733l-1.213-0.857l-1.42-0.404l-3.05,1.48l-0.785-1.186l-0.592-2.831
		l-1.232-0.007l-3.3,0.994l-0.684,0.336l-0.749-0.418l-1.788-0.37l-2.044-0.075l-1.571,0.452l0.664-1.268l1.131-0.953l0.881-1.001
		l-0.072-1.392l-1.466-0.905l-1.952-0.123l-1.104-0.494l1.045-2.023l-0.453-2.146l0.828-2.242l0.414-1.893l-1.729-1.049
		l-0.368,0.885l-0.427,0.439l-0.664,0.219l-1.065,0.192v-0.823l1.676-3.107l-1.742-4.775l-8.597-12.483l-1.84-1.476l-4.555-2.3
		l-1.88-1.572l0.434-1.572v-0.899l-1.735-0.996l-1.19,1.009l-1.499-0.014l-8.762-2.733l-2.346-1.373l-3.701-3.77l-2.636-1.284
		l2.051-2.198l-0.309-1.044l-1.735-0.302l-2.215-0.007l-0.217,0.557l0.467,1.216l0.132,1.216l-1.249,0.563l-0.67-0.371l-1.597-1.745
		l-0.736-0.604l-4.864-1.752l-1.518-1.353l-0.565-2.755l-0.716-1.409l-4.489-5.45l-0.493-1.169l-0.651-2.543l-0.677-0.825
		l-1.348-0.254l-3.063,0.337l-1.269-0.536l-4.522-4.971l-1.17-1.843l-0.546-1.341l-0.651-2.359l-0.539-0.928l-1.17-0.695
		l-2.596-0.681l-0.5-0.853l-0.256-2.063l-0.723-2.401l-1.104-2.105l-1.387-1.197l-3.477-0.186l-3.405,0.55l-2.59-0.454l-1.025-3.172
		l-1.959-1.067l-3.931-0.819l-2.958-1.363l0.539-2.092l0.636-0.115l0.318-0.057l55.811,0.406l0.069-36.657l0.069-36.712l1.025-1.146
		L307.324,30h5.482l27.968,0.028l27.955,0.028l27.958,0.035l27.968,0.028l27.951,0.021l27.965,0.035l27.964,0.028l27.958,0.028
		l0.544,28.85L537.734,96.04z"/>
	<path class="st0" d="M144.002,463.114l2.564-0.403l2.294-2.781l2.797-7.764l2.715-5.072l0.5-2.018l-0.118-2.477l-2.245-6.477
		l-0.092-0.948l0.164-1.92l-0.072-1.033l-1.18-3.243l-0.276-1.098l-0.105-2.771l0.618-1.574l2.642-3.101l1.443-3.945l-0.368-8.194
		l0.427-4.331l1.508-1.521l1.587-0.456l1.64-0.191l1.673-0.721l1.301-1.521l2.517-5.833l-16.478-21.539l-0.963-2.136l-0.046-2.466
		l0.845-2.3l2.35-4.072l6.198-10.743l4.008-6.946l0.783,2.753l2.202,2.772l1.896,0.723l0.322,1.957l1.246,13.69l1.42,1.1
		l6.497,0.296l0.348-0.429l4.282-4.981l1.742-1.118l4.151-0.32l3.855-2.42l2.166-1.333l0.851-0.317l0.841-0.072l1.121,0.521
		l4.322,2.733l2.695,0.211l6.934-1.977l1.955-0.024l0.095,0.501l0.624,1.769l1.798,3.275l2.107,2.93l2.346,2.555l2.514,2.126
		l1.259,0.886l1.272,1.233l0.657,1.768l-0.582,2.496l-0.805,0.838l-4.407,3.579l-2.314,2.506l-2.452,3.561l-1.177,3.942l1.522,3.649
		l2.422,2.042l0.519,2.117l-0.812,5.635l-0.473,1.347l-1.045,1.408l-3.71,3.647l-0.986,0.435l-1.012,0.619l-0.158,0.354
		l-0.168,0.544l0.092,0.918l-0.21,1.258l-1.167,1.612l-0.841,4.931l-0.96,1.72l-0.21,0.326l-3.424,7.289l-0.135,0.401l-0.306,0.49
		l-0.473,0.489l-1.676,1.244l-0.578,0.653l-0.309,0.435l-1.643,3.031l-1.246,0.802l-1.111,0.449l-1.282,0.122l-3.572-0.204
		l-7.97-0.856l-11.171,3.235l-2.728,0.523l-1.486,0.754l-3.464,2.813l-4.378,5.041l-0.493,0.802l0.151,0.387l0.391,0.387
		l1.094,0.421l0.674,0.177l7.519,0.774l1.085,0.272l0.332,0.15l1.154,2.262l3.033,8.971l-3.799,0.951l-1.104,0.516l-1.42,1.575
		l-0.499,0.353l-0.47,0.204l-0.358,0.048l-0.394-0.02l-0.361-0.054l-0.667-0.244l-1.206-0.251l-1.275-0.088l-0.621,0.129l-0.43,0.17
		l-1.137,1.046l-1.127,0.808l-0.634,0.285l-0.634,0.047l-1.331-0.326l-0.509,0.095l-0.345,0.122l-0.207,0.353l-0.008,0.014
		L144.002,463.114z"/>
	<path class="st0" d="M161.851,343.521l4.756-8.245l10.04-17.435l10.053-17.439l8.762-15.222l6.195-10.78l2.353-4.082l2.872-5.013
		l1.532-1.942l2.044-1.033l5.771-0.014l17.543-0.034l17.537-0.021l17.53-0.027l17.537-0.034l16.804-0.013l-15.598,31.166
		l-1.239,2.422l-8.279,16.94l-0.296,0.423l-2.379,2.311l0.161,0.87l0.151,0.222l0.102,0.324l-0.256,0.225l-0.463,0.177l-1.098,0.102
		l-0.519,0.119l-0.509,0.734l-3.434,2.437l-0.421,0.082l-0.815-0.003l-0.388,0.051l-0.345,0.092l-0.296,0.154l-1.561,1.358
		l-0.532,0.174l-0.483,0.075l-0.398-0.041l-0.358,0.256l-0.289,0.543l-0.184,1.59l-0.332,1.249l-0.74,1.481l-0.414,0.631
		l-0.299,0.768l-0.132,0.467l-0.171,3.067l-0.716,1.187l-0.25,0.634l-0.079,0.355l-0.056,0.419l-0.003,0.416l0.092,0.812
		l0.085,0.355l0.118,0.348l0.286,0.6l0.174,0.269l0.131,0.293l0.384,0.59l2.547,3.09l0.21,0.413l0.095,0.402l0.003,1.674
		l0.151,0.743l0.536,1.275l0.736,1.135l0.789,0.89l2.393,2.246l0.503,0.109l0.723,0.02l3.714-0.457l1.617,0.324l3.517,1.653
		l0.279,2.379l-1.094,4.727l0.128,0.753l0.73,1.97l0.631,2.641l-1.962,0.453l-1.117,0.123l-3.112-0.566l-1.154,0.031l-2.882,0.961
		l-5.518,1.022l-1.016,0.692l-0.572,1.121l-3.277-0.232l-1.485,0.276l-3.07,1.383l-1.979,1.461l-5.511,1.284l-1.269,0.358
		l-0.641,0.317l-0.453,0.487l-1.676,2.479l-0.756,1.478l-0.089,0.351l-0.286,3.313l-0.076,0.402l-0.555,0.32l-0.48,0.218
		l-4.279,0.232l-2.491-3.031l-0.421-1.229l0.046-1.287l-0.96-0.783l-8.548-2.224l-0.657-1.768l-1.272-1.233l-1.259-0.886
		l-2.514-2.126l-2.346-2.555l-2.107-2.93l-1.798-3.275l-0.624-1.769l-0.095-0.501l-1.955,0.024l-6.934,1.977l-2.695-0.211
		l-4.322-2.733l-1.121-0.521l-0.841,0.072l-0.851,0.317l-2.166,1.333l-3.855,2.42l-4.151,0.32l-1.742,1.118l-4.282,4.981
		l-0.348,0.429l-6.497-0.296l-1.42-1.1l-1.246-13.69l-0.322-1.957l-1.896-0.723l-2.202-2.772L161.851,343.521z"/>
	<path class="st0" d="M303.18,262.188l0.739-0.001l17.536-0.034l17.53-0.027l17.53-0.034l11.414-0.014l2.491-0.294l2.284-0.839
		l1.499,0.791l0.624,1.033l-0.26,1.248l-1.075,1.484l0.763,1.433l-0.542,1.217l-1.301,0.547l-1.525-0.568l-0.243,0.66l-0.437,0.574
		l-0.191,0.653h-0.789l-1.505-0.961l-2.465,1.556l-1.318-0.595h-0.871l-0.486,0.817l-0.414,0.075l-0.914-0.892l-0.276,0.451
		l-0.158,0.4l-0.138-0.031l-0.217-0.82l-0.529,0.581l-0.832,0.718l-0.378,0.424l-1.686-0.882l-1.13-1.094l-1.282-0.759l-2.136,0.109
		v-0.985l0.621-0.198l0.628-0.369l0.565-0.256v-0.985l-0.881-0.534l-0.736-0.038l-0.578,0.499l-0.408,1.057h-0.871l-1.801-1.857
		l-3.286,0.718l-5.413,2.947l0.947,1.805l-1.137,0.752l0.02,0.574l0.24,0.691l-0.463,1.104l-0.884,0.53l-0.601-0.554l-0.408-0.875
		l-0.315-0.414l-1.433,0.639l-2.005,1.665l-1.696,0.407v0.984l0.529,0.451l1.127,1.272l0.871-0.902l0.227,0.41l-0.039,0.243
		l0.102,0.137l0.657,0.113v0.902l-1.259,0.909l-0.979,1.921l-1.236,4.395l3.168,0.335l0.769,2.272l-1.321,2.576l-3.089,1.22
		l-0.523,0.786l-1.689,4.632l-3.457,4.402l-0.805,1.912l1.67-0.195l1.485,0.174l1.206,0.642l0.851,1.185l-0.628,0.287l-0.562,0.481
		l-0.628,0.215v0.819l1.883,1.451l0.723,0.437l-1.719,1.229l-0.477,1.492l0.966,1.26l4.736,0.816l5.393,1.577l1.522,0.843
		l1.048-0.631l1.167-0.212l1.163,0.212l1.042,0.631l-0.45,0.106h-0.365l-0.191,0.171l0.059,0.625l2.412,1.556l1.279,1.703
		l0.102,1.891l-1.111,2.146l1.919,1.351l1.285,2.753l0.864,2.709l0.67,1.218l0.815,0.737l-0.861,1.569l-1.371,1.439l-0.716,0.351
		l-3.553,3.195v0.9l1.019,1.398l-1.545,0.825l-5.081,0.481l-1.709,0.88l-0.529,2.073l0.253,2.397l0.644,1.858l2.629,2.56l3.97,1.564
		l20.008,3.081l2.021,1.155l-0.108,2.682l-1.19,3.032l-1.196,2.215l-0.831,1.141l-4.775,6.55l-4.203,0.334l-14.907-0.654
		l-21.092-4.976l-1.052-0.548l-0.795,14.283l9.498,12.322l11.443,7.207l-0.059,0.619l-0.562,2.865l2.274,2.381l0.874,0.755
		l0.838,0.558l0.933,0.878l0.569,1.245l1.449,3.374l-1.752-0.653l-4.565-0.959l-3.743-1.286l-2.149-0.299h-6.553l-6.077-1.796
		l-1.969,0.041l-1.758,0.299l-1.495,0.327l-8.269,0.204l-2.314-0.442l-2.126,1.313l-2.172,0.585l-1.242,0.612l-0.237,0.17
		l-0.256,0.225l-0.802,1.313l-2.869,8.113l-0.93,0.789l-3.392,1.666l-2.097-0.755l-0.588,0.367l-0.496,1.788l-0.145,0.299
		l-0.174,0.265l-0.194,0.245l-0.263,0.177l-0.329,0.122l-0.385,0.014l-0.375-0.041l-0.339-0.367l-0.27-0.612l-0.181-1.414v-0.707
		l0.108-0.517l0.164-0.286l1.058-1.17l0.375-0.544l0.335-0.626l0.072-0.326l-0.237-0.422l-0.575-0.435l-1.479-0.564l-0.693-0.184
		l-0.552-0.095l-0.348-0.014l-0.365-0.068l-0.785-0.585l-1.203-2.169l-0.644-1.755l-1.551-0.728l-4.033-3.183l0.279-0.83
		l0.707-2.184l-0.039-0.823l-0.371-0.735l-2.09-1.47l-0.884-1.415l-0.595-2.354l-0.352-0.674l-0.256-0.388l-2.261-1.708
		l-1.361-0.878l-0.217-0.245l-0.158-0.313l-0.056-0.395l-0.02-0.408l0.099-1.021l0.302-0.865l0.424-0.619l1.025-0.81l0.641-0.279
		l0.546-0.136l1.331-0.027l0.371-0.279l0.299-0.51l0.115-1.334l-0.007-0.681l-0.795-1.484l-0.881-0.293l-0.177-1.825l-1.239-1.777
		l-0.628-2.574l-0.874-0.381l-3.543-3.661l-0.398-0.906l-1.722-0.858l-0.631-2.037l0.02-2.391l0.591-3.682l0.572-1.121l1.016-0.692
		l5.518-1.022l2.882-0.961l1.154-0.031l3.112,0.566l1.117-0.123l1.962-0.453l-0.631-2.641l-0.73-1.97l-0.128-0.753l1.094-4.727
		l-0.279-2.379l-3.517-1.653l-1.617-0.324l-3.714,0.457l-0.723-0.02l-0.503-0.109l-2.393-2.246l-0.789-0.89l-0.736-1.135
		l-0.536-1.275l-0.151-0.743l-0.003-1.674l-0.095-0.402l-0.21-0.413l-2.547-3.09l-0.384-0.59l-0.131-0.293l-0.174-0.269l-0.286-0.6
		l-0.118-0.348l-0.085-0.355l-0.092-0.812l0.003-0.416l0.056-0.419l0.079-0.355l0.25-0.634l0.716-1.187l0.171-3.067l0.132-0.467
		l0.299-0.768l0.414-0.631l0.74-1.481l0.332-1.249l0.184-1.59l0.289-0.543l0.358-0.256l0.398,0.041l0.483-0.075l0.532-0.174
		l1.561-1.358l0.296-0.154l0.345-0.092l0.388-0.051l0.815,0.003l0.421-0.082l3.434-2.437l0.509-0.734l0.519-0.119l1.098-0.102
		l0.463-0.177l0.256-0.225l-0.102-0.324l-0.151-0.222l-0.161-0.87l2.379-2.311l0.296-0.423l8.279-16.94l1.239-2.422L303.18,262.188z
		"/>
	<path class="st0" d="M372.704,260.944l0.045-0.056l3.445-0.356l25.94,4.001l21.641,6.972l0.835,0.089l0.207-0.161l0.02-0.031
		l0.069-0.164l0.079-0.267l0.345-0.342l0.552-0.325l1.39-0.205l0.565,0.151l0.335,0.362l0.102,0.441l0.352,0.448l0.483,0.096
		l0.697-0.164l0.352-0.003l0.197,0.061l0.496,0.571l0.302,0.062l0.365-0.068l0.355-0.164l1.025-0.198l0.237-0.147l0.069-0.082
		l0.01-0.044l-0.003-0.14l-0.03-0.267l-0.266-1.029l0.033-0.393l0.217-0.055l0.263,0.072l0.963,0.397l0.266,0.178l0.177,0.243
		l0.01,0.339l-0.069,0.291l-0.089,0.246l-0.039,0.079l-0.02,0.065l0.171,0.325l0.371,0.232l0.24,0.205l0.033,0.287l-0.319,0.906
		l2.159,1.665l1.449,0.301l0.312-0.133l0.565-0.585l2.222,1.521l1.196,0.147l0.713-0.113l0.309,0.171l0.384,0.537l0.434,0.797
		l1.66,2.259l0.332,0.783l0.201,0.66l0.598,1.172l0.453,0.414l0.43,0.154l0.345-0.099l0.463-0.051l0.542,0.038l1.969,0.301
		l4.279-0.236l0.68-0.195l0.237-0.137l0.148-0.126l0.158-0.184l0.529-0.769l0.217-0.225l0.246-0.195l0.335-0.113l0.381-0.01
		l1.114,0.099l0.355-0.058l0.69-0.4l0.47-0.345l0.384,0.038l0.371,0.103l2.997,1.394l0.355,0.205l2.011,1.716l2.652,1.825
		l0.716,0.355l0.592,0.208l1.706,0.103l0.694-0.167l0.315-0.133l0.286-0.174l1.489-1.21l0.891-0.048l7.874,1.042l0.483,0.003
		l0.375-0.082l0.335-0.123l0.292-0.167l0.26-0.202l0.559-0.191l0.776-0.167l1.765-0.085l0.808,0.075l0.546,0.212l0.102,0.332
		l0.316,6.885l0.076,0.133l0.168-0.024l3.365-1.572l2.711-0.54l2.156,1.175l1.012,0.099l1.531-0.707l3.822-0.967l-3.487,4.69
		l-1.298,1.039l-2.462,0.253l-0.45,0.232l-0.312,0.26l-0.644,1.199l-0.125,0.352l-1.548,2.828l-0.493,0.649l-0.45,0.355
		l-1.328,0.608l-2.126,1.506l-0.661,0.328l-1.318,0.41l-0.378,0.273l-0.263,0.331l-0.283,0.662l-8.012,11.337l-7.138,10.159
		l-0.933,2.221l0.348,0.102l0.565,0.341l0.25,0.215l0.256,0.283l0.184,0.229l0.483,0.802l2.813,3.036l1.002,1.514l1.114,1.231
		l1.666,1.531l0.45,0.72l0.181,0.512l-1.039,1.681l-0.158,0.31l-0.237,0.668l-0.368,1.463l-0.299,0.624l-0.174,0.263l-0.22,0.269
		l-0.233,0.225l-0.263,0.198l-2.412,1.159l-0.769,0.59l-0.207,0.246l-1.14,15.46l0.026,1.98l0.108,0.453l0.523,1.271l0.302,0.576
		l0.848,1.168l0.72,1.257l0.108,0.548l-0.01,0.678l-0.404,2.173l-0.033,0.722l0.033,0.572l0.243,0.685l0.565,1.24l2.281,3.263
		l-8.798,2.057l-4.062-0.272l-8.095,1.239l-1.499-0.313l-4.453-1.716l-2.935-0.109l-1.324,0.191l-3.493,1.566l-3.714,0.981
		l-2.116,0.177l-6.254-0.722l5.616-8.091l1.361-3.839l0.099-1.335l-0.246-0.654l-0.306-0.583l-0.598-0.743l-1.43-1.356l-0.947-0.562
		l-0.463-0.143l-0.427-0.089l-5.712,0.48l-1.15,0.273l-4.167,1.666l-4.985,0.174l-13.885-1.962l-6.113-1.479l-1.722-0.102
		l-0.549,0.385l-0.22,0.228l-0.197,0.255l-0.322,0.63l-0.108,0.286l-0.095,0.818l-1.025,4.071l-0.861,1.243l-0.605,0.528
		l-1.555,1.952l-0.496,0.524l-1.285,0.705l-0.503,0.061l-0.368-0.099l-1.357-1.355l-7.007-4.776l-2.751-0.879l-2.997,0.112
		l-4.272-0.112l-2.908-0.02l-2.951-0.14l0.831-1.141l1.196-2.215l1.19-3.032l0.108-2.682l-2.021-1.155l-20.008-3.081l-3.97-1.564
		l-2.629-2.56l-0.644-1.858l-0.253-2.397l0.529-2.073l1.709-0.88l5.081-0.481l1.545-0.825l-1.019-1.398v-0.9l3.553-3.195
		l0.716-0.351l1.371-1.439l0.861-1.569l-0.815-0.737l-0.67-1.218l-0.864-2.709l-1.285-2.753l-1.919-1.351l1.111-2.146l-0.102-1.891
		l-1.279-1.703l-2.412-1.556l-0.059-0.625l0.191-0.171h0.365l0.45-0.106l-1.042-0.631l-1.163-0.212l-1.167,0.212l-1.048,0.631
		l-1.522-0.843l-5.393-1.577l-4.736-0.816l-0.966-1.26l0.477-1.492l1.719-1.229l-0.723-0.437l-1.883-1.451v-0.819l0.628-0.215
		l0.562-0.481l0.628-0.287l-0.851-1.185l-1.206-0.642l-1.485-0.174l-1.67,0.195l0.805-1.912l3.457-4.402l1.689-4.632l0.523-0.786
		l3.089-1.22l1.321-2.576l-0.769-2.272l-3.168-0.335l1.236-4.395l0.979-1.921l1.259-0.909v-0.902l-0.657-0.113l-0.102-0.137
		l0.039-0.243l-0.227-0.41l-0.871,0.902l-1.127-1.272l-0.529-0.451v-0.984l1.696-0.407l2.005-1.665l1.433-0.639l0.315,0.414
		l0.408,0.875l0.601,0.554l0.884-0.53l0.463-1.104l-0.24-0.691l-0.02-0.574l1.137-0.752l-0.947-1.805l5.413-2.947l3.286-0.718
		l1.801,1.857h0.871l0.408-1.057l0.578-0.499l0.736,0.038l0.881,0.534v0.985l-0.565,0.256l-0.628,0.369l-0.621,0.198v0.985
		l2.136-0.109l1.282,0.759l1.13,1.094l1.686,0.882l0.378-0.424l0.832-0.718l0.529-0.581l0.217,0.82l0.138,0.031l0.158-0.4
		l0.276-0.451l0.914,0.892l0.414-0.075l0.486-0.817h0.871l1.318,0.595l2.465-1.556l1.505,0.961h0.789l0.191-0.653l0.437-0.574
		l0.243-0.66l1.525,0.568l1.301-0.547l0.542-1.217l-0.763-1.433l1.075-1.484l0.26-1.248l-0.624-1.033L372.704,260.944z"/>
	<path class="st0" d="M655.998,307.711l-1.486,0.56l-0.398,1.188l0.105,1.434l-0.848,1.762l-0.785-0.983l-2.192,0.935l-1.87,1.038
		l-2.021,0.758l-2.682,0.055l-0.716,0.969l-3.848,6.652l-5.906,5.824l-8.705,6.873l-4.145,3.278l-11.112,8.658l-11.042,8.607
		l-11.028,8.585l-10.955,8.526l-16.077,12.508l-4.433,2.107l-12.916,4.34l-3.904,1.984l-0.816,0.673l-0.068-0.053l-0.345-0.272
		l-0.92-0.408l-0.555-0.395l-2.475-2.995l-0.25-0.735l-0.756-3.718l-0.191-2.07l0.079-1.267l-0.046-0.817l-0.992-4.189l-0.013-0.875
		l0.138-0.535l1.594-0.64l0.523-0.365l0.227-0.208l0.214-0.266l0.315-0.589l0.112-0.296l0.148-0.858l0.283-3.301l-0.059-0.841
		l-0.099-0.368l-0.204-0.412l-0.299-0.453l-0.631-0.681l-0.408-0.358l-0.365-0.245l-2.961-1.618l-1.272-0.307l-3.898-0.388
		l-2.951,0.641l-1.84,0.92l-3.319,2.497l-14.884,6.029l-15.072,5.091l-1.89,0.422l-5.196,0.613l-2.281-3.263l-0.565-1.24
		l-0.243-0.685l-0.033-0.572l0.033-0.722l0.404-2.173l0.01-0.678l-0.108-0.548l-0.72-1.257l-0.848-1.168l-0.302-0.576l-0.523-1.271
		l-0.108-0.453l-0.026-1.98l1.14-15.46l0.207-0.246l0.769-0.59l2.412-1.159l0.263-0.198l0.233-0.225l0.22-0.269l0.174-0.263
		l0.299-0.624l0.368-1.463l0.237-0.668l0.158-0.31l1.039-1.681l-0.181-0.512l-0.45-0.72l-1.666-1.531l-1.114-1.231l-1.002-1.514
		l-2.813-3.036l-0.483-0.802l-0.184-0.229l-0.256-0.283l-0.25-0.215l-0.565-0.341l-0.348-0.102l0.933-2.221l7.138-10.159
		l8.012-11.337l0.283-0.662l0.263-0.331l0.378-0.273l1.318-0.41l0.661-0.328l2.126-1.506l1.328-0.608l0.45-0.355l0.493-0.649
		l1.548-2.828l0.125-0.352l0.644-1.199l0.312-0.26l0.45-0.232l2.462-0.253l1.298-1.039l3.487-4.69l1.495-0.875l0.499-0.495
		l0.217-0.444l0.151-0.437l0.233-0.916l0.815-2.166l1.466-1.497l11.703-0.239l2.984,0.427l0.651,0.499l0.092,0.085l0.085,0.079
		l-0.062,1.664l1.052,1.729l0.286-0.424l1.203-0.608l1.489-0.499l1.154-0.068l2.33-0.97l9.734,0.458l3.628-0.622l4.078-0.027
		l11.25,2.918l4.822-1.891l1.775,0.807l4.301,3.637l4.399-1.098l5.631,1.264l4.332,2.55l0.481,2.776l2.888,0.479l12.825,8.1
		l-1.568,5.958l0.264,0.887h3.431l1.382-0.532l0.404-1.129l-0.145-0.989l-0.3-0.14l-0.036-0.548l-0.43-0.468l-0.409-0.613
		l0.016-0.995l0.637-0.199l1.18,0.134l1.144-0.194l0.507-1.172l0.492-2.124l1.123-1.452l1.201-1.129l0.735-1.162l0.155-2.033
		l-0.973-3.131l-0.124-2.061h0.942l-0.047,1.383l0.047,0.425h0.792l1.516-1.001l3.701,0.721l1.806-0.71l-2.94-2.755l-1.635-1.248
		l-2.35-1.076l-0.983-1.324l-0.849-1.507l-0.87-1.114l-5.476-3.1l-1.563-1.965l1.832-2.164l1.941,1.141l3.607,1.582l1.47,0.888
		l3.695,3.913l2.671,1.544l6.656,5.602l13.11,6.181l4.301,3.905l1.351,0.608l5.605,4.948l4.425,1.914L655.998,307.711z"/>
	<path class="st0" d="M538.216,394.042l-1.764,1.454l-1.522,2.375l-2.011,6.074l2.478,2.327l-0.007,3.47l-1.574,3.738l-0.978,1.396
		l-0.044-0.1l-0.401-0.905l-0.177-0.299l-0.128-0.299l-0.168-0.299l-0.371-0.925l-0.486-0.905l-0.197-0.279l-0.204-0.238
		l-0.227-0.211l-0.243-0.17l-0.325-0.143l-0.67,0.102l-0.966,0.279l-2.81,1.442l-0.851,0.592l-0.523,0.496l-0.657,1l-0.591,0.673
		l-0.779,0.639l-1.512,0.503l-0.956,0.041l-0.815-0.565l-0.513-0.673l-1.988-0.626l-6.277,2.129h-2.07l-1.752-1.197l-2.787-0.85
		l-1.052-0.027l-2.458,0.714l-7.687,6.196l-1.936,0.469l-6.809-0.129l-1.873-0.435l-4.082-1.999l-4.322-2.231l-1.495-0.19
		l-2.176,1.687l-2.905,2.761l-0.171,0.66l0.391,3.216l-0.516,2.162l-3.01,5.459l-1.446-0.401l-2.025-0.313h-3.408l-0.411-0.054
		l-0.736-0.85l-1.048-1.502l-2.028-3.896l-1.18-1.68l-0.756-1.346l-0.365-0.476l0.983-2.197l2.849-3.231l1.6-0.707l2.728-0.082
		l0.621-0.109l0.509-0.218l0.253-0.626l0.27-2.598l-0.315-0.422l-0.644-0.395l-1.63-0.231l-1.551-0.823l-1.016-1.449l-5.594-7.737
		l-0.345-0.626l-0.118-0.517l0.513-0.204l0.605-0.082l6.152-0.129l-0.125-1.77l-5.659-8.591l-4.7-6.768l3.493-1.566l1.324-0.191
		l2.935,0.109l4.453,1.716l1.499,0.313l8.095-1.239l4.062,0.272l8.798-2.057l5.196-0.613l1.89-0.422l15.072-5.091l14.884-6.029
		l3.319-2.497l1.84-0.92l2.951-0.641l3.898,0.388l1.272,0.307l2.961,1.618l0.365,0.245l0.408,0.358l0.631,0.681l0.299,0.453
		l0.204,0.412l0.099,0.368l0.059,0.841l-0.283,3.301l-0.148,0.858l-0.112,0.296l-0.315,0.589l-0.214,0.266l-0.227,0.208
		l-0.523,0.365l-1.594,0.64l-0.138,0.535l0.013,0.875l0.992,4.189l0.046,0.817l-0.079,1.267l0.191,2.07l0.756,3.718l0.25,0.735
		l2.475,2.995l0.555,0.395l0.92,0.408l0.345,0.272L538.216,394.042z"/>
	<path class="st0" d="M218.761,519.424l-13.235-8.241l-18.524-13.603l-17.985-16.304l-14.348-10.416l0.008-0.014l0.207-0.353
		l0.345-0.122l0.509-0.095l1.331,0.326l0.634-0.047l0.634-0.285l1.127-0.808l1.137-1.046l0.43-0.17l0.621-0.129l1.275,0.088
		l1.206,0.251l0.667,0.244l0.361,0.054l0.394,0.02l0.358-0.048l0.47-0.204l0.499-0.353l1.42-1.575l1.104-0.516l3.799-0.951
		l1.029-0.72l0.661-0.292l0.306-0.061l0.536,0.149l7.477,3.219l1.436,0.231l3.714-0.339l5.301-1.202l3.967-5.962l1.249-1.46
		l0.283-0.543l0.296-0.856l0.447-1.888l0.44-1.195l0.562-1.195l2.281-3.424l0.572-1.264l1.104-3.608l0.851-1.352l4.552-2.229
		l1.722-1.903l0.943-0.816l0.539-0.36l0.348-0.19l0.381-0.156l0.542-0.082l0.437,0.027l0.342,0.122l0.217,0.319l0.145,0.285
		l-0.194,1.611l-1.821,4.342l-0.358,2.303l0.339,0.367l0.634,0.326l1.581,0.292l0.739,0.224l0.999,0.054l1.193-1.141l0.371-0.876
		l0.27-0.197l0.421-0.19l0.74,0.217l0.785,0.448h0.348l0.45-0.163l0.956-1.053l0.631-0.904l0.135-0.285l0.726-1.128l0.434-0.462
		l0.345-0.143l0.473-0.041l1.328,0.347l0.766,0.279l0.697,0.17l0.417,0.014l0.611-0.197l0.756-0.374l2.6-1.76l0.782-0.245
		l1.538,0.129l2.005,0.856l-3.825,3.398l-2.882,3.261l-0.339,0.523l-0.391,0.802l-0.085,0.374l-0.072,1.474l0.102,1.678l0.069,1.291
		l-5.022,10.31l-0.056,0.822l0.016,0.428l0.049,0.38l-1.012,7.699l0.105,0.787l0.191,0.686l0.253,0.658l1.607,2.878l0.076,0.977
		l-0.582,8.543l0.085,1.744l-0.062,0.855l-0.108,0.604l-1.446,2.157l-1.584,4.843l-0.585,3.906l-0.263,4.313l-0.148,0.827
		l-0.141,0.292l-3.628,5.41l0.759,5.233L218.761,519.424z"/>
	<path class="st0" d="M232.324,527.302l-10.843-6.184l-2.72-1.693l-0.096-1.068l-0.759-5.233l3.628-5.41l0.141-0.292l0.148-0.827
		l0.263-4.313l0.585-3.906l1.584-4.843l1.446-2.157l0.108-0.604l0.062-0.855l-0.085-1.744l0.582-8.543l-0.076-0.977l-1.607-2.878
		l-0.253-0.658l-0.191-0.686l-0.105-0.787l1.012-7.699l-0.049-0.38l-0.016-0.428l0.056-0.822l5.022-10.31l-0.069-1.291l-0.102-1.678
		l0.072-1.474l0.085-0.374l0.391-0.802l0.339-0.523l2.882-3.261l3.825-3.398l5.193-3.5l0.618,0.761l0.362,0.612l1.584,4.234
		l0.141,0.72l0.036,0.449l-0.605,1.848l-3.017,5.802l1.873,1.793l5.794,0.802l1.696,0.475l0.638-1.8l0.115-1.012l-0.092-1.658
		l0.033-0.381l0.118-0.374l0.197-0.36l0.348-0.353l0.618-0.435l0.444-0.245l0.776-0.258l0.989,0.095l1.893,0.897l1.449,1.719
		l0.108,0.075l2.846-0.251l1.439-0.319l0.477,0.082l0.375,0.109l1.321,1.44l3.697,3.288l0.578,0.693l0.237,0.55l0.197,1.073
		l0.039,1.216l-0.046,0.401l-0.306,1.487l-0.003,0.394l0.059,0.38l0.381,0.265l0.358,0.19l2.869-0.414l3.53-1.861l1.121-0.149
		l1.311,0.034l0.746,0.143l1.232,0.455l1.689,1.066l4.956,3.816l0.884,0.808l0.815,0.883l0.453,0.604l0.233,1.283l-0.227,2.953
		v1.717l-1.801,4.887l-3.592,7.417l-0.841,2.239l-0.365,6.289l-0.132,0.739l-0.177,0.516l-0.578,0.855l-1.13,2.225l-0.786,0.515
		l-14.835-1.099l-0.809-0.203l0.631-3.147l-1.377-1.37l-2.32,2.591l-1.029,0.624l-1.269,0.034l-0.828-0.129l-0.486-0.217
		l-0.641-0.387l-0.542-0.522l-0.266-0.414l-0.128-0.387l-0.036-0.38l0.036-0.387l0.27-1.092l-0.023-0.421l-0.128-0.421l-0.618-0.855
		l-0.184-0.332l-0.112-0.305l-0.007-0.36l0.092-0.346l0.132-0.312l0.923-1.371l-0.02-0.502l-0.233-0.651l-0.822-1.282l-0.552-0.428
		l-0.49-0.197l-1.035,0.332l-0.595,0.319l-3.625,2.68l-0.454,0.461l-0.174,0.271l-0.26,0.624l-0.27,1.099l-0.039,0.814l0.072,0.834
		l0.217,1.146l0.247,0.651l0.615,1.167l0.115,0.312l0.039,0.339l-0.256,0.38l-0.431,0.373l-0.894,0.543l-0.523,0.122l-0.348-0.102
		l-0.174-0.285l-0.322-1.011l-0.447-0.611l-1.006-0.719l-1.314,0.821l-0.197,0.434l-0.22,0.902l-0.076,1.594l0.059,1.058
		l0.483,3.099l0.296,5.282l-0.168,2.115l-0.782,1.044l-0.664,0.678l-0.605,0.99l-1.042,2.271l-6.179,9.143l-0.276,0.732l-0.118,0.61
		l0.431,2.026l0.128,1.077L232.324,527.302z"/>
	<path class="st0" d="M349.919,545.208l-1.359-0.221l-8.809-0.856l-9.837,0.963l-1.48,0.443l-14.511,0.921l-16.969-0.321
		l-15.52-1.719l-19.168-3.797l-29.942-13.319l2.97,1.178l-0.128-1.077l-0.431-2.026l0.118-0.61l0.276-0.732l6.179-9.143l1.042-2.271
		l0.605-0.99l0.664-0.678l0.782-1.044l0.168-2.115l-0.296-5.282l-0.483-3.099l-0.059-1.058l0.076-1.594l0.22-0.902l0.197-0.434
		l1.314-0.821l1.006,0.719l0.447,0.611l0.322,1.011l0.174,0.285l0.348,0.102l0.523-0.122l0.894-0.543l0.431-0.373l0.256-0.38
		l-0.039-0.339l-0.115-0.312l-0.615-1.167l-0.247-0.651l-0.217-1.146l-0.072-0.834l0.039-0.814l0.27-1.099l0.26-0.624l0.174-0.271
		l0.454-0.461l3.625-2.68l0.595-0.319l1.035-0.332l0.49,0.197l0.552,0.428l0.822,1.282l0.233,0.651l0.02,0.502l-0.923,1.371
		l-0.132,0.312l-0.092,0.346l0.007,0.36l0.112,0.305l0.184,0.332l0.618,0.855l0.128,0.421l0.023,0.421l-0.27,1.092l-0.036,0.387
		l0.036,0.38l0.128,0.387l0.266,0.414l0.542,0.522l0.641,0.387l0.486,0.217l0.828,0.129l1.269-0.034l1.029-0.624l2.32-2.591
		l1.377,1.37l-0.631,3.147l0.809,0.203l14.835,1.099l0.786-0.515l1.13-2.225l0.578-0.855l0.177-0.516l0.132-0.739l0.365-6.289
		l0.841-2.239l3.592-7.417l1.771,1.317l0.319,0.299l0.598,0.292l0.572,0.081l1.15-0.122l0.582-0.163l0.454-0.176l1.689-0.977
		l0.315-0.129l0.365-0.102l0.384-0.054l0.565,0.217l0.667,0.421l1.255,1.127l0.753,0.516l0.687,0.305l0.933-0.081l0.473-0.163
		l0.355-0.224l0.651-0.733l0.48-0.394l0.325-0.095l0.335,0.231l0.315,0.516l0.263,2.124l0.01,1.065l0.079,0.434l0.2,0.353
		l0.352,0.366l0.907-0.448l2.432-4.934l0.746-1.907l0.168-0.339l0.884-1.113l2.659-2.539l3.388-2.702l3.747,3.259l1.022,1.1
		l0.128,0.319l0.089,0.366l0.966,2.063l1.591,2.64l0.799,0.923l0.605,0.414l3.362-2.898l0.854-0.977l0.2-0.265l0.624-1.161
		l0.598-0.774l0.293-0.278l0.243-0.176l1.101-0.618h1.844l0.736-0.448l0.631-0.978l0.848-0.258l0.49,0.353l0.187,0.285l1.41,3.055
		l8.164-3.245l1.624,4.887l1.873,1.656l1.045,0.353l1.65-0.041l0.381,0.054l0.315,0.136l0.532,1.744l0.841,6.751l-0.099,4.349
		l0.401,1.567l1.545,3.602l0.776,2.842l-1.873,1.818l-0.769,1.478l-0.398,1.417l0.023,0.631l0.184,0.407l0.289,0.136l0.532,0.169
		l1.722,0.332l0.822,0.054l0.815-0.027l0.375-0.068l1.972-0.732l0.493-0.041l0.578,0.108l1.104,0.542l0.316,0.441l0.076,0.38
		l-1.574,2.027l-2.067,1.953l-0.818,0.529l-0.329,0.142l-2.353,0.366l-0.851,0.4l0.02,1.823l0.457,0.861l0.237,0.271l1.837,1.722
		l0.247,0.542l0.049,0.427l-0.161,0.285l-0.381,0.522l-0.48,0.42l-1.683,0.99l-0.638,0.637l-0.956,1.843l-0.384,1.288l-0.302,0.19
		l-0.388,0.19l-1.42,0.217l-1.433,0.379l-0.532,0.562l-0.266,0.651l-0.039,16.278L349.919,545.208z"/>
	<path class="st0" d="M399.114,562.495l-0.635-0.263l-19.792-8.889l-12.599-4.731l-10.202-2.433l-5.968-0.97l-0.013-1.446
		l0.039-16.278l0.266-0.651l0.532-0.562l1.433-0.379l1.42-0.217l0.388-0.19l0.302-0.19l0.384-1.288l0.956-1.843l0.638-0.637
		l1.683-0.99l0.48-0.42l0.381-0.522l0.161-0.285l-0.049-0.427l-0.247-0.542l-1.837-1.722l-0.237-0.271l-0.457-0.861l-0.02-1.823
		l0.851-0.4l2.353-0.366l0.329-0.142l0.818-0.529l2.067-1.953l1.574-2.027l-0.076-0.38l-0.316-0.441l-1.104-0.542l-0.578-0.108
		l-0.493,0.041l-1.972,0.732l-0.375,0.068l-0.815,0.027l-0.822-0.054l-1.722-0.332l-0.532-0.169l-0.289-0.136l-0.184-0.407
		l-0.023-0.631l0.398-1.417l0.769-1.478l1.873-1.818l3.635-1.309l0.983-0.671l2.412-2.245l2.458-1.173l1.006-0.38l0.746-0.163
		l0.325-0.122l0.233-0.163l1.055-1.289l0.394-0.339l0.398-0.244l0.342-0.122l0.296-0.149l0.263-0.19l0.23-0.21l0.628-0.726
		l0.181-1.635l-0.68-6.154l2.337-5.986l5.229-8.281l2.159-0.991l0.519-0.054l0.963,0.265l0.339,0.353l0.243,0.394l0.194,1.582
		l0.112,0.34l0.145,0.285l0.22,0.244l0.572-0.149l0.835-0.516l2.422-2.22l0.707-0.767l1.042-0.38h1.121l1.518-0.72l1.591,1.697
		l0.256,0.353l0.493,0.367l0.276,0.149l1.765-0.231l1.63-0.312l13.984-2.648l0.651,3.096l1.134,1.806l4.539,3.761l3.359,2.579
		l-2.297,7.227l-1.781,0.204l0.385,2.49l-0.138,0.407l-0.286,0.129l-0.641-0.224l-0.611-0.305l-1.407-0.075l-4.427,0.875
		l-0.279,0.217l-1.693,1.472l-4.526,11.287l1.834,1.336l5.899,1.675l0.73,0.298l0.493,0.393l0.874,0.902l3.95,3.268l3.106,3.044
		l0.615,1.308l-0.187,2.874l0.585,5.205l-0.016,0.4l-0.135,0.766l-0.365,1.118l-0.67,1.464l-2.212,3.164l-0.723,0.799l-0.296,0.115
		l-1.712,0.325l-1.462,0.42l-0.72,0.427l-0.444,0.332l-0.799,1.463l-1.985,3.739l-1.988,1.382l-0.414,0.075l-0.532,0.034
		l-1.269-0.508l-4.999-1.212l-0.651-0.257l-2.461-2.08l-3.572-2.073l-2.31,0.65l-0.779,0.589l-0.184,0.461l-0.148,0.752l0.026,0.684
		l0.082,0.474l0.44,0.948l0.417,0.528l0.638,0.671l0.204,0.535l0.92,5.411l0.151,0.312l0.21,0.237l0.263,0.19l0.641,0.305
		l0.375,0.623l0.43,1.05l1.232,4.577l1.64,2.979l0.22,0.663l0.089,0.63l-0.049,2.349l-0.825,3.263L399.114,562.495z"/>
	<path class="st0" d="M332.38,432.66l-1.988,3.637l-0.371,1.652l0.707,3.799l0.421,1.25l0.394,2.337l0.033,0.802l-0.039,0.591
		l-0.365,0.646l-0.769,0.965l-1.693,3.682l-3.208,2.337l-5.735,6.398l-2.757,5.324l-0.687,3.612l0.079,0.76l0.039,0.149
		l-3.388,2.702l-2.659,2.539l-0.884,1.113l-0.168,0.339l-0.746,1.907l-2.432,4.934l-0.907,0.448l-0.352-0.366l-0.2-0.353
		l-0.079-0.434l-0.01-1.065l-0.263-2.124l-0.315-0.516l-0.335-0.231l-0.325,0.095l-0.48,0.394l-0.651,0.733l-0.355,0.224
		l-0.473,0.163l-0.933,0.081l-0.687-0.305l-0.753-0.516l-1.255-1.127l-0.667-0.421l-0.565-0.217l-0.384,0.054l-0.365,0.102
		l-0.315,0.129l-1.689,0.977l-0.454,0.176l-0.582,0.163l-1.15,0.122l-0.572-0.081l-0.598-0.292l-0.319-0.299l-1.771-1.317
		l1.801-4.887v-1.717l0.227-2.953l-0.233-1.283l-0.453-0.604l-0.815-0.883l-0.884-0.808l1.061-10.472l0.01-2.935l0.381-1.209
		l1.025-1.447l2.616-6.285l-0.263-2.82l0.099-0.462l0.835-2.556l-2.051-9.864l-0.316-0.85l3.392-1.666l0.93-0.789l2.869-8.113
		l0.802-1.313l0.256-0.225l0.237-0.17l1.242-0.612l2.172-0.585l2.126-1.313l2.314,0.442l8.269-0.204l1.495-0.327l1.758-0.299
		l1.969-0.041l6.077,1.796h6.553l2.149,0.299l3.743,1.286l4.565,0.959l1.752,0.653l-0.335,2.034l-0.069,0.327l-0.135,0.388
		l-0.158,0.306l-0.24,0.361l-0.447,0.394l-0.572,0.408l-1.407,0.476l-0.615,0.367l-1.936,1.523l-0.624,0.258l-0.506,0.054
		l-0.319-0.136l-0.371-0.027L338,422.863l-0.302,0.143l-0.532,0.374l-0.536,0.469l-0.739,1.285l-1.18,3.943L332.38,432.66z"/>
	<path class="st0" d="M316.44,470.601l-0.039-0.149l-0.079-0.76l0.687-3.612l2.757-5.324l5.735-6.398l3.208-2.337l1.693-3.682
		l0.769-0.965l0.365-0.646l0.039-0.591l-0.033-0.802l-0.394-2.337l-0.421-1.25l-0.707-3.799l0.371-1.652l1.988-3.637l2.961,2.699
		l1.673,0.992l1.213,0.272l1.206,0.041l1.551-0.265l0.391,0.007l0.371,0.082l1.282,1.223l3.839,4.927l1.124,3.764l1.702,1.964
		l1.226,1.434l0.168,0.299l0.072,0.985l-0.69,2.398l0.25,1.535l-1.065,1.202l-0.664,1.603l-0.92,10.553l-1.098,4.929l-8.164,3.245
		l-1.41-3.055l-0.187-0.285l-0.49-0.353l-0.848,0.258l-0.631,0.978l-0.736,0.448h-1.844l-1.101,0.618l-0.243,0.176l-0.293,0.278
		l-0.598,0.774l-0.624,1.161l-0.2,0.265l-0.854,0.977l-3.362,2.898l-0.605-0.414l-0.799-0.923l-1.591-2.64l-0.966-2.063
		l-0.089-0.366l-0.128-0.319l-1.022-1.1L316.44,470.601z"/>
	<path class="st0" d="M346.971,473.303l1.098-4.929l0.92-10.553l0.664-1.603l1.065-1.202l-0.25-1.535l0.69-2.398l-0.072-0.985
		l-0.168-0.299l-1.226-1.434l-1.702-1.964l-1.124-3.764l-3.839-4.927l-1.282-1.223l-0.371-0.082l-0.391-0.007l-1.551,0.265
		l-1.206-0.041l-1.213-0.272l-1.673-0.992l-2.961-2.699l2.33-3.583l1.18-3.943l0.739-1.285l0.536-0.469l0.532-0.374l0.302-0.143
		l0.335-0.054l0.371,0.027l0.319,0.136l0.506-0.054l0.624-0.258l1.936-1.523l0.615-0.367l1.407-0.476l0.572-0.408l0.447-0.394
		l0.24-0.361l0.158-0.306l0.135-0.388l0.069-0.327l0.335-2.034l4.532,1.66l1.893-0.361l0.976,1.088l0.671,0.299l0.539-0.17
		l0.575-0.32h0.789l1.936,0.306l3.198-0.667l3.237-1.156l2.054-1.184h0.947l0.611,1.211l0.953,0.571l1.233,0.143l1.466-0.122
		l1.683-0.449l0.513-0.653l0.306-0.755l1.052-0.762l2.071-0.401l0.989,0.823l0.555,1.544l-1.568,2.816l-0.319,0.34l-0.362,0.551
		v0.517l0.128,0.728l0.187,0.428l0.227,0.292l0.24,0.204l0.27,0.17l0.329,0.129l0.785,0.116l0.799-0.082l1.788-0.503l2.905-0.218
		l0.923,0.326l0.197,0.286l0.582,1.197l1.154,3.305l0.483,3.209l-0.184,1.074l-0.161,0.224l-0.181,0.184l-0.519,0.707l-0.513,0.924
		l-0.158,0.612l0.046,0.557l0.122,0.306l0.569,1.081l2.669,2.855l1.193,0.924l7.408,2.705l1.722,0.87l0.769,0.652l1.39,1.624
		l1.354,0.455l-1.157,2.935l-0.592,0.938l-0.246,0.204l-1.085,0.7l-4.134,3.478l-0.74,3.118l-0.059,2.065l-0.329,1.073l-0.309,0.598
		l-0.5,0.401l-0.217,0.808l-0.109,0.652l-0.207,4.06l-1.518,0.72h-1.121l-1.042,0.38l-0.707,0.767l-2.422,2.22l-0.835,0.516
		l-0.572,0.149l-0.22-0.244l-0.145-0.285l-0.112-0.34l-0.194-1.582l-0.243-0.394l-0.339-0.353l-0.963-0.265l-0.519,0.054
		l-2.159,0.991l-5.229,8.281l-2.337,5.986l0.68,6.154l-0.181,1.635l-0.628,0.726l-0.23,0.21l-0.263,0.19l-0.296,0.149l-0.342,0.122
		l-0.398,0.244l-0.394,0.339l-1.055,1.289l-0.233,0.163l-0.325,0.122l-0.746,0.163l-1.006,0.38l-2.458,1.173l-2.412,2.245
		l-0.983,0.671l-3.635,1.309l-0.776-2.842l-1.545-3.602l-0.401-1.567l0.099-4.349l-0.841-6.751l-0.532-1.744l-0.315-0.136
		l-0.381-0.054l-1.65,0.041l-1.045-0.353l-1.873-1.656L346.971,473.303z"/>
	<path class="st0" d="M393.435,467.315l0.207-4.06l0.109-0.652l0.217-0.808l0.5-0.401l0.309-0.598l0.329-1.073l0.059-2.065
		l0.74-3.118l4.134-3.478l1.085-0.7l0.246-0.204l0.592-0.938l1.157-2.935l0.227-0.088l0.897-0.387l2.038-1.176l0.493-1.407
		l0.135-0.856l0.227-0.381l0.506-0.326l3.352-1.291l4.282-1.447l1.926,0.238l1.558,0.768l1.016,0.333l0.595-0.299l0.477-0.517
		l3.964-7.409l2.941-0.884l4.282-0.503l3.839-1.421l3.71-2.019l4.44-5.603l1.722-1.564l0.716-0.286l0.74-0.156l1.64-0.068
		l1.988,0.15l-0.983,2.197l0.365,0.476l0.756,1.346l1.18,1.68l2.028,3.896l1.048,1.502l0.736,0.85l0.411,0.054h3.408l2.025,0.313
		l1.446,0.401l6.027-0.313l1.643,0.476l0.664,1.061l0.486,1.407l0.256,1.516l-0.013,0.421l-0.266,1.59l-0.109,0.374l-0.076,0.387
		l-0.039,0.782l0.148,0.734l0.463,1.094l0.496,1.543l-4.555,12.718l-0.453,2.805l0.437,0.061l1.357-0.061l0.973,2.941l0.02,1.29
		l-0.089,0.421l-2.744,1.623l-7.934,3.863l-0.256-0.122l-1.403-1.113l-0.848-0.862l-0.411-0.509l-0.483-0.407l-0.91-0.17
		l-2.478,0.686l-2.087,1.412l-2.435,1.616l-2.59,1.772l-1.065,1.582l-0.667,4.521l-5.669-4.48l-0.388-0.177l-0.348-0.122
		l-0.375-0.082l-0.513-0.041l-0.572,0.041l-0.878,0.177l-0.483,0.176l-0.365,0.197l-0.523,0.577l-3.027,4.018l-8.055,0.109
		l-3.359-2.579l-4.539-3.761l-1.134-1.806l-0.651-3.096l-13.984,2.648l-1.63,0.312l-1.765,0.231l-0.276-0.149l-0.493-0.367
		l-0.256-0.353L393.435,467.315z"/>
	<path class="st0" d="M403.117,446.287l-1.354-0.455l-1.39-1.624l-0.769-0.652l-1.722-0.87l-7.408-2.705l-1.193-0.924l-2.669-2.855
		l-0.569-1.081l-0.122-0.306l-0.046-0.557l0.158-0.612l0.513-0.924l0.519-0.707l0.181-0.184l0.161-0.224l0.184-1.074l-0.483-3.209
		l-1.154-3.305l-0.582-1.197l-0.197-0.286l-0.923-0.326l-2.905,0.218l-1.788,0.503l-0.799,0.082l-0.785-0.116l-0.329-0.129
		l-0.27-0.17l-0.24-0.204l-0.227-0.292l-0.187-0.428l-0.128-0.728v-0.517l0.362-0.551l0.319-0.34l1.568-2.816l1.597,1.551
		l4.207,0.755l6.474-1.061l0.631-2.115l2.018-6.428l20.185-14.059l10.865-7.311l4.897-3.336l3.428-1.907l6.254,0.722l2.116-0.177
		l3.714-0.981l4.7,6.768l5.659,8.591l0.125,1.77l-6.152,0.129l-0.605,0.082l-0.513,0.204l0.118,0.517l0.345,0.626l5.594,7.737
		l1.016,1.449l1.551,0.823l1.63,0.231l0.644,0.395l0.315,0.422l-0.27,2.598l-0.253,0.626l-0.509,0.218l-0.621,0.109l-2.728,0.082
		l-1.6,0.707l-2.849,3.231l-1.988-0.15l-1.64,0.068l-0.74,0.156l-0.716,0.286l-1.722,1.564l-4.44,5.603l-3.71,2.019l-3.839,1.421
		l-4.282,0.503l-2.941,0.884l-3.964,7.409l-0.477,0.517l-0.595,0.299l-1.016-0.333l-1.558-0.768l-1.926-0.238l-4.282,1.447
		l-3.352,1.291l-0.506,0.326l-0.227,0.381l-0.135,0.856l-0.493,1.407l-2.038,1.176l-0.897,0.387L403.117,446.287z"/>
	<path class="st0" d="M291.397,426.297l0.316,0.85l2.051,9.864l-0.835,2.556l-0.099,0.462l0.263,2.82l-2.616,6.285l-1.025,1.447
		l-0.381,1.209l-0.01,2.935l-1.061,10.472l-4.956-3.816l-1.689-1.066l-1.232-0.455l-0.746-0.143l-1.311-0.034l-1.121,0.149
		l-3.53,1.861l-2.869,0.414l-0.358-0.19l-0.381-0.265l-0.059-0.38l0.003-0.394l0.306-1.487l0.046-0.401l-0.039-1.216l-0.197-1.073
		l-0.237-0.55l-0.578-0.693l-3.697-3.288l-1.321-1.44l-0.375-0.109l-0.477-0.082l-1.439,0.319l-2.846,0.251l-0.108-0.075
		l-1.449-1.719l-1.893-0.897l-0.989-0.095l-0.776,0.258l-0.444,0.245l-0.618,0.435l-0.348,0.353l-0.197,0.36l-0.118,0.374
		l-0.033,0.381l0.092,1.658l-0.115,1.012l-0.638,1.8l-1.696-0.475l-5.794-0.802l-1.873-1.793l3.017-5.802l0.605-1.848l-0.036-0.449
		l-0.141-0.72l-1.584-4.234l-0.362-0.612l-0.618-0.761l3.714-5.118l1.551-5.153l0.493-0.449l5.814-4.964l1.111-0.381l1.505-0.211
		l2.931,0.449l1.167,0.333l0.726,0.326l0.91,0.109l2.619-1.129h1.752l0.894,0.163l2.025,0.673l0.394,0.054l0.831,0.02l0.694-0.136
		l1.403-0.435l1.752-1.741l1.689-2.435l2.491-2.49l1.551,0.728l0.644,1.755l1.203,2.169l0.785,0.585l0.365,0.068l0.348,0.014
		l0.552,0.095l0.693,0.184l1.479,0.564l0.575,0.435l0.237,0.422l-0.072,0.326l-0.335,0.626l-0.375,0.544l-1.058,1.17l-0.164,0.286
		l-0.108,0.517v0.707l0.181,1.414l0.27,0.612l0.339,0.367l0.375,0.041l0.385-0.014l0.329-0.122l0.263-0.177l0.194-0.245l0.174-0.265
		l0.145-0.299l0.496-1.788l0.588-0.367L291.397,426.297z"/>
	<path class="st0" d="M248.042,427.432l-1.551,5.153l-3.714,5.118l-5.193,3.5l-2.005-0.856l-1.538-0.129l-0.782,0.245l-2.6,1.76
		l-0.756,0.374l-0.611,0.197l-0.417-0.014l-0.697-0.17l-0.766-0.279l-1.328-0.347l-0.473,0.041l-0.345,0.143l-0.434,0.462
		l-0.726,1.128l-0.135,0.285l-0.631,0.904l-0.956,1.053l-0.45,0.163h-0.348l-0.785-0.448l-0.74-0.217l-0.421,0.19l-0.27,0.197
		L219,446.762l-1.193,1.141l-0.999-0.054l-0.739-0.224l-1.581-0.292l-0.634-0.326l-0.339-0.367l0.358-2.303l1.821-4.342l0.194-1.611
		l-0.145-0.285l-0.217-0.319l-0.342-0.122l-0.437-0.027l-0.542,0.082l-0.381,0.156l-0.348,0.19l-0.539,0.36l-0.943,0.816
		l-1.722,1.903l-4.552,2.229l-0.851,1.352l-1.104,3.608l-0.572,1.264l-2.281,3.424l-0.562,1.195l-0.44,1.195l-0.447,1.888
		l-0.296,0.856l-0.283,0.543l-1.249,1.46l-3.967,5.962l-5.301,1.202l-3.714,0.339l-1.436-0.231l-7.477-3.219l-0.536-0.149
		l-0.306,0.061l-0.661,0.292l-1.029,0.72l-3.033-8.971l-1.154-2.262l-0.332-0.15l-1.085-0.272l-7.519-0.774l-0.674-0.177
		l-1.094-0.421l-0.391-0.387l-0.151-0.387l0.493-0.802l4.378-5.041l3.464-2.813l1.486-0.754l2.728-0.523l11.171-3.235l7.97,0.856
		l3.572,0.204l1.282-0.122l1.111-0.449l1.246-0.802l1.643-3.031l0.309-0.435l0.578-0.653l1.676-1.244l0.473-0.489l0.306-0.49
		l0.135-0.401l3.424-7.289l0.21-0.326l0.96-1.72l0.841-4.931l1.167-1.612l0.21-1.258l-0.092-0.918l0.168-0.544l0.158-0.354
		l1.012-0.619l0.986-0.435l3.71-3.647l1.045-1.408l0.473-1.347l0.812-5.635l-0.519-2.117l-2.422-2.042l-1.522-3.649l1.177-3.942
		l2.452-3.561l2.314-2.506l4.407-3.579l0.805-0.838l0.582-2.496l8.548,2.224l0.96,0.783l-0.046,1.287l0.421,1.229l2.491,3.031
		l-2.225,0.729l-6.507,2.56l-0.283,0.15l-0.276,0.184l-0.256,1.083l0.651,3.799l3.132,11.972l0.5,1.926l0.953,1.272l2.123,1.925
		l-0.033,1.538l-0.26,0.707l-0.01,0.816l0.243,0.884l2.021,2.388l0.161,0.279l0.194,0.272l0.858,0.286l2.471-0.286l2.692-0.109
		l1.094,2.564l0.385,3.945l1.384,1.278L248.042,427.432z"/>
	<path class="st0" d="M378.844,416.722l-0.555-1.544l-0.989-0.823l-2.071,0.401l-1.052,0.762l-0.306,0.755l-0.513,0.653
		l-1.683,0.449l-1.466,0.122l-1.233-0.143l-0.953-0.571l-0.611-1.211h-0.947l-2.054,1.184l-3.237,1.156l-3.198,0.667l-1.936-0.306
		h-0.789l-0.575,0.32l-0.539,0.17l-0.671-0.299l-0.976-1.088l-1.893,0.361l-4.532-1.66l-1.449-3.374l-0.569-1.245l-0.933-0.878
		l-0.838-0.558l-0.874-0.755l-2.274-2.381l0.562-2.865l0.059-0.619l-11.443-7.207l-9.498-12.322l0.795-14.283l1.052,0.548
		l21.092,4.976l14.907,0.654l4.203-0.334l4.775-6.55l2.951,0.14l2.908,0.02l4.272,0.112l2.997-0.112l2.751,0.879l7.007,4.776
		l1.357,1.355l0.368,0.099l0.503-0.061l1.285-0.705l0.496-0.524l1.555-1.952l0.605-0.528l0.861-1.243l1.025-4.071l0.095-0.818
		l0.108-0.286l0.322-0.63l0.197-0.255l0.22-0.228l0.549-0.385l1.722,0.102l6.113,1.479l13.885,1.962l4.985-0.174l4.167-1.666
		l1.15-0.273l5.712-0.48l0.427,0.089l0.463,0.143l0.947,0.562l1.43,1.356l0.598,0.743l0.306,0.583l0.246,0.654l-0.099,1.335
		l-1.361,3.839l-5.616,8.091l-3.428,1.907l-4.897,3.336l-10.865,7.311l-20.185,14.059l-2.018,6.428l-0.631,2.115l-6.474,1.061
		l-4.207-0.755L378.844,416.722z"/>
	<path class="st0" d="M248.042,427.432l-2.504-4.386l-1.384-1.278l-0.385-3.945l-1.094-2.564l-2.692,0.109l-2.471,0.286
		l-0.858-0.286l-0.194-0.272l-0.161-0.279l-2.021-2.388l-0.243-0.884l0.01-0.816l0.26-0.707l0.033-1.538l-2.123-1.925l-0.953-1.272
		l-0.5-1.926l-3.132-11.972l-0.651-3.799l0.256-1.083l0.276-0.184l0.283-0.15l6.507-2.56l2.225-0.729l4.279-0.232l0.48-0.218
		l0.555-0.32l0.076-0.402l0.286-3.313l0.089-0.351l0.756-1.478l1.676-2.479l0.453-0.487l0.641-0.317l1.269-0.358l5.511-1.284
		l1.979-1.461l3.07-1.383l1.485-0.276l3.277,0.232l-0.591,3.682l-0.02,2.391l0.631,2.037l1.722,0.858l0.398,0.906l3.543,3.661
		l0.874,0.381l0.628,2.574l1.239,1.777l0.177,1.825l0.881,0.293l0.795,1.484l0.007,0.681l-0.115,1.334l-0.299,0.51l-0.371,0.279
		l-1.331,0.027l-0.546,0.136l-0.641,0.279l-1.025,0.81l-0.424,0.619l-0.302,0.865l-0.099,1.021l0.02,0.408l0.056,0.395l0.158,0.313
		l0.217,0.245l1.361,0.878l2.261,1.708l0.256,0.388l0.352,0.674l0.595,2.354l0.884,1.415l2.09,1.47l0.371,0.735l0.039,0.823
		l-0.707,2.184l-0.279,0.83l4.033,3.183l-2.491,2.49l-1.689,2.435l-1.752,1.741l-1.403,0.435l-0.694,0.136l-0.831-0.02l-0.394-0.054
		l-2.025-0.673l-0.894-0.163h-1.752l-2.619,1.129l-0.91-0.109l-0.726-0.326l-1.167-0.333l-2.931-0.449l-1.505,0.211l-1.111,0.381
		l-5.814,4.964L248.042,427.432z"/>
</g>
<g id="Copyright">
	<text transform="matrix(1 0 0 1 681.6426 577.5916)" class="st1 st2">© Vemaps.com</text>
</g>
</svg>
