<?xml version="1.0" encoding="utf-8"?>
<!-- Generator: Adobe Illustrator 23.0.1, SVG Export Plug-In . SVG Version: 6.00 Build 0)  -->
<svg version="1.1" xmlns="http://www.w3.org/2000/svg" xmlns:xlink="http://www.w3.org/1999/xlink" x="0px" y="0px"
	 viewBox="0 0 800 600" style="enable-background:new 0 0 800 600;" xml:space="preserve">
<style type="text/css">
	.st0{fill:#808080;stroke:#FFFFFF;stroke-width:0.5;stroke-linecap:round;stroke-linejoin:round;}
	.st1{font-family:'Roboto-Regular';}
	.st2{font-size:14px;}
</style>
<g id="Guyana">
	<path class="st0" d="M524.477,272.284l0.496,1.242l2.431,2.962l0.546,1.466l-0.358,1.02l-0.89,0.85l-1.149,0.664l-1.134,0.471
		l-0.396-1.457l-0.622-0.759l-0.923-0.288l-1.297-0.046l-0.822,0.431l-0.479,1.012l-0.486,2.104l-1.085,2.469l-0.226,0.831
		l-0.091,0.971l0.328,0.819l2.661,2.406l-0.731,0.426l-0.599-0.061l-0.569-0.244l-0.637-0.121l-1.036,0.148l-0.629,0.244
		l-0.543,0.303l-0.78,0.306l-1.835,0.49l-5.77,0.594l-1.229,0.376l-0.942,0.083l-0.482-0.242l-1.119-1.061l-0.392-0.24l-1.873,0.098
		l-1.673,0.293l-3.2,1.152l-2.864-1.25l-2.74,0.159l-2.446,1.205l-1.956,1.888l-1.097,2.084l-0.848,0.666l-1.786,0.248l-0.912-0.182
		l-0.701-0.348l-0.705-0.202l-0.916,0.233l-0.55,0.518l-1.485,2.48l-0.984,1.22l-1.331,1.43l-1.172,1.681l-0.501,2.46l0.55,1.008
		l1.217,0.618l1.21,0.809l0.976,3.01l1.956,2.503l0.607,1.293l-0.102,1.388l-0.584,1.271l-1.304,1.887l-1.153,3.724l-1.236,2.072
		l-1.342,3.251l-0.539,2.423l-0.69,0.958l-0.837,0.932l-0.72,1.125l-0.29,1.338l0.23,1.151l0.396,1.113l0.203,1.211l-0.155,1.841
		l-0.471,1.444l-0.81,1.242l-6.351,6.504l-1.014,1.555l-0.128,1.513l0.92,3.15l0.954,6.217l0.72,2.582l1.768,2.225l4.798,3.789
		l1.187,1.392l3.697,5.424l1.553,3.328l0.309,1.403l0.196,3.316l0.434,1.543l0.818,1.356l1.214,0.774l3.565,1.48l2.781,1.782
		l0.264,0.529l0.366,1.28l0.58,1.078l0.064,0.261l0.094,0.253l0.328,0.364l0.354,0.151l0.784,0.106l0.154,0.219l0.283,0.136
		l1.519,0.886l1.195,1.354l-0.105,1.291l-1.108,2.154l0.011,0.476l0.158,0.904l-0.041,0.491l-0.369,1.32l-0.045,0.606l0.151,0.765
		l0.317,0.866l0.245,0.372l0.358,0.306l0.618,0.257l2.058,0.423l1.229,0.687l0.015,0.009l2.265,1.264l0.795,0.225l0.671-0.102
		l0.712-1.435l0.939,0.185l0.931,0.553l0.418,0.317l0.588,0.026l0.573,0.106l0.433,0.217l0.17,0.378l0.253,0.325l0.546-0.31
		l0.516-0.497l0.181-0.245l2.062-0.532l0.509-0.64l-0.079-1.323l2.303,0.999l1.948,0.6l1.949-0.332l2.307-1.808l1.813,3.734
		l0.226,1.025l-0.17,2.537l-0.106,0.457l-0.603,0.914l0.162,0.608l0.456,0.6l0.26,0.872l-0.094,0.868l-0.392,1.502l-0.06,0.895
		l0.166,0.804l0.784,1.687l-0.203,0.883l-0.471,0.581l-0.136,0.479l0.81,0.593l0.731,0.121l0.724-0.234l0.637-0.423l0.494-0.457
		l0.136,0.219l0.015,0.064l0.049,0.038l0.249,0.132l-1.112,2.14l0.663,1.332l1.259,1.159l0.682,1.623l0.079,0.562l0.347,0.925
		l0.075,0.551l-0.237,0.298l-1.021-0.053l-0.234,0.257l0.128,0.883l0.211,0.638l0.045,0.574l-0.384,0.672l-0.596,0.951l0.931,0.536
		l2.423,0.257l0.351,1.083l-0.795,1.026l-1.138,0.906l-0.678,0.725l0.969,3.777l0.298,0.755l0.584,0.309l0.234,0.687l0.324,0.683
		l0.874,0.313l0.682-0.155l1.462-0.683l0.863-0.159l0.509,0.479l-1.259,2.63l0.482,1.377l0.241-0.166l2.495-0.377l0.705,0.343
		l-0.166,0.792l-0.501,0.924l-0.286,0.724l0.381,0.955l1.884,1.992l0.724,1.339l0.437,2.875l0.58,0.43l1.515-0.856l0.494,0.932
		l-0.196,0.86l-0.347,0.954l0.049,1.241l0.354,0.66l1.843,2.147l0.132,0.532l-0.385,2.46l0.471,0.679l1.029-0.355l1.489-1.094
		l0.607,0.675l-0.098,0.796l-0.358,0.807l-0.151,0.709l0.235,1.003l0.345,0.641l1.208,1.12l0.352,0.709l-0.13,0.758l-0.469,1.049
		l0.556,1.324l2.61,2.278l0.814,1.63l-0.04,2.629l0.313,0.653l0.677,0.34l1.683,0.313l0.65,0.347l0.925,1.418l0.718,3.217
		l0.554,1.592l0.531,2.176l7.021,9.949l1.997,0.82l7.15,0.117l2.749,1.433l0.407,0.622l0.518,0.5l0.614,0.37l1.53,0.492l0.641,0.517
		l0.445,0.707l0.239,0.847l-3.405,1.284l-2.218,1.267l-1.163,0.087l-1.112-0.549l-1.044-0.847l-1.153-0.728l-1.41-0.168
		l-1.229,0.496l-0.967,0.745l-1.042,0.566l-1.47-0.053l-1.462-0.241l-0.984,0.23l-3.136,2.476l-0.882,0.404l-1.003-0.004l-5.19-0.88
		l-0.954-0.332l-1.176-0.952l-0.482-0.7l-0.618-0.385l-1.575-0.011l-2.431,0.268l-1.195-0.019l-1.308-0.271l-1.918-1.009
		l-1.349-1.144l-0.863-1.505l-0.456-2.078l-2.22-1.772l-3.531,1.405l-6.238,3.916l-1.474-0.27l-2.638-1.65l-1.794-0.168
		l-1.609,0.605l-1.07,0.99L514.54,515l-1.149,1.054l-1.534,0.798l-1.018,0.372l-0.727,0.649l-1.809,4.851l-0.765,1.32l-4.851,6.143
		l-2.178,1.648l-3.407,0.865l-2.239,0.068l-6.166-1.129l-2.604-0.132l-2.329,0.622l-5.887,2.604l-2.472,1.51l-1.229,0.443
		l-1.225-0.06l-2.197-0.888l-1.157-0.162l-0.437,0.532l0.09,1.154l0.426,2.224l-0.222,1.261l-0.482,1.338l-1.281,2.357l-1.172,1.41
		l-3.057,0.573l-3.449-0.113l-2.348-0.622l-0.505-0.605l-0.535-1.591l-0.565-0.703l-1.214-0.641l-0.765,0.125l-0.671,0.434
		l-0.927,0.285l-1.379-0.047l-1.602-0.264l-1.564-0.456l-1.255-0.628l-0.52-0.554l-0.716-1.176l-0.317-0.17l-0.833,0.571
		l-0.497,0.963l-0.403,1.073l-0.52,0.888l-0.648,0.434l-1.666,0.741l-0.52,0.471l-0.105,0.724l0.422,1.54l-0.034,0.696l-1.975,1.325
		l-0.946,0.162l-5.284,0.906l-0.21,0.263l-0.018-0.046l-0.011-0.028l0.631-4.302l0.599-1.665l2.563-3.68l3.153-3.192l0.82-1.173
		l3.682-8.65l3.038-4.551l2.657-5.062l11.604-32.44l5.009-9.7l0.914-2.503l0.318-1.383l0.156-1.507l0.021-2.158l-0.793-9.391
		l0.028-1.077l0.145-1.024l0.153-0.557l1.146-2.181l5.71-7.7l0.254-0.543l-0.237-1.411l-4.587-10.856l-7.687-11.01l-0.784-2.233
		l-0.418-2.108l-0.185-1.989l0.366-3.339l-0.011-1.361l-2.51-9.76l0.017-1.684l-0.204-1.633l-0.394-1.072l-2.339-4.779
		l-6.792-10.093l-0.575-1.173l-0.567-1.566l-2.29-9.404l-0.143-1.275l-0.008-0.96l0.522-2.087l0.062-1.009l-0.045-0.603
		l-2.955-10.16l-4.43-6.133l-1.078-2.088l0.275-1.559l2.923-7.962l1.293-4.831l6.223-10.915l0.793-2.753l12.215-0.267l2.241-0.456
		l1.308-0.72l2.885-8.284l1.089-4.565l1.17-3.011l1.843-2.544l7.133-8.003l3.594-9.435l1.5-2.689l2.371-3.141l1.751-4.604
		l1.151-2.033l2.325-2.451l0.441-1.096l0.324-1.592l0.582-7.013l3.91-16.34l1.351-3.356l0.13-0.568l-0.026-0.65l-0.089-0.636
		l-1.123-1.068l-0.98-0.222l-1.159-1.275l-2.235-4.859l0.232-2.474l-0.317-3.503l-0.386-1.753l-1.244-2.02l0.886-0.866l0.905-0.404
		l0.644-0.182l0.513,0.034l0.349,0.165l0.288,0.21l0.573,0.546l0.426,0.263l0.394,0.023l0.386-0.119l0.324-0.262l0.368-0.394
		l1.517-2.708l0.351-1.179l0.034-0.415l-0.083-0.364l-0.189-0.307l-0.528-0.489l-0.305-0.201l-0.275-0.239l-0.171-0.313
		l-0.571-2.361l-0.085-1.086l0.166-0.934l0.286-0.489l0.407-0.449l0.371-0.216l0.381-0.159l0.816-0.155l0.441-0.034l2.489-0.432
		l1.059-0.307l0.756-0.444l0.352-0.404l0.147-0.474l-0.024-0.432l-0.411-1.537l0.294-1.336l0.386-0.838l-0.097-0.516l0.126-0.671
		l0.12-0.814l0-1.237l0.937-1.025l0.724-0.424l0.265-0.301l0.333-0.043l1.437,0.117l1.515,0.553l1.214,0.559l1.469,0.733
		l2.288,1.352l0.903,0.503l2.522,1.694l2.964,2.176l6.005,6.115l1.52,2.215l1.411,2.646l0.647,2.987l0.225,1.812l0.253,0.87
		l0.375,0.749l0.169,0.628l0.06,0.809l-1.072-1.536l-0.543-0.495l1.301,2.623l0.435,1.039l0.02,1.581l0.122,1.193l0.2,2.627
		l-1.197,2.564l-0.329,1.357l-0.528,1.265l-0.334,0.86l-0.043,1.509l-0.734,1.767l-0.174,1.724l1.713,2.822l-0.142,3.958
		l-0.862,2.304l-0.899,1.475l-0.822,1.655l-3.701,5.343v0.507l-0.676,1.527l-0.23,1.164l-0.083,1.571l-0.29,1.713l-0.75,1.17
		l-3.547,3.575l-0.596,0.785l-0.249,0.804l0.29,0.68h0.648l1.052-0.43l0.735,0.18l0.46-0.023l0.234,0.204l0.113,5.115l0.132,0.577
		l0.366,0.401l0.641,0.182l0.629-0.083l0.482-0.314l0.192-0.486l-0.746-0.887l-0.377-0.708l0.128-0.702l0.614-0.36l0.829-0.042
		l0.731,0.223l0.313,0.45L524.477,272.284z"/>
	<path class="st0" d="M268.679,276.564l-5.619-6.074l-5.525-6.115l-5.531-6.118l-5.525-6.12l-5.525-6.12l-5.529-6.124l-5.527-6.116
		l-5.525-6.126l-2.352-2.613l-1.247-2.954l0.761-0.807l2.444-1.364l1.07-0.851l3.42-5.454l0.921-2.339l0.669-1.04l0.969-0.525
		l2.42-0.451l1.197-0.385l0.878-0.519l0.71-0.965l0.784-1.88l0.938-0.824l1.004-0.159l1.068,0.11l0.812-0.228l0.234-1.168
		l0.023-1.003l0.379-2.781l-0.141-0.724l-0.23-0.237l-0.249-0.163l-0.204-0.497l-0.36-0.519l-1.285-0.8l-0.384-0.671l-0.548-2.048
		l-0.104-0.813l0.445-3.538l0.356-1.018l0.645-0.882l0.154-0.613l0.03-0.607l-0.087-0.601l-0.207-0.599l-0.793-1.096l-0.697-2.196
		l-0.571-1.098l-1.114-1.034l-1.018-0.571l-0.699-0.725l-0.168-1.502l0.524-2.525l1.065-2.72l1.425-2.616l2.286-2.639l0.692-0.837
		l1.376-0.27l1.598,0.148l1.361,0.414l0.669-1.338l1.543,0.228l1.56,0.48l1.344-1.023l3.33,0.414l1.515-0.22l0.398-0.304
		l1.979-2.097l0.128-0.304l0.03-0.603l-0.162-0.679l-0.72-1.029l-0.162-0.822l0.424-0.296l0.948,0.08l1.617,0.444l0.488,0.353
		l0.524,0.503l0.65,0.478l0.874,0.264l0.68-0.057l1.681-0.393l0.855-0.099l1.493,0.397l2.668,1.736l1.089,0.374l1.545-0.543
		l1.182-1.245l2.067-2.978l1.185-0.966l1.376-0.6l5.248-1.264l9.319-5.812l1.952-0.459l1.229,0.729l0.675-3.641l0.613-1.234
		l1.102-0.934l1.242-0.805l1.031-0.858l0.718-1.021l0.567-1.219l0.307-1.291l-0.055-1.246l-0.554-1.158l-0.94-0.851l-2.535-1.421
		l-0.051-0.057l0.852-0.196l1.249-0.051l1.223,0.33l2.612,0.986l2.286,1.346l1.675,1.631l0.588,0.359l0.55,0.108l0.997-0.359
		l0.816,0.051l1.297,0.273l2.29,1.067l2.572,0.672l0.524-0.108l0.434-0.188l0.514-0.353l0.511-0.458l0.471-0.501l0.379-0.496
		l0.262-0.427l0.409-0.41l0.622-0.378l1.129-0.165l2.898,1.05l0.718,0.068l0.609-0.114l0.52-0.355l0.464-0.467l0.686-1.025
		l0.422-0.49l0.98-0.936l0.35-0.536l0.313-0.919l0.094-0.416l0.533-0.456l0.882-0.445l2.178-0.555l1.036-0.114l0.733,0.057
		l10.577,5.777l7.594,1.836l0.469,0.228l0.505,0.378l6.017,6.266l0.42,0.285l0.596,0.273l2.065-0.148l0.52,0.125l0.484,0.239
		l1.04,0.86l4.378,1.466l1.063,0.182l0.805-0.029l1.523-1.272l0.899-0.604l0.226-0.342l0.271-1.352l0.139-0.387l0.264-0.319
		l0.39-0.342l0.82-0.336l0.552-0.057l0.563,0.045l3.29,0.763l3.924,1.756l-0.034,1.506l-1.432,4.668l-0.143,1.226l0.234,0.866
		l0.524,0.307l0.497,0.159l1.803,0.393l0.398,0.199l0.829,0.537l0.377,0.182l2.64,0.985l0.887,0.148l0.963,0.051l0.456-0.029
		l0.42-0.074l0.415-0.125l0.403-0.233l1.359-1.401l0.441-0.361l0.84-0.085l1.939,0.662l0.697,1.139l0.096,0.399l0.264,2.97
		l0.447,0.962l0.558,0.622l0.639,0.347l1.314,0.393l1.104,0.074l0.435-0.057l0.407-0.097l0.891-0.296l0.599-0.142l0.614,0.017
		l0.351,0.649l0.034,0.581l1.132,2.714l1.21,2.119l0.215,1.161l-0.418,4.147l-0.317,1.601l-0.22,2.568l0.288,0.81l0.334,0.478
		l0.418,0.131l0.901,0.154l3.648,0.176l0.833,0.205l0.742,0.29l4.338,2.301l0.675,0.229l0.581,0.034l0.347-0.212l0.55-0.165h0.379
		l1.136,0.451l0.154,0.099l-0.214,0.827l-4.849,6.928l0.306,0.194l0.193,0.266l2.243-2.055l0.742-0.451l0.223-0.296l0.196-0.418
		l0.294-0.239l0.985,0.436l0.626,0.078l0.349-0.02l0.155,0.814l0.009,3.263l0.16,1.43l1.747,3.509l0.245,1.272l-0.038,0.669
		l-0.117,0.677l-0.23,0.624l-0.362,0.512l-0.173,0.548l0.288,0.597l0.42,0.654l0.211,0.707l-1.04,9.793l0.045,1.52l0.788,1.781
		l0.207,0.767l-0.006,6.008l-0.213,1.745l-0.957,1.368l-1.813,3.897l-0.296,1.646l0.296,4.633l-0.503,4.686l0.072,5.049l-0.407,3.1
		l-0.872,2.978l-1.321,3.02l-1.664,3.213l-1.266,1.306l-1.754,0.528l-6.315,1.001l-3,0.125l-1.839-2.991l-0.384-0.471l-0.447-0.341
		l-0.52-0.238l-0.582-0.165l-0.758-0.136l-3.268-0.21l-0.56-0.148l-0.531-0.301l-0.529-0.422l-1.92-2.518l-0.334-0.324l-0.58-0.17
		l-0.733,0.034l-2.666,1.181l-0.622,0.193l-0.69,0.045l-0.995-0.227l-0.564-0.398l-0.307-0.494l-0.057-0.511l0.155-2.787
		l-0.134-0.523l-0.354-0.46l-0.974-0.882l-0.467-0.506l-0.383-0.528l-1.053-2.087l-0.341-0.466l-1.389-1.371l-1.555-2.07l-0.496-0.5
		l-0.528-0.445l-0.55-0.244l-0.567-0.068l-0.718,0.108l-0.579,0.201l-2.648,1.471l-0.731,0.644l-0.818,0.869l-1.372,1.746
		l-0.976,1.757l-0.398,0.585l-0.637,0.568l-1.247,0.689l-0.782,0.29l-0.678,0.136l-0.501,0.023l-1.072-0.051l-1.114-0.188
		l-5.444-1.672l-0.441,0.011l-0.317,0.068l-0.42,0.199l-3.102,2.115l-2.08,1.916l-0.396,0.5l-0.224,0.676l-0.008,0.82l0.56,2.717
		l0.537,6.071l-0.775,1.393l-4.191,0.403l-1.146-0.04l-6.637-1.336l-1.134,0.025l-2.307,0.397l-3.196-0.201l-0.507,0.034
		l-0.503,0.087l-4.768,1.505l-0.79,0.399l-0.71,0.63l-0.66,0.909l-0.855,1.677l-0.68,2.205l-1.315,2.801l-0.326,1.001l-0.607,0.738
		l-1.014,0.95l-3.437,2.67l-1.428,1.563l-0.611,0.484l-0.185-0.208l-2.318-5.391l-0.635-0.846l-3.27,1.19l-1.05-0.937l-0.682-1.722
		l-0.957-0.276l-3.047,0.789l-1.351,0.666l-2.942,2.961l-1.387,0.963l-1.598,0.044l-3.205-1.109l-1.521,0.079l-0.556,0.473
		l-0.854,1.419l-0.718,0.524l-0.539-0.034l-0.494-0.39l-0.503-0.501l-0.545-0.371l-1.453-0.293l-4.116,0.577l-1.053-0.121
		l-0.81-0.376l-0.752-0.465l-0.88-0.394l-0.859-0.172l-4.332-0.299l-1.621,0.079L268.679,276.564z"/>
	<path class="st0" d="M345.457,337.359l0.027-0.711l-0.271-0.24l-0.839-0.087l-0.842-0.272l-0.645-0.61l-0.552-0.718l-0.586-0.588
		l-4.253-2.387l-0.974-1.283l-0.588,0.652l-0.624,0.163l-1.56-0.412l-0.345-0.038l-0.793,0.008l-0.32-0.096l-0.296-0.457
		l0.207-0.928l-0.298-0.276l-0.94-0.004l-1.419,0.692l-0.677,0.068l-0.392-0.355l-1.048-1.393l-0.658-0.414l-0.716-0.144
		l-0.842-0.045l-0.72,0.204l-0.317,0.607l-0.413,0.484l-0.906-0.144l-1.73-0.593l-1.421,0.215l-1.125,0.318l-0.776-0.2l-0.386-1.333
		l-0.388-0.543l-0.795-0.408l-0.79-0.034l-0.383,0.586l-0.172,0.834l-0.424,0.325l-0.65-0.015l-0.871-0.183l-1.161-0.595
		l-0.818-1.081l-0.354-1.348l0.241-1.389l1.949-2.074l0.628-0.106l1.464-0.026l0.661-0.234l0.684-0.656l0.249-0.688l0.079-0.743
		l0.185-0.822l0.367-0.875l2.084-3.035l0.626-1.189l0.439-1.274l0.173-1.386l-0.324-3.179l1.025-3.257l0.183-4.388l0.507-2.158
		l0.541-1.326l0.247-1.354l0.068-2.822l1.296-4.432l-0.117-2.089l-2.035-1.031l-3.217-1.835l-1.504-1.152l-0.946-1.067l0.611-0.484
		l1.428-1.563l3.437-2.67l1.014-0.95l0.607-0.738l0.326-1.001l1.315-2.801l0.68-2.205l0.855-1.677l0.66-0.909l0.71-0.63l0.79-0.399
		l4.768-1.505l0.503-0.087l0.507-0.034l3.196,0.201l2.307-0.397l1.134-0.025l6.637,1.336l1.146,0.04l4.191-0.403l0.775-1.393
		l-0.537-6.071l-0.56-2.717l0.008-0.82l0.224-0.676l0.396-0.5l2.08-1.916l3.102-2.115l0.42-0.199l0.317-0.068l0.441-0.011
		l5.444,1.672l1.114,0.188l1.072,0.051l0.501-0.023l0.678-0.136l0.782-0.29l1.247-0.689l0.637-0.568l0.398-0.585l0.976-1.757
		l1.372-1.746l0.818-0.869l0.731-0.644l2.648-1.471l0.579-0.201l0.718-0.108l0.567,0.068l0.55,0.244l0.528,0.445l0.496,0.5
		l1.555,2.07l1.389,1.371l0.341,0.466l1.053,2.087l0.383,0.528l0.467,0.506l0.974,0.882l0.354,0.46l0.134,0.523l-0.155,2.787
		l0.057,0.511l0.307,0.494l0.564,0.398l0.995,0.227l0.69-0.045l0.622-0.193l2.666-1.181l0.733-0.034l0.58,0.17l0.334,0.324
		l1.92,2.518l0.529,0.422l0.531,0.301l0.56,0.148l3.268,0.21l0.758,0.136l0.582,0.165l0.52,0.238l0.447,0.341l0.384,0.471
		l1.839,2.991l-1.038,0.466l-0.531,1.495l-0.656,1.204l-0.252,0.712l-0.085,0.806l0.017,0.681l-0.062,0.581l-0.322,0.522
		l3.405,5.172l0.827,0.829l0.462,1.147l-0.087,5.274l-1.764,10.566l0.143,3.012l1.775,4.657l1.851,10.409l0.989,1.244l3.324-0.978
		l1.061,1.136l1.05,3.111l1.754,2.433l1.376,0.736l3.145,1.01l0.771,0.391l0.505,0.371l1.044,0.613l1.5,0.516l3.413,0.546
		l10.983-0.093l5.361-1.242l1.072-0.164l-0.793,2.753l-6.223,10.915l-1.293,4.831l-2.923,7.962l-0.275,1.559l-5.599-2.372
		l-1.142-0.289l-0.59-0.062h-0.588l-1.15,0.147l-0.616,0.17l-1.834,0.818l-1.506,0.952l-1.046,0.856l-1.121,1.283l-1.459,2.485
		l-0.405,0.518l-9.756,8.691l-1.364,1.73l-2.005,2.082l-1.138,0.895l-0.492,0.278l-0.328,0.142l-0.793,0.079l-2.44-0.023l-1.02-0.3
		l-0.516-0.368l-0.646-0.555l-4.979-6.427l-0.418-0.795l-0.262-0.754l-0.386-1.85l-0.693-1.697l-0.232-0.3l-0.356-0.334
		l-0.569-0.181l-0.396-0.074l-0.479,0.028l-0.48,0.102l-0.52,0.164l-3.271,1.629l-0.513,0.187l-0.535,0.125l-0.492,0.006
		l-1.562-0.238l-1.01-0.051l-4.312,0.703l-9.886-0.329l-1.048-0.255l-1.074-0.393l-2.41-1.156l-0.575-0.385l-0.543-0.472
		l-0.535-0.674l-0.239-0.675l-0.017-0.699l0.373-0.941l0.396-0.646l0.889-1.068l0.302-0.612l0.021-0.675l-0.547-3.105l-0.1-3.126
		l0.279-1.419l0.386-1.022l0.432-0.505l0.318-0.505v-0.901l-0.3-1.21l-1.021-2.463l-0.354-1.187l-0.584-1.242l-1.579-0.586
		l-1.54,0.431l-0.594,0.261l-0.546,0.308l-0.588,0.425l-0.595,0.533l-0.769,0.915l-0.447,0.635l-2.359,4.801l-0.334,0.476
		l-0.46,0.501l-0.554,0.391l-0.718,0.329l-1.472,0.176l-2.682-0.267L345.457,337.359z"/>
	<path class="st0" d="M397.611,560.773l-2.85-1.113l-12.17-2.156l-4.681-1.508l-1.296-0.703l-0.912-1.22l-1.56-3.499l-0.611-0.792
		l-1.323-0.771l-0.32-1.257l-0.162-1.369l-0.848-1.103l-0.665-0.102l-1.483,0.411l-0.886-0.215l-0.27-0.332l-0.518-1.15
		l-0.268-0.422l-0.371-0.188l-0.903-0.091l-0.345-0.147l-0.66-0.779l-1.432-2.558l-0.675-0.752l-2.278-1.806l-1.227-1.574
		l-2.035-3.314l-1.513-1.273l-1.549-0.484l-1.302,0.164l-1.266,0.358l-1.475,0.087l-0.839-0.215l-0.741-0.383l-0.667-0.517
		l-1.596-1.701l-0.119-0.599l1.167-1.569l1.532-2.962l-0.072-0.896l-0.194-0.102l-0.464,0.121l-0.912-0.219l-2.742-1.073
		l-0.85-0.047l-1.479,0.53l-0.887-0.038l-0.661-0.79l-0.351-1.491l-0.115-1.61l0.043-1.16l0.268-0.831l0.912-1.41l0.332-0.773
		l0.073-0.666l-0.185-1.912l0.132-0.62l0.418-1.209l0.051-0.598l-0.241-0.801l-0.807-1.522l-0.109-0.964l0.228-0.767l0.822-1.288
		l0.232-0.722l-0.034-0.745l-0.665-2.174l-0.057-2.723l0.403-2.821l-0.108-2.505l-1.572-1.765l-0.658-0.173l-1.428-0.038
		l-0.682-0.136l-0.907-0.471l-2.233-1.916l-2.904-1.501l-1.391-0.992l-0.752-1.396l0.119-0.664l0.752-1.218l-0.023-0.811
		l-0.162-0.773l-0.075-1.581l-0.124-0.796l-2.12-4.753l-0.268-1.396l0.021-0.909l-0.109-0.551l-0.605-1.23l-0.3-0.298l-0.94-0.347
		l-0.362-0.283l0.053-0.234l0.36-0.898l0.021-0.392l-2.292-4.478l-0.264-1.407l0.464-11.92l1.513-5.989l0.186-1.543l-0.26-4.178
		l0.347-1.83l0.718-1.736l1.949-3.182l0.386-0.313l0.482-0.177l0.43-0.234l0.237-0.472l-0.079-0.51l-0.547-0.774l-0.1-0.445
		l0.232-0.2l0.923-0.143l0.183-0.283l-0.162-0.479l-0.62-0.687l-0.213-0.476l0.013-0.951l0.377-0.562l0.53-0.464l0.482-0.668
		l0.993-3.299l0.32-0.732l1.888-3.128l0.769-2.458l0.234-0.062l0.46-0.03l0.501-0.121l0.367-0.34l0.057-0.504l-0.445-0.965
		l-0.102-0.491l0.324-3.526l-1.263,0.459l0.205-1.288l1.253-3.022l-0.597-1.854l-1.319-1.512l-1.123-1.601l0.011-2.145l1.839-2.015
		l5.989-2.107l2.764-2.564l1.647-0.719l0.645-0.523l0.445-0.838l0.041-0.633l-0.089-0.644l0.045-0.874l0.609-1.836l0.925-0.927
		l2.978-1.335l1.436-1.112l0.234-1.033l-0.315-1.213l-0.203-1.649l0.45-1.477l1.061-1.704l1.359-1.388l1.355-0.55l0.72-0.102
		l0.4-0.351l0.115-0.557l-0.141-0.725l-0.528-0.603l-0.865-0.31l-2.312-0.38l-0.701,0.03l-0.458-0.287l0.066-1.882l-0.317-0.431
		l-0.439-0.357l-1.027-1.87l-2.47-2.301l-0.697-1.135l0.23-1.716l0.81-1.215l0.205-1.041l-1.545-1.209l-3.134-1.015l-1.197-0.879
		l-0.855-1.924l-0.143-0.796l-0.008-0.635l0.189-1.293l0.177-0.427l0.65-0.867l0.154-0.465l-0.151-0.486l-0.739-0.833l-0.13-0.329
		l0.778-1.368l2.493-2.589l0.454-1.739l0.02-0.512l0.868-0.144l2.682,0.267l1.472-0.176l0.718-0.329l0.554-0.391l0.46-0.501
		l0.334-0.476l2.359-4.801l0.447-0.635l0.769-0.915l0.595-0.533l0.588-0.425l0.546-0.308l0.594-0.261l1.54-0.431l1.579,0.586
		l0.584,1.242l0.354,1.187l1.021,2.463l0.3,1.21v0.901l-0.318,0.505l-0.432,0.505l-0.386,1.022l-0.279,1.419l0.1,3.126l0.547,3.105
		l-0.021,0.675l-0.302,0.612l-0.889,1.068l-0.396,0.646l-0.373,0.941l0.017,0.699l0.239,0.675l0.535,0.674l0.543,0.472l0.575,0.385
		l2.41,1.156l1.074,0.393l1.048,0.255l9.886,0.329l4.312-0.703l1.01,0.051l1.562,0.238l0.492-0.006l0.535-0.125l0.513-0.187
		l3.271-1.629l0.52-0.164l0.48-0.102l0.479-0.028l0.396,0.074l0.569,0.181l0.356,0.334l0.232,0.3l0.693,1.697l0.386,1.85
		l0.262,0.754l0.418,0.795l4.979,6.427l0.646,0.555l0.516,0.368l1.02,0.3l2.44,0.023l0.793-0.079l0.328-0.142l0.492-0.278
		l1.138-0.895l2.005-2.082l1.364-1.73l9.756-8.691l0.405-0.518l1.459-2.485l1.121-1.283l1.046-0.856l1.506-0.952l1.834-0.818
		l0.616-0.17l1.15-0.147h0.588l0.59,0.062l1.142,0.289l5.599,2.372l1.078,2.088l4.43,6.133l2.955,10.16l0.045,0.603l-0.062,1.009
		l-0.522,2.087l0.008,0.96l0.143,1.275l2.29,9.404l0.567,1.566l0.575,1.173l6.792,10.093l2.339,4.779l0.394,1.072l0.204,1.633
		l-0.017,1.684l2.51,9.76l0.011,1.361l-0.366,3.339l0.185,1.989l0.418,2.108l0.784,2.233l7.687,11.01l4.587,10.856l0.237,1.411
		l-0.254,0.543l-5.71,7.7l-1.146,2.181l-0.153,0.557l-0.145,1.024l-0.028,1.077l0.793,9.391l-0.021,2.158l-0.156,1.507l-0.318,1.383
		l-0.914,2.503l-5.009,9.7l-11.604,32.44l-2.657,5.062l-3.038,4.551l-3.682,8.65l-0.82,1.173l-3.153,3.192l-2.563,3.68l-0.599,1.665
		l-0.631,4.302l0.011,0.028l0.018,0.046l-0.868,1.087l0.486,1.51l1.379,2.867l0.464,1.519l0.045,1.764l-0.475,1.27l-2.284,3.589
		l-0.599,0.03l-0.577-0.343l-0.584-0.207l0.023-0.143l-0.29-0.298l-0.407-0.305l-0.339-0.166l-0.324,0.128l-0.931,0.712
		l-0.464,0.192l-7.444-0.709l-1.104,0.102l-0.837,0.641l-2.02,2.914l-1.161,1.267l-1.395,0.999l-1.753,0.69l-1.458,0.332
		L407.677,570l-1.315-0.211l-1.466-0.622l-1.877-1.5l-0.626-1.512l-0.384-1.583l-1.149-1.749l-1.349-1.078l-1.496-0.814
		L397.611,560.773z"/>
	<path class="st0" d="M321.108,30l1.451,0.672l2.401,1.573l2.603,2.641l4.169,6.381l2.736,2.649l2.071,1.077l3.561,0.972
		l1.834,0.927l4,2.927l2.095,1.146l2.163,0.453l0.662,1.133l0.136,0.147l0.101,0.594l0.285,0.132l0.454-0.048l4.104,0.846
		l0.534,0.516l0.956,1.178l6.511,5.612l-1.68-2.719l-2.546-2.513l-3.054-2.033l-5.475-2.249l-6.713-4.666l-4.422-2.411l-0.6-0.816
		l-0.899-2.04l0.169-0.954l1.727-0.276l1.202,0.534l2.582,2.07l2.971,0.891l1.448,0.993l2.344,2.009l4.802,2.873l6.659,3.032
		l7.745,5.586l13.328,7.962l4.401,3.324l1.07,1.001l1.072,1.417l3.938,3.666l9.968,11.214l3.744,2.973l2.131,3.097l1.716,2.292
		l-3.558,4.452l-2.785,2.608l-1.538,0.983l-8.91,3.686l-1.061,0.555l-4.34,4.554l-0.822,1.089l-0.456,0.874l0.03,0.564l0.121,0.553
		l0.253,0.521l1.383,2.14l0.283,0.553l0.19,0.559l0.053,0.587l-0.109,0.714l-0.522,0.616l-1.873,1.472l-0.588,0.65l-0.411,0.604
		l-4.067,12.422l-0.155,1.022l-0.038,1.031l0.113,1.027l1.476,5.406l0.074,0.82l-3.924-1.756l-3.29-0.763l-0.563-0.045l-0.552,0.057
		l-0.82,0.336l-0.39,0.342l-0.264,0.319l-0.139,0.387l-0.271,1.352l-0.226,0.342l-0.899,0.604l-1.523,1.272l-0.805,0.029
		l-1.063-0.182l-4.378-1.466l-1.04-0.86l-0.484-0.239l-0.52-0.125l-2.065,0.148l-0.596-0.273l-0.42-0.285l-6.017-6.266l-0.505-0.378
		l-0.469-0.228l-7.594-1.836l-10.577-5.777l-0.733-0.057l-1.036,0.114l-2.178,0.555l-0.882,0.445l-0.533,0.456l-0.094,0.416
		l-0.313,0.919l-0.35,0.536l-0.98,0.936l-0.422,0.49l-0.686,1.025l-0.464,0.467l-0.52,0.355l-0.609,0.114l-0.718-0.068l-2.898-1.05
		l-1.129,0.165l-0.622,0.378l-0.409,0.41l-0.262,0.427l-0.379,0.496l-0.471,0.501l-0.511,0.458l-0.514,0.353l-0.434,0.188
		l-0.524,0.108l-2.572-0.672l-2.29-1.067l-1.297-0.273l-0.816-0.051l-0.997,0.359l-0.55-0.108l-0.588-0.359l-1.675-1.631
		l-2.286-1.346l-2.612-0.986l-1.223-0.33l-1.249,0.051l-0.852,0.196l-0.863-0.962l-0.869-0.479l-0.959-0.076l-1.189,0.178
		l-1.046-0.034l-0.797-0.406l-0.758-0.505l-0.903-0.338l-1.883-0.011l-1.553,0.581l-1.185,1.132l-1.607,2.898l-0.955,0.019
		l-5.079-4.034l-0.786-0.79l-1.069-2.188l-0.036-2.188l0.908-1.987l1.775-1.6l0.33-0.521l0.166-0.543l0.007-0.585l-0.139-0.608
		l-0.641-0.992l-0.835-2.052l-0.509-0.943l-0.518-0.403l-0.661-0.262l-0.59-0.372l-0.294-0.711l0.026-0.62l0.079-0.464l-0.032-0.437
		l-0.319-0.54l-0.989-0.688l-1.016-0.232l-0.914-0.357l-1.69-3.113l-0.428-1.068l-0.064-1.11l1.027-1.924l3.307-1.064l1.133-1.411
		l1.031-1.89l0.714-1.008l0.477-0.357l1.057,0.194l0.686-0.517l0.277-0.947l-0.175-1.091l1.119-1.985l0.008-0.799l-0.241-1.396
		l0.053-0.647l0.358-0.677l1.641-1.966l1.44-2.727l1.027-0.978l1.639-0.552l6.183,0.11l3.19-0.312l1.775-1.339l0.584-1.693
		l1.609-1.469l3.535-2.431l0.283-0.258l1.072-0.979l0.75-1.18l0.867-0.997l3.503-1.366l1.266-1.058l1.163-1.21l1.5-1.13l1.555-0.497
		l2.91,0.28l1.57-0.086l1.232-0.729l0.739-1.288l0.616-2.956l0.852-1.102l0.096-0.859l-0.185-0.847l-0.009-1.06l0.537-1.148
		l1.869-1.464l0.775-0.866l1.264-0.611l3.645-0.844l1.498-0.091l1.513-0.487l1.398-1.28l0.921-1.628l0.077-1.516l-2.919-4.744
		l-7.59-8.555L321.108,30z"/>
	<path class="st0" d="M440.893,146.738l3.279,0.502l-0.08,0.314l-4.107,3.022l-3.647,1.109l-1.421,1.572l-0.217-1.243l0.436-1.671
		l0.766-1.471l1.113-0.852l0.674-1.005l0.261-0.278l0.677-0.111L440.893,146.738z M430.607,146.331l-1.169,0.909l-1.098,1.336
		l-0.795,1.459l-0.481,1.501l-0.427,2.822l-1.727,4.415l-0.154,1.545l0.154,4.82l-0.154,0.756l-0.683,0.911l-0.16,0.816v13.076
		l-0.41,1.583l-0.154-0.099l-1.136-0.451h-0.379l-0.55,0.165l-0.347,0.212l-0.581-0.034l-0.675-0.229l-4.338-2.301l-0.742-0.29
		l-0.833-0.205l-3.648-0.176l-0.901-0.154l-0.418-0.131l-0.334-0.478l-0.288-0.81l0.22-2.568l0.317-1.601l0.418-4.147l-0.215-1.161
		l-1.21-2.119l3.132-1.989l2.299-1.135l0.547-0.381l0.592-0.575l2.143-3.352l0.605-0.598l0.748-0.469l1.313-0.387l0.884-0.034
		l0.709-0.137l0.499-0.342l0.364-0.678l0.189-0.634l0.556-3.589l0.616-0.907l1.34-1.048l4.982-2.703L430.607,146.331z
		 M426.117,184.093l0.288-9.636l0.745-3.083l7.692-13.596l1.944-2.642l2.659-1.877l3.211-0.807l3.08,0.161l2.795,0.855l4.357,2.302
		l1.43,1.339l0.359,0.209l0.223,0.263l0.605,0.511l0.329,0.161l0.014,0.188l-0.823,3.317l-0.187,0.535l-0.19,0.854l-0.053,0.674
		l0.113,1.195l0.266,1.209l0.507,1.51l0.075,0.461l-0.011,0.558l-0.807,2.04l-3.854,7.508l-0.597,0.831l-0.104,0.091l-0.168,0.114
		l-2.422,2.466l-0.891,1.123l-0.189,0.319l-0.111,0.444l-0.028,0.531l0.416,1.394l0.477,1.163l0.072,0.444l-0.004,0.523l-0.2,0.736
		l-0.727,1.593l-0.124,0.4l-0.087,0.427l-0.011,0.592l0.113,0.739l0.407,1.214l0.279,0.603l0.268,0.394l0.871,0.768l0.711,0.785
		l0.188,0.313l0.104,0.491l-0.023,0.648l-0.296,1.143l-0.466,1.088l-0.62,0.91l-0.179,0.332l-0.094,0.426l-0.011,0.478l0.45,1.06
		l0.569,0.938l0.141,0.358l0.202,0.775l0.729,1.759l0.207,0.756l-0.068,0.955l-1.198,1.907l-1.272-0.83l-0.565-0.245l-0.812-0.25
		l-3.217-0.193l-0.39-0.064l-0.247-0.171l0.1-0.643l-0.011-0.392l-1.198-4.115l-0.064-0.466v-0.485l-0.079-0.637l-0.158-0.745
		l-0.437-1.219l-0.886-1.725l-2.817-3.187l-2.97-1.856l-0.75-0.711l-0.922-1.06l-4.097-6.36l-1.551-0.988L426.117,184.093z"/>
	<path class="st0" d="M411.567,95.783l0.149,0.2l1.792,3.698l1.198,1.75l0.271-0.468l-0.728-1.814l0.138-0.804l1.005,0.072
		l1.807,0.613l1.536,1.282l1.401,1.349l1.199,1.482l1.198,1.818l1.53,2.491l1.842,2.26l1.158,1.65l5.721,5.679l1.323,2.259
		l0.537,2.441l-0.727,2.37l0.499-0.548l-0.377,3.159l0.377,9.434l-1.288,7.739l-0.902,1.175l-1.62,1.262l-1.381,0.413l-4.982,2.703
		l-1.34,1.048l-0.616,0.907l-0.556,3.589l-0.189,0.634l-0.364,0.678l-0.499,0.342l-0.709,0.137l-0.884,0.034l-1.313,0.387
		l-0.748,0.469l-0.605,0.598l-2.143,3.352l-0.592,0.575l-0.547,0.381l-2.299,1.135l-3.132,1.989l-1.132-2.714l-0.034-0.581
		l-0.351-0.649l-0.614-0.017l-0.599,0.142l-0.891,0.296l-0.407,0.097l-0.435,0.057l-1.104-0.074l-1.314-0.393l-0.639-0.347
		l-0.558-0.622l-0.447-0.962l-0.264-2.97l-0.096-0.399l-0.697-1.139l-1.939-0.662l-0.84,0.085l-0.441,0.361l-1.359,1.401
		l-0.403,0.233l-0.415,0.125l-0.42,0.074l-0.456,0.029l-0.963-0.051l-0.887-0.148l-2.64-0.985l-0.377-0.182l-0.829-0.537
		l-0.398-0.199l-1.803-0.393l-0.497-0.159l-0.524-0.307l-0.234-0.866l0.143-1.226l1.432-4.668l0.034-1.506l-0.074-0.82l-1.476-5.406
		l-0.113-1.027l0.038-1.031l0.155-1.022l4.067-12.422l0.411-0.604l0.588-0.65l1.873-1.472l0.522-0.616l0.109-0.714l-0.053-0.587
		l-0.19-0.559l-0.283-0.553l-1.383-2.14l-0.253-0.521l-0.121-0.553l-0.03-0.564l0.456-0.874l0.822-1.089l4.34-4.554l1.061-0.555
		l8.91-3.686l1.538-0.983l2.785-2.608L411.567,95.783z"/>
	<path class="st0" d="M424.597,187.531l0.858-0.046l-0.546-0.454l1.208-2.939l0.011-0.105l1.551,0.988l4.097,6.36l0.922,1.06
		l0.75,0.711l2.97,1.856l2.817,3.187l0.886,1.725l0.437,1.219l0.158,0.745l0.079,0.637v0.485l0.064,0.466l1.198,4.115l0.011,0.392
		l-0.1,0.643l0.247,0.171l0.39,0.064l3.217,0.193l0.812,0.25l0.565,0.245l1.272,0.83l1.918,0.843l0.392-0.023l0.582-0.085
		l1.291-0.633l2.725-0.779l2.452,2.191l0.469,0.244l1.07,0.148l0.808,2.378l0.04,1.292l-0.91,2.975l0.809,1.298l1.036,0.472
		l4.95,1.639l2.312,0.426l0.58,0.04l3.089,0.506l0.317,0.502l0.512,1.216l0.807,0.786l1.381,1.894l0.48,0.273l0.627,0.057
		l0.701-0.04l1.021,0.08l0.675,0.421l1.293,1.298l0.563,0.114l0.533-0.182l0.432-0.421l0.39-0.462l0.611-0.375l0.844-0.261
		l3.286,0.21l0.565-0.125l1.679-0.654l0.511-0.119l1.492,0.04l0.818-0.258l2.235,4.859l1.159,1.275l0.98,0.222l1.123,1.068
		l0.089,0.636l0.026,0.65l-0.13,0.568l-1.351,3.356l-3.91,16.34l-0.582,7.013l-0.324,1.592l-0.441,1.096l-2.325,2.451l-1.151,2.033
		l-1.751,4.604l-2.371,3.141l-1.5,2.689l-3.594,9.435l-7.133,8.003l-1.843,2.544l-1.17,3.011l-1.089,4.565l-2.885,8.284l-1.308,0.72
		l-2.241,0.456l-12.215,0.267l-1.072,0.164l-5.361,1.242l-10.983,0.093l-3.413-0.546l-1.5-0.516l-1.044-0.613l-0.505-0.371
		l-0.771-0.391l-3.145-1.01l-1.376-0.736L417,313.017l-1.05-3.111l-1.061-1.136l-3.324,0.978l-0.989-1.244l-1.851-10.409
		l-1.775-4.657l-0.143-3.012l1.764-10.566l0.087-5.274l-0.462-1.147l-0.827-0.829l-3.405-5.172l0.322-0.522l0.062-0.581
		l-0.017-0.681l0.085-0.806l0.252-0.712l0.656-1.204l0.531-1.495l1.038-0.466l3-0.125l6.315-1.001l1.754-0.528l1.266-1.306
		l1.664-3.213l1.321-3.02l0.872-2.978l0.407-3.1l-0.072-5.049l0.503-4.686l-0.296-4.633l0.296-1.646l1.813-3.897l0.957-1.368
		l0.213-1.745l0.006-6.008l-0.207-0.767l-0.788-1.781l-0.045-1.52l1.04-9.793l-0.211-0.707l-0.42-0.654l-0.288-0.597l0.173-0.548
		l0.362-0.512l0.23-0.624l0.117-0.677l0.038-0.669l-0.245-1.272l-1.747-3.509l-0.16-1.43l-0.009-3.263L424.597,187.531z"/>
	<path class="st0" d="M455.835,158.252l0.294,0.143l0.291-0.326l0.252-0.858l0.62-0.197l6.261,0.773l4.536,2.199l1.448,1.215
		l2.17,1.639l2.732,2.689l0.341,0.255l-0.032,0.122l0.098,4.045l0.234,0.99l0.431,1.043l0.614,1.144l0.22,0.639l0.119,0.637
		l-0.239,1.937l0.085,0.495l0.228,0.489l0.543,0.918l-0.034,0.404l-0.639,0.353l-0.548,0.023l-0.554-0.068l-0.497-0.12l-0.501-0.057
		l-0.516,0.028l-0.441,0.199l-0.347,0.41l-0.049,0.668l0.121,0.575l0.595,1.641l0.062,0.523l-0.024,0.529l-0.089,0.523l-0.192,0.565
		l-0.3,0.523l-0.609,0.461l-0.541,0.154l-2.15,0.267l-0.974,0.239l-0.339,0.171l-0.318,0.224l-0.499,0.603l-1.519,2.278
		l-0.656,0.671l-0.618,0.457l-0.501,0.267l-0.511,0.37l-0.605,0.745l-0.554,0.957l-3.837,10.059l-0.226,0.847l-0.111,1.128
		l0.134,3.851l0.678,3.523l-1.07-0.148l-0.469-0.244l-2.452-2.191l-2.725,0.779l-1.291,0.633l-0.582,0.085l-0.392,0.023
		l-1.918-0.843l1.198-1.907l0.068-0.955l-0.207-0.756l-0.729-1.759l-0.202-0.775l-0.141-0.358l-0.569-0.938l-0.45-1.06l0.011-0.478
		l0.094-0.426l0.179-0.332l0.62-0.91l0.466-1.088l0.296-1.143l0.023-0.648l-0.104-0.491l-0.188-0.313l-0.711-0.785l-0.871-0.768
		l-0.268-0.394l-0.279-0.603l-0.407-1.214l-0.113-0.739l0.011-0.592l0.087-0.427l0.124-0.4l0.727-1.593l0.2-0.736l0.004-0.523
		l-0.072-0.444l-0.477-1.163l-0.416-1.394l0.028-0.531l0.111-0.444l0.189-0.319l0.891-1.123l2.422-2.466l0.168-0.114l0.104-0.091
		l0.597-0.831l3.854-7.508l0.807-2.04l0.011-0.558l-0.075-0.461l-0.507-1.51l-0.266-1.209l-0.113-1.195l0.053-0.674l0.19-0.854
		l0.187-0.535l0.823-3.317L455.835,158.252z"/>
	<path class="st0" d="M474.781,165.784l1.607,1.203l3.925,3.755l2.329,2.359l0.667,1.104l1.322,0.573l1.595,1.663l4.183,3.383
		l2.311,1.885l1.54,1.33l0.989,1.052l1.1,1.108l1.429,1.551l1.501,3.602l2.215,5.211l0.798,1.026l0.23,1.431l0.336,0.583
		l0.619-0.901l0.097,0.516l-0.386,0.838l-0.294,1.336l0.411,1.537l0.024,0.432l-0.147,0.474l-0.352,0.404l-0.756,0.444l-1.059,0.307
		l-2.489,0.432l-0.441,0.034l-0.816,0.155l-0.381,0.159l-0.371,0.216l-0.407,0.449l-0.286,0.489l-0.166,0.934l0.085,1.086
		l0.571,2.361l0.171,0.313l0.275,0.239l0.305,0.201l0.528,0.489l0.189,0.307l0.083,0.364l-0.034,0.415l-0.351,1.179l-1.517,2.708
		l-0.368,0.394l-0.324,0.262l-0.386,0.119l-0.394-0.023l-0.426-0.263l-0.573-0.546l-0.288-0.21l-0.349-0.165l-0.513-0.034
		l-0.644,0.182l-0.905,0.404l-0.886,0.866l1.244,2.02l0.386,1.753l0.317,3.503l-0.232,2.474l-0.818,0.258l-1.492-0.04l-0.511,0.119
		l-1.679,0.654l-0.565,0.125l-3.286-0.21l-0.844,0.261l-0.611,0.375l-0.39,0.462l-0.432,0.421l-0.533,0.182l-0.563-0.114
		l-1.293-1.298l-0.675-0.421l-1.021-0.08l-0.701,0.04l-0.627-0.057l-0.48-0.273l-1.381-1.894l-0.807-0.786l-0.512-1.216
		l-0.317-0.502l-3.089-0.506l-0.58-0.04l-2.312-0.426l-4.95-1.639l-1.036-0.472l-0.809-1.298l0.91-2.975l-0.04-1.292l-0.808-2.378
		l-0.678-3.523l-0.134-3.851l0.111-1.128l0.226-0.847l3.837-10.059l0.554-0.957l0.605-0.745l0.511-0.37l0.501-0.267l0.618-0.457
		l0.656-0.671l1.519-2.278l0.499-0.603l0.318-0.224l0.339-0.171l0.974-0.239l2.15-0.267l0.541-0.154l0.609-0.461l0.3-0.523
		l0.192-0.565l0.089-0.523l0.024-0.529l-0.062-0.523l-0.595-1.641l-0.121-0.575l0.049-0.668l0.347-0.41l0.441-0.199l0.516-0.028
		l0.501,0.057l0.497,0.12l0.554,0.068l0.548-0.023l0.639-0.353l0.034-0.404l-0.543-0.918l-0.228-0.489l-0.085-0.495l0.239-1.937
		l-0.119-0.637l-0.22-0.639l-0.614-1.144l-0.431-1.043l-0.234-0.99l-0.098-4.045L474.781,165.784z"/>
</g>
<g id="Copyright">
	<text transform="matrix(1 0 0 1 681.6426 577.5916)" class="st1 st2">© Vemaps.com</text>
</g>
</svg>
