<?xml version="1.0" encoding="utf-8"?>
<!-- Generator: Adobe Illustrator 23.0.1, SVG Export Plug-In . SVG Version: 6.00 Build 0)  -->
<svg version="1.1" xmlns="http://www.w3.org/2000/svg" xmlns:xlink="http://www.w3.org/1999/xlink" x="0px" y="0px"
	 viewBox="0 0 800 600" style="enable-background:new 0 0 800 600;" xml:space="preserve">
<style type="text/css">
	.st0{fill:#808080;stroke:#FFFFFF;stroke-width:0.5;stroke-linecap:round;stroke-linejoin:round;}
	.st1{font-family:'Roboto-Regular';}
	.st2{font-size:14px;}
</style>
<g id="Honduras">
	<path class="st0" d="M36.28,396.855l-1.809-0.291l-0.255-3.767l0.212-1.92l0.761-1.581l1.201-0.789l2.608-0.667l0.967-1.03
		l1.167-2.108l1.634-1.776l3.675-3.183l1.064-1.325l0.57-0.946l0.889-0.602l1.998-0.26l1.44,0.26l2.948,1.022l1.356-0.107
		l1.38-1.319l0.546-2.009l0.061-2.153l-0.491-6.112l0.418-0.762l1.246-1.357l0.297-0.95l-0.212-2.066l-0.201-0.31l1.781-0.511
		l3.8-1.141l1.537-0.539l7.032,0.985l1.804,2.527l0.843,3.655l1.001,1.724l7.511,5.71l0.74,1.661l-0.067,3.171l0.188,0.902
		l1.562,2.475l2.026,2.136l2.095,0.89l1.595,0.407l1.41,1.197l1.453,0.288l1.192-0.363l0.309-0.207l-0.094-0.401l-0.279-0.376
		l-0.049-0.495l-0.012-1.447l0.397-0.94l0.852-0.583l1.935-0.727l1.128-0.313l1.076-0.175l0.943,0.013l2.283,0.382l2.793-0.244
		l1.083,0.426l0.306,0.232l0.394,1.855l-3.06,9.002l-0.276,1.409l-0.397,0.495l-0.652,0.589l-0.934,0.539l-3.396,1.14l-2.484-0.363
		l-0.779-0.545l-0.243,0.038l-0.167,0.282l-0.27,1.127l-0.036,0.839l0.061,0.589l1.446,1.979l-3.023,0.056l-1.343-0.614l-0.637-0.62
		l-1.125-1.353l-0.849-0.013l-0.649,0.232l-0.273,1.183l-0.146,1.572l-0.74,1.684l-0.607,1.027l-3.842,1.79l-1.877,0.213
		l-0.77,0.538l-0.722,0.839l-1.016,1.653l-0.713,0.801l-0.828,0.707l-0.467,0.651l-0.118,0.92l0.901,2.966l0.252,3.917l-0.137,3.243
		l-0.066-0.565l-0.443-1.517l-1.052-1.786l-1.083-1.311l-2.978-2.269l-0.528-1.086l-0.467-3.711l-0.749-1.499l-1.877-0.942
		l-4.003-0.469l-1.337-1.155l0.461-1.193l0.103-1.233l-0.255-1.205l-0.585-1.111l-0.673-0.911l-0.576-0.538l-0.688-0.132
		l-1.037,0.288l-0.931,0.961l-1.689,3.274l-1.113,1.021l-5.419-1.621l-2.978-2.116l-5.986-1.284l-3.642-1.734L36.28,396.855z"/>
	<path class="st0" d="M113.2,445.438l0.043-0.624l-0.264-1.01l-0.582-0.813l-0.846-0.728l-0.546-0.2l-2.517-0.338l-1.841-1.21
		l0.067-1.704l0.706-1.991l0.097-2.048l-0.84-1.379l-1.025,0.106l-1.21,0.75l-1.398,0.547l-5.146-0.388l-2.062,0.307l-0.77-3.415
		l-1.762-3.618l-2.456-3.109l-2.905-1.861l-1.835-0.038l-1.641,0.71l-1.392,0.816l-1.137,0.253l-1.034-0.751l-0.382-1.286
		l-0.116-0.99l0.137-3.243l-0.252-3.917l-0.901-2.966l0.118-0.92l0.467-0.651l0.828-0.707l0.713-0.801l1.016-1.653l0.722-0.839
		l0.77-0.538l1.877-0.213l3.842-1.79l0.607-1.027l0.74-1.684l0.146-1.572l0.273-1.183l0.649-0.232l0.849,0.013l1.125,1.353
		l0.637,0.62l1.343,0.614l3.023-0.056l-1.446-1.979l-0.061-0.589l0.036-0.839l0.27-1.127l0.167-0.282l0.243-0.038l0.779,0.545
		l2.484,0.363l3.396-1.14l0.934-0.539l0.652-0.589l0.397-0.495l0.276-1.409l3.06-9.002l-0.394-1.855l-0.306-0.232l-1.083-0.426
		l-0.361-7.332l-1.404-2.551l-0.846-1.272l-3.581-3.423l-1.271-3.091l-0.07-0.502l0.218-1.812l1.732-0.571l5.856,0.696l4.243-0.314
		l3.324-0.972l0.919-0.094l0.109-0.715l-0.064-0.696l-0.5-2.195l-1.207-2.716l-0.792-1.342l-0.118-1.807l0.176-1.593l0.291-1.004
		l0.503-0.922l0.637-0.609l0.852-1.054l0.24-0.54l-0.212-1.305l1.562-1.155l0.473-3.219l-0.625-3.835l4.148-1.255l0.888-0.483
		l5.468,0.835l2.568,6.854l3.239,5.333l2.15,2.735l0.901-0.301l1.868-1.581l1.189-1.92l1.319-1.292l1.022-0.082l1.319,0.571
		l0.255,0.276l1.462,2.058l3.139-0.069l2.408,1.456l-3.324,5.702l0.679,0.778l1.883,3.192l1.701,0.934l1.968,0.257l1.453-0.182
		l0.77,1.417l-0.643,3.712l-2.523,4.201l1.161,2.219l1.334,7.621l-2.314,4.236l-0.685,2.293l-0.234,1.416l-1.225,2.017l-3.233,1.71
		l-2.762,0.401l-5.337-0.056l-2.875,0.877l-1.959,1.265l-0.379,0.94l0.804,5.035l2.335,3.143l2.402,2.116l2.568,0.326l0.416,0.419
		l0.758,1.033l1.249,6.047l-0.197,2.19l-1.131,2.478l-0.103,0.863l0.285,0.663l0.558,0.425l0.649,0.375l0.767,0.35l0.716,0.488
		l0.688,0.369l0.555,0.2l0.47,0.025l0.57-0.125l0.597-0.031l0.731,0.05l2.547,0.551l2.104,1.233l0.191,1.245l-0.161,0.482
		l-0.003,1.17l-0.045,0.507l0.182,2.596l0.788,5.329l-0.261,1.714l-0.394,0.344l-0.631,0.694l-0.182,0.55l-0.112,0.738v0.938
		l-0.315,0.494l-0.328,0.194l-0.561,0.137l-1.082,0.438l-2.617,2.395l-6.562,3.863l-3.791,1.713l-1.953,1.5l-0.34,0.556
		l-0.085,0.312l-1.31,1.769l-0.253,0.156l0.068-0.06l0.036-0.294l0.091-0.381l-1.049-1.034l-1.137-0.478l-5.17-0.394l-8.891-2.85
		l-2.99-0.2l-2.99,0.462l-0.719,0.278L113.2,445.438z"/>
	<path class="st0" d="M135.968,464.857l1.034-1.708l-0.079-1.937l-1.271-3.174l-0.327-1.15l0.243-1.784l0.4-1.472l0.085-1.409
		l-0.599-1.32l-0.128-0.283l0.482,0.064l0.033,0.004l0.096-0.084l0.253-0.156l1.31-1.769l0.085-0.312l0.34-0.556l1.953-1.5
		l3.791-1.713l6.562-3.863l2.617-2.395l1.082-0.438l0.561-0.137l0.328-0.194l0.315-0.494v-0.938l0.112-0.738l0.182-0.55l0.631-0.694
		l0.394-0.344l0.261-1.714l-0.788-5.329l-0.182-2.596l0.045-0.507l0.003-1.17l0.161-0.482l-0.191-1.245l-2.104-1.233l-2.547-0.551
		l-0.731-0.05l-0.597,0.031l-0.57,0.125l-0.47-0.025l-0.555-0.2l-0.688-0.369l-0.716-0.488l-0.767-0.35l-0.649-0.375l-0.558-0.425
		l-0.285-0.663l0.103-0.863l1.131-2.478l0.197-2.19l-1.249-6.047l-0.758-1.033l-0.416-0.419l-2.568-0.326l-2.402-2.116l-2.335-3.143
		l-0.804-5.035l0.379-0.94l1.959-1.265l2.875-0.877l5.337,0.056l2.762-0.401l3.233-1.71l1.225-2.017l0.234-1.416l0.685-2.293
		l2.314-4.236l-1.334-7.621l-1.161-2.219l9.134,0.671l6.866-0.727l5.192-0.47l3.942,0.802l3.427,0.332l0.831-0.627l2.159-1.26
		l1.601,2.226l0.606,0.282l1.165,0.364l0.879,0.107l4.051,1.059l1.98,1.467l2.135,0.777l1.101,1.473l0.958,1.824l0.112,0.451
		l0.118,1.253l0.267,0.783l0.749,1.491l0.907,0.746l2.844,1.416l0.743,0.602l0.428,0.52l0.033,1.222l-0.115,1.14l1.386,1.328
		l3.769,4.798l0.892,1.722l0.052,0.432l-0.042,0.376l-0.1,0.276l-0.482,0.451l-5.228,3.889l-1.401,0.789l-1.456,0.62l-1.231,0.013
		l-0.925-0.207l-0.798-0.313l-0.576,0.031l-0.361,0.657l-0.264,1.609l0.479,3.694l-1.889,3.593l-0.622,0.801l-1.128,0.789
		l-1.398,0.551L194,412.017l-0.412,1.527l0.079,0.926l-0.97,1.69l-4.925,0.181l-4.027,3.373l-1.904,1.94l-1.019,2.515l-0.97,1.395
		l-0.321,0.319l-3.372,1.695l-1.274,1.195l-6.389,7.117l-0.737,0.663l-0.431-0.138l-0.306,0.338l0.003,0.588l0.764,1.213
		l0.749,0.788l1.058,2.276l-1.04,6.051l0.167,0.294l0.009,0.016l-0.282-0.063l-1.762-0.188l-1.152,0.438l-0.055,0.406l0.115,2.394
		l0.243,0.431l1.049,0.972l0.209,0.325l-0.561,1.653l-0.752,0.175l-1.04-0.169l-1.404,0.603l-0.77,0.856l-0.47,0.835l-0.394,0.699
		l-0.928,0.89l-1.277,0.437l-1.422,0.106l-1.271,0.469l-0.816,1.515l-0.752-0.319l-0.934-0.281L153.368,460l-0.764,0.05
		l-0.367,0.431l-0.085,0.75v0.715l-0.139,0.35l-0.858-0.087l-1.871-0.743l-1.125-0.062l-4.728,1.053l-2.138,0.906l-2.195,1.34
		L135.968,464.857z"/>
	<path class="st0" d="M199.839,459.921l-0.257-0.052l-1.756,0.475l-5.349,2.68l-0.976-2.999l-1.917-2.293l-2.162-1.978l-1.701-2.047
		l-1.719-4.49l-1.35-1.122l-3.093-0.175l-6.12,0.734l-1.871-0.044l-2.838-0.634l-0.009-0.016l-0.167-0.294l1.04-6.051l-1.058-2.276
		l-0.749-0.788l-0.764-1.213l-0.003-0.588l0.306-0.338l0.431,0.138l0.737-0.663l6.389-7.117l1.274-1.195l3.372-1.695l0.321-0.319
		l0.97-1.395l1.019-2.515l1.904-1.94l4.027-3.373l4.925-0.181l0.97-1.69l-0.079-0.926l0.412-1.527l0.719-0.588l1.398-0.551
		l1.128-0.789l0.622-0.801l1.889-3.593l-0.479-3.694l0.264-1.609l0.361-0.657l0.576-0.031l0.798,0.313l0.925,0.207l1.231-0.013
		l1.456-0.62l1.401-0.789l5.228-3.889l1.201,1.791l1.613,1.691l4.646,1.271l0.094,0.244l1.092,1.152l0.343,0.138l3.578,0.72
		l1.264,0.682l2.381,0.864l1.252,0.094l0.961,0.275l5.276-2.179l0.537,0.438l1.422,3.105l0.331,0.945l0.406,2.341l-0.791,1.296
		l0.973,0.945l-0.388,1.565l-1.119,1.446l-0.543,0.401l-1.034,0.419l-1.847,0.4l-1.771-0.25l-1.537,1.164l-1.086,0.526l-2.532,0.92
		l-1.456,0.357l-1.853,0.269l-2.347-0.2l-4.388,1.082l-0.688-0.288l-0.188-0.012l-0.34,0.063l-0.255,0.175l-0.346,0.838l0.361,2.39
		l4.051,1.714l1.644,1.939l-0.582,1.902l-0.264,0.488l-0.173,0.613l0.146,0.469l0.422,0.432l1.959,0.75l1.192,0.238l1.331,0.519
		l1.274,0.757l2.068,1.77l1.246,0.675l0.834,1.094l0.691,1.257l0.124,4.083l3.054-2.989l1.525-1.126l4.151-0.419l2.189,15.872
		l-0.203,2.312l-0.907,4.261l-0.327,0.812l-0.315,0.487l-0.922,2.824l-3.248,4.185h-2.508l-2.869-1.899l-4.84,0.181l-1.811,0.336
		l-1.855-1.601l-0.716-0.394l-1.641-0.637l-0.609-0.372l-0.952-1.434l-1.143-3.18l-1.107-0.875l-1.762,0.075l-1.18,0.984
		l-0.97,1.237l-1.137,0.809l-1.131,0.075l-2.296-0.481l-1.174-0.072l-0.913,0.316l-1.51,1.168l-0.537,0.272l-0.804-0.234
		l-1.731-1.131L199.839,459.921z"/>
	<path class="st0" d="M215.733,518.553l9.243-4.238l2.026-2.31l0.276-1.55l-0.209-1.606l-0.603-1.447l-0.904-1.054l-1.707-0.667
		l-2.487,0.83l-1.21-0.437l-1.228-2.757l0.688-3.338l2.814-6.82l0.267-2.2l-0.097-4.481l0.425-2.132l1.022-1.482l1.177-1.121
		l0.579-1.299l-0.761-2.001l0.591-1.973l2.368-5.48l1.058-1.758l-2.065-0.834l-3.324-2.868l1.811-0.336l4.84-0.181l2.869,1.899
		h2.508l-0.027,3.554l-0.249,5.264l0.885,1.374l4.791,3.284l3.606,0.699l2.15-0.225l0.421,0.175l0.552,0.337l0.346,0.424
		l4.179,3.184l3.066,1.935l1.201,0.337l0.898-0.524l0.236,0.275l2.068,1.729l0.992,0.512l0.797,0.58l0.522,0.811l-0.3,4.805
		l0.537,0.886l0.479,0.98l0.136,0.805l1.677,3.668l4.206,3.156l-0.382,2.483l0.167,1.123l0.655,1.815l1.307,2.551l0.206,2.457
		l-1.283,2.956l-2.384,1.833l0.001,0.019l-1.734-1.605l-0.802-0.57l-1.075-0.226l-2.354,0.442l-0.931-0.201l-1.117-1.139
		l-2.006,1.473l-0.616,0.638l-0.583,1.188l-0.215,1.62l0.396,0.874l0.091,0.658l-1.146,0.962l-0.731,0.088l-4.074-0.088
		l-1.834,0.452l-1.055,0.034l-1.122-0.486v-0.825h1.681v-0.741l-2.225-0.481l-2.292-0.83l-2.058-0.177l-1.519,1.487h-0.793
		l0.215-1.188l1.309-3.009l-1.605-0.628l-0.372-1.326l0.454-3.403l-0.64-1.817l-1.461,0.309l-1.633,1.375l-1.146,1.37l1.075,3.427
		l-1.724,3.201l-3.18,2.356l-3.309,0.898l-2.101-0.403l-2.741-1.688l-2.244-0.751l-0.186-0.825v-0.825l-0.415-0.373l-1.146-0.059
		l-0.793-0.187L215.733,518.553z M239.444,532.6l0.372,0.873l-0.224,1.874l-1.227,1.737l-2.607,0.451l-1.409-0.216l-0.492-0.216
		l-0.506-0.392v-0.746h0.812l-0.449-0.638l-0.712-1.335l-0.444-0.643l1.901-0.633l1.499-0.206L239.444,532.6z M238.603,523.099
		l1.16,0.344l3.166-0.687l1.719-0.034v0.741l-2.034,0.952l1.39,4.756l-1.762,1.708l-5.43-1.781l-2.517-1.512l0.296-2.096
		l1.528-2.253l1.06-0.692L238.603,523.099z"/>
	<path class="st0" d="M546.372,356.965l-0.24,0.162l-1.604,1.518l-1.043,1.897l-0.616,4.489l-0.382,0.724l-0.607,0.285l-1.844,0.505
		l0.634,1.182l3.324,2.376l-2.584,2.457l-0.698,0.934l3.045-0.003l-0.169,0.396l-0.702,1.648l-4.179,4.208l-2.481,1.178
		l-1.992-1.494l-1.874-2.074l-2.138-0.548l-0.931,1.726l-0.509,3.365l-0.237,6.127l-0.419,0.786l-2.711,2.894l-0.139,0.77
		l0.273,1.851l-0.133,0.767l-3.208,2.483l1.889,1.249l2.095,1.919l1.507,2.417l0.118,2.761l-1.362,2l-2.414,1.468l-2.936,0.976
		l-2.905,0.516h-4.443l-1.219,0.263l-2.79,1.393l-1.101,0.282l-0.643,0.676l-0.476,0.817l-0.831,1.008l-0.334,0.885l-0.331,0.394
		l-0.491,0.106l-1.258-0.2l-0.509,0.094l-1.131,1.092l-1.349,1.774l-1.128,1.899l-0.852,3.097l-0.967,2.302l-1.295,2.336
		l-1.359,1.698l-3.038,2.395l-2.002,1.166l-4.221,1.163l-0.676,1.604l-0.261,1.929l-1.095,1.657l-2.192,0.725l-1.938,0.35
		l-0.015-0.041l-1.452-3.945l-0.528-0.525l-0.898-0.713l-0.955-0.531l-1.158-0.926l-0.458-0.925l-0.2-1.201v-1.413l-0.479-2.527
		l-0.713-1.495l-1.14-1.289l-1.835-1.583l-1.001-0.313l-0.57,0.131l-0.218,0.907l-0.361,0.125l-0.81-0.081l-4.458-1.414
		l-5.559-1.207l-0.734,0.1l-0.503,0.526l-1.38,2.802l-0.543,0.457l-0.722,0.181l-1.55-0.288l-1.155-0.601l-1.547-1.076l-1.14-0.2
		l-0.983,0.119l-0.506,0.332l-0.452,0.419l-0.528,0.338l-1.207,0.557l-0.412,0.35l-0.285,0.45l-0.2,0.569l-0.112,1.245l-0.127,0.544
		l-0.315,0.513l-0.61,0.45l-0.855,0.306l-1.598,0.063l-0.798-0.175l-1.346-1.095l-2.332-3.109l-4.497-2.058l-0.913-0.782
		l-0.564-0.938l-0.197-1.101l-0.443-1.652l-0.703-1.595l-1.474-2.422l-1.207-1.064l-1.255-0.663l-2.068-0.469l-0.516-0.019
		l-0.497,0.144l-0.406,0.332l-0.315,0.4l-0.415,1.014l-0.458,0.476l-0.976,0.063l-2.972-0.695l-3.333-1.252l-0.828-0.907
		l-3.139-5.708l-1.052-1.264l-1.031-0.538l-1.51-0.313l-3.039-0.044l-1.207,0.157l-2.256,0.651l-1.719,0.864l-1.252,0.776
		l-0.664,0.219l-0.673,0.307l-0.579,0.426l-1.11,1.051l-2.656,1.659l-0.837,0.351l-1.362,0.206l-8.649-0.532l-1.08-0.363
		l-0.561-0.482l-0.667-1.665l-0.552-0.795l-0.54-0.62l-2.189-1.634l-2.723-0.745l-0.431-0.282l-2.378-2.392l-6.574-1.847
		l-2.468-0.282l-0.864,0.156l-0.543-0.15l-0.44-0.501l-0.582-1.24l-1.18-1.371l-0.516-0.288l-0.446-0.075l-1.228,0.194l-0.379,0.163
		l-0.367,0.2l-1.168,0.113l-0.664-0.106l-5.034-2.11l0.076-1.697l-1.477-4.09l-0.37-1.666l-0.206-1.829l-0.428-0.877l-1.222-1.942
		l-0.282-1.128l-0.127-1.028l0.491-1.942l0.082-2.168l-2.202-2.845l-4.088-3.823l-1.095-1.153l-2.28-0.564l-1.043-0.853
		l-1.571-1.749l-1.389-2.627l-3.66-9.055l-0.952-4.479l-0.904-1.317l-0.321-1.305l-0.294-3.275l-0.537-1.293l-0.788-1.305
		l-0.418-0.872l-0.707-2.56l1.143-0.979l0.946-3.295l1.098-0.929l-0.261-0.326l-0.455-0.396l-1.692-0.898l-1.346-1.431l-2.759-1.457
		l-1.058-1.042l-1.21-1.488l-0.473-0.81l-0.291-1.35l1.662-3.002l0.44-0.389l0.713-0.465l0.512,0.019l0.925,0.176l3.551-0.967
		l2.344-2.135l1.744-1.219l0.646-1.093l0.176-0.942l0.018-0.766l0.091-0.792l0.285-0.848l0.507-1.112l0.816-1.307l0.246-0.704
		l-0.018-0.465l-0.07-0.484l0.024-0.371l0.922-2.067l-0.913-7.334l0.1-0.987l0.373-1.647l0.391-0.497l0.482-0.358l0.801-0.17
		l1.75-0.943l0.409-0.163l1.001-0.748l0.279-0.987l5.468-1.207l3.59,2.968l0.995,0.27l1.28,0.226l2.126-0.013l0.928-0.207
		l0.749-0.402l1.183-0.893l1.165-0.371l0.776-1.735l0.928-1.138l1.171-3.081l0.427-0.723l0.619-0.447l0.488,0.063l0.546,0.151
		l0.628,0.044l0.876-0.333l9.949-5.447l1.465-0.365l1.295-0.006l2.799,0.849l1.695,0.931l1.498,1.006l1.083,0.962l0.97,1.05
		l0.564,0.855l0.361,0.73l0.728,0.604l1.325,0.44l2.799,0.038l1.562-0.176l3.039-1.484l6.52-3.962l1.51-0.535l5.252-3.799
		l7.19,3.856l2.708,0.616l2.687-0.635l2.214-1.107l1.95-0.378l1.04-0.453l2.111-0.308l1.137,0.101l0.952,0.277l0.852,0.39h0.776
		l0.488-0.755l6.756-3.661l7.135-7.01l2.881-4.733l0.546-0.667l0.801-0.34l0.804,0.126l0.782,0.283l1.38,0.9l1.289,0.076
		l2.302-1.448l2.52-2.052l0.931-1.108l0.388-0.881l-0.206-1.127l2.602-1.303l0.588,0.088l0.792,0.34l0.801,0.686l1.137,0.485
		l0.943-0.176l1.173-0.453l0.995-0.548l2.471,0.529l9.458,5.156l12.027,10.397l12.827,4.939l4.17,3.391l6.256,9.226l6.784,8.349
		l1.956,1.213l16.427,7.284l3.878,3.613l7.005,8.305v10.663v28.927V356.965z"/>
	<path class="st0" d="M765.784,326.001l-1.55,0.257l-3.96-0.232l-1.635,0.311l-3.099,1.428l-5.198-0.085l-0.485,0.085l-1.428-0.562
		l-0.861-0.606l0.091-0.64l1.398-0.688l-5.173-0.549l-2.017,0.135l-1.774,1.171l-0.609-1.611l-1.225-0.763l-1.507-0.597
		l-1.465-1.181l-1.125,2.107l-1.828,2.028l-2.378,1.428l-2.753,0.326l-1.08-0.596l-1.428-2.204l-0.622-0.6l-1.544-0.264
		l-1.183,0.135l-0.397,0.612l0.792,1.177l-0.619,0.807l-0.191,0.747l-0.07,1.843l-1.152-1.074l-0.655,0.521l-0.152,1.412
		l0.358,1.629l-0.661-0.323l-1.744-0.509l0.261,0.37l0.315,0.86l0.231,0.427l-1.689,0.505l-2.923,2.344l-2.875,1.083l-0.576,1.315
		l-0.249,1.635l-0.506,1.484h-0.873l-0.998-1.277l-2.159-0.643l-2.605-0.138l-2.326,0.323l-2.189,1.048l-0.455,1.349l1.113,3.485
		h-0.87l-0.443-1.035l-0.87-0.549l-1.21-0.169l-1.483,0.094l0.24,1.885l-2.438,0.957l-6.544,0.402l0.837,1.421l0.579,0.593
		l0.913,0.621l-2.165,0.019l-2.329,0.753l-2.089,1.17l-1.428,1.295l-0.679-0.869l-0.409-0.301l-0.461-0.132l-0.852-0.351
		l0.579,1.138l0.146,0.514l-1.501-0.405l-1.889-2.032l-1.416-0.8l-0.579,2.779l-0.024,1.12l0.603,0.997l-11.602,0.621l-2.017-0.245
		l-0.224-0.938l-0.604-0.332l-1.98,0.066l-1.234-0.166l-0.443-0.43l-0.303-0.561l-2.687-1.716l-0.858,0.063l-1.286,1.079
		l1.362,2.851l0.813,1.113l1.028,1.003v0.909l-0.804,0.514l-0.497-0.056l-0.552-0.288l-0.985-0.169l-1.07,0.232l-0.6,0.505
		l-0.473,0.583l-0.694,0.408l-2.863,0.837l-1.725,0.135l-1.422-0.589l-2.778-3.001l-0.904-0.768l-1.058-0.602l-1.622-0.568
		l-1.477,0.107l-0.649,1.439l0.607,5.694l-0.601,2.671l-2.408,1.276l-1.301-0.094l-2.851-0.646l-1.786-0.166l-0.898-0.643
		l-0.84-3.154l-1.143-1.169l-1.55,2.292l-1.628,3.063l-2.162,2.677l-4.376,1.545l-3.039,1.705l-1.301,0.382l-1.798-0.539
		l-1.228-1.056l-1.24-0.686l-1.78,0.552l0.352-2.376l0.446-0.859l-8.57-0.257l-2.644-0.57l-4.546-1.969l-2.247-0.245l-2.168,1.307
		l-1.771-4.154l-1.225-2.029l-2.399-1.634l0.118-1.615l-0.324-1.465l-2.335-0.295l0.064-0.238l0.919-1.189l0.364-0.342l-1.726-2.873
		l-2.578-1.932l-3.048-0.922l-3.09,0.135l-7.017,1.283l-1.926,1.126l-5.38,5.228l-2.102,1.505l-1.828,1.239v-0.092v-28.927v-10.663
		l0-111.969l5.771,1.945l11.303,5.158l14.186,4.237l6.694,2.297l1.675,1.289l-0.728,1.516l-1.452,2.232l-0.01,1.919l-0.016,3.039
		l2.468,2.411l2.319,0.332l2.885-0.944l0.414-2.476l0.326-1.118l1.12,0.086l0.791,1.523l2.071,1.45l2.961-0.463l2.796,0.336
		l5.75,0.754l1.047-1.273l1.843-0.788l-2.471-1.055l-2.954-0.658l-9.265-1.573l-3.511-1.539l-2.954-1.455l-1.03-1.925l4.716,0.986
		l16.135,3.054l10.545,1.107l6.956,0.367l2.395,0.816l6.366,5.325l8.606,7.03l12.765,10.903l12.367,10.644l6.896,5.811l8.994,5.515
		l2.168,1.283l2.135,0.951l4.131,0.694l1.041,0.55l0.802,1.189l0.072,0.951l-0.769,0.624l-1.748,0.223l-2.053-0.802l-4.451-3.527
		l-3.314-1.149l-2.225-1.58l-1.098-0.5l-3.563-0.035l-1.552-0.342l-1.375-1.358l0.549-0.208l0.497-0.367l0.559-0.188l-1.017-1.516
		l-3.859-4.376h-0.802l-1.285,0.639l-1.576-0.937l-1.648-1.398l-1.504-0.719l-2.407,0.302l-1.103,0.758l-0.85,1.056l-1.652,1.13
		l-0.745-0.505l-3.257-1.16l1.5-1.333l0.635-0.743l0.272-0.793l-0.563-0.283l-1.261-0.208l-1.385-0.055l-0.874,0.173l-0.33,1.314
		l0.755,2.092l1.366,2.24l1.48,1.759l-0.291,0.268l-0.129,0.084l-0.115,0.139l-0.258,0.416h-0.802l-3.515-6.859l-1.299-1.452
		l-1.337-0.233l-1.542,0.297l-2.001,0.684l-1.394-0.099l-2.015-0.486l-1.394-0.164l0.907,2.766l0.755,0.947l2.149,0.763l0.029,1.011
		l-0.387,1.368l-0.243,1.457h0.802l0.363-1.863l2.349-1.11l1.06-3.375l1.108-0.362l1.094,0.664l1.59,3.985l1.901,3.221l0.693,2.745
		l-2.517,1.159l-1.242,1.357l0.898,3.076l1.996,3.333l1.996,2.13l3.028,1.615l2.502,0.604l1.117-1.139l-1.117-3.571l1.576,1.248
		l1.394,1.649l0.554,1.882l-0.965,1.941l1.604,2.01l2.264,0.376l5.735-0.723v0.827l-1.132-0.044l-0.764,0.223l-1.299,0.654v0.757
		l0.974,2.069l1.442,1.896l1.925,1.381l2.464,0.544l2.135-0.262l2.732-0.698l2.627-1.059l1.791-1.302l-1.485-1.451l-4.99-2.708
		l-0.845-0.832l-0.392-0.807l-0.477-0.614l-1.094-0.238l-1.261-0.094l-8.968-3.194l-1.461-0.941l-2.722-3.952l-1.361-1.035
		l1.041-0.926l1.151-0.614l2.622-0.951l10.473,4.626l1.691,2.471l0.664,1.293l1.614,1.189l1.987,0.881l3.343,0.713l1.39,0.98
		l1.199,1.362l1.022,1.515l-0.783,0.53l-0.95,0.852l-0.673,0.282v0.757l1.929,0.431l1.633-1.193l1.266-0.158l0.86,3.564
		l-0.263,4.524l0.263,1.208l0.864,0.876l0.888-0.054l0.597-0.871l-0.024-1.603h0.879l1.041,2.366l0.984-0.564l1.977-3.544
		l1.824-1.059l2.431-0.728l4.198-0.549l0.516-0.574l-0.243-2.762l0.167-0.97l0.783-0.52l0.745,0.059l0.883,0.282l7.607,1.495
		l1.996-0.411v0.757l-0.697,0.728l0.076,0.49l0.387,0.535l0.234,0.891v3.663l-0.611,1.831l-1.356,0.762l-1.347-0.525l-0.616-2.069
		l-0.43-0.619l-1.017-0.411l-1.218-0.228l-1.017-0.069l-0.702,0.5l-0.635,1.104l-0.74,1.792l-0.53,0.633l-0.516,0.391l-0.392,0.599
		l-0.162,1.287l0.282,1.118l0.664,0.203l0.798-0.351l0.659-0.554l-0.597-1.029l-0.119-0.792l0.234-0.718l0.482-0.787h0.874
		l0.244,2.984l0.802,2.138l1.476,0.816l2.292-0.95l0.63-0.698l1.07-1.781l0.697-0.772l0.926-0.594l5.258-1.905l-0.043-0.426
		l-0.53-1.297l-0.492-0.752l-0.669-0.554l-0.673-0.708l-0.492-1.232l-0.396-1.723l-0.86-2.327l-1.457-1.376l-2.178,1.119
		l-3.486-2.099l-1.734-0.386l-2.063,0.896l-0.721-0.827l0.263-0.456l0.458-1.208l-1.891-0.258l-5.076-1.882l-1.041-0.772
		l-1.232-1.377l-2.45-0.792l-1.82-1.07l0.697-2.234l1.924-0.946l1.829,1.006l1.652,1.6l1.404,0.832l1.261,0.421l12.679,6.641
		l15.793,6l6.07,4.465l1.38,2.292l1.891,7.813l2.063,4.888l3.118,4.629l3.577,2.883L765.784,326.001z"/>
	<path class="st0" d="M480.273,441.782l-1.004,0.181l-2.572,0.853l-1.11,1.685l-1.143,1.185l-4.115,1.263l0.382,1.272l-0.358,0.119
		l-0.321-0.006l-0.182,0.141l0.055,0.569h-0.725l-1.001-0.3l-2.383,2.072l-1.495,0.706l-2.083-0.144l-1.216-0.281l-0.57,0.662
		l-0.139,2.65l-1.161,3.637l-0.488,2.33l0.443,1.053l1.759,0.55l0.667,1.402l-0.249,1.871l-0.97,1.952l-0.81,0.744l-0.254,0.234
		l-0.077-0.031l-0.221-0.088l-1.562-1.764l-2.39-0.2l-2.741,0.087l-2.599-0.903l-1.871-2.283l-1.146-2.48l-1.377-2.096l-2.578-1.14
		l-1.601,0.1l-1.068,0.444l-1.079,0.231l-1.632-0.562l-0.788-0.737l-2.541-3.374l-8.291-6.044l-0.334-3.207l1.268-2.601l0.03-1.341
		l-8.982,1.341l-1.613,0.841l-1.316,1.2l-0.613,1.047l-0.461,1.166l-0.843,1.541l-1.371,1.441l-1.419,0.744l-1.383,0.538
		l-1.231,0.822l-4.051,6.349l-7.69,8.3l-1.856,2.948l-0.922,3.582l-0.679,1.823l-1.365,1.552l-1.753,0.859l-2.153,0.531l-6.059,0.39
		l-0.819-0.119l-1.11-0.359l-0.698-0.5l-1.85-1.914l-1.716,0.244l-1.577,0.837l-1.704,0.546l-2.08-0.59l-3.888-2.145l-4.634,0.275
		l-9.57,1.833l-5.119-0.643l-2.456,0.212l-2.662,1.346l-1.353,0.94l-0.558,0.493l-0.2,0.737l-0.273,1.683l-0.11,2.096l-0.084,0.037
		l-1.686,0.737l-0.934,0.162l-0.822,0.705l-0.937,1.504l-0.797,0.15l-0.895-0.044l-2.008,0.193l-0.952,0.362l-4.521,2.958
		l-0.473-0.886l-3.493,0.325l-0.585-0.262l-0.788-0.225l-0.261,0.406l-0.337,2.209l-0.537,1.136l-0.879,1.304l-1.871,2.034
		l-1.289,1.03l-0.916,0.593l-1.735,0.549l-1.298,1.217l-0.422,0.98l-0.279,1.809l-2.66,3.044l-3.599,2.096l-0.792,0.281
		l-1.443-0.187l-2.077-1.634l-0.998-2.277l-0.058-1.135l-0.986-0.774l-5.413-0.318l-1.662-0.979l-0.306-1.485l-0.516-2.284
		l-0.74-0.649l-1.025-1.129l-1.286-0.431l-0.804-1.548l1.161-5.13l3.703-1.211l5.625,2.447l0.534,0.1l0.042-0.518l0.331-2.085
		l0.882-1.935l0.925-1.292l0.055-1.898l-1.337-2.485l-0.719-0.912l-0.337-1.274l-0.085-1.705l0.073-1.711l0.206-0.943l0.2-0.45
		l0.779-0.949l1.768,0.824l2.662,2.392l0.952,0.481l2.872,0.549l1.841-0.025l0.585-0.437l1.95-2.592l2.214-5.496l0.479-5.554
		l-0.176-2.387l0.303-1.556l0.576-1.187l0.091-1.031l-0.109-0.875l-0.482-1.75l4.07,0.737l1.913-1.025l1.355-1.462l1.265-2.456
		l0.431-4.795l-0.23-1.338l-0.337-0.757l-0.895-0.506l-3.227-2.401l-3.057-4.171l-0.707-2.164l2.499-0.994h1.625l1.871,0.363
		l2.468-0.363l1.21-2.439l-0.137-0.463l-0.449-0.576l-0.649-0.375l-0.97-0.269l-0.149-0.444l0.233-0.607l1.292-1.827l1.416-3.785
		l5.719-5.056l2.229-4.03l0.873-3.975l3.845-3.694l8.77-6.731l5.034,2.11l0.664,0.106l1.168-0.113l0.367-0.2l0.379-0.163
		l1.228-0.194l0.446,0.075l0.516,0.288l1.18,1.371l0.582,1.24l0.44,0.501l0.543,0.15l0.864-0.156l2.468,0.282l6.574,1.847
		l2.378,2.392l0.431,0.282l2.723,0.745l2.189,1.634l0.54,0.62l0.552,0.795l0.667,1.665l0.561,0.482l1.08,0.363l8.649,0.532
		l1.362-0.206l0.837-0.351l2.656-1.659l1.11-1.051l0.579-0.426l0.673-0.307l0.664-0.219l1.252-0.776l1.719-0.864l2.256-0.651
		l1.207-0.157l3.039,0.044l1.51,0.313l1.031,0.538l1.052,1.264l3.139,5.708l0.828,0.907l3.333,1.252l2.972,0.695l0.976-0.063
		l0.458-0.476l0.415-1.014l0.315-0.4l0.406-0.332l0.497-0.144l0.516,0.019l2.068,0.469l1.255,0.663l1.207,1.064l1.474,2.422
		l0.703,1.595l0.443,1.652l0.197,1.101l0.564,0.938l0.913,0.782l4.497,2.058l2.332,3.109l1.346,1.095l0.798,0.175l1.598-0.063
		l0.855-0.306l0.61-0.45l0.315-0.513l0.127-0.544l0.112-1.245l0.2-0.569l0.285-0.45l0.412-0.35l1.207-0.557l0.528-0.338l0.452-0.419
		l0.506-0.332l0.983-0.119l1.14,0.2l1.547,1.076l1.155,0.601l1.55,0.288l0.722-0.181l0.543-0.457l1.38-2.802l0.503-0.526l0.734-0.1
		l5.559,1.207l4.458,1.414l0.81,0.081l0.361-0.125l0.218-0.907l0.57-0.131l1.001,0.313l1.835,1.583l1.14,1.289l0.713,1.495
		l0.479,2.527v1.413l0.2,1.201l0.458,0.925l1.158,0.926l0.955,0.531l0.898,0.713l0.528,0.525l1.452,3.945L480.273,441.782z"/>
	<path class="st0" d="M343.009,535.209l-0.837,0.573l-1.11,0.293l-1.098-0.349l-6.756-3.346l-2.02-0.171l-1.886,0.545l-1.553,1.072
		l-5.64,4.866l-0.946,1.184l-0.837,1.617l-0.849,3.395l-0.2,0.321l0.218,0.701l0.885,1.937l0.212,0.302l-1.013,6.34l0.297,0.76
		l0.661,0.293l0.461,0.436l-0.315,1.18l-0.594,0.62l-1.728,0.865l-0.667,0.526l-2.747,4.314l-1.334,1.447l-3.002,1.902l-2.447,1.205
		L307.526,570l-1.386-0.093l-2.699-1.665l-1.738-0.187l-26.921,1.731l0.048-0.034l1.137-0.799l0.368-1.539l0.85-1.181l1.261-0.863
		l1.605-0.603v-0.75l-3.243-0.108l-2.335-0.466l-1.772-1.02l-1.533-1.765l-0.764-1.191l-0.172-0.642l0.205-1.912l0.745-0.284
		l3.596-0.559l1.189-0.353l-6.791-1.809l-3.844-0.422l-2.178,0.662h-0.731l-0.325-4.649l-1.605-4.757l-2.264-4.209l-2.292-2.998
		l-0.731-1.928l-0.143-0.093l-0.291-0.5l-0.683,0.044l-0.778,0.167l-0.583-0.152l-0.817-1.089l-0.392-0.972l0.205-0.996l1.003-1.138
		l0.998-0.648l1.968-0.913l1.046-0.913l2.345-3.337l0.864-0.78l1.585,0.363l1.853-0.456l3.768-1.472l-0.162-1.016l0.005-0.707
		l0.158-0.825l-0.001-0.019l2.384-1.833l1.283-2.956l-0.206-2.457l-1.307-2.551l-0.655-1.815l-0.167-1.123l0.382-2.483l-4.206-3.156
		l-1.677-3.668l-0.136-0.805l-0.479-0.98l-0.537-0.886l0.3-4.805l-0.522-0.811l-0.797-0.58l-0.992-0.512l-2.068-1.729l-0.236-0.275
		l-0.482-1.61l-0.018-1.729l0.646-2.616l0.279-3.134l0.37-1.386l1.295-0.412l2.28-0.038l1.371,0.375l1.316,0.306l0.525-0.125
		l0.682-0.012l0.47,0.125l-0.103,0.506l-0.846,2.048l0.234,1.548l2.256,2.216l1.586,1.529l4.767-0.574l1.401,0.737l1.152,0.537
		l4.024-0.493l5.774,2.091l-1.161,5.13l0.804,1.548l1.286,0.431l1.025,1.129l0.74,0.649l0.516,2.284l0.306,1.485l1.662,0.979
		l5.413,0.318l0.986,0.774l0.058,1.135l0.998,2.277l2.077,1.634l1.443,0.187l0.792-0.281l3.599-2.096l2.66-3.044l0.279-1.809
		l0.422-0.98l1.298-1.217l1.735-0.549l0.916-0.593l1.289-1.03l1.871-2.034l0.879-1.304l0.537-1.136l0.337-2.209l0.261-0.406
		l0.788,0.225l0.585,0.262l3.493-0.325l0.473,0.886l4.521-2.958l0.952-0.362l2.008-0.193l0.895,0.044l0.797-0.15l0.937-1.504
		l0.822-0.705l0.934-0.162l1.686-0.737l0.084-0.037l-0.339,6.438l0.224,1.095l0.461,0.624l0.479,0.365l1.025,0.78l0.449,0.78
		l0.079,1.931l-0.728,3.866l0.061,2.056l3.791,14.48l-0.194,1.88l-1.492,3.333l-0.182,1.724l0.449,1.203l0.698,0.368l0.8,0.19
		l0.758,0.686l0.849,1.537l0.249,0.732l0.697,3.453l-0.255,1.854l-0.91,1.586l-1.607,1.492L343.009,535.209z"/>
	<path class="st0" d="M139.416,262.288l8.033-6.342l5.449-5.374l3.551-6.138l0.661-0.894l2.475-0.05l1.865-0.699l1.725-0.958
		l2.023-0.863l0.725,0.907l0.782-1.625l-0.097-1.323l0.367-1.096l1.371-0.516l0.688,0.298l5.32,3.81l2.875,0.908l3.094-1.384
		l6.805-7.303l2.889-1.851l-0.626-1.921l1.175-0.387l4.618,0.64l6.848-4.169l0.85-1.653l0.248-1.201l-0.659-0.556l-1.309-0.377
		l-1.07-0.864l-0.487-0.864l0.42-0.387l4.957-0.109l1.972-0.596l1.924-1.38l3.462-1.172l10.091-0.695l2.111-0.601l0.678-1.723
		l0.934-0.295l0.376,2.892l-0.649,1.154l-1.155,0.713l-1.301,1.198l-0.676,1.148l-1.064,2.951l-0.855,1.236l-1.85,1.91l-0.631,1.09
		l0.024,1.286l1.777,2.061l0.479,1.613l0.946-0.252l0.728,0.592l0.388,1.134l-0.064,1.38l-0.688,1.235l-1.052,0.617l-1.683,0.441
		l-3.566,2.394l-0.655,1.197l2.123,0.447l-1.677,1.984l1.913,2.198l3.063,2.482l1.777,2.809l-0.285,0.403l-0.864,3.129l0.088,0.416
		l-0.764,0.453l-0.834-0.101l-0.701-0.271l-0.361-0.069l-0.764,1.65l-0.479,1.989l-0.619,1.719l-1.192,0.806l-1.292,2.26
		l0.406,1.712l1.037,1.485l0.597,1.599l-0.337,2.139l-0.934-0.176l-1.261-0.893l-1.316-0.013l-0.749,1.07l0.792,0.705l1.437,0.749
		l1.168,1.189l0.421,1.667l-0.431,1l-1.716,1.453l-2.878,4.837l-0.816,1.025l-0.464,0.358l-0.546,0.283l-1.064,0.836l-0.697,0.402
		l-1.562,0.434l-0.552,0.283l-0.203,0.39l0.085,0.384l0.155,0.396l0.015,0.421l-0.306,0.572l-1.41,1.509l0.194,0.805l0.006,0.842
		l-0.173,0.83l-0.333,0.773l0.224,1.289l-1.016,1.748l0.516,0.905l0.455-0.063l0.682-0.321l0.312,0.17l0.103,0.157l0.036,1.452
		l-0.4,1.735l0.094,0.842l-0.373,1.182l-0.015,0.503l0.555,0.365l2.42-0.666l2.235,0.176l1.274,0.302l1.735,1.358l0.516,0.534
		l0.306,0.547l0.109,0.503l0.303,0.578l0.661,0.1l1.735-0.031l0.503,0.226l0.403,0.39l0.403,0.132l1.313,0.038l0.385,0.509
		l0.288,1.169l0.661,0.258l0.591,0.075l1.844-0.346l3.442,3.474l0.124,0.798l0.467,1.237l0.118,0.961l0.018,0.609l-0.191,0.458
		l-0.428,0.308l-0.309,0.886l-0.143,0.779l0.634,5.457l0.009,3.981l-0.573,2.586l-1.941,1.77l-5.325,3.936l-2.214,1.086
		l-2.608,0.628l-0.44,0.314l-2.584,2.673l-1.671,2.259l-9.307,6.638l-1.255-0.841l-0.776-1.173l-0.649-1.976l-0.243-5.007
		l-0.91-2.818l-3.678-3.358l-2.575-0.082l-0.549-0.201l-0.367-1.958l0.84-5.104l0.655-1.017l1.553-5.495l1.48-1.614l-0.488-0.873
		l-0.795-0.32l-0.816-0.766l-0.822-0.402l-2.62-0.905l-3.369-2.23l-1.395-1.608l-0.892-2.017l0.643-2.306l4.803-5.172l0.658-1.873
		l-2.338-0.735l-1.534-0.999l-0.901-0.717l-2.538-5.211l-0.837-11.828l-0.397-0.616l-2.89-0.566l-1.189-0.547l-1.58-1.094
		l-1.771-1.491l-3.46-2.089l-0.77-0.805l-0.519-0.768l-0.236-0.692l-0.121-0.717l0.055-0.862l0.276-1.447l-0.039-0.636l-0.234-1.126
		l0.1-1.013l-0.134-0.478l-0.804-0.667l-1.668-0.95l-11.099-3.456l-6.262-0.982l-6.678,2.398L139.416,262.288z"/>
	<path class="st0" d="M104.974,289.165l10.176-7.922l10.189-7.942l10.253-7.989l3.824-3.025l0.072-0.002l6.678-2.398l6.262,0.982
		l11.099,3.456l1.668,0.95l0.804,0.667l0.134,0.478l-0.1,1.013l0.234,1.126l0.039,0.636l-0.276,1.447l-0.055,0.862l0.121,0.717
		l0.236,0.692l0.519,0.768l0.77,0.805l3.46,2.089l1.771,1.491l1.58,1.094l1.189,0.547l2.89,0.566l0.397,0.616l0.837,11.828
		l2.538,5.211l0.901,0.717l1.534,0.999l2.338,0.735l-0.658,1.873l-4.803,5.172l-0.643,2.306l0.892,2.017l1.395,1.608l3.369,2.23
		l2.62,0.905l0.822,0.402l0.816,0.766l0.795,0.32l0.488,0.873l-1.48,1.614l-1.553,5.495l-0.655,1.017l-0.84,5.104l0.367,1.958
		l0.549,0.201l2.575,0.082l3.678,3.358l0.91,2.818l0.243,5.007l-0.146,5.32l-4.163,0.765l-3.572,3.751l-0.64,0.414l-1.337,0.577
		l-0.582,0.577l-0.3,0.878l-0.064,1.681l0.737,1.273l1.098,3.066l-1.492,2.52l-2.159,1.26l-0.831,0.627l-3.427-0.332l-3.942-0.802
		l-5.192,0.47l-6.866,0.727l-9.134-0.671l2.523-4.201l0.643-3.712l-0.77-1.417l-1.453,0.182l-1.968-0.257l-1.701-0.934l-1.883-3.192
		l-0.679-0.778l3.324-5.702l-2.408-1.456l-3.139,0.069l-1.462-2.058l-0.255-0.276l-1.319-0.571l-1.022,0.082l-1.319,1.292
		l-1.189,1.92l-1.868,1.581l-0.901,0.301l-2.15-2.735l-3.239-5.333l-2.568-6.854l-5.468-0.835l-0.888,0.483l-4.148,1.255
		l-4.139,0.778l-0.704-0.238l-0.77-0.49l-0.346-0.678l-0.255-0.766l-0.273-0.571l-0.279-1.073l1.507-3.98l1.18-4.176l0.194-2.179
		l1.025-2.305l2.863-2.506l0.261-0.867l-0.03-0.892l-0.273-0.704l-0.943-1.47l-0.518-0.616l-0.764-3.053l1.431-1.891l-0.112-0.421
		l-0.233-0.515l-0.946-0.666l-1.923-0.899l-2.417-2.57l-2.153-2.476l0.182-1.672l0.155-0.779l-0.073-0.968l-4.955-6.13
		L104.974,289.165z"/>
	<path class="st0" d="M59.667,316.975l0.753-0.621l3.603-1.831l11.918-4.005l4.091-1.945l14.835-11.541l10.108-7.867l0.339,0.524
		l4.955,6.13l0.073,0.968l-0.155,0.779l-0.182,1.672l2.153,2.476l2.417,2.57l1.923,0.899l0.946,0.666l0.233,0.515l0.112,0.421
		l-1.431,1.891l0.764,3.053l0.518,0.616l0.943,1.47l0.273,0.704l0.03,0.892l-0.261,0.867l-2.863,2.506l-1.025,2.305l-0.194,2.179
		l-1.18,4.176l-1.507,3.98l0.279,1.073l0.273,0.571l0.255,0.766l0.346,0.678l0.77,0.49l0.704,0.238l4.139-0.778l0.625,3.835
		l-0.473,3.219l-1.562,1.155l0.212,1.305l-0.24,0.54l-0.852,1.054l-0.637,0.609l-0.503,0.922l-0.291,1.004l-0.176,1.593l0.118,1.807
		l0.792,1.342l1.207,2.716l0.5,2.195l0.064,0.696l-0.109,0.715l-0.919,0.094l-3.324,0.972l-4.243,0.314l-5.856-0.696l-1.732,0.571
		l-0.218,1.812l0.07,0.502l1.271,3.091l3.581,3.423l0.846,1.272l1.404,2.551l0.361,7.332l-2.793,0.244l-2.283-0.382l-0.943-0.013
		l-1.076,0.175l-1.128,0.313l-1.935,0.727l-0.852,0.583l-0.397,0.94l0.012,1.447l0.049,0.495l0.279,0.376l0.094,0.401l-0.309,0.207
		l-1.192,0.363l-1.453-0.288l-1.41-1.197l-1.595-0.407l-2.095-0.89l-2.026-2.136l-1.562-2.475l-0.188-0.902l0.067-3.171l-0.74-1.661
		l-7.511-5.71l-1.001-1.724l-0.843-3.655l-1.804-2.527l-7.032-0.985l-1.537,0.539l-3.8,1.141l-1.781,0.511l-0.506-0.781l-1.074-0.95
		l-1.277-1.659l-2.214-5.366l-1.104-1.832l-2.365-2.864l-1.022-1.565l-0.558-1.691l0.115-2.284l0.919-1.421l2.911-2.526l1.127-1.608
		l0.902-1.288l1.452-3.449l0.006-3.202l-2.286-2.147l1.856-5.604l1.404-2.192L59.667,316.975z"/>
	<path class="st0" d="M377.613,229.366l2.723,1.758l1.834,0.491l2.851,0.179l2.321-0.372l1.958-0.903l11.156-6.978l2.904-3.227
		l1.332-1.092l4.055-1.648l4.083-0.993l16.776-0.616l1.476-0.427l1.189-0.606l4.565-3.357l2.474-2.761l1.055-2.951l-1.877-2.474
		l-7.431-1.073l-3.553-0.909l0.568-1.356l3.061-0.253l9.071,1.803l6.284,1.178l4.406,0.512l5.532,1.583l5.514,1.448l1.896,0.397
		l1.309,0.606l0.306,1.401l-0.019,1.659l0.306,1.336h0.874l-0.062-0.819l0.239-0.387l0.353-0.209l0.272-0.253l1.936,0.048
		l1.043,1.566l2.086,1.696l2.476,1.827l5.212,2.221l8.858,2.356l6.124-0.512l8.732-0.896l12.645-0.363l6.795-2.851l8.517-6.24
		l5.634-3.378l8.9-0.207l0,111.969l-7.005-8.305l-3.878-3.613l-16.427-7.284l-1.956-1.213l-6.784-8.349l-6.256-9.226l-4.17-3.391
		l-12.827-4.939l-12.027-10.397l-9.458-5.156l-2.471-0.529l-0.995,0.548l-1.173,0.453l-0.943,0.176l-1.137-0.485l-0.801-0.686
		l-0.792-0.34l-0.588-0.088l-2.602,1.303l0.206,1.127l-0.388,0.881l-0.931,1.108l-2.52,2.052l-2.302,1.448l-1.289-0.076l-1.38-0.9
		l-0.782-0.283l-0.804-0.126l-0.801,0.34l-0.546,0.667l-2.881,4.733l-7.135,7.01l-6.756,3.661l-0.488,0.755h-0.776l-0.852-0.39
		l-0.952-0.277l-1.137-0.101l-2.111,0.308l-1.04,0.453l-1.95,0.378l-2.214,1.107l-2.687,0.635l-2.708-0.616l-7.19-3.856
		l-0.182-3.202l-0.776-1.617l-0.073-0.617l0.716-5.469l-0.212-1.611l-0.337-1.013l-0.355-0.321l-0.509-0.076l-0.297,0.17
		l-0.188,0.321l-0.133,0.164l-0.161-0.006l-0.164-0.164l-0.246-0.189l-0.285-0.132l-0.394-0.063l-0.328-0.12l-0.331-0.239
		l-0.397-0.497l-0.334-0.29l-0.297-0.176l-0.333-0.145l-0.264-0.057l-0.682,0.025l-2.969-0.755l-5.628,0.227l-1.207-0.088
		l-0.591-0.214l-0.279-0.466l-1.346-1.637l-3.487-2.821l2.572-1.549l2.759-1.083l1.116-1.121l0.509-1.574l-0.027-2.727l-0.182-2.834
		l-0.3-0.409l-0.409-0.416l-0.752,0.082l-0.434-0.025l-0.622-0.321l-1.107-0.403l-0.364-0.643l-1.331-2.986l-1.052-1.065
		l-1.686-1.411l-0.731-0.907l-0.376-0.989l-0.206-1.714l-0.164-0.75l-0.203-0.637l-0.097-0.441l0.109-0.284l0.176-0.095l0.834-0.044
		L377.613,229.366z"/>
	<path class="st0" d="M226.156,213.484l0.728-0.232l2.092,0.268l1.977,0.7l5.215,3.143l1.996,0.189v-0.765l-1.203-1.167l1.213-1.395
		l4.069-2.508l-2.244,3.099l-0.807,1.892l1.017,0.844l0.645,0.844l10.974,10.017l3.548,1.538l3.763-0.744l0.654-0.685l1.199-1.975
		l0.554-0.591l1.137-0.089l3.047,0.134l0.626-0.496l0.692-2.075l1.757-1.077l2.335-0.243l12.125,2.8l10.568,3.722l10.883,1.201
		l12.498,2.888l4.183,0.357l4.475-0.457l7.202-2.164l2.082-0.333l0.325-0.362l1.958-1.538l0.449-0.218l0.669-0.556l1.433,0.516
		l1.409,0.819l0.573,0.422l4.986,0.427l22.918-2.005l3.902,0.109l3.596,1.469l0.242,0.158l0.018,1.012l-0.834,0.044l-0.176,0.095
		l-0.109,0.284l0.097,0.441l0.203,0.637l0.164,0.75l0.206,1.714l0.376,0.989l0.731,0.907l1.686,1.411l1.052,1.065l1.331,2.986
		l0.364,0.643l1.107,0.403l0.622,0.321l0.434,0.025l0.752-0.082l0.409,0.416l0.3,0.409l0.182,2.834l0.027,2.727l-0.509,1.574
		l-1.116,1.121l-2.759,1.083l-2.572,1.549l-2.562-1.133l-3.242-0.529l-2.96,0.365l-0.843,0.202l-0.764,0.29l-0.983,0.176
		l-1.022-0.088l-1.228-0.504l-1.161-0.176l-4.294,0.277l-4.206-1.184l-2.004-0.353l-1.374,0.264l-2.535,0.819l-2.469,1.096
		l-4.876,2.751l-2.941,1.039l-2.55,0.604l-3.648,0.013l-1.756,0.208l-2.205-0.504l-1.413-1.983l-8.37,2.266l-5.31-0.132
		l-2.144,0.359l-4.424,3.89l-1.907,2.178l-1.125,0.906l-2.104,1.208l-7.648,2.781l-3.557,2.536l-1.189,1.038l-0.558,0.352
		l-4.84-0.076l-8.354-1.988l-1.213,0.019l-1.11-0.189l-1.089-0.793l-1.343-0.491l-0.864-0.119l-0.788,0.227l-0.619,0.428
		l-0.691,0.208l-0.497,0.447l-0.691,0.327l-0.582,0.214l-0.734-0.113l-0.613-0.182l-1.741-0.831l-0.995-0.661l-0.728-0.592
		l-0.867-1.101l-0.782-1.322l-0.634-3.04l-0.064-1.561l-0.2-1.284l-2.014-1.335l-1.079-0.088l-0.607,0.233l-4.57,2.6l-1.701-0.208
		l-4.928,1.341l-5.24,0.447l-1.826-0.774l-4.679-5.212l-0.382-0.611l-0.334-0.743l-0.643-3.759l-0.118-1.776l-1.08-4.213
		l-1.255-2.318l-1.959-1.027l-8.567-5.96l1.683-0.441l1.052-0.617l0.688-1.235l0.064-1.38l-0.388-1.134l-0.728-0.592l-0.946,0.252
		l-0.479-1.613l-1.777-2.061l-0.024-1.286l0.631-1.09l1.85-1.91l0.855-1.236l1.064-2.951l0.676-1.148l1.301-1.198l1.155-0.713
		l0.649-1.154L226.156,213.484z"/>
	<path class="st0" d="M325.871,188.3l0.726,0.766l-1.012,2.008l0.286,1.392l-2.211-0.079l-1.834,0.447l-3.166,1.302l-2.763,1.601
		l-1.786-1.393l-2.168-0.754l1.018-1.406l5.221-2.571l3.038-0.678l1.695-0.258l1.571-0.447L325.871,188.3z M357.817,169.018
		l0.846-2.967l3.39-2.83l4.667-2.904l3.601-1.557l6.996-3.381l7.622-2.543l5.084-1.482l3.53-0.423l4.659,0.284l3.671,0.214
		l5.789,0.075l-2.401,0.704l-2.542,1.269l-2.258-0.707l-3.529,0.845l-2.483-0.526l-2.087,0.339l-0.797,0.388l-1.614,1.085
		l-0.726,0.319l-1.046,0.04l-1.695,0.4l-2.118,1.553l-4.308,2.119l-4.238,1.556l-4.454,3.183l-4.019,1.257l-2.686,0.288
		l-1.836,1.768l-1.978,1.91l-2.33,1.628L357.817,169.018z M439.392,147.365l1.866-3.268l1.341-1.725l3.875-1.761l2.23,0.823
		l1.781,1.492l-0.6,1.487l-2.605,0.292l-0.6,1.784l-1.567,2.078l-2.305,0.144l-1.565,1.781l-6.029,4.075l-0.444-1.116l1.193-2.153
		l1.642-3.044L439.392,147.365z M670.636,30l0.888,0.095l0.874,0.19l0.845,0.28l0.774,0.36l-1.127,0.25l-0.984-0.04l-0.769-0.385
		L670.636,30z"/>
	<path class="st0" d="M185.479,366.329l1.492-2.52l-1.098-3.066l-0.737-1.273l0.064-1.681l0.3-0.878l0.582-0.577l1.337-0.577
		l0.64-0.414l3.572-3.751l4.163-0.765l0.146-5.32l0.649,1.976l0.776,1.173l1.255,0.841l9.307-6.638l1.671-2.259l2.584-2.673
		l0.44-0.314l2.608-0.628l2.214-1.086l5.325-3.936l1.941-1.77l0.573-2.586l-0.009-3.981l10.978-0.17l1.31,0.163l5.137-1.174
		l0.415-1.03l3.421-2.537l0.397-0.17l0.361-0.075l0.549,0.138l0.707,0.295l1.507,1.043l0.925,0.948l1.225,1.827l0.373,1.068
		l0.324,1.494l0.212,0.534l0.261,0.452l0.567,0.509l0.579,0.421l1.119,0.389l0.464,0.289l0.479,0.684l0.628,0.314l0.361,0.741
		l0.145,0.596l-0.097,1.136l0.015,0.565l0.164,0.684l0.364,0.86l0.127,0.527l0.324,0.753l0.009,0.289l-0.036,0.314v0.282
		l0.303,0.308l0.607,0.37l1.255,0.257l1.753,0.025l2.884-1.494l2.274-2.184l2.82,0.188l4.197,1.13l0.509,0.264l0.904,0.759
		l0.664,0.352l0.64-0.201l0.764-0.715l0.731,0.144l0.743,0.213l3.154,2.856l2.044,0.941l0.437,0.37l0.616,0.665l0.137,0.872
		l1.164,1.801l-1.901,1.456l-2.453,0.238l-0.343,0.113l-0.352,0.339l-0.367,0.627l-0.324,1.18l-0.112,1.895l0.54,1.888l0.488,4.115
		l-0.701,2.854l-1.271,3.336l-0.091,0.52l0.118,0.182l-0.009,0.232l-0.237,0.288l-0.87,0.608l-0.573,0.288l-0.552,0.213
		l-0.428,0.113l-0.379,0.163l-1.028,0.784l-0.652,0.219l-0.437,0.056l-0.264,0.163l-0.127,0.345l-0.055,0.746l-0.146,0.32
		l-0.424,0.125l-0.221-0.163l-0.182-0.201l-0.182-0.125l-0.164,0.125l-0.091,0.439l0.194,0.915l0.079,0.696l0.003,0.658
		l-0.431,1.667l-1.759,3.122l-1.301-0.075l-0.476-0.1l-0.473-0.157l-0.382-0.182l-0.158-0.232l-0.127-0.495l-0.164-0.188
		l-0.321-0.038l-0.358,0.019l-0.418-0.019l-0.491-0.113l-0.522-0.219l-0.5-0.276l-0.537-0.194l-0.409-0.031l-0.385,0.251
		l-0.206,0.483l0.036,1.799l-0.073,0.702l-0.155,0.671l-0.079,0.608l-1.058,2.187l-5.971,5.978l0.343,1.867l0.294,0.952l0.488,1.134
		l0.619,0.877l1.859,1.247l2.738,2.443l0.343,0.451l0.237,0.564l-0.049,1.165l-0.291,0.501l-0.391,0.338l0.097,0.388l0.197,0.326
		l2.866,2.242l0.412,0.889l-1.225,2.58l-3.078,4.182l-0.603,0.419l-0.879,0.332l-1.443-0.714l-0.679-0.113l-0.537,0.025
		l-0.537,0.225l-0.328,0.701l-0.209,1.29l0.212,4.775l0.255,1.258l0.388,0.732l0.701,0.776l0.667,0.62l0.528,0.363l0.394,0.188
		l0.391,0.125l0.273,0.156l0.179,0.219l0.346,0.751l0.146,0.532l0.027,0.713l-0.491,0.763l-0.873,0.469l-3.066,0.688l-2.317,1.464
		l-1.243,2.571l-0.085,0.657l-0.752,0.932l-1.398,0.863l-3.36,1.551l-3.766,0.419l-0.731-0.025l-0.725,0.388l-0.907,0.794
		l-2.453,2.983l-0.106,2.495l-4.151,0.419l-1.525,1.126l-3.054,2.989l-0.124-4.083l-0.691-1.257l-0.834-1.094l-1.246-0.675
		l-2.068-1.77l-1.274-0.757l-1.331-0.519l-1.192-0.238l-1.959-0.75l-0.422-0.432l-0.146-0.469l0.173-0.613l0.264-0.488l0.582-1.902
		l-1.644-1.939l-4.051-1.714l-0.361-2.39l0.346-0.838l0.255-0.175l0.34-0.063l0.188,0.012l0.688,0.288l4.388-1.082l2.347,0.2
		l1.853-0.269l1.456-0.357l2.532-0.92l1.086-0.526l1.537-1.164l1.771,0.25l1.847-0.4l1.034-0.419l0.543-0.401l1.119-1.446
		l0.388-1.565l-0.973-0.945l0.791-1.296l-0.406-2.341l-0.331-0.945l-1.422-3.105l-0.537-0.438l-5.276,2.179l-0.961-0.275
		l-1.252-0.094l-2.381-0.864l-1.264-0.682l-3.578-0.72l-0.343-0.138l-1.092-1.152l-0.094-0.244l-4.646-1.271l-1.613-1.691
		l-1.201-1.791l0.482-0.451l0.1-0.276l0.042-0.376l-0.052-0.432l-0.892-1.722l-3.769-4.798l-1.386-1.328l0.115-1.14l-0.033-1.222
		l-0.428-0.52l-0.743-0.602l-2.844-1.416l-0.907-0.746l-0.749-1.491l-0.267-0.783l-0.118-1.253l-0.112-0.451l-0.958-1.824
		l-1.101-1.473l-2.135-0.777l-1.98-1.467l-4.051-1.059l-0.879-0.107l-1.165-0.364l-0.606-0.282L185.479,366.329z"/>
	<path class="st0" d="M219.206,237.883l8.567,5.96l1.959,1.027l1.255,2.318l1.08,4.213l0.118,1.776l0.643,3.759l0.334,0.743
		l0.382,0.611l4.679,5.212l1.826,0.774l5.24-0.447l4.928-1.341l1.701,0.208l4.57-2.6l0.607-0.233l1.079,0.088l2.014,1.335l0.2,1.284
		l0.064,1.561l0.634,3.04l0.782,1.322l0.867,1.101l0.728,0.592l0.995,0.661l1.741,0.831l0.613,0.182l0.734,0.113l0.582-0.214
		l0.691-0.327l0.497-0.447l0.691-0.208l0.619-0.428l0.788-0.227l0.864,0.119l1.343,0.491l1.089,0.793l1.11,0.189l1.213-0.019
		l8.354,1.988l4.84,0.076l0.558-0.352l1.189-1.038l3.557-2.536l7.648-2.781l2.104-1.208l1.125-0.906l1.907-2.178l4.424-3.89
		l2.144-0.359l5.31,0.132l8.37-2.266l1.413,1.983l2.205,0.504l1.756-0.208l3.648-0.013l2.55-0.604l2.941-1.039l4.876-2.751
		l2.469-1.096l2.535-0.819l1.374-0.264l2.004,0.353l4.206,1.184l4.294-0.277l1.161,0.176l1.228,0.504l1.022,0.088l0.983-0.176
		l0.764-0.29l0.843-0.202l2.96-0.365l3.242,0.529l2.562,1.133l3.487,2.821l1.346,1.637l0.279,0.466l0.591,0.214l1.207,0.088
		l5.628-0.227l2.969,0.755l0.682-0.025l0.264,0.057l0.333,0.145l0.297,0.176l0.334,0.29l0.397,0.497l0.331,0.239l0.328,0.12
		l0.394,0.063l0.285,0.132l0.246,0.189l0.164,0.164l0.161,0.006l0.133-0.164l0.188-0.321l0.297-0.17l0.509,0.076l0.355,0.321
		l0.337,1.013l0.212,1.611l-0.716,5.469l0.073,0.617l0.776,1.617l0.182,3.202l-5.252,3.799l-1.51,0.535l-6.52,3.962l-3.039,1.484
		l-1.562,0.176l-2.799-0.038l-1.325-0.44l-0.728-0.604l-0.361-0.73l-0.564-0.855l-0.97-1.05l-1.083-0.962l-1.498-1.006l-1.695-0.931
		l-2.799-0.849l-1.295,0.006l-1.465,0.365l-9.949,5.447l-0.876,0.333l-0.628-0.044l-0.546-0.151l-0.488-0.063l-0.619,0.447
		l-0.427,0.723l-1.171,3.081l-0.928,1.138l-0.776,1.735l-1.165,0.371l-1.183,0.893l-0.749,0.402l-0.928,0.207l-2.126,0.013
		l-1.28-0.226l-0.995-0.27l-3.59-2.968l-5.468,1.207l-0.279,0.987l-1.001,0.748l-0.409,0.163l-1.75,0.943l-0.801,0.17l-0.482,0.358
		l-0.391,0.497l-0.373,1.647l-0.1,0.987l0.913,7.334l-0.922,2.067l-0.024,0.371l0.07,0.484l0.018,0.465l-0.246,0.704l-0.816,1.307
		l-0.507,1.112l-0.285,0.848l-0.091,0.792l-0.018,0.766l-0.176,0.942l-0.646,1.093l-1.744,1.219l-2.344,2.135l-3.551,0.967
		l-0.925-0.176l-0.512-0.019l-0.713,0.465l-0.44,0.389l-1.662,3.002l-3.939-0.873l-6.298,0.264l-1.801-0.509l-0.943-0.483
		l-1.362-0.276l-1.137-0.069l-5.592,0.722l-2.089,1.771l0.07,1.256l-0.152,2.499l-0.161,0.716l-0.388,0.665l-2.341,2.047
		l-1.189,1.758l-0.737,1.682l-2.259,3.182l-3.154-2.856l-0.743-0.213l-0.731-0.144l-0.764,0.715l-0.64,0.201l-0.664-0.352
		l-0.904-0.759l-0.509-0.264l-4.197-1.13l-2.82-0.188l-2.274,2.184l-2.884,1.494l-1.753-0.025l-1.255-0.257l-0.607-0.37
		l-0.303-0.308v-0.282l0.036-0.314l-0.009-0.289l-0.324-0.753l-0.127-0.527l-0.364-0.86l-0.164-0.684l-0.015-0.565l0.097-1.136
		l-0.145-0.596l-0.361-0.741l-0.628-0.314l-0.479-0.684l-0.464-0.289l-1.119-0.389l-0.579-0.421l-0.567-0.509l-0.261-0.452
		l-0.212-0.534l-0.324-1.494l-0.373-1.068l-1.225-1.827l-0.925-0.948l-1.507-1.043l-0.707-0.295l-0.549-0.138l-0.361,0.075
		l-0.397,0.17l-3.421,2.537l-0.415,1.03l-5.137,1.174l-1.31-0.163l-10.978,0.17l-0.634-5.457l0.143-0.779l0.309-0.886l0.428-0.308
		l0.191-0.458l-0.018-0.609l-0.118-0.961l-0.467-1.237l-0.124-0.798l-3.442-3.474l-1.844,0.346l-0.591-0.075l-0.661-0.258
		l-0.288-1.169l-0.385-0.509l-1.313-0.038l-0.403-0.132l-0.403-0.39l-0.503-0.226l-1.735,0.031l-0.661-0.1l-0.303-0.578
		l-0.109-0.503l-0.306-0.547l-0.516-0.534l-1.735-1.358l-1.274-0.302l-2.235-0.176l-2.42,0.666l-0.555-0.365l0.015-0.503
		l0.373-1.182l-0.094-0.842l0.4-1.735l-0.036-1.452l-0.103-0.157l-0.312-0.17l-0.682,0.321l-0.455,0.063l-0.516-0.905l1.016-1.748
		l-0.224-1.289l0.333-0.773l0.173-0.83l-0.006-0.842l-0.194-0.805l1.41-1.509l0.306-0.572l-0.015-0.421l-0.155-0.396l-0.085-0.384
		l0.203-0.39l0.552-0.283l1.562-0.434l0.697-0.402l1.064-0.836l0.546-0.283l0.464-0.358l0.816-1.025l2.878-4.837l1.716-1.453
		l0.431-1l-0.421-1.667l-1.168-1.189l-1.437-0.749l-0.792-0.705l0.749-1.07l1.316,0.013l1.261,0.893l0.934,0.176l0.337-2.139
		l-0.597-1.599l-1.037-1.485l-0.406-1.712l1.292-2.26l1.192-0.806l0.619-1.719l0.479-1.989l0.764-1.65l0.361,0.069l0.701,0.271
		l0.834,0.101l0.764-0.453l-0.088-0.416l0.864-3.129l0.285-0.403l-1.777-2.809l-3.063-2.482l-1.913-2.198l1.677-1.984l-2.123-0.447
		l0.655-1.197L219.206,237.883z"/>
	<path class="st0" d="M239.432,436.158l0.106-2.495l2.453-2.983l0.907-0.794l0.725-0.388l0.731,0.025l3.766-0.419l3.36-1.551
		l1.398-0.863l0.752-0.932l0.085-0.657l1.243-2.571l2.317-1.464l3.066-0.688l0.873-0.469l0.491-0.763l-0.027-0.713l-0.146-0.532
		l-0.346-0.751l-0.179-0.219l-0.273-0.156l-0.391-0.125l-0.394-0.188l-0.528-0.363l-0.667-0.62l-0.701-0.776l-0.388-0.732
		l-0.255-1.258l-0.212-4.775l0.209-1.29l0.328-0.701l0.537-0.225l0.537-0.025l0.679,0.113l1.443,0.714l0.879-0.332l0.603-0.419
		l3.078-4.182l1.225-2.58l-0.412-0.889l-2.866-2.242l-0.197-0.326l-0.097-0.388l0.391-0.338l0.291-0.501l0.049-1.165l-0.237-0.564
		l-0.343-0.451l-2.738-2.443l-1.859-1.247l-0.619-0.877l-0.488-1.134l-0.294-0.952l-0.343-1.867l5.971-5.978l1.058-2.187
		l0.079-0.608l0.155-0.671l0.073-0.702l-0.036-1.799l0.206-0.483l0.385-0.251l0.409,0.031l0.537,0.194l0.5,0.276l0.522,0.219
		l0.491,0.113l0.418,0.019l0.358-0.019l0.321,0.038l0.164,0.188l0.127,0.495l0.158,0.232l0.382,0.182l0.473,0.157l0.476,0.1
		l1.301,0.075l1.759-3.122l0.431-1.667l-0.003-0.658l-0.079-0.696l-0.194-0.915l0.091-0.439l0.164-0.125l0.182,0.125l0.182,0.201
		l0.221,0.163l0.424-0.125l0.146-0.32l0.055-0.746l0.127-0.345l0.264-0.163l0.437-0.056l0.652-0.219l1.028-0.784l0.379-0.163
		l0.428-0.113l0.552-0.213l0.573-0.288l0.87-0.608l0.237-0.288l0.009-0.232l-0.118-0.182l0.091-0.52l1.271-3.336l0.701-2.854
		l-0.488-4.115l-0.54-1.888l0.112-1.895l0.324-1.18l0.367-0.627l0.352-0.339l0.343-0.113l2.453-0.238l1.901-1.456l-1.164-1.801
		l-0.137-0.872l-0.616-0.665l-0.437-0.37l-2.044-0.941l2.259-3.182l0.737-1.682l1.189-1.758l2.341-2.047l0.388-0.665l0.161-0.716
		l0.152-2.499l-0.07-1.256l2.089-1.771l5.592-0.722l1.137,0.069l1.362,0.276l0.943,0.483l1.801,0.509l6.298-0.264l3.939,0.873
		l0.291,1.35l0.473,0.81l1.21,1.488l1.058,1.042l2.759,1.457l1.346,1.431l1.692,0.898l0.455,0.396l0.261,0.326l-1.098,0.929
		l-0.946,3.295l-1.143,0.979l0.707,2.56l0.418,0.872l0.788,1.305l0.537,1.293l0.294,3.275l0.321,1.305l0.904,1.317l0.952,4.479
		l3.66,9.055l1.389,2.627l1.571,1.749l1.043,0.853l2.28,0.564l1.095,1.153l4.088,3.823l2.202,2.845l-0.082,2.168l-0.491,1.942
		l0.127,1.028l0.282,1.128l1.222,1.942l0.428,0.877l0.206,1.829l0.37,1.666l1.477,4.09l-0.076,1.697l-8.77,6.731l-3.845,3.694
		l-0.873,3.975l-2.229,4.03l-5.719,5.056l-1.416,3.785l-1.292,1.827l-0.233,0.607l0.149,0.444l0.97,0.269l0.649,0.375l0.449,0.576
		l0.137,0.463l-1.21,2.439l-2.468,0.363l-1.871-0.363h-1.625l-2.499,0.994l0.707,2.164l3.057,4.171l3.227,2.401l0.895,0.506
		l0.337,0.757l0.23,1.338l-0.431,4.795l-1.265,2.456l-1.355,1.462l-1.913,1.025l-4.07-0.737l0.482,1.75l0.109,0.875l-0.091,1.031
		l-0.576,1.187l-0.303,1.556l0.176,2.387l-0.479,5.554l-2.214,5.496l-1.95,2.592l-0.585,0.437l-1.841,0.025l-2.872-0.549
		l-0.952-0.481l-2.662-2.392l-1.768-0.824l-0.779,0.949l-0.2,0.45l-0.206,0.943l-0.073,1.711l0.085,1.705l0.337,1.274l0.719,0.912
		l1.337,2.485l-0.055,1.898l-0.925,1.292l-0.882,1.935l-0.331,2.085l-0.042,0.518l-0.534-0.1l-5.625-2.447l-3.703,1.211
		l-5.774-2.091l-4.024,0.493l-1.152-0.537l-1.401-0.737l-4.767,0.574l-1.586-1.529l-2.256-2.216l-0.234-1.548l0.846-2.048
		l0.103-0.506l-0.47-0.125l-0.682,0.012l-0.525,0.125l-1.316-0.306l-1.371-0.375l-2.28,0.038l-1.295,0.412l-0.37,1.386l-0.279,3.134
		l-0.646,2.616l0.018,1.729l0.482,1.61l-0.898,0.524l-1.201-0.337l-3.066-1.935l-4.179-3.184l-0.346-0.424l-0.552-0.337
		l-0.421-0.175l-2.15,0.225l-3.606-0.699l-4.791-3.284l-0.885-1.374l0.249-5.264l0.027-3.554l3.248-4.185l0.922-2.824l0.315-0.487
		l0.327-0.812l0.907-4.261l0.203-2.312L239.432,436.158z"/>
</g>
<g id="Copyright">
	<text transform="matrix(1 0 0 1 681.6426 577.5916)" class="st1 st2">© Vemaps.com</text>
</g>
</svg>
