<?xml version="1.0" encoding="utf-8"?>
<!-- Generator: Adobe Illustrator 23.0.1, SVG Export Plug-In . SVG Version: 6.00 Build 0)  -->
<svg version="1.1" xmlns="http://www.w3.org/2000/svg" xmlns:xlink="http://www.w3.org/1999/xlink" x="0px" y="0px"
	 viewBox="0 0 800 600" style="enable-background:new 0 0 800 600;" xml:space="preserve">
<style type="text/css">
	.st0{fill:#808080;stroke:#FFFFFF;stroke-width:0.5;stroke-linecap:round;stroke-linejoin:round;}
	.st1{font-family:'Roboto-Regular';}
	.st2{font-size:14px;}
</style>
<g id="Hungary">
	<path class="st0" d="M770,175.097l-1.793,2.104l-2.74,5.106l-1.781,1.648l-4.374,1.631l-1.748,1.227l-1.173,2.198l0.045,1.39
		l0.552,1.05l0.214,1.188l-0.924,1.827l-0.654,0.437l-2.356,0.243l-2.221,1.024l-1.33,1.053l-2.695,3.558l-3.191,2.798l-3.98,1.724
		l-4.172,0.604l-3.766-0.621l-8.084-4.278l-3.349,0.785l-1.781,6.407l-1.251,1.199l-1.443,0.595l-1.567,0.138l-5.04-0.763
		l-1.387,0.134l-1.939,0.704l-2.018,1.127l-1.24,1.282l-2.39,3.627l-0.834,0.846l-1.849,1.348l-0.8,1.005l-0.406,1.206l-0.372,2.971
		l-0.338,1.397l-2.706,3.873l-0.327,1.07l-0.079,1.196l-0.165,1.055l-0.027,0.174l-0.575,1.22l-0.863,0.652l-0.614,0.464
		l-5.344,1.358l-6.776,5.112l-3.224,3.54l-2.075,3.951l0.282,5.025l0.958,5.585l0.147,5.377l-2.187,4.466l-4.859,1.44l-1.962,1.207
		l-1.984,2.242l-4.217,6.166l-0.665,1.878l-1.252,5.757l-0.575,1.461l-1.263,2.383l-0.451,1.78l-0.034,1.863l0.259,1.452
		l0.034,1.481l-0.665,1.978l-0.913,1.289l-2.413,2.309l-1.037,1.533l-0.485,1.454l-0.541,2.829l-0.733,1.412l-2.21,2.182
		l-5.378,3.593l-2.435,2.313l-4.262,5.128l0.158,0.522l-0.045,0.011l-2.638,0.645l-4.679,2.257l-7.43,7.601l-4.611-0.083
		l-7.588,2.147l-3.619-0.78l-2.041-2.019l0.981-3.899l-2.074-2.008l-2.582-0.727l-1.409-2.571l0.237-4.545l0.102-11.556
		l-2.221-4.653l-7.114-3.515l-4.916-0.535l-4.656-1.663l-13.484-8.829l-2.108,1.075l-1.601,2.187l-0.823,2.182l-1.206,1.659
		l-2.672,1.02l-0.868,2.119l-1.206,1.994l-1.578,0.564l-0.97,2.047l-1.488,0.953l-2.221-0.663l-2.142,0.787l-6.596,8.163
		l-1.77,1.254l-1.139,2.111l0.406,0.943l0.09,2.135l-4.183,5.004l0.113,2.48l1.049,2.008l0.564,5.238l-1.15,4.768l-1.702,1.118
		l-1.759,0.33l-2.097,1.477l-2.131,0.512l-1.375-1.898l-1.669-1.147l-2.525,2.212l-3.157-0.883l-3.089,4.364l-3.675-0.924
		l-3.856,0.375l-4.273,3.769l-1.184,4.62l1.669,5.272l-3.63,2.215l-3.833,1.177l-3.518,2.819l-4.003-1.132l-3.912-3.663
		l-12.571,4.174l-8.005-5.162l-2.864-0.988l-2.097,0.548l-1.522-1.272l-0.428-2.154l1.511-4.112l-0.654-0.354l2.368-3.483
		l3.721-1.41l3.303,0.198l1.567-2.994l-2.142-1.362l-0.034-2.583l2.447,0.248l1.984,1.75l1.003,0.182l1.951-2.967v-0.991
		l-1.24-0.557l-1.77-0.289l-1.578-0.529l-0.688-1.305l0.676-1.272l3.766-2.817l6.077-4.529l-6.877-2.695l-6.066-5.389l-3.529-7.289
		l0.575-7.747l2.898-7.302l-3.867-6.378l-2.74-1.922l-1.917-2.978l-0.248-2.252l0.451-2.443v-2.901l-0.879-2.262l-19.64-19.509
		l-2.063-2.806l-4.544-4.008l0.011-2.637l-0.564-2.988l-4.093,0.397l-3.461-2.275l-2.086-4.469l1.116-4.772l5.885-2.734l5.942-0.602
		l2.446,1.94l1.342,0.276l5.975-8.206l1.86-1.749l2.48,0.682l5.254-1.67l4.273,1.423l0.801,6.585l1.826,6.145l5.806,3.977
		l5.378-1.454l-1.702-1.228l-1.037-2.286l10.316-2.863l1.511,1.154l1.161,4.204l2.074,2.832l4.16,2.243l1.838,5.105l-0.676,3.571
		l1.218,2.848l1.917,2.472l6.269,4.176l2.413,0.717l2.672-0.837l1.026-0.838l1.364-1.842l0.586-0.625l3.957-1.334l1.477-1.393
		l0.586-3.382l0.97-1.301l19.302-13.097l0.654-2.85V231.1l0.981-0.197l0.541-0.406l0.338-0.673l0.372-1.037l-0.654-1.924
		l1.116-1.046l3.27-1.347l1.454-2.05l0.519-1.574l0.654-1.18l1.905-0.829l3.022-0.31l7.948-0.796l5.468-5.562l0.688-1.584
		l0.676-0.855l2.604-5.165l0.045-1.229l5.987-1.103l0.022-0.99l-0.609-4.931l2.277-2.447l0.643-1.276l0.338-2.562l-0.034-3.016
		l-0.259-1.538l0.079-1.227l0.958-2.094l3.585-4.264l0.891-1.388l0.586-2.255l0.225-1.397l0.688-4.269l0.733-1.992l1.206-1.272
		l4.747-3.181l0.755-0.143l2.672,0.143l1.082-0.438l0.44-1.003l0.327-1.121l0.755-0.78l1.781-0.126l1.139,0.957l0.981,1.378
		l1.308,1.134l1.556,0.371l5.22-0.371h-0.812l3.743-0.126l3.664-1.087l2.785-2.749l1.116-5.104l-0.395-2.228l-0.8-1.275l-0.586-1.49
		l0.226-2.867l0.755-2.222l1.263-2.349l1.567-1.995l1.624-1.15l2.018-0.33l6.99,0.33l4.048-0.583l1.849,0.059l4.296,2.054
		l2.074,0.372l2.075-0.321l8.298-5.234l1.33-0.355l1.747-0.059l2.029-1.658l1.996-2.056l1.601-1.261l6.889-0.44l2.12-0.779
		l1.59-1.312l3.089-3.599l3.687-5.473l0.643-0.703l1.263-0.144l2.12,1.148l1.015,0.216l3.022-1.89l2.266-3.764l4.059-8.611
		l2.3-2.514l0.113-0.016l1.082-1.185l3.574-1.418l3.72,0.471l3.901,1.945l-1.623,4.966l-0.023,2.618l3.01-0.182l0.755,0.136
		l0.812,1.383v1.611l-0.248,1.891l0.102,2.263l1.173,3.331l5.344,8.291l0.71,0.72l0.789,0.216l0.845-0.241l0.857-0.686l0.44-0.212
		l0.44-0.068l0.462,0.068l2.142,0.88l1.725,0.364l1.691-0.152l2.108-1.058l0.462-0.059l0.451,0.093l0.44,0.22l8.106,10.709
		l1.432,3.377l1.545,5.183l1.86,3.871l0.586,0.667l0.282,0.034l1.432-0.806h7.858l2.007-0.663l1.849-1.195l1.872-0.515l1.781,1.148
		l0.383,0.772l3.912,2.216l3.225,3.025l1.454,1.86l1.139,2.243l0.744,3.086l-0.395,1.69l-0.722,1.504l-0.203,2.553l-1.86,2.316
		l0.913,1.979L770,175.097z"/>
	<path class="st0" d="M611.38,382.387l-0.734,2.068l-2.266,2.997l-2.356,1.256l-4.014-0.312l-2.334,0.599l-1.669,2.019l-0.62,2.998
		l-0.428,6.08l-1.353,2.905l-1.883,2.388l-1.533,2.514l-0.271,3.263l3.191,6.1l0.688,3.476l-2.526,1.934l-4.622,0.2l-2.131,0.76
		l-1.838,2.158l-1.105,3.432l-0.451,7.031l-0.936,3.052l-1.251,2.398l-1.049,0.824l-3.191-0.024L576,442.87l-5.209,6.351
		l-1.962,0.75l-2.131-1.85l-0.755-0.913l-0.857-0.432h-0.936l-0.992,0.432l-2.153,0.081l-4.07-1.769l-1.951-0.416l-0.744,0.237
		l-1.601,0.897l-1.082,0.098l-0.891-0.432l-1.962-1.68l-1.015-0.522l-2.187-0.098l-2.289,0.644l-1.231,0.667l-0.967,0.524
		l-4.273,3.562l-0.473,0.88l0.056,1.483l1.015,3.503l-0.011,1.262l-0.879,0.879l-1.037-0.163l-1.015-0.358l-0.823,0.301
		l-0.541,1.172l-0.105,1.909l-0.019,0.346l-0.586,1.555l-1.669,1.855l-2.131,1.09l-6.156,1.302l-0.812-0.024l-1.319-0.504
		l-1.082-0.74l-3.179-2.929l-4.318-1.815l-4.453-1.018l-2.661,4.289l-17.554,0.488l-4.408,5.62l-5.93-5.083l-1.962-0.805
		l-2.74,1.326l-0.8,0.098l-0.834-0.456l-1.116-1.554l-0.586-0.472l-1.781-0.431l-1.071,0.13l-2.751,1.391l-3.1,0.366l-4.566-2.588
		l-6.979-0.651l-4.386,0.969l-1.669,0.693l-9.076,3.766l-1.905-0.39l-6.665-4.276l-2.377-1.526l-2.266-0.741l-2.345-0.122
		l-6.336,1.245l-2.323-0.073l-2.018,0.358l-2.695,1.221l-2.537,1.701l-1.578,1.79l0.192,1.293l0.812,1.44l0.282,1.301l-2.875,1.561
		l-0.767,1.057l-0.553,1.179l-0.778,1.089l-1.838,1.503l-0.936,0.39l-1.206,0.187l-1.364,0.642l-0.891,1.365l-0.812,1.576
		l-1.116,1.234l-1.827,0.633l-4.036,0.024l-1.984,0.447l-0.944,0.711l-1.243,0.937l-0.812,1.94l-0.507,1.915l-1.24,1.598
		l-3.033,0.584l-9.561-0.998l-2.424-1.42v-0.024l-1.612-3.092l-2.458-0.925l-2.514,1.072l-1.714,2.97l-0.124,4.656l-1.928,0.535
		l-2.762-0.397l-2.593,1.849l-0.338,0.568l-0.113,0.576l0.124,0.584l0.834,1.337l0.248,0.665l-0.135,0.502l-0.62,0.308l-2.086-0.956
		l-6.697-0.511l-1.612,0.122l-1.082,1.256l-1.218,0.681l-2.187,0.648l-1.86,1.288l-0.642,0.023l-0.023-0.022l-2.266-2.236
		l2.469-3.169l0.789-4.792l1.477-3.01l0.823-3.343l-0.755-2.31l-0.09-3.764l-1.781-3.826l0.034-2.194l-0.722-1.695l-1.951-0.321
		l-2.007,0.203l2.526-1.333l2.21-2.322l-2.401-1.338l-1.319-3.116l0.823-1.607l1.657,0.903l1.714-0.964l2.221-4.954l-0.744-1.942
		l-1.319,0.464l-1.274-0.586l-0.304-0.925l0.395-0.774l1.917-1.349l6.19-1.32l1.748-1.842l-0.124-13.395l-0.35-1.951l-1.59-3.153
		l-0.361-2.451l0.733-5.685l2.593-8.598l-0.282-4.777l-1.364-5.226l-3.315-9.428l-2.086-3.758l2.965-3.242l7.374-3.318l3.134-3.204
		l1.612-2.958l0.586-2.162l-0.316-2.335l-1.071-3.504l-0.169-1.39l-0.068-1.847l-0.237-1.609l-0.676-0.691l-0.338-0.642l-1.86-2.684
		l-0.44-0.428l-0.406-0.568l-1.905-2.142l-0.609-1.055l-0.169-1.294l0.079-2.102l0.09-2.638l0.361-1.946l0.879-2.326l1.082-1.947
		l1.003-0.817l0.924-1.312l0.045-2.972l-0.699-6.648l-0.586-2.76l-0.09-1.686l0.282-1.029l0.564-0.881l0.507-1.042l0.135-1.513
		l2.334-5.361l5.164-0.298l5.074-1.523l8.106-6.542l11.759-5.262l3.935,1.024l3.146,3.352l0.451,4.638l-2.593,4.23l-0.846,4.472
		l2.199,3.445l3.224-1.12l2.379-4.678l3.1-2.048l3.326-1.32l1.33-2.268l0.225-3.205l1.612-2.005l7.453,1.168l4.115,4.116
		l6.032,10.029l2.516,2.529l5.015,5.039l8.343,5.167l3.529-0.149l1.917,0.586l2.142-0.161l1.883-2.552l3.089-2.896l3.45-0.818
		l3.225,2.454l3.45,1.194l4.521-5.557l3.1-2.199l3.202-1.439l3.608,2.191l4.036,4.38l-3.766,2.817l-0.676,1.272l0.688,1.305
		l1.578,0.529l1.77,0.289l1.24,0.557v0.991l-1.951,2.967l-1.003-0.182l-1.984-1.75l-2.447-0.248l0.034,2.583l2.142,1.362
		l-1.567,2.994l-3.303-0.198l-3.721,1.41l-2.368,3.483l0.654,0.354l-1.511,4.112l0.428,2.154l1.522,1.272l2.097-0.548l2.864,0.988
		l8.005,5.162l12.571-4.174l3.912,3.663l4.003,1.132l3.518-2.819l3.833-1.177l3.63-2.215l-1.669-5.272l1.184-4.62l4.273-3.769
		l3.856-0.375l3.675,0.924l3.089-4.364l3.157,0.883l2.525-2.212l1.669,1.147l1.375,1.898l2.131-0.512l2.097-1.477l1.759-0.33
		l1.702-1.118l1.15-4.768l-0.564-5.238l-1.049-2.008l-0.113-2.48l4.183-5.004l-0.09-2.135l-0.406-0.943l1.139-2.111l1.77-1.254
		l6.596-8.163l2.142-0.787l2.221,0.663l1.488-0.953l0.97-2.047l1.578-0.564l1.206-1.994l0.868-2.119l2.672-1.02l1.206-1.659
		l0.823-2.182l1.601-2.187l2.108-1.075l13.484,8.829l4.656,1.663l4.916,0.535l7.114,3.515l2.221,4.653l-0.102,11.556l-0.237,4.545
		l1.409,2.571l2.582,0.727l2.074,2.008l-0.981,3.899l2.041,2.019l3.619,0.78l7.588-2.147l4.611,0.083l7.43-7.601l4.679-2.257
		l2.638-0.645l0.045-0.011l0.259,0.854l0.936,0.455l1.049,0.207l0.755,0.62l0.981,1.868l0.068,0.165l-0.417,0.157l-2.074,7.897
		L635,338.175l-4.983,4.102l-0.485,0.182l-0.135,0.429l-0.169,1.881l0.102,1.947l0.372,1.703l0.034,1.727l-0.913,2.036l-1.128,0.985
		l-3.98,1.075l-2.277,2.142l-1.398,2.595l-2.334,6.426l-0.485,0.757l-0.372,0.852l-0.248,0.93l-0.101,0.958l0.237,0.448l0.282,0.374
		l0.327,0.304l2.943,2.019l-0.372,3.141l-1.984,2.967l-2.187,1.241l-2.977,0.526l-1.172,1.865L611.38,382.387z"/>
	<path class="st0" d="M145.011,165.531l3.98-2.418l3.935,0.851l4.519,1.267l1.13,0.317l7.114,1.078l3.439,2.855l11.195,15.045
		l1.071,0.992l1.128,0.471l2.74,0.58l1.015,0.672l3.687,5.549l1.33,1.373l1.128-0.042l1.094-0.537l1.229-0.185l1.624,0.814
		l2.266,1.629l2.018,1.931l0.857,1.67l1.139,1.275l4.644,2.518l2.482,1.345l9.132,2.495l6.307-0.408l0.288,2.16l0.947,3.44
		l0.124,3.544l-0.462,2.868l0.834,2.863l-0.192,4.928l3.213,2.835l-2.356,6.512l2.57,3.651l-1.229,2.814l-2.424-0.868l-0.97,0.977
		l1.218,4.532l-1.68,4.647v3.269l-3.382-3.669l-3.822-2.528l-0.102,3.036l-1.973-0.888l-2.052-0.271l-1.894,1.743l-3.856-1.868
		l-5.028,1.702l-4.622,3.602l-4.363-1.955l-3.134,1.959l-5.626-0.821l-2.199,3.367l-2.469,0.775l-2.424,0.046l-1.567,1.4
		l-1.962-0.054l-1.804-0.675l-3.687-2.667l-4.07,0.363l-4.048,1.292l-1.973-0.404l-0.947,1.687l-2.988,2.362l-4.25,1.557
		l4.893,6.077l6.066,4.26l-7.261,3.277l-0.913,0.948l0.011,2.402l-0.801,1.837l-1.364,1.379l-1.285,3.979l0.857,4.55l-0.428,7.728
		l2.244,16.788l-13.349,3.244l1.15,1.716l1.319,1.435l2.853,1.24l0.688,1.554l-0.564,1.761l-0.902,1.603l-0.428,2.012l1.409,35.984
		l-1.398,11.059l3.36,5.052l5.863-2.439l0.677,20.909l-1.725,5.681l-1.86,3.517l-1.353,5.168l-12.299,3.01l-2.572,0.629l0.97,4.684
		l1.872,4.114l-0.575,3.545l-2.018,2.56l-1.928,0.628l-1.849,0.151l-7.644,2.885l-2.728-3.224l-4.172,1.599l-0.823-2.391
		l0.361-2.474l-1.049-2.573l-0.66-0.889l-0.975-1.313l-1.398-1.393l-0.575-0.008l-0.237,0.723l-0.293,0.527l-0.721-0.645
		l-0.474-0.613l-0.462-0.482l-0.485-0.368l-0.485-0.213l-2.943-0.662l-0.778-0.511l-0.812,2.252h-0.744l-1.33-2.807l-3.326-2.064
		l-2.052-2.682l-1.759-3.018l-1.984-2.455l-2.356-1.629l-2.898-0.569l-0.981-0.63l-0.857-0.147l-0.676,0.54l-0.473,1.412h-0.665
		l-1.455-1.469l-4.713-2.948l-0.631-0.504l-1.578-6.833l-3.675-3.156l-4.025-6.299l-3.89-2.322l-1.984-1.601l-0.453-1.151
		l-0.416-1.057l1.003-1.569l2.075-0.998l0.65-0.63l0.861-0.836l-0.597-3.003l-1.635-1.097l-2.029-0.123l-0.569-0.245l-0.091-0.039
		l-0.851-0.366l-0.034-2.676l-1.511,0.263l-1.015-1.205l-0.936-1.834l-1.24-1.6l-1.5-4.579l-0.248-0.593l0.145-0.591l0.294-1.196
		l0.972-1.674l0.415-0.714l0.755-1.796l0.62-1.944l0.248-1.426l-0.485-0.803l-1.601-0.091l-0.958-0.511l-0.489-0.609l-1.653-2.057
		l-1.116-0.643l-10.093,0.876l-4.812,0.418l-0.56-0.137L30,349.816l1.747-0.82l1.398-1.348l3.957-5.42l1.263-1.312l2.773-2.039
		l2.277-0.974l0.755-0.586l0.733-1.164l0.056-0.97l-0.09-0.888l0.282-0.975l1.105-0.95l1.082-0.24l0.879-0.731l0.474-2.425
		l1.037-1.769l1.488-0.203l4.07,0.823l4.442-0.542l2.311,0.285l1.883,1.422l0.586,0.438l0.564,0.157l0.53-0.132l0.474-0.438v-0.017
		l1.815-0.339l2.841-0.033l2.063-0.5l-0.485-1.732l-1.567-1.447l-1.556-0.521l-3.123-0.384l1.364-1.232l4.882-1.989l1.229-0.79
		l0.44-0.877l-0.383-0.832l-1.285-0.654l-2.199-0.737l-0.812-2.115l0.71-2.339l2.3-1.433l2.492-3.301l0.519-1.877l-1.33-1.948
		l-1.793-0.174l-3.687,1.774l-1.466-0.97l0.034-0.887l0.891-2.736l-0.034-1.41l-0.733-1.037l-0.913-0.087l-0.868,0.075l-0.654-0.564
		l-0.383-2.651l1.68-3.519l-0.361-2.806v-0.012l3.394-1.839l1.545-1.42l0.721-2.152l-0.44-2.643l-3.315-6.972l-0.293-0.32
		l-0.485-0.187l-0.496-0.266l-0.304-0.616l0.068-0.953l0.474-0.433l0.541-0.283l0.237-0.474l-0.271-6.177l1.105-2.041l1.364-0.375
		l1.455,1.016l1.308,2.132l11.725-5.373l4.098-3.212l1.516-1.189l-0.44-6.501l1.24-1.348l3.179-1.344l1.161-2.062l0.124-2.488
		l-0.846-2.025l-1.511-1.541l-1.849-1.044l0.609-3.134l-0.925-3.268l-1.905-2.567l-2.379-1.096l-3.596,0.619l-1.931-0.792
		l-5.251-2.153l-3.022,0.678l-6.111-2.481l-1.973-1.142l0.958-1.214l1.657-2.696l0.8-0.812l0.631,0.8l0.541,0.507l0.507,0.105
		l0.721-0.448l1.297-1.172l4.352-2.308l0.925-0.896l0.598-1.395l-0.192-2.137l0.654-1.568l4.002-1.819l4.577,0.578l8.738,3.416
		l1.376,0.968l0.586,1.458l0.406,1.709l0.569,1.142l0.266,0.533l1.218,1.269l1.173,0.72l6.145,0.971l0.958-0.23l1.206-1.193
		l2.142-3.421l1.443-1.227l1.59,4.247l4.138,0.762l8.647-2.173l7.948-1.068l2.244-1.047l-1.24-0.779l-0.924-1.236l-0.541-1.634
		l-0.203-5.299l-0.733-3.288l-0.147-2.794l1.635-1.826l-0.71-1.028l-1.048-3.035l-0.857-0.647l-2.289-1.062l-0.688-0.731
		l-0.034-1.773l1.364-0.718l3.777-0.845l1.793-1.42l1.082-1.643l0.631-2.132l0.451-2.897l-0.225-0.324l-0.575-0.185l-0.541-0.328
		l-0.113-0.707l0.293-0.463l1.015-0.694l0.214-0.273l0.304-1.397l0.53-1.019l0.045-1.01l-1.15-1.339L145.011,165.531z"/>
	<path class="st0" d="M162.277,489.53l-0.196-0.173l-1.601-0.568v-1.071l0.744-0.187l1.353-0.625l0.812-0.162l-0.981-1.371
		l-1.781-0.243l-1.702-0.641l-0.755-2.622l-0.259-1.583l-1.364-5.036l-0.598-1.479l-4.363-5.715l-1.229-0.724l-8.85-0.309
		l-1.635-0.797l-5.265-3.979l-1.274-1.375l-0.541-1.701l-0.902-1.18l-5.806-4.74l-1.037-1.401l-2.683-5.053l-4.081-4.803
		l-0.789-0.685l-0.744-0.93l-1.082-3.142l4.172-1.599l2.728,3.224l7.644-2.885l1.849-0.151l1.928-0.628l2.018-2.56l0.575-3.545
		l-1.872-4.114l-0.97-4.684l2.572-0.629l12.299-3.01l1.353-5.168l1.86-3.517l1.725-5.681l-0.677-20.909l4.172-7.244l4.431-3.696
		l7.283,0.465l4.431-2.311l5.637-0.732l22.211-9.438l19.651-11.753l4.893-1.39l4.296-4.579l2.571-1.663l2.886-0.743l10.508-5.913
		l5.908,0.504l5.491,2.511l2.39,6.208l2.199,4.088l-0.271,1.068l-0.496,0.981l-0.09,9.099l0.733,4.472l5.66-1.589l5.569,0.041
		l0.925-0.428l7.543,6.248l4.544,2.139l4.544,0.839l1.421-0.23l1.308-1.646l1.342-2.502l2.255-1.654l2.165-0.226l7.7,12.262
		l3.258,0.855l1.973-1.134l2.041-0.686l4.645-3.047l10.654-13.582l4.747-3.263l5.017-1.599l-0.079,2.102l0.169,1.294l0.609,1.055
		l1.905,2.142l0.406,0.568l0.44,0.428l1.86,2.684l0.338,0.642l0.676,0.691l0.237,1.609l0.068,1.847l0.169,1.39l1.071,3.504
		l0.316,2.335l-0.586,2.162l-1.612,2.958l-3.134,3.204l-7.374,3.318l-2.965,3.242l2.086,3.758l3.315,9.428l1.364,5.226l0.282,4.777
		l-2.593,8.598l-0.733,5.685l0.361,2.451l1.59,3.153l0.35,1.951l0.124,13.395l-1.748,1.842l-6.19,1.32l-1.917,1.349l-0.395,0.774
		l0.304,0.925l1.274,0.586l1.319-0.464l0.744,1.942l-2.221,4.954l-1.714,0.964l-1.657-0.903l-0.823,1.607l1.319,3.116l2.401,1.338
		l-2.21,2.322l-2.526,1.333l2.007-0.203l1.951,0.321l0.722,1.695l-0.034,2.194l1.781,3.826l0.09,3.764l0.755,2.31l-0.823,3.343
		l-1.477,3.01l-0.789,4.792l-2.469,3.169l2.266,2.236l0.023,0.022l-0.508,0.018l-1.409-1.28l-1.094,1.661l-0.485,1.434l-0.485,1.093
		l-1.139,0.64l-1.33-0.178l-4.307-2.268l-5.401-1.871l-2.041,0.438l-2.469,2.454l-0.406,0.794l-0.327,1.887l-0.293,0.964
		l-0.158,0.04l-1.612,1.838l-2.39,4.661l-1.308,1.602l-4.713,4.043l-2.841,1.067l-2.447-1.156l-1.781,1.204l-3.788,4.703
		l-2.075,1.632l-0.8,0.218l-0.744,0.073l-0.744-0.073l-0.721-0.202l-0.034-0.016l-1.815-2.343l-1.747-0.032l-1.77,1.002
		l-1.883,0.735l-1.872-0.711l-1.883-2.044l-2.48-0.032l-3.349-2.522l-2.029-0.647h-8.975l-0.958,0.307l-1.883,1.374l-1.184,0.453
		h-1.263l-11.466-3.193h-7.542h-1.794l-1.015,0.566l-0.519,1.229l-0.62,1.123l-1.308,0.275l-0.011-0.647l-2.153-3.719l-3.168-2.313
		l-13.293-4.102l-2.469-0.162l-0.891-0.591l-0.202-1.048l-0.158-0.821l-0.124-1.797l-0.564-2.332l-0.124-1.272l-0.801-1.49
		l-5.164-5.47l-4.014-1.816l-4.622-0.965l-9.301-0.438l-0.924,0.584l-0.304,0.519l-0.417,0.486l-0.586,0.462l-0.71-2.554
		l-1.15-0.495l-2.604,0.997l-2.176,0.162l-0.35-0.462l0.169-1.395l-0.631-2.685l-1.173,1.979l-1.15-0.276L162.277,489.53z"/>
	<path class="st0" d="M506.922,90.464l0.248-0.263l1.466-2.198l0.09-0.578l0.045-0.587l-0.011-0.583l-0.068-0.578l-0.214-2.854
		l0.034-1.37l0.124-1.243l3.146-1.268l6.765-0.46l23.079-5.353l1.77-0.03l1.691,0.894l3.236,2.964l1.578,0.413l3.427,0.366
		l5.942,3.643l3.89,0.349l2.729-0.213l3.213,0.579l3.044,1.383l2.198,2.178l2.762,0.642l8.445-4.05l3.619-0.826l1.973,0.868
		l1.353,1.145l1.24,0.545l1.612-0.91l1.274-1.847l0.62-1.754l0.913-1.537l2.131-1.264l1.826-0.375l3.721-0.081l5.66-1.801
		l1.59,0.486l3.664,2.197l1.973,0.779l0.936,0.856l0.722,1.413l0.992,3.191l0.733,1.157l1.736,0.8l4.025-0.055l1.86,0.421
		l0.947,1.871l1.421,6.792l0.891,1.759l6.111,9.416l2.582,3.021l2.886,2.142l3.416,1.17l3.315-0.288l5.648-2.896l4.701-0.704
		l3.326-1.909l1.59-0.628l5.694-0.297l2.007-0.696l1.973-0.127l6.528,0.645l2.029-0.594l1.905-1.515l2.063-2.653l2.582,0.45
		l0.191-0.027l-2.3,2.514l-4.059,8.611l-2.266,3.764l-3.022,1.89l-1.015-0.216l-2.12-1.148l-1.263,0.144l-0.643,0.703l-3.687,5.473
		l-3.089,3.599l-1.59,1.312l-2.12,0.779l-6.889,0.44l-1.601,1.261l-1.996,2.056l-2.029,1.658l-1.747,0.059l-1.33,0.355l-8.298,5.234
		l-2.075,0.321l-2.074-0.372l-4.296-2.054l-1.849-0.059l-4.048,0.583l-6.99-0.33l-2.018,0.33l-1.624,1.15l-1.567,1.995l-1.263,2.349
		l-0.755,2.222l-0.226,2.867l0.586,1.49l0.8,1.275l0.395,2.228l-1.116,5.104l-2.785,2.749l-3.664,1.087l-3.743,0.126h0.812
		l-5.22,0.371l-1.556-0.371l-1.308-1.134l-0.981-1.378l-1.139-0.957l-1.781,0.126l-0.755,0.78l-0.327,1.121l-0.44,1.003
		l-1.082,0.438l-2.672-0.143l-0.755,0.143l-4.747,3.181l-1.206,1.272l-0.733,1.992l-0.688,4.269l-0.225,1.397l-0.586,2.255
		l-0.891,1.388l-3.585,4.264l-0.958,2.094l-0.079,1.227l0.259,1.538l0.034,3.016l-0.338,2.562l-0.643,1.276l-2.277,2.447
		l0.609,4.931l-0.022,0.99l-5.987,1.103l-0.045,1.229l-2.604,5.165l-0.676,0.855l-0.688,1.584l-5.468,5.562l-7.948,0.796
		l-3.022,0.31l-1.905,0.829l-0.654,1.18l-0.519,1.574l-1.454,2.05l-3.27,1.347l-1.116,1.046l0.654,1.924l-0.372,1.037l-0.338,0.673
		l-0.541,0.406l-0.981,0.197v1.007l-0.654,2.85l-19.302,13.097l-0.97,1.301l-0.586,3.382l-1.477,1.393l-3.957,1.334l-0.586,0.625
		l-1.364,1.842l-1.026,0.838l-2.672,0.837l-2.413-0.717l-6.269-4.176l-1.917-2.472l-1.218-2.848l0.676-3.571l-1.838-5.105
		l-4.16-2.243l-2.074-2.832l-1.161-4.204l-1.511-1.154l-10.316,2.863l1.037,2.286l1.702,1.228l-5.378,1.454l-5.806-3.977
		l-1.826-6.145l-0.801-6.585l-4.273-1.423l-5.254,1.67l-2.48-0.682l-1.86,1.749l-5.975,8.206l-1.342-0.276l-2.446-1.94l-5.942,0.602
		l-5.885,2.734l-1.567-2.011l-0.135-2.722l-3.01-5.07l-2.075-2.327l-1.161-3.014l1.308-2.115l0.654-2.132l-1.375-0.348l-1.308-0.641
		l-1.59-2.523l-6.742,1.274l-6.584,3.787l-1.049-10.646l-3.597-8.207l-4.228-1.948l-23.293-4.435l-8.817,0.219l-13.529-9.643
		l-2.571-5.755l3.799-3.401l-0.316-7.603l-3.671-5.235l5.26-1.186l1.601-0.751l2.457,0.117l2.143,0.102l6.528-0.958l13.529,1.658
		l1.195-0.245l6.517-4.193l14.725,0.312l5.84-4.161l0.169-0.844l0.056-0.861l-0.056-0.887l-0.169-0.895l-0.034-0.11l-0.023-0.101
		l0.023-0.076l0.034-0.076l1.297-2.585l1.026-6.331l1.195-2.381l1.883-1.095l10.034-2.678l1.161,0.038l1.094,0.322l1.24,1.058
		l2.368,2.939l1.094,0.571l5.028-0.981l2.559,0.423l1.939,2.359l0.056,1.606l-0.62,1.412l-0.271,1.382l1.026,1.55l1.037,0.135
		l3.935-1.508l2.683,0.858l4.149,3.768l2.266,0.87l2.571-0.946l4.938-4.625l2.514-1.559l4.149-1.302l0.362-0.223l4.339-2.669
		l2.063-0.799l0.902-0.715l0.8-1.463l0.598-2.944l0.428-1.151l1.364-1.625l0.936-0.186l1.116,0.415l1.917,0.203l1.827-0.813
		l3.292-3.048l1.229-0.542l2.176,1.101l1.229,1.359l1.319,0.563l2.492-1.304l3.168-3.201l2.728-4.186l2.277-4.735l4.239-13.035
		l1.263-2.553l1.635-2.162L506.922,90.464z"/>
	<path class="st0" d="M225.211,206.668l24.991-1.617l13.45,1.396l4.048-0.386l8.163-3.33l22.335-2.609l4.893,0.357l3.969,1.758
		l3.258,0.638l3.179-0.336l2.661-1.649l3.608-4.142l1.894-1.41l2.469-0.655l2.685-0.952l0.258,0.054l3.371,2.406l3.833,0.793
		l2.447,3.886l1.082,2.764l0.631,4.851l1.443,1.446l-1.984,1.739l-2.48-0.825l-4.442,1.571l1.161,8.266l-5.716-0.67l-5.694,0.871
		l1.071,2l0.665,2.335l-2.988,2.229l-2.368,3.123l-1.691,4.255l-2.774,2.724l4.318,8.763l5.57,6.957l1.24,4.122l-0.721,4.591
		l2.909,7.09l1.346,1.644l3.152,3.848l0.857,2.324l1.33,1.746l3.754,0.536l1.747,2.676l-1.218,7.987l-2.255,4.706l-0.609,2.978
		l-0.271,3.309l0.034,3.163l1.094,6.235l0.834,3.221l0.676,1.391l1.714,1.208l5.367,6.545l-0.135,1.513l-0.507,1.042l-0.564,0.881
		l-0.282,1.029l0.09,1.686l0.586,2.76l0.699,6.648l-0.045,2.972l-0.924,1.312l-1.003,0.817l-1.082,1.947l-0.879,2.326l-0.361,1.946
		l-0.09,2.638l-5.017,1.599l-4.747,3.263l-10.654,13.582l-4.645,3.047l-2.041,0.686l-1.973,1.134l-3.258-0.855l-7.7-12.262
		l-2.165,0.226l-2.255,1.654l-1.342,2.502l-1.308,1.646l-1.421,0.23l-4.544-0.839l-4.544-2.139l-7.543-6.248l-0.925,0.428
		l-5.569-0.041l-5.66,1.589l-0.733-4.472l0.09-9.099l0.496-0.981l0.271-1.068l-2.199-4.088l-2.39-6.208l-5.491-2.511l-5.908-0.504
		l-10.508,5.913l-2.886,0.743l-2.571,1.663l-4.296,4.579l-4.893,1.39l-19.651,11.753l-22.211,9.438l-5.637,0.732l-4.431,2.311
		l-7.283-0.465l-4.431,3.696l-4.172,7.244l-5.863,2.439l-3.36-5.052l1.398-11.059l-1.409-35.984l0.428-2.012l0.902-1.603
		l0.564-1.761l-0.688-1.554l-2.853-1.24l-1.319-1.435l-1.15-1.716l13.349-3.244l-2.244-16.788l0.428-7.728l-0.857-4.55l1.285-3.979
		l1.364-1.379l0.801-1.837l-0.011-2.402l0.913-0.948l7.261-3.277l-6.066-4.26l-4.893-6.077l4.25-1.557l2.988-2.362l0.947-1.687
		l1.973,0.404l4.048-1.292l4.07-0.363l3.687,2.667l1.804,0.675l1.962,0.054l1.567-1.4l2.424-0.046l2.469-0.775l2.199-3.367
		l5.626,0.821l3.134-1.959l4.363,1.955l4.622-3.602l5.028-1.702l3.856,1.868l1.894-1.743l2.052,0.271l1.973,0.888l0.102-3.036
		l3.822,2.528l3.382,3.669v-3.269l1.68-4.647l-1.218-4.532l0.97-0.977l2.424,0.868l1.229-2.814l-2.57-3.651l2.356-6.512
		l-3.213-2.835l0.192-4.928l-0.834-2.863l0.462-2.868l-0.124-3.544l-0.947-3.44L225.211,206.668z"/>
	<path class="st0" d="M326.813,193.731l0.168-0.059l-4.194-3.07l-3.191-3.134l-0.71-3.047l0.271-3.426l1.094-6.722l-0.361-1.881
		l-0.755-0.652l-0.146-0.602l1.421-1.756l0.992-0.581l2.12-0.362l1.037-0.901l2.92-6.084l1.905-1.56l10.377-2.339l3.671,5.235
		l0.316,7.603l-3.799,3.401l2.571,5.755l13.529,9.643l8.817-0.219l23.293,4.435l4.228,1.948l3.597,8.207l1.049,10.646l6.584-3.787
		l6.742-1.274l1.59,2.523l1.308,0.641l1.375,0.348l-0.654,2.132l-1.308,2.115l1.161,3.014l2.075,2.327l3.01,5.07l0.135,2.722
		l1.567,2.011l-1.116,4.772l2.086,4.469l3.461,2.275l4.093-0.397l0.564,2.988l-0.011,2.637l4.544,4.008l2.063,2.806l19.64,19.509
		l0.879,2.262v2.901l-0.451,2.443l0.248,2.252l1.917,2.978l2.74,1.922l3.867,6.378l-2.898,7.302l-0.575,7.747l3.529,7.289
		l6.066,5.389l6.877,2.695l-6.077,4.529l-4.036-4.38l-3.608-2.191l-3.202,1.439l-3.1,2.199l-4.521,5.557l-3.45-1.194l-3.225-2.454
		l-3.45,0.818l-3.089,2.896l-1.883,2.552l-2.142,0.161l-1.917-0.586l-3.529,0.149l-8.343-5.167l-5.015-5.039l-2.516-2.529
		l-6.032-10.029l-4.115-4.116l-7.453-1.168l-1.612,2.005l-0.225,3.205l-1.33,2.268l-3.326,1.32l-3.1,2.048l-2.379,4.678l-3.224,1.12
		l-2.199-3.445l0.846-4.472l2.593-4.23l-0.451-4.638l-3.146-3.352l-3.935-1.024l-11.759,5.262l-8.106,6.542l-5.074,1.523
		l-5.164,0.298l-2.334,5.361l-5.367-6.545l-1.714-1.208l-0.676-1.391l-0.834-3.221l-1.094-6.235l-0.034-3.163l0.271-3.309
		l0.609-2.978l2.255-4.706l1.218-7.987l-1.747-2.676l-3.754-0.536l-1.33-1.746l-0.857-2.324l-3.152-3.848l-1.346-1.644l-2.909-7.09
		l0.721-4.591l-1.24-4.122l-5.57-6.957l-4.318-8.763l2.774-2.724l1.691-4.255l2.368-3.123l2.988-2.229l-0.665-2.335l-1.071-2
		l5.694-0.871l5.716,0.67l-1.161-8.266l4.442-1.571l2.48,0.825l1.984-1.739l-1.443-1.446l-0.631-4.851l-1.082-2.764l-2.447-3.886
		l-3.833-0.793l-3.371-2.406L326.813,193.731z"/>
</g>
<g id="Copyright">
	<text transform="matrix(1 0 0 1 681.6426 577.5916)" class="st1 st2">© Vemaps.com</text>
</g>
</svg>
