<?xml version="1.0" encoding="utf-8"?>
<!-- Generator: Adobe Illustrator 23.0.1, SVG Export Plug-In . SVG Version: 6.00 Build 0)  -->
<svg version="1.1" xmlns="http://www.w3.org/2000/svg" xmlns:xlink="http://www.w3.org/1999/xlink" x="0px" y="0px"
	 viewBox="0 0 800 600" style="enable-background:new 0 0 800 600;" xml:space="preserve">
<style type="text/css">
	.st0{fill:#808080;stroke:#FFFFFF;stroke-width:0.5;stroke-linecap:round;stroke-linejoin:round;}
	.st1{font-family:'Roboto-Regular';}
	.st2{font-size:14px;}
</style>
<g id="Jamaica">
	<path class="st0" d="M337.742,171.176l3.488,0.259l8.84,2.178l6.968,4.239l10.741-2.787l17.336,0.044l17.832,2.018l12.283,3.165
		l1.515,1.597l1.253,4.413l1.639,1.524l1.983,0.014l1.831-0.871l1.074-1.132l-0.262-0.668l15.12,2.656l1.873,1.132l5.701,5.036
		l1.763,1.132l11.044,0.377l11.633-1.965l0.278,1.613l2.921,13.048l0.21,1.852l0.664,2.561l0.7,1.262l1.775,1.714l0.918,1.299
		l0.621,1.336l-0.726,7.995l0.122,1.078l0.708,1.317l4.197,4.992l1.434,2.266l1.041,3.278l0.472,3.03l0.542,1.952l0.411,0.939
		l2.247,3.029l6.488,6.546l-20.312,11.47l-6.882,2.66l-45.381,5.771l-30.63-0.414l-16.605-3.056l-6.514-2.614l-1.74-0.285
		l-1.399-0.028l-11.472,2.614l-0.822,0.396l-2.361,1.868l-1.268,0.718l-2.413,0.994l-1.6,0.295l-1.469,0.064l-8.604-1.482
		l-7.957-2.632l13.431-64.159l0.105-1.751l-0.114-1.631l-1.801-2.248l-0.472-1.004l-0.009-1.281l0.909-2.239l0.271-2.074
		l-0.271-2.571l-3.882-10.102l-0.271-2.922l0.734-7.089L337.742,171.176z"/>
	<path class="st0" d="M246.285,160.24l24.029,5.271l32.924,0.624l14.541,3.557l19.963,1.483l-0.122,0.737l-0.734,7.089l0.271,2.922
		l3.882,10.102l0.271,2.571l-0.271,2.074l-0.909,2.239l0.009,1.281l0.472,1.004l1.801,2.248l0.114,1.631l-0.105,1.751
		l-13.431,64.159l-15.118-10.549l-4.844-2.136l-1.076,0.037l-12.941-1.952l-1.95-0.055l-1.889,0.515l-2.474,1.16l-3.751,2.292
		l-2.072,0.773l-4.354,1.095l-47.751-4.842l15.398-96.456L246.285,160.24z"/>
	<path class="st0" d="M156.733,181.653l2.622,0.96l3.746,0.943l3.856-0.61l3.429-2.439l0.331-2.337l-0.096-2.729l2.093-3.688
		l7.67-9.844l3.484-3.267l5.976-2.716l13.687-2.251l15.505,0.595l27.251,5.968l-0.119,0.627l-15.398,96.456l-38.744,13.854
		l3.218-9.417l0.157-3.388l-2.711-8.608l-0.997-1.777l-0.507-0.681l-0.612-0.663l-0.7-0.525l-0.839-0.433l-1.941-2.348l-3.708-7.993
		l-4.302-8.685l-0.839-1.133l-1.679-1.603l-4.722-2.487l-1.224-0.884l-0.7-0.746l-1.679-3.851l-3.83-7.066l-0.944-2.23l-0.525-2.571
		l-0.831-1.742l-0.568-0.967l-5.509-4.571l-1.154-1.419l-0.612-1.263l2.238-8l0.184-1.078L156.733,181.653z"/>
	<path class="st0" d="M39.686,234.69l0.559-2.642l-0.482-10.748l0.647-3.046l2.575-4.222l0.289-2.684l1.184-1.407l5.26-0.435
		l3.305-2.162l2.685-4.179l3.484-2.844l5.673,1.887l3.498-10.101l10.383-9.58l12.062-4.006l8.703,6.648l5.026-5.951l5.37-0.116
		l6.279,2.323l7.697,1.524l21.894-2.7l7.298,0.044l3.657,1.362l-0.044,3.395l-0.184,1.078l-2.238,8l0.612,1.263l1.154,1.419
		l5.509,4.571l0.568,0.967l0.831,1.742l0.525,2.571l0.944,2.23l3.83,7.066l1.679,3.851l0.7,0.746l1.224,0.884l4.722,2.487
		l1.679,1.603l0.839,1.133l4.302,8.685l-28.365-1.685l-7.415-1.354l-18.625-10.832l-2.955-0.838l-3.139-0.433l-42.015,0.194
		l-1.924,0.516l-12.696,15.013l-1.67,1.326l-1.74,0.35l-1.827-0.018l-18.266-2.652L39.686,234.69z"/>
	<path class="st0" d="M168.763,322.803l-5.194-12.064l-2.671-3.882l-2.906-2.014l-3.374-1.724l-2.699-0.71l-2.093-1.869
		l-1.625-4.303l-2.066-8.433l-6.362-12.913l-8.427-4.74l-24.91,0.623l-15.216-2.58l-5.563-0.058l-3.181,2.928l-2.603,1.435
		l-2.286-0.478l-8.331-3.363l-0.84-0.522l-4.737-0.768l-10.41-3.349l-5.839-0.739l-5.949-1.479l-5.756-3.871l-4.241-5.48L30,246.231
		l1.873-2.958l5.012-3.553l2.368-2.987l0.432-2.043l3.062,0.24l18.266,2.652l1.827,0.018l1.74-0.35l1.67-1.326l12.696-15.013
		l1.924-0.516l42.015-0.194l3.139,0.433l2.955,0.838l18.625,10.832l7.415,1.354l28.365,1.685l3.708,7.993l1.941,2.348l0.839,0.433
		l0.7,0.525l0.612,0.663l0.507,0.681l0.997,1.777l2.711,8.608l-0.157,3.388l-3.218,9.417l-5.115,2.549l-1.154,0.957l-1.513,1.519
		l-3.716,5.945l-2.151,4.518l-0.568,2.208l-0.114,1.067l0.079,0.994l0.472,1.877l0.315,0.846l-0.77,5.281l-6.663,19.262
		L168.763,322.803z"/>
	<path class="st0" d="M304.147,391.625l-8.055-1.381l-45.854,2.633l-2.313-0.434l-7.05-4.803l-11.911-5.918l-2.988-2.344
		l-1.473-2.691l-3.511-9.117l-0.702-2.88l-1.281-2.258l-6.059-2.171l-1.9-1.534l-0.496-7.469l0.606-8.976l-2.107-7.544l-8.606-3.171
		l-23.464-0.203l-5.398-2.013l-2.82-6.548l2.363-4.602l6.663-19.262l0.77-5.281l-0.315-0.846l-0.472-1.877l-0.079-0.994l0.114-1.067
		l0.568-2.208l2.151-4.518l3.716-5.945l1.513-1.519l1.154-0.957l5.115-2.549l38.744-13.854l47.751,4.842l1.705,31.935l23.093,95.918
		L304.147,391.625z"/>
	<path class="st0" d="M361.671,392.952l-0.351-0.205l-7.477-2.763l-7.89-1.042l-6.238,2.575l-7.16,4.861l-7.174,0.636l-14.775-4.282
		l-6.459-1.107l-0.829-1.607L280.224,294.1l-1.705-31.935l4.354-1.095l2.072-0.773l3.751-2.292l2.474-1.16l1.889-0.515l1.95,0.055
		l12.941,1.952l1.076-0.037l4.844,2.136l15.118,10.549l0.805,5.301l36.838,75.625l-0.472,2.013l-0.944,2.803l-0.105,1.728
		l0.166,2.399l0.752,4.825l0.595,2.151l0.577,1.535l1.574,2.086l3.865,3.354l0.752,1.25l0.332,1.185l-0.14,1.121l-2.011,6.625
		l-0.682,4.345l-0.376,0.919l-0.56,0.661l-0.7,0.496l-0.892,0.193l-1.049,0.055l-3.008-0.367l-0.988,0.303l-0.682,0.45
		L361.671,392.952z"/>
	<path class="st0" d="M449.651,381.672l-2.386,1.409l-5.559,11.115l-1.319,3.238l2.561,9.85l-2.465,0.984l-4.296,2.618l-2.479,1.041
		l0.881,1.866l0.592,3.601l0.826,2.256l-3.622-1.649l-3.635-0.174l-3.525,1.258l-3.277,2.747l5.949,3.673l6.279,1.388l6.582-0.549
		l6.816-2.082l3.429,13.359l-1.033,6.129l-8.276,2.573l-7.05-0.347l-6.307-1.431l-6.252-3.021l-29.385-26.344l-6.086-7.68
		l-24.944-14.549l0.965-0.912l0.682-0.45l0.988-0.303l3.008,0.367l1.049-0.055l0.892-0.193l0.7-0.496l0.56-0.661l0.376-0.919
		l0.682-4.345l2.011-6.625l0.14-1.121l-0.332-1.185l-0.752-1.25l-3.865-3.354l-1.574-2.086l-0.577-1.535l-0.595-2.151l-0.752-4.825
		l-0.166-2.399l0.105-1.728l0.944-2.803l0.472-2.013l-36.838-75.625l-0.805-5.301l7.957,2.632l8.604,1.482l1.469-0.064l1.6-0.295
		l2.413-0.994l1.268-0.718l2.361-1.868l0.822-0.396l11.472-2.614l1.399,0.028l1.74,0.285l6.514,2.614l16.605,3.056l30.63,0.414
		l9.61,24.413l1.338,6.339l-1.259,2.53l-0.971,3.33l-0.787,5.151l0.105,1.748l0.289,1.278l1.364,2.161l0.551,0.653l1.915,2.869
		l1.88,3.504l0.813,2.354l0.446,1.793l0.096,12.421l0.271,2.721l0.394,2.068l0.402,0.984l0.437,0.827l6.558,8.732l0.586,1.59
		l0.306,1.489l-0.122,1.158L449.651,381.672z"/>
	<path class="st0" d="M545.975,343.548l-1.05,3.668l-1.588,3.761l-4.201,4.749l-1.297,2.739l-4.451-0.536l-1.313,2.616l-1.322,8.117
		l-6.052,21.477l-4.49,6.385l-5.425,3.472l-4.462,0.043l-2.947-1.345l-2.727-1.852l-3.718-1.475h-18.7v-2.633l7.147-2.431
		l-3.649-3.197l-4.572-6.164l-3.553-2.778l-4.131-1.606l-9.749-1.071l-8.833,3.09l-5.243,3.096l-1.587-17.014l0.122-1.158
		l-0.306-1.489l-0.586-1.59l-6.558-8.732l-0.437-0.827l-0.402-0.984l-0.394-2.068l-0.271-2.721l-0.096-12.421l-0.446-1.793
		l-0.813-2.354l-1.88-3.504l-1.915-2.869l-0.551-0.653l-1.364-2.161l-0.289-1.278l-0.105-1.748l0.787-5.151l0.971-3.33l1.259-2.53
		l-1.338-6.339l-9.61-24.413l45.381-5.771l6.882-2.66l20.312-11.47l5.194-1.574l0.971-0.193l1.049-0.055l6.488,0.709l1.111,0.81
		l1.014,1.289l2.037,4.888l1.146,1.565l2.676,1.961l1.443,1.574l1.303,2.771l0.717,2.881l0.42,3.028l0.734,1.519l3.952,5.448
		l3.585,3.506l7.983,3.239l-0.796,9.33l0.166,1.38l0.533,2.245l2.238,4.664l0.323,1.757l-0.052,1.352l-1.145,2.566l-0.437,0.773
		l-0.568,0.681l-0.638,0.589l-0.673,0.515l-1.041,1.876l-1.172,2.971l-2.011,7.192l-0.464,3.099l0.044,2.014l2.448,2.207
		l0.297,0.377l0.35,0.561l0.63,1.618l0.455,0.754l0.621,0.552l0.796,0.303h0.936l0.848-0.193l1.74-0.772l0.901-0.193l2.308,3.209
		L545.975,343.548z"/>
	<path class="st0" d="M558.669,350.93l-2.234-1.332l-6.015-3.944l-4.446-2.106l-1.097-4.113l-2.308-3.209l-0.901,0.193l-1.74,0.772
		l-0.848,0.193h-0.936l-0.796-0.303l-0.621-0.552l-0.455-0.754l-0.63-1.618l-0.35-0.561l-0.297-0.377l-2.448-2.207l-0.044-2.014
		l0.464-3.099l2.011-7.192l1.172-2.971l1.041-1.876l0.673-0.515l0.638-0.589l0.568-0.681l0.437-0.773l1.145-2.566l0.052-1.352
		l-0.323-1.757l-2.238-4.664l-0.533-2.245l-0.166-1.38l0.796-9.33l4.591-1.896l0.769-0.626l0.822-0.948l0.35-0.93l0.455-0.847
		l1.312-0.589l2.064-0.359l4.32-0.028l1.941-0.414l5.657,1.113l18.799,8.972l2.107,7.223l0.122,0.902l3.025,8.933l0.42,0.763
		l1.032,1.38l1.259,0.773l2.195,0.671l4.381,0.911l3.401-0.616l1.635-0.681l0.682-1.049l0.752-1.766l0.507-0.773l0.647-0.552
		l4.389,0.671l15.284,6.347l-3.113,2.879l-0.577,2.253l-0.437,2.888l-0.14,5.352l0.455,2.198l0.787,2.014l0.936,1.582l1.862,6.675
		l0.595,1.177l2.448,3.475l1.093,2.013v1.223l-0.533,0.689l-0.936,0.175l-3.366-0.294l-1.364,0.294l-1.312,0.625l-1.495,2.261
		l-0.341,2.059l0.192,3.318l-0.166,1.553l-0.359,1.13l-2.133,2.454l-2.032,3.222l-9.355-2.252l-2.534-1.419l-5.205-2.113
		l-7.023,0.42l-12.255,2.909l-5.233,0.637l-17.653-0.637v-2.432l37.179-2.2l-1.541-1.487l1.868-1.056l-0.306-4.624l-2.824-6.61
		l-3.349-1.774l-5.028-1.168l-8.726,0.432l-2.877,0.754l-3.366,1.388l-2.623,1.719l-0.586,1.305L558.669,350.93z"/>
	<path class="st0" d="M587.603,357.24l-0.799-0.771l-1.708-1.65l-4.434-1.013l-10.217-0.145l-6.939,0.154l-4.837-2.885l1.117-3.322
		l0.586-1.305l2.623-1.719l3.366-1.388l2.877-0.754l8.726-0.432l5.028,1.168l3.349,1.774l2.824,6.61l0.306,4.624L587.603,357.24z"/>
	<path class="st0" d="M746.713,342.104l2.714,6.577l4.985,8.512l6.362,6.745L770,370.87l-3.525,2.865l-17.488,4.428l-12.324,6.786
		l-7.064,2.055l-6.031-1.563l2.355-1.707l0.95-1.215l1.322-4.355l-6.114,2.243l-5.425,8.103l-5.894,1.794l-5.246-1.505l-6.1-2.821
		l-6.21-1.606l-10.162,3.82l-26.604,2.315l-18.768-2.865l-2.727,0.116l-2.547,0.492l-2.768-0.362l-3.511-2.445l-1.528-3.212
		l-0.688-4.109l-1.019-3.531l-2.644-1.505l-2.726-0.839l-1.818-1.997l-1.57-2.373l-2.093-1.867l-0.807-0.194l2.032-3.222
		l2.133-2.454l0.359-1.13l0.166-1.553l-0.192-3.318l0.341-2.059l1.495-2.261l1.312-0.625l1.364-0.294l3.366,0.294l0.936-0.175
		l0.533-0.689v-1.223l-1.093-2.013l-2.448-3.475l-0.595-1.177l-1.862-6.675l-0.936-1.582l-0.787-2.014l-0.455-2.198l0.14-5.352
		l0.437-2.888l0.577-2.253l3.113-2.879l6.348,4.36l2.571,3.504l0.621,0.634l0.7,0.607l2.247,1.536l2.544,1.214l16.028,5.085
		l2.378,1.379l1.285,0.138l1.574-0.156l2.746-1.021l1.312-0.855l1.513-1.471l0.682-0.552l0.796-0.405l1.373-0.165l4.774-0.028
		l1.696-0.23l1.215-0.331l2.265-1.251l1.714-0.727l1.382,0.064l1.679,0.432l7.432,4.331l11.07,1.729l10.012,2.979l1.81,0.763
		l0.63,0.506l0.568,0.68l2.212,3.218l0.944,0.993l1.32,1.131l4.582,1.149l12.338,1.682l3.559-0.414l9.435-2.942L746.713,342.104z"/>
	<path class="st0" d="M596.232,245.799l1.946,0.432l4.971,2.654l6.444,6.525l4.957,3.219l5.742,1.798l11.236-0.717l5.884,4.175
		l1.882,0.485l1.694,1.624l2.079,1.479l2.795,0.667h25.406l1.776,1.073l2.658,5.102l1.226,1.565l24.91,4.696l12.944,4.695
		l1.652,7.405l9.611,9.229l7.463,10.72l10.851,23.78l2.353,5.701l-0.2,0.061l-9.435,2.942l-3.559,0.414l-12.338-1.682l-4.582-1.149
		l-1.32-1.131l-0.944-0.993l-2.212-3.218l-0.568-0.68l-0.63-0.506l-1.81-0.763l-10.012-2.979l-11.07-1.729l-7.432-4.331
		l-1.679-0.432l-1.382-0.064l-1.714,0.727l-2.265,1.251l-1.215,0.331l-1.696,0.23l-4.774,0.028l-1.373,0.165l-0.796,0.405
		l-0.682,0.552l-1.513,1.471l-1.312,0.855l-2.746,1.021l-1.574,0.156l-1.285-0.138l-2.378-1.379l-16.028-5.085l-2.544-1.214
		l-2.247-1.536l-0.7-0.607l-0.621-0.634l-2.571-3.504l-6.348-4.36l-15.284-6.347l-4.389-0.671l-0.647,0.552l-0.507,0.773
		l-0.752,1.766l-0.682,1.049l-1.635,0.681l-3.401,0.616l-4.381-0.911l-2.195-0.671l-1.259-0.773l-1.032-1.38l-0.42-0.763
		l-3.025-8.933l-0.122-0.902l-2.107-7.223l15.905-44.504L596.232,245.799z"/>
	<path class="st0" d="M471.395,193.536l6.213-1.053l4.048,1.016l7.064,3.338l4.007,0.726l20.022-0.856l3.904-2.072l5.508-0.678
		l4.474,0.353l4.128,0.697l2.4,3.102l-1.045,3.782l-0.011,4.816l3.778,3.449l12.038,7.603l10.645,6.216l1.737,3.458l3.145,9.356
		l2.01,3.089l3.236,1.987l6.155,1.711l17.516,1.363l3.865,0.858l-1.007,1.157L579.32,291.46l-18.799-8.972l-5.657-1.113
		l-1.941,0.414l-4.32,0.028l-2.064,0.359l-1.312,0.589l-0.455,0.847l-0.35,0.93l-0.822,0.948l-0.769,0.626l-4.591,1.896
		l-7.983-3.239l-3.585-3.506l-3.952-5.448l-0.734-1.519l-0.42-3.028l-0.717-2.881l-1.303-2.771l-1.443-1.574l-2.676-1.961
		l-1.146-1.565l-2.037-4.888l-1.014-1.289l-1.111-0.81l-6.488-0.709l-1.049,0.055l-0.971,0.193l-5.194,1.574l-6.488-6.546
		l-2.247-3.029l-0.411-0.939l-0.542-1.952l-0.472-3.03l-1.041-3.278l-1.434-2.266l-4.197-4.992l-0.708-1.317l-0.122-1.078
		l0.726-7.995l-0.621-1.336l-0.918-1.299l-1.775-1.714l-0.7-1.262l-0.664-2.561l-0.21-1.852l-2.921-13.048L471.395,193.536z"/>
</g>
<g id="Copyright">
	<text transform="matrix(1 0 0 1 681.6426 577.5916)" class="st1 st2">© Vemaps.com</text>
</g>
</svg>
