<?xml version="1.0" encoding="utf-8"?>
<!-- Generator: Adobe Illustrator 23.0.1, SVG Export Plug-In . SVG Version: 6.00 Build 0)  -->
<svg version="1.1" xmlns="http://www.w3.org/2000/svg" xmlns:xlink="http://www.w3.org/1999/xlink" x="0px" y="0px"
	 viewBox="0 0 800 600" style="enable-background:new 0 0 800 600;" xml:space="preserve">
<style type="text/css">
	.st0{fill:#808080;stroke:#FFFFFF;stroke-width:0.5;stroke-linecap:round;stroke-linejoin:round;}
	.st1{font-family:'Roboto-Regular';}
	.st2{font-size:14px;}
</style>
<g id="Netherlands">
	<path class="st0" d="M626.316,91.876l0.34,5.589l0.121,3.157l-0.365,3.064l-0.805,3.383l-1.669,4.326l-0.291,1.583l0.084,2.349
		l0.452,1.249l0.572,1.025l0.439,1.715l1.095,14.041l-0.182,7.02l-1.084,6.241l-2.558,6.549l-9.668,15.276L611.889,171l-0.042-0.072
		l-0.652-1.119l-2.137-2.662l-1.224-0.999l-2.344-0.816l2.49-6.55l0.056-0.777l-0.146-0.838l-0.828-0.193l-5.772-7.233l-5.505-7.482
		l-4.555-4.837l-4.098-4.323l-2.228-2.126l-2.796-2.766l-5.157-5.707l-4.135-4.451l-0.675-0.488l-1.115-0.608l-3.142-0.295
		l-7.284,2.415l-0.639,0.213l-0.219-0.387l-0.219-0.303l-1.261-3.023l-4.018-5.4l-1.23-1.015l-0.639-0.234l-0.365-0.315
		l-1.918-3.393l-2.009-2.754l-1.285,0.163l-2.157-0.925l-3.896-1.849l-4.274,3.872l-2.162,1.371l-1.572,1.605l-1.771,2.255
		l-0.786,1.929l-0.09,0.467l-0.348,1.015l-1.48,3.137l-0.474,1.268l-0.5,1.969l-1.9,3.438l-0.931,0.548l-2.43-0.781l-1.03-0.578
		l-4.238-2.789l-2.028-0.731l-5.03-0.486l-1.023-0.335l-1.559-1.411l-1.095-1.41l-0.55-4.213l0.822-4.225l1.205-2.429l4.372-5.855
		l0.311-0.793l-0.036-0.538l-0.128-0.56l-0.201-0.6l-0.237-0.489l-0.109-0.824l-0.239-0.926l1.462-2.931l1.754-3.014l0.589-2.545
		l0.439-0.886l1.607-1.845l1.973-1.845l0.329-0.397v-0.203l-0.785-0.306l-0.311-0.183l-0.201-0.235l0.054-1.927l0.274-2.467
		l-0.201-1.091l-0.42-0.654l-2.173-0.734l-0.384,0.031l-0.328,0.142l-0.664,0.449l-0.42,0.164l-0.366,0.02l-0.328-0.102
		l-0.401-0.235l-0.493-0.55l-0.676-0.99l-0.457-0.429l-0.42-0.255l-2.229-0.643l-1.685-0.744l-1.152-4.297l0.584-2.379l1.268-2.542
		l10.36-0.33l1.227,0.418l2.072,1.866l1.132,0.418l1.006-0.337l3.002-2.365l17.539-5.15L571.6,49.31l11.651,1.989l2.435,1.127
		l2.014,2.1l3.971,16.298l0.613,0.258l2.859,2.055l0.22,0.49l0.566,0.433l0.583,0.924l0.815,0.915l3.721,1.244l4.7,2.689l2.09-0.69
		l0.997,1.139l1.419,0.378l1.391-0.394l1.006-1.123h0.805v1.349l-0.94,0.818l-0.47,0.594l0.029,0.851l0.575,1.652l0.249,3.182
		l3.578,2.06l8.515,2.212L626.316,91.876z M537.538,30.29l1.64-0.29l6.483,2.873l-0.528-0.033l-0.432,0.242l-0.364,0.508
		l-0.288,0.75l-4.21-1.42l-2.081-1.315L537.538,30.29z"/>
	<path class="st0" d="M611.889,171l-1.199,3.375l-1.023,6.518l-1.096,21.009l-0.865,6.848l-2.143,4.154l-4.202-1.32l-1.778-0.753
		l-5.809,0.868l-6.247-1.896l-11.18,0.181l-3.946,1.229l-2.115,1.54l-0.082-0.051l-1.243-0.762l-0.292-1.616l0.056-1.424
		l-0.439-0.532l-0.677-0.551l-8.507-3.916l-1.534-0.051l-3.442,0.622l-5.734,3.002l-1.468,1.566l-0.257,0.903l0.348,5.778
		l-4.878-2.367l-0.713-0.131h-0.883l-0.512,0.562l-0.968,0.612l-0.675,0.081l-0.621-0.301l-0.458-0.491l-0.566-0.883l-0.365-0.241
		l-0.275-0.051l-0.621,0.551l-0.841,0.452l-2.746,0.852l-0.786-0.01l-0.475-0.211l-0.128-0.301l-0.95-2.578l-0.95-1.426
		l-2.053-2.087l-1.789-1.476l-0.914-1.495l-0.438-0.09l-5.688,0.07l-0.986-0.342l-3.641-2.52l-1.864-0.703l-0.821,0.211
		l-0.677,0.613l-0.95,0.613l-0.694,0.04l-0.938-0.261l-0.493-0.401l-0.31-0.342l-0.805-1.406l-0.566-0.462l-4.08-10.716l1.139-1.982
		l3.105-1.52l4.262-4.229l0.53-1.662l-1.077-1.681l-1.23-1.411l-0.896-0.816l-5.924-7.146l9.985-7.717l3.934-4.544l0.822-0.838
		l1.279-1.01l3.142-0.01l2.635,0.686l3.946,2.697l5.633-3.798l0.73-0.798l3.24-5.365l0.311-1.082l0.2-0.869l-1.424-2.982
		l-6.382-8.602l-0.438-2.197l-0.639-1.955l0.109-1.074l-0.281-1.093l-0.273-0.568l-3.324-1.428l-1.846-1.105l-0.365-0.365
		l0.219-2.677l2.43,0.781l0.931-0.548l1.9-3.438l0.5-1.969l0.474-1.268l1.48-3.137l0.348-1.015l0.09-0.467l0.786-1.929l1.771-2.255
		l1.572-1.605l2.162-1.371l4.274-3.872l3.896,1.849l2.157,0.925l1.285-0.163l2.009,2.754l1.918,3.393l0.365,0.315l0.639,0.234
		l1.23,1.015l4.018,5.4l1.261,3.023l0.219,0.303l0.219,0.387l0.639-0.213l7.284-2.415l3.142,0.295l1.115,0.608l0.675,0.488
		l4.135,4.451l5.157,5.707l2.796,2.766l2.228,2.126l4.098,4.323l4.555,4.837l5.505,7.482l5.772,7.233l0.828,0.193l0.146,0.838
		l-0.056,0.777l-2.49,6.55l2.344,0.816l1.224,0.999l2.137,2.662l0.652,1.119L611.889,171z"/>
	<path class="st0" d="M570.285,212.753l-2.038,1.485l0.986,2.03l-0.231,1.74l-0.536,1.609l0.036,1.613l0.828,1.249l3.861,3.281
		l-6.541,3.32l-1.948,0.175l1.448,3.038l0.414,3.458l0.171,3.41l0.719,2.885l2.325,2.719l3.106,1.524l9.327,1.323l6.09,2.338
		l3.325,0.544l3.093-0.205l2.948-0.869l1.096-1.039l0.731-1.298l0.743-0.35l7.173,11.707l1.657,4.963l-0.999,7.032l-2.363,5.509
		l-0.852,2.907l-0.073,3.528l1.048,4.113l0.691,1.278l0.295,0.548l-0.329,0.989l-5.236,3.202l-1.267,1.486l-2.764,4.509
		l-2.351,2.095l-5.053,2.224l-2.29,2.407l-2.606,5.336l-1.485,1.364l-6.965,0.786l-0.081-0.063l-1.34-1.031l-11.503-2.46
		l1.169-2.887l0.036-1.011l-0.128-1.916l-0.201-0.774l-0.311-0.545l-0.401-0.269l-1.152-0.506l-0.932-0.259l-4.189,1.022
		l-0.475-0.079l-0.511-0.188v-0.615l-0.109-0.815l-0.401-0.903l-0.658-0.248l-0.712-0.04l-3.312,0.695l-4.537-0.556l-2.814,0.318
		l-3.458-3.317l-5.59-8.189l-0.127-0.269l-0.7-1.184l-3.508-0.427l-4.043,1.651l-1.754,1.332l-1.169,0.348l-7.459,0.119l-8.25-1.65
		l-1.133-0.051l-0.365,0.149l-1.115,0.936l-0.841,1.292l-0.255,0.04l-0.403-0.089l-0.968-0.905l-0.329-0.487l-0.165-0.438v-0.269
		l0.037-0.189l0.439-1.243l-0.22-0.934l-0.585-0.478l-1.321-0.616l-0.456-0.338l-0.201-0.626l0.201-0.588l0.054-1.612l-2.119-5.544
		l-2.412-1.126l-0.602-0.727l-1.213-1.742l-0.309-0.657l0.146-1.396l1.03-4.236l1.096-1.635l-0.091-0.827l-0.584-1.327l0.237-0.269
		l0.365-0.289l3.928-1.327l1.741-4.65l0.165-2.156l-0.165-0.598l-0.243-0.5l-2.448-3.575l-0.913-2.368l-1.041-3.068l-0.749-1.139
		l-0.877-0.76l-2.089-2.26l-0.876-1.8l-0.805-1.28l-0.803-0.491l-1.425-0.609l-3.422,1.821l-3.763,3.22l-3.569,1.091l-0.95-0.25
		l-0.749-0.66l-2.49-4.801l-1.462-2.232l-1.233-0.148l-1.654-0.129l-2.407-10.833l-1.652-1.464v-2.301l1.271-1.464l0.112-0.129
		l5.984-2.746l1.553-0.101l0.664,0.391l1.918,0.321l1.114-0.071l5.687-1.955l3.763-2.107l-2.594-3.151l-2.302-1.266l-4.756-1.405
		l-1.004-0.482l-0.329-0.312l0.219-0.331l0.859-0.814l0.474-1.134l0.658-1.045l-0.896-4.994l-1.681-4.946l-0.821-1.398l-1.376-1.831
		l-5.463-4.468l-8.634-4.733l4.391-2.206l1.388,1.218l0.438,0.212l3.331,0.554l0.658-0.04l0.896-0.171l3.488-2.096l0.573-0.574
		l0.53-0.796l0.42-0.756l0.291-0.655l0.42-0.473l0.585-0.362l2.374-0.576l0.439-0.302l0.292-0.362l0.31,0.06l0.628,0.293
		l1.388,2.057l1.078,0.967l0.585,0.282l4.627,0.343l1.681-1.945l0.109-0.313l0.11-0.846l0.127-0.222l0.275-0.232l1.918-0.544
		l2.271-0.242l4.951-1.966l5.924,7.146l0.896,0.816l1.23,1.411l1.077,1.681l-0.53,1.662l-4.262,4.229l-3.105,1.52l-1.139,1.982
		l4.08,10.716l0.566,0.462l0.805,1.406l0.31,0.342l0.493,0.401l0.938,0.261l0.694-0.04l0.95-0.613l0.677-0.613l0.821-0.211
		l1.864,0.703l3.641,2.52l0.986,0.342l5.688-0.07l0.438,0.09l0.914,1.495l1.789,1.476l2.053,2.087l0.95,1.426l0.95,2.578
		l0.128,0.301l0.475,0.211l0.786,0.01l2.746-0.852l0.841-0.452l0.621-0.551l0.275,0.051l0.365,0.241l0.566,0.883l0.458,0.491
		l0.621,0.301l0.675-0.081l0.968-0.612l0.512-0.562h0.883l0.713,0.131l4.878,2.367l-0.348-5.778l0.257-0.903l1.468-1.566
		l5.734-3.002l3.442-0.622l1.534,0.051l8.507,3.916l0.677,0.551l0.439,0.532l-0.056,1.424l0.292,1.616l1.243,0.762L570.285,212.753z
		"/>
	<path class="st0" d="M576.47,312.714l-0.672,0.076l-1.888,1.061l-1.997,2.087l-0.621,1.091l-0.962,2.442l-0.95,1.204l-1.413,0.713
		l-1.242,0.089l-1.059,0.505l-0.816,1.996l0.243,2.92l1.875,1.332l2.582,0.767l7.697,4.323l3.044,3.234l0.609,0.925l0.293,1.29
		l-0.109,2.337l-0.597,0.584l-0.901,0.158l-0.962,1.062l-2.692,4.899l-2.74,3.282l-3.19,1.731l-10.431,0.336l-11.729,4.025
		l-5.796,4.467l-1.948,0.887h-2.399l-7.551-2.243l0.963,4.303l-0.487,1.901l-4.422,1.237l-0.353-2.97l-1.911-1.119l-4.519-0.69
		l-0.536-0.656l-1.303-2.346l-0.841-0.819l-0.974-0.118l-3.679,0.813l-3.982-1.641l-3.788-3.084l-3.799-1.8l-4.007,2.181
		l1.462,1.115l4.396,4.635l1.583,2.503l-1.9-0.473l-2.776-0.714l-3.824-1.025l-4.798,1.296l-1.693,0.907l-2.436,1.818l-2.277,0.975
		l-4.81,0.857l-1.961,1.394l-0.403,1.699l2.681,2.063l1.57,3.687l-0.207,3.847l-1.919,1.916l-0.169,0.057l-0.378,0.128l-3.014-2.046
		l-0.42-0.394l-2.107-2.912l-0.53-0.738l-0.347-0.108l-0.566-0.011l-1.169,0.247l-1.06,0.728l-0.055,2.557l-12.118-0.609
		l-8.226-5.739l-2.277-0.6l-1.121-0.827l-1.454-3.674l-0.677-0.828l-5.266-1.182l-7.533,1.163l-1.717-0.572l-2.259-1.546
		l-2.272,0.916l-2.307,1.743l-2.418,0.897l-4.762-0.355l-2.35,1.261l-1.004,3.712l-0.597,3.19l-1.516,2.441l-2.077,1.751
		l-2.247,1.131l-21.569,2.4l-1.047-0.364l1.315-3.117l0.018-3.07l-4.354-2.962l-1.315,0.424l-2.856-0.099l-4.384-3.376l-1.852-2.029
		l-0.237-1.538l-0.091-1.084l-0.146-1.842l0.311-1.538l0.018-0.374l-0.749-1.152l3.403-0.207l9.049-3.836l1.224-0.779l0.109-0.414
		v-0.582l-0.219-0.858l-0.201-1.066l4.134-7.423l0.549-0.928l2.934-6.047l1.748,0.237l2.831-0.543l2.125-1.651l1.754-0.376
		l6.619,3.697l2.442-0.632l3.464-2.679l2.613-0.603l3.093,1.127l1.332,0.059l1.097-0.524l2.333-1.681l1.473-0.405l5.077,1.078
		l9.08,5.485l3.958,0.969l0.42-0.9l0.054-3.004l-0.164-0.989l-0.219-0.761l-0.493-0.871l-0.805-1.719l-2.429-2.631l-1.485-2.672
		l-1.042-5.81l0.164-4.586l-0.237-1.12l-0.109-1.04l-1.004-3.884l-1.937,0.455l0.512,1.418l-0.072,0.762l-0.165,0.754l-0.493,0.931
		l-0.456,0.536l-0.475,0.317l-0.475,0.04l-0.402,0.149l-1.229,0.971l-1.077,0.386l-3.289-1.645l-0.237-0.337l-0.183-0.417
		l0.895-0.772l0.567-0.665l0.347-0.635l0.694-2.061l0.913-1.943l1.279,0.099l0.037-0.218v-0.366l-0.11-0.675l-0.018-1.288
		l0.585-1.151l0.018-0.674l-0.311-0.437l-0.914-1.032l-0.95-0.604l-0.475-0.457l-1.041-1.558l-0.822-0.644l-2.435-0.556
		l-2.796-0.923l-0.712-1.31l0.09-0.378l0.22-0.258l0.767-0.626l0.401-0.795l0.239-1.887l-4.262-3.477l-0.658-1.123l0.273-2.098
		l0.426-3.29l0.696-3.716l0.02-0.107l2.012,0.731l8.387-1.039l4.193-1.453l2.286-4.154l1.271-4.156l1.905-4.781l2.542-2.496
		l3.176-2.706l3.176-1.872l4.066-1.666l5.208-2.498l4.447-2.083l2.922-2.5l2.288-2.709l2.667-4.17l2.034-3.546l1.27-4.799
		l0.128-3.132l-0.007-0.031l1.654,0.129l1.233,0.148l1.462,2.232l2.49,4.801l0.749,0.66l0.95,0.25l3.569-1.091l3.763-3.22
		l3.422-1.821l1.425,0.609l0.803,0.491l0.805,1.28l0.876,1.8l2.089,2.26l0.877,0.76l0.749,1.139l1.041,3.068l0.913,2.368
		l2.448,3.575l0.243,0.5l0.165,0.598l-0.165,2.156l-1.741,4.65l-3.928,1.327l-0.365,0.289l-0.237,0.269l0.584,1.327l0.091,0.827
		l-1.096,1.635l-1.03,4.236l-0.146,1.396l0.309,0.657l1.213,1.742l0.602,0.727l2.412,1.126l2.119,5.544l-0.054,1.612l-0.201,0.588
		l0.201,0.626l0.456,0.338l1.321,0.616l0.585,0.478l0.22,0.934l-0.439,1.243l-0.037,0.189v0.269l0.165,0.438l0.329,0.487
		l0.968,0.905l0.403,0.089l0.255-0.04l0.841-1.292l1.115-0.936l0.365-0.149l1.133,0.051l8.25,1.65l7.459-0.119l1.169-0.348
		l1.754-1.332l4.043-1.651l3.508,0.427l0.7,1.184l0.127,0.269l5.59,8.189l3.458,3.317l2.814-0.318l4.537,0.556l3.312-0.695
		l0.712,0.04l0.658,0.248l0.401,0.903l0.109,0.815v0.615l0.511,0.188l0.475,0.079l4.189-1.022l0.932,0.259l1.152,0.506l0.401,0.269
		l0.311,0.545l0.201,0.774l0.128,1.916l-0.036,1.011l-1.169,2.887l11.503,2.46l1.34,1.031L576.47,312.714z"/>
	<path class="st0" d="M479.197,381.984l-0.699,0.696l-0.097,2.044l1.169,0.477l3.422-0.078l1.352,0.649l2.629,2l1.169,1.209
		l-1.582,5.383l2.703,3.457l7.977,3.518l-1.376,4.248l-0.633,2.712l0.512,2.329l7.844,10.825l4.749,5.51l0.84,6.2l0.572,3.432
		l-0.426,3.742l-0.901,4.019l-0.159,3.48l1.779,2.132l-0.681,1.658l-0.367,4.136l-0.633,2.349l-1.169,1.663l-2.996,2.095
		l-1.229,1.212l-6.041,11.182l-2.484,3.04l-1.207,2.077l-1.01,3.748l-0.34,4.197l0.839,3.473l2.765,1.545l5.87-4.046l2.704,0.933
		l-0.938,0.548l-2.691,2.21l2.472,2.315l-1.753,2.335l-6.71,3.653l-10.901,8.572l-1.583,1.831l-2.265,4.77l-1.45,1.598l-2.167,0.232
		l-1.571-1.442l-1.4-1.825l-1.632-0.92l-3.3,1.744l0.669,4.385l1.815,5.386l0.121,4.72l1.608-0.329l3.056-1.518l1.595-0.455
		l1.632,0.223l3.093,1.025l4.226-0.512l0.243,0.977l-0.717,1.576l-0.451,1.556l0.17,2.697l0.304,1.487l0.901,0.996l2.778,1.748
		l3.848,1.343l-0.232,0.753l-0.621,1.014l-0.219,1.235l0.998,3.842l-0.036,1.486l-0.719,1.919l-1.315,1.581l-2.655-0.231
		l-1.62,0.926l-1.035,1.871l0.109,1.61l0.256,1.715l-0.622,2.217l-1.693,1.589l-1.789-0.453l0.498,2.389l0.902,1.56l1.168,0.818
		l0.767,1.137l-0.256,2.425L482.578,570l-8.548-0.279l-1.286-0.409l-1.345-0.427l-10.218,0.26l-1.205-0.848l-2.412-2.667
		l-1.181-0.452l-1.047,0.808l-1.271,1.91l-0.58,0.873l-1.231,0.25l-1.279-0.26l-2.143-1.232l1.218-4.276l0.206-2.196l-1.839-0.549
		l-2.545-1.223l-0.686-0.48l-1.97-1.38l-1.912-2.843l-0.255-4.176l8.501-9.525l1.364-0.55l1.363-0.492l0.561-0.454l1.522-2.299
		l2.034-4.348l1.352-2.282l-1.145-0.686l-1.133-0.029l-2.63,0.715l4.639-7.438l1.864-4.568l-1.595-2.178l0.28-2.484l0.597-1.817
		l0.962-0.596l1.376,1.182l0.889-1.216l0.645-1.332l0.878-2.573l-0.329-0.756l-0.183-0.572l-0.293-1.357l1.291,0.14l1.266-0.194
		l1.193-0.484l1.085-0.732l-2.68-2.881l0.378-2.144l1.657-1.645l-0.293-0.902l-1.048-2.394l-2.009-0.16l-3.617,0.922l-1.571-1.324
		l-2.46-3.409l-1.924-1.156l-1.51-0.16l-4.932,1.02l-2.022,0.019l-1.279-0.919l-1.133-1.306l-1.595-1.127l-6.674-2.022l-1.999-1.715
		l0.026-0.01l1.973-0.778l2.82-0.856l1.022,0.098l0.878-0.389l0.821-0.925l0.658-1.332l1.066-6.335l2.082-3.699l0.804-1.286
		l2.502-3.243l11.466-3.509l8.374-2.671l3.641-0.936l2.721-2.273l4.282-3.54l-2.868-6.13l-4.025-5.577l-2.674-10.832l-1.826-11.924
		l4.225,0.421l4.501,1.528L476.55,418l3.178-0.529l5.779-1.999l1.152,0.303l2.874,1.989l1.826-1.627l0.024-1.528l-0.701-1.597
		l-1.443-5.647l-0.493-0.833l-0.128-0.677l-2.326-3.914l-1.06-1.069l-1.188-0.726l-0.584-0.972l0.785-1.836l-1.839-2.052
		l-1.571-6.857l-1.82-1.474l-4.756-0.491l-1.882-1.19l-1.004-2.331l0.359-2.291l-2.35-1.161l0.055-2.557l1.06-0.728l1.169-0.247
		l0.566,0.011l0.347,0.108l0.53,0.738l2.107,2.912l0.42,0.394l3.014,2.046l0.378-0.128L479.197,381.984z"/>
	<path class="st0" d="M179.042,476.92l-0.841-0.39l-2.862-3.147l-1.668-4.731l0.086-4.392l0.487-4.677l-1.02-7.267l19.03-6.179
		l1.746-1.445l1.841-0.215l7.46,4.85l11.488,3.296l3.778,3.363l2.512,1.075h4.757l4.488,1.29l2.848-0.414l11.507-4.968l1.582-1.866
		l0.633-3.765l1.122-1.676l2.541,0.123l2.753,1.061l1.696,1.076l0.778,1.184l1.323,2.942l1.045,1.152l1.314,0.454l2.848,0.383
		l1.18,0.968l0.758,0.307l4.076,0.338l2.022-3.049l0.748-0.7l2.302,0.261l2.584,1.518l-0.062,0.79l-0.878,4.392l-0.658,1.876
		l-4.64,6.356l-5.845,4.61l-14.603,7.374l-5.37,4.225l-2.643,0.85l-13.945,0.176l-1.462-0.647l-1.753-2.09l-0.195-1.964l0.195-2.092
		l-0.609-2.466l-2.229-1.469l-14.406-4.804l-3.008-0.491l-2.912,0.171l-4.689,1.056l-1.888,0.112l-1.729,0.433l-1.291,1.333
		l-0.219,2.176l0.305,2.384l-0.341,1.78l-5.579,0.875l-3.763-0.443L179.042,476.92z M283.01,453.501l-2.363-0.082l-0.468-0.59
		l-0.949-2.212l-0.317-2.306l0.057-1.945l-0.23-1.468l-1.199-0.854l-1.382,1.799l-2.588,0.784l-10.596-0.307l-2.446-0.815
		l-2.378-1.461l-6.483-5.653l-1.928-0.792l-4.919-0.507l-1.64,1.022l-3.5,6.638l-1.333,1.952l-1.812,0.968l-4.24,0.461l-1.515,0.969
		l-1.266,0.223l-1.266-0.577l-3.223-3.412l-7.106-3.522l-4.603-4.438l-1.85-0.208l-4.881,1.831l-2.656,0.123l-6.674-1.523
		l-2.12-1.154l-1.792-2.679l-1.573-3.017l-1.42-2.195l-3.874-3.421l-1.285-2.034l-0.47-3.076l1.238-1.727l12.12-7.499l31.636-3.435
		l2.618,0.371l1.765,1.019l1.899,1.768l1.687,2.331l1.094,2.762l-1.237,0.501l-2.005,1.365l-0.786,0.725v1.172l11.278,1.187
		l5.725,2.329l4.861,4.253l1.554,2.958l2.32,6.527l1.745,2.37l2.82,0.824l6.137-0.854l2.311,1.199l2.33-0.761l3.836,0.193
		l1.299-0.365l0.006,0.012l0.037,0.076l0.529,2.774l-0.42,0.762l-0.128,0.635l-0.219,0.576l0.074,2.158l0.456,3.651l1.115,0.946
		l0.438,1.2l0.146,1.404L283.01,453.501z M277.042,425.027l-4.219-0.763l-4.872-2.173l-1.812-0.154l-3.73,0.447l-1.765-0.293
		l-2.838-1.697l-9.321-8.769l6.252-2.987l3.127-0.88l10.547,0.525l3.079,0.942l2.763,2.348l0.084,0.188l3.094,3.538l0.383,0.559
		l0.822,2.4l-0.018,2.261l-0.146,0.763L277.042,425.027z M271.817,406.59l-4.651-0.2l-1.256-0.486l-1.18-0.812l-0.939-1.135
		l-0.595-1.653l-0.243-1.442l0.022-0.028l0.317-0.414l1.987-1.707l2.641,1.031l2.516,1.827l2.655,1.05l0.097-0.03l-0.048,0.14
		L271.817,406.59z M254.2,393.477l4.92,1.376l2.235,1.593l0.24,3.061l-1.218,1.917l-1.936,1.352l-2.092,0.81l-9.052,1.777
		l-2.091-0.108l-4.382-1.638l-2.541-1.807l-1.132-2.566l-0.748-2.443l-1.86-1.469l-4.623-1.855l-0.786-0.766l-0.738-1.021
		l-0.988-0.812l-1.573-0.117l-2.907,3.481l-0.689,0.649l-5.284,0.302l-2.416-0.719l-1.573-2.297l0.326-6.152l4.285-2.795l9.926-1.44
		l0.489-0.178l1.927,0.178l1.553,0.851l11.297,0.318l2.608,0.58l1.918,1.487l4.402,5.433l0.575,0.997l0.747,1.021L254.2,393.477z"/>
	<path class="st0" d="M283.01,453.501l-0.007-0.071l-0.146-1.404l-0.438-1.2l-1.115-0.946l-0.456-3.651l-0.074-2.158l0.219-0.576
		l0.128-0.635l0.42-0.762l-0.529-2.774l-0.037-0.076l-0.006-0.012l2.288-0.613l1.592-4.317l-0.96-4.089l-2.454-3.057l-3.299-1.934
		l-1.094-0.2l1.431-3.747l0.146-0.763l0.018-2.261l-0.822-2.4l-0.383-0.559l-3.094-3.538l-0.084-0.188l0.007,0.006l0.048,0.047
		l-0.547-3.575l-1.496-1.435l-0.45-0.024l1.324-3.861l0.048-0.14l4.849-1.552l4.858-0.412l6.307-1.648l4.603-3.161l3.578-6.6
		l12.188,2.476l4.518-0.137l4.09-1.238l4.858-2.338l2.727-0.825l3.722-0.049l5.901-7.14l1.687-3.335l2.569-2.785l3.374-2.6
		l6.491-0.099l2.93-0.936l4.553-4.156l3.039-0.049l5.986,1.211l2.795-0.266l0.091,1.084l0.237,1.538l1.852,2.029l4.384,3.376
		l2.856,0.099l1.315-0.424l4.354,2.962l-0.018,3.07l-1.315,3.117l1.047,0.364l21.569-2.4l2.247-1.131l2.077-1.751l1.516-2.441
		l0.597-3.19l1.004-3.712l2.35-1.261l4.762,0.355l2.418-0.897l2.307-1.743l2.272-0.916l2.259,1.546l1.717,0.572l7.533-1.163
		l5.266,1.182l0.677,0.828l1.454,3.674l1.121,0.827l2.277,0.6l8.226,5.739l12.118,0.609l2.35,1.161l-0.359,2.291l1.004,2.331
		l1.882,1.19l4.756,0.491l1.82,1.474l1.571,6.857l1.839,2.052l-0.785,1.836l0.584,0.972l1.188,0.726l1.06,1.069l2.326,3.914
		l0.128,0.677l0.493,0.833l1.443,5.647l0.701,1.597l-0.024,1.528l-1.826,1.627l-2.874-1.989l-1.152-0.303l-5.779,1.999L476.55,418
		l-1.388-0.019l-4.501-1.528l-4.225-0.421l1.826,11.924l2.674,10.832l4.025,5.577l2.868,6.13l-4.282,3.54l-2.721,2.273l-3.641,0.936
		l-8.374,2.671l-11.466,3.509l-2.502,3.243l-0.804,1.286l-2.082,3.699l-1.066,6.335l-0.658,1.332l-0.821,0.925l-0.878,0.389
		l-1.022-0.098l-2.82,0.856l-1.973,0.778l-0.026,0.01L432,481.583l-0.378-4.279l-0.839-3.648l-2.18-2.861l-2.765-1.752l-2.546-0.293
		l-2.326,1.125l-4.944,3.499l-2.46,0.91l-13.944-0.589l-3.684,0.922l-0.761,0.191l-2.071-0.53l-0.06-6.708l-2.071-2.639
		l-2.179-0.219l-4.555,0.4l-2.034-1.129l-0.572-1.233l-1.207-4.161l-0.62-1.637l-4.057-4.506l-0.755-1.834l0.414-4.089l1.316-3.022
		l0.413-3.145l-2.313-4.431l-3.532-2.356l-0.33-0.449l-1.814,0.47l-0.706,1.139l-0.402,1.759l-0.816,2.325l-1.839,3.057
		l-2.715,3.692l-2.972,2.904l-2.546,0.702l-4.555-2.104l-2.167-0.585l-8.246-0.283l-2.496-1.084l0.669-2.27l1.327-0.196l5.141,2.407
		l-0.853-3.286l0.524-2.862l0.729-2.712l-0.255-2.854l-1.217-1.604l-1.974-1.305l-2.143-0.822l-1.705-0.166l-3.885,2.01
		l-9.109,11.234l-1.218,0.908l-1.582,0.606l-1.828,0.122l-3.763-0.952l-3.397,0.625l-1.559-0.146l-2.252-1.621l0.219-1.847
		l0.999-2.354l0.157-3.162l-0.938-1.578l-1.486-0.273l-3.482,0.577l-6.322,2.336l-6.162,3.611l1.426,1.568l-0.243,1.347
		l-0.768,1.475l-0.086,1.913l0.914,1.699l2.643,3.162l0.719,1.853l-0.585,3.252l-2.241,1.194l-5.492-0.355l-2.278-0.78l-4.262-2.326
		L283.01,453.501z"/>
	<path class="st0" d="M262.953,400.862l-0.123-0.736l-0.029-2.172l0.355-1.616l1.534-1.677l2.033-0.859l4.008-0.325l-1.247-1.299
		l-2.973-2.135l-8.199-2.523l-1.698-2.492l-0.748-6.32l-1.984-3.952l-2.849-2.604l-3.336-2.302l-2.225,1.675l-2.993,0.93
		l-3.039-0.007l-2.302,0.651l-0.431,0.775l-0.835,0.154l-1.122-0.038l-1.093-5.296l3.423-2.327l7.394-2.265l1.007-1.374l2.301-0.179
		l3.942,0.901l3.278,1.784l0.49,0.101l0.872-0.101l1.229-0.55l1.437-1.234l-0.891-1.746l-3.001-4.154l-0.796-0.653l-0.681-0.784
		l-0.269-1.188l0.259-1.492l0.547-1.05l0.547-0.754l0.259-0.606l-0.383-2.938l-2.244-7.506l-1.313-3.215l0.662-1.447l0.805-1.278
		l5.485,1.231l4.555-0.755l4.027-2.625l16.829-20.572l14.403-21.231l11.93-21.748l-1.075,1.989l5.164,2.341l0.675,0.269l2.108,0.468
		l2.447-1.285l2.649,0.638l-4.951,8.273l-0.164,0.467l-0.146,0.836l-0.11,1.801l-0.573,2.595l-1.48,2.526l0.165,1.421l1.332-0.099
		l1.157,1.123l0.567,0.278l0.803,0.149l2.904-0.07l5.03-1.352l2.502-1.203l4.81-1.56l0.603,0.407l0.292,0.289l0.512,2.833
		l0.401,0.914l1.249,0.617l3.727-2.485l1.534,2.703l0.586,0.836l0.719,0.715l2.594,1.033l5.743,4.945l-1.06,0.874l0.475,2.124
		l0.749,2.113l0.182,0.645l-0.018,0.466l-0.256,0.328l-0.493,0.138l-1.942-0.932l-0.585-0.14l-0.401-0.188l-0.384-0.288
		l-0.639,0.139l-0.566,0.189l-2.814,2.996l-0.711,0.803l1.626,1.428l1.789,0.656l1.496,7.145l5.325,0.039l-0.849,1.3l-4.638,2.312
		l-3.741,5.717l0.523,1.215l5.387-0.73l0.524,2.311l-1.488,0.931l-0.858,0.406l-0.767,0.248l-0.383,0.573l1.06,1.819l3.769,4.834
		l2.594,3.991l0.786-1.216l2.673,0.159l1.188-0.494l3.306-3.42l3.782-2.194l0.243-0.297l4.883,1.117l1.188-0.524l1.711-2.195
		l1.048-0.81l2.69-0.742l1.042-0.812l1.096-0.554l1.625,0.356l1.438,1.127l1.625,2.838l1.109,1.383l2.223,1.187l1.132,0.177
		l-2.934,6.047l-0.549,0.928l-4.134,7.423l0.201,1.066l0.219,0.858v0.582l-0.109,0.414L380.699,358l-9.049,3.836l-3.403,0.207
		l0.749,1.152l-0.018,0.374l-0.311,1.538l0.146,1.842l-2.795,0.266l-5.986-1.211l-3.039,0.049l-4.553,4.156l-2.93,0.936
		l-6.491,0.099l-3.374,2.6l-2.569,2.785l-1.687,3.335l-5.901,7.14l-3.722,0.049l-2.727,0.825l-4.858,2.338l-4.09,1.238l-4.518,0.137
		l-12.188-2.476l-3.578,6.6l-4.603,3.161l-6.307,1.648l-4.858,0.412l-4.849,1.552l-0.097,0.03l-2.655-1.05l-2.516-1.827
		l-2.641-1.031l-1.987,1.707l-0.317,0.414L262.953,400.862z"/>
	<path class="st0" d="M309.762,268.939l7.125-21.024l1.026-5.476v-1.426l2.311-4.961l4.997-37.659l2.09-9.635l0.326-2.939
		l1.131-6.095l4.978-12.975l1.14-6.412l0.126-3.625l0.47-4.653l0.883-4.026l1.362-1.704l7.25,1.131l1.168-1.131l0.883,1.457
		l-1.764,5.976l2.751,3.57l4.833,1.439l4.632-0.318l2.676-1.526l5.005-4.359l2.445-0.907l4.698-0.621l4.623-2.053l11.977-10.762
		l0.04,0.198l0.237,0.608l0.458,1.912l0.167,0.702l0.009,0.036l8.565,24.627l12.978,14.631l-0.014,0.2l-1.335,19.523l-5.911-1.888
		l-3.622,2.516l-1.906,7.23l-19.637,12.874l2.86,12.855l5.719,8.455l3.051,8.445h-4.004l-6.673,6.252l0.19,6.246l6.483,6.867
		l3.622,0.936l4.385-0.312h2.478l4.003,1.247l9.988,6.78l-0.175,0.031l-3.997,0.725l-6.599,0.008l-0.932,0.359l-0.53,0.308
		l-2.137,3.601l-2.399,5.967l-0.402,2.256l-0.657,1.43l-0.822,2.017l-0.859,1.748l-2.32,1.609l-6.547-0.358l-4.448,0.831
		l-2.094,0.977l-3.093,0.65l-0.599-4.067l-0.698-2.93l0.891-3.906l1.954-2.415l-0.566-1.184l-0.311-0.427l-0.237-0.368l-0.274-0.348
		l-0.401-0.367l-0.329-0.179l-0.256-0.278l-0.183-0.418l-0.128-0.716l-0.182-0.588l-0.403-0.855l0.567-0.905l3.599-1.423
		l-4.768-0.448l-1.906,0.845l-0.548-0.845l-0.566-0.459l-0.713-0.288l-0.859-0.011l-2.923,1.623l-2.253,0.399l-1.096-0.09
		l-0.548,0.329l-0.384,0.338l-1.644,3.153l-4.682,0.657l-2.576,1.273l-1.778,1.849l-2.374,1.223l-5.487,1.619l-3.727,2.485
		l-1.249-0.617l-0.401-0.914l-0.512-2.833l-0.292-0.289l-0.603-0.407l-4.81,1.56l-2.502,1.203l-5.03,1.352l-2.904,0.07l-0.803-0.149
		l-0.567-0.278l-1.157-1.123l-1.332,0.099l-0.165-1.421l1.48-2.526l0.573-2.595l0.11-1.801l0.146-0.836l0.164-0.467l4.951-8.273
		l-2.649-0.638l-2.447,1.285l-2.108-0.468l-0.675-0.269l-5.164-2.341L309.762,268.939z M355.062,118.22v1.222h2.416l-0.825,2.571
		l-1.534,3.057l-3.28,5.082l-5.552,4.594l-2.646,5.18l-3.97,1.172l-4.143-1.713l-2.253-4.973l0.728-5.128l2.33-5.801l2.925-4.758
		l5.562-4.818l2.782-5.893l2.954-4.863l3.701,0.2l0.479,1.152l0.268,1.008l-0.085,0.936l-0.662,0.937l1.669,2.726l1.207,3.486
		l-0.029,3.092L355.062,118.22z"/>
	<path class="st0" d="M388.902,138.226l11.747-10.569l1.736-2.059l2.186-1.843l5.437-1.278l2.397-1.574l2.416-4.848l3.223-13.417
		l2.397-6.012l4.143-4.855l2.55-2.26l4.335-1.883l1.985-2.253l1.842-2.688l2.128-2.197l2.388-0.851l5.639-0.955l4.113-3.571
		l18.872-7.647l4.248-3.055l2.704-0.224l7.901-4.085l11.373-0.564l12.808-0.409l-1.268,2.542l-0.584,2.379l1.152,4.297l1.685,0.744
		l2.229,0.643l0.42,0.255l0.457,0.429l0.676,0.99l0.493,0.55l0.401,0.235l0.328,0.102l0.366-0.02l0.42-0.164l0.664-0.449
		l0.328-0.142l0.384-0.031l2.173,0.734l0.42,0.654l0.201,1.091l-0.274,2.467l-0.054,1.927l0.201,0.235l0.311,0.183l0.785,0.306
		v0.203l-0.329,0.397l-1.973,1.845l-1.607,1.845l-0.439,0.886l-0.589,2.545l-1.754,3.014l-1.462,2.931l0.239,0.926l0.109,0.824
		l0.237,0.489l0.201,0.6l0.128,0.56l0.036,0.538l-0.311,0.793l-4.372,5.855l-1.205,2.429l-0.822,4.225l0.55,4.213l1.095,1.41
		l1.559,1.411l1.023,0.335l5.03,0.486l2.028,0.731l4.238,2.789l1.03,0.578l-0.219,2.677l0.365,0.365l1.846,1.105l3.324,1.428
		l0.273,0.568l0.281,1.093l-0.109,1.074l0.639,1.955l0.438,2.197l6.382,8.602l1.424,2.982l-0.2,0.869l-0.311,1.082l-3.24,5.365
		l-0.73,0.798l-5.633,3.798l-3.946-2.697l-2.635-0.686l-3.142,0.01l-1.279,1.01l-0.822,0.838l-3.934,4.544l-9.985,7.717
		l-4.951,1.966l-2.271,0.242l-1.918,0.544l-0.275,0.232l-0.127,0.222l-0.11,0.846l-0.109,0.313l-1.681,1.945l-4.627-0.343
		l-0.585-0.282l-1.078-0.967l-1.388-2.057l-0.628-0.293l-0.31-0.06l-0.292,0.362l-0.439,0.302l-2.374,0.576l-0.585,0.362
		l-0.42,0.473l-0.291,0.655l-0.42,0.756l-0.53,0.796l-0.573,0.574l-3.488,2.096l-0.896,0.171l-0.658,0.04l-3.331-0.554l-0.438-0.212
		l-1.388-1.218l-4.391,2.206l-1.188-2.981l-2.94-3.134l-1.139-0.716l-2.411,0.383l-0.311,0.06l-1.633-0.27h-2.668l-2.86,0.631
		l-2.86,1.262l-3.813,3.155l-4.957,3.784l-21.924,0.631l-0.177-0.2l-12.978-14.631l-8.565-24.627l-0.009-0.036l-0.167-0.702
		l-0.458-1.912l-0.237-0.608L388.902,138.226z M353.451,96.626l4.986-6.466l7.692-7.144l8.007-4.693l5.935,0.819v1.349h-3.145
		l-1.476,0.85l-3.433,1.316l-9.302,9.115l-2.569,3.853l-3.012,2.659L353.451,96.626z M417.632,55.299l1.582-1.208l17.472-3.388
		l-2.743,3.816l-3.338,1.175l-6.866,0.281l0.23,0.677l0.278,1.449l0.23,0.7l-1.543,0.82l-4.901,0.411l-5.244,2.324l-4.19,1.078
		l-16.331,7.216l-3.357-0.079l-1.437-2.99l1.324-3.399l6.309-2.228l2.09-1.922l2.685,0.072l15.823-3.258L417.632,55.299z
		 M447.138,47.867l28.261-1.175l4.804,2.529l-11.662,2.706h-12.12l-3.031,0.806l-5.668,2.615l-2.992-0.716l-2.061-2.954l0.692-2.907
		l1.994-1.683L447.138,47.867z M510.505,39.761l11.671-1.049l3.289,1.049v1.353h-1.611l-20.253,6.575l-2.34,3.013l-0.691-1.249
		l-0.037-0.629l0.728-0.958l-1.238-2.714l2.963-2.619l4.412-1.983L510.505,39.761z"/>
	<path class="st0" d="M411.355,180.939l0.177,0.2l21.924-0.631l4.957-3.784l3.813-3.155l2.86-1.262l2.86-0.631h2.668l1.633,0.27
		l0.311-0.06l2.411-0.383l1.139,0.716l2.94,3.134l1.188,2.981l8.634,4.733l5.463,4.468l1.376,1.831l0.821,1.398l1.681,4.946
		l0.896,4.994l-0.658,1.045l-0.474,1.134l-0.859,0.814l-0.219,0.331l0.329,0.312l1.004,0.482l4.756,1.405l2.302,1.266l2.594,3.151
		l-3.763,2.107l-5.687,1.955l-1.114,0.071l-1.918-0.321l-0.664-0.391l-1.553,0.101l-5.984,2.746l-0.112,0.129l-1.271,1.464v2.301
		l1.652,1.464l2.407,10.833l0.007,0.031l-0.128,3.132l-1.27,4.799l-2.034,3.546l-2.667,4.17l-2.288,2.709l-2.922,2.5l-4.447,2.083
		l-5.208,2.498l-4.066,1.666l-3.176,1.872l-3.176,2.706l-2.542,2.496l-1.905,4.781l-1.271,4.156l-2.286,4.154l-4.193,1.453
		l-8.387,1.039l-2.012-0.731l-0.274-0.1l-4.77-2.872l0.175-0.031l-9.988-6.78l-4.003-1.247h-2.478l-4.385,0.312l-3.622-0.936
		l-6.483-6.867l-0.19-6.246l6.673-6.252h4.004l-3.051-8.445l-5.719-8.455l-2.86-12.855l19.637-12.874l1.906-7.23l3.622-2.516
		l5.911,1.888l1.335-19.523L411.355,180.939z"/>
	<path class="st0" d="M415.903,282.168l-0.02,0.107l-0.696,3.716l-0.426,3.29l-0.273,2.098l0.658,1.123l4.262,3.477l-0.239,1.887
		l-0.401,0.795l-0.767,0.626l-0.22,0.258l-0.09,0.378l0.712,1.31l2.796,0.923l2.435,0.556l0.822,0.644l1.041,1.558l0.475,0.457
		l0.95,0.604l0.914,1.032l0.311,0.437l-0.018,0.674l-0.585,1.151l0.018,1.288l0.11,0.675v0.366l-0.037,0.218l-1.279-0.099
		l-0.913,1.943l-0.694,2.061l-0.347,0.635l-0.567,0.665l-0.895,0.772l0.183,0.417l0.237,0.337l3.289,1.645l1.077-0.386l1.229-0.971
		l0.402-0.149l0.475-0.04l0.475-0.317l0.456-0.536l0.493-0.931l0.165-0.754l0.072-0.762l-0.512-1.418l1.937-0.455l1.004,3.884
		l0.109,1.04l0.237,1.12l-0.164,4.586l1.042,5.81l1.485,2.672l2.429,2.631l0.805,1.719l0.493,0.871l0.219,0.761l0.164,0.989
		l-0.054,3.004l-0.42,0.9l-3.958-0.969l-9.08-5.485l-5.077-1.078l-1.473,0.405l-2.333,1.681l-1.097,0.524l-1.332-0.059l-3.093-1.127
		l-2.613,0.603l-3.464,2.679l-2.442,0.632l-6.619-3.697l-1.754,0.376l-2.125,1.651l-2.831,0.543l-1.748-0.237l-1.132-0.177
		l-2.223-1.187l-1.109-1.383l-1.625-2.838l-1.438-1.127l-1.625-0.356l-1.096,0.554l-1.042,0.812l-2.69,0.742l-1.048,0.81
		l-1.711,2.195l-1.188,0.524l-4.883-1.117l-0.243,0.297l-3.782,2.194l-3.306,3.42l-1.188,0.494l-2.673-0.159l-0.786,1.216
		l-2.594-3.991l-3.769-4.834l-1.06-1.819l0.383-0.573l0.767-0.248l0.858-0.406l1.488-0.931l-0.524-2.311l-5.387,0.73l-0.523-1.215
		l3.741-5.717l4.638-2.312l0.849-1.3l-5.325-0.039l-1.496-7.145l-1.789-0.656l-1.626-1.428l0.711-0.803l2.814-2.996l0.566-0.189
		l0.639-0.139l0.384,0.288l0.401,0.188l0.585,0.14l1.942,0.932l0.493-0.138l0.256-0.328l0.018-0.466l-0.182-0.645l-0.749-2.113
		l-0.475-2.124l1.06-0.874l-5.743-4.945l-2.594-1.033l-0.719-0.715l-0.586-0.836l-1.534-2.703l5.487-1.619l2.374-1.223l1.778-1.849
		l2.576-1.273l4.682-0.657l1.644-3.153l0.384-0.338l0.548-0.329l1.096,0.09l2.253-0.399l2.923-1.623l0.859,0.011l0.713,0.288
		l0.566,0.459l0.548,0.845l1.906-0.845l4.768,0.448l-3.599,1.423l-0.567,0.905l0.403,0.855l0.182,0.588l0.128,0.716l0.183,0.418
		l0.256,0.278l0.329,0.179l0.401,0.367l0.274,0.348l0.237,0.368l0.311,0.427l0.566,1.184l-1.954,2.415l-0.891,3.906l0.698,2.93
		l0.599,4.067l3.093-0.65l2.094-0.977l4.448-0.831l6.547,0.358l2.32-1.609l0.859-1.748l0.822-2.017l0.657-1.43l0.402-2.256
		l2.399-5.967l2.137-3.601l0.53-0.308l0.932-0.359l6.599-0.008l3.997-0.725l4.77,2.872L415.903,282.168z"/>
</g>
<g id="Copyright">
	<text transform="matrix(1 0 0 1 681.6426 577.5911)" class="st1 st2">© Vemaps.com</text>
</g>
</svg>
