<?xml version="1.0" encoding="utf-8"?>
<!-- Generator: Adobe Illustrator 23.0.1, SVG Export Plug-In . SVG Version: 6.00 Build 0)  -->
<svg version="1.1" xmlns="http://www.w3.org/2000/svg" xmlns:xlink="http://www.w3.org/1999/xlink" x="0px" y="0px"
	 viewBox="0 0 800 600" style="enable-background:new 0 0 800 600;" xml:space="preserve">
<style type="text/css">
	.st0{fill:#808080;stroke:#FFFFFF;stroke-width:0.5;stroke-linecap:round;stroke-linejoin:round;}
	.st1{font-family:'Roboto-Regular';}
	.st2{font-size:14px;}
</style>
<g id="Nicaragua">
	<path class="st0" d="M527.752,560.701l-0.866-0.127l-1.899-0.039l-1.364,0.997l-0.643-0.843l-2.683-2.164l-0.277-0.43l-0.498-0.529
		l-0.227-0.699l0.542-0.959l0.504-0.346l1.691-0.888l-0.453-2.976l-2.107-1.78l-2.324-1.193l-1.09-1.216l-1.295-0.882l-5.663-2.184
		l-1.288-1.209l-0.34-0.873l-1.622-2.047l-0.535-0.898l-0.252-1.537l0.025-1.254l-0.284-0.934l-1.156-0.587l-1.036,0.622
		l-6.557,4.293l-1.156,0.488l-1.336-0.135l-1.301-0.513l-1.093-0.622l-1.042-0.882l-2.772-3.465l-0.51-0.379l-0.592-0.321
		l-0.63-0.253l-0.658-0.186l-6.079-2.692l-2.813-0.902l-2.627,0.148l-2.126-0.308l-4.639-3.35l-2.161-0.953l-3.817,0.915
		l-9.021,5.982l-12.58,8.345l-6.927-4.027l-10.427-3.541l-16.385-6.07l-5.958-2.53l-10.924-4.048l-4.965-4.554l29.189-60.227
		l2.22-3.827l0.296-0.363l0.51-0.473l1.89-0.946l2.441-1.721l1.118-0.617l0.765-0.306l0.567,0.219l0.306,0.077l0.592-0.067
		l2.274-0.859l0.737-0.431l0.403-0.293l0.403-0.692l0.557-0.74l0.85-0.914l0.17-0.225l0.12-0.277l0.189-0.289l0.507-0.569
		l0.239-0.363l0.12-0.502l0.003-0.145l0.34-0.811l1.811-2.812l5.213-1.145l3.058-2.024l8.05-7.44l0.397-0.599l0.586-0.18
		l0.633-0.097l8.98,0.113l2.491-0.444l0.532-0.006l1.033,0.296l0.491,0.039l1.839-0.184l0.413,0.058l0.46,0.106l0.586,0.241
		l1.37,0.29l4.668,0.155l2.469,8.579l1.824,3.369l1.008,0.846l0.772,0.811l0.29,0.791l-0.139,1.496l0.158,3.246l1.317,3.149
		l1.216,3.908l-0.06,1l-0.211,1.386l-1.203,2.842l-1.723,5.987l-0.34,2.408l-0.041,1.617l0.898,4.805l0.453,4.808l8.098,3.001
		l3.528,2.159l9.72,6.079l1.887,1.889l0.715,1.699l0.088,1.542l0.249,1.593l0.917,1.889l1.096,1.15l1.131,0.819l5.732,2.961
		l4.81,3.481l3.461,3.481l1.058,1.377l2.488,4.116l0.614,0.722l0.504,0.331l0.365-0.022l0.425,0.099l0.463,0.221l0.775,0.462
		l0.356,0.125l0.683,0.183l0.917,0.347l0.35,0.058l0.277,0.019l1.25-0.164l0.778-0.01l0.334,0.029l0.778,0.183l1.997,0.809
		l1.521,0.51l3.868-0.501l0.787,0.077l0.391,0.222l-0.098,0.693l-0.016,0.359l0.057,0.327l0.167,0.26l1.332,1.396l1.197,0.995
		l0.649,0.318l0.491,0.067l1.049-0.562l0.765-0.173l0.277-0.096l0.542-0.289l0.243-0.183l0.614-0.356l0.447-0.173l0.901-0.154
		l0.746,0.125l1.169,0.443l0.561,0.077l0.457-0.019l0.277-0.144l0.312-0.116l0.283-0.135l0.261-0.173l0.961-0.385l1.168-0.154
		l0.595-0.154l1.698-0.809l0.359,0.067l0.205,0.231l0.025,0.385l-0.192,2.305l0.019,0.395l0.154,0.674l0.139,0.299l0.353,0.501
		l0.413,0.433l0.186,0.241l0.126,0.308l0.057,0.366l0.019,0.822l0.091,0.481l0.192,0.481l0.526,0.645l0.422,0.231l0.353,0.01
		l0.293-0.125l0.252-0.164l0.293-0.144l0.866-0.029l1.38,0.106l4.8,0.943l0.907,0.298l0.277,0.193l0.422,0.408l2.221,2.907
		l1.767,2.929l3.156,3.42l2.106,1.635l0.967,2.647l2.143-0.404l-0.461-1.324l1.771-0.258l2.589,0.53l1.999,1.051l-0.868-0.086
		l-0.772,0.019l-0.718-0.154l-0.885,0.632l0.145,0.632l-0.057,0.6l0.113,5.331l1.118,4.416l-0.353,3.37l-4.28,2.216l-8.006,1.921
		l-0.627,0.151l-8.091,3.084l-2.494,2.93l-0.454,0.276l-3.332-0.667l-0.816,0.276l-1.698,1.186L557.063,570l-1.134-0.176
		l-0.822-0.391l-7.351-5.825l-0.557-2.116l-1.345-0.917l-1.641,0.276l-1.446,1.452l-2.082-0.5l-3.024,1.953l-1.477-1.452h-0.838
		l-1.402,1.068l-1.402-0.535l-2.265-2.225l-1.464,0.247L527.752,560.701z"/>
	<path class="st0" d="M425.088,66.446l1.899-1.287l2.183-1.563l5.587-5.43l2-1.17l7.288-1.333l3.21-0.14l3.165,0.958l2.677,2.007
		l1.792,2.984l-0.378,0.355l-0.954,1.235l-0.066,0.248l2.425,0.306l0.337,1.521l-0.123,1.677l2.491,1.697l1.272,2.107l1.839,4.314
		l2.252-1.358l2.334,0.254l4.721,2.045l2.746,0.592l8.901,0.267l-0.463,0.892l-0.365,2.467l1.849-0.573l1.288,0.713l1.276,1.097
		l1.868,0.56l1.351-0.397l3.156-1.771l4.545-1.605l2.246-2.78l1.691-3.181l1.609-2.38l1.187,1.215l0.872,3.276l0.932,0.667
		l1.855,0.173l2.961,0.671l1.351,0.098l2.501-1.325l0.624-2.774l-0.63-5.914l0.674-1.495l1.534-0.111l1.685,0.59l1.099,0.625
		l0.939,0.798l2.885,3.117l1.477,0.612l1.792-0.14l2.973-0.869l0.721-0.423l0.491-0.606l0.624-0.524l1.112-0.241l1.024,0.176
		l0.573,0.3l0.516,0.059l0.835-0.534v-0.944l-1.068-1.042l-0.844-1.156l-1.414-2.961l1.335-1.121l0.891-0.065l2.79,1.782
		l0.315,0.583l0.46,0.446l1.282,0.173l2.057-0.068l0.627,0.345l0.233,0.974l2.094,0.254l12.05-0.645l-0.627-1.036l0.025-1.163
		l0.602-2.886l1.471,0.831l1.962,2.111l1.559,0.42l-0.151-0.534l-0.602-1.182l0.885,0.365l0.479,0.137l0.425,0.313l0.706,0.902
		l1.484-1.345l2.17-1.215l2.419-0.782l2.249-0.02l-0.948-0.645l-0.602-0.616l-0.869-1.476l6.797-0.417l2.532-0.994l-0.249-1.958
		l1.54-0.098l1.257,0.176l0.904,0.57l0.46,1.075h0.904l-1.156-3.62l0.472-1.401l2.274-1.089l2.416-0.336l2.706,0.143l2.242,0.668
		l1.036,1.326h0.907l0.526-1.541l0.258-1.698l0.598-1.366l2.986-1.125l3.036-2.435l1.754-0.525l-0.239-0.443l-0.327-0.893
		l-0.271-0.385l1.811,0.528l0.687,0.336l-0.372-1.692l0.157-1.467l0.68-0.541l1.197,1.115l0.073-1.914l0.198-0.776l0.643-0.838
		l-0.822-1.223l0.413-0.636l1.228-0.14l1.603,0.274l0.646,0.623l1.483,2.289l1.121,0.619l2.86-0.339l2.469-1.483l1.899-2.106
		L621.3,30l1.521,1.226l1.565,0.62l1.272,0.792l0.633,1.673l1.843-1.216l2.094-0.14l5.373,0.571l-1.452,0.714l-0.095,0.665
		l0.895,0.629l1.483,0.584l0.504-0.088l5.398,0.088l3.219-1.483l1.698-0.323l4.113,0.241l1.61-0.266l-0.892,1.299l-2.232,1.042
		l-1.106,1.186l-1.791-2.136l-1.468,1.479l-1.17,2.675l-0.903,1.432l-1.557,0.76l-1.488,1.812l-1.101,2.14l-0.432,1.74l-0.322,0.59
		l-1.552,1.529l-0.625,0.898l-0.312,1.227l-0.223,2.699l-0.298,1.242l-0.997,1.575l-1.468,1.124l-4.196,1.678l0.298-0.754l0.337-0.6
		l1.032-1.226v0.944l0.412-0.703l0.238-0.58l0.104-0.621l0.01-0.836l-0.947,0.585l-0.392,0.097l-1.091-0.682v-0.78l1.458-0.693
		l1.389-0.18l1.22,0.451l0.932,1.201l-0.094-2.381l-1.31-3.264l-0.332-2.54l-0.754-2.525l-1.746-0.416l-1.974,0.739l-1.438,0.909
		l-2.401,2.248l-5.397,6.974l-1.28,2.996l1.19-1.257l0.407-0.549l1.671,1.344l1.324,5.176l0.818,1.154l1.607,0.969l1.756,1.698
		l1.845,0.605l1.87-2.334l-0.888-0.775l-2.247-1.385l-1.027-0.426l1.374-0.77l1.409,0.416l1.28,1.241l1.002,1.698l-0.079-2.878
		l0.883-0.893l1.091,1.093l4.767,22.074l0.263,0.707l1.141,2.352l1.012,6.011l5.912,17.257l0.635,4.941l-0.585,4.305l-3.313,7.938
		l-10.128,16.392l-4.37,5.329l-0.625,2.081l-0.858,1.534l-5.803,4.08l-2.45,3.481l-1.691,4.002l-2.931,11.656l-4.692,15.838
		l-2.887,14.309l0.179,6.149l-0.506,2.995l-0.025,2.398l-2.554,6.239l-2.172,8.277l-1.339,16.129l0.233,3.017l0.863,1.733
		l-0.908,0.785l0.685,1.534l4.072,24.789l-0.01,0.004l-2.233,0.291l-6.12-0.388l-4.97,0.233l-2.236-0.744l-12-7.033l-9.165-6.714
		l-0.526-0.501l-0.356-0.563l-0.107-0.657l0.085-0.708l0.268-0.715l0.438-0.718l2.302-2.837l0.444-0.747l0.268-0.718l0.076-0.709
		l-0.454-0.576l-0.939-0.476l-2.101-0.582l-1.272-0.527l-0.954-0.579l-1.241-0.521l-2.343-0.369l-9.877-0.395l-1.852-0.159
		l-0.495-0.337l-1.276-0.223l0.68,1.453l0.132,1.249l-0.469,0.544l-1.102-0.679h-0.831l-1.105,0.628l-0.564-0.055l-0.828-0.573
		l-1.011,2.634l-1.458,0.304l-1.88-0.718l-2.309-0.43l0.63,0.673l0.661,1.255l0.375,0.557l-1.912-0.379l-2.945,0.893l-1.046-0.514
		l-0.784-0.159l-0.69-0.789l-0.495-0.896l-2.35-7.419l-0.315-0.618l-0.964-0.252l-1.647,0.214l-7.348,2.058l-1.187,0.045
		l-1.427-0.411l-0.838-0.55l-0.768-0.379l-0.655-0.168l-0.926-0.094l-0.79,0.042l-0.91,0.298l-1.285,0.851l-1.493,1.631l-1.518,0.55
		l-2.413,0.32l-16.999,0.078l-31.512,3.857l-2.233-3.375l-12.173-15.525l-0.718-1.269l-0.416-0.456l-0.51-0.143l-11.052,10.368
		l-1.105,0.447l-1.877,0.184l-8.091-0.175l-4.063,0.372l-3.096,1.838l-1.581,2.259l-0.995,2.255l-1.436,4.345l-1.512,3.164
		l-1.055,1.22l-1.19,0.915l-3.49,1.633l-3.184,0.773l-1.291-0.175l-3.758-1.585l-0.869-1.232l-1.452-0.181l-0.227-0.243
		l-0.151-1.122l-0.239-0.411l-0.422-0.291l-1.713-0.854l-0.923-0.634l-0.491-0.149l-0.406-0.007l-0.668,0.191l-0.747,0.091
		l-0.375-0.019l-0.359-0.049l-0.302-0.129l-0.277-0.181l-3.49-3.238l-0.674-0.531l-0.579-0.33l-1.641-0.66l-2.422-2.385
		l-6.208-8.398l-2.561-5.704l0.031-4.449l0.693-1.648l3.789-3.384l6.62-4.285l1.339-1.117l0.416-0.988l0.154-1.163l-0.05-0.615
		l0.057-2.268l1.282-3.891l-0.198-1.199l-0.583-1.675l-0.819-1.403l-0.983-2.126l-0.107-1.128l0.214-0.771l1.269-0.826l0.869-1.015
		l0.951-1.51l1.083-3.008l0.583-1.138l0.611-0.681l9.805-1.365l0.255-0.068l14.866-9.306l0.454-0.133l11.647,5.399l0.554-0.253
		l0.614-0.632l15.474-24.877l7.408-12.506l1.121-2.416l0.246-1.484l-1.128-4.582l0.381-5.843l2.661-14.393l0.202-3.042l-0.315-1.745
		l-10.895-0.712l-0.866-0.231l-0.627-0.406l-1.751-2.126l-2.044-1.915l-2.287-2.998l-0.35-0.91l-0.047-0.842l0.236-0.823
		l0.945-1.714l0.139-0.628l-0.12-2.748l0.17-0.8l1.364-2.355l0.217-1.226l-0.198-0.986l-0.431-0.777l-0.548-0.511l-1.811-0.992
		l-1.628-1.298l-0.198-0.299l-0.104-0.371l0.082-1.171l-0.035-1.09l0.063-0.748l0.23-1.288l0.044-0.576l-0.019-0.748l0.186-0.742
		l0.636-1.813l-0.031-0.836l-0.195-0.788l-0.255-0.527l-0.287-0.465l-0.391-0.303l-0.34-0.186l-0.894-0.215l-0.585-0.068
		l0.175-0.411l-3.162,0.003l0.724-0.97l2.684-2.552l-3.452-2.467l-0.658-1.227l1.915-0.524l0.63-0.296l0.397-0.752l0.639-4.663
		l1.083-1.97l1.666-1.576L425.088,66.446z M697.24,107.744l1.984-0.993l1.617,0.01l1.071,1.029l0.402,2.059l-0.833,3.503
		l-2.232,1.019l-6.473-0.563l-0.526-0.051h0.476l0.079,0.005l0.253-0.067l0.144-0.307l-0.05-0.497l1.959-1.101l0.799-1.413
		l0.437-1.444L697.24,107.744z"/>
	<path class="st0" d="M356.435,154.54l2.013-0.364l2.277-0.753l1.137-1.721l0.271-2.003l0.702-1.666l4.384-1.208l2.079-1.211
		l3.156-2.488l1.411-1.764l1.345-2.426l1.005-2.391l0.885-3.216l1.172-1.972l1.402-1.842l1.175-1.134l0.529-0.098l1.307,0.208
		l0.51-0.11l0.343-0.41l0.346-0.92l0.863-1.046l0.495-0.848l0.668-0.702l1.143-0.293l2.898-1.446l1.266-0.273h4.614l3.017-0.536
		l3.049-1.014l2.507-1.524l1.414-2.077l-0.123-2.868l-1.565-2.51l-2.176-1.993l-1.962-1.297l3.332-2.579l0.139-0.797l-0.284-1.922
		l0.145-0.8l2.816-3.006l0.435-0.817l0.246-6.364l0.529-3.495l0.967-1.793l2.22,0.569l1.947,2.154l2.069,1.552l2.576-1.224
		l4.34-4.37l0.729-1.711l0.585,0.068l0.894,0.215l0.34,0.186l0.391,0.303l0.287,0.465l0.255,0.527l0.195,0.788l0.031,0.836
		l-0.636,1.813l-0.186,0.742l0.019,0.748l-0.044,0.576l-0.23,1.288l-0.063,0.748l0.035,1.09l-0.082,1.171l0.104,0.371l0.198,0.299
		l1.628,1.298l1.811,0.992l0.548,0.511l0.431,0.777l0.198,0.986l-0.217,1.226l-1.364,2.355l-0.17,0.8l0.12,2.748l-0.139,0.628
		l-0.945,1.714l-0.236,0.823l0.047,0.842l0.35,0.91l2.287,2.998l2.044,1.915l1.751,2.126l0.627,0.406l0.866,0.231l10.895,0.712
		l0.315,1.745l-0.202,3.042l-2.661,14.393l-0.381,5.843l1.128,4.582l-0.246,1.484l-1.121,2.416l-7.408,12.506l-15.474,24.877
		l-0.614,0.632l-0.554,0.253l-11.647-5.399l-0.454,0.133l-14.866,9.306l-0.255,0.068l-9.805,1.365l-0.611,0.681l-0.583,1.138
		l-1.083,3.008l-0.951,1.51l-0.869,1.015l-1.269,0.826l-0.214,0.771l0.107,1.128l0.983,2.126l0.819,1.403l0.583,1.675l0.198,1.199
		l-1.282,3.891l-0.057,2.268l0.05,0.615l-0.154,1.163l-0.416,0.988l-1.339,1.117l-6.62,4.285l-3.789,3.384l-0.693,1.648
		l-0.031,4.449l-6.791,4.441l-2.372,0.919l-2.857,0.01l-2.554,1.735l-1.701,1.968l-1.789,2.887l-2.142,3.663l-8.885,10.472
		l-4.573,4.001l-1.329,0.786l-5.644,4.88l-6.917,6.554l-2.661,1.888l-1.232,0.417l-1.543,0.213l-4.422-0.181l-1.465,0.229
		l-0.611,0.31l-1.594,1.962l-4.18-3.213l-1.887-1.924l-1.764-1.047l-1.102-0.475l-1.672,0.042l-0.617-0.023l-1.909-2.334
		l-5.348-3.172l-9.191-9.208l-0.85-1.32l-0.784-1.757l1.427-2.378l0.372-2.083l-0.315-1.563l1.761-5.206l-1.115-5.372l0.041-2.671
		l0.34-2.101l0.706-1.936l1.039-1.891l4.479-4.815l1.978-1.745l1.943-0.356l1.71-0.071l1.505,0.641l1.165-1.344l4.737-3.793
		l1.165-1.419l1.175-1.441l1.364-0.544l1.288,1.61l1.191-0.557l6.372-0.547l2.104,0.146l1.357,0.79l1.03,0.943l1.134,0.619
		l1.628-0.211l0.86-0.628l2.053-2.925l2.728-2.025l2.224-1.115l1.332-1.649l-0.205-7.459l0.378-3.121l1.112-2.891l3.528-6.075
		l0.526-1.527l0.359-1.657l0.18-5.937l0.737-2.046l1.206-1.437l2.928-1.796l0.08,0.032l0.264-0.243l0.841-0.772l1.008-2.027
		l0.258-1.943l-0.693-1.457l-1.827-0.571l-0.46-1.093l0.507-2.421l1.206-3.777l0.145-2.752l0.592-0.688l1.263,0.292l2.164,0.149
		l1.553-0.734l2.476-2.152l1.039,0.312h0.753l-0.057-0.591l0.189-0.146l0.334,0.007l0.372-0.123l-0.397-1.321l4.274-1.311
		l1.187-1.23l1.153-1.75l2.671-0.886L356.435,154.54z"/>
	<path class="st0" d="M209.18,196.493l0.115-2.176l0.283-1.748l0.208-0.765l0.58-0.512l1.405-0.976l2.765-1.398l2.551-0.221
		l5.316,0.668l9.94-1.903l4.813-0.285l4.038,2.228l2.161,0.613l1.77-0.568l1.638-0.869l1.783-0.253l1.921,1.988l0.724,0.519
		l1.153,0.373l0.85,0.123l6.293-0.405l2.236-0.551l1.82-0.892l1.417-1.612l0.705-1.894l0.958-3.72l1.927-3.062l7.988-8.62
		l4.208-6.594l1.279-0.854l1.436-0.558l1.474-0.772l1.424-1.496l0.876-1.6l0.479-1.211l0.636-1.087l1.367-1.247l1.676-0.873
		l9.329-1.393l-0.031,1.393l-1.316,2.701l0.346,3.331l8.611,6.277l2.639,3.505l0.819,0.766l1.694,0.584l1.121-0.24l1.109-0.461
		l1.663-0.104l2.677,1.184l1.43,2.177l1.191,2.576l1.943,2.371l2.699,0.937l2.847-0.091l2.482,0.208l1.622,1.833l0.229,0.091
		l-2.928,1.796l-1.206,1.437l-0.737,2.046l-0.18,5.937l-0.359,1.657l-0.526,1.527l-3.528,6.075l-1.112,2.891l-0.378,3.121
		l0.205,7.459l-1.332,1.649l-2.224,1.115l-2.728,2.025l-2.053,2.925l-0.86,0.628l-1.628,0.211l-1.134-0.619l-1.03-0.943l-1.357-0.79
		l-2.104-0.146l-6.372,0.547l-1.191,0.557l-1.288-1.61l-1.364,0.544l-1.175,1.441l-3.682-4.451l-2.696-4.821l-1.187-1.477
		l-0.989-0.998l-4.214-3.454L280.769,209l-2.68,1.069l-0.346,0.564l-0.387,0.817l-0.728,3.548l-1.102,1.387l-3.717-1.656
		l-2.365-1.468l-1.893-0.561l-1.427-0.188l-5.061,0.641l-3.912,0.049l-6.803-2.2l-8.756-0.146l-1.209,0.146l-2.753,0.716
		l-1.225,1.192l-1.912,0.943l-1.521-1.332l-1.395-0.833l-2.057-0.775l-1.339-0.959l-1.077-1.18l-0.535-1.066l-2.413-3.607
		l-8.536-1.585l-2.696-0.036l-0.557,0.415l-0.378,0.405l-0.929,1.28l-1.02,0.761l-0.498-0.379l-0.479-0.648l-0.233-1.138
		L209.18,196.493z"/>
	<path class="st0" d="M213.868,251.577l0.139,0.211l2.309,0.482l0.706,0.55l0.359,1.052l0.145,0.938l-0.06,0.757l-0.189,0.673
		l-0.139,0.304l-1.102,3.562l-1.285,1.152l-0.113,0.149l-0.309,1.142l-0.4,3.904l1.405,7.438l1.187,4.242l2.576,5.971l1.654,2.699
		l1.505,3.487l1.134,15.122l-0.362,3.909l-1.515,3.527l-2.176,1.353l-0.958,0.378l-1.732,0.446l-8.787,1.153l-1.345,0.74
		l-0.872,0.856l-1.691,3.294l-2.346,2.828l-2.375,1.091l-2.986,3.248l-3.102,3.36l-2.365,2.266l-0.482,0.813l-0.936,2.462
		l-2.457,3.992l-6.321,6.588l-1.159,0.716l-2.063,1.216l-2.091,0.939l-6.006,0.664l-2.693,1.61l-0.012,0.007l-0.223-0.246
		l-1.562-1.265l-1.686-0.503l-1.042-0.813l-2.748-5.238h-0.759l1.245,4.628l-1.989-1.748l-3.184-4.039l-2.341-2.246l-1.513-0.635
		l-7.619-5.931l-1.012-1.052l-0.551-1.296l-0.66-2.171l-0.342,0.676l-0.947,1.184l-0.372,0.615l-13.412-15.572l-1.572-3.27
		l0.521,0.6l0.506,0.346l1.468,0.763v-0.778l-0.58-0.208l-1.081-0.722v-0.778l-0.312-1.266l-2.044-1.709l-2.763-1.495l-2.445-0.651
		v0.778l3.234,2.136l1.696,1.582l0.06,1.404l-1.24-0.178l-1.801-1.378l-2.708-2.635l-14.3-8.613l-2.976-2.641l-1.796-3.099
		l-0.02-3.664l2.291-4.337l3.437-3.034l3.517-2.199l2.584-2.785l0.6-4.796h0.759l-0.342,2.689l-0.417,0.733h1.369l1.652,0.219
		l1.394,0.428l0.585,0.591l0.575,0.367l3.095,2.663l0.774,0.443l2.207,2.973l0.536,0.412l1.562,0.947l0.402,0.351l0.104,0.814
		l-0.253,1.888l0.149,0.794l3.988,3.99l5.188,1.125l12.544-0.773v-0.931l-6.349,0.163l-3.184-0.351l-1.369-1.13l1.23-2l5.893-2.957
		l0.799-0.545l27.961-1.798l1.805,0.194l2.803,1.729l1.439,0.097l0.661-2.04l2.542-1.251l3.118-1.975l1.386-1.503l2.854-4.481
		l0.693-0.546l1.795-0.899l0.617-0.643l0.327-1.226l-0.479-0.453l-0.687-0.304l-0.309-0.789l1.052-6.585l-0.221-0.314l-0.92-2.012
		l-0.227-0.728l0.208-0.333l0.882-3.526l0.869-1.679l0.983-1.229l5.858-5.054l1.613-1.113l1.959-0.566l2.098,0.178l7.017,3.476
		l1.14,0.362l1.153-0.304L213.868,251.577z"/>
	<path class="st0" d="M213.868,251.577l0.882-0.605l1.669-1.55l0.945-1.647l0.265-1.926l-0.724-3.586l-0.258-0.761l-0.882-1.596
		l-0.787-0.712l-0.831-0.198l-0.724-0.382l-0.466-1.25l0.189-1.79l1.55-3.461l0.202-1.953l-3.937-15.039l-0.063-2.135l0.756-4.015
		l-0.082-2.006l-0.466-0.81l-1.064-0.81l1.02-0.761l0.929-1.28l0.378-0.405l0.557-0.415l2.696,0.036l8.536,1.585l2.413,3.607
		l0.535,1.066l1.077,1.18l1.339,0.959l2.057,0.775l1.395,0.833l1.521,1.332l1.912-0.943l1.225-1.192l2.753-0.716l1.209-0.146
		l8.756,0.146l6.803,2.2l3.912-0.049l5.061-0.641l1.427,0.188l1.893,0.561l2.365,1.468l3.717,1.656l1.102-1.387l0.728-3.548
		l0.387-0.817l0.346-0.564l2.68-1.069l2.372-0.794l4.214,3.454l0.989,0.998l1.187,1.477l2.696,4.821l3.682,4.451l-1.165,1.419
		l-4.737,3.793l-1.165,1.344l-1.505-0.641l-1.71,0.071l-1.943,0.356l-1.978,1.745l-4.479,4.815l-0.983-1.68l-1.206-2.752
		l-0.491-0.813l-2.293-0.742l-6.781,0.334l-9.354,3.024l-5.153,0.871l-5.222-2.49l-1.776-0.874l-1.279-0.405l-3.235,0.502
		l-4.869,4.216l-5.011,8.822l-1.024,2.201l-2.277,3.24l-10.236,10.344l1.102-3.562l0.139-0.304l0.189-0.673l0.06-0.757l-0.145-0.938
		l-0.359-1.052l-0.706-0.55l-2.309-0.482L213.868,251.577z"/>
	<path class="st0" d="M396.255,527.843l-4.374-1.627l-16.463-6.117l-12.337-4.594l-3.94-2.225l-3.439-3.114l-3.49-1.808
		l-4.066,1.705l-3.433,4.646l-2.227,4.87l-2.944,4.814l-0.084-0.04l-6.081-2.547l-2.366-0.369l-1.716-0.94l-0.962-2.209
		l-1.146-4.479l-2.222-3.322L311.96,495.83l-1.071-0.774l-0.575-0.268l-1.865-1.325l-0.402-0.526l-4.236-1.199l-1.89-1.781
		l-4.092-4.989l-3.249-1.69l-4.161-4.428l-5.312-3.042l-1.761-1.589l-0.476-1.007l-1.042-3.34l0.01-0.018l3.518-6.497l0.797-1.521
		l0.378-0.482l4.258-2.849l2.873,0.759l0.92-0.132l0.428-0.44l3.383-1.724l0.457-0.322l1.326-2.187l1.902-4.094l0.356-0.363
		l0.34-0.212l0.299-0.026l0.211,0.01l0.614,0.151l0.529,0.335l0.472,0.502l1.203,1.241l0.576,0.196l5.405-1.399l3.978-1.161
		l45.279,0.19l51.367,6.107l-29.189,60.227l4.965,4.554l10.924,4.048l5.958,2.53l16.385,6.07l10.427,3.541l6.927,4.027l-2.857,1.033
		l-2.803-0.314l-19.679-7.296L396.255,527.843z"/>
	<path class="st0" d="M604.323,281.101l2.669,16.242l-4.102,32.971v7.288l0.407,1.199l1.766,3.588l1.18,3.973l3.403,4.786
		l0.813,3.114l-0.312,3.814l-1.28,2.037l-2.47,0.818l-3.923,0.152l-2.986,0.614l-3.045,1.102l-2.847,0.457l-2.43-1.32l0.918-0.894
		l2.515-1.788l0.729-0.813l0.104-1.463l-0.461-1.96l-0.779-1.717l-2.673-2.398l0.213-8.17l-0.565-3.12l0.446-0.244l0.144-0.015
		l0.074-0.066l0.248-0.452h0.754l4.315,1.387l3.006-3.903l1.022-5.621l-1.607-3.802v-0.93l1.052-1.185l0.417-1.683l0.198-6.982
		l0.218-0.264l0.496-0.417l0.565-0.631l0.377-0.859l-0.407-3.352l-2.361-1.989l-3.264-0.799l-3.115,0.244l-2.52,1.475l-1.081,2.309
		l0.07,2.543l0.952,2.207l2.678,1.444l0.278,0.254l-0.015,0.422l0.208,2.12l0.179,0.875l0.521,0.854l0.565,0.356l0.466,0.488
		l0.188,1.286l-0.06,2.11l-0.268,0.864l-0.58,0.945l0.481,0.59l1.26,1.972l-3.824,2.236l-6.488,5.469l-3.913,1.672l-5.268,0.564
		l-2.217,0.732l-0.908,1.646v6.503l0.149,0.142l0.486-0.274l1.022,0.061l1.468,0.315l0.982-0.03l0.818,0.254l0.977,1.168
		l0.833,5.577l-0.486,2.666l-0.853,2.524l-0.407,2.382l0.913,2.27l2.262,1.112l3.819-0.823l0.65,1.919l-0.144,1.249l-0.625,2.442
		l-0.139,1.421l0.253,0.782l0.565-1.137l1.934-6.402l0.744-1.609l1.076-0.66l2.406,0.35l0.511,0.949l-5.694,11.473l-2.703,14.798
		l0.893,15.957l0.923,2.677l-0.833,0.507l-0.908,0.345l0.496-2.561l-0.863-2.13l-3.041-3.809l-1.28-3.16l1.037-1.339l1.776-1.222
		l0.967-2.871l-0.625-2.116l-1.602-2.435l-2.148-2.101l-2.287-1.091l-3.7,0.396l0.179,1.852l1.944,1.152l1.577-1.695h0.913
		l2.053,2.156l0.843,1.304l0.352,1.649l-0.446,2.105l-1.845,2.709l-0.203,1.999l-0.69,2.379l-2.187,0.076l-5.029-1.532l-0.655,0.416
		l1.488,0.913l2.991,1.222l0.719,0.974l0.496,1.334l0.278,1.542l0.089,1.643l-0.248,1.126l-1.091,2.297l-0.243,0.913l0.203,0.684
		l0.417,0.715l0.278,0.776l-0.149,0.837l-0.635,0.766l-0.685,0.365l-0.635,0.223l-0.461,0.35l-2.257,2.935l-0.694,0.471
		l-1.051,0.365l-1.19,0.897l-1.022,1.135l-0.516,1.074l1.597,1.085l1.954,1.784l1.657,1.926l1.047,2.392l0.888,0.654l1.19,0.431
		l1.23,0.152l1.795-0.203l0.134-0.562l-0.506-0.816l-0.174-0.963l0.828-2.417l0.67-1.272l1.081-0.487l2.034-0.071l1.171,1.024
		l5.645,22.718l0.298,4.381l-0.065,1.605l-0.154,0.977l-0.466,0.759l-0.972,0.911l-0.238-0.359l-1.726,0.354l-1.686,0.557
		l-0.139,0.299l-0.962,0.41l-1.215,1.802l-1.106,0.405l-1.478,0.03l-1.19,0.182l-1.017,0.486l-0.977,0.932l-1.24,3.858l-1.18,5.821
		l-1.647,4.393l-2.589-0.405h-0.759l-3.869,4.954l-1.116,1.913l-0.64,2.13l0.015,12.586l3.735,16.297l2.634,6.475l3.66,5.66
		l1.181,3.103l2.911,4.669l1.027,0.985l2.217,1.379l0.878,2.385l-2.106-1.635l-3.156-3.42l-1.767-2.929l-2.221-2.907l-0.422-0.408
		l-0.277-0.193l-0.907-0.298l-4.8-0.943l-1.38-0.106l-0.866,0.029l-0.293,0.144l-0.252,0.164l-0.293,0.125l-0.353-0.01l-0.422-0.231
		l-0.526-0.645l-0.192-0.481L561,527.166l-0.019-0.822l-0.057-0.366l-0.126-0.308l-0.186-0.241l-0.413-0.433l-0.353-0.501
		l-0.139-0.299l-0.154-0.674l-0.019-0.395l0.192-2.305l-0.025-0.385l-0.205-0.231l-0.359-0.067l-1.698,0.809l-0.595,0.154
		l-1.168,0.154l-0.961,0.385l-0.261,0.173l-0.283,0.135l-0.312,0.116l-0.277,0.144l-0.457,0.019l-0.561-0.077l-1.169-0.443
		l-0.746-0.125l-0.901,0.154l-0.447,0.173l-0.614,0.356l-0.243,0.183l-0.542,0.289l-0.277,0.096l-0.765,0.173l-1.049,0.562
		l-0.491-0.067l-0.649-0.318l-1.197-0.995l-1.332-1.396l-0.167-0.26l-0.057-0.327l0.016-0.359l0.098-0.693l-0.391-0.222
		l-0.787-0.077l-3.868,0.501l-1.521-0.51l-1.997-0.809l-0.778-0.183l-0.334-0.029l-0.778,0.01l-1.25,0.164l-0.277-0.019l-0.35-0.058
		l-0.917-0.347l-0.683-0.183l-0.356-0.125l-0.775-0.462l-0.463-0.221l-0.425-0.099l-0.365,0.022l-0.504-0.331l-0.614-0.722
		l-2.488-4.116l-1.058-1.377l-3.461-3.481l-4.81-3.481l-5.732-2.961l-1.131-0.819l-1.096-1.15l-0.917-1.889l-0.249-1.593
		l-0.088-1.542l-0.715-1.699l-1.887-1.889l-9.72-6.079l-3.528-2.159l-8.098-3.001l-0.453-4.808l-0.898-4.805l0.041-1.617l0.34-2.408
		l1.723-5.987l1.203-2.842l0.211-1.386l0.06-1l-1.216-3.908l-1.317-3.149l-0.158-3.246l0.139-1.496l-0.29-0.791l-0.772-0.811
		l-1.008-0.846l-1.824-3.369l-2.469-8.579l-0.63-2.079l-0.869-1.648l-0.123-0.361l-0.104-0.538l0.97-0.856l4.753-1.996
		l-15.578-7.501l-0.841-1.272l-7.726-19.583l-1.619-7.44l-0.173-4.115l0.768-2.804l-0.381-1.886l-4.318-7.695l-0.718-0.783
		l-0.882-0.742l-0.832-0.913l-0.895-1.506l-0.636-2.035l-0.51-4.028l0.145-2.125l0.34-1.535l0.696-1.687l0.161-0.729l-0.246-0.845
		l-0.772-1.31l-1.625-1.591l-2.542-3.868l-2.665-5.957l-0.718-1.21l-3.521-3.256l-2.929-4.28l-0.639-0.642l-1.405-0.72l-0.132-0.416
		l-0.057-0.555l0.356-1.94l-0.157-2.302l-0.536-1.579l-1.049-1.989l-0.74-0.878l-0.721-0.649l-1.093-0.597l-0.964-1.544
		l-0.598-0.249l-3.584-2.726l-2.258-1.227l-2.274,0.055l-2.334,2.122l-0.63,1.489l-0.435,3.5l-0.526,1.837l-0.356-0.042l-1.014,0.62
		l-0.882,0.762l0.057,0.368l-0.41,0.232l-1.632,1.55l1.241,2.018l0.129,1.856l-0.98,0.965l-2.057-0.649l-3.153-6.793l-0.945-4.233
		l-0.526-1.398l-1.181-2.383l-0.132-1.176l0.208-1.227l0.473-0.985l0.822-0.82l1.068-0.552l1.789-0.142l1.351,0.191l1.458,0.039
		l1.181-0.397l1.386-1.247l0.419-1.202l-0.025-1.974l0.422-0.604l1.228-0.178l1.039,0.207l2.161,0.656l1.339,0.155l1.471-0.052
		l1.707-0.323l3.329-0.998l1.225-0.145l7.228,1.263l1.591,0.504l0.472-0.569l1.502-0.989l0.753-0.695l1.244-1.893l0.872-2.065
		l2.457,0.472l2.765-1.903l2.554-2.466l1.795-1.225l1.443-0.158l2.29-0.63l1.679-0.068l1.565,0.398l0.728,0.536l0.643,0.071
		l1.301-1.005l0.671-0.271l0.526,0.116l0.346-0.116l0.239-1.871l0.52-1.244l0.12-0.417l0.142-1.804l0.765-4.176l0.517-1.051
		l2.567-2.852l0.076-0.068l0.822-0.65l0.457-0.301l0.082-0.084l-0.331-0.045l-0.321,0.026l-0.343,0.074l-0.299,0.126l-1.361,0.815
		l-0.337,0.087l-0.368,0.058l-0.403-0.003l-0.378-0.065l-0.324-0.107l-0.28-0.158l-0.249-0.191l-0.403-0.459l-0.34-0.491l-1.77-3.67
		l-0.765-2.432l-0.142-0.288l-0.945-1.223l-0.485-0.398l-0.265-0.162l-0.302-0.129l-0.34-0.094l-0.293-0.126l-0.284-0.155
		l-0.888-0.841l-0.255-0.149l-0.255-0.113l0.381-0.851l0.394-0.65l5.25-7.081l31.512-3.857l16.999-0.078l2.413-0.32l1.518-0.55
		l1.493-1.631l1.285-0.851l0.91-0.298l0.79-0.042l0.926,0.094l0.655,0.168l0.768,0.379l0.838,0.55l1.427,0.411l1.187-0.045
		l7.348-2.058l1.647-0.214l0.964,0.252l0.315,0.618l2.35,7.419l0.495,0.896l0.69,0.789l0.784,0.159l1.046,0.514l2.945-0.893
		l1.912,0.379l-0.375-0.557l-0.661-1.255l-0.63-0.673l2.309,0.43l1.88,0.718l1.458-0.304l1.011-2.634l0.828,0.573l0.564,0.055
		l1.105-0.628h0.831l1.102,0.679l0.469-0.544l-0.132-1.249l-0.68-1.453l1.276,0.223l0.495,0.337l1.852,0.159l9.877,0.395
		l2.343,0.369l1.241,0.521l0.954,0.579l1.272,0.527l2.101,0.582l0.939,0.476l0.454,0.576l-0.076,0.709l-0.268,0.718l-0.444,0.747
		l-2.302,2.837l-0.438,0.718l-0.268,0.715l-0.085,0.708l0.107,0.657l0.356,0.563l0.526,0.501l9.165,6.714l12,7.033l2.236,0.744
		l4.97-0.233l6.12,0.388l2.233-0.291L604.323,281.101z M580.352,425.16l-0.923-3.386l-0.278-4.481l0.863-3.929l2.51-1.739
		l0.188,0.03l0.144,0.101l0.045,0.238l-0.06,0.401l-0.804,1.278l-0.843,2.033l-0.635,2.266l-0.208,2.008l0.714,4.552l0.064,1.668
		L580.352,425.16z M662.301,392.107l-0.248-2.785l1.161-2.187l1.696-0.883l1.389,1.126l-0.476,0.822L662.301,392.107z"/>
	<path class="st0" d="M221.425,409.976l-2.327-2.935l-4.603-8.004l-4.281-11.719l-1.205-1.888l-3.04-2.634l-24.954-15.325
		l-1.562-1.929l-6.87-3.976l-3.725-4.027l-8.417-3.804l-0.312-2.88l1.399,1.859l2.391,1.595l2.788,1.143l2.659,0.518l-2.808-3.101
		l0.012-0.007l2.693-1.61l6.006-0.664l2.091-0.939l2.063-1.216l1.159-0.716l6.321-6.588l2.457-3.992l0.936-2.462l0.482-0.813
		l2.365-2.266l3.102-3.36l2.986-3.248l2.375-1.091l2.346-2.828l1.691-3.294l0.872-0.856l1.345-0.74l8.787-1.153l1.732-0.446
		l0.958-0.378l2.176-1.353l1.515-3.527l0.362-3.909l-1.134-15.122l-1.505-3.487l-1.654-2.699l-2.576-5.971l-1.187-4.242l2.113-0.85
		l1.168-0.1l1.613,0.032l1.937,0.656l2.365,1.164l1.443-0.107l2.482-0.553l8.041-2.71l6.816-1.449l1.477,0.411l0.923,0.466
		l2.208,2.235l3.206,5.345l1.238,1.694l0.633,1.077l0.854,3.116l-0.258,3.927l-2.683,4.78l-0.167,1.445l0.035,1.057l1.216,2.194
		l4.098,2.058l14.926,4.349l-0.359,3.101l-1.443,12.389l-1.235,11.012l-4.819,2.979l-1.732,1.669l-1.027,1.391l-0.334,0.72
		l-0.142,0.626l0.032,0.442l-0.208,1.284v0.455l0.063,0.358l-0.035,0.574l-0.161,0.787l-0.737,2.197l-0.117,0.587l0.06,0.348
		l0.217,0.639l0.132,0.297l1.168,1.674l0.035,0.039l0.718,0.639l0.151,0.232l0.095,0.316l0.019,0.794l0.066,0.403l0.142,0.474
		l-0.17,0.384l-0.491,0.59l-11.861,11.762l-8.139,8.238l-1.698,2.385l-0.192,1.94l-0.016,8.847l0.161,0.841l0.331,0.735l0.507,0.425
		l0.611,0.361l0.784,0.928l0.17,2.239l-1.553,3.467l-2.372,2.758l-4.602,3.521l-0.687,0.345l-0.359,0.013l-1.726-0.367l-1.739-0.657
		l-0.221-0.035l-0.315-0.013l-0.34,0.039l-0.331,0.087l-1.827,0.657l-0.86,0.184l-0.444,0.209l-0.331,0.216l-0.176,0.251
		l-0.117,0.306l-0.016,0.357l0.054,0.358l0.192,0.676l0.844,1.723l0.58,0.696l0.148,0.267l0.117,0.444l-0.009,0.293l-0.06,0.328
		l-0.526,0.931l-0.432,0.496l-3.017,2.186L221.425,409.976z"/>
	<path class="st0" d="M241.95,439.093l-1.618-2.034l-3.264-7.378l-1.319-1.12l-1.225-0.659l-3.214-3.264l-1.9-2.722l-2.073-3.914
		l-0.397-1.856l-0.595-1.734l-1.404-1.445l-3.001-2.343l-0.515-0.65l0.015-0.011l3.017-2.186l0.432-0.496l0.526-0.931l0.06-0.328
		l0.009-0.293l-0.117-0.444l-0.148-0.267l-0.58-0.696l-0.844-1.723l-0.192-0.676l-0.054-0.358l0.016-0.357l0.117-0.306l0.176-0.251
		l0.331-0.216l0.444-0.209l0.86-0.184l1.827-0.657l0.331-0.087l0.34-0.039l0.315,0.013l0.221,0.035l1.739,0.657l1.726,0.367
		l0.359-0.013l0.687-0.345l4.602-3.521l2.372-2.758l1.553-3.467l-0.17-2.239l-0.784-0.928l-0.611-0.361l-0.507-0.425l-0.331-0.735
		l-0.161-0.841l0.016-8.847l0.192-1.94l1.698-2.385l8.139-8.238l11.861-11.762l0.491-0.59l0.17-0.384l-0.142-0.474l-0.066-0.403
		l-0.019-0.794l-0.095-0.316l-0.151-0.232l-0.718-0.639l-0.035-0.039l-1.168-1.674l-0.132-0.297l-0.217-0.639l-0.06-0.348
		l0.117-0.587l0.737-2.197l0.161-0.787l0.035-0.574l-0.063-0.358v-0.455l0.208-1.284l-0.032-0.442l0.142-0.626l0.334-0.72
		l1.027-1.391l1.732-1.669l4.819-2.979l20.712,4.603l2.164,0.687l1.82,1.681l1.861,2.107l1.332,1.091l1.181,0.807l7.534,2.914
		l1.981,0.397l-0.743,2.187l0.488,4.207l0.576,1.774l0.831,1.422l1.543,2.084l3.071,3.36l0.428,0.69l0.145,0.771l-0.249,2.451
		l-0.025,2.083l0.205,0.9l0.391,0.658l10.655,10.106l0.261,0.416l-0.214,0.725l-2.009,3.078l-0.633,3.435l-2.17-0.909l-0.913-0.016
		l-1.008,0.377l-3.83,2.784l-10.243,4.617l-2.176-0.564l-0.661-0.364l-0.217-0.081l-0.384-0.048l-2.076,0.29l-4.18,1.701
		l-3.534,0.628l-2.205,1.659l-7.411,7.344l0.397,1.588l1.767,1.819l0.658,0.934l0.331,0.738l-0.161,2.776l-1.357,2.218l-0.69,0.818
		l-0.756,0.705l-0.97,0.531l-1.14,0.316l-0.961,0.09l-1.449-0.389l-0.847-0.393l-3.336-2.585l-2.885,3.554l-1.446,2.212
		l-7.628,6.229l-2.359,3.872l-0.888,0.869l-3.298,2.465l-1.266,1.87l-1.521,1.464l-0.476,0.238l-0.665,0.254l-1.392,0.344
		l-0.743,0.1l-0.964,0.039l-1.216,0.746l-3.058,2.983L241.95,439.093z"/>
	<path class="st0" d="M281.827,469.873l-0.114-0.366l-3.78-1.696l-4.538-4.425l-11.225-4.947l-1.905-1.403l-1.622-1.909l-1.369-3.92
		l-14.597-11.2l-0.728-0.915l0.01-0.01l3.058-2.983l1.216-0.746l0.964-0.039l0.743-0.1l1.392-0.344l0.665-0.254l0.476-0.238
		l1.521-1.464l1.266-1.87l3.298-2.465l0.888-0.869l2.359-3.872l7.628-6.229l1.446-2.212l1.329,1.59l11.147,4.516l3.575,1.696
		l1.603,2.227l0.28,0.306l6.482,1.934l1.055,0.29l-0.595,1.326l-2.495,4.547l-0.69,3.128l0.425,3.063l0.526,2.104l0.019,1.46
		l-0.287,1.1l-1.458,2.023l-1.131,2.29l-0.501,3.846l0.148,1.798l0.312,1.125l2.164,2.736l-4.258,2.849l-0.378,0.482l-0.797,1.521
		l-3.518,6.497L281.827,469.873z"/>
	<path class="st0" d="M306.565,344.915l-1.981-0.397l-7.534-2.914l-1.181-0.807l-1.332-1.091l-1.861-2.107l-1.82-1.681l-2.164-0.687
		l-20.712-4.603l1.235-11.012l1.443-12.389l0.359-3.101l0.68-4.497l1.937-4.045l0.431-0.517l0.942-0.911l2.709-1.545l1.433-0.504
		l3.121-0.685l1.547-0.543l1.014-0.717l0.542-0.669l0.296-0.682l0.79-3.219l4.595-6.291l0.617,0.023l1.672-0.042l1.102,0.475
		l1.764,1.047l1.887,1.924l4.18,3.213l1.594-1.962l0.611-0.31l1.465-0.229l4.422,0.181l1.543-0.213l1.232-0.417l2.661-1.888
		l6.917-6.554l5.644-4.88l1.329-0.786l4.573-4.001l8.885-10.472l2.142-3.663l1.789-2.887l1.701-1.968l2.554-1.735l2.857-0.01
		l2.372-0.919l6.791-4.441l2.561,5.704l6.208,8.398l2.422,2.385l1.641,0.66l0.579,0.33l0.674,0.531l3.49,3.238l0.277,0.181
		l0.302,0.129l0.359,0.049l0.375,0.019l0.747-0.091l0.668-0.191l0.406,0.007l0.491,0.149l0.923,0.634l1.713,0.854l0.422,0.291
		l0.239,0.411l0.151,1.122l0.227,0.243l1.452,0.181l0.869,1.232l3.758,1.585l1.291,0.175l3.184-0.773l3.49-1.633l1.19-0.915
		l1.055-1.22l1.512-3.164l1.436-4.345l0.995-2.255l1.581-2.259l3.096-1.838l4.063-0.372l8.091,0.175l1.877-0.184l1.105-0.447
		l11.052-10.368l0.51,0.143l0.416,0.456l0.718,1.269l12.173,15.525l2.233,3.375l-5.25,7.081l-0.394,0.65l-0.381,0.851l0.255,0.113
		l0.255,0.149l0.888,0.841l0.284,0.155l0.293,0.126l0.34,0.094l0.302,0.129l0.265,0.162l0.485,0.398l0.945,1.223l0.142,0.288
		l0.765,2.432l1.77,3.67l0.34,0.491l0.403,0.459l0.249,0.191l0.28,0.158l0.324,0.107l0.378,0.065l0.403,0.003l0.368-0.058
		l0.337-0.087l1.361-0.815l0.299-0.126l0.343-0.074l0.321-0.026l0.331,0.045l-0.082,0.084l-0.457,0.301l-0.822,0.65l-0.076,0.068
		l-2.567,2.852l-0.517,1.051l-0.765,4.176l-0.142,1.804l-0.12,0.417l-0.52,1.244l-0.239,1.871l-0.346,0.116l-0.526-0.116
		l-0.671,0.271l-1.301,1.005l-0.643-0.071l-0.728-0.536l-1.565-0.398l-1.679,0.068l-2.29,0.63l-1.443,0.158l-1.795,1.225
		l-2.554,2.466l-2.765,1.903l-2.457-0.472l-0.872,2.065l-1.244,1.893l-0.753,0.695l-1.502,0.989l-0.472,0.569l-1.591-0.504
		l-7.228-1.263l-1.225,0.145l-3.329,0.998l-1.707,0.323l-1.471,0.052l-1.339-0.155l-2.161-0.656l-1.039-0.207l-1.228,0.178
		l-0.422,0.604l0.025,1.974l-0.419,1.202l-1.386,1.247l-1.181,0.397l-1.458-0.039l-1.351-0.191l-1.789,0.142l-1.068,0.552
		l-0.822,0.82l-0.473,0.985l-0.208,1.227l0.132,1.176l1.181,2.383l0.526,1.398l0.945,4.233l3.153,6.793l0.094,1.349l-0.132,1.194
		l-0.321,1.007l-0.472,0.791h-0.832l-0.595-0.539l-1.137-0.771l-1.102-0.429l-0.495,0.458l-0.35,1.227l-0.79-0.213l-3.811-4.28
		l-1.376-0.213l-2.072,1.349h-0.832l0.661-3.147l0.17-0.342l-0.879-0.678l-1.943-0.12l-2.302-1.249l-4.025-1.392l-0.838-0.439
		l-0.425-1.208l-1.021-1.237l-1.232-0.969l-1.068-0.387l-0.721-0.145l-0.929,0.691l-0.183,0.249l-0.195,0.504l-0.274,0.562
		l-0.387,0.494l-0.23,0.213l-0.532,0.339l-0.557,0.262l-0.954,0.294l-0.309,0.158l-0.211,0.22l-0.129,0.294l-0.683,0.229
		l-1.241,0.129l-7.802-0.416l-0.394,0.074l-0.321,0.136l-0.233,0.207l-0.192,0.239l-1.584,3.18l-0.365,0.526l-0.476,0.187
		l-0.721,0.1l-2.353,0.016l-0.567,0.097l-1.099,0.584l-2.482,0.474l-1.446,0.271l-1.49,1.246l-0.488,0.232l-0.35-0.013l-0.715-0.387
		l-1.934-0.365l-1.603-0.439l-21.194,4.438l-1.975,1.007l-2.145,4.515l-5.83,3.266l-0.652,0.507L306.565,344.915z"/>
	<path class="st0" d="M306.565,344.915l3.603-3.31l0.652-0.507l5.83-3.266l2.145-4.515l1.975-1.007l21.194-4.438l1.603,0.439
		l1.934,0.365l0.715,0.387l0.35,0.013l0.488-0.232l1.49-1.246l1.446-0.271l2.482-0.474l1.099-0.584l0.567-0.097l2.353-0.016
		l0.721-0.1l0.476-0.187l0.365-0.526l1.584-3.18l0.192-0.239l0.233-0.207l0.321-0.136l0.394-0.074l7.802,0.416l1.241-0.129
		l0.683-0.229l0.129-0.294l0.211-0.22l0.309-0.158l0.954-0.294l0.557-0.262l0.532-0.339l0.23-0.213l0.387-0.494l0.274-0.562
		l0.195-0.504l0.183-0.249l0.929-0.691l0.721,0.145l1.068,0.387l1.232,0.969l1.021,1.237l0.425,1.208l0.838,0.439l4.025,1.392
		l2.302,1.249l1.943,0.12l0.879,0.678l-0.17,0.342l-0.661,3.147h0.832l2.072-1.349l1.376,0.213l3.811,4.28l0.79,0.213l0.35-1.227
		l0.495-0.458l1.102,0.429l1.137,0.771l0.595,0.539h0.832l0.472-0.791l0.321-1.007l0.132-1.194l-0.094-1.349l2.057,0.649l0.98-0.965
		l-0.129-1.856l-1.241-2.018l1.632-1.55l0.41-0.232l-0.057-0.368l0.882-0.762l1.014-0.62l0.356,0.042l0.526-1.837l0.435-3.5
		l0.63-1.489l2.334-2.122l2.274-0.055l2.258,1.227l3.584,2.726l0.598,0.249l0.964,1.544l1.093,0.597l0.721,0.649l0.74,0.878
		l1.049,1.989l0.536,1.579l0.157,2.302l-0.356,1.94l0.057,0.555l0.132,0.416l1.405,0.72l0.639,0.642l-1.546,3.131l-4.639,6.842
		l-0.482,0.994l-0.302,1.007l-0.173,1.397l-0.06,4.598l-0.343,1.384l-0.636,1.419l-2.028,2.577l-1.342,1.335l-1.792,1.371
		l-3.581,1.777l-1.748,0.281l-0.734,0.032l-1.244-0.155l-1.301,0.3l-1.839,0.739l-7.134,4.937l-1.452,0.803l-4.986,1.699
		l-6.583,0.748l-8.753,1.567l-5.225-0.229l-3.55-0.061l-3.017-0.493l-1.335-0.045l-1.739,0.522l-4.602,2.273l-3.143,2.302
		l-0.576,0.571l-0.98,1.338l-0.243,0.609l-0.142,0.799l0.019,3.033l0.293,2.269l-0.028,0.828l-0.261,0.87L349.245,388l-0.142,0.203
		l-0.142,0.242l-0.173,0.232l-1.143,1.846l-0.583,1.195l-2.025,12.53l-9.121,0.641l-6.535-9.18l-3.316-2.886l-1.956-0.77
		l-1.03-0.751l-0.649-0.799l-0.198-0.951l-0.186-1.888l-0.759-2.404l0.633-3.435l2.009-3.078l0.214-0.725l-0.261-0.416
		l-10.655-10.106l-0.391-0.658l-0.205-0.9l0.025-2.083l0.249-2.451l-0.145-0.771l-0.428-0.69l-3.071-3.36l-1.543-2.084l-0.831-1.422
		l-0.576-1.774l-0.488-4.207L306.565,344.915z"/>
	<path class="st0" d="M345.037,404.249l2.025-12.53l0.583-1.195l1.143-1.846l0.173-0.232l0.142-0.242l0.142-0.203l2.444-5.633
		l0.261-0.87l0.028-0.828l-0.293-2.269l-0.019-3.033l0.142-0.799l0.243-0.609l0.98-1.338l0.576-0.571l3.143-2.302l4.602-2.273
		l1.739-0.522l1.335,0.045l3.017,0.493l3.55,0.061l5.225,0.229l8.753-1.567l6.583-0.748l4.986-1.699l1.452-0.803l7.134-4.937
		l1.839-0.739l1.301-0.3l1.244,0.155l0.734-0.032l1.748-0.281l3.581-1.777l1.792-1.371l1.342-1.335l2.028-2.577l0.636-1.419
		l0.343-1.384l0.06-4.598l0.173-1.397l0.302-1.007l0.482-0.994l4.639-6.842l1.546-3.131l2.929,4.28l3.521,3.256l0.718,1.21
		l2.665,5.957l2.542,3.868l1.625,1.591l0.772,1.31l0.246,0.845l-0.161,0.729l-0.696,1.687l-0.34,1.535l-0.145,2.125l0.51,4.028
		l0.636,2.035l0.895,1.506l0.832,0.913l0.882,0.742l0.718,0.783l4.318,7.695l0.381,1.886l-0.768,2.804l0.173,4.115l1.619,7.44
		l7.726,19.583l0.841,1.272l15.578,7.501l-4.753,1.996l-0.97,0.856l0.104,0.538l0.123,0.361l0.869,1.648l0.63,2.079l-4.668-0.155
		l-1.37-0.29l-0.586-0.241l-0.46-0.106l-0.413-0.058l-1.839,0.184l-0.491-0.039l-1.033-0.296l-0.532,0.006l-2.491,0.444l-8.98-0.113
		l-0.633,0.097l-0.586,0.18l-0.397,0.599l-8.05,7.44l-3.058,2.024l-5.213,1.145l-1.811,2.812l-0.34,0.811l-0.003,0.145l-0.12,0.502
		l-0.239,0.363l-0.507,0.569l-0.189,0.289l-0.12,0.277l-0.17,0.225l-0.85,0.914l-0.557,0.74l-0.403,0.692l-0.403,0.293l-0.737,0.431
		l-2.274,0.859l-0.592,0.067l-0.306-0.077l-0.567-0.219l-0.765,0.306l-1.118,0.617l-2.441,1.721l-1.89,0.946l-0.51,0.473
		l-0.296,0.363l-2.22,3.827l-51.367-6.107L345.037,404.249z"/>
	<path class="st0" d="M291.053,279.3l-4.595,6.291l-0.79,3.219l-0.296,0.682l-0.542,0.669l-1.014,0.717l-1.547,0.543l-3.121,0.685
		l-1.433,0.504l-2.709,1.545l-0.942,0.911l-0.431,0.517l-1.937,4.045l-0.68,4.497l-14.926-4.349l-4.098-2.058l-1.216-2.194
		l-0.035-1.057l0.167-1.445l2.683-4.78l0.258-3.927l-0.854-3.116l-0.633-1.077l-1.238-1.694l-3.206-5.345l-2.208-2.235l-0.923-0.466
		l-1.477-0.411l-6.816,1.449l-8.041,2.71l-2.482,0.553l-1.443,0.107l-2.365-1.164l-1.937-0.656l-1.613-0.032l-1.168,0.1l-2.113,0.85
		l-1.405-7.438l0.4-3.904l0.309-1.142l0.113-0.149l1.285-1.152l10.236-10.344l2.277-3.24l1.024-2.201l5.011-8.822l4.869-4.216
		l3.235-0.502l1.279,0.405l1.776,0.874l5.222,2.49l5.153-0.871l9.354-3.024l6.781-0.334l2.293,0.742l0.491,0.813l1.206,2.752
		l0.983,1.68l-1.039,1.891l-0.706,1.936l-0.34,2.101l-0.041,2.671l1.115,5.372l-1.761,5.206l0.315,1.563l-0.372,2.083l-1.427,2.378
		l0.784,1.757l0.85,1.32l9.191,9.208l5.348,3.172L291.053,279.3z"/>
	<path class="st0" d="M321.286,385.261l0.759,2.404l0.186,1.888l0.198,0.951l0.649,0.799l1.03,0.751l1.956,0.77l3.316,2.886
		l6.535,9.18l9.121-0.641l16.302,45.582l-45.279-0.19l-3.978,1.161l-5.405,1.399l-0.576-0.196l-1.203-1.241l-0.472-0.502
		l-0.529-0.335l-0.614-0.151l-0.211-0.01l-0.299,0.026l-0.34,0.212l-0.356,0.363l-1.902,4.094l-1.326,2.187l-0.457,0.322
		l-3.383,1.724l-0.428,0.44l-0.92,0.132l-2.873-0.759l-2.164-2.736l-0.312-1.125l-0.148-1.798l0.501-3.846l1.131-2.29l1.458-2.023
		l0.287-1.1l-0.019-1.46l-0.526-2.104l-0.425-3.063l0.69-3.128l2.495-4.547l0.595-1.326l2.331-5.175l1.159-2.575l0.425-0.934
		l4.375-9.746l4.926-10.879l-0.397-1.91l-4.047-4.626l10.243-4.617l3.83-2.784l1.008-0.377l0.913,0.016L321.286,385.261z"/>
	<path class="st0" d="M303.122,392.115l4.047,4.626l0.397,1.91l-4.926,10.879l-4.375,9.746l-0.425,0.934l-1.159,2.575l-2.331,5.175
		l-1.055-0.29l-6.482-1.934l-0.28-0.306l-1.603-2.227l-3.575-1.696l-11.147-4.516l-1.329-1.59l2.885-3.554l3.336,2.585l0.847,0.393
		l1.449,0.389l0.961-0.09l1.14-0.316l0.97-0.531l0.756-0.705l0.69-0.818l1.357-2.218l0.161-2.776l-0.331-0.738l-0.658-0.934
		l-1.767-1.819l-0.397-1.588l7.411-7.344l2.205-1.659l3.534-0.628l4.18-1.701l2.076-0.29l0.384,0.048l0.217,0.081l0.661,0.364
		L303.122,392.115z"/>
</g>
<g id="Copyright">
	<text transform="matrix(1 0 0 1 681.6426 577.5916)" class="st1 st2">© Vemaps.com</text>
</g>
</svg>
