<?xml version="1.0" encoding="utf-8"?>
<!-- Generator: Adobe Illustrator 23.0.1, SVG Export Plug-In . SVG Version: 6.00 Build 0)  -->
<svg version="1.1" xmlns="http://www.w3.org/2000/svg" xmlns:xlink="http://www.w3.org/1999/xlink" x="0px" y="0px"
	 viewBox="0 0 800 600" style="enable-background:new 0 0 800 600;" xml:space="preserve">
<style type="text/css">
	.st0{fill:#808080;stroke:#FFFFFF;stroke-width:0.5;stroke-linecap:round;stroke-linejoin:round;}
	.st1{font-family:'Roboto-Regular';}
	.st2{font-size:14px;}
</style>
<g id="Paraguay">
	<path class="st0" d="M167.867,233.304l-0.439-0.059l-1.165-0.447l-4.162-2.887l-1.008-1.02l-0.416-0.973l-0.514-0.447l-2.394-0.753
		l-0.755-0.34l-1.445-1.905l-1.017-0.859l-1.408-0.36l-0.675-0.08l-0.807-0.24l-0.724-0.413l-0.441-0.586l0.111-0.533l0.394-0.566
		l0.234-0.673l-0.367-0.865h0.407l-0.311-0.499l-0.416-0.419l-0.511-0.293l-0.595-0.113l1.362-3.215l1.676-6.093l1.584-5.731
		l2.6-8.722l2.172-7.274l2.779-9.297l2.04-6.798l2.175-7.454l2.092-7.144l1.938-6.623l1.919-6.566l0.228-4.192l0-0.033l-0.114-9.295
		l-0.074-6.13l-0.068-5.606l-0.068-5.794l0.505-1.698l2.172-3.316l1.301-1.891l1.247-1.812l2.665-3.866l2.668-3.871l2.665-3.863
		l2.665-3.868l0.992-1.517l0.989-1.516l0.992-1.509l0.995-1.516l0.767-1.64l0.396-0.837l0.79,0.699l5.532,3.54l111.35,33.057
		l4.13,1.768l1.568,1.199l-1.216,4.965l0.011,0.277l0.079,0.382l0.226,0.376l1.237,1.631l0.704,1.272l0.333,0.841l0.373,1.497
		l0.032,0.594l-0.023,0.524l-0.222,1.682l0.042,0.521l0.162,0.475l1.223,2.174l3.203,4.465l0.336,0.594l0.57,1.373l2.453,16.414
		l0.015,0.609l-0.043,0.549l-0.092,0.437l-0.102,0.331l-0.145,0.275l-0.191,0.218l-0.317,0.271l-6.023,3.663l-0.907,0.722
		l-0.872,0.953l-0.36,0.573l-0.263,0.639l-5.373,24.1l-0.84,2.556l-0.131,0.833v0.618l0.964,5.916l0.062,1.961l0.166,0.658
		l0.536,0.216l5.515-0.146l3.284-0.515l21.533,0.834l1.721,0.555l2.938,1.795l2.1,6.373l0.171,0.875l-0.202,0.373l-0.895,0.795
		l-3.705,2.293l-1.422,0.679l-0.322,0.03l-0.391-0.12l-0.49-0.293l-0.462-0.34l-0.558-0.539l-0.464-0.336l-0.621-0.316l-0.807,0.196
		l-0.844,0.31l-6.126,3.709l-0.795,0.766l-0.501,0.709l-0.319,0.719l-0.117,0.366l-0.092,0.663l0.017,0.483l0.131,0.513l0.78,1.536
		l0.086,0.41l-0.068,0.49l-0.431,0.846l-0.653,0.4l-0.901,0.197l-3.428,0.013l-0.972,0.157l-0.876,0.453l-0.37,0.537l-0.109,0.73
		l0.365,2.991l0.009,0.27l-0.12,0.984l-0.367,0.817l-11.535,17.234l-0.564,1.273l-0.206,1.05v1.658l-0.139,0.856l-0.558,2.05
		l-0.114,0.739l0.223,3.269l-0.14,2.958l0.431,3.073l-0.126,1.075l-0.314,1.333l-1.627,4.422l0.019,0.422l0.126,0.456l0.491,1.163
		l0.176,0.721l-0.193,1.103l-0.652,1.888l-2.691,5.488l-0.742,2.329l-0.552,2.545l-0.55,5.783l-0.032,0.04l-0.465,0.319
		l-5.937,3.202l-1.411,0.551l-2.084,0.407l-19.307,1.082l-0.812,0.165l-0.81,0.343l-1.864,1.025l-2.127,0.915l-4.289,0.699
		l-0.818,0.269l-0.995,0.515l-0.531,0.555l-0.337,0.575l-0.411,2.311l-0.23,0.747l-0.781,1.38l-0.177,0.414l-0.046,0.438
		l0.291,8.358l0,0.011l-1.734,0.043l-1.238-0.148l-1.713-1.038l-2.003-1.657l-2.189-1.084l-2.275,0.667l-1.879-1.212l-0.564-0.572
		l-0.86-1.438l-0.359-0.377l-0.108-0.875l-0.712-1.346l-0.967-1.238l-1.568-0.902l-1.021-1.709l-0.549-0.599l0.542-1.07l0.21-1.48
		l-0.216-1.318l-0.738-0.572l-1.029-0.356l-0.892-0.807l-0.796-0.894l-0.741-0.612l-0.447-0.061l-1.189,0.087l-0.4-0.027
		l-0.547-0.383l-1.154-1.183l-0.538-0.249l-1.232-0.37l-0.616-0.887l-0.359-1.028l-0.476-0.826l-3.865-1.733l-1.376-0.067
		l-0.824-0.235l-0.599-0.423l-0.702-0.645l-0.906-0.645l-0.967-0.41l-1.095-0.215l-1.285-0.061l-0.55-0.349l-0.555-1.524
		l-0.952-0.624l0.052-0.651l0.279-0.745l0.282-0.537l-1.067-0.027l-0.704-0.128l-0.528-0.275l-3.012-3.187l-0.863-0.416h-2.816
		l-0.803-0.235l-0.504-0.309l-0.934-1.046l-0.841-0.59l-0.863-0.382l-0.672-0.557l-0.271-1.133l-0.04-1.2l-0.166-0.764l-0.37-0.623
		l-0.644-0.771l-0.641-0.563l-1.349-0.771l-0.693-0.637l-1.352-1.977l-0.478-0.482l-6.646-4.072l-2.123-2.35l-0.826-1.245
		l-0.009-0.294l-0.173-0.301l0.308-1.512l-0.136-0.616l-0.662-0.977l-1.112-2.388l-0.872-1.318l-1.263-1.331l-0.548-0.749
		l-0.225-0.789l-0.284-0.013l-0.588-0.401l-0.514-0.468l-0.056-0.227l-0.422-0.207l-0.231-0.495l-0.166-0.581l-0.216-0.481
		l-1.63-1.804l-0.373-0.688l-0.259-0.728l-0.4-0.555l-0.798-0.234l-0.243-0.347l0.736-1.516l-1.14-0.728l0.025-0.841l0.416-1.422
		l-0.317-0.668l-0.216-0.114l-0.354,0.047l-0.74-0.187l-1.479-0.681l-0.779-0.654l-0.009-0.808l0.841-1.168l0.336-1.081
		l-0.474-1.154l-1.322-1.548l-0.327-0.093l-0.404,0.033l-0.345-0.093l-0.145-0.467l0.012-0.714l-0.055-0.327l-0.16-0.307
		l-0.434-0.267l-0.669-0.2L167.867,233.304z"/>
	<path class="st0" d="M446.256,417.041l-1.81-1.247l-1.158-1.635l-1.926-4.298l-0.712-0.858l-1.867-0.919l-0.9-0.674l-2.628-3.09
		l-0.847-0.755l-1.18-0.435l-4.726-0.014l-0.835-0.279l-0.363-0.667l-0.225-0.748l-0.407-0.551l-0.558-0.122l-1.331,0.17
		l-0.592-0.048l-4.141-2.108l-0.746,0.041l-0.588-0.993l-5.376-3.725l-1.1,0.034l-0.992,0.741l-1.676,1.76l-0.718,0.523
		l-0.755,0.388l-0.675,0.109l-0.758-0.224l-0.317-0.374l-0.182-0.517l-0.37-0.639l-3.83-4.308l-1.414-1.99l-0.73-0.727l-1.349-0.686
		l-13.165-2.58l-0.308-0.312l-0.151-0.523l-0.37-0.278l-0.468-0.211l-0.434-0.339l-0.847-0.258l-3.041-0.075l-1.236-0.319
		l-11.43-8.703l-1.895-0.468l-0.579-0.427l-1.195-1.193l-0.579-0.366l-0.367-0.074l-1.125-0.014l-1.18-0.434l-2.231-1.477
		l-1.402-0.495l-1.704-1.213l-2.48-0.854l-0.57-0.461l-0.327-0.44l-0.438-0.345l-0.903-0.135l-0.564-0.21l-0.776-0.928l-1.961-0.731
		l-0.98-1.219l-1.214-2.322l-0.556-0.636l-2.322-2.05l-1.445-0.663l-0.211-0.514l-0.148-0.595l-0.205-0.453l-0.368-0.325
		l-1.297-0.575l-1.357-0.791l-0.639-0.5l-0.648-0.717l-0.475-0.345l-1.1-0.223l-1.012-0.622l-1.497-0.196l-0.596-0.216l-0.43-0.399
		l-1.049-1.44l-2.284-2.358l-21.465-14.265l-1.077-0.27l-1.231,0.128l-2.798,1.005l-1.428,0.324l-4.464,0.142l-4.668-0.715
		l-1.884,0.101l-0.558-0.101l-0.636-0.364l-1.165-1.052l-0.642-0.405l-0.541-0.088l-2.124,0.088l-3.686-0.728l-1.958-1.409
		l-1.088-0.533l-2.134-0.101l-0.345-0.121l-0.957-2.083l-0.062-0.371l-0.55-0.121l-1.032-0.58l-0.656-0.229l-0.689-0.061
		l-2.74,0.148l-0.581-0.155l-1.218-1.058l-0.562-0.189l-3.487,0.086l0-0.011l-0.291-8.358l0.046-0.438l0.177-0.414l0.781-1.38
		l0.23-0.747l0.411-2.311l0.337-0.575l0.531-0.555l0.995-0.515l0.818-0.269l4.289-0.699l2.127-0.915l1.864-1.025l0.81-0.343
		l0.812-0.165l19.307-1.082l2.084-0.407l1.411-0.551l5.937-3.202l0.465-0.319l0.032-0.04l0.55-5.783l0.552-2.545l0.742-2.329
		l2.691-5.488l0.652-1.888l0.193-1.103l-0.176-0.721l-0.491-1.163l-0.126-0.456l-0.019-0.422l1.627-4.422l0.314-1.333l0.126-1.075
		l-0.431-3.073l0.14-2.958l-0.223-3.269l0.114-0.739l0.558-2.05l0.139-0.856v-1.658l0.206-1.05l0.564-1.273l11.535-17.234
		l0.367-0.817l0.12-0.984l-0.009-0.27l-0.365-2.991l0.109-0.73l0.37-0.537l0.876-0.453l0.972-0.157l3.428-0.013l0.901-0.197
		l0.653-0.4l0.431-0.846l0.068-0.49l-0.086-0.41l-0.78-1.536l-0.131-0.513l-0.017-0.483l0.092-0.663l0.117-0.366l0.319-0.719
		l0.501-0.709l0.795-0.766l6.126-3.709l0.844-0.31l0.807-0.196l0.621,0.316l0.464,0.336l0.558,0.539l0.462,0.34l0.49,0.293
		l0.391,0.12l0.322-0.03l1.422-0.679l3.705-2.293l0.895-0.795l0.202-0.373l-0.171-0.875l-2.1-6.373l6.686,3.725l2.251,0.925
		l1.406,0.369l0.966,0.076l9.192-0.346l12.721,1.074l3.106-0.349l28.006,1.926l1.525,0.426l0.844,0.636l0.425,3.066l0.481,0.652
		l0.847,0.559l20.576,9.161l0.331,1.483l0.766,7.303l0.863,1.989l1.517,1.769l0.655,1.075l0.27,1.385l-0.57,0.634l-1.323,0.03
		l-2.583-0.441l-2.717,0.384l-1.992,1.396l-0.655,1.93l1.293,1.984l0.576,0.271l1.365,0.371l0.502,0.321l0.328,0.638l0.299,1.521
		l0.371,0.712l0.539,0.267l1.365-0.077l0.558,0.251l0.451,0.528l0.18,0.331l0.387,1.13l0.601,0.839l0.237,0.595l-0.062,0.772
		l-0.516,0.646l-0.787,0.582l-0.582,0.582l0.091,0.642l1.998,1.87l0.78,1.034l0.313,1.355l-1.296,2.574l0.897,0.87l2.653,1.296
		l0.558,0.75l0.385,1.216l0.947,0.358l2.368,0.013l1.109,0.512l0.465,0.801l0.085,1.092l-0.029,1.357l0.388,1.062l0.955,0.952
		l1.198,0.784l2.24,1.086l0.391,0.282l0.525,0.486l1.454,1.918l0.632,0.496l0.986,0.986l0.222,0.386l0.008,1.399l-0.114,0.379
		l-0.3,0.678l-0.501,0.872l-0.353,0.419l-0.132,0.443l0.171,0.926l0.359,0.644l1.049,0.973l0.405,0.725l0.815,0.651l0.185,0.353
		l0.052,0.52l0.391,1.941l0.222,0.665l0.017,0.474l-0.239,0.635l-0.123,0.746l-0.524,1.216l-0.166,0.702l0.011,0.796l0.285,1.378
		l0.074,0.713l0.191,0.908l1.474,2.868l1.651,1.806l4.299,2.419l1.821,1.591l0.893,1.053l0.27,0.528l0.02,0.683l-0.339,0.606
		l-1.063,0.414l-0.227,0.495l0.202,0.633l0.447,0.461l0.447,0.367l0.2,0.36l-0.031,0.505l-0.413,1.94l-0.166,2.028l-0.24,0.644
		l-1.36,0.927l-0.233,0.206l-0.2,0.327l-0.447,0.485l-0.447,0.637l-0.2,0.779l0.31,0.472l0.723,0.115l0.816-0.003l0.593,0.104
		l1.092,1.321l0.274,1.615l0.109,1.717l0.596,1.626l1.174-0.415l0.989,0.634l0.47,1.134l-0.393,1.06l-0.373,0.58l-0.068,0.675
		l0.256,0.557l0.592,0.233l2.13-0.135l0.553,0.135l0.932,1.252l-0.547,1.283l-1.043,1.286l-0.485,1.098l-1.078,1.246l-0.228,0.344
		l-0.059,0.27l-0.023,0.389l0.077,0.838l0.176,0.557l0.257,0.483l1.142,1.257l0.465,0.686l0.641,1.217l0.233,0.848l0.34,4.051
		l0.467,1.938l0.644,4.659l0.277,0.934l0.681,1.649l-0.099,0.64l-0.536,2.1l-0.266,2.686l0.045,1.318l0.228,0.874l0.424,0.82
		l0.439,0.827l0.801,0.495l0.934,0.824l0.408,1.044l-1.28,2.628l-0.27,1.241l-0.337,1.025l-0.917,0.682l-0.696,0.041l-0.519-0.224
		l-0.521-0.129l-0.705,0.312l-0.194,0.465l-0.909,3.76l-3.072,4.251l0.014,0.38l0.498,0.605l0.531,0.061l0.516-0.357l0.388-0.037
		l0.154,1.026l-0.131,0.737l-0.199,0.605l0.015,0.605l0.518,0.748l0.687,0.775l0.22,0.551l-0.282,0.401l-0.829,0.313l-1.266-0.167
		l-1.622-0.421l-1.402,0.16l-0.593,1.55l-2.887,3.859l-0.618,0.483l-0.716,0.429l-0.706,0.316l-0.589,0.122l-0.499,0.279
		l-1.112,1.238l-0.442,0.279h-1.95h-1.713l-1.673-0.361l-0.715,0.143l-0.296,0.891l-0.211,1.671l-0.551,1.814l-0.78,1.712
		l-0.9,1.366l-0.821,0.797l-0.741,0.382l-1.694,0.542l-0.886,0.511l-0.678,0.613L446.256,417.041z"/>
	<path class="st0" d="M437.451,454.05l0.408-0.3l0.653-0.917l-0.906-2.245l-0.213-1.273l0.897-0.554l1.094-0.383l1.152-0.889
		l1.004-1.047l0.638-0.841l-0.641-0.171l-0.564-0.26l-0.471-0.376l-0.364-0.547l1.245-1.914l0.742-0.718l1.272-0.533l0.669-0.062
		l0.625,0.048l0.588-0.061l0.558-0.376l0.222-0.513l0.311-1.476l0.117-0.307l1.747,0.232l0.937-0.027l0.404-0.41l0.277-1.537
		l0.653-0.471l0.807-0.205l0.706-0.744l0.314-1.175l0.783-5.735l-0.071-1.078l-0.428-0.867l-0.801-0.901l-1.122-0.883l1.402-1.32
		l1.485-1.643l0.594-2.629l-0.297-2.463l-0.891-1.642l-1.453-1.445l0.821-0.797l0.9-1.366l0.78-1.712l0.551-1.814l0.211-1.671
		l0.296-0.891l0.715-0.143l1.673,0.361h1.713l1.356,2.015l0.193,0.187l2.398,1.545l0.575,0.575l1.827,3.146l1.805,1.982l0.749,1.141
		l0.323,0.845l0.165,0.988l0.368,1.268l2.067,3.798l0.596,0.815l0.387,0.307l0.421,0.167l0.41-0.003l0.365-0.099l0.226-0.164
		l0.414-0.389l0.313-0.215l0.264-0.075l0.374,0.041l0.673,0.75l1.214,1.999l-2.437,1.522l-1.73,1.566l-0.399,0.502l-5.022,8.123
		l-1.938,2.265l-2.124,2.078l-0.712,1.005l-0.648,1.33l-0.744,2.284l-0.226,1.953l0.088,1.478l1.388,4.535l0.116,1.171l-0.233,1.438
		l-1.596,3.062l-1.367,1.765l-2.796,2.684l-0.783-1.878l-1.505-1.981l-0.331-0.651l-0.177-0.572l-0.092-0.699l-0.197-0.411
		l-0.254-0.305l-1.212-0.531l-0.627-0.353l-1.574-1.353l-1.392-0.901l-1.312-1.161l-0.804-0.869l-0.807-1.085l-0.473-0.404
		l-0.396-0.192l-0.373,0.007l-1.26,0.291l-0.37,0.038l-0.407-0.068l-1.192-0.441l-0.305-0.034l-0.28,0.055l-0.242,0.205
		l-0.143,0.294l-0.046,0.544l0.071,1.116l-0.018,0.462l-0.069,0.281l-0.331,0.212l-0.305,0.113l-1.436-0.318L437.451,454.05z"/>
	<path class="st0" d="M450.694,424.531l-2.579-2.03l-0.025-0.798l-1.806-4.642l-0.029-0.02l1.278-1.605l0.678-0.613l0.886-0.511
		l1.694-0.542l0.741-0.382l1.453,1.445l0.891,1.642l0.297,2.463l-0.594,2.629l-1.485,1.643L450.694,424.531z"/>
	<path class="st0" d="M629.395,435.864l-0.12,1.157l0.952,2.132l0.173,1.333l-0.903,0.595l-2.1-0.116l-0.547,0.629l-0.015,1.743
		l1.086,3.461l0.171,1.307l0.293,0.896l1.349,1.67l0.394,0.801l-0.099,1.465l-0.576,1.178l-0.647,1.048l-0.308,1.082l0.471,2.987
		l0.055,1.24l-0.527,1.001l-0.504,0.171l-1.446,0.089l-0.491,0.233l-0.362,0.713l0.04,0.665l0.199,0.692l0.294,2.016l0.644,2.126
		l-0.037,1.489l-1.232,4.248l0.231,1.009l1.078,1.305l0.213,0.858l-0.382,0.749l-0.685,0.982l-0.485,0.879l-0.038,0.175h-0.037
		h-0.109l-3.4-0.278l-0.661-0.158l-0.359-0.412l-0.115-0.429l-0.012-0.422l0.071-0.464v-0.33l-0.062-0.278l-0.145-0.202
		l-0.234-0.234l-0.305-0.216l-1.143-0.591l-0.872-0.33l-1.132-0.227l-0.926,0.014l-0.474,0.144l-0.505,0.275l-0.801,0.694
		l-0.347,0.227l-0.333,0.137l-0.451,0.014l-0.461-0.151l-0.555-0.453l-0.142-0.343l0.037-0.453l0.254-0.951l0.037-0.343l-0.04-0.306
		l-0.103-0.185l-0.186-0.086l-0.267-0.01l-0.374,0.158l-0.28,0.216l-0.336,0.402l-0.434,0.642l-0.901,1.651l-0.248,0.316
		l-0.41,0.398l-0.407,0.257l-0.364,0.158l-0.807,0.192l-1.972,0.185l-0.391,0.422l-0.234,0.309l-0.177,0.47l-0.109,0.155
		l-0.148,0.127l-0.228,0.161l-0.368-0.041l-0.473-0.227l-0.918-0.701l-0.625-0.367l-1.922-0.495l-1.508-0.649l-0.587-0.165
		l-0.484-0.093l-1.18-0.062l-4.424,0.227l-1.237-1.191l-2.024-6.441l3.115-1.849l0.493-0.48l0.271-0.621l-0.017-0.555l-0.376-0.49
		l-0.382-0.226l-0.447-0.12l-1.146-0.092l-0.473-0.175l-0.379-0.298l-0.317-0.353l-0.203-0.274l-0.251-0.281l-0.357-0.271
		l-0.354-0.062l-1.892,0.572l-1.054,0.206l-1.701,0.11l-1.44-0.058l-0.501,0.082l-0.79,0.391l-0.444-0.082l-0.473-0.185
		l-0.799-0.435l-2.466-1.004l-0.28-0.212l-0.344-0.518l-0.208-0.716l0.206-1.823l0.005-0.62l-0.393-1.339l-0.022-0.647l0.2-0.733
		l-0.182-0.651l-0.291-0.411l-0.31-0.538l0.006-0.695l0.391-1.188l1.177-2.632l0.18-0.25l1.245-1.064l0.371-0.469l0.26-0.619
		l0.937-2.924l0.202-0.913l0.086-1.494l0.354-0.896l0.451-0.684l1.513-1.384l0.353-0.526l0.109-0.444l-0.079-0.489l-0.265-0.441
		l-0.776-1.032l-0.24-0.618l-0.103-0.557l-0.012-0.495l-0.143-0.396l-0.296-0.321l-0.821-0.225l-0.555-0.048l-2.137,0.611
		l13.881-19.425l1.764-1.979l0.685,0.02l1.105,0.783l1.522,1.533l0.618,0.344l1.422,0.532l0.761,0.184l0.662-0.048l-0.054-0.637
		l-0.325-1.305l-0.036-0.691l0.378,0.405l0.573,0.93l0.368,0.429l0.471,0.324l0.474,0.167l1.02,0.194l0.835,0.358l0.467,0.576
		l0.228,0.746l0.108,0.9l0.801,1.418l1.522,0.225l1.581,0.044l1.354-0.413l-0.012-0.818l-0.062-0.361l-0.112-0.327l-0.151-0.29
		l-0.376-0.539l-0.163-0.29l-0.129-0.31l-0.068-0.358l0.006-0.402l0.135-1.193l-0.063-0.344l-0.174-0.269l-0.263-0.184l-1.591-0.634
		l-0.314-0.184l-0.225-0.187l-0.191-0.245l-0.125-0.279l-0.008-0.337l0.367-1.28l0.043-0.402l-0.034-0.378l-0.166-0.266
		l-0.234-0.225l-5.005-3.628l-4.805-4.572l-0.347-0.52l-0.199-0.231l-0.274-0.126l-0.33,0.01l-0.342,0.044h-0.328l-0.285-0.112
		l-0.231-0.204l-0.208-0.245l-0.231-0.221l-0.291-0.136l-0.345-0.061l-1.088,0.153l-0.393,0.003l-0.411-0.034l-0.367-0.092
		l-0.334-0.129l-0.28-0.184l-0.25-0.197l-0.425-0.466l-0.185-0.255l-0.162-0.275l-0.262-0.66l-0.225-0.605l-0.287-0.588
		l-0.744-1.057l-0.131-0.411l-0.037-0.625l0.223-0.798l0.023-0.53l-0.031-0.415l-0.102-0.336l-0.071-0.377l-0.009-0.445l0.088-1.026
		l-0.017-0.418l-0.071-0.35l-0.117-0.312l-0.108-0.404l-0.034-0.452l0.055-0.693l0.394-0.441l0.618-0.957l0.092-0.594l-0.032-0.584
		l-0.521-1.565l-0.27-1.235l0.125-0.716l0.236-0.407l0.453-0.305l0.424-0.38l0.398-0.777l0.128-0.783l-0.078-2.693l0.245-0.627
		l0.636-1.129l0.066-0.559l-0.076-0.671l-0.359-1.461l-0.082-0.983l0.083-0.637l0.182-0.539l0.282-0.447l1.81-2.151l1.545-2.208
		l6.604-2.272l1.279,0.342l-0.253,2.414l0.069,0.731l0.28,0.789l0.873,0.854l0.861,0.376l0.78,0.132l0.729-0.156l1.408-0.589
		l0.89-0.159l0.502-0.01l4.568,1.47l1.148,0.647l0.693,0.705l0.114,0.59l-0.025,0.464l-0.082,0.366l-0.131,0.356l-0.025,0.336
		l0.114,0.352l0.393,0.403l0.465,0.173l0.504,0.081l2.166,0.081l0.85,0.112l0.481,0.224l0.219,0.203l-0.003,0.305l-0.04,0.393
		l-0.003,0.57l0.319,0.461l0.302,0.173l0.365-0.02l0.307-0.142l0.314-0.203l0.307-0.305l0.27-0.326l0.379-0.607l0.285-0.298
		l0.431-0.315l0.718-0.061l0.527,0.132l0.672,0.339l0.448,0.163l0.495,0.081l0.384-0.061l0.87-0.264l0.518-0.071l0.282,0.098
		l0.251,0.285l0.632,1.648l0.344,0.546l0.41,0.475l0.576,0.254l4.564,0.682l1.722,0.519l1.661,0.702l1.4,0.295l1.485,0.01
		l1.397-0.146l1.534-0.01l0.838,0.112l1.349,0.594l0.033,0.014l-0.757,2.313l-1.707,2.504l-0.45,1.079l-2.742,11.937l-0.536,2.264
		l-0.114,1.231l0.052,1.109l0.484,1.272l1.519,2.531l0.185,1.246l-0.539,1.157l-2.012,1.872l-0.718,1.171l-1.319,4.312l-1.485,2.351
		l-1.109,1.472l-1.704,1.561l-1.331,2.455l-0.706,2.326l-0.12,0.744l-0.037,1.419l0.234,1.461l0.598,1.202l0.419,1.249l-0.16,1.578
		l-0.345,1.591L629.395,435.864z"/>
	<path class="st0" d="M625.534,479.869l-0.07,0.319l0.148,1.305v2.996l-0.918,2.097l-0.082,0.358l-0.177,0.371l-0.576,4.065
		l-0.274,1.08l-0.525,0.908l-1.83,2.092l-1.677,1.391l-0.897,1.088l-0.565,1.205l0.063,0.937l0.314,0.944l0.188,1.233l-0.055,1.53
		l-0.219,1.64l-0.484,1.482l-0.832,1.082l-0.615,0.303l-0.328-0.165l-0.274-0.345l-0.45-0.248h-2.646l-1.43,0.365l-0.987,0.952
		l-0.646,1.324l-0.784,3.07l-0.433,1.173l-0.589,0.987l-0.85,1.035l-0.984,0.456l-2.919,0.255l-1.202,0.449l-3.868,3.902
		l-0.411,1.14l0.823,2.633l-0.205,1.451l-0.957,0.802l-1.383,0.242l-2.363-0.124l-0.921-0.283l-1.104-0.601l-1.274-0.512
		l-1.434-0.021l-2.91,1.617l-2.791,0.359l-1.198,0.366l-1.054,0.705l-1.004,1.106l-0.71,1.279l-0.362,1.363l-0.148,3.093
		l-0.628,1.066l-1.463,0.138l-1.645-0.173l-1.183,0.132l-0.687,1.059l-0.248,1.378l-0.347,1.205l-0.978,0.519l-1.582,0.402
		l-0.042,1.011l1.437,2.744l0.256,0.79l0.114,0.714l-0.122,0.7l-0.796,1.366l0.049,0.451l0.148,0.548l-0.052,0.929l-0.578,1.533
		l-0.963,1.151l-1.266,0.728l-1.485,0.25l-1.674,1.298l-2.134,2.547l-2.22,1.77l-3.603-1.986l-1.605-0.451l-0.719-0.416l-0.515-0.68
		l-0.898-2.519l-0.893-1.256l-1.208-0.472l-1.388,0.028l-1.448,0.222l-0.324,0.011l-1.118,0.038l-1.314-0.271l-3.986-1.567
		l-0.029-0.006l-1.473-0.286l-1.527-0.111l-1.516,0.867l-1.128,0.867l-2.178,2.511l-1.346,0.611l-1.714,0.472l-1.376,0.763
		l-0.327,1.458l0.229,1.833l-0.229,1.5l-0.696,1.34l-1.162,1.313l-1.163,1.695l-0.815,2.064l-1.066,1.633L522.107,570l-0.034-0.014
		l-1.852-0.758l-1.796-1.446l-1.541-1.793l-1.126-1.82l-2.398-3.028l-0.029-0.004l-3.939-0.579l-1.491,0.438l-0.001-0.02
		l-0.31-4.705l0.055-0.389l0.243-0.531l0.177-0.288l0.199-0.406l0.017-0.361l-0.225-0.52l-0.286-0.382l-2.094-1.997l-0.416-0.496
		l-0.368-0.576l-0.106-1.106l0.176-1.435l0.801-2.748l0.542-1.05l0.585-0.686l0.584-0.329l0.508-0.467l1.545-1.752l0.558-0.346
		l0.431-0.17l3.029-0.384l0.55-1.125l0.128-2.315l-2.402-24.336l4.492,0.993l0.387,0.224l1.859,1.553l0.887,0.58l0.932,0.228
		l1.017-0.024l6.915-2.715l5.113-2.776l3.634-1.19l1.826-0.283l0.952-0.41l0.448-0.493l0.553-2.068l0.373-0.62l0.502-0.576
		l0.86-0.724l0.693-0.803l0.575-0.889l0.553-1.629l0.291-0.651l1.319-2.011l0.887-0.678l2.99-0.971l4.132-0.764l1.048-0.489
		l0.95-0.643l2.776-2.966l1.121-0.946l0.407-0.516l0.507-1.331l0.628-0.77l3.506-1.513l2.522-0.742l1.246-0.141l1.054,0.017
		l0.838,0.199l0.815-0.062l1.24-0.23l4.047-1.54l1.078-0.608l5.014-3.975l2.472-2.424l0.485-0.566l0.359-0.594l0.166-0.566
		l-0.059-3.178l0.096-0.542l0.134-0.453l0.059-0.401l-0.003-0.439l0.097-0.525l0.129-0.206l0.208-0.072l0.231,0.093l0.23,0.13
		l0.77,0.158l2.024,6.441l1.237,1.191l4.424-0.227l1.18,0.062l0.484,0.093l0.587,0.165l1.508,0.649l1.922,0.495l0.625,0.367
		l0.918,0.701l0.473,0.227l0.368,0.041l0.228-0.161l0.148-0.127l0.109-0.155l0.177-0.47l0.234-0.309l0.391-0.422l1.972-0.185
		l0.807-0.192l0.364-0.158l0.407-0.257l0.41-0.398l0.248-0.316l0.901-1.651l0.434-0.642l0.336-0.402l0.28-0.216l0.374-0.158
		l0.267,0.01l0.186,0.086l0.103,0.185l0.04,0.306l-0.037,0.343l-0.254,0.951l-0.037,0.453l0.142,0.343l0.555,0.453l0.461,0.151
		l0.451-0.014l0.333-0.137l0.347-0.227l0.801-0.694l0.505-0.275l0.474-0.144l0.926-0.014l1.132,0.227l0.872,0.33l1.143,0.591
		l0.305,0.216l0.234,0.234l0.145,0.202l0.062,0.278v0.33l-0.071,0.464l0.012,0.422l0.115,0.429l0.359,0.412l0.661,0.158l3.4,0.278
		h0.109H625.534z"/>
	<path class="st0" d="M405.756,522.992l1.333-0.111l0.783-0.67l-0.379-1.161l-1.088-0.822l-0.715-0.932l0.736-1.464l0.995-0.318
		l1.063,0.352l1.011,0.159l0.819-0.877l-0.219-0.545l-0.481-0.766l-0.083-0.676l0.986-0.29l0.724,0.014l0.447-0.083l0.228-0.338
		l0.163-5.201l0.271-1.269l0.305-0.758l0.194-0.083l0.305,0.228l1.876,0.365l0.705-0.048l0.311-0.407l-0.163-0.607l-0.345-0.531
		l-0.293-0.6l-0.012-0.786l0.225-0.207l1.014-0.744l0.391-0.42l-0.333-0.365l-0.524-0.944l-0.363-0.51l-1.346-0.985l-0.32-0.379
		l-0.237-1.13l0.188-1.012l0.327-1.033l0.166-1.163l0.191-0.523l0.838-0.633l0.194-0.688l-1.442-1.363l-0.206-0.839l0.41-1.06
		l1.997-3.556l0.302-0.949l0.16-1.093l-0.302-2.131l0.003-1.079l0.484-0.467l0.946-0.213l1.353-0.57l1.032-0.797l-0.037-0.893
		l-0.872-0.625l-0.949-0.481l-0.703-0.673l-0.142-1.188l0.604,0.22l0.474,0.282l0.333,0.378l0.216,0.481l0.524-0.728l0.533-1.373
		l0.573-2.231l0.607-0.632l3.87-1.427l1.99-1.139l6.886-5.192l0.776-1.063l0.006-0.884l-2.758-0.816l0.453-1.001l2.083-1.72
		l0.37-0.514l0.342-0.76l-0.062-0.692l-1.368-0.514l-0.169-0.466l0.169-0.466l1.26-0.479l1.251-0.671l0.809-0.597l0.198,0.104
		l1.436,0.318l0.305-0.113l0.331-0.212l0.069-0.281l0.018-0.462l-0.071-1.116l0.046-0.544l0.143-0.294l0.242-0.205l0.28-0.055
		l0.305,0.034l1.192,0.441l0.407,0.068l0.37-0.038l1.26-0.291l0.373-0.007l0.396,0.192l0.473,0.404l0.807,1.085l0.804,0.869
		l1.312,1.161l1.392,0.901l1.574,1.353l0.627,0.353l1.212,0.531l0.254,0.305l0.197,0.411l0.092,0.699l0.177,0.572l0.331,0.651
		l1.505,1.981l0.783,1.878l1.661,9.677l-0.074,0.687l-0.254,0.474l-7.924,7.962l-2.303,4.496l-0.699,1.039l-1.276,0.991
		l-1.168,1.352l4.213,24.56l0.368,1.17l0.531,1.312l4.943,7.067l6.861,8.066l0.444,0.239l10.857,1.664l1.707,0.488l0.456,1.049
		l-0.367,2.558l-5.324,15.269l-1.091,4.463l-0.028,0.082l-0.964-0.963l-0.533-0.361l-1.266-0.346l-0.234-0.064l-1.568,0.007
		l-6.02,0.868l-1.531-0.153l-0.392-0.137l-0.939-0.328l-9.665-4.947l-0.023-0.008l-0.667-0.241l-6.094-1.283l-0.02-0.007
		l-2.556-0.874l-0.018-0.004l-2.648-0.573l-0.828-0.179l-1.827-0.783l-0.02-0.004l-3.536-0.755l-1.091-0.233l-0.005,0l-1.877-0.055
		l-3.605,0.666l-0.884,0.048l-6.522-0.846l-16.249,1.435l-5.33,2.316l-0.24,0.222l0.004-0.048l0.252-3.315l-0.099-1.372
		l-0.742-1.275l-1.473-1.109l-0.813-0.811l-0.361-0.866l0.305-1.932l0.863-1.364l1.353-0.81l3.019-0.526l0.296-0.699l-0.111-1.031
		l0.012-1.204l0.148-0.588l0.197-0.526l0.28-0.491l0.373-0.477l0.547-0.317l0.013-0.008l0.33,0.291l0.148,0.484v0.263l0.058,0.166
		l0.418,0.282l0.013,0.009l0.493,0.111l0.237-0.339l0.049-1.114l0.111-0.464l0.21-0.526l0.536-0.934l1.063-1.314l0.471-0.947
		l-0.893-0.809l-0.123-0.885l0.49-0.843l0.933-0.657l2.64-0.712l1.291-0.525l0.548-0.843l0.595-0.636L405.756,522.992z"/>
	<path class="st0" d="M507.901,560.996l-2.689,0.791l-3.047,2.403l-2.201,0.424l-0.021-0.013l-2.143-1.328l-3.685-3.715
		l-2.092-0.861l-0.006,0.001l-2.179,0.228l-2.166,0.889l-5.897,3.271l-1.953,0.445l-2.335-0.111l-0.508-0.083l-1.396-0.028
		l-0.021-0.007l-0.641-0.202l-0.548-0.354l-1.59-1.361l-0.598-0.299l-0.029-0.008l-2.709-0.746l-0.564-0.155l-0.625-0.347
		l-0.425-0.425l0.028-0.082l1.091-4.463l5.324-15.269l0.367-2.558l-0.456-1.049l-1.707-0.488l-10.857-1.664l-0.444-0.239
		l-6.861-8.066l-4.943-7.067l-0.531-1.312l-0.368-1.17l-4.213-24.56l2.027,1.046l0.992,1.4l0.407,0.289l0.685,0.385l0.356,0.461
		l0.313,0.63l0.424,1.184l0.21,0.465l0.391,0.465l1.513,0.885l0.407,0.441l0.37,0.582l0.45,0.537l0.799,0.43l4.333,0.958
		l0.796,0.424l0.405,0.558l0.605,0.606l0.843,0.444l1.59,0.427l0.963,0.686l1.296,0.589l1.584,0.148l5.258-1.168l3.072-1.085
		l0.779-0.52l0.399-0.651l0.089-0.768l0.005-1.02l0.088-0.885l0.336-0.609l0.508-0.399l0.878-0.344l0.424-0.351l0.229-0.275
		l0.094-0.31l0.197-0.327l0.316-0.423l0.641-0.31l0.294-0.365l0.227-0.482l0.166-0.62l0.336-0.805l0.558-0.864l0.692-0.733
		l0.934-0.74l0.362-0.196l0.453-0.193l0.627-0.165l0.61-0.076l0.559,0.014l0.524,0.1l0.434,0.155l3.543,1.868l1.265,0.87
		l1.976,1.648l1.114,0.695l1.117,0.141l0.699-0.203l0.749,0.248l0.524,0.255l2.141,3.395l1.725,1.092l0.351,0.434l0.525,0.816
		l0.476,0.947l1.098,1.795l0.983,0.917l2.528,1.713l0.884,0.407l0.866,0.183l1.879,0.031l1.015,0.307l0.516,0.552l0.117,0.579
		l-0.129,0.576l-0.273,0.71l-0.074,0.331l-0.016,0.155l0.117,0.569l2.402,24.336l-0.128,2.315l-0.55,1.125l-3.029,0.384l-0.431,0.17
		l-0.558,0.346l-1.545,1.752l-0.508,0.467l-0.584,0.329l-0.585,0.686l-0.542,1.05l-0.801,2.748l-0.176,1.435l0.106,1.106
		l0.368,0.576l0.416,0.496l2.094,1.997l0.286,0.382l0.225,0.52l-0.017,0.361l-0.199,0.406l-0.177,0.288l-0.243,0.531l-0.055,0.389
		l0.31,4.705L507.901,560.996z"/>
	<path class="st0" d="M417.232,85.635l0.028,1.018l0.357,0.223l0.493-0.072l0.419,0.131l0.425,0.44l0.561,0.722l0.117,0.67
		l-2.19,0.762l-0.441,1.064l0.379,1.176l1.149,0.808l0.364-0.099l0.28-0.368l0.37-0.361l0.613-0.039l0.397,0.236l0.478,0.493
		l0.283,0.604l-0.573,1.748l0.132,1.616l0.413,1.577l0.465,1.065l0.946,1.104l1.282,1.006l1.34,0.723l1.131,0.283l0.881,0.506
		l-0.163,1.131l-0.94,1.842l-0.126,1.289l0.065,1.632l0.25,1.533l0.681,1.527l0.046,0.717l-0.065,1.382l0.16,0.882l0.783,1.244
		l0.28,0.705l-0.028,0.685l-0.447,1.225l0.028,0.738l0.37,0.718l0.561,0.448l0.514-0.073l0.548-2.22l0.786-0.487l0.949,0.152
		l0.823,0.586l0.243,0.395l0.342,0.942l0.228,0.408l0.376,0.356l0.918,0.652l0.521,0.514l0.151,0.613l-0.453,0.481l-0.699,0.316
		l-1.297,0.27l-0.471,0.356l-0.672,0.758l-0.903,0.672l-0.438,0.573l0.385,0.389l1.547,0.145l1.214,0.251l1.011,0.672l0.659,0.969
		l0.151,1.154l-0.613,0.659l-2.462,1.372l-0.551,0.818l0.185,0.719l0.407,0.31l0.41,0.119l0.182,0.158h0.302l1.377,1.141
		l1.365,1.484h0.401l0.256-1.115l1.1,0.963l0.092,1.392l-0.558,1.478l-1.615,2.508l0.043,0.905l0.937,1.948l0.367,2.847
		l-0.243,2.993l-0.829,2.71l-1.362,2.01l-1.688,1.25l-0.314,0.496l-0.037,0.8l0.296,0.489l0.376,0.337l0.179,0.357l0.496,0.668
		l0.955,0.291l0.641,0.628l-0.462,1.674l-3.971,6.162l-0.915,2.185l-0.231,1.351l0.062,1.424l0.496,1.133l1.085,0.464l0.567,0.55
		l-0.431,1.279l-0.764,1.458l-0.41,1.094l0.25,1.087l0.625,1.154l0.749,0.922l0.635,0.378l0.33,0.61l-2.588,4.292l0.034,1.241
		l0.219,1.175l-0.056,1.228l-0.789,1.401l-0.416,1.109l0.551,0.923l0.829,1.056l0.441,1.481l-0.271,0.797l-1.389,2.624l-0.561,0.565
		l-0.132,0.625l-1.309,3.768l-0.092,0.884l0.022,0.971l0.105,0.665l0.782,0.423l-0.007,0.009l-0.475,0.589l0.421,2.694l0.431,1.041
		l-0.616,4.009l0.208,1.528l0.479,1.448l0.572,0.792l0.918,0.333l1.511,0.067l1.114,0.253l0.556,0.679l0.587,2.148l2.764,3.485
		l0.27,0.736l-1.109,1.023l-0.379,0.476l0.159,0.72l-20.576-9.161l-0.847-0.559l-0.481-0.652l-0.425-3.066l-0.844-0.636
		l-1.525-0.426l-28.006-1.926l-3.106,0.349l-12.721-1.074l-9.192,0.346l-0.966-0.076l-1.406-0.369l-2.251-0.925l-6.686-3.725
		l-2.938-1.795l-1.721-0.555l-21.533-0.834l-3.284,0.515l-5.515,0.146l-0.536-0.216l-0.166-0.658l-0.062-1.961l-0.964-5.916v-0.618
		l0.131-0.833l0.84-2.556l5.373-24.1l0.263-0.639l0.36-0.573l0.872-0.953l0.907-0.722l6.023-3.663l0.317-0.271l0.191-0.218
		l0.145-0.275l0.102-0.331l0.092-0.437l0.043-0.549l-0.015-0.609l-2.453-16.414l-0.57-1.373l-0.336-0.594l-3.203-4.465l-1.223-2.174
		l-0.162-0.475l-0.042-0.521l0.222-1.682l0.023-0.524l-0.032-0.594l-0.373-1.497l-0.333-0.841l-0.704-1.272l-1.237-1.631
		l-0.226-0.376l-0.079-0.382l-0.011-0.277l1.216-4.965l-1.568-1.199l-4.13-1.768l-111.35-33.057l-5.532-3.54l-0.79-0.699
		l0.377-0.797l0.767-1.64l0.773-1.64l1.679-4.661l1.676-4.666l1.676-4.657l1.676-4.648l1.125-3.115l0.478-0.752l0.952-0.399
		l5.307-0.811l1.282-0.196l2.813-0.432l2.818-0.432l1.279-0.196l20.18-4.395l20.177-4.399l20.179-4.391l20.18-4.389l8.979-1.952
		l4.893-0.065l11.236-0.144l11.23-0.15l11.233-0.144l11.23-0.15l4.84-0.065l1.186,0.3l1.787,1.273l1.704,1.221l3.007,1.868
		l5.558,3.462l5.564,3.463l5.561,3.458l5.564,3.459l5.558,3.467l5.561,3.461l5.558,3.469l5.564,3.464l2.335,1.461l0.647,0.734
		l0.194,0.904l-0.182,2.096l0.12,2.032l1.017,3.631l0.197,1.987l-0.157,1.41l0.08,2.676l-0.096,1.325l-0.881,3.36L417.232,85.635z"
		/>
	<path class="st0" d="M428.301,208.098l0.016,0.009l0.684,0.572l0.533,1.024l0.742,0.798l2.012,0.678h0.641l1.032-0.439l0.407-0.06
		l0.508,0.299l0.844,0.931l0.287,0.219l0.721-0.166l0.955-0.825l0.613,0.02l0.607,0.153l0.465-0.087l0.721-0.366l-0.142-0.106
		l0.022-0.339l0.108-0.379l0.117-0.219l0.222-0.02l0.576,0.213l0.243-0.007l1.183-0.446l0.78,0.066l0.795,0.24l1.211,0.053
		l0.662-0.186l0.459-0.259l0.425-0.113l0.548,0.253l0.927,2.574l0.699,1.324l0.783,0.765l1.035,0.26l1.43-0.213l0.521-0.213
		l0.24-0.18l0.314-0.087l0.739,0.08l0.459,0.186l1.396,0.925l2.308-0.546l0.508,0.007l1.239,0.486l0.65,0.047l0.86,0.333l1.96,1.251
		l0.379,0.007l0.216-0.393l0.499,0.12l0.918,0.519l0.675-0.013l0.305-0.339l0.105-0.406l0.077-0.193l0.921,0.08l2.662,0.652
		l1.146-0.206l1.488-1.245l0.816-0.2l0.259,0.253l0.182,0.992l0.41,0.346l0.57,0.047l0.379-0.173l0.339-0.226l0.45-0.106
		l0.967,0.146l1.787,0.679l0.545,0.279l0.025,0.14l0.08,0.28l0.286,0.266l1.057,0.186l0.339,0.107l0.348,0.033l0.453-0.186
		l0.724-0.193l1.898,0.153l0.983-0.08l1.473,0.486l0.641,0.02l0.665-0.439l-0.055,1.032l0.296,0.253l0.502-0.08l0.567,0.027
		l1.052,0.539l0.605,0.033l0.662-1.671l0.696,0.985l0.613,1.611l0.129,0.819l1.4,0.207l0.787-0.266l0.522,0.596l12.609,3.151
		l2.42,0.956l-0.234,0.203l-1.397,0.746l-0.33,0.24l-2.551,3.649l-0.431,0.38l-1.916,1.3l-0.319,0.33l-0.242,0.36l-0.169,0.377
		l-0.043,0.45l0.274,1.397l-0.062,0.494l-0.203,0.357l-0.587,0.417l-0.146,0.34l0.017,0.464l0.308,1.304l0.034,0.374l-0.057,1.218
		l0.143,1.215l-0.028,0.734l-0.1,0.597l-0.171,0.521l-0.111,0.718l0.122,0.601l0.279,0.471l0.559,0.731l0.117,0.481l-0.022,0.454
		l-0.188,0.975l0.135,0.448l0.284,0.291l0.333,0.207l0.313,0.244l0.385,0.451l0.507,0.828l0.478,1.283l0.462,2.61l0.373,1.16
		l-0.065,0.678l-0.276,0.435l-1.319,0.863l-0.396,0.458l-0.328,0.508l-0.146,0.786l0.049,0.217l0.226,0.074l0.361-0.023l0.806,0.013
		l1.106-0.11l0.319-0.11l0.268-0.171l0.464-0.451l0.27-0.144l0.377,0.074l0.388,0.261l0.527,0.562l0.384,0.314l0.371,0.241
		l0.365,0.1l0.39,0.05l0.35-0.05l0.319-0.08l1.152-0.528l0.681-0.157l0.283-0.154l0.22-0.237l0.47-0.966l0.625-0.809l0.172-0.311
		l0.114-0.378l0.193-1.253l0.096-0.381l0.213-0.571l0.06-0.124l0.074-0.11l0.365-0.384l0.513-0.381l0.297-0.15l0.297-0.12
		l3.158-0.568l0.327-0.097l0.584-0.291l0.253-0.19l0.222-0.241l0.396-0.535l0.698-1.199l0.194-0.271l0.225-0.24l0.27-0.18l0.32-0.13
		l0.689-0.16l0.3-0.127l0.276-0.167l1.508-1.176l0.28-0.147l0.316-0.07l0.313,0.007l0.36,0.093l0.877,0.351l0.285,0.351l0.21,0.367
		l8.551,22.352l0.046,0.402l-0.111,0.72l-0.069,2.318l-0.065,0.372l-0.134,0.311l-0.217,0.228l-0.285,0.134l-0.35,0.01l-0.319-0.094
		l-0.581-0.278l-0.293-0.03l-0.237,0.141l-0.157,0.278l-0.065,0.362l0.008,0.402l0.112,0.69l-0.062,0.281l-0.231,0.174l-0.294,0.137
		l-0.25,0.201l-0.177,0.265l-0.122,0.335l-0.089,0.352l-0.046,0.446l0.014,0.543l0.231,0.918l0.022,0.523l-0.122,0.355l-0.245,0.191
		l-2.297,1.251l-0.522,0.372l-0.239,0.204l-0.219,0.225l-0.162,0.292l-0.262,0.617l-0.213,0.241l-0.544,0.332l-0.245,0.204
		l-0.213,0.232l-0.185,0.265l-0.129,0.319l-0.086,0.355l-0.194,1.594l-0.148,0.634l-0.06,0.171l-0.119,0.228l-0.102,0.161
		l-0.283,0.242l-1.941,0.809l-0.746,0.913l-0.481,0.822l-0.807,0.621l-0.801,0.769l-1.417,0.725l-0.444,0.057l-0.368-0.03
		l-0.379-0.067l-0.527-0.023l-2.385,0.651l-2.651,1.35l-0.42,0.158h-0.568l-0.861,0.091l-1.905,0.437l-0.893,0.097l-0.548-0.06
		l-0.4-0.463l-0.493-0.141l-0.729-0.064l-1.553,0.175l-0.79,0.003l-0.579-0.061l-1.433-0.786l-0.602-0.097l-0.855-0.04l-3.466,0.191
		l-3.001-0.705l-1.442-0.175l-0.522,0.05l-0.39,0.144l-0.521,0.483l-0.376,0.282l-0.388,0.121l-0.507,0.04l-1.511-0.101
		l-0.629,0.091l-0.818,0.208l-1.158,0.531l-0.445,0.094l-0.385-0.02l-0.465-0.165l-0.467-0.107l-0.605-0.07l-0.436,0.05
		l-0.356,0.131l-0.271,0.178l-0.237,0.212l-0.434,0.255l-2.628,0.846l-4.266,0.668l-2.781-0.027l-0.621,0.077l-0.451,0.151
		l-1.015,0.558l-1.198,0.46l-0.641,0.138l-0.451,0.034l-0.145-0.03l-3.962,0.289l-0.396-0.04l-0.658-0.158l-0.28-0.104l-1.527-0.853
		l-0.313-0.138l-0.284-0.161l-0.718-0.302l-1.531-0.212l0.239-0.635l-0.017-0.474l-0.222-0.665l-0.391-1.941l-0.052-0.52
		l-0.185-0.353l-0.815-0.651l-0.405-0.725l-1.049-0.973l-0.359-0.644l-0.171-0.926l0.132-0.443l0.353-0.419l0.501-0.872l0.3-0.678
		l0.114-0.379l-0.008-1.399l-0.222-0.386l-0.986-0.986l-0.632-0.496l-1.454-1.918l-0.525-0.486l-0.391-0.282l-2.24-1.086
		l-1.198-0.784l-0.955-0.952l-0.388-1.062l0.029-1.357l-0.085-1.092l-0.465-0.801l-1.109-0.512l-2.368-0.013l-0.947-0.358
		l-0.385-1.216l-0.558-0.75l-2.653-1.296l-0.897-0.87l1.296-2.574l-0.313-1.355l-0.78-1.034l-1.998-1.87l-0.091-0.642l0.582-0.582
		l0.787-0.582l0.516-0.646l0.062-0.772l-0.237-0.595l-0.601-0.839l-0.387-1.13l-0.18-0.331l-0.451-0.528l-0.558-0.251l-1.365,0.077
		l-0.539-0.267l-0.371-0.712l-0.299-1.521L434,252.012l-0.502-0.321l-1.365-0.371l-0.576-0.271l-1.293-1.984l0.655-1.93l1.992-1.396
		l2.717-0.384l2.583,0.441l1.323-0.03l0.57-0.634l-0.27-1.385l-0.655-1.075l-1.517-1.769l-0.863-1.989l-0.766-7.303l-0.331-1.483
		l-0.159-0.72l0.379-0.476l1.109-1.023l-0.27-0.736L434,223.687l-0.587-2.148l-0.556-0.679l-1.114-0.253l-1.511-0.067l-0.918-0.333
		l-0.572-0.792l-0.479-1.448l-0.208-1.528l0.616-4.009l-0.431-1.041l-0.421-2.694l0.475-0.589L428.301,208.098z"/>
	<path class="st0" d="M495.688,221.489l1.383-1.518l0.388-0.599l0.074-0.419l0.216-0.106l0.818,0.293l0.451-0.047l1.946-0.592
		l0.451,0.087l0.071,0.286l0.123,0.126l0.616-0.406l0.277-0.426l0.478-1.158l0.308-0.26l1,0.519l2.029,2.35l0.94,0.226l0.279-0.519
		l-0.63-1.165l0.379-0.386l0.665-0.2l0.477-0.226l1.993-1.498l0.642-0.705l1.017-1.817l0.156-0.153l0.434-0.226l0.203-0.279
		l0.33-1.018l0.185-0.399l0.912-1.35l0.539-0.592l0.616-0.545l1.041-0.312l4.295-0.778l0.844,0.086l0.616,0.672l1.578,3.931
		l1.402,2.129l1.818,1.757l3.324,1.99l1.762,1.724l1.029,0.646l1.041,0.253l10.26,0.519l0.796-0.226l0.763-0.426l0.795,0.386
		l0.857,0.686l0.931,0.479l3.716,0.353l1.106,0.679l0.142-0.46l0.655-1.332l2.996,4.096l2.422,1.826l0.591,0.68l0.516,1.566
		l0.196,5.461l0.419,2.341l1.034,2.095l1.551,1.675l1.981,1.108l1.212,0.441l0.784,0.467l0.448,0.768l0.191,1.335l-0.062,0.501
		l-0.328,1.068l-0.046,0.548l0.126,0.561l0.387,1.042l0.051,0.568l-0.612,2.151l-1.034,1.871l-0.779,1.965l0.145,2.42l1.328,4.99
		l-0.003,1.117l-0.336,2.182l0.129,1.098l1.571,1.841l0.642,0.998l0.325,1.266l-0.293,2.364l0.045,1.072l0.639,0.844l1.658,1.025
		l0.222,0.57l1.306,4.827l-0.025,1.086l-1.393,2.951l-0.188,1.073l0.391,1.456l1.832,1.96l0.656,1.228l-0.1,2.001l-1.605,3.613
		l0.152,2.257l0.365,1.945l-0.032,0.024l-0.575,0.43l-0.588,0.958l-1.065,2.911l-0.49,2.515l-0.402,0.673l-0.667,0.636l-2.448,1.44
		l-0.51,0.202l-0.544,0.141l-1.67,0.03l-0.872,0.377l-1.277,0.77l-6.173,4.561l-2.545,1.438l-0.604,0.589l-0.835,1.492l-0.365,0.411
		l-0.565,0.384l-1.531,0.623l-1.485,0.357l-2.13,0.192l-0.471,0.178l-0.493,0.263l-0.317,0.128l-0.328,0.064l-0.382-0.051
		l-0.365-0.121l-0.876-0.414l-0.712-0.492l0.462-0.084l0.555-0.242l2.01-1.492l0.131-0.141l0.114-0.222l0.317-1.095l1.038-1.956
		l0.256-0.646l0.089-0.357l0.04-0.401l0.022-1.673l-0.172-1.585l-0.288-1.006l-0.028-0.32l0.115-0.276l1.328-1.783l0.636-0.7
		l0.36-0.528l0.405-0.945l0.08-0.36l0.04-0.383l-0.216-2.397l0.052-0.837l0.14-0.743l-0.009-0.312l-0.156-0.242l-0.596-0.091
		l-0.823,0.027l-3.643,0.729l-0.53,0.222l-0.243,0.198l-0.066,0.346l0.026,0.944l-0.072,0.571l-0.142,0.413l-0.213,0.309
		l-0.319,0.222l-0.672,0.333l-0.416,0.282l-0.914,0.76l-0.333,0.178l-0.305,0.007l-0.604-0.437l-0.742-0.827l-1.066-1.906
		l-0.484-1.092l-0.3-0.857l-0.139-0.565l-0.015-0.443l0.209-0.323l4.931-4.081l0.499-0.588l0.396-0.591l0.142-0.342l0.071-0.342
		l-0.015-0.242l-0.091-0.359l-0.189-0.46l-0.25-0.403l-0.231-0.262l-1.004-0.886l-0.273-0.409l-0.085-0.316l0.089-0.352l0.305-0.651
		l0.148-0.42l0.017-0.372l-0.128-0.423l-0.286-0.446l-0.471-0.44l-0.515-0.299l-0.86-0.232l-2.513-0.141l-0.784-0.134l-0.941-0.288
		l-0.3,0.04l-0.548,0.289l-0.661,0.171l-1.246,0.185l-1.129,0.302l-1.39,0.748l-0.664,0.493l-0.488,0.242l-0.254,0.084l-0.628-0.456
		l0.283-0.242l0.102-0.161l0.119-0.228l0.06-0.171l0.148-0.634l0.194-1.594l0.086-0.355l0.129-0.319l0.185-0.265l0.213-0.232
		l0.245-0.204l0.544-0.332l0.213-0.241l0.262-0.617l0.162-0.292l0.219-0.225l0.239-0.204l0.522-0.372l2.297-1.251l0.245-0.191
		l0.122-0.355l-0.022-0.523l-0.231-0.918l-0.014-0.543l0.046-0.446l0.089-0.352l0.122-0.335l0.177-0.265l0.25-0.201l0.294-0.137
		l0.231-0.174l0.062-0.281l-0.112-0.69l-0.008-0.402l0.065-0.362l0.157-0.278l0.237-0.141l0.293,0.03l0.581,0.278l0.319,0.094
		l0.35-0.01l0.285-0.134l0.217-0.228l0.134-0.311l0.065-0.372l0.069-2.318l0.111-0.72l-0.046-0.402l-8.551-22.352l-0.21-0.367
		l-0.285-0.351l-0.877-0.351l-0.36-0.093l-0.313-0.007l-0.316,0.07l-0.28,0.147l-1.508,1.176l-0.276,0.167l-0.3,0.127l-0.689,0.16
		l-0.32,0.13l-0.27,0.18l-0.225,0.24l-0.194,0.271l-0.698,1.199l-0.396,0.535l-0.222,0.241l-0.253,0.19l-0.584,0.291l-0.327,0.097
		l-3.158,0.568l-0.297,0.12l-0.297,0.15l-0.513,0.381l-0.365,0.384l-0.074,0.11l-0.06,0.124l-0.213,0.571l-0.096,0.381l-0.193,1.253
		l-0.114,0.378l-0.172,0.311l-0.625,0.809l-0.47,0.966l-0.22,0.237l-0.283,0.154l-0.681,0.157l-1.152,0.528l-0.319,0.08l-0.35,0.05
		l-0.39-0.05l-0.365-0.1l-0.371-0.241l-0.384-0.314l-0.527-0.562l-0.388-0.261l-0.377-0.074l-0.27,0.144l-0.464,0.451l-0.268,0.171
		l-0.319,0.11l-1.106,0.11l-0.806-0.013l-0.361,0.023l-0.226-0.074l-0.049-0.217l0.146-0.786l0.328-0.508l0.396-0.458l1.319-0.863
		l0.276-0.435l0.065-0.678l-0.373-1.16l-0.462-2.61l-0.478-1.283l-0.507-0.828l-0.385-0.451l-0.313-0.244l-0.333-0.207l-0.284-0.291
		l-0.135-0.448l0.188-0.975l0.022-0.454l-0.117-0.481l-0.559-0.731l-0.279-0.471l-0.122-0.601l0.111-0.718l0.171-0.521l0.1-0.597
		l0.028-0.734l-0.143-1.215l0.057-1.218l-0.034-0.374l-0.308-1.304l-0.017-0.464l0.146-0.34l0.587-0.417l0.203-0.357l0.062-0.494
		l-0.274-1.397l0.043-0.45l0.169-0.377l0.242-0.36l0.319-0.33l1.916-1.3l0.431-0.38l2.551-3.649l0.33-0.24l1.397-0.746l0.234-0.203
		l-2.42-0.956l-12.609-3.151L495.688,221.489z"/>
	<path class="st0" d="M573.734,301.843l0.044,0.232l-0.049,2.339l0.2,2.178l1.146,1.688l2.643,2.852l1.291,4.051l0.903,12.587
		l0.567,1.692l1.349,1.457l1.839,0.836l3.747,0.29l1.885,0.411l0.003,0.007h0.006l0.009,0.007l2.121,0.789l2.144,0.445l2.112-0.175
		l2.037-1.059h0.005h0.008v-0.013l1.52-0.776l3.773,0.034l1.836-0.553l1.009-0.486l1.998-0.088l1.038-0.169l1.008-0.607l1.303-1.753
		l0.773-0.809l3.845-2.191l7.786-2.729l1.017-0.552l1.502-1.644l0.917-0.458l1.59,0.438l10.099,5.788l1.208,0.903l3.297,4.625
		l5.604,3.38l1.661,0.909l0.028,0.015l-1.248,0.999l-2.077,1.566l-1.414,1.85l-0.589,2.005l0.166,1.053l0.767,2.074l0.29,2.446
		l0.468,0.818l1.408,1.872l0.496,1.501l0.792,2.042l-0.068,1.901l-0.567,2.023l-0.739,1.434l-2.314,3.472l-0.693,2.119l-0.015,2.005
		l0.841,4.499l-0.037,2.128l-2.213,6.762l-0.033-0.014l-1.349-0.594l-0.838-0.112l-1.534,0.01l-1.397,0.146l-1.485-0.01l-1.4-0.295
		l-1.661-0.702l-1.722-0.519l-4.564-0.682l-0.576-0.254l-0.41-0.475l-0.344-0.546l-0.632-1.648l-0.251-0.285l-0.282-0.098
		l-0.518,0.071l-0.87,0.264l-0.384,0.061l-0.495-0.081l-0.448-0.163l-0.672-0.339l-0.527-0.132l-0.718,0.061l-0.431,0.315
		l-0.285,0.298l-0.379,0.607l-0.27,0.326l-0.307,0.305l-0.314,0.203l-0.307,0.142l-0.365,0.02l-0.302-0.173l-0.319-0.461l0.003-0.57
		l0.04-0.393l0.003-0.305l-0.219-0.203l-0.481-0.224l-0.85-0.112l-2.166-0.081l-0.504-0.081l-0.465-0.173l-0.393-0.403l-0.114-0.352
		l0.025-0.336l0.131-0.356l0.082-0.366l0.025-0.464l-0.114-0.59l-0.693-0.705l-1.148-0.647l-4.568-1.47l-0.502,0.01l-0.89,0.159
		l-1.408,0.589l-0.729,0.156l-0.78-0.132l-0.861-0.376l-0.873-0.854l-0.28-0.789l-0.069-0.731l0.253-2.414l-1.279-0.342
		l-6.604,2.272l-15.63,2.662l-1.198,0.4l-0.776,0.447l-6.532,7.069l-2.968,2.299l-0.844,0.96l-1.679,2.636l-1.571,1.927
		l-3.186-1.907l-0.595-0.522l-0.385-0.689l-0.431-0.946l-0.53-1.513l-1.151-1.241l-1-0.837l-1.762-1.119l-0.665-0.915l-0.632-1.427
		l-0.86-2.731l-1.28-2.628l-3.161-4.442l-1.234-2.877l-0.277-0.403l-0.348-0.325l-0.451-0.227l-1.12-0.386l-0.548-0.271
		l-0.487-0.342l-0.502-0.491l-0.414-0.524l-0.336-0.629l-0.319-0.791l-0.247-1.011l-0.257-2.133l-0.156-0.734l-0.247-0.605
		l-0.327-0.365l-1.285-1.115l-0.112-0.835l-0.001-1.247l0.351-3.057l-0.056-1.452l0.28-1.006l0.182-0.328l1.158-1.58l0.253-0.202
		l0.265-0.172l0.303-0.148l1.453-0.327l0.303-0.142l0.239-0.202l0.764-1.026l1.356-1.326l0.755-1.032l0.897-0.887l0.263-0.162
		l0.248-0.101l0.262-0.01l0.149,0.01l0.373,0.091l0.106-0.465l-0.308-1.494l-3.669-9.869l0.712,0.492l0.876,0.414l0.365,0.121
		l0.382,0.051l0.328-0.064l0.317-0.128l0.493-0.263l0.471-0.178l2.13-0.192l1.485-0.357l1.531-0.623l0.565-0.384l0.365-0.411
		l0.835-1.492l0.604-0.589l2.545-1.438l6.173-4.561l1.277-0.77l0.872-0.377l1.67-0.03l0.544-0.141l0.51-0.202l2.448-1.44
		l0.667-0.636l0.402-0.673l0.49-2.515l1.065-2.911l0.588-0.958l0.575-0.43L573.734,301.843z"/>
	<path class="st0" d="M560.795,383.668l-7.04,1.894l-4.797,2l-1.225,0.995l-0.874,1.077l-2.616,5.214l-0.518,0.761l-0.514,0.469
		l-0.518-0.238l-2.77-2.61l-2.032-2.313l-0.393-0.323l-0.377-0.217l-2.736-1.043l-0.596-0.418l-0.417-0.452l-0.168-0.479
		l-0.043-0.537l0.052-0.479l0.242-1.008l-0.046-0.706l-0.259-0.798l-0.761-0.686l-0.541-0.061l-0.644,0.35l-0.568,0.601
		l-0.493,0.675l-0.402,0.811l-0.291,0.791l-0.544,0.903l-0.782,0.808l-2.582,1.525l-0.63,0.56l-0.362,0.659l-0.271,0.679
		l-0.444,0.758l-0.593,0.615l-1.818,1.009l-0.627,0.428l-4.341,4.497l-2.228-0.996l-0.283-0.241l-0.299-0.194l-2.204-2.508
		l-1.021-0.69l-5.577-2.259l-0.921-0.112l-4.022,0.469l-3.266,0.948l-9.411,1.77l-0.81,0.265l-0.464,0.241l-0.547,0.357
		l-0.194,0.224l-0.106,0.228l-0.071,0.381l-0.023,0.35l0.025,0.231l0.1,0.428l0.006,0.255l-0.032,0.285l-0.111,0.326l-0.33,0.394
		l-0.65,0.463l-1.199,0.428l-1.083,0.088l-1.117-0.119l-2.036-0.605l-3.891-1.798l-1.097-0.765l0.829-0.313l0.282-0.401l-0.22-0.551
		l-0.687-0.775l-0.518-0.748l-0.015-0.605l0.199-0.605l0.131-0.737l-0.154-1.026l-0.388,0.037l-0.516,0.357l-0.531-0.061
		l-0.498-0.605l-0.014-0.38l3.072-4.251l0.909-3.76l0.194-0.465l0.705-0.312l0.521,0.129l0.519,0.224l0.696-0.041l0.917-0.682
		l0.337-1.025l0.27-1.241l1.28-2.628l-0.408-1.044l-0.934-0.824l-0.801-0.495l-0.439-0.827l-0.424-0.82l-0.228-0.874l-0.045-1.318
		l0.266-2.686l0.536-2.1l0.099-0.64l-0.681-1.649l-0.277-0.934l-0.644-4.659l-0.467-1.938l-0.34-4.051l-0.233-0.848l-0.641-1.217
		l-0.465-0.686l-1.142-1.257l-0.257-0.483l-0.176-0.557l-0.077-0.838l0.023-0.389l0.059-0.27l0.228-0.344l1.078-1.246l0.485-1.098
		l1.043-1.286l0.547-1.283l-0.932-1.252l-0.553-0.135l-2.13,0.135l-0.592-0.233l-0.256-0.557l0.068-0.675l0.373-0.58l0.393-1.06
		l-0.47-1.134l-0.989-0.634l-1.174,0.415l-0.596-1.626l-0.109-1.717l-0.274-1.615l-1.092-1.321l-0.593-0.104l-0.816,0.003
		l-0.723-0.115l-0.31-0.472l0.2-0.779l0.447-0.637l0.447-0.485l0.2-0.327l0.233-0.206l1.36-0.927l0.24-0.644l0.166-2.028l0.413-1.94
		l0.031-0.505l-0.2-0.36l-0.447-0.367l-0.447-0.461l-0.202-0.633l0.227-0.495l1.063-0.414l0.339-0.606l-0.02-0.683l-0.27-0.528
		l-0.893-1.053l-1.821-1.591l-4.299-2.419l-1.651-1.806l-1.474-2.868l-0.191-0.908l-0.074-0.713l-0.285-1.378l-0.011-0.796
		l0.166-0.702l0.524-1.216l0.123-0.746l1.531,0.212l0.718,0.302l0.284,0.161l0.313,0.138l1.527,0.853l0.28,0.104l0.658,0.158
		l0.396,0.04l3.962-0.289l0.145,0.03l0.451-0.034l0.641-0.138l1.198-0.46l1.015-0.558l0.451-0.151l0.621-0.077l2.781,0.027
		l4.266-0.668l2.628-0.846l0.434-0.255l0.237-0.212l0.271-0.178l0.356-0.131l0.436-0.05l0.605,0.07l0.467,0.107l0.465,0.165
		l0.385,0.02l0.445-0.094l1.158-0.531l0.818-0.208l0.629-0.091l1.511,0.101l0.507-0.04l0.388-0.121l0.376-0.282l0.521-0.483
		l0.39-0.144l0.522-0.05l1.442,0.175l3.001,0.705l3.466-0.191l0.855,0.04l0.602,0.097l1.433,0.786l0.579,0.061l0.79-0.003
		l1.553-0.175l0.729,0.064l0.493,0.141l0.4,0.463l0.548,0.06l0.893-0.097l1.905-0.437l0.861-0.091h0.568l0.42-0.158l2.651-1.35
		l2.385-0.651l0.527,0.023l0.379,0.067l0.368,0.03l0.444-0.057l1.417-0.725l0.801-0.769l0.807-0.621l0.481-0.822l0.746-0.913
		l1.941-0.809l0.628,0.456l0.254-0.084l0.488-0.242l0.664-0.493l1.39-0.748l1.129-0.302l1.246-0.185l0.661-0.171l0.548-0.289
		l0.3-0.04l0.941,0.288l0.784,0.134l2.513,0.141l0.86,0.232l0.515,0.299l0.471,0.44l0.286,0.446l0.128,0.423l-0.017,0.372
		l-0.148,0.42l-0.305,0.651l-0.089,0.352l0.085,0.316l0.273,0.409l1.004,0.886l0.231,0.262l0.25,0.403l0.189,0.46l0.091,0.359
		l0.015,0.242l-0.071,0.342l-0.142,0.342l-0.396,0.591l-0.499,0.588l-4.931,4.081l-0.209,0.323l0.015,0.443l0.139,0.565l0.3,0.857
		l0.484,1.092l1.066,1.906l0.742,0.827l0.604,0.437l0.305-0.007l0.333-0.178l0.914-0.76l0.416-0.282l0.672-0.333l0.319-0.222
		l0.213-0.309l0.142-0.413l0.072-0.571l-0.026-0.944l0.066-0.346l0.243-0.198l0.53-0.222l3.643-0.729l0.823-0.027l0.596,0.091
		l0.156,0.242l0.009,0.312l-0.14,0.743l-0.052,0.837l0.216,2.397l-0.04,0.383l-0.08,0.36l-0.405,0.945l-0.36,0.528l-0.636,0.7
		l-1.328,1.783l-0.115,0.276l0.028,0.32l0.288,1.006l0.172,1.585l-0.022,1.673l-0.04,0.401l-0.089,0.357l-0.256,0.646l-1.038,1.956
		l-0.317,1.095l-0.114,0.222l-0.131,0.141l-2.01,1.492l-0.555,0.242l-0.462,0.084l3.669,9.869l0.308,1.494l-0.106,0.465
		l-0.373-0.091l-0.149-0.01l-0.262,0.01l-0.248,0.101l-0.263,0.162l-0.897,0.887l-0.755,1.032l-1.356,1.326l-0.764,1.026
		l-0.239,0.202l-0.303,0.142l-1.453,0.327l-0.303,0.148l-0.265,0.172l-0.253,0.202l-1.158,1.58l-0.182,0.328l-0.28,1.006
		l0.056,1.452l-0.351,3.057l0.001,1.247l0.112,0.835l1.285,1.115l0.327,0.365l0.247,0.605l0.156,0.734l0.257,2.133l0.247,1.011
		l0.319,0.791l0.336,0.629l0.414,0.524l0.502,0.491l0.487,0.342l0.548,0.271l1.12,0.386l0.451,0.227l0.348,0.325l0.277,0.403
		l1.234,2.877l3.161,4.442l1.28,2.628l0.86,2.731l0.632,1.427l0.665,0.915l1.762,1.119l1,0.837l1.151,1.241l0.53,1.513l0.431,0.946
		l0.385,0.689l0.595,0.522L560.795,383.668z"/>
	<path class="st0" d="M516.457,399.382l4.341-4.497l0.627-0.428l1.818-1.009l0.593-0.615l0.444-0.758l0.271-0.679l0.362-0.659
		l0.63-0.56l2.582-1.525l0.782-0.808l0.544-0.903l0.291-0.791l0.402-0.811l0.493-0.675l0.568-0.601l0.644-0.35l0.541,0.061
		l0.761,0.686l0.259,0.798l0.046,0.706l-0.242,1.008l-0.052,0.479l0.043,0.537l0.168,0.479l0.417,0.452l0.596,0.418l2.736,1.043
		l0.377,0.217l0.393,0.323l2.032,2.313l2.77,2.61l0.518,0.238l0.514-0.469l0.518-0.761l2.616-5.214l0.874-1.077l1.225-0.995l4.797-2
		l7.04-1.894l1.571-1.927l1.679-2.636l0.844-0.96l2.968-2.299l6.532-7.069l0.776-0.447l1.198-0.4l15.63-2.662l-1.545,2.208
		l-1.81,2.151l-0.282,0.447l-0.182,0.539l-0.083,0.637l0.082,0.983l0.359,1.461l0.076,0.671l-0.066,0.559l-0.636,1.129l-0.245,0.627
		l0.078,2.693l-0.128,0.783l-0.398,0.777l-0.424,0.38l-0.453,0.305l-0.236,0.407l-0.125,0.716l0.27,1.235l0.521,1.565l0.032,0.584
		l-0.092,0.594l-0.618,0.957l-0.394,0.441l-0.055,0.693l0.034,0.452l0.108,0.404l0.117,0.312l0.071,0.35l0.017,0.418l-0.088,1.026
		l0.009,0.445l0.071,0.377l0.102,0.336l0.031,0.415l-0.023,0.53l-0.223,0.798l0.037,0.625l0.131,0.411l0.744,1.057l0.287,0.588
		l0.225,0.605l0.262,0.66l0.162,0.275l0.185,0.255l0.425,0.466l0.25,0.197l0.28,0.184l0.334,0.129l0.367,0.092l0.411,0.034
		l0.393-0.003l1.088-0.153l0.345,0.061l0.291,0.136l0.231,0.221l0.208,0.245l0.231,0.204l0.285,0.112h0.328l0.342-0.044l0.33-0.01
		l0.274,0.126l0.199,0.231l0.347,0.52l4.805,4.572l5.005,3.628l0.234,0.225l0.166,0.266l0.034,0.378l-0.043,0.402l-0.367,1.28
		l0.008,0.337l0.125,0.279l0.191,0.245l0.225,0.187l0.314,0.184l1.591,0.634l0.263,0.184l0.174,0.269l0.063,0.344l-0.135,1.193
		l-0.006,0.402l0.068,0.358l0.129,0.31l0.163,0.29l0.376,0.539l0.151,0.29l0.112,0.327l0.062,0.361l0.012,0.818l-1.354,0.413
		l-1.581-0.044l-1.522-0.225l-0.801-1.418l-0.108-0.9l-0.228-0.746l-0.467-0.576l-0.835-0.358l-1.02-0.194l-0.474-0.167
		l-0.471-0.324l-0.368-0.429l-0.573-0.93l-0.378-0.405l0.036,0.691l0.325,1.305l0.054,0.637l-0.662,0.048l-0.761-0.184l-1.422-0.532
		l-0.618-0.344l-1.522-1.533l-1.105-0.783l-0.685-0.02l-1.764,1.979l-13.881,19.425l-0.98,1.547l-0.125,0.816l0.017,0.307
		l-0.128,0.482l-0.286,0.448l-0.562,0.656L574,439.316l-0.565,0.478l-0.673,0.396l-2.928,1.138l-1.514-0.482l-0.692-0.858
		l-0.316-0.123l-0.531-0.034l-3.589,1.507l-3.611,1.118l-1.879,0.253l-1.517-0.109l-0.796-0.451l-0.76-0.677l-1.243-1.517
		l-0.675-0.694l-0.806-0.584l-1.219-0.499l-1.095-0.188l-6.401,0.178l-0.918-0.178l-0.729-0.362l-0.495-0.502l-0.664-0.369
		l-4.819-0.188l-1.75-0.318l-0.875-0.037l-1.681,0.15l-6.727-0.314l-1.179,0.113l-1.021,0.318l-1.802,1.155l-0.682,0.297
		l-0.775,0.225l-1.87,0.328l-1.018,0.376l-0.8,0.516l-2.83,2.69l-0.596,0.376l-3.287,1.59l-1.294,0.786l-1.92-0.256l-0.348-0.171
		l-0.504-0.308l-1.291-1.651l-1.872-1.378l-0.214-0.513l-0.048-0.154l-3.452-7.163l-0.311-0.84l-0.054-0.618l0.327-0.451
		l14.635-10.357l1.194-4.107L516.457,399.382z"/>
	<path class="st0" d="M516.457,399.382l-2.938,17.471l-1.194,4.107l-14.635,10.357l-0.327,0.451l0.054,0.618l0.311,0.84l3.452,7.163
		l0.048,0.154l0.214,0.513l-2.489-0.984l-0.442-0.075l-0.627-0.027l-0.659,0.328l-0.564,0.379l-0.424,0.355l-0.377,0.25
		l-0.425,0.222l-0.442,0.123l-0.414,0.038l-1.827-0.133l-0.49-0.157l-0.425-0.26l-0.171-0.438l0.043-0.256l0.211-0.25l0.749-0.663
		l0.724-0.81l0.173-0.335l0.068-0.308l-0.011-0.29l-0.082-0.26l-0.365-0.789l-0.165-0.495l-0.316-1.677l-0.217-0.56l-0.351-0.468
		l-0.769-0.178l-0.615-0.021l-4.437,0.27l-0.499-0.044l-1.06-0.225l-1.379-0.471l-0.712-0.133l-1.594-0.079l-0.915-0.645
		l-0.542-0.519l-2.93-5.491l-1.214-1.999l-0.673-0.75l-0.374-0.041l-0.264,0.075l-0.313,0.215l-0.414,0.389l-0.226,0.164
		l-0.365,0.099l-0.41,0.003l-0.421-0.167l-0.387-0.307l-0.596-0.815l-2.067-3.798l-0.368-1.268l-0.165-0.988l-0.323-0.845
		l-0.749-1.141l-1.805-1.982l-1.827-3.146l-0.575-0.575l-2.398-1.545l-0.193-0.187l-1.356-2.015h1.95l0.442-0.279l1.112-1.238
		l0.499-0.279l0.589-0.122l0.706-0.316l0.716-0.429l0.618-0.483l2.887-3.859l0.593-1.55l1.402-0.16l1.622,0.421l1.266,0.167
		l1.097,0.765l3.891,1.798l2.036,0.605l1.117,0.119l1.083-0.088l1.199-0.428l0.65-0.463l0.33-0.394l0.111-0.326l0.032-0.285
		l-0.006-0.255l-0.1-0.428l-0.025-0.231l0.023-0.35l0.071-0.381l0.106-0.228l0.194-0.224l0.547-0.357l0.464-0.241l0.81-0.265
		l9.411-1.77l3.266-0.948l4.022-0.469l0.921,0.112l5.577,2.259l1.021,0.69l2.204,2.508l0.299,0.194l0.283,0.241L516.457,399.382z"/>
	<path class="st0" d="M568.319,440.847l1.514,0.482l2.928-1.138l0.673-0.396l0.565-0.478l0.327-0.475l0.562-0.656l0.286-0.448
		l0.128-0.482l-0.017-0.307l0.125-0.816l0.98-1.547l2.137-0.611l0.555,0.048l0.821,0.225l0.296,0.321l0.143,0.396l0.012,0.495
		l0.103,0.557l0.24,0.618l0.776,1.032l0.265,0.441l0.079,0.489l-0.109,0.444l-0.353,0.526l-1.513,1.384l-0.451,0.684l-0.354,0.896
		l-0.086,1.494l-0.202,0.913l-0.937,2.924l-0.26,0.619l-0.371,0.469l-1.245,1.064l-0.18,0.25l-1.177,2.632l-0.391,1.188
		l-0.006,0.695l0.31,0.538l0.291,0.411l0.182,0.651l-0.2,0.733l0.022,0.647l0.393,1.339l-0.005,0.62l-0.206,1.823l0.208,0.716
		l0.344,0.518l0.28,0.212l2.466,1.004l0.799,0.435l0.473,0.185l0.444,0.082l0.79-0.391l0.501-0.082l1.44,0.058l1.701-0.11
		l1.054-0.206l1.892-0.572l0.354,0.062l0.357,0.271l0.251,0.281l0.203,0.274l0.317,0.353l0.379,0.298l0.473,0.175l1.146,0.092
		l0.447,0.12l0.382,0.226l0.376,0.49l0.017,0.555l-0.271,0.621l-0.493,0.48l-3.115,1.849l-0.77-0.158l-0.23-0.13l-0.231-0.093
		l-0.208,0.072l-0.129,0.206l-0.097,0.525l0.003,0.439l-0.059,0.401l-0.134,0.453l-0.096,0.542l0.059,3.178l-0.166,0.566
		l-0.359,0.594l-0.485,0.566l-2.472,2.424l-5.014,3.975l-1.078,0.608l-4.047,1.54l-1.24,0.23l-0.815,0.062l-0.838-0.199
		l-1.054-0.017l-1.246,0.141l-2.522,0.742l-3.506,1.513l-0.628,0.77l-0.507,1.331l-0.407,0.516l-1.121,0.946l-2.776,2.966
		l-0.95,0.643l-1.048,0.489l-4.132,0.764l-2.99,0.971l-0.887,0.678l-1.319,2.011l-0.291,0.651l-0.553,1.629l-0.575,0.889
		l-0.693,0.803l-0.86,0.724l-0.502,0.576l-0.373,0.62l-0.553,2.068l-0.448,0.493l-0.952,0.41l-1.826,0.283l-3.634,1.19l-5.113,2.776
		l-6.915,2.715l-1.017,0.024l-0.932-0.228l-0.887-0.58l-1.859-1.553l-0.387-0.224l-4.492-0.993l-0.117-0.569l0.016-0.155
		l0.074-0.331l0.273-0.71l0.129-0.576l-0.117-0.579l-0.516-0.552l-1.015-0.307l-1.879-0.031l-0.866-0.183l-0.884-0.407l-2.528-1.713
		l-0.983-0.917l-1.098-1.795l-0.476-0.947l-0.525-0.816l-0.351-0.434l-1.725-1.092l0.596-1.498l0.833-0.713l0.715-0.472l1.146-0.998
		l0.514-0.785l0.263-0.836l0.065-0.75l0.233-0.771l0.367-0.537l0.792-0.819l0.274-0.705l0.06-0.643l-0.142-0.595l-0.037-0.636
		l0.111-0.413l0.222-0.344l1.231-0.891l0.287-0.509l0.151-0.598l0.21-2.392l0.612-2.495l0.444-0.78l2.058-2.377l0.288-0.594
		l0.448-2.129l1.919,0.01l1.505,0.185l0.844-0.333l0.496-0.553l0.407-2.931l0.385-1.129l0.641-1.098l0.63-0.514l0.849-0.268
		l2.915-0.13l0.978-0.353l0.485-0.511l0.236-0.737l0.097-0.792l0.213-0.765l0.479-0.83l0.491-0.247l0.39,0.01l0.388,0.237
		l0.419,0.113l0.558-0.031l2.933-1.303l0.867-0.233l0.71-0.01l0.492,0.25l0.277,0.185l1.636,1.347l2.366,1.553l1.106,0.12l3.36-1.69
		l1.477-1.001l0.1-0.151l0.06-0.113l0.183-0.552l1.251-5.126l0.296-0.623l0.531-0.688l0.749-0.346l1.953-0.555l0.761-0.473
		l1.12-0.993l0.707-0.315l2.14-0.452l0.665-0.311l1.47-1.143l0.798-0.483l5.338-2.207l0.786-0.448l0.303-0.37l0.622-1.3l0.438-0.588
		l0.881-0.776l0.605-0.164l0.561,0.041l0.531,0.178l0.553,0.048l0.724-0.202l0.542-0.564l0.373-0.663l0.776-2.12l0.456-0.923
		l0.172-0.28L568.319,440.847z"/>
	<path class="st0" d="M501.443,441.056l1.872,1.378l1.291,1.651l0.504,0.308l0.348,0.171l1.92,0.256l-0.998,0.94l-0.422,1.19
		l-0.111,1.095l0.071,1.156l0.35,2.022l0.609,2.067l0.41,1.007l0.444,0.76l1.417,1.846l0.508,0.993l0.57,1.84l0.001,0.99
		l-0.288,0.682l-0.59,0.315l-2.549,0.634l-0.393,0.226l-0.342,0.452l-0.069,0.411l0.029,0.36l0.045,0.144l0.323,2.527l0.25,0.96
		l0.354,0.864l3.976,7.381l-0.448,2.129l-0.288,0.594l-2.058,2.377l-0.444,0.78l-0.612,2.495l-0.21,2.392l-0.151,0.598l-0.287,0.509
		l-1.231,0.891l-0.222,0.344l-0.111,0.413l0.037,0.636l0.142,0.595l-0.06,0.643l-0.274,0.705l-0.792,0.819l-0.367,0.537
		l-0.233,0.771l-0.065,0.75l-0.263,0.836l-0.514,0.785l-1.146,0.998l-0.715,0.472l-0.833,0.713l-0.596,1.498l-2.141-3.395
		l-0.524-0.255l-0.749-0.248l-0.699,0.203l-1.117-0.141l-1.114-0.695l-1.976-1.648l-1.265-0.87l-3.543-1.868l-0.434-0.155
		l-0.524-0.1l-0.559-0.014l-0.61,0.076l-0.627,0.165l-0.453,0.193l-0.362,0.196l-0.934,0.74l-0.692,0.733l-0.558,0.864l-0.336,0.805
		l-0.166,0.62l-0.227,0.482l-0.294,0.365l-0.641,0.31l-0.316,0.423l-0.197,0.327l-0.094,0.31l-0.229,0.275l-0.424,0.351
		l-0.878,0.344l-0.508,0.399l-0.336,0.609l-0.088,0.885l-0.005,1.02l-0.089,0.768l-0.399,0.651l-0.779,0.52l-3.072,1.085
		l-5.258,1.168l-1.584-0.148l-1.296-0.589l-0.963-0.686l-1.59-0.427l-0.843-0.444l-0.605-0.606l-0.405-0.558l-0.796-0.424
		l-4.333-0.958l-0.799-0.43l-0.45-0.537l-0.37-0.582l-0.407-0.441l-1.513-0.885l-0.391-0.465l-0.21-0.465l-0.424-1.184l-0.313-0.63
		l-0.356-0.461l-0.685-0.385l-0.407-0.289l-0.992-1.4l-2.027-1.046l1.168-1.352l1.276-0.991l0.699-1.039l2.303-4.496l7.924-7.962
		l0.254-0.474l0.074-0.687l-1.661-9.677l2.796-2.684l1.367-1.765l1.596-3.062l0.233-1.438l-0.116-1.171l-1.388-4.535l-0.088-1.478
		l0.226-1.953l0.744-2.284l0.648-1.33l0.712-1.005l2.124-2.078l1.938-2.265l5.022-8.123l0.399-0.502l1.73-1.566l2.437-1.522
		l2.93,5.491l0.542,0.519l0.915,0.645l1.594,0.079l0.712,0.133l1.379,0.471l1.06,0.225l0.499,0.044l4.437-0.27l0.615,0.021
		l0.769,0.178l0.351,0.468l0.217,0.56l0.316,1.677l0.165,0.495l0.365,0.789l0.082,0.26l0.011,0.29l-0.068,0.308l-0.173,0.335
		l-0.724,0.81l-0.749,0.663l-0.211,0.25l-0.043,0.256l0.171,0.438l0.425,0.26l0.49,0.157l1.827,0.133l0.414-0.038l0.442-0.123
		l0.425-0.222l0.377-0.25l0.424-0.355l0.564-0.379l0.659-0.328l0.627,0.027l0.442,0.075L501.443,441.056z"/>
	<path class="st0" d="M507.377,444.82l1.294-0.786l3.287-1.59l0.596-0.376l2.83-2.69l0.8-0.516l1.018-0.376l1.87-0.328l0.775-0.225
		l0.682-0.297l1.802-1.155l1.021-0.318l1.179-0.113l6.727,0.314l1.681-0.15l0.875,0.037l1.75,0.318l4.819,0.188l0.664,0.369
		l0.495,0.502l0.729,0.362l0.918,0.178l6.401-0.178l1.095,0.188l1.219,0.499l0.806,0.584l0.675,0.694l1.243,1.517l0.76,0.677
		l0.796,0.451l1.517,0.109l1.879-0.253l3.611-1.118l3.589-1.507l0.531,0.034l0.316,0.123l0.692,0.858l-0.351,0.725l-0.172,0.28
		l-0.456,0.923l-0.776,2.12l-0.373,0.663l-0.542,0.564l-0.724,0.202l-0.553-0.048l-0.531-0.178l-0.561-0.041l-0.605,0.164
		l-0.881,0.776l-0.438,0.588l-0.622,1.3l-0.303,0.37l-0.786,0.448l-5.338,2.207l-0.798,0.483l-1.47,1.143l-0.665,0.311l-2.14,0.452
		l-0.707,0.315l-1.12,0.993l-0.761,0.473l-1.953,0.555l-0.749,0.346l-0.531,0.688l-0.296,0.623l-1.251,5.126l-0.183,0.552
		l-0.06,0.113l-0.1,0.151l-1.477,1.001l-3.36,1.69l-1.106-0.12l-2.366-1.553l-1.636-1.347l-0.277-0.185l-0.492-0.25l-0.71,0.01
		l-0.867,0.233l-2.933,1.303l-0.558,0.031l-0.419-0.113l-0.388-0.237l-0.39-0.01l-0.491,0.247l-0.479,0.83l-0.213,0.765
		l-0.097,0.792l-0.236,0.737l-0.485,0.511l-0.978,0.353l-2.915,0.13l-0.849,0.268l-0.63,0.514l-0.641,1.098l-0.385,1.129
		l-0.407,2.931l-0.496,0.553l-0.844,0.333l-1.505-0.185l-1.919-0.01l-3.976-7.381l-0.354-0.864l-0.25-0.96l-0.323-2.527
		l-0.045-0.144l-0.029-0.36l0.069-0.411l0.342-0.452l0.393-0.226l2.549-0.634l0.59-0.315l0.288-0.682l-0.001-0.99l-0.57-1.84
		l-0.508-0.993l-1.417-1.846l-0.444-0.76l-0.41-1.007l-0.609-2.067l-0.35-2.022l-0.071-1.156l0.111-1.095l0.422-1.19L507.377,444.82
		z"/>
</g>
<g id="Copyright">
	<text transform="matrix(1 0 0 1 681.6426 577.5916)" class="st1 st2"> Vemaps.com</text>
</g>
</svg>
