<svg xmlns="http://www.w3.org/2000/svg" xmlns:xlink="http://www.w3.org/1999/xlink" version="1.1" width="256" height="256" viewBox="0 0 256 256" xml:space="preserve">

<defs>
</defs>
<g style="stroke: none; stroke-width: 0; stroke-dasharray: none; stroke-linecap: butt; stroke-linejoin: miter; stroke-miterlimit: 10; fill: none; fill-rule: nonzero; opacity: 1;" transform="translate(1.4065934065934016 1.4065934065934016) scale(2.81 2.81)" >
	<path d="M 68.045 89.028 l 3.93 -4.264 c 1.129 -1.225 1.051 -3.132 -0.174 -4.261 l -37.4 -34.473 c -0.602 -0.555 -0.602 -1.505 0 -2.06 l 37.4 -34.473 c 1.225 -1.129 1.302 -3.037 0.174 -4.261 l -3.93 -4.263 c -1.129 -1.225 -3.037 -1.302 -4.261 -0.174 l -45.609 42.04 c -1.263 1.164 -1.263 3.159 0 4.323 l 45.609 42.04 C 65.008 90.331 66.916 90.253 68.045 89.028 z" style="stroke: none; stroke-width: 1; stroke-dasharray: none; stroke-linecap: butt; stroke-linejoin: miter; stroke-miterlimit: 10; fill: rgb(0,0,0); fill-rule: nonzero; opacity: 1;" transform=" matrix(1 0 0 1 0 0) " stroke-linecap="round" />
</g>
</svg>