<?xml version="1.0" encoding="utf-8"?>
<!-- Generator: Adobe Illustrator 23.0.1, SVG Export Plug-In . SVG Version: 6.00 Build 0)  -->
<svg version="1.1" xmlns="http://www.w3.org/2000/svg" xmlns:xlink="http://www.w3.org/1999/xlink" x="0px" y="0px"
	 viewBox="0 0 800 600" style="enable-background:new 0 0 800 600;" xml:space="preserve">
<style type="text/css">
	.st0{fill:#808080;stroke:#FFFFFF;stroke-width:0.5;stroke-linecap:round;stroke-linejoin:round;}
	.st1{font-family:'Roboto-Regular';}
	.st2{font-size:14px;}
</style>
<g id="South_Korea">
	<path class="st0" d="M448.14,30l2.405,4.767l3.755,7.441l0.747,3.261l1.914,4.937l7.111,14.083l5.544,14.76l0.904,1.604l2.89,3.582
		l1.108,3.006l13.422,19.221l5.21,7.593l6.239,6.923l0.885,0.725l4.181,4.924l0.216,2.078l0.02,2.5l0.498,2.118l2.851,1.588
		l0.826,1.704l2.353,7.67l1.049,1.776l1.258,0.756l1.055,1.094l3.664,7.214l2.202,2.771l0.76,1.525l0.295,1.616l0.557,1.566
		l3.886,4.28l1.239,3.508l1.101,7.657l1.514,4.21l4.129,5.76l0.315,1.207l-0.472,1.166l-0.747,1.113l-0.472,1.088l-0.033,0.977
		l0.583,3.155l0.708,9.004l0.747,4.154l2.674,8.477l0.216,4.147l-0.839,3.834l-1.815,3.481l-1.475,4.128l-0.807-0.035l-2.688-0.617
		l-2.58,1.143l-5.576-2.061l0.891-2.388l-0.25-2.241l-0.707-2.483l-0.216-2.814l1.074-2.67l0.866-2.53l-0.633-0.748l-0.691-0.657
		l0.325-2.284l-5.901-0.442l-1.731-0.985l-1.848-0.793l-0.757-1.851l-0.591-2.143l-2.655-1.259l-1.656-2.509l-0.358-3.264l0.583-2.5
		l1.373-1.042l1.507-0.565l2.347,0.93l1.906-1.428l-0.782-2.324l-2.514-1.517l-2.755-0.644l-2.189,1.157l-2.106,0.534l-2.971-1.366
		l-3.155-0.532l-1.065,0.435l-0.882-0.109l-0.682-0.915l-0.982-0.409l-2.289,1.786l-2.414,0.949l-0.183-1.767l0.2-1.755
		l-1.398-0.696l-1.556-0.357l-1.132-1.99l-2.197-0.172l-2.189,1.028l-1.465,1.789l0.533,2.482l-0.258,2.317l-0.474,2.155
		l-2.056-0.193l-2.405-0.518l-1.989-0.836l-2.064-1.097l-1.615-1.045l-1.631-0.709l-2.047-0.237l-2.098-0.415l-2.122-1.377
		l-1.914-1.452l-1.923,0.013l-1.939,0.621l-1.731,0.308l-1.465,0.109l-0.583-1.327l-1.598-1.662l0.142-1.44l-0.799-0.882
		l-3.837,0.438l-2.447,0.819l-0.732,0.344l-0.716-0.016l-1.14-0.631l-0.882-0.997l1.382-2.145l2.322-1.655l0.932-2.128l-1.448-0.436
		l-4.594-0.726l-4.495-1.604l-1.864,1.442l-1.59,0.836l-1.923-0.405l-1.615,1.248l-2.663,1.486l-2.672,0.648l-0.999-1.402v-2.17
		l-3.063-3.247l-4.103,1.39l-1.523,1.87l0.441,4.911l-1.631,1.12l-0.541,0.66l-0.624,0.545l-0.691-0.324l-0.683-0.425l-2.464-0.172
		l-2.447,0.579l0.691-4.876L395.612,180l-8.506,2.334l4.37-8.098l3.579-8.805l4.961-10.599l0.616-2.277l-0.466-2.28l1.057-1.845
		l1.49-1.817l1.598-0.663l0.841-1.807l-0.916-1.561l-1.198-1.026l-1.914-0.213l-1.964-0.748l-2.713-0.365l-4.528-2.509l-2.039-0.835
		l-2.023-1.331l-2.222-0.344l-2.156,0.683l-1.789-1.513l0.141-1.647l0.849-1.729l0.333-2.003l0.025-2.063l-2.131,0.689l-0.957-1.241
		l2.347-2.761l-0.391-1.841l-0.649-1.829l0.466-1.387l-0.025-1.658l-0.158-1.569l4.087-3.021l1.656-0.54l0.924-1.423l0.416-4.138
		l-1.906-2.927l-1.565-0.319l-1.49-0.688l-1.124-3.018l-1.781-0.09l-1.906,0.127l-2.081-1.523l-0.991-2.703l-0.408-4.809
		l-0.774-2.423l-0.541-0.468l-0.633,0.106l-0.424,0.412l-0.533,0.077l-1.373-0.973l-3.362,1.192l-3.088-0.751l-1.249-0.761
		l-1.273-1.152l-0.042-1.93l0.624-1.82l0.458-0.693l0.325-0.664l-0.533-0.447l-0.682-0.164l-0.649,0.138l-0.566,0.439l-1.065,1.386
		l-1.19,1.209l-1.831,0.315l-1.615-1.1l-0.3-1l-0.125-1.013l-0.583-0.357l-0.616,0.651l-0.208,1.042l-0.017,3.369l-1.049,1.644
		l-2.955-1.401l-2.705-2.449l-0.949-1l-0.999,0.127l-0.891-1.296l-0.558-1.688l-0.733-0.886l-0.874-0.701l-0.674-1.609l-1.199-0.764
		l-2.837-1.807l-1.595-0.783l0.471-0.602l4.415-3.645l5.131-3.22l5.398-2.193l5.194-0.562l2.564,0.273l9.93-0.87l7.637,2.32
		l2.426-0.223l4.732-1.437l15.535-1.363l0.662,0.451l1.028,1.49l0.99,1.002l1.107,0.284l5.323-1.122l8.448,0.493l5.485-0.435
		l5.527-1.973l5.144-3.332l4.286-4.502l1.864-2.672l1.557-2.853l1.049-3.173l0.35-3.651l-0.682-3.522l-0.175-1.796l0.508-1.331
		l2.197-1.744L448.14,30z"/>
	<path class="st0" d="M311.441,111.656l-0.559-8.774l0.424-2.432l0.97-0.71l1.49-0.164l2.077-0.792l3.204-2.56l6.879-10.532
		l1.407-1.433l3.104-2.412l1.328-1.537l1.635-4.053l1.095-2.715l0.993-1.268l1.595,0.783l2.837,1.807l1.199,0.764l0.674,1.609
		l0.874,0.701l0.733,0.886l0.558,1.688l0.891,1.296l0.999-0.127l0.949,1l2.705,2.449l2.955,1.401l1.049-1.644l0.017-3.369
		l0.208-1.042l0.616-0.651l0.583,0.357l0.125,1.013l0.3,1l1.615,1.1l1.831-0.315l1.19-1.209l1.065-1.386l0.566-0.439l0.649-0.138
		l0.682,0.164l0.533,0.447l-0.325,0.664l-0.458,0.693l-0.624,1.82l0.042,1.93l1.273,1.152l1.249,0.761l3.088,0.751l3.362-1.192
		l1.373,0.973l0.533-0.077l0.424-0.412l0.633-0.106l0.541,0.468l0.774,2.423l0.408,4.809l0.991,2.703l2.081,1.523l1.906-0.127
		l1.781,0.09l1.124,3.018l1.49,0.688l1.565,0.319l1.906,2.927l-0.416,4.138l-0.924,1.423l-1.656,0.54l-4.087,3.021l0.158,1.569
		l0.025,1.658l-0.466,1.387l0.649,1.829l0.391,1.841l-2.347,2.761l0.957,1.241l2.131-0.689l-0.025,2.063l-0.333,2.003l-0.849,1.729
		l-0.141,1.647l1.789,1.513l2.156-0.683l2.222,0.344l2.023,1.331l2.039,0.835l4.528,2.509l2.713,0.365l1.964,0.748l1.914,0.213
		l1.198,1.026l0.916,1.561l-0.841,1.807l-1.598,0.663l-1.49,1.817l-1.057,1.845l0.466,2.28l-0.616,2.277l-4.961,10.599l-3.579,8.805
		l-4.37,8.098l-0.566,1.075l-0.649,0.976l-0.649,0.454l-0.624,0.503l-0.466,0.788l-0.391,0.858l-3.845,7.162l-2.022,1.412
		l-0.458-0.607l-1.573-0.331l-1.248,1.329l-0.666,1.675l-0.974,1.263l-2.064,0.893l-1.315,1.427l-0.724,2.965l-2.68,0.9l-3.421,1.65
		l-3.612,1.061l-3.804-0.515l-3.113-2.618l-3.479-1.588l-6.692,2.865l-3.155-0.003l-3.754-0.773l-0.025-0.005l1.028-0.785
		l1.212-0.574l0.872-0.984l0.551-2.443l-0.157-0.435l-0.747-0.792l-0.144-0.209l0.432-0.406l0.433-0.053l0.413,0.016l1.121-0.623
		l0.714-0.107l0.531-0.353l0.21-1.169l-4.817,1.354l-0.727,1.03l0.255,3.117l-0.583,0.705l-1.874,0.615l-2.667-0.373l-3.166-1.849
		l-2.857-2.813l-1.086-2.694l4.822-0.531v-0.628l-0.334-0.16l-0.76-0.583l0.904-0.119l0.859,0.049l0.786,0.271l0.695,0.542
		l-0.341-1.921l-1.101-1.712l-0.799-1.963l0.59-2.662l-0.911-0.411l-0.701,0.933l-0.433,1.606l-0.144,1.622l-0.374,1.761
		l-0.767,0.406l-0.76-0.763l-1.54,0.32l-1.553,0.398l-3.709-1.117l0.025-1.143l-0.349-1.004l0.292-1.359l-0.157-1.73l0.934-1.714
		l1.113-1.53l1.282-0.618l1.371-0.525l2.038-0.032l2.176-0.592l0.452-0.674l0.125-1.871l-0.498-0.366l-1.121,0.613l-1.671,1.452
		l-1.042-0.214l-0.767-0.452l-0.413-0.798l0.007-1.234l-1.914,0.979l-1.553,1.11l-2.87,3.116l-0.741,0.592l-0.931,0.333
		l-0.865-0.029l-0.524-0.518l0.033-0.929l0.491-0.904l1.186-1.677l-2.346,0.543l-0.747-0.234l-0.256-1.382l0.433-1.024l0.983-0.58
		l1.121-0.382l0.813-0.457l0.977-1.337l-0.256-0.346l-2.156,0.3l-0.714-0.44l-0.564-1.086l-0.537-1.358l-0.649-1.26l0.361-0.103
		l0.229-0.161l0.511-0.486l0.59,0.453l0.891-0.049l1.566-0.403l1.278,0.354l1.068,0.663l1.055,0.342l1.239-0.609l-0.098,1.128
		l0.098,1.095l0.393,0.848l0.767,0.383l0.845-0.333l0.393-0.951l0.4-2.169l1.357-2.034l1.114,0.156l1.258,0.762l1.776-0.259
		l-0.38-0.828l-0.492-0.614l-0.623-0.412l-0.754-0.222l-1.119,0.042l-0.511-0.772l-1.203-0.219l-0.97,0.308l-0.965-0.055
		l-1.525-0.304l-2.523-0.8l-3.505-2.665l-0.186-1.169l1.561-2.273l1.061-1.073l2.539-0.743l0.599-0.443l1.057-0.782l1.149-2.221
		l0.757-2.5l-0.766-1.258l-1.298-0.852l-0.866-1.99l0.008-2.397l-4.744-4.565l-4.13,0.147l-3.667,0.13l-0.393-0.893l-0.628-1.502
		l-0.713-1.18L303.748,135l-0.92-0.9l-0.018-1.372l-0.332-2.051l-0.865-3.204l-1.16-8.367l0.315-1.376l1.068-0.199l4.437,1.592
		l1.416-0.307l1.18-0.555l1.049-0.207l1.075,0.721l0.4,1.202l0.157,1.877l-0.118,1.926l-0.439,1.317l-0.033,2.385l2.471,2.074
		l3.133,1.32l1.946,0.12l-1.514-1.568l-4.64-3.353l1.35-3.612l0.4-2.163l-0.341-1.525l-0.76-1.596l-0.066-0.872l-0.092-1.164
		l0.367-2.045l0.845-1.63l-0.603-0.759l-0.793,0.112L311.441,111.656z M347.553,139.869l0.741-2.877l-0.05-2.482l-0.841-2.262
		l-0.533-3.237l-1.382-2.382l-2.897-0.237l-2.514,0.602l-1.606,1.722l-1.132,2.402l-1.856,2.365l-3.612,0.347l-0.466,1.613
		l-0.133,1.749l-1.706,1.04l-1.914,0.651l-2.58-1.575l-2.256-0.144l-1.207,2.596l1.906,2.336l1.598,2.28l0.424,2.914l1.606,1.059
		l2.33,0.703l2.364,3.111l3.454,0.118l1.473-0.241l1.415-0.812l1.998-0.624l2.014-0.467l0.924,2.123l2.364-1.19l2.297-0.535
		l2.089-1.242l0.766-1.326l1.382-1.888l-0.649-0.729l-0.025-1.836l1.223-0.813l1.124-0.569l0.216-1.514l-0.616-1.478l-1.64,0.024
		l-1.889,0.682L347.553,139.869z M281.467,114.238l1.586-0.025l1.475,0.232l0.747,0.846l-0.531,1.808l-1.429,1.235l-1.77,0.116
		l-3.355-0.721l-0.741,0.29l-0.904,0.481l-0.78,0.021l-0.321-1.107l0.177-0.348l0.924-2.811l0.99-0.962l1.134-0.307l1.291,0.332
		L281.467,114.238z M286.415,125.171l1.003,0.795l0.773,0.878l0.157,0.969l-0.852,1.101l-1.632,0.099l-5.466-4.264l0.708-0.646
		l0.334-0.808l0.459-1.914l0.249-0.493l0.393-0.522l0.452-0.381l0.465-0.116l0.301,0.17l0.197,0.311l0.118,0.431l0.249,1.864
		l0.092,0.352l0.387,0.671l0.511,0.572L286.415,125.171z M298.585,135.165l-0.616,0.07l-0.485-0.223l-0.845-0.918l-0.609-0.372
		l-0.433,0.153l-0.334,0.343l-0.308,0.19l-4.234,0.232l-1.573-0.736l-1.651-2.213l2.477-0.65l0.59-0.393l0.682-1.072l-0.092-0.493
		l-0.452-0.31l-0.413-0.555l-2.871-5.483l-0.177-0.833l0.295-1.094l-0.079-4.825l0.334-1.099l0.78-0.294l1.901-2.211l1.468-0.382
		l1.285,0.929l1.212,1.439l1.219,1.12l2.589,1.306l1.029,1.036l0.413,1.637l-0.092,0.82l-0.419,1.38l-0.092,0.613l0.184,0.688
		l0.747,1.375l0.17,0.754l0.262,3.66l-0.262,0.853l0.446,0.546l0.452,1.088l0.256,0.447l-1.042,0.625l-0.904,2.143L298.585,135.165z
		 M155.629,96.076l0.885,1.102l-0.131,1.496l-1.114,0.819l-1.566-0.947l-2.051,0.179l-0.426,0.204l0.033,1.072l0.786,0.395
		l0.944,0.17l0.439,0.39l-1.645,1.296l-3.29-0.461l-2.451-2.098l0.839-3.616l2.045,0.732l4.47-1.571L155.629,96.076z
		 M265.731,172.563l-0.57,0.321l-0.334-0.115l0.007-0.362l0.249-1.655l0.452-1.367l0.59-0.819l0.649,0.449l0.564,0.959l0.577,0.473
		l1.986,1.046l0.609,0.675l-0.334,0.626l-1.022,1.045l-0.727,0.309l-0.944,0.144l-0.8-0.366l-0.524-0.914l-0.21-0.514
		L265.731,172.563z M296.671,167.405l0.832,0.556l0.315,1.223l-0.354,0.42l-0.865,0.296l-0.334,0.667l-0.065,0.622l-0.701,0.823
		l-0.911,0.222l-0.623-0.461l-0.662,0.066l-0.524-0.329l-0.184-1.276l0.151-1.309l0.662-0.922l1.422-0.758L296.671,167.405z
		 M307.131,169.814l0.197,0.469l0.197,0.865l-0.426,0.93l-4.109,3.279l-1.868,0.234l0.02-0.51l0.878-1.193l0.118-0.683l-0.367-0.589
		l1.049-1.198l0.033-1.21l-0.433-1.495l-0.596-1.038l-0.583-0.671l0.177-0.206l1.324,0.642l1.134-0.997l0.256,0.082l-0.236,0.877
		l0.334,0.795l0.944,0.544l1.534,0.642L307.131,169.814z M232.583,126.786l0.885,0.116l0.564,0.592l-0.249,1.105l-0.767,0.762
		l-0.465,0.223l-0.262-0.563l-0.432-1.258l0.098-0.878L232.583,126.786z M154.325,109.708l0.642,0.332l0.111,0.639l-0.361,0.913
		l-0.249,1.045l-0.328,0.879l-0.596,0.328l-0.629-0.054l-0.531,0.191l-0.413,0.431l-0.216,0.079v-0.27l0.013-0.133l-0.262-0.498
		l-0.642-0.838l0.242-0.801l1.357-1.083l0.865-0.905l0.406-0.324L154.325,109.708z"/>
	<path class="st0" d="M290.338,249.967l0.606,1.852l1.088,1.678l0.459,1.564l-0.767-0.358l-3.578,0.204l-1.16-0.187l-0.22-1.497
		l0.388-0.533l0.619-0.57l0.327-0.887l-1.92,1.214l-0.898-0.432l0.249-1.495l1.455-2.017l-0.551-0.619l-1.101,1.304l-0.373-0.9
		l-0.845,0.453l0.44-2.404l-0.31-3.67l-0.371-2.219l-0.832-2.8l0.696-0.913l1.427-1.328l1.535-0.524l1.071,1.718l0.144,0.616
		l-0.35,0.735l-0.614,0.493l0.072,0.689l1.357,3.076l0.216,0.979l-0.354,0.816l0.416,0.719l0.914,0.542l0.716,1.25h-1.691v0.62
		l0.551,0.11l1.14,0.64l-0.089,0.631l-0.081,0.496L290.338,249.967z M323.087,291.065l-1.656,0.51l-1.625,1.123l-1.363,1.313
		l-1.507,0.725l-1.796,0.304l-1.684,0.745l-1.225-0.599l-0.413-0.693l-0.131-0.911l-0.419-1.252l-0.669-1.082l-1.357-1.788
		l-0.727-1.212l1.121-0.908l-0.524-0.624l-1.101-0.462l-1.008-0.337l-1.843-3.171l-1.416-0.616l-1.071,0.62l-0.507-0.004
		l-0.041-1.098l-1.82-1.166l-1.572,0.248l-0.489,1.878l-0.268,0.645l-0.551-0.507l0.321-2.913l2.734-1.389l2.415-0.763l3.378,0.975
		l-1.193-1.973l-0.675-0.776l-0.898-0.658l-0.537-0.126l-0.642,0.378l-0.459-0.252l-0.603-0.658l-0.498-0.707l1.691-4.656
		l0.97-2.053l1.18-0.785l-0.891-1.094l-3.421-1.049l-1.232-0.655l1.212-1.123l3.585-0.87l0.747-1.042l-0.518-1.327l-1.271-0.334
		l-2.654-0.016l-0.551-0.383l-0.95-1.16l-0.649-0.574v-0.676h1.049l-1.207-2.243l1.459-0.809l1.662-0.504l1.549-2.263l3.316-0.925
		l1.569-0.84h-4.699l-1.134,0.648l-1.737,2.591l-1.278,0.244l-0.799-0.974l-0.734-1.85l-0.465-1.899l0.052-1.121l1.678-1.969
		l0.78-1.215l-0.256-0.546l-1.544,0.559l-0.697-0.657l-0.632-0.42l-0.382-0.079l-0.374-0.921l0.352-0.84l-0.068-0.919l-0.405-1.723
		l-0.49-0.731l-0.035-0.42l1.111-0.07l1.61-0.749l1.68,0.055l0.125-1.222l0.483-1.081l-0.657-0.871l-0.955-0.199l-1.293-1.281
		l0.818-1.176l1.133-0.913l-0.767-1.392l-1.931-0.363l-0.391-1.677l0.617-1.236l1.884-0.3l-1.081-1.235l-0.374-0.622l-0.249-0.883
		l-0.675,0.577l-1.14,1.247l-1.278,0.548l-0.256,0.711l0.046,0.707l0.569,0.874l0.1,1.703l-0.593,1.958l0.354,2.628l-0.855,2.243
		l-0.729,0.917l-1.491-1.165l-1.557-0.069l-1.55-1.021l0.388-5.422l0.478-1.959l-0.925-0.441l0.279-2.547l-0.865-1.039l-1.298,0.229
		l-0.728,1.308l-0.197,1.607l-0.583,1.177l-1.835,0.029l0.754,1.545l1.468,2.349l0.531,1.654l-0.885,0.751l0.118,0.829l1.357,1.841
		l-1.232,0.245l-1.042,0.596l-0.872,0.857l-0.701,1.041l0.013-0.735l-0.092-0.747l-0.184-0.678l-0.275-0.58l1.108-2.45l-2.366-3.889
		l0.708-1.949l-0.609-2.743l-1.488,0.834l-2.13,2.697l-1.573,0.584l-0.924,0.184l-0.826,0.327l-0.826,0.057l-0.977-0.568
		l-0.236-0.466l-0.334-0.936l-0.125-0.924l0.393-0.417l3.323,0.033l0.845-0.576l-0.02-1.517l-0.865-1.578l-1.239-0.609l-1.298-0.38
		l-1.042-0.859l-0.413,1.202l-0.236,2.502l-0.452,1.161l-0.944,0.858l-0.315-0.809l0.098-2.518l-0.157-2.446l0.223-0.679
		l2.065-2.627l0.406-0.917l0.321-1.285l0.256,0.974l0.347,0.876l0.433,0.827l0.557,0.818l0.426-0.401l0.531,0.041l0.609,0.213
		l0.688,0.147l-0.845-1.195l-0.859-1.547l2.294,0.688l0.944-0.246l0.609-1.195l-2.058-0.147l-1.265-0.573l-0.151-1.253l1.33-2.146
		l-1.822-1.511l0.118-1.401l1.389-1.131l1.966-0.709l-0.511,2.458l0.197,0.68l1.108,0.238l1.999-0.037l0.537-0.373l0.524-0.905
		l0.144-2.266l-0.203-3.045l0.374-2.485l1.874-0.578l-0.242,1.39l0.059,2.177l0.354,2.205l1.003,2.651l-0.491,0.934l-0.786,0.836
		l-0.492,0.872l0.026,0.926l0.505,1.482l0.066,0.401l-0.439,0.475l-1.448,0.95l-0.302,0.262l0.079,0.868l0.262,0.917l0.426,0.536
		l0.577-0.266l1.357-1.252l1.016-0.029l2.32,1.596l-1.665-3.61l-0.59-2.248l0.859-1.007l1.298,1.663l0.793,0.516l0.367-1.089
		l0.341-0.34l0.839-0.34l1.612-0.41v-0.627l-0.642-0.098l-1.553-0.651v-0.627l1.94-0.455l1.14-1.856l0.295-2.262l-0.629-1.673
		l-0.701-0.234l-2.11-0.037l-1.042-0.422l-0.78-0.951l-0.256-0.935l0.387-0.328l1.16,0.841l0.531-1.563l-0.57-0.927l-1.239-0.377
		l-1.475,0.111l0.596-0.775l0.8-0.558l0.865-0.148l0.786,0.447l0.767,0.591l0.675,0.135l0.308-0.312l-0.354-0.759v-0.751
		l2.969-0.049l1.422,0.501l0.603,1.333l-0.406,0.825l-0.773,0.874l-0.472,1.144l0.511,1.632l0.708-0.709l0.911-0.496l0.786,0.016
		l0.334,0.845l0.092,0.705l0.374,0.64l0.085,0.689l-0.144,0.262l-0.728,0.869l-0.229,0.623v4.499l0.269,1.302l0.59,0.913l0.59,0.344
		l0.262-0.471l0.328-2.506l1.475-4.81l0.341-2.369l0.433-0.558l0.977,0.664l1.396,1.55l0.57,1.09l0.413,1.008l0.609,0.664
		l1.147,0.049v-0.623l-0.577-0.766l-0.701-2.054l-0.616-1.025l-4.935-5.225l-0.354-0.283l0.275-1.087l0.688,0.123l0.826,0.78
		l1.285,1.608l0.682,0.607l0.826,0.377l1.003,0.004l0.754-0.443l0.072-0.693l-0.55-0.648l-1.14-0.283l-1.534-0.739l-1.668-1.564
		l-0.752-2.329l-0.175-1.562l1.475-0.041l1.285,0.62l1.153,1.014l1.612,1.153l1.539,1.065l0.631,0.645l1.222,0.834l1.178,0.651
		l0.805,1.376l-0.379,1.363l-0.782,0.922l0.157,0.722l0.8,1.534l0.098,0.943l-0.295,1.656l0.885-0.615l0.354-0.746l0.216-0.836
		l-0.306-2.472l0.328-0.817l0.511-0.861l0.745-1.404l1.329-0.623l1.247-0.012l1.395,0.179l1.543,0.566l1.953,0.525l1.401,0.92
		l1.697,1.747l0.118,2.153l-1.265,4.352l0.963-0.639l1.514-1.955l0.826-0.152l0.577,0.828l0.334,1.483l0.177,2.876l-0.085,0.614
		l-0.374,1.368l-0.079,0.794l0.157,0.827l0.714,1.203l0.682,3.131l-0.229,0.896l-1.324,0.405l0.243,0.847l0.315,0.577l0.465,0.393
		l0.668,0.307l0.472-2.258l0.793-1.342l0.406-1.432l-0.668-2.521l1.632,0.475l1.711,0.213l-2.766-3.071l-0.826-1.691l1.645-0.737
		l1.481-0.246l3.5-1.413l1.547-1.182l0.025,0.005l3.754,0.773l3.155,0.003l6.692-2.865l3.479,1.588l3.113,2.618l3.804,0.515
		l0.633,1.493l0.949,0.999l1.082,0.629l1.382,2.787l1.057,0.743l-0.083,2.069l0.666,0.611l0.533,1.011l0.175,1.14l-0.2,1.135
		l-0.391,1.059l-0.25,1.098l-0.108,0.865l-0.408,0.768l-0.749,0.21l-0.766-0.119l-0.674,0.724l-1.698,2.953l-2.231,3.237
		l-11.459-4.572l-1.877,5.2l0.252,15.189l-1.223,1.172l-0.733,2.098l7.333,1.441l5.49-1.502l4.314,6.771l1.46,2.849l0.417,7.248
		l1.668,5.431l3.962-1.034l3.505-2.622l1.157-0.392l2.106-1.701l1.165-4.32l1.057-1.7l0.391-2.349l1.057-1.427l1.357-0.99
		l1.115,0.504l1.032,0.344l-0.308,1.734l-1.323,1l-0.816,1.488l-0.733,1.674l-1.823,3.285l-0.965,3.861l-0.142,2.761l0.216,2.84
		l2.597-0.539l2.389,0.776l2.472,1.516l0.832,2.967l-0.108,3.447l0.691,3.418l1.64,2.922l1.831,2.849l-1.906,1.914l-1.956,1.721
		l-2.389,0.663l-2.372,0.111l-1.74,0.427l-4.661-0.612l-0.333-0.8l0.566-1.137l-0.483-0.993l-1.032-0.262l-2.672-1.346l-3.621-6.531
		l-2.572-2.287l-1.348,1.383l-1.082,1.687l-1.69,0.35l-1.14,0.51l-1.165,0.407l-4.436,0.865l-2.255,0.875l-2.381,0.445l-1.715-2.672
		l0.716-4.399l-2.971-0.595l-8.34,2.633l-4.528,0.974l-3.854,0.422L323.087,291.065z"/>
	<path class="st0" d="M315.675,157.474l-0.232-0.688l-4.221-0.54l-1.966,2.511l-2.034-1.556l0.829-1.842l1.067-1.609l-0.67-1.138
		l-1.442-0.784l-1.322-0.701l0.186-1.853l-0.263-1.455l0.785-1.362l2.31-0.698l0.691-0.354l0.172-0.845l-1.086-0.296l-0.294,0.884
		l-1.657,0.181l-0.431-1.014l-0.177-1.858l0.394-2.457l3.667-0.13l4.13-0.147l4.744,4.565l-0.008,2.397l0.866,1.99l1.298,0.852
		l0.766,1.258l-0.757,2.5l-1.149,2.221l-1.057,0.782l-0.599,0.443L315.675,157.474z M303.053,143.538l0.316,0.326l0.315,0.496
		l0.427,0.404l0.333,0.684l0.2,0.532l-0.438,0.183l-0.68,0.507l-0.275,0.368l-1.407,0.338l-0.623-0.104l-0.856,0.403l-1.881,0.823
		l-1.014,0.911l-0.561,0.993l-3.511,2.654l-0.791-0.18l-0.738,0.085l-0.32-0.08l-0.337-1.237l-0.637-0.404l-0.293,0.321
		l-0.266,0.091l-0.092-0.209l0.137-0.357l-0.201-0.494l-0.49-0.063l-0.324,0.429l-0.498,0.392l-0.602-0.272l-0.866-0.218
		l0.512-0.509l-0.178-0.55l-0.881-0.84l-0.215-0.529l0.309-0.752l0.479-0.145l0.667,0.347l3.649-2.559l2.613-0.286l1.776,0.043
		l1.637-0.865l0.56-2.275l1.141-0.423l0.93,0.94l0.452,0.178l0.465,0.264l0.459,0.19l0.452,0.025l0.486,0.095L303.053,143.538z"/>
	<path class="st0" d="M292.873,358.183l-1.111-1.265l-0.393-1.053l0.59-2.336l1.383-2.892l2.182-5.102l1.84-2.652l2.627-0.943
		l2.993-0.617l2.559-0.139l1.181-0.947l1.134-1.639l1.604-0.412l1.437,1.615l1.475,1.824l1.081,0.362l-1.049-3.697l-0.747-1.68
		l-1.219-0.701l-11.426,1.869l-3.98-2.483l0.242-2.665l0.066-1.066l1.886-0.939l1.646-1.627l1.524-1.748l2.417-1.411l2.965-1.636
		l2.252-3.148l0.343-2.963l1.238-0.737l0.915-0.579l0.486-0.423l2.889-0.292l2.827,0.35l1.792,1.384l1.284,0.323l0.859,1.486
		l0.334-0.808l0.275-1.123l0.118-1.167l-1.076-0.858l-0.741-0.542l-1.54-0.765l-1.749-1.194l-1.421-1.065l-0.747-0.38l0.216-0.857
		l0.668-0.922l0.668-0.55l0.734-0.17l4.496,0.291l0.983-0.081l0.727-0.38l0.492-0.894l0.184-0.732l0.387-0.506l1.108-0.19
		l0.354-0.324l-0.419-0.728l-0.858-0.748l-0.95-0.352l-0.256,0.202l-5.918,2.395l-1.986,0.097l-3.899-0.255l-3.85-0.305
		l-0.036-1.711l-0.244-2.355l-0.744-0.649l-2.403-0.825l-3.544,0.556l-0.348-3.001l7.299-0.787l3.969-0.495l4.015-0.237l1.298-0.782
		l1.383,0.405l1.691-0.867l2.969-2.256l3.768-1.503l1.593-1.143l0.144-1.439l-4.72,1.46l3.625-4.475l3.854-0.422l4.528-0.974
		l8.34-2.633l2.971,0.595l-0.716,4.399l1.715,2.672l2.381-0.445l2.255-0.875l4.436-0.865l1.165-0.407l1.14-0.51l1.69-0.35
		l1.082-1.687l1.348-1.383l2.572,2.287l3.621,6.531l2.672,1.346l1.032,0.262l0.483,0.993l-0.566,1.137l0.333,0.8l4.661,0.612
		l1.74-0.427l2.372-0.111l2.389-0.663l1.956-1.721l1.906-1.914l0.691,0.831l0.766,0.702l0.649-0.16l0.524-0.702l1.365,0.805
		l1.207,1.433l3.604,1.186l0.749,0.939l1.29,0.37l2.589-1.587l2.971-1.343l1.174,1.121l1.182,0.64l1.032-0.946l1.032-1.086
		l3.296,5.634l-0.375,6.333l-2.946,3.166l-0.782,2.087l-4.003,2.13L402.104,315l-1.099-0.118l-0.791,0.51l-1.515,3.281l-1.74,1.821
		l-1.839,1.633l-0.899,2.599l-0.233,3.049l-1.016,2.223l-1.249,2.338l-0.94,2.987l-0.691,3.086l-1.124,2.297l-0.083,2.49
		l2.064,0.874l0.3,1.092l0.15,1.25l0.891,2.33l-0.142,2.529l0.824,1.867l1.157,0.774l-0.483,2.711l-3.363,4.026l-0.533,2.642
		l-0.117,2.435l-1.69,1.728l-4.594-3.709l-5.152-1.864l-2.921,1.63l-2.347,2.529l-2.522,0.352l-2.672,0.02l-2.921,0.392
		l-2.963-0.053l-1.373-0.803l-1.223-0.946l-1.415,0.362l-1.673-0.023l-2.43,0.403l-2.314,1.387l-2.996-0.446l-1.939-2.068
		l0.108-3.264l-1.64-1.855l-0.491-1.832l0.716-2.848l-1.623-2.477l-2.372,0.13l-0.583,1.016l-0.791,0.761l-0.516,1.307l-0.191,1.409
		l-2.489,0.031l-3.779-5.126l-2.464-2.02l-1.407-0.598l-1.465-0.105l-1.34,1.594l-2.73-0.268l-2.022,1.818l-0.008,1.335l0.075,1.338
		l-0.741,1.123l-1.015,0.748l0.058,1.054l0.158,1.01l-0.674,1.398l-1.065,0.926l-1.315,0.635l-1.382,0.403l-1.165,0.709
		l-1.082,0.801l-2.697,0.403l-2.555,0.928l-2.397,0.602l-2.006-0.676l0.117-2.675l0.516-2.658l0.466-3.613l-2.322-0.625
		l-7.824,2.187l-1.665,0.536L292.873,358.183z M278.471,338.4l-0.354-0.371l-0.256-0.653l0.157-0.629l0.845-0.443l-0.118-0.161
		l-0.4-0.258l0.197-0.234l0.446-0.25l0.301-0.427l0.485-0.081l0.288-0.133l-0.138-0.544l0.347,0.016l0.911,0.165l0.609-0.496
		l0.295-0.327l0.347,0.266l0.17,0.593l-0.302,0.737l-1.481,1.282l-0.996,1.112l-0.629,0.487l-0.262,0.242L278.471,338.4z"/>
	<path class="st0" d="M403.048,398.908l-0.528-0.147l-3.264,0.032l-1.088-0.184l-0.433-0.5l-0.197-0.748l-0.472-0.952l-0.924-0.736
		l-0.216,0.756l0.138,1.176l0.177,0.516l-0.583,1.811l-0.321,0.62l-0.747,0.863l-3.047,2.438l-1.691,0.755l-1.212-1.043l-1.52-3.101
		l-1.258-0.504l-0.878,1.255l-0.432,1.966l0.092,1.642l0.747,1.738l1.245,2.245l1.429,1.956l1.278,0.822l0.904,1.173l0.845,0.407
		l1.003-0.631l2.497-2.347l1.73-0.232l1.475,0.288l1.376,0.088l1.514-0.811l-0.092,1.936l-0.262,1.373l-0.8,2.773l-0.924,4.894
		l-0.668,1.132l-2.831,0.949l-2.241-1.124l-1.796-0.383l-1.475,3.237l-0.472-0.311l-0.118,0.028l-0.111,0.179l-0.4,0.104
		l0.629,1.291l0.472,1.379l0.59,4.374l-0.367,0.812l-0.832-0.462l-1.317-1.386l-1.927-0.239l-1.435-0.793l-0.924-1.446l-0.393-2.191
		l0.492-2.073l1.049-2.041l0.76-1.93l-0.374-1.655l-0.649-0.922l-1.278-2.765l-0.334-0.216l-0.452-0.012l-0.472-0.072l-0.393-0.423
		l-0.039-0.503l0.138-0.591l0.236-0.375l-1.219-2.571l-0.21-0.958l0.072-0.579l0.354-0.959l0.079-0.503l-0.177-0.551l-0.374-0.431
		l-0.374-0.124l-0.177,0.408l-0.275,0.22l-1.376,3.499l-0.531,0.743l-0.275,0.192l-0.413,0.048l-2.746,0.97l-1.599,0.2l-3.48-0.088
		l-1.311,0.391l1.062,0.874l2.078,0.91l1.711,0.503v0.618l-3.421,1.093l-1.73,0.973l-0.295,1.336l0.688,0.562l1.514-0.61
		l0.806,0.347l0.57,0.933l-0.17,0.343l-0.433,0.112l-0.223,0.263l1.121,3.899l2.327,2.088l2.517,1.618l1.724,2.478l-0.826-0.127
		l-1.416-0.008l-0.603,0.135l3.46,1.334l0.447,1.084l0.228,2.039l-0.737,0.738l-0.829,0.705l-1.573-0.076l-0.996,0.251l-3.664-2.285
		l-1.18-0.382l-1.042,0.199l-1.298,0.597l-1.101,0.788l-0.465,0.748l0.19,0.31l0.963,2.029l1.129,0.248l0.682,0.453l3.061-0.799
		l1.675,1.428l-3.82,3.509l-1.357,1.929l-1.476-0.677l-2.321,1.762l0.243,1.704l1.029,1.121l-2.228,0.011l-3.289-4.352l-1.134-2.333
		l-3.021-3.273l-0.924,0.211l-3.192,1.671l0.321,1.002l0.229,0.39l-1.311-0.453l-1.265-0.246l-1.081-0.569l-0.747-1.404
		l-0.098-1.436l0.511-0.836l1.789-1.062l0.577-0.513l1.625-2.154l1.003-2.11l0.577-0.725l1.173-0.573l-0.079,1.633l-0.393,1.585
		l-1.18,2.858l2.359-0.155l1.973-0.72l1.18-1.632l-0.026-2.891l-0.472-1.131l-0.623-0.645l-0.478-0.757l-0.072-1.482l0.432-0.777
		l2.32-2.571l0.839,0.442l0.551,0.598l0.138,0.765l-0.426,0.932l0.485,1.279l0.688,0.892l0.924,0.303l1.245-0.466l0.524-0.681
		l1.101-2.367l0.629-1.02l-1.121-1.67l-0.433-1.746l-0.57-0.79l-1.527,1.192l-1.756,0.746l-1.455-1.216l-1.986-3.211l-1.14,1.795
		l-1.625,4.182l-1.127,1.379l-1.16,0.47l-0.983-0.052l-2.019-0.418l-0.95,0.335l-0.885,0.813l-1.455,1.924l-0.649,0.55l-2.949,1.725
		l-1.592,1.215l-1.022,0.597l-0.983,0.259l-0.609,0.314l-0.138,0.808l0.039,1.079l-0.151,1.142l-0.531,0.804l-0.747,0.875
		l-0.374,1.043l0.603,1.273l-4.443,4.375l0.144,4.039l-0.754,0.671l-2.143-1.073l-0.708,0.854l-0.334,0.958l0.039,1.049l0.452,1.14
		l-1.042-0.33l-2.255-1.609l-3.093-0.906l-0.708-0.429l-0.629-1.872l0.334-4.95l-0.308-1.917l0.446-1.221l-0.098-1.504l-0.531-1.317
		l-0.918-0.689l-0.872,0.251l-0.878,0.828l-0.675,1.059l-0.269,0.931l0.328,1.353l0.511,1.177l0.026,0.823l-2.484,0.831l0.321,1.193
		l1.802,2.294l-3.087,1.793l-1.16,1.069l1.199,0.477l0.275,0.219l0.079,0.477l-0.092,0.477l-0.262,0.215l-0.492-0.099l-0.747-0.453
		l-0.393-0.107l-1.062,0.159l-0.216,0.449l-0.013,0.727l-0.413,0.965L312,452.527l-2.386,0.604l-0.898,0.758l-0.321,0.631
		l-1.96,6.589l-0.164,0.944v1.127l-1.966-0.421l-3.709,1.222l-0.931-0.19l-0.111-1.15l0.76-2.345l-0.151-1.107l-0.734-0.631
		l-1.016-0.202l-2.104,0.107v-0.607l0.426-0.564l0.138-0.389l0.157-1.536l0.275-0.052l0.361,0.119l0.347-0.238l1.14-2.073
		l0.216-0.997l-0.308-0.997l-0.4-0.318l-0.59-0.207l-1.199-0.143l-0.865-0.238l-0.118-0.528l0.236-0.481l0.184-0.139l0.033-1.252
		l0.301-1.204l-0.144-0.644l-1.291,0.429l0.354-2.357l1.606-1.185l2.143-0.414l2.005-0.048l-0.367-0.756l-0.498-0.581l-0.629-0.406
		l-0.76-0.262l1.271-0.891l0.786-1.042l0.026-0.915l-0.983-0.545l-0.361,0.143l-0.728,0.907l-0.511,0.346l-0.668-0.008l-1.042-0.645
		l-0.544-0.016l-0.492,0.446l-0.334,0.668l-0.275,0.883l-0.714,0.159l-0.688-0.024l-0.786-0.135l-1.724,0.032l-0.944,0.167
		l-1.186,0.469l-0.151-1.552l-0.688-0.899l-1.914-0.943l0.026-0.31l-0.4-0.788l-0.485-0.474l-0.242,0.629l-0.236,0.374l-0.57,0.33
		l-0.649,0.131l-0.511-0.199l-1.671-1.6l-0.21-0.1l-0.275-0.983l0.138-0.283l0.328-0.131l0.315-0.541l0.321,0.458l0.806,0.012
		l0.583-0.47l-0.334-1.003l-2.156-1.059l-1.671-1.227l-0.138-2.82l0.701-3.136l0.845-2.181l0.085-0.742l-0.066-0.909l0.118-0.766
		l0.655-0.319l0.603,0.06l0.629,0.18l0.472,0.323l0.531,1.168l2.458,3.684l-0.767,1.012l-0.236,0.98l0.138,1l0.262,1.076l1.665,4.68
		l1.003,0.601l3.991,0.669l1.71,1.182l0.924-0.084l0.655-1.7l-0.904,0.135l-0.479-0.239l-1.657-0.361l-0.781-1.222l-1.025-1.027
		l0.285-2.249l-1.063,0.195l-0.514,1.384l-0.836,0.075l-0.506-1.828l-0.248-2.444l0.612-1.394l-0.464-1.713l2.203-0.218l3.375,0.738
		l0.439,0.783l-0.213,1.273l0.02,0.395l-0.033,0.378l0.19,0.59l0.839,0.543l0.488,0.661l1.05,0.686l1.445,0.573l0.874,0.848
		l1.122,0.808l0.852,0.56l0.349-0.432l-1.686-2.23l1.002-0.218l1.488,0.858l1.919,1.049l2.322,0.742l1.685-0.432l-1.697-0.287
		l-1.376-0.872l-2.418-2.127l0.59-0.729l-1.743-1.275l-2.635-3.38l-1.462-0.694l-2.005-0.403l-2.382,0.154l-1.642-1.068
		l-2.029,0.549l-1.862-0.614l-0.245-0.931l1.152-1.444l1.128-0.463l2.4,0.375l3.062-1.37l3.682,2.717l1.239-0.239l0.315,0.215
		l0.197,0.199l0.216,0.172l0.374,0.144l-0.354-1.887l0.157-1.723l0.963-1.261l1.973-0.491l3.69,1.105l1.887,0.14l-0.57-1.245
		l1.245-0.627l0.668-0.14l0.839,0.044l-1.199-1.381l-1.828-0.335l-4.181,0.375l0.315-0.95l-0.105-0.647l-0.21-0.671v-1.022
		l0.295-0.647l0.426-0.479l0.354-0.599l0.026-1.019l-0.649-1.45l-1.108-0.336l-1.199,0.563l-0.885,1.222l-0.098,0.815l0.531,1.653
		l0.118,0.887l-0.138,0.132l-0.963,1.932l-0.904,3.344l-0.839,1.141l-1.599,0.144v-0.227l-0.505-0.383l0.328-0.523l0.432-1.022
		l0.334-0.519l-1.094-0.559l-0.734,0.327l-0.708,0.623l-1.062,0.331l-2.143-0.479l-0.682,0.323l-0.135,1.013l-1.104-0.019
		l-1.737,0.575l-0.845-0.431l-0.275-1.041l0.577-0.974l1.645-1.645l0.596-0.902l0.334-0.711l0.138-0.667l0.033-0.763l-0.216-1.466
		l0.275-0.723l1.042-0.919l-1.003-0.791l-0.878-1.642l-0.478-1.922l0.157-1.615l1.121-1.031l1.521-1.044l0.472-0.864l-2.012-0.48
		l-0.917,0.168l-0.537,0.468l-0.433,0.488l-0.61,0.22l-0.786,0.404l0.118,0.96l0.393,1.128l0.026,0.919l-1.127,1.027l-1.455,0.1
		l-1.409-0.46l-1.009-0.667l0.767-0.528l0.334-0.144l-0.708-0.508l-0.603-0.612l-0.498-0.732l-0.393-0.888l0.924-0.476l0.904,0.048
		l2.012,0.428l-0.242-2.112l2.248-2.236l-0.596-2.061l-2.294-3.182l-1.416-1.297l-1.54-0.529l0.636,2.21l-0.557,1.265l-1.14,0.04
		l-1.14-1.497l0.754-1.049l-2.071-2.755l-0.288-1.634l1.16-1.35l1.645-0.22l1.461,0.749l0.642,1.559l1.022-0.657l0.57-1.13
		l0.649-2.252l0.57,1.122l0.105,0.946l-0.216,1.819l-0.36,0.921l-0.098,0.569l0.157,0.585h0.321l0.374-0.14l0.249,0.168l0.321,1.298
		l0.079,0.557l0.295,0.32l0.963,0.577l0.78,0.276l1.357,0.048l0.609,0.348l-0.465,1.121l0.131,1.081l0.577,1.004l0.859,0.884
		l2.032-4.607l0.21-1.561l-0.039-1.754l-0.393-0.629l-1.514-0.38l-0.642-0.361l-0.531-0.541l-0.826-2.212l-2.641-3.09l-0.609-1.423
		l0.177-0.481l0.374-0.405l0.38-0.533l0.177-0.91l-0.852-0.602l-0.413-0.782l0.157-1.364l-1.035,0.409l-1.068,0.173l-2.294,0.028
		l0.898-1.111l1.475-0.341l1.671-0.092l1.461-0.357l-0.478-0.184l-0.256-0.225l-0.295-0.197l-0.629-0.124l0.393-0.891l0.472-0.522
		l0.518-0.401l0.524-0.57l0.275-0.747l-0.131-0.646l-0.256-0.622l-0.138-0.683l0.275-1.538l0.701-1.518l1.77-2.704l0.472,0.49
		l1.18,1.535l1.422,0.434l0.721-0.048l-0.197-0.723l-1.543-1.757l0.014-0.004l1.665-0.536l7.824-2.187l2.322,0.625l-0.466,3.613
		l-0.516,2.658l-0.117,2.675l2.006,0.676l2.397-0.602l2.555-0.928l2.697-0.403l1.082-0.801l1.165-0.709l1.382-0.403l1.315-0.635
		l1.065-0.926l0.674-1.398l-0.158-1.01l-0.058-1.054l1.015-0.748l0.741-1.123l-0.075-1.338l0.008-1.335l2.022-1.818l2.73,0.268
		l1.34-1.594l1.465,0.105l1.407,0.598l2.464,2.02l3.779,5.126l2.489-0.031l0.191-1.409l0.516-1.307l0.791-0.761l0.583-1.016
		l2.372-0.13l1.623,2.477l-0.716,2.848l0.491,1.832l1.64,1.855l-0.108,3.264l1.939,2.068l2.996,0.446l2.314-1.387l2.43-0.403
		l1.673,0.023l1.415-0.362l1.223,0.946l1.373,0.803l2.963,0.053l2.921-0.392l2.672-0.02l2.522-0.352l2.347-2.529l2.921-1.63
		l5.152,1.864l4.594,3.709l-0.433,2.151l1.656,1.954l0.807,2.524l0.341,5.237l1.09,1.96l1.981,1.445l1.798,1.887l0.699,2.08
		l0.866,1.815l5.019,5.471l1.082,2.667l-0.008,1.826L403.048,398.908z M337.058,371.188l-4.153-1.559l-2.206,0.663l-2.114,0.481
		l-2.888-0.767l-1.74,1.646l2.206,4.849l4.386,2.635l4.969,0.794l3.171-4.233L337.058,371.188z M352.155,445.295l2.517-0.298
		l1.311,0.099l1.101,0.533l0.878,1.586l-0.262,1.816l-1.062,1.486l-1.488,0.612l-3.323,0.612l-1.284-0.183l-0.944-0.461
		l-1.927-1.295v-0.727l0.439-0.544l0.079-0.453l-0.314-0.437l-0.754-0.509l1.114-0.823l1.285-0.525L352.155,445.295z
		 M288.296,443.856l0.125,1.344l-0.216,1.503l-0.433,1.455l-1.586,3.401l-0.642,1.033l-0.8,0.54l-0.138-0.302l-1.376-1.303
		l-0.636-0.397v0.612l-0.328,1.565l-7.668,4.185l-0.924,0.318l-3.388,0.286l-0.937-0.238l-0.177-0.85l0.452-0.715l0.596-0.595
		l0.229-0.5l-0.433-0.603l-2.32-1.461v2.065l-1.691-1.997l1.003-3.261l2.294-2.639l2.248-0.167l0.727-2.111l0.472-0.751l0.747-0.835
		l0.865-0.477l0.767-0.131l0.583-0.433l0.223-1.384l0.944,1.161l1.278,0.131l1.14-0.752l0.491-1.488l-0.616-1.221l-2.071-1.635
		l0.537-0.812l1.304-0.096l1.33,0.728l1.153,0.919l0.859,0.454l0.197,0.274l0.236,0.617l0.387,0.672l0.537,0.434l0.367-0.119
		l1.822-1.15l0.072,0.847L288.296,443.856z M401.203,425.649l0.839,0.215l0.734,1.164l0.577,1.434l0.682,2.453l0.072,1.43
		l-0.242,1.39l-0.583,1.345l-0.806,0.828l-0.904,0.072l-0.904-0.486l-2.851-2.906l-0.334-1.131l0.485-1.8l0.354-0.47l1.507-1.143
		l0.269-0.586l0.609-2.486l-1.219-1.299l0.144-0.793l0.878-0.407l1.003-0.116l0.865,0.391l0.216,0.917l-0.413,1.08L401.203,425.649z
		 M256.805,422.831l0.963,0.873l0.249,0.407l0.105,0.749l-0.177,0.769l-0.334,0.717l-1.219,1.646l-0.564,0.414l-0.557,0.048
		l-0.826-0.076l-0.007-0.307l-1.167-0.685l-1.265-0.538l-0.354,0.131l-0.727-1.634l0.551-0.757l2.379-0.957l1.462-2.009l0.498-0.255
		l0.302,0.199L256.805,422.831z M258.267,416.203l0.033,2.082l-0.374-0.172l-0.917-0.259l-0.406-0.239l-0.695,0.921l-1.101,0.008
		l-1.009-0.215l-0.446,0.255l-0.164,1.316l-0.432,1.156l-0.701,0.865l-0.957,0.435l-0.944-0.112l-0.695-0.658l-0.419-1.041
		l-0.138-1.292l0.243-1.22l0.642-0.862l0.885-0.574l0.983-0.383l1.094,0.423l1.442-0.315l2.634-1.009l0.538-0.072l0.387,0.064
		l0.295,0.287L258.267,416.203z M262.199,403.182l0.347-1.303l0.786-0.196l0.898,0.619l0.636,1.107l0.19,1.414l-0.249,1.37
		l-0.616,1.174l-0.937,0.811l-1.16,0.348l-0.669-0.256l-0.524-0.455l-0.681-0.248l-2.628,0.591l-0.99,0.02v-0.611l0.793-0.695
		l1.448-2.317l1.101-1.007l0.518,0.032l0.767,0.212l0.668-0.012L262.199,403.182z M266.596,389.664l-0.432,0.112l-2.143-0.572
		l-0.767,0.124l-0.295-0.22l-0.197-0.216l-0.21-0.168l-0.354-0.06l0.629-3.123l0.426-0.913l0.557-0.32l0.957-0.32l0.885-0.433
		l0.393-0.633l0.61-1.338l1.455-0.946l1.651-0.393l1.232,0.333l-2.451,1.43l-0.564,0.829l-0.065,0.986l0.354,1.013l1.081,1.75
		l-0.865,0.36l-0.904,0.885l-0.688,1.033L266.596,389.664z M363.112,490.465l0.472,0.419l0.577,0.162l0.21,0.332l-0.098,0.478
		l-1.14-0.553l-1.101-0.257l-0.197-0.304l-0.275-0.664l-0.177-0.811l-0.301-0.214l-0.249-0.308l-0.197-0.664l0.118-0.392
		l-0.039-0.451l0.059-0.404l0.256-0.083l0.295,0.099l0.374-0.119l0.216-0.253l0.118-0.036l0.197,0.415l-0.275,0.902l0.138,1.004
		L363.112,490.465z M381.056,448.53l0.361,0.97v0.576l-0.609,0.656l-1.468,0.953l-1.285,0.393l-0.459-0.262l-0.033-0.834
		l-0.544-0.572l-0.813-0.262l-0.374-0.505l0.216-0.389l-0.878-0.56l-0.537-0.401l0.288-0.731l-0.052-0.548l-0.138-0.437l0.393-0.223
		l0.57,0.246l0.603,0.35l1.127,0.286l0.02,0.254l0.374-0.095l0.728-0.723l0.74-0.04L381.056,448.53z M401.275,443.021l0.531,0.294
		l0.354,0.561l-0.177,0.608l-1.003,0.346l-0.655,0.028l-0.17-0.171l-0.262-0.394l-0.747-0.417l-1.173-0.394l-0.786-0.608
		l-0.361-0.831l-0.393-0.604l-0.662-0.358l-0.57-0.688l0.433-0.835l1.357-0.648l1.475-0.199l1.048,0.78l1.219,2.379l-0.144,0.684
		l0.039,0.35L401.275,443.021z M265.751,434.244l0.184,0.183l0.151,0.498l-0.072,1.015l-0.249,1.086l-0.072,0.943l-0.452,0.489
		l-0.649,0.481l-0.675,0.641l-1.586,0.943l-0.878,0.135l-0.931-0.271l-0.288-0.501l0.465-0.163l0.491-0.024l0.406-0.41l0.478-0.366
		l-0.079-0.334l-1.789-0.398l0.432-0.517l1.114-0.171l1.167-0.036l0.918-0.704l0.4-0.955l-0.393-0.979l-0.806-1.294l-0.511-1.644
		l0.609-0.458l0.983,0.792l0.583,0.609l0.99,0.557L265.751,434.244z M260.757,436.91l-0.767,0.354l-0.649-0.545l-0.315-3.395
		l0.288-1.887l0.675-0.86l1.029,2.258l0.859,1.254l0.675,1.373l-0.223,1.146l-0.728,0.247L260.757,436.91z M213.059,425.266
		l0.924-0.239l0.157,0.398l-0.708,0.701l-0.374,0.446l-0.21,0.558l-1.271,1.486l-0.249,0.689l-0.531,0.888l-0.413,0.569
		l-0.328,0.362l-0.786-0.331l-0.518-1.402l0.085-1.307l0.446-1.191l0.537-1.052l0.583-0.921l0.675-0.502l0.662-0.132l0.36,0.283
		l0.269,0.709L213.059,425.266z M271.708,420.921l0.275,0.857l0.033,1.048l-0.465,0.937l-1.022,0.1l-0.944-0.937l-0.747-1.088
		l-0.865-0.012l-0.433,0.387l-0.282,0.135l-0.603,0.052l-0.57-0.419l-0.138-0.837l-0.734-1.348l-1.586-1.675l-0.334-0.814
		l0.78,0.207l0.636,0.004l0.596-0.307l0.859-0.088l1.016,0.156l0.754,0.335l0.478,0.523l0.708,0.359l0.957,0.064l0.786,0.191
		l0.537,0.491l0.288,0.538l-0.059,0.491L271.708,420.921z M271.276,415.09l-0.256,0.255l-0.275,0.63l0.17,1.324l-0.485,0.519
		l-0.963,0.255l-0.937-0.534l-1.049-0.902l-1.35-0.503l-0.99-0.583l0.793-0.666l2.005-0.331l1.173-0.511l0.609-0.503l0.773,0.343
		l0.583,0.798L271.276,415.09z M264.086,412.112l-0.675-0.934l-0.557-1.022l0.242-0.779l1.18-0.595l0.963-0.1l0.767,0.435
		l0.747-0.024l0.216-0.591l-0.157-1.15l0.767-0.751l1.055,0.02l0.511-0.052l0.4,0.224l0.387,0.559l0.085,0.607l-1.081,0.695
		l0.393,1.525l-0.197,0.926l-0.57,0.355l-0.793-0.036l-0.505,0.575l0.02,1.094l-0.262,0.934l-0.858,0.487l-0.728-0.06l-0.177-0.579
		l0.033-0.391L264.086,412.112z M277.534,402.926l-0.714,0.312l-0.983-0.032l-0.4-0.887l0.164-0.935l0.629-0.344h1.376l0.472,0.192
		l0.02,0.424l-0.262,1.015L277.534,402.926z M272.055,389.928l0.203,0.44l0.079,0.504l-0.02,0.96l-0.341,0.312l-0.406,0.228
		l-0.433-0.164l-0.721-0.8l-0.328-0.224l-0.432,0.216l-0.387-0.04l-0.118-0.428l-0.308-0.156l-0.4,0.012l-0.112-0.216l0.583-0.444
		L268.687,390l-0.36,0.064l-0.347-0.104l0.151-0.444l0.623-0.412l0.518-0.08l0.701,0.324l1.029-0.084l0.714,0.204L272.055,389.928z
		 M187.441,487.697l-0.393-0.253l-1.573-1.448l-0.898-0.554l-0.197-0.756l0.393-1.025l0.616-0.57l0.891,0.301l0.708,0.878
		l1.154,2.385l0.079,0.771l-0.249,0.435l-0.354-0.067L187.441,487.697z M305.925,476.018l0.701,0.297l0.669,0.84l-0.197,0.432
		l-0.334-0.305l-0.288-0.048l-0.144,0.38l-0.302-0.119l-0.734-0.404l-0.754,0.02l-0.433,0.424l-0.275,0.523l-0.898,0.61l-0.8,0.724
		l-1.212,0.732l-1.54-0.067l-0.859-1.14l-0.059-1.473l0.708-1.445l1.429-0.998h1.226l1.592,1.018l0.472,0.059l0.668-0.206
		l0.904,0.016L305.925,476.018z M311.81,477.515l0.321,0.178l0.275,0.475l-0.256,0.293l-0.354,0.055l-0.118,0.578v0.982
		l-0.406,0.764l-0.793,0.218l-0.413-0.245l-0.144-0.451l-0.387-0.309l-0.413-0.091l-0.177-1.306l0.511-2.245l0.177-1.252
		l-0.531-0.495l-0.157-0.448l0.668-0.642l0.039-0.333l0.688,0.008l1.363,0.701l0.19,0.951l-0.767,0.661l-0.138,0.741L311.81,477.515
		z M330.921,473.19l0.773,0.701l0.485,0.547l-0.21,1.22l-0.197,0.523l-0.511,0.907l-0.944,0.511l-1.199,0.103l-0.885-0.459
		l-0.727-0.657l-0.531,0.063l-0.275,0.487l-0.301-0.178l-0.328-1.497l0.498-1.01l0.131-0.927l0.315-0.737l0.57-0.547l1.147-0.567
		l1.376,0.353L330.921,473.19z M306.987,471.197l0.328,0.475l0.066,0.852l-0.557,0.471l-0.282,1.109l-1.173,0.063l-0.649,0.135
		l0.393,0.697l-0.406,0.341l-1.226-0.333l-0.636-0.594l-0.157-0.392l-0.341-0.123l-0.38-0.079l-0.079-0.325l0.413-1.165l0.236-0.436
		l0.033-0.297l-0.157-0.234l0.065-0.214l0.295-0.147l0.19-0.21l-0.053-0.277l-0.413-0.678l0.269-0.234l0.636,0.206l0.623,0.337
		l1.678,0.285l0.865,0.452L306.987,471.197z M264.833,462.451l-0.079,1.083l0.131,0.702l-0.38,0.559l-0.78,0.099l-0.452,0.377
		l-0.354-0.167l-0.334-0.523l-0.275,0.012l-0.138,0.484l-0.511,0.075l-1.665-0.694l-0.564-0.809l-0.052-0.531l0.341-0.464
		l0.039-0.48l0.603-0.401l2.772,0.583l1.16-0.179L264.833,462.451z M326.451,462.391l-0.341,0.353l-0.727,0.151l-0.393-0.563
		l-0.164-0.75l-0.432-0.591l-0.623-0.266l-0.826,0.123l-0.963,0.341l-0.773-0.008l-0.308-0.159l-0.308-0.202l-1.783-0.79
		l-0.111-0.329l0.826-0.107l0.806-0.238l0.354-0.206l0.295-0.143l0.636,0.099l0.734,0.345l0.891-0.373l1.088-0.889l0.819-0.206
		l0.472,0.361l0.583,0.155l0.341-0.024l0.341-0.063l0.898,0.095l1.14,0.278l0.708,0.417l-0.157,0.714l-0.465,0.548l-0.125,0.333
		l-0.079,0.678l-0.505,0.556l-0.695-0.135l-0.747,0.139L326.451,462.391z M345.595,458.844l0.275,0.238l0.157,0.456l-0.492,0.103
		l-0.682-0.345l-0.799-0.179l-0.577,0.226l0.21,0.266l0.491,0.282l-0.583,0.583l-1.422,1.119l-0.826,0.373l-0.079-0.861l0.4-0.607
		l0.511-0.341l-0.288-0.389l-1.763-0.365l0.236-0.389l-0.19-0.492l-0.537-0.326l-1.35-0.127l-0.524-0.179l-0.229-0.155l0.19-0.183
		l0.596-0.119l0.465-0.318l0.747-0.905l0.8-0.667l-0.066-0.254l0.256,0.087l0.57,0.556l0.524,0.786l0.302,0.881l0.629,0.278
		l1.101-0.349l0.806-0.091l0.374,0.329l0.275,0.445L345.595,458.844z M319.209,462.323l0.157,0.603l0.452,1.087l-0.275,0.262
		l-0.393-0.055l-0.393-0.111l-0.721-0.313l-0.616-0.401l-0.341,0.067l-0.079,0.571l-0.387,0.226l-0.708-0.325l-1.219-0.286
		l-1.514-0.531l-0.013-0.631l0.747-0.571l-0.197-0.718l-0.695-0.186l-0.839,0.218l-1.049-0.29l-0.944-0.619l-0.564-0.714
		l-0.236-1.06l-0.079-1.207l0.065-1.231l0.321-1.231l0.636-0.941l0.865-0.417l0.465-0.107l1.416-0.143l0.924,0.306l0.865,0.588
		l0.957,1.132l0.747,1.882l0.223,1.544l0.256,0.714l0.439,0.595l0.249,0.833L319.209,462.323z M319.091,455.132l-0.393-0.028
		l-0.354-0.361l0.295-0.58l0.374-0.572l0.557-1.231l1.134-1.502l1.593-0.882l1.671-0.397l1.003,0.175l0.38,0.584l0.065,0.644
		l-0.419,0.433l0.066,0.234l0.747,0.457l0.616,0.691l0.537,0.782l0.072,0.596l-0.59,0.099l-1.652-0.508l-0.688,0.171l-0.406,0.6
		l-2.123,0.993l-0.747,1.005l-0.236,1.048l-0.432,0.306l-0.524-0.611l0.013-1.008l-0.17-0.85L319.091,455.132z M285.124,408.048
		l1.527,0.539l0.164,2.08l-1.579,1.461l-0.865-0.327l0.511-0.579l0.256-0.563l-0.21-0.391l-2.248-1.238l-0.334-0.18l-2.379,0.387
		l-1.055,0.519l-1.193,0.192l-0.957-0.327l-0.491-0.639l0.432-0.515l1.278-0.084l1.638-0.599l0.288-0.367l0.262-0.272l0.079-0.415
		l1.009-0.311l0.361-0.611l0.039-0.719l-0.629-0.863l-0.269-0.971l0.878-0.456l1.396,0.336l1.435,0.727l1.022,1.031l-0.105,0.579
		l-0.701,0.092l-1.225,0.815l-0.151,0.455l0.046,0.579l0.111,0.459l0.518,0.164L285.124,408.048z M276.551,390.068l0.151-0.48
		l-0.551-0.168l-2.064-0.348l-0.459-0.4l-0.708-0.068l-0.347-0.072l-0.347-0.316l-0.459-0.232l-0.433-0.533l-0.865-2.022
		l0.492-0.793l1.022-0.344l0.944,0.348l0.754,0.505l0.682-0.236l0.773-0.409l0.498,0.248l0.17,0.432l0.393-0.016l0.498-0.144
		l0.203,0.641l-0.557,0.565l-0.741,0.048l-0.315,0.364v0.525l0.885,0.913l0.747,0.34l0.839,0.056l0.478,0.681l0.242,0.873
		l0.406,0.552l0.144,0.752l-0.315,0.952l-0.315,0.256l-0.21-0.308l-0.937-0.216l-0.393-0.504l-0.321-0.58L276.551,390.068z"/>
	<path class="st0" d="M496.287,381.573l-0.384-0.346l-0.73,1.076l-2.458,4.34l-1.113,0.077l-0.077-1.997l0.077-1.882l-0.536-0.078
		l-0.698,1.561l-0.569,2.359l-1.996-0.23l-5.303,0.086l-0.305-1.808l-0.539-0.959l-0.732,2.731l-0.807,0.386l-1.875-0.846
		l-0.878-1.647l-0.963-0.112l-1.239,0.957v-4.306l-0.334-0.357l-0.688,0.284l-0.583,0.906l-0.046,1.522l-1.278-1.001l-0.996-1.443
		l-1.101-0.894l-1.619,0.649l0.354-1.391l-0.668-1.976l0.314-0.734l-0.806-2.591l-0.472-0.273l-0.924,0.842l-1.003,1.58l-0.02,1.054
		l1.022,2.137l0.57,2.605l0.334,0.913l0.688,1.186l1.344,1.814l0.197,0.913l-0.38,1.309l0.636,0.088l0.996,0.432l0.57,0.152
		l-0.708,0.472l-0.708,0.188l-1.632,0.004l-0.858-0.2l-0.243-0.52l-0.039-0.657l-0.269-0.633l-0.773-0.817l-0.551-0.448
		l-4.345-1.534l-1.219-0.076l-2.667,0.509l-0.728,0.361l0.052,0.693l0.931,1.313l-1.494,0.3l-2.759,1.393l-3.165,0.865l-0.413,1.245
		l-0.157,1.353l-0.859,0.888v0.668l8.035-4.274l1.363-0.092l0.275,1.729l0.485,1.268l0.164,1.128l-0.649,1.308l-1.029,0.576
		l-1.573,0.264l-1.573-0.072l-1.042-0.432l-0.544,0.96l0.374,0.464l0.728,0.424l0.544,0.84l0.079,0.512l0.026,0.736l-0.105,2.047
		l-0.603,4.02l0.74,0.707l0.708-0.236l0.557-0.783l0.249-0.967l1.088,1.279l-1.121,2.013l-2.032,2.652l-1.803,0.543l-2.42-0.162
		l0.041-1.501l1.553-0.021l0.662-0.12l0.4-0.659l-5-0.563l-1.042-0.415l-1.153-1.606l-0.164-0.807l0.826-0.519l1.855-0.719
		l-1.829-3.677l-1.317,1.303l-1.324,2.558l-1.868,0.12l-1.704-2.294l-0.891-0.572l-1.828-0.188l-0.806,0.488l-0.446,1.187
		l-0.164,1.507l0.039,1.454l-1.704-0.288l-3.742,0.168l-1.475-0.823l-0.17-0.531l-0.02-1.439l-0.085-0.38l-0.374-0.096l-0.898,0.164
		l-1.16-0.268l-1.894-0.164l-0.668-0.364l-0.374-0.787l0.039-0.772l0.203-0.74l0.131-0.66l-0.131-7.284l0.131-1.173l0.236-0.544
		l0.413-0.721l0.354-0.945l0.098-1.205l-1.258,1.509l-1.035,1.761l-1.278,1.321l-1.933,0.168l1.475,3.481l-1.003,0.68l-2.182-0.048
		l-2.084,1.32l-0.846-2.36l-0.511-0.964l-0.904-0.7l-0.236,3.168l-0.865,2.504l-1.684,1.511l-2.15,0.192l-0.858-0.34l-0.767-0.196
		l-0.636,0.072l-0.492,0.464l-1.199-0.991l-0.841-0.229l-0.204-0.436l0.008-1.826l-1.082-2.667l-5.019-5.471l-0.866-1.815
		l-0.699-2.08l-1.798-1.887l-1.981-1.445l-1.09-1.96l-0.341-5.237l-0.807-2.524l-1.656-1.954l0.433-2.151l1.69-1.728l0.117-2.435
		l0.533-2.642l3.363-4.026l0.483-2.711l-1.157-0.774l-0.824-1.867l0.142-2.529l-0.891-2.33l-0.15-1.25l-0.3-1.092l-2.064-0.874
		l0.083-2.49l1.124-2.297l0.691-3.086l0.94-2.987l1.249-2.338l1.016-2.223l0.233-3.049l0.899-2.599l1.839-1.633l1.74-1.821
		l1.515-3.281l0.791-0.51l1.099,0.118l1.981-0.608l4.003-2.13l0.782-2.087l2.946-3.166l0.649,2.208l1.631,0.95l0.749,0.565
		l0.741,0.632l0.067,0.785l0.325,0.803l0.649,0.295l0.658,0.221l2.439,0.19l1.057,0.888l1.307,0.883l2.314,0.18l2.281-0.021
		l2.081,0.703l1.531,1.667l1.074,2.041l1.781,1.261l0.449,0.928l0.275,0.854l1.24,0.769l1.074,1.263l-0.05,2.339l-0.965,2.236
		l1.265,4.578l4.969,0.21l2.43-0.343l2.322,0.389l2.181,1.049l2.064,1.551l2.289,0.461l4.311-2.216l2.206,0.448l1.989-2.838
		l1.856-1.439l0.666,5.477l2.031,2.481l2.522,1.598l2.921-0.33l3.013-0.54l2.63,0.806l2.514,1.325l3.005,0.087l2.622-2.082
		l1.157-0.43l1.165-0.154l1.107-0.959l0.924-1.195l2.913-1.197l3.096,0.77l2.372,1.118l2.256-0.755l0.341,3.937l-2.014,4.065
		l1.207,2.443l4.961,0.761l2.089,1.589l3.479,3.984l4.145,2.285l1.848,1.442l0.541,2.74l1.756,1.74l2.289,0.811l0.325,0.281
		l-0.379,1.312l-0.139,1.819l-0.477,0.944l-0.544,0.808l0.455,1.345l0.026,0.554l-0.911,1.849l-1.281,2.729l-1.432,1.727
		l-0.774,1.613l-0.146,0.294l-0.158-0.354l-1.623-1.657l-1.457-1.882l-1.839-1.49l-1.44-2.002l-0.449-2.163l-1.581-1.012
		l-2.039-0.079l-1.898,0.762l-1.531,1.111l-1.149,1.427l-0.841,5.822l-1.149,1.751l-1.224,1.522L496.287,381.573z M424.357,412.863
		l0.413,1.113l-0.236,0.982l-0.446,1.041l-0.236,1.281l0.223,2.022l-0.066,1.156l-0.459,0.503l-0.642,0.363l0.682,1.989
		l-0.334,0.996l-1.239,0.231l-1.18-0.71l-1.271-0.558l-1.494,0.693l-1.311,0.175l-0.8-1.897l-0.904-3.96l-1.324-0.718l-1.055,0.73
		l-0.714,1.651l-0.269,2.046l-0.492,0.861l-1.14,0.036l-1.206-0.415l-0.734-0.482l-0.498-0.881l-0.118-0.726l-0.02-0.857
		l-0.177-1.244l-2.222-7.242l-0.295-1.749l0.216-1.725l0.924-1.766l0.616-0.451l0.629-0.116l0.485-0.328l0.38-2.17l0.472-0.619
		l1.291-1.011l1.062-0.516l1.219,0.376l1.068,0.955l0.623,1.227l-0.111,1.291l-0.708,1.234l-1.809,1.893l0.328,0.679l0.374,1.717
		l0.452,0.894l0.688,0.479l1.724,0.579l0.97,1.736l1.56-0.275l1.979-0.778l1.868-0.399l2.713,0.455L424.357,412.863z
		 M479.034,407.569l-0.092,1.162l-0.361,1.234l-0.708,0.687l-1.095-0.463l0.446,1.317l1.042,2.219l0.216,1.52l-0.616,0.243
		l-1.409-0.487l-1.514-0.798l-0.917-0.663l-0.249,1.369l-0.249,0.742l-1.396,1.628l-0.452,1.272l0.957,0.734l1.324,0.554
		l0.668,0.754l-1.258,1.108l-5.833,1.81l-1.756,0.12l2.753-2.001l-1.14-0.542l-0.432-0.869l0.065-1.168l0.406-1.436l-2.497,1.28
		l-0.741-0.514l-0.36-1.129l0.046-1.133l0.505-0.515l2.005-0.407l0.57-1.081l0.039-1.529l0.433-1.729l-1.101-0.671l-0.826,1.022
		l-2.89,1.281l-1.278,1.05l-0.917-1.429l-1.147-1.262l-0.937-1.413l-0.249-1.869l0.518-1.126l1.062-1.039l1.226-0.799l1.049-0.448
		l3.015-0.623l0.826,0.016l1.324,0.559l1.055,0.691l1.081,0.531l1.494,0.104v-0.611l-1.494-0.983l-0.852-1.466l-0.38-1.675
		l-0.085-1.571l1.062,0.132l5.643-3.215l-0.963-1.804l0.452-1.792l1.239-0.992l1.422,0.56l0.354,0.816l0.026,0.952l-0.524,3.648
		l0.039,0.576l0.374,1.156l0.492,0.923l0.354,0.951l-0.02,1.291l-0.321,1.171l-1.271,3.336l1.632-0.575l0.78-0.539l0.262,0.192
		L479.034,407.569z M424.612,409.909l0.328,0.26l0.446,0.675l-0.852,0.216l-3.644-0.962l-1.992,0.643l-1.167-0.14l-1.199-0.731
		l-0.708-1.398l0.55-1.514l1.101-1.426l0.701-1.342l0.734-0.947l1.278-0.348l0.413,1.087l-0.564,1.586l-0.282,1.083l0.079,0.903
		l0.426,0.292l0.472-1.066l0.944-1.498l0.773-0.132l0.236,0.687l0.413,0.391l0.4,0.224l0.184,1.178l0.459,1.629L424.612,409.909z
		 M486.624,392.546l-0.354,2.032l-0.531,0.728l-0.413,0.14l-0.197-0.428l-0.393-1.72l-0.609-0.64l-0.216-0.504l0.098-0.696
		l-0.275-0.816l-0.426-0.776l0.223-0.708l0.852-0.484l0.924-0.096l0.806,0.24l0.551,1.241L486.624,392.546z M442.478,430.055
		l0.203,0.219l-0.118,0.522l-0.773,0.956l-0.347,0.231l-0.518,0.076l-0.76-0.171l-0.629,0.091l-0.859,0.426l-0.419,0.394
		l-0.478,0.103l-0.079-0.366l0.282-0.625l-0.079-0.506l-0.354-0.354l-0.302-0.068l-0.354-0.271l0.033-0.49l0.216-0.446l0.033-0.534
		l0.321-0.311l0.544-0.135l2.549,1.362l0.007,0.605l0.367,0.04L442.478,430.055z M449.824,412.361l0.768-0.316l1.24-0.311
		l1.406-0.091l0.787,0.773l0.212,1.259l-0.427,0.787l0.293,0.471l-0.349,0.59l-0.811-0.327l-0.32,0.195l0.023,0.247l0.662,0.13
		l0.663,0.548l-0.325,0.591l-0.822,1.033l-1.333,0.015l-0.584-0.747l-0.315-0.767l-0.674-0.026l0.158-0.643l-0.222-0.643
		l-1.039-0.154l-0.371-0.299l0.771-0.613l0.146-0.747l-0.779-0.616l-1.451-0.502l-0.92,0.29l-0.546-0.028l-0.173-0.645l0.648-0.713
		l0.945-0.24l1.242,0.505l0.948,0.726L449.824,412.361z M438.074,410.787l1.206,1.349l0.452,0.762l-0.321,0.527h-0.865l-0.406,0.216
		l0.059,0.694l-0.243,0.299l-0.76-0.216l-0.472-0.231l-0.885-0.619l-0.511-0.766l0.098-0.531l0.551-0.902l1.081-0.818
		L438.074,410.787z"/>
	<path class="st0" d="M515.332,378.593l-0.397,0.801l-1.244-0.025l-0.919-0.04l-1.133,0.186l-0.832-0.048l-0.876,0.395l-0.962,0.113
		l-0.077,1.384l0.643,0.959l0.106,1.15l-0.413,1.31l-1.803,0.843l-1.459-1.271l-0.883-0.732l-0.657-0.81l-2.111,2.265l-0.961,1.804
		l-0.308,1.921l-0.653,0.46l-0.386-0.967l-0.961-1.042l0.08,0.93l0.192,2l-0.615-0.001l-0.271-0.662l-0.346-0.156l-0.825,0.554
		l-0.784,0.492l-0.538-0.663l-0.651-2.216l0.269-1.997l0.615-2.535l0.116-1.421l0.668-1.224l1.224-1.522l1.149-1.751l0.841-5.822
		l1.149-1.427l1.531-1.111l1.898-0.762l2.039,0.079l1.581,1.012l0.449,2.163l1.44,2.002l1.839,1.49l1.457,1.882l1.623,1.657
		L515.332,378.593z"/>
	<path class="st0" d="M536.253,334.423l0.124,0.148l0.538,0.954l-0.305,2.157l-0.172,2.556l-0.544,3.841l-0.819,1.626l-1.324,1.787
		l-1.219,0.66l-0.531-1.742l-0.472-2.27l-1.042-1.703l-1.121-0.29l-0.669,1.933l1.101,0.254l0.655,0.833l0.315,1.22l0.072,1.404
		l-0.354,1.328l-0.826,0.31l-0.924,0.085l-0.642,0.644l0.118,0.708l0.103,1.838l0.328,1.896l-0.75,1.215l-0.682,1.215l0.672,0.949
		l0.538,0.543l-0.11,1.342l-1.656,0.544l-1.559,0.941l-2.238,2.221l-1.894-0.071l-0.03,0.103l-0.325-0.281l-2.289-0.811l-1.756-1.74
		l-0.541-2.74l-1.848-1.442l-4.145-2.285l-3.479-3.984l-2.089-1.589l-4.961-0.761l-1.207-2.443l2.014-4.065l-0.341-3.937
		l1.939-1.571l2.073-1.211l1.24-0.031l0.508-0.973l-0.774-1.28l-0.441-1.388l2.713-2.108l3.404-1.191l2.788-0.423l2.73,0.574
		l2.838,1.224l0.741,1.219l0.042,1.48l0.2,1.321l0.999,0.719l1.348,0.351l7.491-1.354l6.376,1.562L536.253,334.423z"/>
	<path class="st0" d="M533.319,234.15l0.02,0.167l0.413,3.943l1.101,4.112l0.439,4.142l-0.498,8.547l-0.492,1.836l-2.49,3.016
		l-0.97,1.697l-0.426,1.977l-0.341,12.07l0.275,1.636l0.492,0.909l0.537,0.365l0.432,0.503l0.465,3.393l0.596,2.596l0.649,0.454
		l0.432,0.56l-0.302,1.557l-0.649,0.876l-0.839,0.405l-0.793,0.26l-1.342,1.109l-0.074,1.363l1.697,1.576l1.22,1.369l1.286,1.573
		l1.633,0.281l2.068-1.623l5.118-5.608l0.984-1.651l1.329,1.059l0.295,1.711l0.57,1.779l0.419,1.981l-1.257,1.97l-2.904,5.78
		l-0.221,2.588l-0.862,6.804l-2.087,5.907l0.115,3.693l-2.136,6.412l-1.574,3.115l-0.686,1.557l0.67,1.768l0.618,0.739l-0.071,0.019
		l-6.376-1.562l-7.491,1.354l-1.348-0.351l-0.999-0.719l-0.2-1.321l-0.042-1.48l-0.741-1.219l-2.838-1.224l-2.73-0.574l-2.788,0.423
		l-3.404,1.191l-2.713,2.108l0.441,1.388l0.774,1.28l-0.508,0.973l-1.24,0.031l-2.073,1.211l-1.939,1.571l-2.256,0.755l-2.372-1.118
		l-3.096-0.77l-2.913,1.197l-0.924,1.195l-1.107,0.959l-1.165,0.154l-1.157,0.43l-2.622,2.082l-3.005-0.087l-2.514-1.325
		l-2.63-0.806l-3.013,0.54l-2.921,0.33l-2.522-1.598l-2.031-2.481l-0.666-5.477l-1.856,1.439l-1.989,2.838l-2.206-0.448
		l-4.311,2.216l-2.289-0.461l-2.064-1.551l-2.181-1.049l-2.322-0.389l-2.43,0.343l-4.969-0.21l-1.265-4.578l0.965-2.236l0.05-2.339
		l-1.074-1.263l-1.24-0.769l-0.275-0.854l-0.449-0.928l-1.781-1.261l-1.074-2.041l-1.531-1.667l-2.081-0.703l-2.281,0.021
		l-2.314-0.18l-1.307-0.883l-1.057-0.888l-2.439-0.19l-0.658-0.221l-0.649-0.295l-0.325-0.803l-0.067-0.785l-0.741-0.632
		l-0.749-0.565l-1.631-0.95l-0.649-2.208l0.375-6.333l-3.296-5.634l1.956-0.96l2.023-0.679l1.249-2.439l0.674-2.556l0.624-1.112
		l0.774-0.94l0.175-1.641l-0.017-1.365l-0.449-2.68l1.948-1.67l1.931,0.358l1.715,0.103l-0.915-5.203l-1.823-1.346l-4.112,0.988
		l-1.565-0.743l-2.281-1.906l-1.948-0.637l-3.238,0.764l-0.483-4.746l1.781-1.541l1.157-2.303l-0.891-1.578l-0.508-1.723
		l0.483-2.403l0.325-5.453l0.799-2.29l1.465-1.431l-3.945-5.734l-3.154-0.536l-0.907-2.292l1.19-0.555l1.182-0.215l1.165-1.249
		l1.814-2.439l0.449-1.024l-0.05-0.936l0.208-1.193l2.505-1.704l2.813-1.336l1.748-2.61l3.071,1.334l5.71,0.908l-1.174-2.258
		l-1.54-1.988l0.541-2.061l1.007-2.197l0.974-1.652l1.29,0.855l1.606-0.138l1.323-1.785l1.373-0.886l1.298,0.839l2.489,0.876
		l2.322,0.182l0.566-1.658l0.4-1.567l0.841-1.328l1.049-1.037l1.049,1.178l1.34,0.956l1.898,1.645l1.199,2.429l2.871,0.945
		l6.742-2.837l1.19-3.948l-1.065-0.983l-0.566-0.985l1.024-1.878l0.841-1.894l1.773-2.537l2.489-1.767l0.707-1.283l0.999-0.833
		l1.665-0.523l1.34-1.302l2.047-1.714l1.856-1.97l0.782-0.5l0.957,0.37l1.09-0.631l0.982-1.118l2.064,1.097l1.989,0.836l2.405,0.518
		l2.056,0.193l0.474-2.155l0.258-2.317l-0.533-2.482l1.465-1.789l2.189-1.028l2.197,0.172l1.132,1.99l1.556,0.357l1.398,0.696
		l-0.2,1.755l0.183,1.767l2.414-0.949l2.289-1.786l0.982,0.409l0.682,0.915l0.882,0.109l1.065-0.435l3.155,0.532l2.971,1.366
		l2.106-0.534l2.189-1.157l2.755,0.644l2.514,1.517l0.782,2.324l-1.906,1.428l-2.347-0.93l-1.507,0.565l-1.373,1.042l-0.583,2.5
		l0.358,3.264l1.656,2.509l2.655,1.259l0.591,2.143l0.757,1.851l1.848,0.793l1.731,0.985l5.901,0.442l-0.325,2.284l0.691,0.657
		l0.633,0.748l-0.866,2.53l-1.074,2.67l0.216,2.814l0.707,2.483l0.25,2.241l-0.891,2.388l5.576,2.061l2.58-1.143l2.688,0.617
		L533.319,234.15z M478.452,310.809l1.257-1.299l0.433-1.572l-0.042-1.682l-0.166-1.577l-0.866-0.737l-0.649-0.976l-0.025-2.513
		l0.391-0.663l0.042-0.787l-1.024-1.784l-3.229-2.371l-4.253,0.278l-5.127,0.689l-3.787,3.147l0.508,4.534l-1.382,1.521
		l-0.866,1.955l0.766,0.126l0.707,0.262l-0.15,0.991l-0.341,0.94l-1.298,0.213l-1.207,0.008l-1.115,1.558l0.483,1.835l1.249,0.488
		l1.173,1.155l0.957,1.852l1.423,1.154l0.99,0.641l0.741,0.613l0.616-0.526l1.149-2.011l1.149-0.908l2.605,0.262l4.653,1.213
		l1.798-1.09l0.241-0.931l0.008-0.642l0.758-1.986l0.108-0.839l-0.042-0.652l0.758-0.067L478.452,310.809z M652.583,140.35
		l1.376,1.041l-0.098,2.578l-0.891,2.871l-0.937,1.907l-1.534,0.772l-2.051-0.4l-1.992-1.197l-1.324-1.598l-0.419-2.069l0.682-1.545
		l1.448-0.967l2.864-0.488l1.914-0.707L652.583,140.35z"/>
	<path class="st0" d="M333.876,542.968l0.609,1.253l-0.374,0.428l-0.78,0.228l-0.557,0.668l0.039,0.562l0.511,0.891v0.522
		l-0.275,0.518l-0.688,0.907l-0.138,0.283l-1.453,1.681l-2.736,2.187l-0.849,1.823l-1.211,2.128l-0.058,0.853l-0.536,1.254
		l-1.986,0.231l-0.767,0.404l-2.115-0.186l-3.088,2.442l-8.139,1.497l-2.722,2.317l-3.333,0.742l-3.569-0.357l-4.079,0.761
		l-3.391-1.02l-7.653,0.11l-2.387,1.118l-1.421,2.519l-1.298,0.27l-1.298-0.623l-1.833-2.972l-2.442-0.831l-2.37-2.485l-0.826-3.026
		l1.435-3.921l1.357-2.432l0.839-0.855l2.798-1.66l2.39-4.159l2.198-0.564l1.016-2.197l3.768-1.302l8.216-2.358l2.058-1.775
		l7.852-0.824l5.344-2.333l1.28,0.362l6.508-1.051l3.773-0.313l2.497,0.421l0.954,1.436l1.186,0.928l3.886,1.545l1.18,1.199
		l0.793,2.892l0.78,1.131l0.374-0.44l0.511-0.42L333.876,542.968z"/>
	<path class="st0" d="M347.553,139.869l2.206-0.026l1.889-0.682l1.64-0.024l0.616,1.478l-0.216,1.514l-1.124,0.569l-1.223,0.813
		l0.025,1.836l0.649,0.729l-1.382,1.888l-0.766,1.326l-2.089,1.242l-2.297,0.535l-2.364,1.19l-0.924-2.123l-2.014,0.467
		l-1.998,0.624l-1.415,0.812l-1.473,0.241l-3.454-0.118l-2.364-3.111l-2.33-0.703l-1.606-1.059l-0.424-2.914l-1.598-2.28
		l-1.906-2.336l1.207-2.596l2.256,0.144l2.58,1.575l1.914-0.651l1.706-1.04l0.133-1.749l0.466-1.613l3.612-0.347l1.856-2.365
		l1.132-2.402l1.606-1.722l2.514-0.602l2.897,0.237l1.382,2.382l0.533,3.237l0.841,2.262l0.05,2.482L347.553,139.869z"/>
	<path class="st0" d="M377.059,258.407l-0.391,2.349l-1.057,1.7l-1.165,4.32l-2.106,1.701l-1.157,0.392l-3.505,2.622l-3.962,1.034
		l-1.668-5.431l-0.417-7.248l-1.46-2.849l-4.314-6.771l3.688-1.009l5.23-1.432l1.84,0.155l-0.183,0.766l0.283,0.727l0.574,0.631
		l0.699,0.339l0.466,1.123l-0.308,1.754l2.43,0.693l2.597-0.577l0.941-1.368l1.124,0.279l-0.142,1.14l0.991,0.509l0.141,1.787
		L377.059,258.407z"/>
	<path class="st0" d="M355.856,250.227l-5.49,1.502l-7.333-1.441l0.733-2.098l1.223-1.172l-0.252-15.189l1.877-5.2l11.459,4.572
		l-1.573,3.425l0.15,1.687l-1.007,2.879l-0.375,3.08l5.926-1.191l6.126,0.388l-0.058,1.09l-0.408,0.937l-0.158,0.764l0.266,0.642
		l0.058,0.507l0.092,0.507l-0.158,1.041l-0.341,0.983l-1.84-0.155l-5.23,1.432L355.856,250.227z"/>
	<path class="st0" d="M359.156,207.788l3.612-1.061l3.421-1.65l2.68-0.9l0.724-2.965l1.315-1.427l2.064-0.893l0.974-1.263
		l0.666-1.675l1.248-1.329l1.573,0.331l0.458,0.607l2.022-1.412l3.845-7.162l0.391-0.858l0.466-0.788l0.624-0.503l0.649-0.454
		l0.649-0.976l0.566-1.075l8.506-2.334l8.565-1.172l-0.691,4.876l2.447-0.579l2.464,0.172l0.683,0.425l0.691,0.324l0.624-0.545
		l0.541-0.66l1.631-1.12l-0.441-4.911l1.523-1.87l4.103-1.39l3.063,3.247v2.17l0.999,1.402l2.672-0.648l2.663-1.486l1.615-1.248
		l1.923,0.405l1.59-0.836l1.864-1.442l4.495,1.604l4.594,0.726l1.448,0.436l-0.932,2.128l-2.322,1.655l-1.382,2.145l0.882,0.997
		l1.14,0.631l0.716,0.016l0.732-0.344l2.447-0.819l3.837-0.438l0.799,0.882l-0.142,1.44l1.598,1.662l0.583,1.327l1.465-0.109
		l1.731-0.308l1.939-0.621l1.923-0.013l1.914,1.452l2.122,1.377l2.098,0.415l2.047,0.237l1.631,0.709l1.615,1.045l-0.982,1.118
		l-1.09,0.631l-0.957-0.37l-0.782,0.5l-1.856,1.97l-2.047,1.714l-1.34,1.302l-1.665,0.523l-0.999,0.833l-0.707,1.283l-2.489,1.767
		l-1.773,2.537l-0.841,1.894l-1.024,1.878l0.566,0.985l1.065,0.983l-1.19,3.948l-6.742,2.837l-2.871-0.945l-1.199-2.429
		l-1.898-1.645l-1.34-0.956l-1.049-1.178l-1.049,1.037l-0.841,1.328l-0.4,1.567l-0.566,1.658l-2.322-0.182l-2.489-0.876
		l-1.298-0.839l-1.373,0.886l-1.323,1.785l-1.606,0.138l-1.29-0.855l-0.974,1.652l-1.007,2.197l-0.541,2.061l1.54,1.988l1.174,2.258
		l-5.71-0.908l-3.071-1.334l-1.748,2.61l-2.813,1.336l-2.505,1.704l-0.208,1.193l0.05,0.936l-0.449,1.024l-1.814,2.439l-1.165,1.249
		l-1.182,0.215l-1.19,0.555l0.907,2.292l3.154,0.536l3.945,5.734l-1.465,1.431l-0.799,2.29l-0.325,5.453l-0.483,2.403l0.508,1.723
		l0.891,1.578l-1.157,2.303l-1.781,1.541l0.483,4.746l3.238-0.764l1.948,0.637l2.281,1.906l1.565,0.743l4.112-0.988l1.823,1.346
		l0.915,5.203l-1.715-0.103L417.851,279l-1.948,1.67l0.449,2.68l0.017,1.365l-0.175,1.641l-0.774,0.94l-0.624,1.112l-0.674,2.556
		l-1.249,2.439l-2.023,0.679l-1.956,0.96l-1.032,1.086l-1.032,0.946l-1.182-0.64l-1.174-1.121l-2.971,1.343l-2.589,1.587l-1.29-0.37
		l-0.749-0.939l-3.604-1.186l-1.207-1.433l-1.365-0.805l-0.524,0.702l-0.649,0.16l-0.766-0.702l-0.691-0.831l-1.831-2.849
		l-1.64-2.922l-0.691-3.418l0.108-3.447l-0.832-2.967l-2.472-1.516l-2.389-0.776l-2.597,0.539l-0.216-2.84l0.142-2.761l0.965-3.861
		l1.823-3.285l0.733-1.674l0.816-1.488l1.323-1l0.308-1.734l-1.032-0.344l-1.115-0.504l-1.357,0.99l-1.057,1.427l-0.832-2.662
		l-0.141-1.787l-0.991-0.509l0.142-1.14l-1.124-0.279l-0.941,1.368l-2.597,0.577l-2.43-0.693l0.308-1.754l-0.466-1.123l-0.699-0.339
		l-0.574-0.631l-0.283-0.727l0.183-0.766l0.341-0.983l0.158-1.041l-0.092-0.507l-0.058-0.507l-0.266-0.642l0.158-0.764l0.408-0.937
		l0.058-1.09l-6.126-0.388l-5.926,1.191l0.375-3.08l1.007-2.879l-0.15-1.687l1.573-3.425l2.231-3.237l1.698-2.953l0.674-0.724
		l0.766,0.119l0.749-0.21l0.408-0.768l0.108-0.865l0.25-1.098l0.391-1.059l0.2-1.135l-0.175-1.14l-0.533-1.011l-0.666-0.611
		l0.083-2.069l-1.057-0.743l-1.382-2.787l-1.082-0.629l-0.949-0.999L359.156,207.788z"/>
	<path class="st0" d="M337.058,371.188l1.631,4.508l-3.171,4.233l-4.969-0.794l-4.386-2.635l-2.206-4.849l1.74-1.646l2.888,0.767
		l2.114-0.481l2.206-0.663L337.058,371.188z"/>
	<path class="st0" d="M478.452,310.809l-0.607-0.18l-0.758,0.067l0.042,0.652l-0.108,0.839l-0.758,1.986l-0.008,0.642l-0.241,0.931
		l-1.798,1.09l-4.653-1.213l-2.605-0.262l-1.149,0.908l-1.149,2.011l-0.616,0.526l-0.741-0.613l-0.99-0.641l-1.423-1.154
		l-0.957-1.852l-1.173-1.155l-1.249-0.488l-0.483-1.835l1.115-1.558l1.207-0.008l1.298-0.213l0.341-0.94l0.15-0.991l-0.707-0.262
		l-0.766-0.126l0.866-1.955l1.382-1.521l-0.508-4.534l3.787-3.147l5.127-0.689l4.253-0.278l3.229,2.371l1.024,1.784l-0.042,0.787
		l-0.391,0.663l0.025,2.513l0.649,0.976l0.866,0.737l0.166,1.577l0.042,1.682l-0.433,1.572L478.452,310.809z"/>
</g>
<g id="Copyright">
	<text transform="matrix(1 0 0 1 681.6426 577.5916)" class="st1 st2"> Vemaps.com</text>
</g>
</svg>
