<?xml version="1.0" encoding="utf-8"?>
<!-- Generator: Adobe Illustrator 23.0.1, SVG Export Plug-In . SVG Version: 6.00 Build 0)  -->
<svg version="1.1" xmlns="http://www.w3.org/2000/svg" xmlns:xlink="http://www.w3.org/1999/xlink" x="0px" y="0px"
	 viewBox="0 0 800 600" style="enable-background:new 0 0 800 600;" xml:space="preserve">
<style type="text/css">
	.st0{fill:#808080;stroke:#FFFFFF;stroke-width:0.5;stroke-linecap:round;stroke-linejoin:round;}
	.st1{font-family:'Roboto-Regular';}
	.st2{font-size:14px;}
</style>
<g id="Suriname">
	<path class="st0" d="M619.977,133.515l-1.463,2.105l-1.492,5.154l-0.833,0.88l-1.985,1.401l-0.573,0.826l-0.313,1.465l-0.426,0.799
		l-7.042,7.959l-2.372,3.765l-0.793,2.04l-0.36,2.223l1.126,5.159l-0.253,1.909l-0.606,0.685l-3.431,2.41l-0.593,1.274l0.227,1.32
		l0.813,1.822v15.975l0.42,1.741l1.046,0.715l1.326,0.371l1.246,0.709l1.532,2.386l0.04,2.203l-0.44,2.47l0.107,3.175l1.605,4.227
		l0.233,1.514v5.297l-0.606,2.229l-2.552,4.735l-0.366,3.274l2.238,13.945l3.93,8.201l1.139,5.575l0.12,3.287l-0.826,2.214
		l-1.412,2.415l0.513,2.204l1.505,1.76l1.599,1.079l4.33,1.169l1.332,1.059l0.5,2.665l-0.373,1.947l-1.732,4.468l-0.533,2.01
		l0.167,3.206l1.226,2.167l4.404,3.974l0.813,1.259l1.386,4.478l0.859,1.175l1.799,1.446l0.866,0.905l3.191,5.966l2.425,1.312
		l0.546,1.105l0.446-0.073l0.966,1.516l1.232,2.531l1.306,1.579l0.74,0.474l1.472,0.671l4.397,1.302l1.366,0.905l2.671,3.966
		l1.332,1.419l2.631,9.166l3.011,4.593l0.073,0.778l1.379-0.247l1.419-0.437l1.359-0.21l1.166,0.457l1.805,1.849l0.773,1.629
		l-0.187,1.976l-1.033,2.927l-1.033,5.427l0.42,9.768l-2.105,5.169l-4.683,4.868l-0.6,1.738l-0.307,2.262l-0.873,2.532l-1.386,2.242
		l-0.073,0.053l-4.317,3.09l-3.318,5.211l-4.71,5.738l-1.792,2.902l-2.671,6.545l2.991-0.46l1.406,1.861l0.306,2.922l-0.3,2.729
		l-0.313,0.32l-0.586,0.3l-0.58,0.434l-0.28,0.707l0.273,0.107l1.206,0.867l0.28,0.347l0.793,3.109l0.22,1.821l-0.573,0.801
		l-1.486,0.867l0.693,1.814l1.419,1.594l0.686,0.214l0.06,1.774l-0.933,3.949l-0.393,0.761l-1.779,2.608l-0.466,1.481l-0.087,1.354
		l0.22,0.867l0.806,0.874l1.699,1.394l-1.546,0.84l-0.866,1.067l-2.039,6.003l-1.006,1.981l-9.386,12.705l-4.523,9.203l-5.03,12.73
		l-2.085,3.127l-6.169,6.174l-1.546,0.62l-1.945,0.28l-2.845,0.033l-1.379,0.754l-1.299,0.747l-3.471,8.795l-1.452,1.127
		l-2.525,0.267l-4.33-1.32l-1.865,0.327l-2.072,2.52l-2.428,0.793l-2.482,0.467l-2.512,0.067l-2.531-0.387l-1.499-0.753l-0.313-1.04
		l0.143-1.247l-0.167-1.373l-1.156-2.934l0.74-2.434l0.346-0.14l0.676,0.02l0.616-0.207l0.213-0.8l-0.16-0.72l-0.55-1.393
		l-0.186-0.754l-0.083-2.594l-0.576-0.58l-1.742-0.987l-2.818-1.1l-2.162,0.093l-2.023,1.091l-2.191,1.182l-6.372,1.894
		l-4.946-1.787l-12.671-12.349l-0.546-1.2l0.42-1.774l2.492-2.527l0.846-1.727l-0.699-1.28l-2.292,0.267l-5.27,2.107l-2.578,1.634
		l-4.97,4.221l-4.663,2.247l-1.086,0.387l-1.026-0.113l-0.999-1.047l0.453-2.461l-0.606-1.2l-4.403,0.367l-10.309,7.929
		l-3.008-0.187l-1.512-1.88l-2.039-0.747l-2.285,0.18l-2.222,0.907l-2.162,2.114l-0.716,2.407l-0.346,2.361l-1.069,1.987
		l-3.677,1.594l-4.637-0.087l-4.996-0.64l-4.77-0.073l-7.335,0.66l-2.465-0.333l-2.705-0.013l-4.78,2.234l-10.173,2.547
		l-2.555-0.533l-1.352-1.08l-1.486-2.82l-0.959-1.133l-1.232-0.66l-9.107-2.254l-2.178-1.067l-7.008-5.775l-2.858-1.614l-3.071-0.28
		l-1.546,0.5l-0.803,0.727l-0.989,2.267l-1.366,5.494l-0.087,5.728l-0.666,2.254l-3.767,5.641l-0.989,1.04l-1.536,0.707
		l-1.452-0.107l-1.142-0.687l-1.182-0.54l-1.589,0.367l-1.679,2.06l-1.959,3.707l-1.532,3.82l-0.373,2.393l1.486,0.987l5.646,0.34
		l2.388,0.567l2.438,2.253l1.183,5.073l1.742,2.74l3.471,2.387l1.112,0.98l4.617,5.986l4.404,3.78l0.973,1.456l0.403,1.643
		l-0.21,1.18l-0.466,1.176l-0.413,1.65l0.16,5.733l0.719,5.149l-0.68,4.646l-4.097,4.249L400.951,570l-8.121-1.683l-8.074-3.253
		l-8.314-2.163l-6.209,0.373l-2.045-0.24l-2.438-1.027l-4.63-2.966l-2.491-1.05l-2.478-0.293l-3.784,0.93l-2.405,0.253l-1.885-0.387
		l-6.705-2.44l-0.423-1.496l-0.786-1.25l-1.133-0.913l-2.705-0.87l-1.086-0.653l-0.916-0.883l-0.719-1.1l-4.86-2.533l-12.638-0.207
		l-3.531-1.45l-12.411-17.586l-0.939-3.847l-0.979-2.813l-1.269-5.687l-1.635-2.507l-1.149-0.613l-2.975-0.553l-1.196-0.6
		l-0.553-1.154l0.07-4.647l-1.439-2.88l-4.613-4.027l-0.983-2.34l0.829-1.854l0.23-1.34l-0.623-1.254l-2.135-1.98l-0.61-1.133
		l-0.416-1.774l0.266-1.254l0.633-1.427l0.173-1.407l-1.072-1.194l-2.632,1.934l-1.819,0.627l-0.833-1.2l0.68-4.348l-0.233-0.94
		l-3.258-3.794l-0.626-1.167l-0.087-2.194l0.613-1.687l0.346-1.52l-0.873-1.647l-2.678,1.514l-1.026-0.76l-0.773-5.082l-1.279-2.367
		l-3.331-3.521l-0.673-1.687l0.506-1.281l0.886-1.634l0.293-1.401l-1.246-0.607l-4.41,0.667l-0.426,0.293l-0.853-2.434l2.225-4.649
		l-0.899-0.847l-1.526,0.28l-2.585,1.207l-1.206,0.273l-1.546-0.554l-0.573-1.207l-0.413-1.214l-1.033-0.547L247.968,438
		l-1.712-6.677l1.199-1.281l2.012-1.601l1.406-1.814l-0.62-1.914l-4.284-0.454l-1.645-0.947l1.053-1.681l0.68-1.188l-0.08-1.014
		l-0.373-1.127l-0.227-1.561l0.413-0.454l1.805,0.093l0.42-0.527l-0.133-0.974l-0.613-1.634l-0.14-0.994l-1.206-2.869l-2.225-2.048
		l-1.173-2.355l1.965-3.783l-0.44-0.234l-0.087-0.067l-0.027-0.113l-0.24-0.387l-0.873,0.807l-1.126,0.747l-1.279,0.414
		l-1.292-0.214l-1.432-1.048l0.24-0.847l0.833-1.027l0.36-1.561l-1.386-2.982l-0.293-1.421l0.107-1.581l0.693-2.656l0.167-1.535
		l-0.46-1.541l-0.806-1.061l-0.286-1.074l1.066-1.615l0.187-0.807l0.3-4.484l-0.4-1.812l-3.204-6.6l-4.077,3.197l-3.444,0.587
		l-3.444-1.061l-4.07-1.765l0.14,2.339l-0.899,1.131l-3.644,0.941l-0.32,0.434l-0.913,0.877l-0.966,0.547l-0.446-0.574l-0.3-0.667
		l-0.766-0.384l-1.013-0.187l-1.039-0.047l-0.74-0.561l-1.645-0.978L205.565,372l-1.259,2.536l-1.186,0.18l-1.406-0.397
		l-4.003-2.234l-0.027-0.015l-2.172-1.215l-3.637-0.747l-1.093-0.454l-0.633-0.54l-0.433-0.657l-0.56-1.531l-0.267-1.352l0.08-1.071
		l0.653-2.332l0.073-0.868l-0.28-1.598l-0.02-0.841l1.959-3.808l0.186-2.283l-2.112-2.393l-2.685-1.565l-0.5-0.24l-0.273-0.387
		L184.587,348l-0.626-0.267l-0.58-0.644l-0.167-0.447l-0.113-0.461l-1.026-1.906l-0.646-2.263l-0.466-0.935l-4.917-3.151
		l-6.302-2.617l-2.145-1.368l-1.446-2.397l-0.766-2.727l-0.347-5.862l-0.546-2.48l-2.745-5.882l-6.535-9.588l-2.099-2.461
		l-8.48-6.698l-3.124-3.933l-1.272-4.565l-1.686-10.99l-1.626-5.567l0.227-2.675l1.792-2.749l11.225-11.497l1.432-2.195l0.833-2.552
		l0.273-3.254l-0.36-2.141l-0.699-1.968l-0.406-2.035l0.513-2.365l1.272-1.988l1.479-1.647l1.219-1.694l0.953-4.283l2.372-5.747
		l2.185-3.662l2.038-6.583l2.305-3.335l1.033-2.246l0.18-2.453l-1.073-2.286l-3.458-4.425l-1.725-5.321l-2.138-1.431l-2.152-1.093
		l-0.973-1.782l0.886-4.349l2.072-2.972l2.352-2.527l1.739-2.156l2.625-4.383l0.973-0.916l1.619-0.411l1.246,0.358l1.239,0.615
		l1.612,0.321l3.158-0.438l1.499-1.177l1.939-3.685l3.458-3.337l4.324-2.13l4.843-0.281l5.063,2.21l5.656-2.036l2.958-0.518
		l3.311-0.174l0.693,0.425l1.979,1.876l0.853,0.428l1.665-0.147l2.172-0.665l10.199-1.05l3.244-0.866l1.379-0.542l0.959-0.535
		l1.113-0.431l1.832-0.261l1.126,0.214l1.006,0.431l1.059,0.107l1.292-0.752l-4.703-4.253l-0.579-1.448l0.16-1.715l0.4-1.468
		l1.919-4.364l0.859-3.719l0.846-1.789l1.452-0.762l2.292,0.08l1.632,0.508l1.099,1.341l0.7,2.575l2.005-0.833l2.032-1.174
		l1.572-1.502l0.633-1.803l-0.966-2.592l-4.297-5.235l-0.876-2.196l6.325-0.955l7.528-0.415l51.716-8.042l30.944,2.134l12.105-0.462
		l2.118-1.017l1.669-1.137l2.681-2.248l2.268-2.395l1.955-1.158l2.618-0.783l7.448-0.589l12.704,0.682l7.891-0.562l1.182-0.455
		l2.265-4.416l2.358-0.696l0.58-0.402l1.076-1.974l0.836-0.904l3.118-1.82l1.712-0.529l0.436-0.495l0.143-1.345l-1.219-2.222
		l-0.04-0.642l0.246-0.562l1.665-1.084l5.276-1.673l-6.792,20.599l-3.891,29.329l-0.107,4.361l0.23,2.287l6.089,1.578l1.329,0.114
		l1.436-0.094l6.282-1.853l2.968-0.575l2.748-0.174l2.595,0.348l8.204,2.675l1.482,0.722l1.439,1.003l1.622,1.558l0.769,1.384
		l0.35,1.391l0.13,1.665l0.346,1.919l0.963,2.875l1.322,1.137l1.459,0.475l5.566-1.184l3.921-1.658l2.292-1.311l1.386-0.602
		l0.49-0.348l1.426-0.441l0.749-0.481l0.546-0.709l0.39-1.612l0.28-0.716l0.59-0.568l0.616-0.756l1.013-1.538l0.703-0.448
		l1.429-0.261l0.986-0.615l13.067,20.563l1.702,3.925l1.539,4.861l2.152,21.198l-0.953,24.902l0.07,0.882l0.077,0.107l0.123,0.053
		l1.522,1.878l1.679,2.94l0.779,2.051l0.416,1.804l2.571,45.532l0.916,4.301l0.673,1.269l1.096,1.029l1.236,0.601l1.359,0.301
		l1.352-0.12l1.332-0.361l8.377-4.334l1.302-1.029l5.529-5.256l1.439-0.882l1.439-0.594l1.479-0.374l4.21-0.508l1.272-0.414
		l1.212-0.922l1.039-1.269l1.579-2.678l0.823-1.122l0.976-0.855l1.139-0.16l0.899,0.327l1.526,1.256l2.192,3.42l1.232,0.748
		l1.242-0.534l0.946-1.075l0.586-1.329l0.889-2.846l0.653-1.483l3.388-5.718l2.871-7.749l0.22-1.122l-0.037-2.806l-0.2-1.336
		l-2.288-6.842l-0.603-2.846l-0.173-1.517l-0.007-1.61l0.197-1.457l0.666-1.604l1.036-1.403l4.333-3.956l2.422-2.773l0.859-1.41
		l0.586-1.444l0.51-2.987l-0.23-11.409l0.12-1.444l0.42-1.363l1.999-3.944l0.426-1.417l0.366-2.941l0.293-1.384l0.56-1.397
		l1.499-2.835l0.599-1.524l0.343-1.551l0.18-3.202l0.31-1.478l0.656-1.364l1.695-2.701l0.506-1.351l0.133-1.317l-0.253-1.411
		l-0.4-1.043l-1.522-2.742l-3.487-3.156l-8.674-3.37l2.165-6.139l1.296-7.464l2.745-9.912l0.536-0.95l0.929-1.237l4.58-4.034
		l0.779-1.151l1.582-4.174l7.605-14.612l1.246-1.894l1.852,0.609l23.453,8.819l1.762,0.93l7.182,4.917l4.62,1.592l1.822,0.856
		l1.169,0.696l3.028,3.124L619.977,133.515z"/>
	<path class="st0" d="M244.594,127.286l-0.103-0.259l-0.553-0.796l-1.292-0.395l-1.466,0.074l-1.086,0.636l-0.227,1.241l0.666,1.251
		l1.319,1.569l-0.34,0.86l-0.853,0.555l-1.113,0.147l-1.133-0.321l-0.646-0.709l-0.233-1.02l-0.2-9.042l-0.413-0.361l-0.813,0.04
		l-1.299-0.318l-1.859,0.759h-1.146l-0.513-1.201l0.44-1.422l1.052-1.388l6.269-6.32l1.326-2.068l0.513-3.028l0.147-2.777
		l0.406-2.058l1.195-2.7l1.763-1.818l1.149-1.107l4.133-1.581l1.742-1.407l1.206-1.581l0.834-1.85l3.1-13.994l0.614-12.283
		l0.887-4.308l0.288-3.238l1.537-5.274l1.491-3.573l3.415-5.649l0.535-1.456l0.724-1.15l1.075-0.749l2.948-0.522l0.892-0.585
		l0.671-0.585l0.677-0.259l0.598-0.38l1.637-1.83l0.724-0.606l1.264-0.469l1.301-0.237l1.383-1.431L280.172,30l3.57,0.948
		l7.976,1.896l4.72,0.529l6.398,0.006l10.067,0.43l5.559,0.321l2.202,0.842l3.998,2.537l0.992,0.43l0.024,1.252l0.243,21.631
		l0.366,3.268l1.982,4.419l1.422,2.209l0.523,1.165l0.247,2.946l0.313,1.379l3.244,6.587l4.72,5.716l0.307,0.883l0.25,1.319
		l-0.3,1.613l-0.38,0.609l-0.666,0.1l-1.529-0.924l-0.846-0.281l-0.809,0.174l-0.753,0.629l-0.663,0.703l-0.749,0.562l-0.813,0.1
		l-0.863-0.161l-0.71,0.107l-0.2,0.79l0.48,1.312l4.27,4.39l0.64,1.044l0.353,1.252l-0.123,1.813l-0.586,1.238l-0.71,0.917
		l-0.633,0.656l-0.553,0.803l-0.11,1.432l-0.49,0.803l-0.286,0.79l0.147,0.562l0.909,0.361l2.052,0.468l1.146,0.462l0.789-0.288
		l0.326-0.642l0.393-1.927l0.47-0.85l0.576-0.442l0.74-0.08l0.839,0.462l1.036,1.358l0.746,1.412l0.889,2.195l0.656,1.265
		l0.033,1.204l-0.59,1.184l-0.939,0.602l-1.379,1.519l-30.944-2.134l-51.716,8.042l-7.528,0.415L244.594,127.286z"/>
	<path class="st0" d="M639.273,115.919l-2.513,2.929l-10.146,7.336l-5.436,5.603l-1.202,1.728l-0.057-0.059l-3.028-3.124
		l-1.169-0.696l-1.822-0.856l-4.62-1.592l-7.182-4.917l-1.762-0.93l-23.453-8.819l4.244-6.002l0.686-1.372l0.536-1.379l0.343-1.579
		l0.21-1.76l0.05-2.744l-0.673-4.464l-1.925-4.618l-3.198-4.672l-2.658-5.382l-3.987-5.918l-1.006-2.196l-1.106-3.87l-1.009-2.049
		l-1.069-2.799l-0.2-0.978l-0.39-3.348l0.153-1.607l0.526-1.446l2.518-3.02l0.886-1.842l-0.933-10.341l0.909-2.786l0.647-1.586
		l4.043,0.729l26.012,3.658l15.876,3.527l12.367,2.455l10.746,3.486l9.275,2.665l2.957,0.318l1.602,0.561l3.262-0.232l0.746,1.058
		l1.351,0.51l0.744,1.309l-0.209,1.353l3.122,5.987l0.738,2.311l-1.233,1.443l-3.072,5.901l-1.469,2.548l-0.682,5.157l-1.795,10.03
		l-1.385,5.075l-1.61,2.988l-2.345,2.835l-2.235,1.955l-1.207,1.302l-0.525,1.212l-0.771,2.477L639.273,115.919z"/>
	<path class="st0" d="M325.655,37.938l1.369,0.593l2.469,0.648l6.071,0.545l13.993,3.266l8.159,2.162l6.603,0.28l6.064,1.569
		l4.374,1.251l4.021,1.055l8.687,1.888l5.314,1.773l3.151,0.859l2.656,0.463l5.003,1.743l8.144,0.784l2.337,2.582l1.846,1.086
		l0.755,1.729v11.181h0.057l-0.274,0.602l-1.775,1.881l-1.952,0.475l-3.524,0.402l-1.073,0.388l-0.749,0.522l-0.343,0.669
		l-0.253,0.93l0.073,0.823l0.27,0.87l0.46,0.964l0.996,1.566l3.431,3.722l0.493,0.395l0.959,1.064l0.733,2.45l-5.276,1.673
		l-1.665,1.084l-0.246,0.562l0.04,0.642l1.219,2.222l-0.143,1.345l-0.436,0.495l-1.712,0.529l-3.118,1.82l-0.836,0.904l-1.076,1.974
		l-0.58,0.402l-2.358,0.696l-2.265,4.416l-1.182,0.455l-7.891,0.562l-12.704-0.682l-7.448,0.589l-2.618,0.783l-1.955,1.158
		l-2.268,2.395l-2.681,2.248l-1.669,1.137l-2.118,1.017l-12.105,0.462l1.379-1.519l0.939-0.602l0.59-1.184l-0.033-1.204
		l-0.656-1.265l-0.889-2.195l-0.746-1.412l-1.036-1.358l-0.839-0.462l-0.74,0.08l-0.576,0.442l-0.47,0.85l-0.393,1.927l-0.326,0.642
		l-0.789,0.288l-1.146-0.462l-2.052-0.468l-0.909-0.361l-0.147-0.562l0.286-0.79l0.49-0.803l0.11-1.432l0.553-0.803l0.633-0.656
		l0.71-0.917l0.586-1.238l0.123-1.813l-0.353-1.252l-0.64-1.044l-4.27-4.39l-0.48-1.312l0.2-0.79l0.71-0.107l0.863,0.161l0.813-0.1
		l0.749-0.562l0.663-0.703l0.753-0.629l0.809-0.174l0.846,0.281l1.529,0.924l0.666-0.1l0.38-0.609l0.3-1.613l-0.25-1.319
		l-0.307-0.883l-4.72-5.716l-3.244-6.587l-0.313-1.379l-0.247-2.946l-0.523-1.165l-1.422-2.209l-1.982-4.419l-0.366-3.268
		l-0.243-21.631L325.655,37.938z"/>
	<path class="st0" d="M416.73,73.395h0.903l0.677-2.04l0.22-2.024l-0.095-4.386l-0.42-2.272l-2.224-4.888l-1.396-3.186l1.985-2.617
		l-1.294-1.16l-1.578,0.073l-1.51,0.068l-1.794-1.515l-0.425-2.59l0.58-1.942l2.093-2.733l0.879-1.33l1.704-1.785l1.256-1.339
		l1.882-1.427l2.328-0.889l3.043-0.797l3.131-0.17l11.732-0.511l6.512-0.524l5.319-0.084l31.24,1.56l7.609,1.447l3.622,2.509
		l2.04,0.858l2.736,0.872l0.907,0.464l1.364,1.118l-0.081,0.236l-8.304,17.565l-3.627,3.91l-1.086,0.77l-0.33,1.5l-0.127,3.087
		l0.796,4.693l0.716,1.326l0.313,0.87l-0.033,0.884l-0.593,0.736l-1.262,0.602l-2.175,0.522l-1.486,1.044l-0.306,0.863l0.453,0.763
		l0.69,0.689l0.48,0.843l0.14,0.93l-0.39,0.944l-0.756,0.864l-1.076,0.964l-0.38,0.924l-0.343,1.841l-0.869,1.72l0.043,0.85
		l0.57,0.883l1.919,1.526l0.593,0.81l0.093,0.837l-0.243,0.924L482.505,98l-0.613,0.803l-0.31,0.79l-0.19,1.619l-0.37,0.703
		l-0.969,0.596l-1.922,0.863l-1.109-0.007l-0.706,0.729l-0.263,0.763l-0.416,0.703l-0.689,0.254l-0.896-0.669l-0.726-0.683
		l-0.793-0.415l-1.033,0.401l-0.789,0.535l-1.569,0.415l-39.172,3.078l-5.076-1.352l-1.596-0.094l-5.806,1.512l-1.116-0.241
		l-0.943-0.696l-0.283-2.088l-0.536-1.606l0.027-1.78l0.949-2.148l1.266-1.278l0.763-1.325l0.103-1.305l-1.322-1.379l-0.52-1.606
		l-1.679-1.974l-0.733-2.45l-0.959-1.064l-0.493-0.395l-3.431-3.722l-0.996-1.566l-0.46-0.964l-0.27-0.87l-0.073-0.823l0.253-0.93
		l0.343-0.669l0.749-0.522l1.073-0.388l3.524-0.402l1.952-0.475l1.775-1.881L416.73,73.395z"/>
	<path class="st0" d="M499.757,42.155l1.327,1.092l1.29,0.791l0.404,0.111l-0.094,0.547l-0.107,1.915l0.32,4.748l0.956,3.603
		l0.57,1.332l0.766,1.239l0.919,1.025l2.232,1.44l5.519,1.808l0.386,0.824l1.556,2.41l1.929,2.116l2.342,1.714l5.143,1.634
		l2.545,1.125l1.112,1.747l-0.829,0.957l-0.699,0.341l-6.475-1.941l-3.268-0.161l-13.777,2.671l-4.337,0.12l-12.488-1.446
		l-0.796-4.693l0.127-3.087l0.33-1.5l1.086-0.77l3.627-3.91l8.304-17.565L499.757,42.155z"/>
	<path class="st0" d="M502.778,44.149l1.075,0.285h1.102l1.347,0.188l1.814,0.177l1.477-0.505l1.657-0.699l2.09-0.194l2.206,1.597
		l2.565,1.903l0.996,1.913l-1.546,3.795l-1.904,2.123l0.163-0.079l-2.083,1.836l-1.592,0.743l0.886,2.799l0.829,1.774l-5.519-1.808
		l-2.232-1.44l-0.919-1.025l-0.766-1.239l-0.57-1.332l-0.956-3.603l-0.32-4.748l0.107-1.915L502.778,44.149z"/>
	<path class="st0" d="M515.819,54.653l3.554-1.185l1.202-2.889l0.124-2.893l0.674-0.996l2.849-0.011l4.259,2.996l2.612,0.548
		l1.684-0.38l1.049-0.675l0.997-0.232l2.885,1.772l1.096,0.195l1.096-0.237l1.269-0.443l1.007-0.633l0.703-0.865l0.865-0.749
		l1.511-0.327l1.222,0.264l1.296,0.649l2.282,1.661l-0.582-1.055l-0.876-1.023l-1.012-0.881l-1.044-0.575l-1.7-0.337l-1.174,0.178
		l-1.195,0.959l-1.478,0.901l-2.951,0.272l-1.98-1.256l-1.814-0.404l-2.047,1.183l-1.943-0.093l-1.951-1.619l-2.004-1.013
		l-7.48-2.157l-2.623-1.26l-2.235-1.487l-0.955-1.392l-0.483-1.361l-0.753-0.875l0.856-1.358l1.138-0.733l3.564-1.427l4.067-0.699
		l5.221-0.318l3.983-0.038l30.98,1.055l2.35,0.559l5.518,0.617l0.984,0.177l-0.647,1.586l-0.909,2.786l0.933,10.341l-0.886,1.842
		l-2.518,3.02l-0.526,1.446l-0.153,1.607l0.39,3.348l0.2,0.978l1.069,2.799l1.009,2.049l1.106,3.87l1.006,2.196l3.987,5.918
		l2.658,5.382l3.198,4.672l-49.301,3.608l-2.585-0.08l-2.412-0.776l0.25-7.256l-0.1-1.319l-0.413-0.562l-0.5-0.241l0.053-0.529
		l0.167-0.596l-0.16-0.402l-0.786-0.04l-0.813,0.348l-0.673,0.415l-0.37,0.161l-1.286-0.187l-0.49,0.228l-0.047-0.12l0.06-1.245
		l0.276-0.281l1.486-2.812l4.63-2.243l0.699-0.341l0.829-0.957l-1.112-1.747l-2.545-1.125l-5.143-1.634l-2.342-1.714l-1.929-2.116
		l-1.556-2.41l-0.386-0.824l-0.829-1.774l-0.886-2.799l1.592-0.743L515.819,54.653z"/>
	<path class="st0" d="M527.343,74.673l-4.63,2.243l-1.486,2.812l-0.276,0.281l-0.06,1.245l0.047,0.12l0.49-0.228l1.286,0.187
		l0.37-0.161l0.673-0.415l0.813-0.348l0.786,0.04l0.16,0.402l-0.167,0.596l-0.053,0.529l0.5,0.241l0.413,0.562l0.1,1.319
		l-0.25,7.256l2.412,0.776l2.585,0.08l49.301-3.608l1.925,4.618l0.673,4.464l-0.05,2.744l-0.21,1.76l-0.343,1.579l-0.536,1.379
		l-0.686,1.372l-4.244,6.002l-1.852-0.609l-1.246,1.894l-7.605,14.612l-1.582,4.174l-0.779,1.151l-4.58,4.034l-0.929,1.237
		l-0.536,0.95l-2.745,9.912l-1.296,7.464l-2.165,6.139l-1.052,0.735l-0.829,0.013l-0.869-0.642l-0.356-0.963l0.1-1.003l0.43-2.046
		l-0.023-5.176l-0.196-1.318l-0.413-1.251l-1.013-1.157l-0.979-0.916l-0.686-1.177l-0.023-1.204l0.596-2.702l-0.14-1.371
		l-0.446-1.371l-0.736-1.311l-1.003-1.298l-1.223-1.137l-6.812-4.676l-1.179-1.09l-0.796-1.311l-0.34-1.405l-0.42-7.834l-0.58-1.224
		l-0.886-0.977l-2.621-0.415l-38.482,0.335l-3.354,0.676l-1.279,1.847l-0.273,1.278l0.593,1.137l0.66,0.803l0.533,0.776l0.18,0.816
		l-0.083,0.856l-0.46,1.178l-4.587,7.573l-4.277,4.361l-6.255,4.629l-4.43,5.083l-0.986,0.615l-1.429,0.261l-0.703,0.448
		l-1.013,1.538l-0.616,0.756l-0.59,0.568l-0.28,0.716l-0.39,1.612l-0.546,0.709l-0.749,0.481l-1.426,0.441l-0.49,0.348l-1.386,0.602
		l-2.292,1.311l-3.921,1.658l-5.566,1.184l-1.459-0.475l-1.322-1.137l-0.963-2.875l-0.346-1.919l-0.13-1.665l-0.35-1.391
		l-0.769-1.384l-1.622-1.558l-1.439-1.003l-1.482-0.722l-8.204-2.675l-2.595-0.348l-2.748,0.174l-2.968,0.575l-6.282,1.853
		l-1.436,0.094l-1.329-0.114l-6.089-1.578l-0.23-2.287l0.107-4.361l3.891-29.329l6.792-20.599l1.679,1.974l0.52,1.606l1.322,1.379
		l-0.103,1.305l-0.763,1.325l-1.266,1.278l-0.949,2.148l-0.027,1.78l0.536,1.606l0.283,2.088l0.943,0.696l1.116,0.241l5.806-1.512
		l1.596,0.094l5.076,1.352l39.172-3.078l1.569-0.415l0.789-0.535l1.033-0.401l0.793,0.415l0.726,0.683l0.896,0.669l0.689-0.254
		l0.416-0.703l0.263-0.763l0.706-0.729l1.109,0.007l1.922-0.863l0.969-0.596l0.37-0.703l0.19-1.619l0.31-0.79L482.505,98l0.59-0.924
		l0.243-0.924l-0.093-0.837l-0.593-0.81l-1.919-1.526l-0.57-0.883l-0.043-0.85l0.869-1.72l0.343-1.841l0.38-0.924l1.076-0.964
		l0.756-0.864l0.39-0.944l-0.14-0.93l-0.48-0.843l-0.69-0.689l-0.453-0.763l0.306-0.863l1.486-1.044l2.175-0.522l1.262-0.602
		l0.593-0.736l0.033-0.884l-0.313-0.87l-0.716-1.326l12.488,1.446l4.337-0.12l13.777-2.671l3.268,0.161L527.343,74.673z"/>
	<path class="st0" d="M467.556,150.6l4.43-5.083l6.255-4.629l4.277-4.361l4.587-7.573l0.46-1.178l0.083-0.856l-0.18-0.816
		l-0.533-0.776l-0.66-0.803l-0.593-1.137l0.273-1.278l1.279-1.847l3.354-0.676l38.482-0.335l2.621,0.415l0.886,0.977l0.58,1.224
		l0.42,7.834l0.34,1.405l0.796,1.311l1.179,1.09l6.812,4.676l1.223,1.137l1.003,1.298l0.736,1.311l0.446,1.371l0.14,1.371
		l-0.596,2.702l0.023,1.204l0.686,1.177l0.979,0.916l1.013,1.157l0.413,1.251l0.196,1.318l0.023,5.176l-0.43,2.046l-0.1,1.003
		l0.356,0.963l0.869,0.642l0.829-0.013l1.052-0.735l8.674,3.37l3.487,3.156l1.522,2.742l0.4,1.043l0.253,1.411l-0.133,1.317
		l-0.506,1.351l-1.695,2.701l-0.656,1.364l-0.31,1.478l-0.18,3.202l-0.343,1.551l-0.599,1.524l-1.499,2.835l-0.56,1.397
		l-0.293,1.384l-0.366,2.941l-0.426,1.417l-1.999,3.944l-0.42,1.363l-0.12,1.444l0.23,11.409l-0.51,2.987l-0.586,1.444l-0.859,1.41
		l-2.422,2.773l-4.333,3.956l-1.036,1.403l-0.666,1.604l-0.197,1.457l0.007,1.61l0.173,1.517l0.603,2.846l2.288,6.842l0.2,1.336
		l0.037,2.806l-0.22,1.122l-2.871,7.749l-3.388,5.718l-0.653,1.483l-0.889,2.846l-0.586,1.329l-0.946,1.075l-1.242,0.534
		l-1.232-0.748l-2.192-3.42l-1.526-1.256l-0.899-0.327l-1.139,0.16l-0.976,0.855l-0.823,1.122l-1.579,2.678l-1.039,1.269
		l-1.212,0.922l-1.272,0.414l-4.21,0.508l-1.479,0.374l-1.439,0.594l-1.439,0.882l-5.529,5.256l-1.302,1.029l-8.377,4.334
		l-1.332,0.361l-1.352,0.12l-1.359-0.301l-1.236-0.601l-1.096-1.029l-0.673-1.269l-0.916-4.301l-2.571-45.532l-0.416-1.804
		l-0.779-2.051l-1.679-2.94l-1.522-1.878l-0.123-0.053l-0.077-0.107l-0.07-0.882l0.953-24.902l-2.152-21.198l-1.539-4.861
		l-1.702-3.925L467.556,150.6z"/>
</g>
<g id="Copyright">
	<text transform="matrix(1 0 0 1 681.6426 577.5916)" class="st1 st2">© Vemaps.com</text>
</g>
</svg>
