<?xml version="1.0" encoding="utf-8"?>
<!-- Generator: Adobe Illustrator 23.0.1, SVG Export Plug-In . SVG Version: 6.00 Build 0)  -->
<svg version="1.1" xmlns="http://www.w3.org/2000/svg" xmlns:xlink="http://www.w3.org/1999/xlink" x="0px" y="0px"
	 viewBox="0 0 800 600" style="enable-background:new 0 0 800 600;" xml:space="preserve">
<style type="text/css">
	.st0{fill:#808080;stroke:#FFFFFF;stroke-width:0.5;stroke-linecap:round;stroke-linejoin:round;}
	.st1{font-family:'Roboto-Regular';}
	.st2{font-size:14px;}
</style>
<g id="Trinidad_and_Tobago">
	<path class="st0" d="M348.431,255.918l1.419-0.116l21.475,2.619l47.04,0.202l3.446-2.635l1.612,1.279l3.907,5.715l0.409,3.668
		l-0.094,3.667l-2.398,2.26l-3.467,1.727l-2.65,1.855l-6.619,7.484l-2.304,1.727l-3.687,1.151l-11.479,1.151l-0.775,1.62
		l1.718,0.768l2.084,0.682l2.545,0.171l1.739,0.853l2.147,1.876l0.398,3.454l-0.157,7.29l-1.728,6.246l1.32,6.799l1.54,2.941
		l3.037,3.986l0.848,2.536l0.011,2.941l-0.66,3.005l-2.545,3.218l-1.697,2.6l-10.442,4.987l-11.605,3.687l-17.501,0.746l-5.708,1.3
		l-5.017,2.28l-5.09,0.277l-3.949-0.831h-1.979l-1.77,3.239l-16.538-0.32l-4.86-31.477l0.136-10.274l-2.891-18.119l0.848-7.163
		l2.262-4.115l3.467-1.045l10.819,1.556l2.598-0.256l2.985-0.831l2.954,0.171l7.028,1.684l2.451-0.768l2.566-3.091l0.45-4.605
		l-3.299-6.823l-3.048-10.321L348.431,255.918z M380.085,337.081l1.917-0.469l1.225-0.512l0.628-1.598l-0.105-2.493l-1.77-5.797
		l-0.576-2.856l-5.74-5.499l-0.461,3.687l0.063,1.002l0.346,0.661l0.126,0.512l-0.23,0.49l-0.367,0.426l-0.325,0.618l-0.147,0.661
		l-0.042,0.767l0.105,0.767l0.063,0.746l-0.45,2.323l-0.649,0.895l-1.529,1.449l-0.471,0.746l-0.136,0.788l0.23,0.725l0.995,0.661
		l3.729,1.215L380.085,337.081z"/>
	<path class="st0" d="M292.7,276.336l1.765,0.017l5.08-2.334l3.101-4.13l2.078-1.696l2.078,5.087h3.018l0.115-1.377l-0.115-4.264
		h2.491l0.28,2.082l0.676,1.091l0.957,0.89l1.121,1.578l-3.035,3.072l3.365-0.806l2.375-1.914l1.583-1.964l0.99-0.957l7.818-0.252
		l0.759,0.252l3.332-3.039l7.67-9.033l2.573-2.25l5.656-0.472l1.301,2.628l3.048,10.321l3.299,6.823l-0.45,4.605l-2.566,3.091
		l-2.451,0.768l-7.028-1.684l-2.954-0.171l-2.985,0.831l-2.598,0.256l-10.819-1.556l-3.467,1.045l-2.262,4.115l-0.848,7.163
		l2.891,18.119l-0.136,10.274l4.86,31.477l-12.673,0.533l-7.939,11.08h-0.657l0.034-8.27l-4.107-15.134l-9.715-12.384l2.985-2.534
		l-2.767-1.894l1.658-8.649l-0.66-1.79l-1.592-3.069l-5.771-3.069l7.185-12.641l2.304-9.551l-0.691-8.614L292.7,276.336z"/>
	<path class="st0" d="M268.791,312.461l-11.569-5.304l-8.676-1.846l-20.667-1.41l-2.573-0.806l-1.996-2.216l-2.557-4.801
		l21.062-14.605l5.476-2.3l16.609,1.41l18.654-4.382l10.144,0.134l0.161,1.699l0.691,8.614l-2.304,9.551l-7.185,12.641l-5.959-0.895
		l-3.352,0.256l-4.326,3.517L268.791,312.461z"/>
	<path class="st0" d="M290.428,325.419l-13.414-9.183l-8.223-3.776l1.636-0.742l4.326-3.517l3.352-0.256l5.959,0.895l5.771,3.069
		l1.592,3.069l0.66,1.79L290.428,325.419z"/>
	<path class="st0" d="M303.971,372.027l0.026-6.392h0.657l7.939-11.08l12.673-0.533l16.538,0.32l1.812,8.757l-2.765,9.524
		l-0.492,4.112l-2.828,2.578l-10.358,0.746l-4.922-1.534l-3.069-2.557l-3.854-0.746l-3.006-1.917l-2.66-0.682l-5.656-0.597H303.971z
		"/>
	<path class="st0" d="M305.044,459.776l-0.651-3.828l-2.045-6.673l-1.089-7.729l-0.742-2.23l-3.546-2.984l-1.254-1.811l-0.165-2.247
		l1.105-0.604l1.385-0.285l0.693-1.207l-0.396-3.203l-2.359-8.066l-1.517-2.817l-0.891-5.937l2.309-8.134l5.377-12.781l2.705-15.668
		l0.006-1.545h0.034l5.656,0.597l2.66,0.682l3.006,1.917l3.854,0.746l3.069,2.557l4.922,1.534l10.358-0.746l2.828-2.578l0.492-4.112
		l2.765-9.524l-1.812-8.757l1.77-3.239h1.979l3.949,0.831l5.09-0.277l5.017-2.28l5.708-1.3l17.501-0.746l11.605-3.687l4.483,3.814
		l1.665,4.411l1.183,17.387l1.267,3.345l3.142,3.324l-0.084,6.54l-3.341,9.267l0.241,3.557l0.597,1.811l7.876,2.237l-5.425,10.011
		l-1.875,8.179l-2.43,23.596l-3.278,11.243l-5.813,8.474l-3.603-3.406l-4.944-2.108l-3.278-1.001l-3.467-1.618l-5.174-1.363
		l-7.07-1.192l-11.605,0.213l-13.584,2.598l-13.856,5.834l-8.117,0.852l-10.756,0.703L305.044,459.776z"/>
	<path class="st0" d="M292.776,484.66l3.239-2.629l4.899-5.598l3.117-5.331l1.534-8.231l-0.521-3.096l2.134,0.574l10.756-0.703
		l-5.53,20.991l-19.208,4.555L292.776,484.66z"/>
	<path class="st0" d="M280.262,488.43l1.206-0.046l4.552-0.168l4.585-1.793l2.171-1.762l0.42,0.533l19.208-4.555l20.203,8.813
		l4.451,4.087l3.174,4.257l-2.536,59.539l-15.556-1.371l-34.703,2.814l-0.432-0.08l2.011-15.297l1.466-4.49l2.063-3.49l5.069-5.979
		l1.896-3.979l1.644-7.533l0.178-7.087l-1.121-2.937l-2.074-3.81l-5.069-3.193l-11.05-9.749L280.262,488.43z"/>
	<path class="st0" d="M232.217,500.82l0.214-0.184l-0.346-12.419l5.146-2.715l6.136-0.1l20.947,3.62l15.948-0.591l1.759,2.724
		l11.05,9.749l5.069,3.193l2.074,3.81l1.121,2.937l-0.178,7.087l-1.644,7.533l-1.896,3.979l-5.069,5.979l-2.063,3.49l-1.466,4.49
		l-2.011,15.297l-16.194-2.734l-3.794,0.938l-11.546,4.657l-4.536,0.469l-7.967,1.91l-4.107,0.469l-5.723-0.888l-4.024-2.127
		l-3.695-2.747l-4.668-2.68l-7.538-2.245l-8.313-0.972l-35.115-0.067l-9.616,1.139l-7.356,3.552l-5.938,4.64l-7.884,4.707
		l-8.296,3.183L123.622,570l-8.709-5.93l3.959-5.578l13.063-6.885l1.93-1.541l4.453-1.374l13.145-2.479l2.672-2.597l4.222-6.182
		l6.334-4.825l6.779-3.318l31.256-9.35l1.897-0.922l1.318,1.804l4.912,7.874l3.865-0.34l4.608-1.575l8.63-7.278l2.461-3.448
		l1.634-2.788l3.645-5.108l0.471-2.192l-1.089-2.001l-2.147-2.214L232.217,500.82z"/>
	<path class="st0" d="M204.623,519.019l15.537-7.474l12.057-10.725l0.714,0.934l2.147,2.214l1.089,2.001l-0.471,2.192l-3.645,5.108
		l-1.634,2.788l-2.461,3.448l-8.63,7.278l-4.608,1.575l-3.865,0.34l-4.912-7.874L204.623,519.019z"/>
	<path class="st0" d="M419.349,556.365l-5.667,0.569l-24.873-4.054l-8.923,0.787l-25.813,5.109l-16.376-1.443l2.536-59.539
		l-3.174-4.257l-4.451-4.087l-20.203-8.813l5.53-20.991l8.117-0.852l13.856-5.834l13.584-2.598l11.605-0.213l7.07,1.192l5.174,1.363
		l3.467,1.618l3.278,1.001l4.944,2.108l3.603,3.406l2.922,9.24l2.608,1.831l1.498,3.491l3.414,0.724l3.781,4.683l6.693,11.75
		L419.349,556.365z"/>
	<path class="st0" d="M475.781,396.335l4.173,22.725l2.078,5.634l2.705,5.232l7.257,10.798l15.059,10.68l-11.727,12.674
		l-5.097,21.305l-0.214,24.067l2.969,20.946l-8.709-1.91l-9.764,2.982l-9.22,5.697l-7.175,6.149l-7.158,4.808l-9.203,3.451
		l-18.226,4.389l-4.18,0.403l-5.801-63.806l-6.693-11.75l-3.781-4.683l-3.414-0.724l-1.498-3.491l-2.608-1.831l-2.922-9.24
		l5.813-8.474l3.278-11.243l2.43-23.596l1.875-8.179l5.425-10.011l41.276-5.432L475.781,396.335z"/>
	<path class="st0" d="M421.812,255.987l6.78-5.173l23.636-2.872l7.307-3.107l52.566-5.911l16.84,3.359l-17.22,30.392l-21.277,26.457
		l-7.538-1.376l-4.8,7.906l-2.177,12.336l0.445,11.848l7.868,25.069l1.633,12.214l-11.727,10.116l0.247,11.574l1.385,7.514
		l-23.051-2.429l-41.276,5.432l-7.876-2.237l-0.597-1.811l-0.241-3.557l3.341-9.267l0.084-6.54l-3.142-3.324l-1.267-3.345
		l-1.183-17.387l-1.665-4.411l-4.483-3.814l10.442-4.987l1.697-2.6l2.545-3.218l0.66-3.005l-0.011-2.941l-0.848-2.536l-3.037-3.986
		l-1.54-2.941l-1.32-6.799l1.728-6.246l0.157-7.29l-0.398-3.454l-2.147-1.876l-1.739-0.853l-2.545-0.171l-2.084-0.682l-1.718-0.768
		l0.775-1.62l11.479-1.151l3.687-1.151l2.304-1.727l6.619-7.484l2.65-1.855l3.467-1.727l2.398-2.26l0.094-3.667l-0.409-3.668
		l-3.907-5.715L421.812,255.987z"/>
	<path class="st0" d="M631.326,47.811l7.66-2.84l11.447-2.422l4.767-2.725l4.932-0.925l6.449,3.819l2.985-0.37l7.719-9.185
		L681.672,30l3.018,3.062l0.396,10.261l-1.402,12.682l-3.035,8.947l-4.519-1.076h-2.507l-2.491,6.206l-3.563,0.689l-4.041-1.379
		l-3.991,0.101l-0.792,1.816l-6.07,8.139l-1.435,0.32l-9.401,5.835l-2.952,2.388l-4.486,2.724l-7.066-5.965l-5.861-5.122
		l-10.225-4.029l3.984-3.932l11.264-7.407l7.954-9.819L631.326,47.811z"/>
	<path class="st0" d="M634.401,90.715l-5.13-0.05l-4.899-1.009l-3.827-0.151l-24.51,12.408l-7.191,1.715l-10.919,9.482l-6.845,2.774
		l-2.87-6.607l-6.086,3.076l-5.641-0.958l-3.315-4.068l0.94-6.271l3.431-1.732l5.624-0.908l5.245-2.118l2.293-5.38l4.024-5.347
		l34.307-22.601l7.323-7.266l4.189-3.128l5.146-2.674l5.634-2.088l3.126,6.632l-7.954,9.819l-11.264,7.407l-3.984,3.932
		l10.225,4.029l5.861,5.122L634.401,90.715z"/>
	<path class="st0" d="M380.085,337.081l-3.572-0.085l-3.729-1.215l-0.995-0.661l-0.23-0.725l0.136-0.788l0.471-0.746l1.529-1.449
		l0.649-0.895l0.45-2.323l-0.063-0.746l-0.105-0.767l0.042-0.767l0.147-0.661l0.325-0.618l0.367-0.426l0.23-0.49l-0.126-0.512
		l-0.346-0.661l-0.063-1.002l0.461-3.687l5.74,5.499l0.576,2.856l1.77,5.797l0.105,2.493l-0.628,1.598l-1.225,0.512L380.085,337.081
		z"/>
</g>
<g id="Copyright">
	<text transform="matrix(1 0 0 1 681.6426 577.5916)" class="st1 st2">© Vemaps.com</text>
</g>
</svg>
