<?xml version="1.0" encoding="utf-8"?>
<!-- Generator: Adobe Illustrator 23.0.1, SVG Export Plug-In . SVG Version: 6.00 Build 0)  -->
<svg version="1.1" xmlns="http://www.w3.org/2000/svg" xmlns:xlink="http://www.w3.org/1999/xlink" x="0px" y="0px"
	 viewBox="0 0 800 600" style="enable-background:new 0 0 800 600;" xml:space="preserve">
<style type="text/css">
	.st0{fill:#808080;}
	.st1{font-family:'Roboto-Regular';}
	.st2{font-size:14px;}
</style>
<g id="United_Kingdom">
	<path class="st0" d="M364.188,333.864l-0.268,0.905l0.439,0.02l1.267-0.378l0.499,0.053l1.213,0.636l0.958,0.14l0.958-0.14
		l0.316-0.237l0.607-0.787l0.409-0.301l-0.017-0.625l0.22-0.888l0.333-0.798l0.319-0.345l0.322-0.473l0.174-2.202l0.17-0.682
		l0.441-0.036l1.2,0.815l0.55,0.22l3.597-0.178l3.174-1.488l1.925-0.143l0.467-0.357l0.427-0.59l0.538-0.488l0.605-0.316
		l0.617-0.076l1,0.618l0.67,0.203l1.051-0.701l0.703,0.177l2.7,1.548l0.446,0.125l0.617-0.101l1.06-0.454l0.544-0.107l1.09,0.199
		l0.552,0.266l0.239,0.365l0.228,0.131l1.029,1.154l0.282,0.517l-0.098,2.72l-0.189,0.797l-0.408,1.047l0.215,0.437l0.528,0.073
		l0.521-0.032l0.366,0.053l0.413,0.18l0.36,0.312l0.208,0.447l-0.054,0.875l-0.503,1.803l0.057,0.335l0.81,0.136l0.746,0.391
		l0.66,0.627l0.564,0.83l0.121,0.329l0.188,0.78l0.166,0.364l0.18,0.215l0.438,0.378l0.219,0.248l0.256,0.38l0.251,0.488
		l0.195,0.594l0.077,0.698l0.297,1.333l0.703,0.446l0.825,0.334l0.661,1.005h0.172l-0.504-1.037l-1.776-1.898l0.441-0.83
		l0.838,0.234l0.863,0.767l0.519,0.788l0.337,1.525l-0.077,1.347l-0.397,1.071l-0.624,0.698l-0.823,0.414l-1.656,0.496l-0.75,0.404
		l-0.727,0.67l-0.536,0.723l-0.657,1.225l-0.359,0.667l0.336,0.227l0.117,0.422l0.027,0.428l0.072,0.237l0.348,0.039l0.212-0.241
		l0.147-0.305l0.306-0.295l0.618-1.005l0.272-0.313l0.979-0.475l0.954-0.723l0.6-0.278l0.432,0.165l0.439,0.343l0.61,0.057
		l3.339-0.548l0.159,0.151l0.342,0.681l0.267,0.153l0.292,0.104l0.093,0.278l0.014,0.407l0.075,0.493l0.437,1.686l0.329,0.692
		l0.469,0.277l0.189,0.395l0.168,1.89l0.119,0.663l0.877,1.361l0.176,0.129l-0.189,0.456l0.029,0.261l0.085,0.189l-0.01,0.251
		l-0.139,0.292l-0.537,0.837l-0.171,0.582l0.191,0.792l-0.105,0.794l-0.27,0.369l-0.366,0.323l-0.143,0.383l0.397,0.525l-0.41,0.233
		l-0.346,0.67l-0.383,0.076l-0.331-0.344l-0.259-0.668l-0.282-0.947l-0.331-0.169l-0.292-0.424l-0.199-0.539l-0.05-0.527
		l0.188-0.564l0.64-0.824l0.139-0.718l-0.102-1.497l-0.297-1.094l-0.481-0.819l-1.936-1.86l-0.751-0.434l-0.838-0.043v0.332
		l0.204,0.465l-0.077,0.474l-0.24,0.41l-0.267,0.287l0.393,0.018l0.309,0.205l0.248,0.25l0.207,0.152l1.033,0.078l0.316,0.277
		l-0.454,0.174l-0.613,0.117l-0.178,0.217l0.845,0.476l-0.134,0.577l0.005,0.555l0.17,0.409l0.359,0.123l-0.031,0.206l-0.036,0.138
		l-0.143,0.31l0.209,0.298l-0.778,2.492l-0.22,0.449l-1.014,0.826l-0.305,0.503l1.128-0.425l1.285-0.764l1.181-0.336l0.812,0.873
		l0.274,1.818l-0.344,1.374l-0.736,1.088l-0.922,0.96l-0.127,0.037l-0.316-0.083l-0.128,0.047l-0.19,0.977l-0.191,0.138
		l-0.248,0.118l-0.213-0.056l-0.091-0.38l-0.339-0.349l-1.616-0.139l-1.184,0.122l-1.202,0.444l-0.546,0.103l-0.55,0.215
		l-0.166,0.573l0.056,1.634l0.006,0.174l-0.075,0.911l-0.17,0.988l-0.239,0.939l-0.294,0.763l-0.506,0.635l-1.165,0.598
		l-0.859,0.918l-1.183,0.904l-0.369,0.179l-1.087,0.089l-0.442-0.085l-0.486-0.357v-0.295l0.554-0.274l0.224-0.05l-2.131-0.795
		l-0.355-0.027l-0.322-0.872l-0.743-0.274l-0.833-0.062l-0.589-0.234l-0.173,0.323l-0.411-0.348l-0.416,0.056l-0.395,0.206
		l-0.371,0.086l-0.329-0.24l-0.214-0.329l-0.227-0.037l-0.37,0.633l-0.035,0.294l0.048,0.365l0.02,0.395l-0.118,0.395l-0.177,0.167
		l-0.654,0.113l-0.716,0.26l-0.198,0.005l-0.178-0.127l-0.165-0.211l-0.111-0.201l-0.019-0.083l-0.769,0.034l-2.378,0.889
		l-0.219-0.027l-0.426-0.181l-0.22,0.044l-0.145,0.164l-0.137,0.212l-0.16,0.248l-0.152,0.093l-0.394-0.216l-0.742-0.916
		l-0.424-0.345l0.43-1.115l0.036-0.539l-0.296-0.544l0.626-0.81l0.262-0.869l-0.161-0.85l-0.226-0.269l-0.406-0.483l-0.582-0.501
		l-0.298-0.172l-0.331-0.044l-0.298,0.18l-0.21,0.31l-0.224,0.241l-0.332-0.03l-0.604-0.388l-0.594-0.506l-0.544-0.634l-0.462-0.763
		l-0.161-0.477l-0.096-0.463l-0.126-0.401l-0.249-0.283l-0.988-0.515l0.487-0.261l0.223-0.48l-0.049-0.692l-0.323-0.891l-0.27-0.744
		l-0.174-0.192l-0.332-0.027l-0.224-0.136l-0.253-0.807l-0.194-0.323l-1.727-1.452l-0.939-0.482l-0.874,0.079l-0.814,0.803
		l-1.35,2.147l-0.914,0.696l-0.227,0.007l-0.489-0.091l-0.107,0.06l-0.083,0.046l-0.042,0.227l0.069,0.291l0.106,0.242l0.073,0.074
		l0.01,0.03l-0.216,0.441l-0.036-0.007l-0.152,0.195l-0.208-0.069l-0.134,0.035l0.067,0.512l0.933,0.466l-0.167,0.663l0.991,0.842
		l-0.385,0.544l0.178,0.782l-0.595,0.389l-1.524,0.406l-0.316,0.248l-0.229,0.233l-0.178,0.312l-0.157,0.474l0.134,0.189
		l0.259,0.221l0.035,0.251l-0.545,0.277l0.125,0.474l-0.073,0.484l-0.201,0.415l-0.259,0.29l-0.383,0.196l-0.099-0.184l0.029-0.432
		l-0.003-0.547l0.039-0.422l0.081-0.344l-0.095-0.118l-0.847,0.501l-0.2,0.246v0.317l0.636,1.333l-0.171,0.019l-0.292,0.033
		l-1.35-0.461l-0.41,0.101l-0.124-0.034l-0.055-0.206l-0.204-0.417l-0.23-0.066l-0.279,0.047l-0.098-0.071l0.309-0.415l-0.694-0.059
		l-1.145,0.915l-0.6,0.12l-2.969-0.702l-0.328-0.241l-0.091-0.398l-0.046-0.42l-0.194-0.302l-2.006-1.514l-0.496-0.093l-1.655,0.111
		l-1.527-0.206l-0.542-0.337l-0.368-0.735l-0.111-2.104l-0.184-0.761l-0.409-0.313l-1.089-0.165l-0.222-0.087l-0.243-0.095
		l-0.479-0.54l-0.362-0.685l-0.589-1.497l-0.811-0.005l-0.699-0.375l-0.653-0.684l-1.182-1.675l-0.666-0.742l-0.27-0.398
		l-0.058-0.386l-0.085-0.368l-0.352-0.332l0.15-0.083l0.509-0.283l1.478-0.441l0.685-0.406l0.319-0.299l0.142-0.203l0.342-0.703
		l0.564-0.837l0.587-0.659l2.109,0.498l1.093,0.045l1.065-0.421l2.771-2.652l1.152-0.385l-0.002-0.029l-0.073-0.937l-0.296-0.077
		l-0.433,0.318l-0.467,0.229l-0.434-0.169l-0.891-0.807l-0.384-0.224l-0.21,0.065l-0.431,0.331l-0.233-0.01l-0.219-0.238
		l-0.28-0.609l-0.234-0.152l-0.482-0.137l-0.46-0.301l-0.229-0.497l0.214-0.724l-0.17-0.094l-0.457-0.388l1.379-0.689l0.952-0.964
		l0.383,0.02l0.795,0.697l0.92,0.488l0.943-0.07l0.955-0.55l0.968-0.959l0.496-0.294l0.955,0.266l0.834-0.259l0.522,0.292
		l0.292,0.015l0.364-0.159l0.001-0.102l-0.15-0.164l-0.092-0.361l0.055-1.201l0.177-0.651l2.019-2.521l0.439-0.857l0.288-1.037
		v-0.505l-0.118-1.231l0.103-0.573l0.23-0.298l0.552-0.23l0.039-0.064l0.197-0.327l0.035-0.403l-0.158-1.238l0.112-0.343
		l0.148-0.053l0.073-0.083l-0.115-0.424l0.787-1.229l0.279-0.324l0.332-0.261l1.777-0.276l0.227-0.253l0.214-0.342l0.245-0.306
		L364.188,333.864z M491.677,494.868l-0.79,0.944l-0.539,0.428l-1.318,0.306l-1.046,0.729l-0.509,0.355l-1.177,0.423l-2.355,0.16
		l-0.36-0.142l-0.217-0.317l-0.149-0.317l-0.145-0.138l-0.26,0.199l-0.729,0.918l-0.152,0.286l-1.615,1.041l-0.077,0.027
		l-0.346,0.12l-0.464,0.351l-0.726,0.751l-0.094,0.184l-0.163,0.514l-0.123,0.216l-0.196,0.124l-0.396,0.053l-0.16,0.122
		l-0.009,0.007l0.352,0.95l-0.197,0.953l-0.491,0.574l-0.534-0.178l-0.413-0.053l-1.963,0.827l-6.95-0.637l-0.508-0.294
		l-0.497-0.684l-0.819-1.128l-1.627-1.363l-0.384-0.036l-0.513,0.247l-0.626-0.316l-0.548-0.549l-0.29-0.449l-0.039-0.198
		l0.049-0.075l0.087-0.027l0.075-0.033l-0.208-0.881l-0.071-0.224l-0.196-0.613l-0.311-0.739l-0.336-0.598l-0.224-0.239
		l-0.486-0.323l-0.257-0.328l-0.437-0.853l-0.249-0.268l-0.369-0.104l-0.888,0.109l-2.104,0.259l-0.396,0.168l-0.371,0.241
		l-0.245,0.279l-0.032,0.421l0.213,0.437l0.291,0.426l0.2,0.386h-1.157l0.002,0.117l-0.131,0.202l-0.159,0.082l-0.075-0.235
		l-0.077-0.173l-0.183-0.138l-0.22-0.098l-0.186-0.036l-0.088,0.098l-0.258,0.424l-0.129,0.089l-0.183-0.062l-0.291-0.222
		l-0.692-0.166l-0.265-0.016l-0.293,0.135l-0.293,0.27l-0.392,0.477l-0.267,0.167l-0.281-0.076l-0.312-0.202l-0.251-0.027
		l-0.105,0.475l-0.357-0.016l-1.644-0.699l-0.486-0.036l-0.095-0.16l-0.051-0.126l-0.061-0.326l0.53-0.401l-0.07-0.476l-0.247-0.57
		l-0.006-0.693l0.95-0.306l0.104-0.146l0.299-0.549l0.182-0.252l0.173,0.338h-0.173v0.275l0.191,0.142l0.19,0.191l0.86-0.288
		l1.421-0.091l1.328-0.339l0.586-1.005l0.011-0.298l-0.016-0.241l-0.005-0.075l-0.136-0.082l-0.329,0.402l-0.228,0.168l-0.317,0.038
		l-1.099-0.126l-1.508-0.844l-0.401,0.278l-2.191,0.332l-0.601-0.234l-0.753-0.601l-0.67-0.791l-0.357-0.826l1.147,0.159
		l0.503-0.068l0.265-0.398l-0.508,0.033l-0.513-0.126l-0.428-0.318l-0.258-0.536l0.085-0.099l0.163-0.309l0.136-0.417l-0.006-0.404
		l-0.191-0.311l-0.178,0.139l-0.216,0.479l-0.157,0.154l-0.224,0.366l-0.172,0.095l-0.283-0.069l-0.238-0.212l-0.24-0.333
		l-0.537,0.092l-0.098,0.313l0.221,0.428l0.414,0.426l-0.953,0.517l-1.061,0.042l-2.096-0.283l-0.813,0.086l-0.996,0.272
		l-0.171,0.048l-0.914,0.66l-0.058,1.111l-0.255,0.049l-0.061,0.077v0.175l-0.065,0.34l-0.511,1.27l-0.254-0.088l-0.376-0.323
		l-0.192,0.142l-0.482,0.498l-2.479-0.06l-0.423,0.098l-0.43,0.299l-0.246,0.336l-0.221,0.398l-0.251,0.325l-0.526,0.233
		l-0.231,0.43l-0.251,0.113l-0.139-0.049l-0.29-0.231l-1.813-0.594l-0.673-0.487l0.255-0.472l-0.405-0.874l-1.372-0.349
		l-0.536-0.615l0.176-0.309l2.138,0.309l-0.059-0.153l-0.073-0.34l-0.059-0.148l0.411-0.011l0.727,0.248l0.4,0.069l0.378-0.093
		l0.934-0.548l1.346-0.28l0.678-0.468l0.284-0.069l0.368,0.203v-0.28l-0.795-0.795l-0.156-1.092l0.458-0.915l1.063-0.265v-0.335
		l-0.325,0.225l-0.806,0.335l-1.567,0.146l-0.342,0.212l0.455-0.002l0.335,0.187l0.129,0.408l-0.159,0.666l0.394,0.355l-0.1,0.505
		l-0.414,0.448l-2.16,0.51l-0.605,0.022l-3.877-0.526l-0.491,0.192l0.276,0.729l-0.324,0.389l-0.396-0.016l0.061-0.488v-0.28
		l-1.377-1.064l-0.539-0.164l0.594-0.011l0.395-0.08l0.308-0.227l0.326-0.461l0.398-0.388l0.935-0.188l0.48-0.209l0.437-0.45
		l0.088-0.43l-0.145-1.13l-0.031-0.703l-0.114-0.671l-0.233-0.555l-0.383-0.359l-0.19,0.308l-0.498-0.433l-1.096-0.154l-0.496-0.337
		l-0.396,0.299l-1.547,0.317h-0.544l0.186-0.163l0.193-0.116v-0.337l-0.093-0.196l-0.052-0.145l0.067-0.139l0.268-0.165v-0.277
		l-0.217-0.578l0.262-0.27l1.004-0.077l0.519-0.198l0.836-0.869l0.362-0.195l0.856-0.129l1.137-0.428l0.876-0.772l0.084-1.168h0.396
		v-0.28l-0.333-0.291l0.043-0.304l0.306-0.234l0.46-0.098l0.754,0.05l0.322,0.094l1.483,0.806l0.535,0.002l0.803-0.333l-0.19-0.618
		l0.527,0.094l1.069,0.427l0.606,0.098l0.255-0.188l-0.044-0.442l-0.123-0.513l0.008-0.403l0.212-0.177l0.93-0.16l0.54-0.381
		l0.401-0.497l0.682-1.13l0.512-0.568l0.383-0.005l0.921,0.728l-0.062-1.339l1.062-0.524l3.442,0.127l0.322-0.122l0.181-0.232
		l0.134-0.312l0.186-0.27l0.823-0.26l0.554-0.377l0.54-0.508l0.83-0.994l0.398-0.266l0.46-0.128l0.567-0.033l0.515-0.157
		l3.303-2.863l1.616-2.318l0.82-1.598l0.371-1.029l0.247-1.926l0.234-1.046l0.307-0.94l0.317-0.651l-0.147-0.42l-0.061-0.554
		l0.041-0.54l0.168-0.387l0.224-0.047l0.609,0.324l0.29,0.065l0.485-0.182l1.431-1.067v-0.341l-0.755,0.007l-1.43,0.512
		l-0.759,0.134l-0.427-0.352l-1.27-1.762l-0.316-0.701l0.091-1.138l0.453-1.136l0.588-0.879l0.493-0.347l0.1-0.131l0.131-0.62
		l0.063-0.187l0.107-0.071l0.299-0.112l1.138-0.893l0.357-0.467l-0.736,0.09l-0.48,0.385l-0.469,0.108l-2.124-2.608l-0.534-1.127
		l-0.13-0.427l0.078-0.375l0.482-0.157l0.322-0.328l-0.068-0.714l-0.222-0.712l-0.124-0.304l0.006-0.653l0.059-0.311l0.174-0.186
		l1.658-1.196l-0.205-0.088l-0.088-0.079l-0.085-0.178l-0.319,0.361l-0.317,0.218l-0.281-0.071l-0.222-0.507l-0.719,0.548
		l-0.758,0.06l-1.583-0.263l-2.009,0.627l-0.462,0.287l-0.557,0.338l-1.928-0.022l-0.574,0.302l-0.528,0.463l-0.987,1.153
		l0.104,0.118l0.068,0.193l-0.442,0.274l-0.267,0.525l-0.01,0.594l0.34,0.494l-0.357,0.376l-0.201,0.163l-0.203,0.09l-0.336-0.045
		l-0.387-0.47l-0.598-0.21l-0.532-0.433l-0.322-0.099l-0.331,0.079l-0.195,0.184l-0.159,0.21l-0.198,0.155l-0.619,0.163
		l-1.556-0.163l-0.412,0.26l-0.387,0.461l-0.395,0.187l-0.429-0.279l0.288-0.427l0.03-0.204l-0.111-0.281l0.172-0.229l0.398-0.746
		l3.864-4.516l0.42-0.235l0.525-0.047l0.516-0.158l0.544-0.291l2.242-1.752l0.549-0.946l1.822-1.195l0.23-0.603l0.119-0.832
		l0.051-1.926l0.083-0.541l0.182-0.187l0.187,0.096l0.081,0.315l0.112,0.296l0.234-0.368l0.208-0.536l0.032-0.2l1.115-1.355
		l0.311-0.227l0.496-0.213l0.368-0.512l0.577-1.206l0.628-0.771l0.736-0.488l0.815-0.25l0.878-0.079l0.232,0.076l0.223,0.134
		l0.207,0.074l0.355-0.246l0.607-0.295l0.651-0.174l0.954-0.806l3.041-1.272h0.947l-0.282-0.853l-0.816-0.847l-0.213-0.557
		l0.513,0.059l0.54,0.163l0.489,0.292l0.358,0.442l0.546-0.296l0.602,0.199l0.575,0.529l0.453,0.695l0.435,0.276l3.175-0.091
		l1.11-0.258l5.294-2.631l1.162-0.042l1.055,0.525l0.586,0.465l0.257,0.468l0.314,0.37l3.578,2.341l0.409,0.483l0.345,0.585
		l0.205,0.216l0.089-0.182v-0.929v-0.786l-0.317-0.543l-0.425-0.729l-0.674-1.444l-1.005-1.326l-0.38-0.7l-0.032-0.723l0.301-0.465
		l0.507-0.281l1.187-0.182l0.568-0.22l1.001-0.811l0.632,0.048l0.65,0.796l1.648,4.327l0.496,0.673l0.684,0.612l0.808,0.369
		l0.861-0.034l0.027-0.097l0.034-0.203l0.095-0.212l0.206-0.125l0.249,0.017l0.423,0.218l0.202,0.055l0.455-0.04l0.397-0.114
		l0.762-0.455l-0.154-0.597l0.077-0.427l0.215-0.322l0.241-0.275l0.232,0.114l0.242-0.034l0.246-0.159l0.246-0.264l-0.398-0.027
		l-1.399,0.336l-0.306,0.194l-0.195,0.682l-0.485,0.248l-0.293-0.032l-0.927-0.102l-1.191-0.449l-1.071-0.766l-0.89-0.958
		l-0.665-1.036l-3.221-7.085l-0.148-0.642l0.068-0.654l0.329-0.736l1.831-3.054l1.48-1.936l0.231-0.166l0.24-0.493l1.121-0.798
		l0.345-0.488l-2.388-0.031l-1.019-0.457l-0.771-1.117l-0.2-1.579l0.319-3.558l-0.326-1.306l0.444-0.821l0.643-0.398l2.557-0.981
		l0.457-0.054l0.366,0.289l0.211,0.081l0.088-0.212l0.094-0.285l0.217-0.242l0.251-0.181l0.199-0.1l-0.314-0.531l0.968-0.994
		l0.122-0.767l-0.486,0.362l-0.482,0.193l-0.853,0.092l-0.134-0.123l-0.439-1.023l-0.059-0.368l0.192-0.268l0.292-0.233l0.242-0.247
		l0.54-1.019l0.384-0.446l0.893-0.371l0.323-0.473l0.534-1.253l-0.469-0.698l-0.657-1.317l-0.404-0.81l-0.092-0.449l0.594-0.236
		l0.628-0.612l0.419-0.837l-0.02-0.916h-0.19l-0.106,0.715l-0.396,0.569l-0.827,0.666l-0.996,0.546l-0.508,0.41l-0.223,0.507
		l-0.215,0.71l-0.523,0.331l-1.252,0.093l-0.376-0.305l-0.379-0.692l-0.166-0.758l0.255-0.488l-0.2-0.55l-0.254-0.461l-0.314-0.209
		l-0.374,0.186l0.126,0.655l-0.088,0.666l-0.159,0.619l-0.086,0.526l-0.122,0.395l-0.827,1.067l-0.471,0.993l-0.285,0.462
		l-0.761,0.417l-0.061,0.539l0.085,0.643l-0.027,0.538l-0.978-1.378l-0.257-0.239l-0.444-0.031l-0.385-0.106l-0.322-0.207
		l-0.274-0.332l0.079-0.734l0.155-0.812l-0.017-0.688l-0.425-0.364v-0.325l0.924-0.294l0.234-1.384l-0.063-1.609l0.046-0.965
		l-0.438,0.256l-0.229,0.496l-0.267,1.197l0.245,0.929l-0.417,0.219l-0.64-0.056l-0.442,0.091l-0.579,0.253l-0.605-0.612
		l-1.001-1.797l-0.827-1.043l-0.367-0.636l-0.154-0.764l0.07-0.367l0.122-0.39l0.052-0.425l-0.204-0.678l-0.055-0.487l-0.08-0.093
		l-0.663-0.326l-0.949-1.994l-0.652-0.589l-2.62-3.697l-0.453-0.248l-0.14-0.162l-0.292-0.692l-0.292-0.326l0.205-0.361l0.296-0.343
		l0.129-0.113l0.591-1.665l0.737-3.753l0.938-2.179l0.393-1.195l0.19-0.423l0.235-0.208l0.608-0.237l0.299-0.212l0.353-0.469
		l0.442-0.793l0.239-0.917l-0.256-0.819l0.908-2.83l0.546-1.322l0.652-0.795l0.543-0.132l0.323,0.254l0.296,0.358l0.453,0.179
		l0.299-0.035l1.144-0.624l-0.353-0.276l-1.39-0.717l0.718-0.792l0.417-0.327l1.75-0.532l0.35,0.106l0.205,0.173l0.159,0.201
		l0.217,0.177l1.039,0.353l0.557,0.041l2.316-0.702l0.492-0.351h-1.917v-0.331l0.535-0.091l0.426-0.276l0.426-0.177l0.531,0.213
		v-0.361l-0.68-0.32l-0.111,0.03l-2.368,0.651l-8.861-0.663l-0.469-0.13l-0.432-0.245l-0.412-0.146l-0.396,0.16l0.082,0.101
		l0.025,0.012l0.016,0.043l0.048,0.205l-0.469,0.225l-0.44-0.172l-0.798-0.716l-0.363,1.326l0.221,0.521l0.14,0.958l0.052,1.044
		l-0.05,0.784l-0.31,0.784l-0.464,0.272l-2.599-0.252l-0.72,0.114l-0.601,1.017l-1.972-0.313l0.063,0.252l0.029,0.008l0.096,0.098
		l-0.251,0.179l-0.207-0.035l-0.174-0.195l-0.145-0.307l0.315-0.594l0.137,0.069l0.137,0.224l-0.042-0.364l-0.044-0.15l-0.104-0.148
		l-0.331,0.541l-0.43,0.421l0.127,0.502l0.063,0.189l-0.184,0.049l-0.384,0.311l0.948,0.959l-0.272,0.224l-1.45,0.656l-2.183,1.667
		l-1.322,0.179l-0.867-0.061v-0.359l-0.109-0.053l-0.095-0.025l-0.087-0.069l-0.068-0.124l0.078-0.141l0.078-0.171l0.013-0.047
		l-0.057-0.485l0.112-0.629l-0.062-0.491l-0.379-0.175l-0.013-0.226l-0.405,0.358l-0.319,0.694l-0.095,0.825l0.268,0.76
		l-1.088,0.189l-1.419-0.931l-0.979-1.638l0.239-1.935l-0.413,0.254l-0.677,0.871l-0.446,0.226l-0.417-0.053l-2.074-1.003
		l-0.324-0.26l-0.242-0.336l-0.265-0.697l-0.131-0.531l-0.192-0.333l-0.448-0.122l-0.17,0.207l-0.217,0.494l-0.188,0.602
		l-0.082,0.527l0.258,1.137l0.217,0.71l0.181,0.316l0.451,0.026l0.397,0.112l0.357,0.251l0.333,0.45l0.088,0.619l-0.242,0.55
		l-0.138,0.585l0.397,0.703l-0.352,0.7l0.091,1.012l0.143,0.911l-0.183,0.394l-0.156,0.106l-0.138,0.223l-0.183,0.225l-0.292,0.106
		l-0.636-0.096l-0.591-0.264l-0.704-0.541l-0.26-0.118l-0.99,0.029l-0.247-0.194l-1.615-2.494l-0.919-0.911l-3.278-2.054
		l-1.256-0.362l-0.598-0.374l-0.516-1.363l-0.595-0.26l-1.06,0.018l-0.666,0.299l-0.635,0.498l-0.554,0.6l-0.425,0.613l-0.239,0.428
		l-0.113,0.281l-0.032,0.253l0.003,0.354l0.051,0.408l0.138,0.562l0.213,0.497l0.281,0.212l0.192,0.52l0.315,1.139l0.444,1.141
		l0.799,0.694l0.009,0.417l-0.145,0.873l-0.008,0.446l0.01,0.231l0.36,0.783l-0.598-0.156l-1.193-0.65l-0.573-0.147l-0.267-0.335
		l-0.172-0.76l0.025-0.791l0.326-0.447l-0.211-0.3l-0.113-0.318l-0.005-0.331l0.121-0.365l-0.52-0.059l-0.228-0.092l-0.185-0.176
		l-0.124-0.435l-0.122-0.677l-0.173-0.624l-0.271-0.271l-0.561-0.265l-2.645-3.213l-0.804-1.458l-0.512-1.719l-0.143-1.927
		l0.085-1.752l0.189-0.88l0.392-0.381l0.588,0.034l0.307-0.045l0.135-0.152l0.128-0.565l0.276,0.261l0.27,0.539l0.102,0.261
		l0.417,0.687l0.206,0.462l0.137,0.509l0.021,0.531l-0.041,1.175l0.122,0.445l0.371,0.524l0.46,0.435l0.498,0.083l0.487-0.518
		l0.092-0.191l0.114-0.167v-0.331l-0.999-2.027l-0.159-0.442l-0.076-0.399l-0.015-0.075l-0.389-0.961l-0.091-0.569l0.017-1.077
		l0.058-0.328l0.115-0.415l0.491-1.187l0.19-0.659l0.077-0.992l0.233-0.903l0.543-0.559l1.141-0.743l1.805-2.469l0.135-0.113
		l0.286-0.077l0.054-0.155l-0.008-0.52l0.022-0.246l0.636-1.647l0.11-0.435l0.021-0.481l-0.07-1.062l0.049-0.462l0.153-0.298
		l0.926-1.155l0.505-0.43l0.222-0.287l0.165-0.474l0.233-1.138l0.265-0.562l0.897-0.82l1.851-0.882l0.673-0.978l0.238-1.335
		l-0.25-1.186L436.431,311l-1.012-0.348l0.582-0.889l-0.007-0.054l-0.129-1.039l-0.601-1.024l-0.814-0.69l-1.517-0.674l-0.897-0.036
		l-0.26-0.176l0.208-0.461v-0.367l-1.612-1.066l-0.902-0.825l-0.544-0.802l1.23-1.319l0.425-1.062l-0.118-1.669l-0.179-0.592
		l-0.169-0.425l-0.137-0.512l-0.165-2.139l-0.004-0.038l-0.106-1.368l0.172-1.329l0.398-0.871l0.634-0.548l0.87-0.368l0.521-0.113
		l0.378,0.046l1.766,0.839l0.47,0.081l0.319-0.144l0.597,0.376l4.634,0.73l0.676-0.457l-3.031-0.657l-1.097-0.236l-1.208-0.775
		l-1.421-1.815l-1.128-0.433l-0.512-0.527l-0.439-0.663l-0.317-0.638l-0.365-1.49l-0.017-0.241l-0.413-0.105l-0.143,0.381
		l0.016,0.499l0.172,0.616l1.319,2.012l0.312,0.901l-0.178,0.401l-0.509,0.097l-0.679-0.012l-0.654-0.283l-0.299-0.702l-0.086-0.899
		l-0.041-1.899l0.041-0.418l1.087-2.868l1.972-3.206l0.127-0.716l-0.129-0.191l-0.299,0.222l-0.38,0.531l-1.595,3.35l-0.401,0.589
		l-0.597,0.03l-0.208-0.392l0.045-1.532l-0.117-0.673l-0.289-0.513l-0.377-0.14l-0.374,0.458l0.318,0.897l0.385,1.759l0.251,1.713
		l-0.082,0.775l-0.355,0.146l-0.068,0.377l0.12,1.008v0.972l0.057,0.668l0.15,0.569l-0.383,0.198l-0.419-0.146l-0.446-0.257
		l-0.479-0.136v0.34l0.353,0.17l0.366,0.257l0.29,0.388l0.133,0.57l-0.103,0.716l-0.274,0.485l-0.319,0.4l-0.238,0.436l-0.136,0.582
		l-0.079,0.485l-0.118,0.458l-0.272,0.509l-0.394,0.438l-0.323,0.061l-0.88-0.194l-0.448-0.547l-0.397-1.268l-0.28-1.415
		l-0.111-0.989l-1.114-1.505l-0.145-0.634l-0.211-0.409l-0.446,0.356l0.441,0.818l1.06,2.706l0.207,1.039l-0.231,0.481l-0.531-0.184
		l-1.834-1.517l-0.254-0.641v-1.038l-0.283,0.376l-0.245,0.655l-0.17,0.697l-0.061,0.491l-0.131,0.372l-0.819,1.204l0.666,1.399
		l0.277,0.764l0.197,0.881l-0.509,0.002l-1.218-0.71l-0.933-0.343l-0.29-0.383l-0.174-1.241l-0.165-0.182l-0.22-0.121l-0.212-0.255
		l-0.096-0.351l-0.023-0.461l0.023-0.911l0.061-0.388l0.276-0.55l0.061-0.419l-0.05-0.425l-0.349-1.459l0.686-0.786l3.037-5.338
		l1.615-0.682l1.165-0.919l0.268-0.293l0.988-2.286l0.445-0.66l0.839-0.566l1.067-0.471l0.97-0.721l0.545-1.321l-0.489,0.341
		l-1.029,1.152l-0.469,0.251l-1.134,0.092l-0.469,0.206l-0.418,0.387l-0.302,0.617l-0.668,1.752l-0.263,0.362l-3.319,2.273
		l-2.304,3.55l-0.25,0.156l-0.504,0.041l-0.213,0.144l0.011,0.254l-0.137,0.707l-0.171,0.606l-0.084-0.049l-0.258,0.563
		l-0.602,0.186l-0.688-0.061l-0.523-0.164l-0.02-0.237l-0.004-0.432l-0.067-0.318l-0.203,0.122l-0.097,0.263l-0.009,0.31l0.017,0.33
		l-0.205,2.676l0.1,0.109l0.417,0.222l0.157,0.039l0.277,0.988l0.113,0.57l0.02,0.467l0.097,0.388l0.337,0.333v0.307h-0.19v0.339
		l0.119,0.056l0.28,0.248l-0.134,0.107l-0.134,0.159l-0.131,0.103l1.542,1.678l0.696,1.181l0.25,1.265l-0.189,0.682l-0.388,0.326
		l-0.943,0.308l-0.421,0.302l-1.277,1.448l-0.309,0.464l-0.261,0.545l-0.2,0.615l-0.068,0.41l-0.071,0.871l-0.068,0.404
		l-0.598,0.464l0.051,0.211l0.111,0.227l0.055,0.14l-0.044,1.125l0.254,0.301l0.337,0.094l0.213,0.497l-0.17,0.647l-0.44,0.192
		l-0.329,0.286l0.18,0.925l-0.591,1.168l-0.17,0.478l-0.027,0.262l0.027,0.928l-0.037,0.4l-0.092,0.028l-0.126-0.064l-0.125,0.124
		l-0.619,1.644l-0.445,0.669l-0.643,0.397v0.305l0.348-0.054l0.28,0.12l0.25,0.261l0.262,0.373l0.452,1.107l0.021,0.199l0.326,0.323
		l-0.281,0.737l-0.916,1.31l-0.456,0.482l-0.549,0.434l-0.617,0.32l-0.659,0.131l-0.266-0.062l-0.545-0.279l-0.328-0.024
		l-0.292,0.135l-0.63,0.461l-0.322,0.102l-0.806-0.014l-0.494-0.191l-0.294-0.601l-0.328-2.096l-0.057-1.112l0.147-0.957
		l0.779-0.658l1.058-1.251l0.272-0.507l0.011-1.03l-0.136-1.111l-0.05-1.098l0.394-1.45l-0.12-0.362l-0.189-0.324l-0.083-0.358
		l0.103-0.549l0.658-1.467l0.589-1.729l0.109-0.991l-0.319-0.678l1.513-1.292l0.197-0.561l0.174-0.681l0.414-0.851l0.476-0.724
		l0.371-0.308l0.798-0.35l0.961-0.912l0.866-1.301l0.515-1.492l-2.693,3.077l-0.994,0.815l-0.333,0.145l-0.367,0.018l0.19-0.642
		l-0.763-0.294l-0.376-0.234l-0.38-0.487l-0.211-0.677l-0.029-1.328l-0.14-0.393l1.171-1.786l0.178-0.4l0.173-0.66l0.418-0.521
		l0.503-0.481l0.425-0.556l-0.625,0.325l-0.949,1.123l-0.729,0.384l-0.498,0.531l-0.256,0.01l-0.197-0.331l-0.172-0.576
		l-0.062-0.546l3.049-4.776l0.233-0.62l-0.118-0.223l0.168-0.178l0.156-0.249l-0.358-0.158l-0.349,0.195l-0.374,0.338l-0.438,0.276
		l-0.17,0.924l-1.201,1.403l0.023,1.099l-0.465,0.894l-0.103,0.156l-0.279-0.111l-0.084-0.289l0.045-0.352l0.109-0.297l0.154-1.319
		l1.017-2.045l2.095-3.06l0.086-0.181l0.041-0.231l0.073-0.203l0.179-0.102l0.179,0.047l0.224,0.11l0.163,0.12l0.005,0.065
		l0.075,0.108l0.233,0.158l0.219,0.026l0.042-0.292l-0.129-0.317l-0.186-0.197l-0.17-0.12l-0.084-0.077l-0.179-0.788l-0.049-0.429
		l0.112-0.329l0.895-1.417l0.189-0.447l0.17-0.684l-0.842,0.248l-0.628,0.775l-0.561,0.866l-0.643,0.53l0.179-1.03l0.36-1.027
		l0.473-0.956l0.525-0.802l-0.248-0.664l0.34-0.532l0.601-0.354l0.541-0.128l0.318-0.165l0.053-0.365l-0.179-0.363l-0.374-0.165
		l-1.157,0.373l-0.247,0.159l-0.264,0.324l-0.271,0.255l-0.273-0.053l-0.164-0.44l0.069-0.567l0.305-1.044l0.335-1.872l0.274-0.652
		l0.53-0.592l0.514,0.313l0.752-0.086l1.394-0.57v-0.313l-0.669,0.049l-1.203,0.407l-0.616-0.143l0.562-1.662l0.214-0.395
		l0.298-0.207l0.358-0.17l0.224-0.241l-0.119-0.414l0.703-0.993l0.931-0.461l2.802-0.25l2.249,0.643l0.927-0.233l0.747-0.645
		l1.763-2.424l0.914-2.069l0.588-0.826l-0.611,0.335l-0.363,0.75l-0.306,0.897l-0.428,0.776l-1.139,1.03l-0.648,1.078l-0.303,0.33
		l-1.188,0.146l-2.961-0.693l-0.777,0.705l-0.451-0.328l-0.453-1.923l-0.378,0.18l-0.328,0.449l-0.53,1.089l-0.379-0.312
		l0.982-2.414l0.159-0.717l0.664,0.667l0.683,0.273l0.628-0.025l0.512-0.226l1.329-1.035l0.709-0.331l0.348-0.259l0.292-0.444
		l-0.934,0.581l-0.31,0.078l-0.557-0.037l-0.116,0.037l-0.466,0.374l-0.306,0.119l-0.602,0.509l-0.336,0.095l-0.332-0.156
		l-0.449-0.515l-0.374-0.051l0.085-0.374l0.1-0.164l0.128-0.107l0.169-0.216l0.11-0.24l0.094-0.425l0.075-0.197l0.721-1.388
		l0.245-0.337l1.142-1.046l0.177-0.331l0.169-0.317l-0.538-0.377v-0.377l0.242-0.148l0.62-0.544l0.704,0.084l0.369-0.037l0.815-0.74
		h0.625l1.2,0.377l0.575-0.167l1.093-0.736l2.242-0.52l0.479-0.338l-4.59,1.019l-2.163-1.052l-0.007-0.301l0.281-0.706l0.177-0.256
		l1.876-2.07l0.508-0.837l0.463-0.999l-1.651,1.483l-0.234,0.411l-0.119,0.331l-0.292,0.281l-0.345,0.198l-0.286,0.074l-0.237,0.155
		l-0.1,0.372l-0.052,0.452l-0.087,0.405l-0.367,0.755l-0.368,0.431l-0.414,0.188l-0.491,0.041l-0.245,0.105l-0.26,0.456
		l-0.584,0.225l-0.229,0.297l-0.306,0.618l-0.798,1.001l-0.441,0.303l-0.566,0.111l-0.283,0.21l-0.399,0.926l-0.262,0.214
		l-0.352,0.099l-0.328,0.259l-0.299,0.348l-1.116,1.692l-1.841,2.214l-1.886,1.541l-0.186,0.08l-0.249-0.189l-0.325-0.667
		l-0.298-0.142l-0.456-0.092l-0.53-0.24l-0.483-0.339l-0.335-0.396l0.419-0.818l0.115-0.403l0.053-0.504h-0.209l-1.035,1.448
		l-1.684-0.364l-4.147-3.448l-0.179-0.395l0.046-0.797l0.282-0.385l0.404-0.148l1.389-0.097l0.961,0.198l0.896,0.47l0.77,0.76
		l0.208-0.377l-0.666-0.544l-0.277-0.34l-0.007-0.501l2.945-1.997l0.682-0.08l1.75,0.922l0.702,0.148l1.481-0.107l0.816-0.219
		l0.588-0.396l-2.584,0.344l-0.612-0.105l-1.4-0.903l-1.145-0.303l-3.034,1.689l-1.051,0.309l-0.294,0.006l-0.36-0.151l-0.624-0.445
		l-0.357-0.097l-1.929,0.151l-2.052-0.571l-0.702,0.068l-0.548,0.544l-0.506,0.338l-0.692-0.146l-0.641-0.373l-0.366-0.355
		l-0.151-0.285l-0.121-0.276l-0.078-0.297l-0.029-0.338l0.053-0.483l0.137-0.025l0.189,0.095l0.207-0.124l0.608-0.958l0.36-0.31
		l4.273-0.463l0.336-0.167l0.974-0.738l0.409-0.167l0.472,0.118l0.285,0.285l0.263,0.353l0.414,0.316l1.467,0.657l0.242,0.194
		l-0.032-0.554l-0.134-0.537l-0.285-0.376l-0.499-0.079v-0.378l0.343-0.043l0.34,0.031l0.326,0.134l0.303,0.256l0.405-0.517
		l0.627-0.215l0.709,0.194l0.555,0.159l-2.088-1.042l-0.532-0.643l-0.01-0.554l0.382-0.391l2.883-0.416l1.145-0.516l0.9-0.92
		l-0.367-0.18l-0.513,0.062L407,244.284l-0.441,0.851l-0.56-0.016l-1.097-0.294l0.238-0.51l1.109-1.231l-1.254-0.236l-2.623,0.591
		l-1.287-0.354l0.934-0.255l0.984-0.062v-0.375l-0.213-0.145l-0.564-0.585l0.489-0.598l0.309-1.046l0.248-1.184l0.301-1.006
		l0.489-0.632l0.781-0.566l0.857-0.306l0.721,0.139l0.263,0.32l0.555,0.994l0.324,0.43l0.396,0.312l0.431,0.21l0.917,0.145
		l1.512-0.368l1.336-0.68v-0.349l-0.478,0.143l-0.447,0.26l-0.411,0.141l-0.371-0.195l-0.625,0.441l-0.605-0.173l-0.587-0.397
		l-0.568-0.22l-0.423-0.287l0.106-0.655l0.046-0.705l-0.61-0.445l-0.249,0.037l-0.568,0.264l-0.306,0.048l-0.284-0.129l-0.474-0.468
		l-0.294-0.102l-0.305-0.385l0.415-0.848l1.161-1.515l0.329-0.565l0.195-0.186l0.344-0.035l0.823,0.088l0.284-0.24l0.49-0.294
		l0.696,0.275l1.18,0.907l0.562,0.306l2.739,0.031l0.135-0.163l0.211-0.369l0.463-0.029l0.459,0.129l0.197,0.094h0.19v-0.382
		l-0.547-0.35l-2.333,0.409l-0.654,0.267l-0.368,0.056l-0.197-0.19l-0.712-0.911l-0.315-0.298l-2.332-0.716l-0.346-0.526
		l0.197-0.877l0.974-1.406l0.368-0.713l-0.516-0.872l0.669-0.973l1.165-0.751l0.961-0.214l0.893,0.682l0.876,1.061l0.941,0.717
		l1.087-0.354v-0.349l-1.158-0.276l-0.258-0.234l-0.411-0.749l-0.279-0.35l-0.267-0.149l-0.263-0.348l0.362-0.76l0.67-0.731
		l0.672-0.268V221.3l-0.677-0.291l-0.466,0.423l-0.349,0.633l-0.331,0.323l-0.48,0.155l-0.975,0.706l-0.556,0.195l-0.584-0.082
		l-1.058-0.503l-0.543-0.12l-1.199,0.398l-0.571-0.046l-0.243-0.704l0.113-0.176l0.648-1.585l0.229-0.245l0.606-0.378l0.237-0.271
		l0.254-0.22l0.199,0.208l0.16,0.346l0.137,0.176l0.65-0.113l3.114-1.497l1.242-1.164l0.238-1.455l-0.472-0.113l-0.751,0.782
		l-1.265,1.798l-0.722,0.559l-0.645-0.101l-0.675-0.328l-0.808-0.13l0.678-0.441l0.237-0.342l-0.059-0.448l-0.238-0.637l-0.052-0.34
		l-0.122,0.015l-0.444,0.433l-1.87,2.491l-0.702,0.361l-1.452,0.216l-0.645-0.327l-0.476-2.035l0.072,0.044l0.136-0.088l0.126-0.149
		l0.046-0.16l-0.075-0.172l-0.257-0.404l-0.049-0.162l-0.011-0.694l0.094-0.343l0.298-0.345l-0.288-0.168l-0.863-0.255l-0.181-0.12
		l-0.06-0.556l-0.259-0.897l-0.06-0.67l0.083-0.371l0.379-0.877l0.107-0.327l0.032-0.74l-0.011-0.658l0.122-0.405l0.428,0.004
		l-0.06-0.236l-0.088-0.591l-0.06-0.234l0.495-0.203l0.495,0.095l0.48,0.321l1.497,1.553l0.471,0.355l0.24-0.203l0.48,0.747
		l0.247,0.196l0.836,0.595l0.303,0.082l-0.15-0.291l-0.083-0.27l-0.062-0.255l-0.084-0.247l2.004-0.354l1.148,0.202l0.652-0.019
		l0.115-0.344l-0.847-0.719l-1.259-0.293l-1.234,0.173l-0.77,0.679l-0.949-1.127l0.147-0.16l0.231-0.513l-0.927-0.177l-0.486-0.809
		l-0.35-1.023l-0.516-0.831l-0.427-0.18l-0.43-0.059l-0.342-0.212l-0.147-0.648l0.161-0.629l0.567-0.642l-0.16-0.47v-0.388
		l1.035-0.598l0.531-0.025l0.821,0.928l0.348-0.049l0.293-0.398l0.22-0.57l-0.309-0.091l-0.198-0.265l-0.182-0.343l-0.279-0.337
		l-0.325-0.199l-2.318-0.545l-0.087-0.562l0.136-1.354l-0.049-0.607l0.071-0.429l-0.241-1.054l-0.035-0.657l0.106-0.561l0.206-0.511
		l0.29-0.434l0.362-0.309l0.707-0.285l0.734-0.008l0.727,0.232l0.684,0.449l-0.106,0.711l0.086,1.036l0.19,1.052l0.211,0.769
		l0.274,0.544l0.367,0.395l0.423,0.21l0.455-0.015l-0.208-0.246l-0.129-0.261l-0.214-0.627l0.35-0.021l0.272,0.081l0.519,0.327
		l-0.182-1.024l0.115-0.74l0.049-0.672l-0.382-0.806l-1.073-1.019l-0.357-0.596l0.29-0.528l-0.215-0.06l-0.086-0.096l-0.077-0.202
		l0.267-0.499l0.645-0.874l0.226-0.414l0.401,0.512l0.304,0.205h1.023l-0.16,1.432l0.789,1.056l1.137,0.613l0.892,0.113
		l-0.172-0.355l0.337-0.451l0.332-1.493l0.264-0.556l0.354,0.006l1.264,0.556l0.386,0.328l0.782,0.941l0.936,0.588l2.011,0.794
		l-0.41-0.728l-0.312-0.326l-0.813-0.375l-1.222-1.274l-1.788-0.818l-0.222-0.213l-0.042-0.299l-0.068-0.122l-0.014-0.141
		l0.123-0.352l0.177-0.043l0.211,0.241l0.201,0.04l0.154-0.629l0.53,0.333l0.779,1.151l0.607,0.339l0.316-0.025l0.53-0.275
		l0.298-0.058l0.351,0.115l0.63,0.465l0.271,0.102l0.348,0.226l1.017,1.01l1.176,0.549l0.803,1.447l0.566,0.372l-0.158-0.279
		l-0.193-0.472l-0.165-0.506l-0.07-0.364l-0.147-0.351l-2.785-2.458l-0.677-0.181v-0.39l0.548,0.006l0.221-0.384l-0.044-0.612
		l-0.249-0.655l-0.34-0.301l-0.896-0.184l-0.397-0.376l-0.82-0.214l-1.148-1.465l-0.709-0.15l0.061-0.141l0.014-0.043l0.133-0.139
		l-0.418-0.597l-0.547-0.192l-1.142,0.071l0.093-0.229l0.054-0.18l0.077-0.163l0.157-0.18v-0.359l-0.92-1.687l0.526-0.715
		l1.059,0.304l0.664,1.379l0.609-0.501l0.597,0.199l0.615,0.083l0.668-0.857h-0.176l0.139-0.518l-0.02-0.48l-0.132-0.426
		l-0.194-0.373h0.383v-0.36l-0.573-0.392l0.369-0.277l0.795-0.195l0.375-0.217v-0.393l-0.918,0.043l-0.439-0.094l-0.388-0.305
		l0.207-0.333l-0.207-0.26l-0.23-0.21l-0.246-0.155l-0.266-0.094l0.059-0.247l0.088-0.619l0.061-0.247l-0.358-0.004l-0.277-0.193
		l-1.283-2l0.023-0.882l0.451-0.151l0.64,0.28l1.172,0.822l0.471,0.131l0.47-0.131l1.104-0.753l0.591-0.2l0.605,0.075l0.588,0.48
		l0.211-0.387l0.372-0.349l0.387-0.252l0.249-0.095l0.496,0.166l0.842,0.749l0.378,0.168l1.39-0.123l0.426,0.123l1.916,1.473
		l-0.274-0.557l-0.317-0.329l-0.756-0.587l0.366-0.31l0.794-0.142l0.378-0.271l-1.766-0.362l-0.548,0.002l-0.226,0.146l-0.315,0.471
		l-0.297,0.103l-0.281-0.114l-0.573-0.493l-0.305-0.114l-0.411-0.284l-0.822-1.241l-0.285-0.284l-0.034-0.196l-0.527-0.813
		l-0.105-0.106l-0.213-0.671l-0.09-0.393l-0.061-0.386h0.554l-0.281-0.563l0.014-0.527l0.195-0.529l0.263-0.557l0.027-0.27
		l-0.034-0.35l-0.003-0.307l0.105-0.125l0.211,0.054l0.369,0.223l0.172,0.052l1.616,1.132l1.163-0.045l-0.772-0.635l-0.263-0.348
		l0.086-0.432l-0.188-0.394l-0.254,0.268l-0.279,0.14l-0.297,0.032l-0.312-0.048v-0.394l0.276,0.013l0.086-0.013v-0.363
		l-0.188-0.039l-0.118-0.091l-0.265-0.268l1.542-0.919l0.684,0.324l0.833,0.595l-3.059-2.706l-0.002-0.969l0.054-0.462l0.217-0.247
		l1.477-0.885l0.412-0.46l0.328-0.816h-0.188l0.215-1.103l0.101-1.095l0.185-0.917l0.466-0.565l3.581,0.807l0.656,0.437l0.496,0.648
		l0.005,0.285l0.143,0.834l0.169,0.723l0.081-0.052l-0.021,0.59l-0.074,0.464l-0.122,0.404l-0.18,0.395l0.51-0.416l0.222-0.49
		l0.053-0.538l-0.007-0.573l0.122-0.777l0.241-0.334l0.153-0.378l-0.137-0.895l0.491,0.43l0.858,1.156l0.464,0.234l0.781,0.617
		l0.358,0.113l0.289,0.189l0.02,0.443l-0.11,0.488l-0.113,0.338l-0.326,0.434l-0.986,0.975l-0.499,1.339l-0.532,1.003l-0.263,0.725
		l0.516-0.082l1.654-1.864l0.265-0.15l0.184-0.828l0.455-0.375l0.558-0.267l0.51-0.516l0.308-0.922l0.165-0.964l0.283-0.755
		l0.679-0.306l1.198,0.234l1.169,0.528l1.363,1.027v0.399l-0.039,0.191l-0.023,0.03l0.061,0.538l-0.652,0.77l-0.412,0.969
		l-0.359,1.1l-0.493,1.16l0.48-0.214l0.471-0.474l0.759-1.126l0.033-0.212l-0.035-0.253l-0.007-0.208l0.113-0.091l0.118-0.059
		l1.129-1.242l0.083-0.119l1.072-0.759l0.747-0.365l0.279-0.035l0.551,0.184l0.831,0.796l0.628,0.178l-0.395-0.395l0.299-0.234
		l0.165-0.319l0.127-0.306l0.186-0.202l0.315-0.052l0.526,0.271l0.384,0.078l0.244-0.161l0.213-0.703l0.312-0.163h1.061l0.583,0.189
		l0.245,0.013l0.312-0.202l0.242-0.384l0.353-0.895l0.251-0.178l0.255-0.061l0.044-0.059l0.034,0.13l0.516,1.036l0.153,0.143
		l0.622-0.13l2.385,0.397l2.382-0.397l1.201-0.569l1.909-1.465l1.07-0.517l1.735-0.337l0.892,0.028l0.637,0.309l-0.275,0.287
		l-0.105,0.078l0.674,0.635l0.78-0.065l1.586-0.57l1.546,0.713l0.762-0.009l0.369-1.07l-0.471-0.207l-0.509-0.376l-0.451-0.55
		l-0.297-0.725l0.636-0.867l0.422-0.283l0.462,0.085l0.109,0.285l0.071,0.499l0.109,0.47l0.204,0.209h0.854l1.826-0.581l1.117-0.113
		l1.452,1.062l0.923,0.009l1.833-0.376l0.94,0.418l-0.174,0.972l-0.53,1.096l-0.133,0.795l-0.314,0.443l-0.417,0.964l-0.254,0.449
		l-0.729,0.71l-0.203,0.351l-0.312,1.034l-0.001,0.865l0.294,0.637l0.59,0.37l0.346-0.041l0.309-0.182l0.265-0.069l0.217,0.292
		l0.092,0.624l-0.122,0.474l-0.251,0.303l-0.286,0.087l-0.258,1.877l-1.209,2.385l-1.474,2.166l-1.051,1.212l-1.162,0.685
		l-2.437,0.874l-0.978,0.609l-1.477,1.51l-0.248,0.49l-0.215,0.877l-0.521,0.883l-1.164,1.321l-6.114,5.07l-2.064,1.066l-0.51,0.518
		l-0.243,0.558l-0.274,1.065l-0.156,0.382l-0.247,0.261l-0.696,0.395l-0.882,0.207l-1.784,1.253l-0.265,0.166l-0.187,0.314
		l-0.103,0.435l-0.016,0.55l-0.455-0.262l-0.132-0.128l0.191-0.326l-0.388-0.205l-0.713-0.094l-0.796-0.482l-0.131,0.211
		l0.077,0.433l0.242,0.463l0.417,0.32l0.867,0.04l0.426,0.209l0.188,0.237l0.589,1.017l-0.575,0.978l-0.136,0.537l0.124,0.598
		l-0.439-0.008l-0.827-0.328l-0.428,0.008l-0.254,0.204l-0.489,0.675l-0.224,0.191l-0.778-0.023l-1.6-0.832l-0.772-0.215
		l-2.246,0.596l-0.614-0.432l-0.897-1.265l-0.532-0.486l-0.559-0.198l1.47,2.228l0.887,0.745l1.067,0.24l1.122-0.543l0.58-0.102
		l0.491,0.466l0.477,0.589l0.66,0.481l0.453-0.017l-0.156-0.874l1.781,1.238l0.978,0.262l1.569-1.263l0.891,0.211l0.495,0.661
		l-0.379,0.678l0.906,0.262l1.033-0.472l0.996-0.95l0.788-1.162l0.42-0.492l0.345,0.057l0.184,0.511l-0.077,0.849l-0.217,0.455
		l-3.784,5.006l-0.635,0.515l-0.734,1.128l-0.363,0.379l-0.55,0.114l-0.435-0.21l-0.138-0.515l0.346-0.814l-0.745-0.727L452.371,200
		l-2.154,1.965l-0.368,0.163l-0.708,0.047l-1.816,0.512l-0.516-0.1l-0.472,0.023l-0.205,0.601l-0.186,0.715l-0.423,0.343
		l-0.394,0.165l-1.808,1.848l-0.25,0.34l-0.226,0.52l-0.227,0.8l0.139,0.038l0.377-0.294l0.836-0.357l0.411-0.41l0.391-0.526
		l0.285-0.509l0.336-0.474l1.269-0.787l1.073-1.124l1.186-0.622l0.227-0.027l0.32,0.142l0.368,0.47l1.399,0.315l0.61-0.021
		l0.447-0.358l0.351-0.381l1.209-0.775l0.426-0.07l0.135,0.654l-0.578,1.08l-0.805,1.013l-0.813,0.643l-0.978,1.579l0.086,0.266
		l0.088,0.192l0.095,0.139l0.109,0.112l-1.291,0.127l-0.537,0.317l-0.469,0.618l0.262,0.481l-0.19,0.072l-0.642-0.203h-1.519v0.388
		l0.797-0.027l0.38,0.089l0.342,0.26l-0.509,1.189l-0.31,0.525l-0.319,0.407l1.005,0.274l0.5,0.03l0.582-0.303l0.453-0.571
		l0.211-0.339l0.02-0.148l0.627-0.051l0.294-0.152l0.52-0.772l0.404-0.401l0.437-0.287l0.394-0.11l0.505-0.249l-0.319-0.57
		l-1.04-0.948l0.775,0.051l2.551-0.406l2.673,0.264l0.857-0.264l4.248-3.195l1.66-0.389l-0.206,0.571l-0.143,0.245l-0.221,0.25
		l0.366,0.3l0.358-0.03l0.377-0.169l0.42-0.102l-0.573-1.388l1.023,0.364l0.553,0.066l0.533-0.108l0.397-0.305l0.446-0.565
		l0.264-0.661l-0.16-0.598l0.274-0.536l0.251-0.047l0.272,0.157l0.344,0.07l0.357-0.146l0.741-0.464l0.336-0.102l3.462,0.151
		l2.078,1.378l3.656,1.279l1.218,0.042l1.124-0.36l1.72-1.254l0.462-0.167h4.398l0.19,0.114l0.281,0.508l0.28,0.121l0.311-0.108
		l0.232-0.176l0.223-0.038l0.294,0.322l0.947-0.464l2.38,0.833l0.874-0.047l0.442,0.716l0.222-0.078l0.197-0.4l0.365-0.237
		l0.498,0.059l1.313,0.682l0.204-0.396l0.215,0.076l0.251,0.241l0.298,0.078l0.319-0.18l0.476-0.468l0.25-0.093l0.541,0.339
		l0.336,0.093l0.149-0.254l0.085-0.292l0.199-0.28l0.259-0.212l0.234-0.104l0.593,0.112l1.23,0.765l0.562,0.189l0.72-0.153
		l1.662-1.269l0.451-0.112l3.074,0.112l0.02,0.197l0.17,0.451l0.241,0.483l0.241,0.29l0.34,0.042l0.461-0.409l0.341,0.011
		l0.189,0.218l0.319,0.699l2.358,2.665l0.25,0.89l0.096,0.942l0.156,0.918l0.428,0.825v0.321l-0.112,0.65l0.292,0.571l0.79,0.9
		l-0.396,0.049l-0.188,0.39l0.025,0.445l0.265,0.215l0.344,0.139l-0.183,0.318l-0.646,0.568l-1.14,1.565l-0.482,0.931l-0.069,0.712
		l-2.909,2.746l-0.718,1.126l-1.791,4.775l-0.664,2.665l-0.156,1.048l0.076,0.956l0.53,0.417l0.085,0.44l-0.444,0.938l-0.016,0.036
		l-2.513,4.05l-0.856,1.84l-0.367,1.836l0.083,0.432l0.164,0.311l0.138,0.378l-0.003,0.622l-0.137,0.286l-0.512,0.668l-0.111,0.261
		l-0.172,0.92l-0.41,0.572l-0.956,0.766l-0.747,1.072l-0.668,1.204l-0.453,0.546l-1.551,0.998l-0.469,0.419l-0.494,0.591
		l-0.265,0.553l-0.134,0.281l-0.303,2.224l-0.336,0.618l-0.38,0.511l-0.28,0.75l-0.002,0.395l0.174,0.692l0.018,0.296l-0.155,0.352
		l-0.497,0.543l-0.292,0.876l-0.43,0.543l-2.609,1.886l-0.478,1.062l-0.568,0.41l-1.069,0.534l-0.249,0.386l-0.526,1.333
		l-0.268,0.127l-0.197-0.127l-0.221-0.205l-0.348-0.107l-1.517,0.223l-6.576,0.965l-0.138,0.021l-1.076,0.496l-0.964,0.751
		l-2.902,2.977l-1.168,0.495l-1.205-0.403l0.333,0.472l0.487,0.188l1.182-0.004l0.582-0.159l1.175-0.711l1.08-0.27l5.546-2.832
		l0.288-0.336l0.258-0.479l0.6-0.385l0.67-0.115l0.475,0.309l0.496,0.494l0.983,0.082l0.333,0.627l0.053,0.958l-0.205,0.898
		l-0.371,0.749l-0.444,0.515h0.684l0.105,0.153l0.123,0.691l0.054,0.186l0.315,0.147l0.247,0.043l0.205,0.11l0.185,0.355
		l2.545,0.196l0.609,0.314l0.948,0.89l0.223,0.126l1.012,0.902v0.308l-1.483,1.466l-0.507,0.992l-0.659,0.316l-1.34,0.305
		l-1.764,1.217l-0.627,0.179l-0.684-0.118l-1.707-0.908l-1.335-0.026l-0.676,0.189l-0.288,0.366l-0.215,0.46l-1.479,1.06
		l-1.544,1.781l-0.459,0.268l-0.557,0.201l-0.299,0.532l-0.388,1.681l-0.315,0.73l-0.412,0.288l-1.95,0.105l-0.555,0.251
		l-0.965,0.667l-1.103,0.517l-1.089,0.188l-1.089-0.075l-4.497-1.338l-2.474,0.045l-1.072-0.361l-0.985-0.704l-0.029-0.028
		l-0.994-0.968l-0.582-0.745l-0.386-0.256l-0.57-0.018v0.309l1.663,1.177l0.238,0.383l0.231,0.134l0.958,1.715l0.139,0.365
		l0.245,0.085l0.533-0.107l0.19,0.022l0.197,0.261l0.132,0.336l0.181,0.296l0.335,0.128l1.573-0.35l0.622,0.01l4.785,1.359h1.312
		l0.483-0.235l0.274,0.018l0.296,0.401l0.472,0.419l5.054,0.413l0.197,0.158l0.498,0.704l0.17,0.188l0.348,0.067l1.74-0.182
		l2.108-0.934l0.648-0.562l0.462-0.773l0.478-0.613l0.693-0.085l-0.157-0.602l-0.075-0.223l-0.129-0.197l0.506-0.452l0.824-0.996
		l0.566-0.253l4.666,0.339l0.533,0.243l0.79,1.107l0.505,0.322l-0.249,0.82l-0.147,0.261l0.392,0.14l0.71-0.136l0.42,0.304
		l0.116-0.199l0.285-0.259l0.184-0.221l0.408,0.431l1.134,0.81l1.061,0.344l1.765,1.499l1.201,0.655l4.478,0.879l0.246,0.133
		l0.152,0.406l0.041,0.458l0.065,0.367l0.217,0.153l0.598,0.244l0.537,0.616l1.595,3.166l0.367,0.725l3.668,4.743l0.408,1.149
		l0.281,0.606l0.6,0.426l0.152,0.349l0.122,0.355l0.145,0.174l0.26-0.08l0.177-0.233l0.125-0.247l0.103-0.114l0.311,0.044
		l0.356,0.185l0.337,0.409l0.246,0.71h-0.565v0.307l0.334,0.202l0.977-0.281l0.605,0.078l1.9,1.373v0.336l-0.153,0.325l0.046,0.358
		l0.195,0.358l0.292,0.336l-0.38,0.302v0.336l0.24,0.158l0.537,0.514v0.336l-0.233,0.43l0.138,0.236l0.279,0.164l0.195,0.208
		l0.122,0.588l0.1,3.29l-0.049,0.477l-0.144,0.802l-0.023,0.263l-0.007,0.424l0.168,1.068l0.688,1.262l0.077,0.86l-0.034,0.231
		l-0.054,0.223l-0.082,0.209l-0.107,0.203l-0.12,0.364l0.051,0.322l0.11,0.31l0.061,0.322l0.156,0.568l0.349,0.544l0.639,0.707
		l-0.228,0.641l0.141,0.3l0.273,0.26l0.176,0.494l-0.079,0.482l-0.188,0.416l-0.127,0.426l0.117,0.503l0.479,0.747l0.133,0.351
		l0.095,1.051l0.245,1.035l0.102,0.307l0.107,0.085l0.36,0.162l0.103,0.083l0.042,0.138l0.094,0.397l0.456,1.228l0.254,0.439
		l0.143,0.433l0.127,0.614l0.184,0.553l0.317,0.237l0.093,0.136l0.778,0.829l0.211,0.521l0.026,0.296l-0.05,0.215l-0.014,0.294
		l0.032,1.078l0.07,0.43l0.2,0.171l-0.075,0.447l1.643,6.009l0.593,1.519l0.974,1.29l0.428,0.32l1.471,0.664v0.359h-0.567
		l0.005,0.217l0.047,0.149l0.156,0.294l0.068,0.386l0.109,0.352l0.164,0.307l0.229,0.268l-0.229,0.413l-0.266,0.239l-0.662,0.301
		l0.071,0.348l0.136,0.199l0.196,0.086l0.269,0.023l0.077-0.078l0.025-0.158l0.041-0.123l0.132,0.031l0.074,0.121l0.116,0.235
		l0.069,0.229l-0.049,0.104l0.335-0.066l0.165-0.254l0.241-1.35l0.486,0.651l0.472,0.401l0.54,0.203l1.173,0.16l1.352,0.911
		l5.72,1.793l6.259,3.999l0.788,0.783l0.328,0.666l0.029,0.432l-0.05,0.374l0.088,0.486l0.29,0.407l0.924,0.687l0.391,0.393
		l0.418,0.754l0.478,1.141l0.337,1.206l0.011,0.959l0.097,0.316l0.154,0.312l0.217,0.244l0.291,0.101l-0.116,0.495l-0.075,0.188
		l0.231,0.244l0.523,0.779l0.214,0.248l1.135,0.306l0.281,0.211l0.328,0.331l0.641,0.329l0.208,0.48l0.196,1.264l0.061,0.195
		l0.737,0.785l3.407,1.372l1,0.923l-2.46,1.363l-0.856,1l-0.689,1.874l0.614,1.324l0.799,3.097l0.489,1.419l2.948,4.628l4.97,7.457
		l0.439,1.55l-0.344,1.522l-0.159,0.173l-0.6,0.494l0.605-1.444l0.129-0.796l-0.439-0.349l-0.577-0.197l-1.205-0.89l-0.602-0.225
		l-0.548,0.132l-1.078,0.676l-0.588,0.155l-0.678-0.065l-0.636-0.193l-0.566-0.304l-0.485-0.401l-2.652-3.47l-0.975-0.729
		l-0.982-0.159l-0.265-0.042l-3.505,1.194h-0.516h-1.691l-0.944,0.228l-0.197-0.08l-0.688-0.681l-0.082-0.109l-1.61-0.189
		l-0.593,0.189l-1.895,1.286l0.254,0.092l0.245,0.138l0.233,0.184l0.215,0.228l0.417-0.744l0.77-0.365l0.842-0.059l0.65,0.178
		l1.132,0.826l0.299,0.325l0.412,0.277l0.443-0.17l0.771-0.619l4.983-0.93l0.776,0.337l0.529,0.945l1.996,3.125l1.241,0.647
		l0.858,1.032l0.48,0.351l0.974,0.149l0.399,0.168l1.3,1.641l2.667,2.199l0.532,0.24l0.528,0.122l0.496,0.225l0.444,0.529
		l0.086,0.35l0.061,0.479l0.075,0.424l0.159,0.184l0.254,0.087l0.804,0.578l-0.211,0.319l0.485,0.368l0.432,0.646l0.312,0.74
		l0.12,0.634l2.273,6.293l0.392,1.754l0.011,1.987l-0.58,2.424l-0.165,0.322l-0.31,0.13l-0.553,0.115l-0.455,0.294l-2.489,2.535
		l-0.516,0.215l-0.38,0.299l-2.19,3.249l-0.583,0.631l-0.656,0.269l-0.43,0.304l-0.378,0.644l0.047,0.561l0.846,0.064l1.444-0.343
		l0.365,0.146l0.774,0.653l0.38,0.146l0.661,0.456l1.433,2.232l0.677,0.826l0.494-0.367l0.589-0.086l1.11,0.11l0.453,0.264
		l0.781,1.123l0.408,0.213v-0.314l-0.147-0.719l0.562-0.86l0.727-0.822l0.365-0.615l0.149-1.121l0.353-1.242l0.435-1.128
		l0.371-0.787l0.962-1.005l1.372-0.648l1.497-0.293l1.35,0.056l-0.208-0.344l0.566-0.209l0.614,0.147l0.623,0.265l0.593,0.141h2.371
		l1.107,0.29l1.268,0.624l1.318,0.331l1.266-0.585l-0.292-0.212l-0.331-0.126l-0.349-0.043l-0.36,0.038v-0.316l8.587,2.09
		l3.376,1.742l6.906,5.324l0.811,0.926l0.659,1.133l0.523,2.171l0.51,1.337l0.365,1.349l-0.181,0.975l0.17,0.704l0.052,0.904
		l-0.032,1.648l0.657,2.143l-0.113,0.409l-0.353,0.439l-0.7,2.363l0.025,0.442l-0.063,0.438l-1.232,3.27l-0.883,1.611l-0.299,0.333
		l-0.294,0.516l-0.063,1.165l0.072,2.046l-0.149,0.881l-0.503,1.561l-0.109,0.821l-0.399,1.224l-0.045,0.627l-0.147,0.249
		l-2.188,0.928l-0.469,0.541l-0.412-0.326l-0.145,0.372l-0.081,0.582l-0.224,0.3l-0.19,0.16l-0.673,1.045l-1.947,2.16l-0.315,0.505
		l-0.312,0.125l-1.889-2.451l-0.822-0.268l-1.381-1.12l-0.761-0.155v0.309l0.992,0.944l0.58,0.423l1.277,0.3l0.292,0.149
		l0.122,0.204l-0.02,0.728l-0.095,0.2l-0.564-0.143l-0.328,0.044l-0.593,0.195l-0.331,0.04l-0.349-0.094l-0.777-0.52l-0.618,0.044
		l-1.352,0.456l-0.706,0.114l0.734,0.347l4.635,0.298l0.555-0.336l-0.097,0.843l-2.197,2.266l0.353,0.271l0.435,0.192l1.017,0.152
		l0.288-0.284l0.208-0.462l0.122-0.049l0.045,0.95l-0.331,0.711l-1.59,1.484l-1.431,0.972l-0.901,0.383l-1.947,0.289l-0.523-0.079
		l-0.26-0.23l-0.444-0.917l-0.906-1.247l-0.249-0.599l-0.077,0.854l-0.417,0.487l-1.028,0.505l-0.858,0.807l-0.204,0.112
		l-0.016,0.245l-0.081,0.538l-0.127,0.538l-0.145,0.245l-0.326,0.079l-0.446,0.395l-0.285,0.137l-0.34-0.006l-0.614-0.263
		l-0.269-0.066l-0.686,0.077l-1.286,0.506l-0.62,0.366l0.435,0.214l0.507,0.068l0.469,0.237l0.319,0.709l0.788-0.784l1.78-0.393
		l0.849-0.358l0.802-0.658l0.491-0.093l0.432,0.444l0.052,0.38l-0.079,0.439l-0.115,0.336l-0.063,0.073l0.057,0.356l0.106,0.353
		l0.217,0.546l-0.281,0.241l-0.104,0.383l0.005,1.042l-0.095,0.241l-0.222,0.223l-0.426,0.317l0.752-0.051l0.267,0.155l0.104,0.202
		l-0.761,1.285l-1.424,1.292l-1.252,0.788l-0.335,0.209l-1.252,0.399l-2.203-0.36l-0.77,0.056l-0.018-0.022l-0.367-0.011
		l-0.109,0.02l-0.073,0.013l-0.036,0.069l-0.539,0.513l-0.41,0.137l-0.374,0.016l-0.36,0.093l-0.374,0.366l-0.448-0.429
		l-0.154,0.011l-0.607,0.036l-1.929,0.508l-0.145,0.326l-0.079,0.449l-0.177,0.5l-0.367,0.444l-0.401,0.233l-0.414,0.156
		l-0.408,0.236l1.778-0.305l0.233-0.142l0.129-0.314l0.095-0.316l0.131-0.142l1.816-0.504l4.452,0.654l0.408,0.291l0.346,0.636
		l0.034,0.427l-0.279,0.245l-0.577,0.076l-0.999-0.223l-0.432,0.016l-0.879,0.85l-1.019,0.247l-0.507,0.33l0.215,0.25l0.19,0.31
		l0.206,0.267l0.263,0.114h2.391l1.141,0.305l-0.222-0.524l-0.127-0.617l0.138-0.432l0.586,0.022l0.054,0.57l0.303,0.817
		l0.394,0.731l0.306,0.317l5.922,0.678l3.442-1.072l8.985-0.84l0.679,0.41l-0.254,1.462l-0.1,0.283l-0.131,0.265l-0.159,0.216
		l-0.181,0.147l-0.992-0.006l-0.149,0.158l0.084,0.956l0.201,0.75l0.457,1.18l0.245,1.762l-0.231,1.697l-0.566,1.414l-0.759,0.917
		l-1.859,0.642l-0.763,0.588l-0.315,0.032l-0.602-0.052l-0.331,0.121l-0.274,0.279l-0.238,0.314l-0.213,0.222l-0.553,0.231
		l-1.823,0.045l-0.544,0.15l-0.564,0.38l-1.094,1.007l-1.424,2.088l-0.276,0.518l0.073,1.143l0.299,1.709l-0.965,0.388l-2.097-0.695
		l-1.88-0.622l-1.107,0.367l-2.729,2.673l-1.119,0.511l-6.03,1.295l-1.035,0.464l-0.14-0.009l-0.306,0.412l-0.274,0.466
		l-0.059,0.172l-0.951,0.625l-1.033,1.477l-1.033,0.016l-0.55-0.084l-1.275-0.48l-0.304-0.054l-0.983,0.011l-0.251-0.147
		l-0.487-0.48l-0.515-0.174l-1.183-0.086l-0.472-0.172l-5.307-1.944l-0.917-0.09l-0.077,0.041l-0.675,0.36l-1.017-0.412
		l-3.559,1.287h-4.769l-4.557,1.531l-0.246-0.086l-0.231-0.204l-0.232-0.141l-0.26,0.104l-0.154,0.383l0.19,0.83l-0.131,0.451
		l-0.528,0.301l-0.636-0.208l-2.541-1.632l-0.205-0.261l0.156-0.45l0.372-0.29l0.803-0.328v-0.272l-0.277-0.206l-0.544-0.547
		l-0.322-0.176l-0.135,0.147l-0.339,0.193l-0.201-0.054l0.276-0.588l-0.3-0.169l-0.262-0.143l-0.879-0.165l-0.67-0.004l-0.195-0.002
		l-0.525,0.152l-0.357,0.782l-0.253,1.057l-0.378,0.831l-0.738,0.091l-0.564-0.639l0.261-0.769l0.51-0.753l0.171-0.601l-0.505-0.271
		l-0.023,0.002l-1.716,0.136l-0.414,0.133l0.974,0.817l0.165,0.278l0.071,0.855l-0.103,0.469l-0.366,0.342l-0.363-0.02l-0.507-0.197
		l-0.453-0.288l-0.195-0.274l-0.186-0.409l-0.897-0.484l-0.659-0.573l-0.917-0.319l-0.369-0.197l-0.478-0.585l-0.566-0.696
		l-3.071-1.736l-0.477-0.269v0.275l0.277,0.14l0.514,0.328l0.344,0.054l0.682,0.835l2.172,2.443l0.245,0.599l-0.084,0.525
		l-0.627,0.224l-1.784,0.158l-0.41,0.14l0.204,0.154l0.179,0.174v0.274l-1.268,0.236l-0.716,0.261l-0.315,0.251l-0.122,0.02
		l-0.913-0.166l-0.904,1.66l-0.061,0.179l-0.05,0.011l-0.543-0.161l-0.596-0.401l-1.907-0.365h-0.063l-0.559,0.005l-0.614,0.182
		l-1.07,0.569l-0.506,0.12l-0.716-0.134l-1.047-0.199l-0.622,0.032l-0.555,0.181l-0.529,0.288l-0.015,0.011l-0.473,0.379
		l-0.423,0.508l-0.303,0.222l-0.12-0.3l-0.05-0.451l-0.088-0.238l-1.069-0.299l-0.729,0.052l-0.224-0.052l-0.097-0.164l-0.02-0.054
		l-0.213-0.529l-0.143-0.123l-0.254,0.225l-0.962,1.576l0.365-0.05l0.329-0.12l0.309-0.195l0.306-0.266l0.598,1.078l0.324,0.329
		l0.512,0.122l0.464-0.005l0.408,0.091l0.193,0.339l-0.197,0.747l0.41,0.264l0.16,0.061l-0.968,1.2l0.058,0.653l-0.515,0.244
		l-2.267,0.048l-0.473-0.102l-2.091-0.994l-5.156-0.582l-0.958-0.603l-0.592,0.086l-1.045,0.354l-0.326,0.423l-0.346,0.937
		l-0.155,0.936l0.256,0.423l0.702,0.23l0.07,0.556l-0.294,0.69l-0.392,0.62h-0.172l-0.023-1.657l-0.644-1.091l-5.828-4.494
		l-4.783-1.801l-0.626-0.025l-1.62,0.376l-0.479,0.111l-0.986,0.662l-0.658,0.077l-1.054-0.3l-0.324,0.102l-0.634,0.529
		l-0.142,0.082l-0.462,0.4l-0.268,0.118l-0.29-0.029l-0.536-0.238l-0.316-0.064l-0.532,0.091l-0.933,0.436l-1.132,0.275
		l-0.322,0.441l-0.251,0.584l-0.421,0.6l-2.02,0.896l-0.628-0.032l-0.468-0.152l-0.374-0.359l-0.344-0.657l-0.362-1.047
		l-0.113-0.177l-0.079-0.043l-0.06-0.095l-0.088-0.093l-0.162-0.043l-0.093,0.093l-0.032,0.207l0.029,0.207l0.349,0.398l0.369,1.509
		l0.242,0.582l-0.496,0.475l-0.448,0.606l-0.403,0.747l-0.365,0.893l-0.309,1.197l0.026,0.858l0.489,1.827l-0.62,0.041l-0.623,0.162
		l-0.481,0.361l-0.19,0.629l0.194,0.721l0.482,0.234l1.239-0.059v0.297l-0.279,0.76l-0.023,0.16l-0.251,0.039l-0.213,0.124
		l-0.144,0.224l-0.189,1.092l-0.333,0.234l-0.435-0.14l-0.446-0.381l-0.201,0.974l-0.593,0.358l-0.625,0.17l-0.29,0.418
		l-0.149,0.737l-0.284,0.907l-0.16,1.024l0.214,1.089l-0.418,0.218l-1.121,0.326l-0.476,0.049l-0.623-0.152l-0.507-0.255
		l-0.435-0.053l-0.41,0.46l-1.039-0.949l-1.61-2.013l-1.83-1.679l-0.308-0.142l-0.256,0.066l-0.711,0.406l-0.274,0.096l-0.16,0.099
		l-0.374,0.425l-0.228,0.099l-0.309-0.067l-0.286-0.17l-0.442-0.387l0.063-0.156l0.109-0.411l-0.611-0.174l-0.619-0.452
		l-0.291-0.665l0.383-0.82l-1.023,0.071l-0.306-0.071l-0.355-0.249l-0.165-0.281l-0.12-0.352l-0.224-0.446l-0.213-0.723l0.211-0.615
		l0.378-0.587l0.3-0.624l-0.554,0.277l-0.282-0.027l-0.306-0.251l-0.087,0.35l-0.029,0.119l-0.213,0.315l-0.282,0.153l-0.34-0.014
		v0.27l0.404,0.274l0.113,0.443l-0.1,0.464l-0.245,0.337l-0.36,0.117l-1.348-0.117l0.47,0.675l1.582-0.256l0.624,0.474l-0.967,0.272
		v0.298l0.233-0.064l0.545,0.064l-0.207,0.325h0.778v0.271l-0.314,0.114l-0.186,0.232l-0.032,0.298l0.149,0.303v0.269l-0.591-0.039
		l-0.298-0.534l-0.262-0.617l-0.48-0.298l-2.375-0.623l-1.279,0.138l-2.018,1.278l-1.089,0.426l-4.576,0.269l0.007,0.071
		l-0.087,0.124l-0.142,0.106l-0.157-0.004l-0.382-1.19l-0.199-0.032l-0.163,0.112l-0.15,0.146l-0.161,0.073l-0.563,0.053
		l-0.572,0.19l-0.311,0.358l0.219,0.56v0.326l-0.193,0.161l-0.258,0.282l-0.229,0.315l-0.097,0.28l0.041,0.266l0.149,0.292v0.186
		l-0.332,0.815l-0.048,0.241l-0.279,0.305l-1.379-0.218l-0.529,0.223l-0.517,0.628l-0.486,0.285l-1.182,0.395l-0.374,0.386
		l-1.162,2.015l-0.337-0.541l-0.162-1.538l-0.357-0.322l-0.55,0.156l-0.018,0.385l0.049,0.495l-0.353,0.474v0.27l0.169,0.127
		l0.419,0.493l-0.234-0.021l-0.183,0.081l-0.343,0.237l-0.265,0.198l-0.036,0.318l0.018,0.357l-0.113,0.314l-0.247,0.191
		l-0.892,0.399l0.315-0.012l0.239,0.065l0.395,0.244l0.138,0.019l0.322-0.062l0.127,0.042l0.065,0.189l0.099,0.577l0.113,0.122
		l0.121,0.365l-0.361,0.799l-0.795,1.204l-0.257,0.06l-0.56-0.106l-0.34,0.046l-0.19,0.166l-0.825,0.979l-0.323,1.014l-0.095,0.232
		l-0.249-0.097l-0.285-0.232l-0.836-0.935l-0.135-0.206l-0.119-0.301l-0.099-0.544l0.022-0.349l-0.011-0.307l-0.197-0.428
		l-0.797-1.301l-0.444-0.545l-0.546-0.401l-1.676-0.801l-1.128-0.207l-0.93-0.57l-0.465-0.198l-0.58,0.035l-0.728,0.256
		l-0.531,0.445l0.008,0.595l0.167,0.755l-0.303,0.582l-0.498,0.402l-0.417,0.212l-1.141,0.37l-1.334,0.145l-1.051-0.409
		l-0.292-1.318l0.269-0.034l0.199-0.083l0.12-0.178l0.002-0.272l-0.075-0.206l-0.089-0.117l-0.046,0.002l-0.151-0.818l-0.051-0.461
		l0.107-0.201l0.052-0.145l0.525-0.908l0.22-0.152l0.817-0.306l1.774-1.034l0.951-0.333l1.07-0.693l0.608-0.014l0.863,0.828
		l0.56,0.279l0.573-0.354l0.402-0.648l0.197-0.43l0.083-0.405l0.148-0.163h0.992l1.031-0.579l3.187-3.36l1.022-0.719l0.38-0.128
		l0.095-0.224l0.023-0.506l-0.039-0.545l-0.185-0.877l0.314-0.219l0.421-0.032l0.209,0.02l1.933-1.045l0.059-0.249l0.263-0.59
		l0.249-1.699l0.032-0.886l0.094-0.753l0.268-0.604l0.557-0.444h0.568l0.204-0.15l0.362-0.422l0.211-0.053l0.161,0.241l0.121,0.51
		l0.075,0.599l0.024,0.499l0.187-0.116l0.071-0.069l0.105-0.139l0.504,0.31l1.154,0.061l0.448,0.224l-0.306-0.584l-0.486-0.292
		l-0.917-0.346l-0.435-0.565l0.045-0.406l0.14-0.365l-0.148-0.458v-0.273l0.692,0.143l2.072-0.143l0.799-0.264l0.442-0.642
		l0.322-0.796l0.439-0.721l-0.172-0.655l0.097-0.47l0.279-0.211l0.384,0.113l1.971-1.705l0.326-0.545l0.216-0.775l0.523-0.599
		l1.162-0.877l0.755-1.533l-0.134-3.888l0.31-1.828l0.193-0.37l0.394-1.111l-0.111-0.338l-0.104-0.633l-0.025-0.619l0.136-0.277
		h2.479l0.303,0.101l0.575,0.434l0.279,0.097l1.615,0.178l0.568-0.178l0.417-0.302l1.881-2.115l0.155-0.256l0.124-0.265l0.172-0.238
		l0.292-0.173l-0.174-0.427l-0.335-1.206l-0.061-0.319l-0.095-0.278l-0.476-0.718l-0.188-0.383l0.931,0.079l0.208-0.079l0.18-0.478
		l-0.041-0.468l-0.207-0.379l-0.312-0.215v-0.276l2.12-0.851l5.088-0.479l1.043-0.398l0.523-0.09h2.012l0.61-0.119l0.886-0.476
		l0.499-0.042l3.601,0.948l2.238-0.076l3.482,0.813l0.83,0.788l0.539,0.258l3.179-0.141l1.999-0.629l1.005-0.141l1.837,0.097
		l1.091-0.161l0.786-0.544l0.207,0.304l-0.382,0.634l0.382,0.304l0.474-0.918l0.096-0.323l0.049-0.57l-0.054-0.287l-0.096-0.239
		l-0.088-0.421l0.015-1.665l-0.083-0.846l-0.312-0.527l0.54,0.167l0.285-0.127l0.002-0.005l0.103-0.404l0.017-0.692l0.22-0.41
		l0.387-0.404l0.178-0.415l-0.42-0.444l0.605-0.637l0.889,0.182l1.025-1.005l1.886-2.529l0.496-0.402l0.492-0.289l0.547-0.169
		l0.657-0.055l0.59-0.246l0.564-0.584l2.458-4.24l0.229-0.18l0.289-0.128l0.245-0.197l0.101-0.398l0.066-0.368l0.153-0.414
		l0.187-0.378l0.163-0.263l1.592-1.683l0.951-1.308l0.48-0.269l1.192-0.417l0.455-0.417l0.216-0.516l-0.072-0.51l-0.409-0.399
		l-0.121,0.834l-0.5,0.47l-0.641,0.21l-0.552,0.051l-0.523,0.199l-0.383,0.488l-0.337,0.603l-0.394,0.548l-1.658,1.107l-0.263,0.285
		l-0.253,0.438L491.677,494.868z M535.714,534.98l0.568,0.901v0.331l-0.129,0.002l-0.075,0.077l-0.062,0.111l-0.095,0.107
		l-1.041,0.311l-0.444,0.22l-0.771,0.688l-0.163,0.211l-0.069,0.221l0.016,0.946l-0.025,0.489l-0.095,0.209l-3.082,0.918
		l-1.011-0.292l-3.629-2.586l-0.19-0.27l-0.923-0.661l-0.319-0.13l-1.049,0.129l-0.455,0.188l-0.5,0.311l0.672-1.233l1.096-0.949
		l2.427-1.146l-0.061,0.147l-0.071,0.297l-0.053,0.157l0.682-0.082l0.649-0.537l0.948-1.181l0.695-0.489l0.633-0.045l4.215,1.732
		l0.688-0.018l0.29,0.059l0.336,0.259l0.017,0.111l-0.034,0.37l0.017,0.118l0.078,0.03l0.241-0.061L535.714,534.98z
		 M539.133,530.804v0.272l0.147,0.143l0.249,0.308l0.189,0.151v0.328l-2.279-0.328v-0.297l0.614-0.258l0.727-1.267l0.353,0.02
		l0.266,0.244l0.069,0.263l-0.1,0.237L539.133,530.804z M591.204,504.037l0.584,0.646l0.27,0.655l-0.161,0.533l-0.693,0.296
		l-3.247-0.274l-0.548-0.212l-0.487-0.495l-0.392-0.61l-0.267-0.539l0.36-1.226l0.197-0.271l0.362-0.1l3.447,1.201l0.272,0.156
		L591.204,504.037z M438.477,419.314l0.126,0.257l0.245,0.282l0.153,0.358l-0.144,0.503l-0.23,0.114l-0.279-0.117l-0.571-0.515
		l-0.567-1.064l-0.272-0.326l-0.244-0.066l-0.808,0.066l-0.174-0.1l-0.481-0.824v-0.318l0.742-0.665l0.324,0.193l0.319,0.011
		l0.498-0.063l0.206,0.176l0.419,0.415l0.372,0.495l0.265,0.563L438.477,419.314z M451.809,417.564l0.813-0.034l0.386,0.085
		l0.339,0.267l-0.571,0.629l-0.965,1.821l-0.666,0.382l-0.688,0.133l-0.703,0.358l-0.656,0.516l-0.537,0.607l-0.102,0.147
		l-0.052,0.119l-0.018,0.187v0.34l-0.028,0.372l-0.083,0.042l-0.121-0.045l-0.979,0.708l-0.434,0.555l-1.773,1.063l-0.292,0.098
		l-0.343-0.068l-0.716-0.321l-0.008,0.106l-0.167,0.153l-0.221,0.1l-0.173-0.068l-0.041-0.268l0.017-0.43l0.048-0.393l0.062-0.178
		l0.217-0.2l0.322-0.434l0.146-0.435l-0.296-0.198l-0.421,0.21l-0.611,0.895l-0.41,0.162l-0.027-0.145l-0.922-0.805l-0.078-0.034
		l-0.223,0.059l-0.079-0.025l-0.018-0.125l0.036-0.385l-0.018-0.125l0.007-0.136l-0.034-0.34l-0.092-0.346l-0.564-0.539
		l-0.924-1.818l-0.499-0.629v-0.348l0.161-0.47l0.057-0.709l-0.011-1.016l0.138-1.551l-0.061-0.676l-0.283-0.697l0.489-0.364
		l3.564-1.22l0.349-0.011l1.929,0.321l0.523,0.027l1.062,0.61l0.273,0.253l0.135,0.558l0.07,0.558l0.093,0.254l-0.025,0.125
		l0.345,0.268l0.402,0.228l0.148,0.013l0.028,0.237l-0.032,0.319l-0.009,0.283l0.101,0.116l0.026,0.108l0.439,0.529l0.153,0.536
		l0.053,0.396l0.117,0.252l0.352,0.089l0.355-0.046l0.637-0.199l0.345-0.046l0.163-0.106l0.246-0.455l0.162-0.104l0.19,0.055
		l0.351,0.239L451.809,417.564z M392.311,322.066l1.436,0.221l0.292,0.143l0.068,0.523l-0.173,0.616l-0.264,0.549l-0.202,0.314
		l0.043-0.393l0.011-0.234l0.03-0.175l0.105-0.227l-0.643-0.553l-0.688-0.068l-0.69,0.079l-0.639-0.097l0.307-0.292l0.308-0.219
		l0.33-0.135L392.311,322.066z M424.745,312.362l-0.618,0.438l0.054,0.646l0.285,0.767l0.071,0.803l-0.384,0.451l-0.717,0.311
		l-1.274,0.24l-1.497-0.152l-1.273-0.453l-1.157-0.733l-1.141-1.007v-0.334l-0.014-0.324l-0.255-1.32l-0.112-0.372v-0.336
		l0.143-0.122l0.054-0.124l0.052-0.156l0.131-0.236l-0.688-0.983l-0.519-0.984l-0.245-1.18l0.138-1.594l0.376-1.064l0.673-1.06
		l0.859-0.761l0.941-0.175l-0.058-0.169l-0.071-0.368l-0.061-0.169l0.724-0.048l0.228,0.048l1.805,0.914l0.491,0.466l0.575,0.922
		l0.389,1.048l0.557,2.437l-0.319,0.665l1.202,1.254l0.066,1.103l-0.273,0.168l-0.4,0.014l-0.256,0.172l0.153,0.654l0.228,0.182
		L424.745,312.362z M425.886,300.525l0.299,0.207l0.214,0.376l0.054,0.414l-0.189,0.32l-0.351-0.024l-0.269-0.422l-0.328-0.871
		l-1.817-1.725l-0.289-0.824l-0.323-1.388l-0.058-0.641l-0.962-0.663l-0.179-0.367l-0.221-0.761l-0.34-0.862l0.035-0.773
		l0.908-0.485l0.861,0.739l0.847,0.955l0.251,0.158l0.247,0.044l0.187,0.151l0.16,1.124l0.199,0.238l0.256,0.097l0.238,0.218
		l0.34,0.661l0.255,0.651l0.197,0.677l0.289,1.541l-0.036,0.302l-0.179,0.258L425.886,300.525z M398.043,301.534l-0.067,0.563
		l0.012,0.559l0.085,0.5l0.161,0.4v0.309l-0.331,0.169l-0.288,0.207l-0.22,0.291l-0.129,0.405l-0.172-0.369l-0.5,0.767l-0.641,0.586
		l-0.736,0.413l-0.782,0.255l-1.183-0.193l-0.355,0.193l-0.207,1.04l-0.117,0.186l-0.267,0.303l-0.704,0.581l-0.709,0.264
		l-0.663-0.236l-0.389-1.098l0.165-1.119l0.606-0.702l1.509-0.871l-0.6-1.745l-0.342-0.42l-1.104-0.547l-0.234-0.016l0.118-0.893
		l0.708-0.911l1.267-1.234l-0.607-0.306l-0.797-0.137l-0.787,0.131l-0.565,0.481l-0.654,1.716l-0.391,0.81l-0.89,0.627l-0.883,1.336
		l-0.352,0.4l-0.779,0.13l-0.35-0.47l0.03-0.806l0.355-0.876l-0.14-0.091l-0.109-0.193l-0.147-0.085l0.297-0.81l1.241-1.859
		l-0.933-0.675l0.365-0.32l0.23-0.31l0.116-0.467l0.033-0.778l0.075-0.621l0.211-0.393l1.005-0.732l1.52-0.686l0.329-0.371
		l0.314-0.25l0.362,0.161l-0.211,0.315l-0.342,1.406v0.309l0.208,0.889l0.208,0.363l0.343,0.103v-0.339l-0.21-0.974l0.597-1.103
		l0.896-0.904l0.994-0.59l0.691-0.958l0.358-0.212l0.396-0.111l0.415-0.267l0.366-0.335l0.249-0.305l0.279,0.097l0.179,0.194
		l0.096,0.301l0.119,2.117l0.378,2.754l0.087,1.497l0.171,0.461l0.389,0.505l0.421,0.401l0.262,0.167l0.133,0.181l-0.07,0.41
		l-0.127,0.455l-0.038,0.302l0.14,0.27l0.184,0.185L398.043,301.534z M393.165,282.981l0.208-0.177l0.435,0.183l0.231-0.191
		l-0.086-0.191l-0.045-0.134l-0.077-0.325l0.469-0.067l0.433-0.207l0.317,0.012l0.129,0.603l-0.898,1.553l-0.32,0.998l0.079,0.882
		l-0.557,0.422l-0.761,0.223l-0.765-0.024l-0.576-0.31l0.434-0.353l0.208-0.574l0.143-0.665l0.251-0.605l0.582-0.767
		L393.165,282.981z M404.521,282.488l1.422-1.454l0.85-0.569l0.597,0.287l0.102,0.478l0.079,0.687l-0.037,0.615l-0.438,0.436
		l-0.419,0.743l-0.559,0.58l-1.112,2.777l-2.346,4.674l-0.608,1.988l-0.292-0.109l-0.687,0.874l-0.462,0.248l-0.203,0.381
		l-0.277,1.909l-0.186,0.758l-0.709,0.502l-1.087-0.073l-0.996-0.663l-0.437-1.26l-0.245-2.383l0.054-0.862l0.272-0.776l0.418-0.345
		l0.474-0.251l0.45-0.495l0.822-0.685l2.181-0.431l0.91-0.783l-0.659-0.018l-1.025,0.291l-0.942,0.036l-0.414-0.801l0.343-1.136
		l0.781-1.288l0.856-1.058l0.57-0.442l0.842-0.264L404.521,282.488z M407.562,278.019l0.206,0.374l0.202,0.781l-0.572,0.517
		l-0.863,0.289l-0.666,0.087l0.3-0.82l0.448-0.48L407.562,278.019z M409.097,274.944l0.147,0.175l0.136,0.118l0.137-0.025
		l0.151-0.269l0.057,0.705l-0.211,0.719l-0.279,0.727l-0.258,1.563l-0.282-0.305l-0.531-1.356l0.285-0.477l0.308-1.198
		L409.097,274.944z M409.097,272.173l0.344-0.274l0.636,0.118l0.369-0.188l-0.162,0.6l-0.265,0.408l-0.15,0.428l0.177,0.653
		l-0.632,0.394l-0.517-0.337l-0.179-0.802L409.097,272.173z M411.189,267.373l0.875,0.037l0.394-0.094l0.267-0.287l-0.426,0.868
		l-0.505,0.585l-0.606,0.29l-0.742-0.029l0.134-0.473l0.163-0.325L411.189,267.373z M394.436,264.592l-1.46,0.086l-0.695-0.111
		l-0.729-0.664l0.29-0.486l0.311-0.339l0.347-0.189l0.397-0.016l0.405,0.439l0.84,0.695L394.436,264.592z M376.111,261.149
		l1.43-0.542l0.705,0.037l0.351,0.883l-0.392,0.632l-1.684,0.211l-0.049,0.843l-0.555,0.484l-0.618,0.125l-0.6,0.26l-0.507,0.883
		l0.165,0.897l-0.581,0.027l-1.746-0.811l-0.245-0.586l-0.16-0.787l-0.283-0.833l0.606-0.345l1.882-0.312l0.624-0.234l1.028-0.677
		L376.111,261.149z M407.562,266.341l0.243,0.344l0.406,0.708l0.204,0.694l-0.353,0.317l-0.91,0.02l-0.401-0.201l0.05-0.54
		l-0.168-0.213l-0.173-0.098l-0.189-0.025l-0.213,0.025l0.091,0.659l-0.334,0.593l-0.914,0.806v0.374l0.444-0.343l0.5-0.221
		l1.051-0.153l0.453,0.239l-0.188,0.546l-0.48,0.593l-2.469,1.699l-1.099,0.265l-0.888-0.6l0.179-0.149l0.306-0.331l0.256-0.429
		l0.036-0.46l-0.229-0.276l-0.341,0.031l-0.683,0.245l-0.143,0.159l-0.152,0.355l-0.195,0.355l-0.262,0.159l-0.938,0.214
		l-2.215,1.145l-0.475,0.539l-0.318,0.265l-0.349-0.094l-0.345-0.233l-0.318-0.126l-0.283,0.102l-0.661,0.465l-0.297,0.151h-2.584
		l-0.165,0.159l-0.128,0.351l-0.17,0.355l-0.289,0.159l-0.346-0.031l-0.577-0.196l-0.764-0.463l-0.504-0.555l-0.405-0.767
		l-0.165-0.931l0.254-0.711l0.6-0.413l0.7-0.141l0.554,0.098l0.442,0.529l0.37,0.731l0.389,0.433l0.51-0.355v-0.343l-0.22-0.051
		l-0.12-0.084l-0.095-0.1l-0.152-0.104l0.507-0.229l1.256,0.284l0.438-0.227l0.472-0.453l1.919-0.405l1.253-0.914l0.531-0.552
		l-0.171-0.252l-0.556,0.153l-1.628,0.908l-1.352,0.349l-0.693-0.049l-0.546-0.487l-0.13-0.538l0.122-0.503l0.268-0.374l0.31-0.143
		l0.369-0.096l0.211-0.243l0.405-1.036l0.084-0.367l0.126-0.356l0.239-0.307l0.267-0.098l0.985,0.098l1.661-0.789l0.334-0.275
		l0.162-0.51l0.02-0.49l-0.117-0.414l-0.256-0.304l-1.794,0.937l-0.591,0.092l-0.212,0.127l-0.237,0.224l-0.249,0.096l-0.26-0.256
		l-0.453-1.04l-0.251-0.462l-0.34-0.375l-0.574-0.337l-2.603-0.452l-0.535-0.253l-0.462-0.351l-0.386-0.394l1.33-1.005l-0.231-0.469
		l-0.571-0.643l-0.166-0.613l1.022-0.095l0.454-0.214l0.442-0.412l0.246,0.391l0.245,0.204h0.234l0.207-0.22l0.069-0.977l0.822-0.64
		l1.098-0.348l0.897-0.105l0.382,0.272l1.31,0.42l-0.047,0.229l-0.076,0.55l-0.05,0.226l0.86,0.076l0.688,1.018l1.128,2.729
		l0.085,0.353l0.001,0.333l0.072,0.25l0.29,0.099h2.781l0.224,0.181l0.201,0.3l0.207,0.193l0.429-0.296l0.274-0.056l0.274,0.056
		l0.195,0.154l0.616,0.979l0.238,0.209l0.271,0.082l0.515-0.088l0.184,0.006l0.319,0.262l0.378,0.463l0.312,0.584l0.129,0.615
		l0.207,0.109l0.406-0.102l0.29,0.201l-0.143,0.995l-0.231-0.172l-0.228-0.086L407.562,266.341z M386.111,254.056l-0.265,0.505
		l-0.384,1.026l-0.198,0.389l-0.211,0.296l-0.215,0.216l-0.259,0.134l-0.361,0.045l-1.026,1.407l-1.453,1.188l-0.465,0.162
		l-0.672-0.296l-0.326,0.002l-0.14,0.466l-0.109,0.52l-0.249-0.279l-0.263-0.617l-0.156-0.487l0.763-0.142l0.734-0.728l1.258-2.062
		l0.32-0.416l0.894-0.68l0.657-0.282l0.829-0.736l0.451-0.167l0.761-0.13l0.272,0.142L386.111,254.056z M360.102,237.161
		l0.136,0.337l0.083,0.424l0.114,0.397l0.236,0.239l-0.804-0.027l-0.24,0.187l-0.226,0.326l-0.224,0.243l-0.217,0.168l-0.204,0.118
		l0.154,0.473l-0.236,0.336l-0.431,0.199l-0.438,0.066l-1.805-0.349l-0.427-0.222l0.015-0.488l0.315-0.494l0.469-0.22l0.322-0.233
		l0.137-0.534l-0.068-0.576l-0.286-0.372l0.679-0.505l0.674-0.15l0.517-0.437l0.22-1.382l0.126,0.002l0.092,0.069l0.179,0.279
		l0.19,0.021l0.144,0.062l0.119,0.106l0.119,0.16l-0.4,0.878l-0.172,0.2l0.894,0.47L360.102,237.161z M389.841,234.687l1.454,0.939
		l0.611,0.699l-0.526,0.46v0.376h0.742l-0.376,1.86l-0.537,1.055l-0.768,0.465l-1.064,0.108l-0.498-0.278l-0.455-1.217l-0.394-0.278
		l-0.42-0.199l-0.873-0.917l-0.521-0.281l1.676-1.941l0.863-0.702L389.841,234.687z M382.017,235.037l0.432-0.371l0.96-0.571
		l0.524-0.137l0.323,0.292l0.677,0.177l0.331,0.26l-0.731,0.404l-0.899,0.158l-0.896-0.042L382.017,235.037z M400.041,223.092
		l-0.73-0.306l-0.639-0.679l-0.17-0.713l0.666-0.415l0.953,0.201l0.734,0.742l0.109,0.799L400.041,223.092z M364.281,220.979
		l0.327,0.346l0.26,0.421l0.301,0.296l0.456-0.038l-0.137,0.754l-0.26,0.283l-0.326,0.172l-0.328,0.402l-0.165,0.465l-0.29,1.059
		l-0.199,0.41l-0.539,0.255l-2.14-0.573v0.318l1.787,0.557l0.494,0.496l0.247,0.79l0.125,1.085l-0.061,1.023l-0.31,0.61
		l-0.483-0.311l-0.533-0.094l-1.073,0.054v0.351l0.494,0.09l1.001-0.138l0.423,0.048l0.48,0.405l0.323,0.542l0.346,0.425
		l0.558,0.056v0.319l-0.647,0.682l-2.297-0.481l-0.872,0.532l-0.806-0.963l-0.242-0.549l-0.722-2.695l-0.104-0.829l0.166-0.6v-0.351
		l-0.474-0.678l-0.301-0.266l-0.366-0.109l0.353-0.414l0.216-0.366l0.362-0.978l0.129-0.543l0.066-0.446l0.138-0.302l0.359-0.113
		l0.205-0.711l-0.328-1.567l-0.741-2.335l0.548-0.412l1.268-0.635l0.274-0.008l2.489,1.761l-0.237,0.189l-0.196,0.017l-0.537-0.206
		v0.353l0.614,0.122l0.876,0.84l0.618,0.096v0.35l-0.771,0.409l-0.597-0.29l-0.511-0.512l-1.154-0.697l-0.55-0.815l-0.548-0.563
		l-0.636,0.353l0.172,0.168l0.186,0.231l0.149,0.254l0.061,0.233l0.085,0.437l0.203,0.099l0.251-0.027l0.222,0.05l0.672,0.319
		l0.113,0.109l0.352,0.625l0.418,0.208l0.859,0.015L364.281,220.979z M363.729,212.839l-0.048,0.225l-0.012,0.038l-0.035-0.008
		l-0.113,0.099l0.238,0.215l0.23-0.038l0.237-0.12l0.263-0.057l0.19,0.088l0.761,0.617l-0.174,0.32l-0.379-0.232l-0.631,0.583
		l-0.525,0.036l0.149,0.509l0.238,0.2l0.647-0.002l0.401,0.16l0.221,0.349l-0.037,0.353l-2.41,0.717l-0.729-0.17l-2.167-1.342
		l-0.319-0.602l0.137-0.968l0.374-0.804l0.547-0.489l0.652-0.032l0.326,0.251l0.343,0.114l0.343-0.063l0.317-0.301l0.165,0.24
		l0.222,0.126l0.272,0.032L363.729,212.839z M397.096,219.892l-0.306-0.436l-0.048-0.863l0.224-3.323l0.207-0.858l0.448-0.41
		l0.803-0.103v-0.352l-0.193-0.246l-0.152-0.27l-0.224-0.546l0.312-0.327l0.279-0.027l0.564,0.354v-0.39l-0.396-0.704l0.249,0.07
		l0.211,0.139l0.17,0.215l0.13,0.28l-0.117,0.788l-0.454,1.522l-0.407,1.79l0.027,1.58l0.216,0.382l0.384,0.851l0.156,0.846
		l-0.472,0.388l-0.456,0.182l-0.44,0.334l-0.448,0.174l-0.477-0.306l0.075-0.371l0.045-0.151L397.096,219.892z M399.772,211.037
		l-0.43-0.232l-0.174-0.548l0.075-0.692l0.323-0.65l-0.122-0.137l-0.008-0.051l-0.06-0.201l0.19-0.312l0.196-0.22l0.188-0.038
		l0.187,0.249l-0.357,2.001L399.772,211.037z M367.463,204.029l0.412,0.03l0.611,0.013l0.515,0.296l0.251,0.645l-0.289,0.292
		l-0.471,0.875l-0.19,0.218l-0.387-0.072l-0.279-0.364l-0.213-0.404l-0.182-0.19l-0.309-0.114l-0.632-0.628h-1.245v0.387
		l0.324,0.032l0.195,0.11l0.031,0.212l-0.167,0.326v0.387l0.804-0.061l0.246,0.245l0.09,0.704l0.192,0.469l0.452,0.019l0.891-0.311
		l-0.545,1.134l-0.678,0.488l-1.626,0.15l-0.204,0.076l-0.403,0.258l-0.17,0.017l-0.194-0.209l-0.245-0.684l-0.13-0.167
		l-0.366,0.101l-1.174,0.958v0.388h2.004l1.635-0.483l0.559,0.095l0.474,0.184l0.18,0.177l0.105,0.348l-0.094,0.325l-0.564,1.092
		l-1.159-0.084l-0.574,0.097l-0.458,0.373l-0.451-0.348l-0.973,0.08l-0.496-0.118l-0.262-0.183l-0.105-0.126l-0.32-0.614
		l-0.097-0.283l-0.129-0.281l-0.224-0.251l0.24-0.025l0.537-0.363l-0.917-0.084l-1.68-1.112l-0.856-0.215l-0.19,0.331l-0.187,0.232
		l-0.194,0.11l-0.222-0.046l-0.345-0.222l-0.449-0.184l-1.263-0.931v-0.355l0.629-0.446l0.435-0.892l0.377-1.032l0.458-0.859
		l0.591,0.337l1.898-0.337v0.356l-0.217,0.034l-0.542,0.322l0.497,0.673l0.827-0.838l0.876-1.283l0.648-0.648v0.322l-0.17,0.182
		l-0.13,0.214l-0.268,0.667l1.52,0.643l0.589,0.068v-0.355l-0.186-0.046l-0.385-0.309l0.592-0.26l1.305-0.993l0.761-0.131
		l0.349,0.487l0.105,0.485l-0.171,0.434l-0.489,0.334l0.453,0.288l0.842-0.444L367.463,204.029z M383.192,219.892l-0.457,0.401
		l-2.558-0.883l-0.653-0.437l-0.523-0.63l-0.213-0.739l-0.258-1.345l-1.155-0.883l-0.297-1.157h1.71l-0.387-0.451l-0.248-0.556
		l-0.053-0.623l0.206-0.653l0.374-0.563l0.289-0.145l0.264,0.171l1.472,2.187l0.173,0.474l0.257,0.324l0.503,0.402l0.368,0.082
		l-0.16-0.648v-0.32l0.119-0.101l0.114-0.164l0.13-0.086l-0.479-0.594l-0.075-0.114l-0.079-0.171l-0.251-0.373l-0.05-0.2
		l0.068-0.223l0.256-0.107l0.057-0.179l0.221-0.253l0.496,0.063l0.821,0.382l-0.274-0.938l-0.707-0.82l-0.849-0.57l-0.693-0.184
		l0.367-0.513l0.294-0.771l0.059-0.743l-0.322-0.45v-0.391l0.575,0.008l0.394,0.395l0.315,0.469l0.614,0.416l0.107,0.427
		l0.043,0.477l0.077,0.325l0.265,0.329l0.19,0.152l1.295,0.726l0.301,0.274l0.315,0.481l0.394,0.438l0.369-0.042l0.389-0.202
		l0.47-0.034l-0.632,1.543l0.277,0.084l0.596-0.771l0.329-1.016l0.37,0.192l2.116,2.829v-0.352l-0.136-0.175l-0.144-0.337
		l-0.118-0.196l0.016-0.71l-0.387-0.655l-0.958-1.145l-0.462-1.084l0.103-0.528l0.374-0.515l0.35-1.058l-0.336,0.057l-0.318-0.055
		l-0.272-0.142l-0.198-0.215l0.122-0.71l-0.146-0.419l-0.234-0.302l-0.139-0.345l-0.032-0.616l0.062-0.178l0.19-0.057l1.114-0.724
		l0.187-0.201l0.241-0.625l0.164-0.629l0.204-0.362l0.355,0.165l0.214-0.089l0.089-0.076l0.094-0.191l0.241,0.544l0.248,0.331
		l0.652,0.546l0.262,0.358l0.679,1.168l0.095,0.247l1.243,1.066l0.532,0.691l0.292,0.507l0.125,0.431l0.256,3.607l0.266,1.551
		l0.049,0.714l-0.075,0.773l-0.251,1.174l-0.052,0.698l-0.154,0.391l-0.734,0.723l-0.254,0.475l0.337-0.334l0.462-0.338l0.491-0.177
		l0.419,0.143l0.24,0.53l-0.156,0.492l-0.294,0.424l-0.168,0.315l0.136,0.854l0.403,0.531l0.419,0.382l0.18,0.378l-0.205,0.457
		l-0.938,0.568l-0.378,0.352l2.384-0.321l0.634,0.182l0.12,0.421l-0.328,0.469l-0.702,0.335v0.352l0.759-0.082l0.611-0.314
		l0.568-0.073l0.618,0.641l0.266,0.205l0.368,0.044l0.704-0.073l0.414,0.205l0.263,0.465l0.186,0.483l0.181,0.287l0.401,0.042
		l0.248-0.243l0.167-0.331l0.153-0.201l1.155,0.05l0.794-0.804l0.777-0.289l0.817,0.006l0.464,0.651h2.072l-0.46,1.277l0.011,0.335
		l0.122,0.556l-0.108,0.502l-0.214,0.414l-0.564,0.777l-1.012,0.859l-0.419,0.223l-1.105,0.113l-0.193,0.347l-0.05,1.133
		l-0.267,0.701l-0.586,0.475l-0.59,0.331l-0.266,0.257l-0.22,0.39l-1.635,2.316l-0.447,0.456l-0.515,0.362l-1.483,0.293
		l-0.392-0.179l-0.266-0.666l0.087-0.883l0.752-1.114l-0.078-0.45v-0.35l0.166-0.113l0.079-0.144l0.118-0.475l0.085-0.225l0.19-0.25
		l0.508-0.976l0.251-0.342l0.312-0.305l2.677-1.37v-0.351l-0.768,0.426l-0.777,0.23l-2.375,0.046l-0.152-0.132l-0.039-0.307
		l-0.007-0.359l-0.063-0.286l-0.659-1.123l-0.36-0.458l-0.328-0.176l0.118,0.542l0.122,0.406l0.331,0.809l-0.294,0.752l-0.188,0.357
		l-0.279,0.292l0.19,0.38l-0.341,0.418l-0.232,0.572l-0.257,0.511l-0.411,0.223l-0.357-0.398l-0.16-0.914l-0.112-1.04l-0.047-0.771
		l-0.224-0.282l-0.153-0.073l-0.156,0.105l-0.224,0.251l-0.204-0.32l-0.226-0.224l-0.247-0.127l-0.274-0.031v0.32l0.403,0.416
		l-0.482,0.33l-3.929,1.036v-0.38l0.316-0.28l0.842-1.122v-0.32l-0.517-0.021l-0.495,0.128l-0.47,0.251l-0.435,0.345l-0.532-0.834
		l-0.419-0.953l0.303-0.138l0.262-0.188l0.216-0.276l0.17-0.416l-1.275,0.121l-0.467-0.144l-1.316-1.765l-0.07-0.172l-0.138-0.486
		l-0.086-0.222l-0.143-0.22l-0.122-0.124l-0.1-0.172l-0.084-0.365l1.279-0.923l0.55-0.248l0.623,0.113l0.492,0.441l0.496,0.616
		l0.581,0.533l0.744,0.172l-0.361-0.683l-1.745-1.462l-0.36-0.447l-0.185-0.16l-0.319-0.063l-0.311,0.065l-0.605,0.258l-0.345-0.004
		l0.398-0.319v-0.386l-0.222-0.046l-0.538-0.306l0.2-0.076l0.082-0.076l0.079-0.202l-0.256-0.134l-0.187-0.277l-0.054-0.422
		l0.136-0.574l-0.414,0.114l-0.55,0.693l-0.367,0.248l0.141-0.454l0.03-0.481l-0.1-0.465l-0.262-0.393l-0.231,0.679l-0.319,0.223
		l-0.326,0.132l-0.262,0.406l-0.045,0.592l0.307,0.943L383.192,219.892z M364.868,201.075l1.182-1.304l0.528-0.121l0.256,0.558
		l-0.501,0.581l-0.805,0.375L364.868,201.075z M325.958,194.629l0.437,0.355l1.008,0.143l0.469,0.249l-0.465,0.593l-0.61,0.147
		l-0.551-0.417L325.958,194.629z M369.823,191.025l-0.097,0.59l-0.197,0.347l-0.288,0.164l-0.385,0.038l0.063-0.435l0.008-0.109
		l-0.031-0.026l-0.041-0.183l1.157-1.134l0.618-0.294l0.505,0.358l0.009,1.129l-0.337,0.207L369.823,191.025z M374.59,174.473
		l0.29,0.017l0.091-0.017v-0.331l-0.351-0.198l-0.281-0.501l-0.109-0.6l0.172-0.536l0.525,0.232l0.897,1.035l0.288-0.183
		l0.249,0.265l0.213,0.323l0.173,0.387l0.126,0.469h-2.283V174.473z M372.311,199.293l-0.511,0.547l-0.203-0.089l-1.415-1.687
		l-0.271-0.161l-1.684-2.139l-0.303-0.23l-0.126-0.376l-0.204-0.402l-0.012-0.321l0.435-0.132l0.346,0.072l0.233,0.242l0.15,0.434
		l0.109,0.648l2.28-2.144l0.349-0.585l0.628-0.206l1.338,0.049l-1.346-1.043v-0.358l1.418-0.833l0.832-0.194l0.83,0.194l0.546,0.445
		l-0.267-0.26l-0.269-0.228l-0.224-0.2l-0.093-0.147l-0.08-0.173l0.524-0.345l0.22-0.045v-0.358h-1.613l-0.382-0.173l-0.729-0.762
		l-0.419-0.173l-1.605,0.077l-0.738-0.282l-0.231-0.835l-0.353,0.299l-0.238-0.008l-1.307-1.008l0.448-0.38l0.329-0.444l0.363-0.314
		l0.553,0.028v-0.323l-0.084-0.118l-0.02-0.049l-0.013-0.066l-0.058-0.158l0.844-0.135l0.909-0.327l1.686-0.975l-2.618,0.732
		l-0.821-0.013l0.128-0.481l0.219-0.255l0.284-0.066l0.32,0.083v-0.327h-0.776l0.254-0.173l0.216-0.238l0.176-0.308l0.13-0.387
		l-1.209,0.886l-0.224,0.026l-0.816-1.713l-0.22-0.279l0.146-0.628l-0.157-0.231l-0.243-0.116l-0.126-0.283l0.085-0.669l0.314-0.463
		l-0.018-0.521l0.24-0.09l0.111-0.124l0.07-0.191l0.129-0.283l-0.202-0.09l-0.199-0.212l-0.15-0.09v-0.326l2.089-0.137l0.571-0.253
		l-0.73-0.344l-0.292-0.286l-0.119-0.634l0.06-0.649l0.164-0.355l0.537-0.652l0.411,0.323l1.08,0.594l0.217,0.032l0.207-0.181
		l1.522,0.707v0.361l-0.828-0.056l0.186,0.748l0.577,0.902l0.35,0.404l-0.035,0.811l0.286,1.098l0.422,1.001l0.369,0.527
		l-0.051-0.474l-0.012-0.291l0.063-0.708l-0.195-0.335l-0.417-0.921l-0.165-0.515l0.279-0.2l0.1-0.38l0.035-0.367l0.088-0.163
		l1.236-0.314l0.275-0.228l0.465-0.142l0.72,0.363l0.669,0.664l0.329,0.767l0.76-1.11l-0.695-0.436l-0.238-0.286l-0.109-0.322
		l-0.16-0.823l-0.129-0.297l-0.163-0.067l-0.411,0.116l-0.168-0.049l-0.052-0.136l-0.106-0.477l-0.048-0.142l-0.319-0.478
		l-0.138-0.263l-0.116-0.312l0.142-0.103l0.112-0.129l0.131-0.105l0.188-0.022l-0.145-0.383l-0.131-0.25l-0.182-0.112l-0.302,0.019
		l2.271-2.041l0.595-0.85l0.34,0.201l0.206-0.136l0.174-0.259l0.231-0.168h0.948l0.742-0.224l1.758-0.945l0.25-0.225l0.7-0.955
		l4.945-3.849l1.372-1.813l0.804-0.787l0.673,0.056l0.562,0.626l0.491,0.955l0.352,1.022l0.132,0.848l0.501,0.857l0.087,0.558
		l-0.503,0.251l-0.207,0.3l-0.638,2.203l0.234,0.343l0.316,0.259l0.37,0.138l0.411-0.015v0.395l-0.594,0.302l-1.249,0.953
		l-0.453,0.522l0.139,0.468l-0.04,0.349l-0.206,0.222l-0.362,0.077l-0.329,0.168l-0.266,0.747l-0.824,0.334l-0.058,0.39l0.083,0.465
		l-0.039,0.394l-0.254,0.262l-0.307,0.112l-0.769,0.019l0.512,0.852l1.026,0.323l1.112-0.077l0.77-0.346l1.347-1.473l0.419-0.245
		l0.519-0.181l0.29,0.032l-0.259,0.394v0.329h0.171l-0.13,0.258l-0.132,0.329l-0.116,0.168l0.072,0.193l0.135,0.527l-0.735,0.363
		l-0.245,0.18l-0.193,0.238L393,175.767l-0.102,0.15l-0.507,0.273l-0.386-0.062l-0.815-0.571l-0.469-0.163l-1.242,0.163
		l-0.464-0.163l-0.829-0.546l-0.434-0.013l0.647,1.923l0.303,0.603l-0.233,0.234l-0.098,0.213l0.021,0.264l0.12,0.399l-0.494,0.397
		l-1.406,0.324l-0.932,1.168l-0.416,0.27l-0.263-0.017l-0.426-0.302l-0.262-0.039l-0.76,0.718l-1.449,0.4l-0.451-0.041v0.36
		l1.06,0.03l3.616-0.878l0.854-0.525l0.377-0.064l0.363,0.268l0.282,0.527l0.148,0.67l-0.034,0.687l0.113,0.09l0.267,0.302
		l-0.211,0.295l-0.229,0.212l-0.245,0.133l-0.266,0.047l0.3,0.225l0.328,0.128l0.35,0.045l0.352-0.038l-0.515,0.599l-0.393,0.594
		l-0.439,0.453l-0.657,0.179l-2.609-0.459l-0.586-0.244l-0.156-0.013l-0.161,0.391l0.236,0.231l0.598,0.256l0.435,0.436l0.987,0.295
		l0.394,0.542v0.359l-0.265,0.213l-0.451,0.832l-0.236,0.352l-0.498,0.371l-0.35-0.032l-0.354-0.201l-0.507-0.139v0.39l0.122,0.094
		l0.131,0.156l0.126,0.109v0.39l-0.622,0.32l-0.519-0.105l-0.429-0.401l-0.348-0.563l-0.24-0.71l-0.153-0.282l-0.262-0.115
		l-0.143,0.269l0.15,0.595l0.267,0.633l0.208,0.358l-0.19,0.326l-0.885-0.456l-0.272-0.26l-0.145-0.269l-0.174-0.644l-0.762-1.575
		l-0.221-0.701l-0.045-0.752l0.41-1.377l0.802-0.766l1.012-0.33l1.042-0.073v-0.327h-2.679v0.327l-0.122,0.597l-0.65,0.84
		l-0.792,0.761l-0.543,0.346l0.366,0.573l0.578,1.576l0.309,0.327l0.396,0.186l0.32,0.427l0.273,0.488l0.263,0.365l-0.15,0.102
		l-0.114,0.137l-0.139,0.113l-0.2,0.038l0.187,0.335l0.24,0.151l0.222,0.077l0.127,0.121l0.074,0.352l0.117,1.112l-2.28-0.573
		l-0.967-0.567l-0.26,0.17l-0.15,0.266l-0.138,0.332l-0.229,0.371l0.315,0.215l0.596,0.26l0.246,0.174l0.649,1.196l0.112,0.294
		l-0.146,0.415l-0.38,0.262l-0.498,0.098l-0.494-0.06v0.357h0.206v0.325l-0.62-0.102l-1.295-0.969l-0.193,0.389l0.152,0.121
		l0.231,0.368l0.188,0.193l-0.308,0.51l-0.306,0.344l-0.734,0.601l0.134,0.102l0.136,0.157l0.127,0.098l-0.575,0.597
		L372.311,199.293z M483.674,141.256l1.28,0.103l0.649,0.317l-0.047,0.652l-0.785,0.514l-0.163,0.216l-0.048,0.481l0.15,0.367
		l0.05,0.312l-0.344,0.308l0.305,0.911l0.121,0.722l-0.189,0.554l-0.615,0.41l-1.331-1.432v-0.399l0.374-0.387l-0.292-0.808
		l-0.858-1.373l0.328,0.241l0.35,0.083l0.346-0.083l0.325-0.241v-0.398h-1.902v-0.337l1.073-0.481L483.674,141.256z
		 M475.453,143.826l0.832-0.059l1.624-0.791l0.791,0.083l-0.685,1.058l-1.38,0.415l-2.598-0.004l-0.138-0.253l-0.534-1.379
		l-0.12-0.472l-0.274-0.302l-0.322-0.243l-0.252-0.254l-0.571-1.099l-0.031-0.306l0.109-0.232l0.068-0.236l-0.146-0.329l-0.194-0.07
		l-0.331,0.315l-0.131-0.061l-0.268-0.232l-0.284,0.053l-0.222-0.044l-0.088-0.545l0.414-1.052l0.059-0.204l0.643-0.645l1.221-0.447
		l0.34-0.009l0.426,0.272l0.953,0.954l0.616,0.21l0.539,0.316l1.472,2.293l-0.395,0.333v0.398l0.329,0.031l0.231,0.158l0.404,0.547
		v0.337l-0.531,0.074l-0.659,0.236l-0.59,0.459L475.453,143.826z M489.944,134.204l0.391,0.217l0.166,0.426l0.04,0.621l-0.009,0.81
		l-0.229,0.375l-0.529,0.287l-1.063,0.239l-0.363,0.27l-0.64,1.223l-0.44,0.348l-0.431-0.059l-2.106-0.887l-0.328-0.309l-0.29-0.452
		l-1.012-2.188l-0.211-0.34l-0.35,0.07l-0.391,0.527l-0.446,0.461l-0.516-0.136l-0.283,0.228l-0.256-0.033l-0.276-0.132
		l-0.358-0.064l0.396,0.772l-0.861-0.077l-0.333,0.187l-0.135,0.59l-0.685-0.296l-1.673,0.285l-0.699-0.689l-0.296-1.198
		l0.088-1.168l0.335-1.015l0.443-0.741v-0.336l-0.205-0.334l-0.159-0.358l-0.118-0.383l-0.089-0.398l-0.302,0.185l-0.197,0.251
		l-0.039,0.306l0.174,0.363v0.37l-0.263-0.172l-0.245-0.073l-0.231,0.059l-0.231,0.185l0.256,0.224l0.099,0.336l-0.028,0.424
		l0.055,0.09l0.142,0.705l-0.233,0.494l-0.669,0.674v0.34l-0.941-0.367l-0.836-1.384l-0.374-1.798l0.442-1.619l0.19-0.365
		l-0.173-2.446l0.735-1.597l1.239-0.874l1.342-0.265l1.345,0.068l0.739,0.267l0.962,0.991l0.369-0.013l0.344-0.17l0.317-0.035
		l0.288,0.229l0.438,0.651l0.258,0.199l-0.4,0.331l-0.188,0.04l0.525,0.602l1.584,0.912l-0.205,0.084l-0.087,0.082l-0.088,0.2
		l0.122,0.115l0.133,0.159l0.126,0.097l-1.647,0.674l-0.254-0.119l-0.233,0.867l-0.549,0.794l-0.64,0.57l-0.495,0.169l0.418,0.372
		l0.539,0.224l1.046,0.143l0.421-0.356l0.428-0.666l0.48-0.383l1.044,0.989l0.392-0.112l0.368-0.345l0.391-0.202l0.439,0.277
		l0.299,0.519l0.311,0.299l0.472-0.389l-0.059,0.251l-0.082,0.631l-0.053,0.259l0.574,0.123l0.475-0.294l0.459-0.4l0.506-0.2
		l0.635-0.046l0.265,0.105l0.146,0.343l-0.181,0.54l-1.13,0.83l-0.419,0.441l0.315,0.7l0.398,0.445l0.477,0.165l0.54-0.14
		l-0.391-1.143l-0.182-0.367l0.512-0.044l0.933-0.63L489.944,134.204z M495.11,126.107l-0.18,0.624l0.169,0.329l0.769,0.496
		l-0.497,0.555l-1.208,0.189l-0.592,0.366l-0.06-1.223l-0.414-0.615l-0.558-0.075l-0.485,0.399l0.075,0.853l-0.6,0.216l-0.428-0.414
		l0.573-1.025l0.418-0.199l0.436-0.053l0.345-0.201l0.129-0.627l-0.18-0.318l-0.86-0.945l-0.288-0.214l1.109-0.391l0.392,0.053
		v0.338l-0.092,0.166l-0.082,0.203l0.771-0.024l0.337,0.09l0.238,0.269l-0.36-0.095l-0.293,0.294l-0.065,0.49l0.322,0.488
		l0.335,0.093l0.359-0.108l0.652-0.388l0.015,0.278l-0.049,0.071l-0.078-0.009L495.11,126.107z M482.232,125.704l-0.881-0.06
		l-0.811-0.245l-0.729-0.499l-0.636-0.843l-0.161-0.99l0.502-0.743l0.785-0.394l0.696,0.035l0.031,0.106l0.05,0.219l0.104,0.245
		l0.195,0.172l0.179,0.044l0.203,0.002l1.141-0.278h0.36l0.415,0.232l0.014,0.272l-0.039,0.077l-0.081,0.002l-0.1,0.051
		l-0.468,0.672l0.087,0.861l-0.034,0.746L482.232,125.704z M487.094,121.966l0.355,0.305l0.283-0.031l0.274-0.175l0.315-0.1
		l0.029-0.19l-0.149-0.938l0.032-0.358l-0.077-0.695l0.111-0.558l0.291-0.31l0.455,0.044v0.407h-0.21v0.368l0.367-0.084l0.328,0.071
		l0.263,0.259l0.182,0.498l-0.182,0.471l-0.616,0.949l-0.132,0.27v0.858l0.06,0.711l0.219,0.442l0.462,0.046v0.369l-0.822,0.313
		l-0.482,0.066l-0.216-0.212l-0.095-0.722l-0.252-0.517l-0.366-0.312l-0.426-0.102V121.966z M497.77,116.732l0.597-0.949
		l0.387-0.466l0.171,0.144l0.262,1.16l0.084,0.523l-1.317,0.071l-0.533,0.275l-0.222,0.594l-0.303,0.297l-0.544,1.282l-0.198,0.317
		l-0.285,0.161l-0.042-1.182l-0.469,0.053l-1.216,1.468l0.14-0.564l0.066-0.179v-0.368l-0.534,0.323l-0.228-0.026l-0.205-0.297
		l-1.031,1.45l-0.574,0.591l-0.485-0.153l-0.072,0.736l-0.161,0.336l-0.138-0.115l-0.009-0.619l0.138-0.776l0.194-0.281l0.264-0.119
		l0.354-0.277l0.253-0.356l0.461-0.833l0.238-0.328l0.334-0.177l0.274,0.007l0.2-0.186l0.124-0.758l-0.154-0.166l-0.414-0.612
		l0.664-0.007l1.126-0.685l0.699-0.053v0.406l-0.413,0.266l-0.413,0.379l-0.695,0.878l0.208,0.062l0.085,0.075l0.085,0.202
		l0.323-0.312l0.914-0.191l0.734-0.82l0.423-0.075l0.446,0.005L497.77,116.732z M480.997,115.275l-0.265-0.175l-0.231,0.016
		l-0.177-0.1l-0.103-0.519l0.578-0.013l0.889,0.213l0.449-0.2l0.775-1.146l0.421-0.32l0.515,0.382l0.009,0.238l-0.036,0.055
		l-0.07-0.004l-0.077,0.049l-0.306,0.409l-0.016,0.266l0.116,0.479l-0.573,0.035l-0.19-0.035v0.371l2.177,0.694l0.391,0.222
		l0.528,1.419l0.155,0.306l0.316,0.206l0.299,0.04l0.274,0.093l0.249,0.37v0.337l-0.557-0.002l-0.336,0.268l-0.645,0.914l0.037-0.48
		l0.05-0.37l0.107-0.321l0.207-0.345l-1.373-1.354l-0.754-0.439l-0.759-0.1v0.406l0.136,0.2l0.263,0.578l-0.399-0.406l-0.215,0.481
		l-0.202,0.155l-0.227-0.058l-0.289-0.173l-0.194-0.195l-0.143-0.297l-0.401-1.137l-0.057-0.299l-0.09-0.288L480.997,115.275z
		 M519.894,103.832l0.212-0.916l0.513-0.558l0.623-0.244l0.549,0.016l0.02,0.266l-0.041,0.078l-0.071,0.005l-0.082,0.062
		l-0.398,0.085l-0.125,0.197l-0.063,0.431h0.38v0.409l-0.463,0.299l-0.497,0.527l-0.396,0.158L519.894,103.832z M544.011,43.247
		l0.429,0.111l0.3,0.318l0.1,0.489l-0.165,0.63l-0.682,0.652l-0.777-0.235l-0.807-0.445l-0.788,0.028v0.422l0.155,0.18l0.083,0.171
		l0.065,0.18l0.095,0.21l-0.761-0.182l-0.607-0.924l-0.932-1.954v-0.42h3.247l0.296,0.162l0.041,0.372l-0.034,0.399l0.061,0.226
		l0.245,0.019l0.188-0.143l0.145-0.175L544.011,43.247z M535.316,54.477l0.251-0.931l0.425-0.65l0.523-0.338l0.543-0.007
		l-0.397,0.975l-1.963,2.369l-0.162,0.426l0.036,0.461l0.173,0.092l0.209-0.27l0.273-0.554l0.16-0.165l0.362-0.266l0.367-0.005
		l0.165,0.612l-0.016,0.314l-0.07,0.58l-0.139,0.565l-0.244,0.252l-2.172,0.24l-0.418,0.179l0.574,0.579l1.402,0.348l0.721,0.572
		l-1.33,1.383l-0.312,0.19l-0.1,0.126l-0.018,0.288l0.041,0.327l0.077,0.235l0.135,0.089l0.203-0.295l0.145,0.03l0.213,0.142
		l0.376,0.062l0.17,0.144l-1.112,1.105l-0.505,0.224l-0.469-0.144l-0.277-0.742l-0.23-0.409l-0.27-0.034l-0.181,0.315l0.028,0.356
		l0.155,0.315l0.205,0.198v0.349l-0.272-0.009l-0.232,0.084l-0.448,0.308v0.347h1.123l-0.181,0.379l-0.149,0.39l-0.238,0.795
		l0.513-0.761l0.275-0.264l0.369-0.118l-0.817,1.873l-0.15,0.833l0.448-0.647l0.594-0.262l0.311,0.28l-0.387,0.977l0.949,0.799
		v0.348h-0.778v0.416h0.207v0.382l-0.462-0.327l-0.281,0.277l-0.294,0.387l-0.498,0.011l0.397,0.416l-0.13,0.464l-0.147,0.259
		l-0.206,0.1l-0.297-0.025v0.343l0.22,0.059l0.56,0.323l-0.475,0.631l0.261,0.74l0.513,0.531l0.271,0.002l-0.149,0.796l-0.42,0.429
		l-0.516,0.097l-0.436-0.179l0.12,0.755l0.625,1.597l-0.24,0.618l-0.405-0.027l-0.876-0.591l0.12,1.148l-0.062,1.174l-0.232,1.045
		l-0.394,0.773l-0.114-0.264l-0.076-0.115l0.222,0.648l0.088,0.612l-0.07,0.643l-0.24,0.749l0.301,0.397l0.077,0.471l-0.112,0.419
		l-0.266,0.257l-0.108-0.273l-0.462-0.861l-0.219,0.573l-0.229-0.068l-0.049-0.419l0.318-0.496v-0.379l-0.419-0.393l-0.874,0.221
		l-0.448-0.239l-0.333-0.684l0.499-0.718l-0.166-0.875l0.231-0.452l0.274-0.273l0.308-0.097l0.328,0.063v-0.312l-0.503-0.62
		l-0.241-0.174v-0.378h0.744l-0.16-0.991l0.298-0.87l0.421-0.94l0.422-2.653l0.408-1.092l0.291-1.109l-0.143-1.514l-0.148-0.225
		l-0.164,0.061l-0.155-0.048l-0.121-0.553l0.02-0.212l0.08-0.28l0.443-1.166l-0.283,0.018l-0.404,0.305l-0.114,0.187l-0.307-0.041
		l-0.089-0.2l0.086-0.469l0.408-1.476l0.22-0.554l0.253-0.445l0.277-0.287v-0.383l-0.534-0.062l-0.408,0.589l-0.77,1.767
		l-0.383-1.302l-0.408-0.944l-0.582-0.586l-0.906-0.228v0.418l0.537,0.274l0.438,0.481l0.379,0.671l0.354,0.834l-0.19,0.802
		l-0.543-0.579l-0.257-0.196l-0.355-0.027l0.015,1.03l-0.196,0.738l-0.251,0.141l-0.14-0.763l-0.336,0.321l-0.115,0.583
		l-0.078,0.619l-0.229,0.423l-0.264-0.021l-1.081-0.778l-0.059-0.116l-0.599-0.69l-0.085,0.043l-0.174-0.515l0.015-0.26l0.16-0.374
		l0.319-0.319l0.838-0.228l0.361-0.18l-0.357-0.28l-0.679-1.184l-0.12,0.452l-0.15,0.764l-0.326,0.522l-0.326,0.08l-0.149-0.561
		l-0.17-0.493l-0.401,0.128l-0.845,0.572l-0.616,0.084l-0.265-0.084l-0.155-0.205l-0.026-0.28l-0.045-0.246l-0.224-0.105
		l-0.568-0.096l-0.235-0.319l-0.267-1.465l-0.301-1.092l0.105-0.324l0.404-0.498l0.403-0.361l0.518-0.295l0.539-0.162l0.457,0.05
		l0.408,0.361l0.308,0.466l0.332,0.34l0.47-0.016l-0.206-0.768l0.969,0.384v-0.384h-0.207v-0.384l1.308-0.169l0.385,0.446
		l0.033,1.675l0.139-0.057l0.312-0.226l0.118-0.137l-0.138-0.311l-0.154-0.594l-0.087-0.242h0.572l-0.077-0.229l-0.116-0.576
		l0.645-0.291l0.735,0.24l0.615,0.754l0.285,1.248l0.389-0.649l0.387-0.498l-0.777-0.805l0.571-1.498l0.193,0.233l0.174,0.08
		l0.411,0.037l-0.35-0.636l0.499-0.179l1.386,0.046l-0.666-0.476l-0.822-0.188l-0.66-0.428l-0.165-1.212l-0.53,0.635l-0.302,0.204
		l-0.307-0.073l-0.294-0.426l-0.1-0.543l0.093-0.539l0.301-0.413v-0.385l-0.868,0.009l-0.375-0.117L525.8,53.67l0.077-0.698
		l-0.051-0.978l-0.219-1.792l-0.374,1.098l-0.291,0.597l-0.285,0.269l-0.431-0.193l-0.097-0.462l0.168-0.531l0.361-0.393
		l-0.56,0.014l-0.46,0.145l-0.427-0.028l-0.454-0.517l-0.253,0.655l-0.404,0.221l-0.965-0.069l-0.075-0.303l0.145-0.66l0.251-0.665
		l0.249-0.301l0.686,0.081l0.158-0.081l0.143-0.391l0.014-0.414l-0.014-0.398l0.063-0.338l0.269-0.543l0.327-0.444l0.361-0.055
		l0.374,0.622l0.344,1.188l0.922,0.959l1.046,0.377l0.919-0.561l-0.315-0.258l-0.417-0.11l-0.702-0.018l-0.201-0.202l-0.245-0.433
		l-0.331-0.41l-0.452-0.111l0.237-0.401l0.378-0.986l0.145-0.196l0.31-0.083l0.849-0.657l-0.288-0.327l-0.109-0.095l0.247-0.408
		l0.068-0.277l-0.044-0.222l-0.085-0.254l0.683-0.341l0.76,0.118l0.754,0.431l0.674,0.6l0.085-0.24l0.105-0.18l-0.486-0.549
		l0.061-0.577l0.627-1.233l0.279,1.131l0.02,0.452l-0.121,0.388l0.082,0.494l-0.04,0.36l-0.156,0.226l-0.266,0.081l0.203,1.302
		l-0.223,0.608l-0.404,0.433l-0.337,0.75h0.572l-0.133,0.278l-0.126,0.097l-0.314,0.044l0.154,0.108l0.091,0.124l0.11,0.104
		l0.217,0.051l-0.572,1.895l0.266-0.055l0.251-0.143l0.232-0.225l0.215-0.313l0.178,0.349l-0.393,0.86l-0.077,0.347l0.09,0.338v0.42
		l-0.536,0.241l-0.663,1.964l-0.513,0.491v0.422l0.354,0.041l0.346-0.05l0.325-0.151l0.289-0.261l-0.037-1.018l0.761-0.578
		l1.763-0.328l-1.318-1.019l-0.391-0.524l0.286-0.427l0.356-0.315l0.279,0.152l0.044,0.942l0.255-0.335l0.568-1.009l0.109-0.372
		l0.26-0.152l0.507,0.317l0.362,0.572l-0.177,0.627l0.346,0.165l0.285,0.287l0.211,0.443l0.125,0.647l-0.145,0.255l-0.045,0.131
		l0.361,0.347l-0.341,0.301l-0.61-0.344l-0.282,0.255l-0.231,0.39l-0.269,0.291l-0.283,0.2l0.095,0.131l0.337-0.09l0.653-0.326
		l-0.11,0.14l-0.288,0.245v0.422l0.947-0.557l0.327,0.234l0.054,1.089h0.207l0.111-0.58l0.093-0.034l0.134,0.083l0.233-0.234
		l0.112-0.337l0.085-0.424l0.129-0.45l0.24-0.404l0.096,0.188l0.044,0.183L535.316,54.477z M538.373,38.559l-0.3,0.687l0.025,0.541
		l0.482,1.102l-0.167,0.612l-0.216,0.582l-0.901-1.069l-0.465-0.402l-0.549-0.076l0.328,0.416l0.383,0.721l0.636,1.574l-0.367,0.286
		l-0.387,0.12l-0.398-0.083l-0.386-0.323l0.136,0.627l0.34,0.364l0.437,0.166l0.435,0.037l-0.054,0.189l-0.007,0.051l-0.146,0.113
		l0.477,0.574l0.009,0.691l-0.328,0.557l-0.538,0.147l0.414,0.974l0.126,0.486l0.048,0.663l-0.085,0.708l-0.221,0.131l-0.661-0.292
		l-0.684,0.037l-0.333-0.143l-0.139-0.442l-0.102,0.028l-0.163,0.225l-0.033,0.338l0.298,0.375v0.349l-0.932-0.214l-0.65-0.697
		l-0.387-1.249l-0.341-5.336l0.241-1.21l0.927-0.185v0.351l-0.083,0.674l0.303,0.672l0.435,0.39l0.308-0.152l-0.087-0.263
		l-0.391-1.498l-0.088-0.774l0.078-0.374l0.264-0.837l-0.068-0.164l-0.156-0.22l-0.025-0.514l0.067-0.585l0.114-0.428l0.276-0.627
		l0.331-0.544l0.34-0.011l0.299,0.989l0.321-0.658l0.574-0.194l1.21,0.113l0.009,0.764l-0.044,0.234l-0.171,0.127v0.424l0.137,0.083
		l0.121,0.167L538.373,38.559z M540.668,39.336l-0.838,0.109l-0.431-0.125l-0.442-0.333l0.135-0.56l0.038-0.535l-0.052-0.484
		l-0.121-0.403l0.489,0.401l0.15-0.458l-0.071-0.813l-0.186-0.686l0.466-0.208l0.266-0.774l-0.001-0.858l-0.352-0.457v-0.425
		l0.438-0.228l0.526-0.562l0.379-0.664l-0.014-0.53l0.265-0.581l0.317-0.009l0.272,0.437l0.115,0.776l-0.115,0.629l-0.274,0.374
		l-0.319,0.316l-0.26,0.466l0.075,0.167l0.34-0.167l0.394-0.318l0.246-0.302l0.594-2.097L542.966,30l0.182,0.274l0.163,0.079
		l0.396,0.039l0.353,0.16l0.305,0.274l0.221,0.455l0.088,0.701l-0.224,0.026l-0.534,0.327l0.541,0.341l0.217,0.049l-0.419,0.487
		l-0.556,0.339l-0.353,0.399l0.189,0.689v0.424l-0.549,0.033l0.19,0.079l0.182,0.116l0.177,0.158v0.429l-1.144,1.184l-0.201,0.333
		l0.195,0.692l0.394,0.632l0.194,0.562l-0.404,0.479l-0.272,0.035l-0.231-0.132l-0.215-0.187l-0.23-0.139l-0.547-0.053
		L540.668,39.336z M390.574,568.881l0.183,0.148l0.224,0.403l-0.093,0.378l-0.272,0.19l-0.331-0.174l0.047-0.596L390.574,568.881z
		 M389.605,567.835l0.156,0.134l0.043,0.32l-0.167,0.324l-0.242-0.132l-0.19-0.494l-0.025-0.352l0.199,0.032l0.138,0.116
		L389.605,567.835z M436.024,514.21l0.041,0.289l0.014,0.542l-0.195,0.211l-0.224-0.309l-0.035-0.6l0.094-0.556l0.145-0.087
		l0.118,0.327L436.024,514.21z M184.9,206.972l-0.025-0.013v-0.034l0.025-0.034h0.051l0.026,0.034v0.015l-0.026,0.032H184.9z
		 M529.249,72.579l0.19-0.023l0.096,0.422l-0.139,0.57l-0.221,0.565l-0.251,0.871l-0.189,0.39l-0.152-0.016l0.028-0.401l0.115-0.581
		l0.02-0.679l-0.042-0.147l-0.033,0.35l-0.071,0.336l-0.431,0.715l-0.391,0.356l-0.054-0.24l0.358-0.503l0.138-0.633l0.125-0.776
		l0.266-0.558l-0.068-0.348l-0.182-0.272l0.036-0.245l0.498-0.136l0.185-0.239l0.148,0.011l0.022,0.507l-0.187,0.743l-0.044,0.273
		L529.249,72.579z M508.71,69.128l0.12,0.469l0.023,1.001l-0.414,0.627l-0.666-0.296l-0.514-0.491l-0.193-0.332l0.054-0.409
		l0.193-0.264l0.432-0.302l0.645-0.102L508.71,69.128z M536.267,68.65l0.343-0.312l0.002,0.382l-0.063,0.803l-0.188,0.603
		l-0.203,0.471l-0.196,1.2l-0.281,0.143l-0.808-0.62l-0.258-0.382l0.083-1.815l-0.456-0.692l0.02-0.601l0.532-0.082l0.508,0.248
		l0.221-0.137l0.088-0.465l0.194-0.103l0.126,0.307l0.05,0.549l0.089,0.492L536.267,68.65z M540.276,56.185l0.17-0.034l0.041,0.252
		l-0.181,0.318l-0.38,0.46l-0.479,0.71l-0.762,0.874l-1.091,0.348l-0.525-0.339l0.144-0.309l0.148-0.213l0.057-0.284l0.143-0.424
		l0.279-0.392l0.311-0.151l0.323-0.037l0.255-0.204l0.191-0.289l0.983-0.096l0.292-0.103L540.276,56.185z"/>
</g>
<g id="Copyright">
	<text transform="matrix(1 0 0 1 681.6426 577.5916)" class="st1 st2"> Vemaps.com</text>
</g>
</svg>
