<?xml version="1.0" encoding="utf-8"?>
<!-- Generator: Adobe Illustrator 23.0.1, SVG Export Plug-In . SVG Version: 6.00 Build 0)  -->
<svg version="1.1" xmlns="http://www.w3.org/2000/svg" xmlns:xlink="http://www.w3.org/1999/xlink" x="0px" y="0px"
	 viewBox="0 0 800 600" style="enable-background:new 0 0 800 600;" xml:space="preserve">
<style type="text/css">
	.st0{fill:#808080;stroke:#FFFFFF;stroke-width:0.5;stroke-linecap:round;stroke-linejoin:round;}
	.st1{font-family:'Roboto-Regular';}
	.st2{font-size:14px;}
</style>
<g id="Uruguay">
	<path class="st0" d="M173.734,286.606l0.001-0.008l0.036-0.259l0.911-1.2l2.334-4.912l5.911-8.63l0.473-3.354l-0.969-3.216
		l-6.374-8.571L175,254.121l0.53-2.255l2.059-3.404l0.979-4.257l0.28-4.954l-0.347-4.696l-0.911-3.444l-2.941-3.363l-1.148-2.215
		l0.617-2.26l2.555-2.918l1.471-1.101l2.054-0.897l4.422-0.885l2.257-0.908l0.969-1.577l5.622-16.926l0.844-4.824l-0.675-4.89
		l-2.473-3.123l-2.393-1.859l0.301-0.166l1.524-0.781l1.401-0.396l1.473,0.192l1.615,0.424l1.039-0.034l0.48-0.074l0.113-0.085
		l0.017-0.062l0.101-1.046l0.099-0.577l0.301-0.413l0.434-0.271l3.452-0.876l0.735-0.017l0.96,0.164l2.461,0.95l6.172,3.495
		l0.81,0.718l0.328,0.407l0.265,0.475l1.191,3.853l0.207,0.504l0.263,0.475l0.345,0.419l0.427,0.34l0.477,0.277l0.67,0.255
		l13.73,3.012l6.666,3.448l3.139,2.237l0.996,0.572l2.23,0.872l2.259,0.317l2.637,0.091l1.719,0.408l0.967,0.391l0.446,0.453
		l2.037,3.174l0.689,0.799l1.263,1.021l2.11,1.026l7.399,2.143l1.017,0.533l3.445,2.677l1.085,0.289l7.883,0.965l1.203,0.357
		l0.832,0.006l0.902-0.142l1.285-0.471l0.716-0.391l0.571-0.403l0.403-0.346l0.583-0.199l0.706-0.023l4.103,1.577l1.926,0.465
		l1.07-0.04l8.069-1.764h1.119l1.581,0.238l0.892,0.272l0.663,0.323l1.825,1.237l0.571,0.21l0.639,0.119l3.901,0.034l1.032,0.148
		l0.772,0.227l4.711,3.008l1.189,0.386l0.651,0.102l4.81,0.17l6.62,2.021l0.598,0.068l1.015-0.028l1.531-0.273l1.234-0.409
		l0.513-0.392l0.451-0.5l0.465-0.925l0.183-0.528l0.263-1.232l0.586-0.823l2.847-3.058l0.82-1.112l0.509-0.93l0.181-0.618
		l1.401-1.061l4.92-1.293l3.055,3.686l0.449,0.964l0.398,1.084l0.036,0.721l-0.145,2.389l0.101,2.577l0.222,0.874l0.272,0.67
		l2.228,2.788l0.352,0.665l0.193,0.693l-0.068,0.784l-0.224,0.545l-0.335,0.324l-0.405,0.136l-0.791,0.136l-0.991,0.352
		l-0.475,0.273l-0.415,0.341l-0.309,0.778l-0.215,1.114l0.036,4.684l-0.058,0.762l-0.002,0.017l-0.395,4.669l-0.62,2.298l-0.48,1.11
		l-1.073,1.952l-0.441,1.298l-2.686,12.251l-0.682,1.938l-2.818,3.312l-3.129,2.937l-3.472,2.55l-2.751,2.539l-1.567,2.42
		l-4.981,15.029l-2.985-1.589l-1.266-0.852l-5.125-4.337l-0.991-0.6l-5.111-1.582l-1.615-0.211l-0.658,0.034l-1.15,0.28
		l-0.914,0.063l-1.222-0.097l-3.621-0.685l-0.991-0.069l-2.339,0.548l-2.02,0.12l-2.061-0.126l-2.278-0.543l-2.944-1.804
		l-5.099-2.358l-1.401-0.36l-1.025-0.103l-0.475,0.177l-0.945,0.525l-1.76,1.319l-0.935,0.531l-0.518,0.223l-1.213,0.223
		l-5.921,0.08l-0.868,0.188l-0.996,0.485l-6.102,4.444l-0.704,0.314l-0.904,0.274l-1.683,0.269l-0.931-0.097l-0.882-0.28
		l-2.006-0.903l-0.8-0.069l-0.663,0.103l-1.422,0.834l-1.606,0.577l-2.425,0.417l-0.892-0.052l-3.346-0.583l-1.242-0.057
		l-0.938,0.086l-0.487,0.257l-0.834,0.674l-0.743,0.783l-0.294,0.394l-0.863,0.823l-0.439,0.24l-2.201,0.703l-0.521,0.223
		l-0.412,0.343l-0.347,0.423l-0.451,0.892l-0.089,0.223l-0.036,0.074l-0.605,1.589l-0.28,0.515l-0.665,0.875l-0.386,0.406
		l-0.914,0.635l-16.213,2.448l-0.419,0.355l-0.299,0.469l-0.251,0.543l-0.152,0.652l-0.33,2.226l-0.441,0.607l-0.658,0.612
		l-1.398,0.653l-0.846,0.086l-0.694-0.143l-0.492-0.298l-8.173-0.841l-1.138-0.258l-0.931-0.641l-1.946-0.561l-2.213-0.24
		l-1.121-0.263l-0.735-0.32l-0.26-0.343l-0.116-0.235l-0.583-1.911l-0.497-0.973l-0.311-0.44l-0.398-0.36l-2.035-1.115l-0.448-0.326
		l-0.412-0.36l-2.526-2.996l-0.015-0.023l-0.306-0.354l-0.424-0.36l-0.607-0.389l-1.037-0.446l-0.791-0.143l-4.769,0.28
		l-2.724,0.509l-0.015,0.003l-0.556-2.441L173.734,286.606z"/>
	<path class="st0" d="M228.636,39.289l2.319,2.276l1.808,5.648l2.936,1.954l2.334,0.246l4.084-0.737l2.247-0.045l1.244,0.648
		l1.398,2.189l1.451,0.369l0.921-0.458l2.126-1.91l1.191-0.569l1.823,0.078l1.172,0.771l1.003,0.916l1.355,0.547l0.733-0.279
		l1.157-1.407l0.545-0.279l0.738,0.38l1.157,1.273l0.468,0.313l3.028-0.648l2.695-2.144l1.856-3.048l0.511-3.393l0.699-2.756
		l1.987-3.491l2.546-3.111l2.348-1.628l0.921,0.078l1.745,0.836l0.993,0.011l1.827-0.959l0.656-0.245l3.423-0.646L289.953,30
		l4.494,1.26l3.467-0.602l3.539-0.1l3.37,2.352l1.731,2.922l0.897,1.126l5.805,3.994l2.895,1.395l1.579,1.083l1.403,1.362
		l0.858,1.462l0.309,2.188l-0.294,1.128l0.101,0.704l1.488,0.938l0.952,0.246l0.894-0.022l0.914,0.123l1.008,0.637l0.504,0.603
		l0.824,1.352l3.455,3.978l1.162,0.939l1.562,1.442l4.971,3.186l1.553,1.599l2.257,3.825l1.35,1.824l1.249,1.097l4.298,2.429
		l5.465,4.635l3.067,1.545l1.866,1.792l2.946,3.54l0.53,1.188l0.248,1.143l0.407,1.054l1.042,0.885l1.803,1.177l0.805,0.774
		l0.62,0.908l3.093,6.057l1.403,1.762l6.111,4.983l1.497,2.998l0.593,3.257l-0.458,3.224l-1.632,2.956l-0.388,2.361l-0.077,7.13
		l-0.564,4.974l0.019,2.353l0.482,0.779l-0.089-0.069l-3.479-2.719l-0.738-0.754l-0.938-1.3l-0.692-0.777l-2.382-2.053l-1.07-1.277
		l-1.401-2.272l-0.665-0.832l-1.917-1.664l-1.528-0.939l-0.612-0.236l-14.812-3.266l-5.183-1.905l-0.745-0.185l-0.931-0.129
		l-1.69,0.169l-0.921,0.219l-0.665,0.332l-0.362,0.393l-0.323,0.438l-0.535,1l-0.687,1.624l-0.55,0.989l-0.335,0.433l-0.805,0.68
		l-0.419,0.236l-2.1,0.871l-0.923,0.557l-0.403,0.349l-1.336,1.676l-0.398,0.337l-0.463,0.281l-1.099,0.349l-3.115,0.411
		l-1.063,0.366l-0.875,0.546l-5.473,4.597l-0.851,0.456l-1.025,0.417l-1.155,0.276l-4.484,0.433l-2.213,0.625l-1.328-0.062
		l-10.583-1.931l-2.242-0.129l-6.14,0.771l-0.615,0.236l-0.897,0.495l-2.524,1.931l-0.499,0.225l-0.55,0.169l-0.612,0.096
		l-0.935-0.084l-5.61-1.683l-2.254-1.199l-1.777-1.261l-4.294-4.299l-0.043-0.034l-1.393-1.164l-0.723-0.433l-4.448-1.445
		l-12.355-6.6l-3.071-2.192l-0.564-0.556l-1.521-1.18l-0.759-0.315l-1.003-0.281l-1.909-0.27l-3.303,0.017l-0.82-0.157l-0.87-0.303
		l-1.119-0.719l-0.612-0.528l-0.456-0.5l-1.55-2.156l-0.694-0.792l-1.572-1.437l-6.051-4.557l-1.28-0.757l-1.01-0.331l-2.56-0.292
		l-0.933,0.039l-0.649,0.454l-0.484,0.415l-2.23,3.345l-0.008,0.006l-0.23-1.971l-0.634-2.821l-0.861-3.832l-0.776-2.423
		l-2.083-4.529l-1.379-2.096l-2.097-4.202l-0.371-4.234l1.181-3.896l2.565-3.201l18.37-16.895l2.02-3.463l0.685-4.21l-1.326-4.643
		l-0.419-2.377l0.791-1.026L228.636,39.289z"/>
	<path class="st0" d="M377.428,135.94l0.528,0.854l0.138-0.02l-2.489,8.553l-0.634,1.589l-1.155,2.277l-0.962,0.913l-1.179,0.721
		l-6.471,1.9l-1.251,0.603l-1.314,0.908l-0.678,0.863l-0.383,0.762l-0.096,0.626l-0.029,0.66l0.212,0.654l0.345,0.581l1.447,1.574
		l0.815,1.106l-0.547,2.043l-0.844,1.88l-0.697,4.15l-0.282,1.079l-0.347,0.746l-0.432,0.316l-1.14,1.181l-0.921,1.271l-0.603,0.661
		l-0.569,0.475l-0.492,0.243l-1.738,0.622l-0.665,0.424l-0.489,0.706l-1.577,3.335l-0.429,0.633l-3.038,2.929l-0.444,0.775
		l-2.765,7.678l-0.263,1.121l0.181,0.504l0.253,0.475l0.637,0.861l0.54,0.951l0.362,1.082l0.21,1.223l0.277,4.662l0.217,1.207
		l0.33,1.122l0.181,1.508l-0.169,3.027l-4.92,1.293l-1.401,1.061l-0.181,0.618l-0.509,0.93l-0.82,1.112l-2.847,3.058l-0.586,0.823
		l-0.263,1.232l-0.183,0.528l-0.465,0.925l-0.451,0.5l-0.513,0.392l-1.234,0.409l-1.531,0.273l-1.015,0.028l-0.598-0.068
		l-6.62-2.021l-4.81-0.17l-0.651-0.102l-1.189-0.386l-4.711-3.008l-0.772-0.227l-1.032-0.148l-3.901-0.034l-0.639-0.119l-0.571-0.21
		l-1.825-1.237l-0.663-0.323l-0.892-0.272l-1.581-0.238h-1.119l-8.069,1.764l-1.07,0.04l-1.926-0.465l-4.103-1.577l-0.706,0.023
		l-0.583,0.199l-0.403,0.346l-0.571,0.403l-0.716,0.391l-1.285,0.471l-0.902,0.142l-0.832-0.006l-1.203-0.357l-7.883-0.965
		l-1.085-0.289l-3.445-2.677l-1.017-0.533l-7.399-2.143l-2.11-1.026l-1.263-1.021l-0.689-0.799l-2.037-3.174l-0.446-0.453
		l-0.967-0.391l-1.719-0.408l-2.637-0.091l-2.259-0.317l-2.23-0.872l-0.996-0.572l-3.139-2.237l-6.666-3.448l-13.73-3.012
		l-0.67-0.255l-0.477-0.277l-0.427-0.34l-0.345-0.419l-0.263-0.475l-0.207-0.504l-1.191-3.853l-0.265-0.475l-0.328-0.407
		l-0.81-0.718l-6.172-3.495l-2.461-0.95l-0.96-0.164l-0.735,0.017l-3.452,0.876l-0.434,0.271l-0.301,0.413l-0.099,0.577
		l-0.101,1.046l-0.017,0.062l-0.113,0.085l-0.48,0.074l-1.039,0.034l-1.615-0.424l-1.473-0.192l-1.401,0.396l-1.524,0.781
		l-0.301,0.166l-1.102-0.856l-2.281-2.805l1.181-3.38l1.774-1.492l3.51-2.147l1.466-1.277l0.906-2.056l0.463-4.958l0.858-2.246
		l0.641-0.722l1.538-1.219l0.689-0.711l1.938-4.129l0.907-1.252l0.01-2.831l-0.627-4.847l1.186-4.811l2.358-3.638l1.726-3.715
		l-0.752-5.087l-3.934-5.815l-0.583-1.248l0.723-1.923l1.741-1.18l3.968-1.045l2.16,0.258l1.157-0.438l0.501-1.641l0.535-2.618
		l0.106-1.135l-0.096-4.537l-0.314-2.688l0.008-0.006l2.23-3.345l0.484-0.415l0.649-0.454l0.933-0.039l2.56,0.292l1.01,0.331
		l1.28,0.757l6.051,4.557l1.572,1.437l0.694,0.792l1.55,2.156l0.456,0.5l0.612,0.528l1.119,0.719l0.87,0.303l0.82,0.157l3.303-0.017
		l1.909,0.27l1.003,0.281l0.759,0.315l1.521,1.18l0.564,0.556l3.071,2.192l12.355,6.6l4.448,1.445l0.723,0.433l1.393,1.164
		l0.043,0.034l4.294,4.299l1.777,1.261l2.254,1.199l5.61,1.683l0.935,0.084l0.612-0.096l0.55-0.169l0.499-0.225l2.524-1.931
		l0.897-0.495l0.615-0.236l6.14-0.771l2.242,0.129l10.583,1.931l1.328,0.062l2.213-0.625l4.484-0.433l1.155-0.276l1.025-0.417
		l0.851-0.456l5.473-4.597l0.875-0.546l1.063-0.366l3.115-0.411l1.099-0.349l0.463-0.281l0.398-0.337l1.336-1.676l0.403-0.349
		l0.923-0.557l2.1-0.871l0.419-0.236l0.805-0.68l0.335-0.433l0.55-0.989l0.687-1.624l0.535-1l0.323-0.438l0.362-0.393l0.665-0.332
		l0.921-0.219l1.69-0.169l0.931,0.129l0.745,0.185l5.183,1.905l14.812,3.266l0.612,0.236l1.528,0.939l1.917,1.664l0.665,0.832
		l1.401,2.272l1.07,1.277l2.382,2.053l0.692,0.777l0.938,1.3l0.738,0.754l3.479,2.719L377.428,135.94z"/>
	<path class="st0" d="M378.094,136.773l2.306-0.34l6.14,0.394l2.908-0.597l2.232-0.023l0.902-0.236l0.747-0.574l0.415-0.586
		l0.35-0.63l0.552-0.698l5.07-3.41l1.357-1.305l0.755-1.688l0.991-3.734l1.213-1.439l1.786-0.214l2.281,0.472l2.097,0.169
		l1.22-1.124l0.157-2.068l-0.328-4.484l0.458-1.932l1.458-1.449l1.972-0.461l1.962,0.539l2.613,3.056l3.395,1.966l1.509,1.259
		l2.073,2.563l4.34,3.902l6.905,7.819l1.374,2.06l0.506,1.79l0.323,3.896l0.646,1.87l1.037,1.014l3.1,2.039l1.07,1.679l1.258,4.532
		l0.817,1.973l1.459,1.737l1.567,0.97l3.664,1.421l1.741,1.083l4.422,4.051l1.847,1.174l1.418,0.271l1.213-0.677l1.227-1.716
		l1.75-3.521l1.21-0.417l1.668,2.076l1.507,2.618l2.399,3.172l2.69,2.71l3.78,1.796l1.164,1.22l1.087,1.435l1.193,1.232l1.256,0.814
		l2.811,1.119l15.456,2.238l3.214-0.011l1.413,0.452l1.215,1.232l1.649,3.438l1.07,1.47l4.918,3.983l1.365,1.46l1.109,2.003
		l0.391,1.925l0.149,4.451l0.947,2.427l-0.033,0.043l-0.456,0.595l-1.278,2.623l-0.284,0.442l-0.67,0.425l-0.902,1.026l-0.837,1.236
		l-0.489,1.054l-0.104,2.648l1.627,4.85l0.446,2.655l-0.463,1.958l-2.247,5.541l-1.297,2.38l-1.148,3.216l-3.185,4.575l1.466,1.205
		l1.55,0.239l1.177,0.466l0.325,1.842l-0.576,1.393l-2.375,1.854l-0.931,1.331l0.943,1.736l-0.316,1.975l-1.345,1.634l-2.148,0.672
		l-1.958,0.256l-1.97,0.53l-1.386-1.52l-0.62-1.025l-1.148-2.55l-1.181-1.809l-3.435-3.396l-1.524-2.224l-3.884-4.463l-1.622-2.876
		l-1.396-1.585l-2.541-2.051l-0.366-0.392l-1.849-2.641l-0.354-0.392l-0.405-0.352l-2.102-1.079l-4.053-1.51l-1.135-0.267
		l-7.175-0.636l-1.878-0.613l-3.549-1.612l-1.444-0.306l-2.903-0.13l-3.848,0.443l-5.767-0.46l-9.106-2.292l-2.7-0.295l-1.357,0.074
		l-2.329,0.584l-8.173,0.567l-2.599-0.312l-2.565-0.601l-0.678-0.017l-0.61,0.108l-1.529,0.652l-0.598,0.114l-0.646,0.023
		l-0.663-0.091l-0.733-0.375l-0.716-0.675l-1.005-1.492l-0.858-1.611l-0.388-1.077l-0.051-0.629l0.21-1.979l-0.089-0.578
		l-0.21-0.499l-0.555-0.93l-0.229-0.504l-0.125-0.584l-0.041-0.68l0.116-1.422l0.301-1.303l0.781-2.34l0.108-0.646l0.014-0.663
		l-0.133-0.578l-0.393-1.065l-0.839-3.561l-0.386-1.092l-0.526-0.945l-0.608-0.504l-0.851-0.549l-1.782-0.781l-3.076-0.996
		l-0.658-0.334l-0.682-0.492l-3.122-2.919l-0.403-0.486l-0.26-0.441l-0.323-0.696l-0.031-0.051l-0.186-0.39l-1.41-4.251
		l-0.072-0.622l0.145-2.085l-0.077-1.339l-0.152-0.576l-0.383-1.073l-0.962-1.971l-0.371-0.503l-0.482-0.508l-1.577-1.214
		l-6.743-2.846l-4.458-2.535l-7.633-6.094l-0.506-0.271l-1.367-0.355l-1.762-0.006l-0.646,0.135l-1.567,0.626l-1.186,1.094
		l-2.23,3.447l-0.815-1.106l-1.447-1.574l-0.345-0.581l-0.212-0.654l0.029-0.66l0.096-0.626l0.383-0.762l0.678-0.863l1.314-0.908
		l1.251-0.603l6.471-1.9l1.179-0.721l0.962-0.913l1.155-2.277l0.634-1.589L378.094,136.773z"/>
	<path class="st0" d="M522.031,200.408l0.326,0.836l2.541,2.459l3.062,2.233l2.816,2.664l2.85,3.334l6.413,5.934l5.174,3.655
		l4.59,4.315l2.174,1.533l1.046-0.102l0.892-1.147l1.697-1.601l1.76-0.636l1.832,0.193l1.779,0.795l1.596,1.204l0.559,0.738
		l0.834,1.624l0.839,0.761l0.916,0.352l3.071,0.307l1.606,0.489l1.345,0.614l2.661,1.841l1.09,1.194l0.41,1.125l0.232,1.114
		l0.545,1.183l0.964,1.126l1.215,1.069l2.58,1.678l5.468,1.172l1.355,0.876l0.554,1.513l0.125,3.881l2.666,6.434l4.745,7.054
		l1.123,3.078l0.627,3.752l0.294,5.557l0.448,1.872l0.849,1.45l2.377,2.112l0.969,1.336l1.582,2.856l1.929,2.628l2.208,2.286
		l5.878,4.207l5.506,6.188l5.275,1.785l4.016,2.484l1.581,0.492l3.004,0.023l3.096,1.912l3.009,1.397l1.432,1.053l6.191,6.725
		l0.834,1.662l-0.299,2.018l-1.196,1.582l-3.38,2.649l-1.843,2.351l-0.052-0.011l-11.239-2.363l-2.329-0.281l-0.747,0.069
		l-0.943,0.189l-1.533,0.94l-0.745,0.241l-0.808,0.057l-1.22-0.155l-0.75-0.247l-0.591-0.321l-1.229-1.067l-0.716-0.224l-1.022-0.08
		l-1.767,0.12l-0.938-0.155l-0.632-0.298l-0.637-0.877l-0.371-0.396l-0.427-0.321l-0.427-0.218l-0.468-0.12l-10.034,1.216
		l-2.235-0.092l-3.329-0.619l-15.574,1.244l-0.931-0.092l-0.752-0.172l-0.528-0.252l-0.959-0.608l-5.919-4.838l-0.964-0.567
		l-0.574-0.224l-0.849,0.034l-1.061,0.258l-2.589,1.513l-0.477,0.378l-0.608,0.734l-2.02,1.794l-0.337,0.424l-0.263,0.476
		l-0.08,0.573l0.116,0.545l0.219,0.505l0.547,0.958l0.239,0.528l0.13,0.573l-0.229,0.585l-0.53,0.442l-1.297,0.092l-0.747-0.195
		l-0.622-0.292l-0.417-0.356l-5.053-3.452l-0.513-0.246l-0.559-0.172l-0.629-0.029l-1.974,0.149l-0.704-0.029l-0.665-0.103
		l-0.615-0.172l-0.484-0.287l-0.892-0.642l-0.545-0.241l-2.604-0.31l-1.919-0.654l-3.539-0.476l-0.603-0.178l-0.516-0.258
		l-0.439-0.327l-0.781-0.751l-0.441-0.321l-0.933,0.086l-1.384,0.567l-4.629,2.62l-1.938,0.608l-5.227,0.355l-1.316-0.201
		l-0.675,0.063l-0.595,0.327l-0.55,0.912l-0.468,1.428l-0.243,0.545l-0.492,0.465l-0.694,0.361l-1.35,0.218l-0.825-0.086
		l-0.69-0.166h-0.586l-0.521,0.27l-0.47,0.642l-0.646,1.118l-0.651,0.889l-0.55,0.442l-0.75,0.333l-1.425,0.275l-0.899-0.034
		l-0.769-0.126l-1.695-0.683l-1.275-0.298l-1.251-0.035l-0.846,0.143l-4.33,1.79l-1.48,0.321l-3.018-0.035l-2.633,0.281
		l-1.179,0.298l-5.487,2.812l-1.594,1.389l-1.446,1.613l-0.815,0.706l-0.475,0.276l-3.197,1.304l-1.097,0.798l-0.738,0.764
		l-0.571,0.448l-2.076,1.206l-0.487,0.397l-0.586,0.684l-0.484,0.793l-0.328,0.672l-0.06,0.816l0.2,0.943l1.353,2.363l0.145,0.765
		l-0.014,2.018l-4.8-0.702l-6.7,0.276l-1.473-0.121l-0.976-0.264l-0.369-0.391l-1.044-1.535l-0.015-0.029l-0.017-0.023l-0.251-0.276
		l-8.882-5.724l-1.232-1.086l-1.755-2.045l-1.025-1.792l-0.463-1.206l-0.222-1.2l0.034-0.677l0.528-2.629l0.142-2.106l-0.053-0.637
		l-0.147-0.574l-0.362-0.74l-1.565-2.369l-0.429-0.923l-0.169-0.826l0.154-0.568l0.263-0.493l0.407-0.361l0.494-0.241l1.227-0.241
		l0.504-0.224l0.335-0.418l0.164-0.591l0.007-0.636l-0.128-0.671l-2.401-5.633l-0.159-0.647l0.019-1.335l0.333-1.22l1.261-3.487
		l1.333-5.821l0.089-1.373l-0.046-1.339l-0.429-2.414l-1.9-3.614l8.286-3.864l3.223-0.206l6.07,2.423l3.187,0.669l3.271-0.492
		l2.876-1.32l2.449-1.903l1.972-2.257l1.9-3.233l1.427-1.451l3.317-1.005l0.772-0.982l0.641-1.239l0.861-1.147l0.952-0.668
		l1.955-0.924l0.914-0.668l1.533-2.003l1.979-4.54l1.323-2.224l0.367-1.209l-0.381-1.231l-0.615-1.225l-0.326-1.197l0.14-1.043
		l0.352-1.1l0.781-1.624l2.155-2.438l0.745-1.486l0.287-2.539l1.022-1.144l2.293,0.786l3.749,2.237l1.384-0.159l2.016-0.558
		l1.97-0.53l1.958-0.256l2.148-0.672l1.345-1.634l0.316-1.975l-0.943-1.736l0.931-1.331l2.375-1.854l0.576-1.393l-0.325-1.842
		l-1.177-0.466l-1.55-0.239l-1.466-1.205l3.185-4.575l1.148-3.216l1.297-2.38l2.247-5.541l0.463-1.958l-0.446-2.655l-1.627-4.85
		l0.104-2.648l0.489-1.054l0.837-1.236l0.902-1.026l0.67-0.425l0.284-0.442l1.278-2.623l0.456-0.595L522.031,200.408z"/>
	<path class="st0" d="M610.35,361.829l-1.511,5.111l0.068,8.229l2.064,16.78l-2.126,18.452l-0.265,10.015l2.623,4.6h1.909
		l1.668-0.325l1.538,0.012l1.519,1.078l0.897,1.832l0.67,1.971l1.152,1.264l3.003-0.18l-1.61,1.112l-1.72,1.553l-3.371,4.166
		l-2.065,3.711l-1.169,3.904l-1.86,9.332l-1.784,5.631l-0.494,5.149l-0.888,1.613l-3.265,2.283l-1.564,1.439l-4.548,5.879
		l-5.004,3.845l-1.625,1.928l-3.326,6.612l-0.869,1.158l-0.216,1.222l-2.016,6.499l1.515,4.12l-0.114,2.024l-3.816,1.196
		l-8.633,4.86l-6.898,4.9l-14.218,13.958l-1.135,1.532l-0.387,1.938l0.042,1.745l-0.505,1.265l-8.482,1.92l-2.134,0.166l0.38-0.96
		l0.569-0.739l1.602-1.459l-0.653-0.572l-0.592-0.701l-0.448-0.858l-0.22-0.969l0.152-1.412l0.945-2.758l0.232-0.48l-1.371-1.383
		l-2.525-1.088l-2.669-0.655l-1.834-0.046l1.048,0.775l3.474,1.549l-0.748,1.42l-1.519,1.559l-1.743,1.227l-1.435,0.517
		l-0.573,0.757l-0.015,1.541l0.691,1.191l1.515-0.249l-0.133-0.886l1.39,0.305l1.724,1.458l0.847,2.502l-0.74,1.441l-1.716,1.441
		L516.1,551.06l-0.023-0.097l-0.448-1.21l-0.08-0.617l0.043-0.881l0.354-1.139l0.391-0.663l0.721-0.974l0.236-0.458l0.072-0.528
		l-0.039-0.622l-1.237-4.206l-0.217-1.284l-0.217-4.538l0.26-2.497l0.779-2.988l0.328-0.785l1.432-2.524l0.444-1.159l0.166-0.65
		l0.092-0.808l-0.058-0.937l-0.398-1.352l-0.395-0.743l-0.796-0.983l-0.301-0.468l-0.157-0.843l-0.203-2.995l-0.195-1.012
		l-0.304-0.708l-0.644-0.901l-0.188-0.824l-0.108-1.111l0.133-2.198l0.246-1.368l0.685-1.42l0.641-0.31l0.644-0.006l0.526,0.21
		l0.511,0.111l0.405-0.111l0.227-0.187l0.236-0.386l0.475-3.155l0.354-6.802l-0.21-2.579l-0.342-1.926l-0.232-6.946l0.957-6.213
		l0.171-0.629l0.217-0.583l1.056-2.161l0.198-0.612l0.256-1.223l0.058-0.553l-1.984-19.021l2.266-3.637l2.833-3.281l0.395-0.697
		l0.239-1.306l0.166-3.367l0.316-1.81l0.335-0.923l0.362-0.69l0.603-0.772l2.059-3.405l0.412-1.218l0.149-0.962l-0.887-6.387
		l0.417-2.317l0.875-1.743l1.994-2.224l7.493-4.388l3.51-3.182l2.001-6.917l1.649-0.757l2.196-0.035l2.24-0.376l0.653-0.335
		l0.535-0.41l0.446-0.526l0.398-0.688l1.102-1.023l4.923-1.248l2.273-1.387l2.194-1.814l1.883-2.212l2.37-4.959l0.989-0.97
		l3.185-0.929l2.177-1.454l2.932-4.113l1.68-1.845l1.278-0.755l2.232-0.969l0.988-1.043l0.487-1.182l0.285-1.28l0.444-1.285
		l0.988-1.204l0.518-0.461l7.433-2.155l6.789-2.932l8.845-2.073L610.35,361.829z"/>
	<path class="st0" d="M641.871,325.679l-1.961,2.502l-6.249,4.591l-2.613,2.813l-0.762,2.01l-0.241,4.136l-0.627,2.034l-1.027,1.218
		l-11.365,7.613l-3.192,2.807l-2.633,3.556l-0.005,0.012l-0.005,0.012l-0.842,2.846l-0.062,0.015l-8.845,2.073l-6.789,2.932
		l-7.433,2.155l-0.518,0.461l-0.988,1.204l-0.444,1.285l-0.285,1.28l-0.487,1.182l-0.988,1.043l-2.232,0.969L580,377.182
		l-1.68,1.845l-2.932,4.113l-2.177,1.454l-3.185,0.929l-0.989,0.97l-2.37,4.959l-1.883,2.212l-2.194,1.814l-2.273,1.387
		l-4.923,1.248l-1.102,1.023l-0.398,0.688l-2.31-1.127l-2.459-1.601l-3.37-1.369l-1.989-1.138l-0.815-0.699l-1.444-1.588
		l-1.393-2.391l-0.94-2.073l-0.299-0.45l-0.434-0.346l-0.528-0.242l-0.861-0.098l-1.066,0.046l-2.724,0.664l-0.728,0.323
		l-3.023,2.384l-0.485,0.266l-1.063,0.462l-0.506,0.283l-0.417,0.375l-0.316,0.468l-0.203,0.583l-0.275,1.265l-0.485,1.074
		l-0.323,0.456l-0.35,0.422l-0.415,0.364l-0.451,0.295l-3.717,1.531l-0.846,0.052l-1.094-0.127l-6.345-2.011l-0.501-0.277
		l-1.225-1.086l-0.547-0.237l-0.61-0.191l-7.589-1.219l-2.806-0.791l-3.209-2.177l-2.565-2.783l-0.54-0.381l-0.73-0.3l-1.196-0.289
		l-1.422-0.537l-0.702-0.133l-0.931,0.081l-2.384,0.918l-4.18,2.147l-0.735,0.185l-0.928,0.052l-1.625-0.254l-0.817-0.346
		l-0.622-0.404l-0.412-0.364l-0.521-0.271l-1.837-0.543l-0.887-0.502l-0.28-0.104l-0.494,0.035l-4.86,0.854l-1.813,0.808
		l-4.561,2.719l-1.856-2.367l-0.222-0.745l-0.137-1.143l0.166-0.71l0.26-0.589l0.325-0.467l0.371-0.41l1.381-0.94l0.622-0.756
		l0.682-1.142l1.046-2.676l0.349-1.413l0.142-1.09l-0.921-5.044l-0.089-3.854l-0.856-6.064l0.742-2.343l0.8-1.007l5.222-3.395
		l0.829-0.713l0.665-0.742l0.299-0.449l0.875-1.737l0.014-2.018l-0.145-0.765l-1.353-2.363l-0.2-0.943l0.06-0.816l0.328-0.672
		l0.484-0.793l0.586-0.684l0.487-0.397l2.076-1.206l0.571-0.448l0.738-0.764l1.097-0.798l3.197-1.304l0.475-0.276l0.815-0.706
		l1.446-1.613l1.594-1.389l5.487-2.812l1.179-0.298l2.633-0.281l3.018,0.035l1.48-0.321l4.33-1.79l0.846-0.143l1.251,0.035
		l1.275,0.298l1.695,0.683l0.769,0.126l0.899,0.034l1.425-0.275l0.75-0.333l0.55-0.442l0.651-0.889l0.646-1.118l0.47-0.642
		l0.521-0.27h0.586l0.69,0.166l0.825,0.086l1.35-0.218l0.694-0.361l0.492-0.465l0.243-0.545l0.468-1.428l0.55-0.912l0.595-0.327
		l0.675-0.063l1.316,0.201l5.227-0.355l1.938-0.608l4.629-2.62l1.384-0.567l0.933-0.086l0.441,0.321l0.781,0.751l0.439,0.327
		l0.516,0.258l0.603,0.178l3.539,0.476l1.919,0.654l2.604,0.31l0.545,0.241l0.892,0.642l0.484,0.287l0.615,0.172l0.665,0.103
		l0.704,0.029l1.974-0.149l0.629,0.029l0.559,0.172l0.513,0.246l5.053,3.452l0.417,0.356l0.622,0.292l0.747,0.195l1.297-0.092
		l0.53-0.442l0.229-0.585l-0.13-0.573l-0.239-0.528l-0.547-0.958l-0.219-0.505l-0.116-0.545l0.08-0.573l0.263-0.476l0.337-0.424
		l2.02-1.794l0.608-0.734l0.477-0.378l2.589-1.513l1.061-0.258l0.849-0.034l0.574,0.224l0.964,0.567l5.919,4.838l0.959,0.608
		l0.528,0.252l0.752,0.172l0.931,0.092l15.574-1.244l3.329,0.619l2.235,0.092l10.034-1.216l0.468,0.12l0.427,0.218l0.427,0.321
		l0.371,0.396l0.637,0.877l0.632,0.298l0.938,0.155l1.767-0.12l1.022,0.08l0.716,0.224l1.229,1.067l0.591,0.321l0.75,0.247
		l1.22,0.155l0.808-0.057l0.745-0.241l1.533-0.94l0.943-0.189l0.747-0.069l2.329,0.281l11.239,2.363L641.871,325.679z"/>
	<path class="st0" d="M516.1,551.06l-1.052,0.555l-5.794,1.665l-3.014,2.544l-1.906,0.888l-3.971,1.231l-16.166,7.823l-1.959,0.343
		l-1.868,0.685l-2.388,2.807L476.183,570l0.433-1.149l0.201-0.723l0.004-0.463l-0.976-1.51l-1.26-1.269l-1.663-0.852l-3.686-0.482
		l-0.224-0.444l0.087-0.722l-0.615-1.009l-0.945-0.713l-0.85-0.407l-2.031-0.435l-4.446,0.222l-8.58,2.027l-3.592-0.694
		l-2.449-2.434l-4.833-6.532l-3.31-1.808l-0.071-0.879l-0.169-0.863l-0.788-1.538l-1.84-2.723l-0.694-0.728l-0.345-0.481
		l-0.272-0.61l-0.063-0.95l0.058-0.78l0.48-2.792l-0.2-0.786l-0.463-0.809l-1.152-1.102l-1.379-1.073l-0.979-1.213l-1.408-3.211
		l12.592-0.703l2.437-0.615l2.213-1.06l0.685-0.445l10.588-8.993l1.135-0.386l0.629-0.105l1.369-0.035l2.9,0.228l1.287-0.193
		l0.571-0.187l1.152-0.878l5.118-4.89l1.724-1.281l1.273-0.719l1.999-0.222l1.133-0.374l2.895-1.52l1.721-0.281l0.779-0.298
		l0.87-0.555l1.403-1.186l1.666-0.865l0.535-0.368l0.419-0.59l0.318-1.133l0.181-2.418l0.251-1.367l1.654-5.616l0.289-0.677
		l0.492-0.589l0.873-0.63l0.607-0.56l0.453-0.7l0.333-1.12l0.297-2.304l0.174-0.624l0.092-0.636l0.007-0.595l-0.055-0.472
		l-0.08-0.367l-0.248-0.828l-0.043-0.356l0.277-0.886l2.006-3.48l1.384-3.105l2.7-4.112l0.407-0.908l0.207-0.605l0.566-0.722
		l0.878-0.821l1.987-1.298l1.119-0.547l0.926-0.326l4.581-0.594l2.165-0.85l0.665-0.716l0.743-1.105l1.193-2.577l0.786-2.535
		l0.099-0.704l0.15-0.663l1.061-1.558l3.889-2.947l1.984,19.021l-0.058,0.553l-0.256,1.223l-0.198,0.612l-1.056,2.161l-0.217,0.583
		l-0.171,0.629l-0.957,6.213l0.232,6.946l0.342,1.926l0.21,2.579l-0.354,6.802l-0.475,3.155l-0.236,0.386l-0.227,0.187l-0.405,0.111
		l-0.511-0.111l-0.526-0.21l-0.644,0.006l-0.641,0.31l-0.685,1.42l-0.246,1.368l-0.133,2.198l0.108,1.111l0.188,0.824l0.644,0.901
		l0.304,0.708l0.195,1.012l0.203,2.995l0.157,0.843l0.301,0.468l0.796,0.983l0.395,0.743l0.398,1.352l0.058,0.937l-0.092,0.808
		l-0.166,0.65l-0.444,1.159l-1.432,2.524l-0.328,0.785l-0.779,2.988l-0.26,2.497l0.217,4.538l0.217,1.284l1.237,4.206l0.039,0.622
		l-0.072,0.528l-0.236,0.458l-0.721,0.974l-0.391,0.663l-0.354,1.139l-0.043,0.881l0.08,0.617l0.448,1.21L516.1,551.06z"/>
	<path class="st0" d="M437.447,550.602l-0.297-0.162l-2.331-0.166l-6.184-0.52l-3.866,0.416l-4.809-1.276l-3.79-1.752l-4.193,0.987
		l-4.359-1.858l-5.883,2.036l-3.317-0.969l-6.227,2.15l-2.828,1.183l-6.096,4.083l-4.63,3.377l-3.204,1.9l-0.679-1.044l-0.345-1.128
		l-0.318-2.127l-0.002-2.168l0.079-0.728l0.121-0.622l0.979-2.331l0.362-1.239l0.039-0.687l-0.28-0.546l-0.569-0.335l-1.242,0.059
		l-0.786,0.188l-0.781,0.076l-0.673-0.141l-0.791-0.628l-0.393-0.546l-0.28-0.481l-0.195-0.229l-0.4-0.276l-0.533-0.199
		l-0.499-0.311l-0.429-0.358l-0.542-1.033l-0.21-0.522l-0.405-0.78l-0.518-0.153l-0.856-0.018l-1.854,0.598l-0.899,0.51l-0.61,0.575
		l-0.648,0.986l-0.352,0.452l-0.398,0.387l-0.434,0.335l-0.492,0.27l-0.974,0.37l-0.521-0.07l-0.783-0.211l-1.326-0.722
		l-0.588-0.423l-0.41-0.428l-1.09-1.878l-0.328-0.434l-0.745-0.815l-0.528-0.334l-0.675-0.27l-1.005-0.158l-0.798-0.018
		l-1.702,0.504l-3.088,1.842l-0.677-1.126l-1.418-1.695l-3.349-2.95l-3.023-1.776l-0.431-0.358l-0.321-0.592l-0.186-0.821
		l-0.137-3.112l-0.513-3.158l0.108-0.773l0.297-0.767l0.673-0.861l0.61-0.433l1.114-0.544l0.448-0.305l0.405-0.369l0.352-0.439
		l0.612-0.995l0.699-0.878l1.577-1.522l0.21-0.708l-0.007-0.907l-0.439-1.539l-0.347-0.778l-0.318-0.55l-0.065-0.491l0.012-0.831
		l0.603-2.714l0.043-2.134l1.625-5.739l0.95-1.735l0.945-0.578l1.208-0.502l1.567-0.403l2.792-0.199l1.365,0.053l0.923,0.158
		l1.061,0.368l4.125,2.302l1.08,0.123l1.56-0.105l4.639-1.034l0.959-0.444l0.704-0.888l0.824-1.577l1.196-3.649l0.256-0.549
		l0.571-0.66l0.89-0.747l8.334-5.508l0.897-0.093l1.251,0.093l1.926,0.572l4.928,2.433l0.769,0.14l1.08,0.029l2.11-0.28l1.061-0.292
		l0.798-0.309l6.34-3.902l2.577-0.875l11.676-1.65l2.534,10.226l1.246,3.695l3.884,7.278l0.354,1.052l0.137,0.953l-0.072,0.725
		l-1.116,5.619l-0.067,1l0.087,2.469l0.207,0.468l0.506,0.878l3.855,4.729l1.538,2.945l0.523,1.652l-0.01,3.158l1.408,3.211
		l0.979,1.213l1.379,1.073l1.152,1.102l0.463,0.809l0.2,0.786l-0.48,2.792l-0.058,0.78l0.063,0.95l0.272,0.61l0.345,0.481
		l0.694,0.728l1.84,2.723l0.788,1.538l0.169,0.863L437.447,550.602z"/>
	<path class="st0" d="M375.434,560.031l-2.915,1.729l-3.318-0.294l-2.84,1.64l-1.33,0.855l-0.578,2.372l-1.978-2.83l-1.607-0.32
		l-1.725-0.662l0.778-1.024l0.112-1.273l-1.039-0.9l-1.489-0.209l-0.556,1.721l-1.85,1.513l-0.885,0.01l-2.067-0.316l-2.173,0.306
		l-2.939-2.527l-5.615-3.322l-1.447-1.332l-0.216-1.684l1.588-1.383l1.577-1.611l2.385-0.595l-0.309-0.352l0.521-0.528l0.27-0.417
		l0.162-0.951l0.014-0.822l-0.926-4.032l3.088-1.842l1.702-0.504l0.798,0.018l1.005,0.158l0.675,0.27l0.528,0.334l0.745,0.815
		l0.328,0.434l1.09,1.878l0.41,0.428l0.588,0.423l1.326,0.722l0.783,0.211l0.521,0.07l0.974-0.37l0.492-0.27l0.434-0.335
		l0.398-0.387l0.352-0.452l0.648-0.986l0.61-0.575l0.899-0.51l1.854-0.598l0.856,0.018l0.518,0.153l0.405,0.78l0.21,0.522
		l0.542,1.033l0.429,0.358l0.499,0.311l0.533,0.199l0.4,0.276l0.195,0.229l0.28,0.481l0.393,0.546l0.791,0.628l0.673,0.141
		l0.781-0.076l0.786-0.188l1.242-0.059l0.569,0.335l0.28,0.546l-0.039,0.687l-0.362,1.239l-0.979,2.331l-0.121,0.622l-0.079,0.728
		l0.002,2.168l0.318,2.127l0.345,1.128L375.434,560.031z"/>
	<path class="st0" d="M344.998,549.541l-1.076-1.228l-1.831-0.778l-4.917-2l-3.42-0.536l-3.299,0.144l-2.002,1.386l-1.503-0.222
		l-1.454-0.693l-3.485-2.218l-1.64-0.776l-1.664-1.13l-6.268-1.771l-7.627-0.97l-7.334-3.213l-1.568-1.145l-1.257-2.787
		l-1.454-1.393l-3.091-2.242l-2.212-2.539l-1.944-1.924l-1.714-1.357l-2.513-1.582l-1.372-1.246l0.143-1.55l-0.608-0.783
		l-1.363-0.949l-0.573-0.516l-1.754-2.008l-1.686-1.455l-2.98-1.364l-1.448-0.303l5.737-4.994l0.367-0.427l0.26-0.766l0.121-1.069
		l-0.087-2.185l0.113-1.244l0.521-1.209l0.562-0.677l0.46-0.882l0.687-2.341l0.048-0.782l-0.371-0.636l-1.847-2.194l-0.284-0.478
		l-0.251-0.519l-0.109-0.747l0.043-0.927l0.378-1.487l0.362-0.834l0.429-0.577l2.23-1.615l1.485-0.81l3.985-1.16l0.694-0.344
		l0.417-0.268l4.144-3.386l0.646-0.792l0.186-0.285l0.116-0.315l0.014-0.344l-0.065-0.74l-0.521-1.188l-3.448-5.491l-3.042-3.626
		l-0.663-0.5l-1.584-0.815l-0.468-0.32l-0.446-0.681l-0.419-0.977l-0.779-3.362l-1.249-2.75l3.99,0.233l13.484,2.622l1.066-0.105
		l1.285-0.32l2.302-0.907l1.09-0.558l0.762-0.506l3.872-4.737l1.557-1.342l0.27-0.186l0.395-0.198l6.398-1.615l2.136-0.854
		l1.919-1.133l3.775-3.13l2.876,0.702l10.207,5.221l1.275,3.666l2.83,13.55l0.386,4.651l-0.058,1.234l-0.147,0.949l-0.217,0.588
		l-2.028,3.594l-0.275,0.647l-0.231,0.857l0.014,0.682l0.154,0.589l1.712,4.343l0.451,1.685l0.104,1.091l-0.41,7.463l-0.198,1.074
		l-0.268,0.525l-0.34,0.444l-0.41,0.356l-1.794,0.975l-0.509,0.356l-0.441,0.572l-0.386,0.964l-0.01,0.712l0.217,0.549l5.138,5.58
		l0.468,0.684l0.697,1.45l-0.043,2.134l-0.603,2.714l-0.012,0.831l0.065,0.491l0.318,0.55l0.347,0.778l0.439,1.539l0.007,0.907
		l-0.21,0.708l-1.577,1.522l-0.699,0.878l-0.612,0.995l-0.352,0.439l-0.405,0.369l-0.448,0.305l-1.114,0.544l-0.61,0.433
		l-0.673,0.861l-0.297,0.767l-0.108,0.773l0.513,3.158l0.137,3.112l0.186,0.821l0.321,0.592l0.431,0.358l3.023,1.776l3.349,2.95
		l1.418,1.695l0.677,1.126l0.926,4.032l-0.014,0.822l-0.162,0.951l-0.27,0.417L344.998,549.541z"/>
	<path class="st0" d="M270.084,510.392l-3.333-0.699l-8.3-0.197l-5.111,0.354l-1.704-1.473l-4.313,0.12l-2.384,1.479l-1.134-1.475
		l-2.382-0.226l-2.61,1.249l-3.292,1.474l-2.945-3.067l-2.381-0.117l-2.723,0.563l-3.746,1.695l-5.223,2.03l-1.701-0.233
		l-2.387,1.469l-2.723-0.237l-2.725,0.33l-3.065-0.469l0.912-0.904l-0.79-1.708l-2.61-0.81l-1.695-2.737l0.242-4.544l-2.348-2.56
		l-1.864-3.099l-6.921-8.262l-3.068-1.479l-1.082-1.727l-1.454-3.691l-1.644-1.597l-2.312-0.973l-2.475-0.459l-2.164-0.129
		l-2.529-0.514l-1.169-1.331l-1.082-4.238l-1.074-2.393l-7.901-11.518l-1.708-1.483l-3.508-2.133l-1.53-1.382l-1.295-2.169
		l-0.683-2.306l-0.522-2.997l0.009-0.001l0.053-0.006l2.975-0.534l1.304-0.383l8.407-3.53l8.71-6.064l1.495-0.447l1.608,0.191
		l10.528,2.727l0.497,0.517l0.581,0.772l0.26,0.476l0.458,1.045l0.35,1.12l0.222,0.534l0.55,0.958l0.311,0.395l0.34,0.302
		l0.253,0.186l0.415,0.227l0.723,0.192l0.959,0.128l1.661-0.07l2.789-0.505l7.298,0.227l0.938,0.261l1.268,0.656l0.675,0.517
		l0.501,0.494l0.188,0.314l0.154,0.203l-0.125-0.134l0.607,0.767l0.439,0.418l0.911,0.662l12.734,4.416l2.628,0.221l5.639-0.558
		l16.085-4.392l1.719,0.482l2.011,0.941l1.76,1.063l1.594,1.511l1.762,1.372l0.506,0.285l2.64,0.349l7.712-0.006l9.73,1.529
		l1.249,2.75l0.779,3.362l0.419,0.977l0.446,0.681l0.468,0.32l1.584,0.815l0.663,0.5l3.042,3.626l3.448,5.491l0.521,1.188
		l0.065,0.74l-0.014,0.344l-0.116,0.315l-0.186,0.285l-0.646,0.792l-4.144,3.386l-0.417,0.268l-0.694,0.344l-3.985,1.16l-1.485,0.81
		l-2.23,1.615l-0.429,0.577l-0.362,0.834l-0.378,1.487l-0.043,0.927l0.109,0.747l0.251,0.519l0.284,0.478l1.847,2.194l0.371,0.636
		l-0.048,0.782l-0.687,2.341l-0.46,0.882l-0.562,0.677l-0.521,1.209l-0.113,1.244l0.087,2.185l-0.121,1.069l-0.26,0.766
		l-0.367,0.427L270.084,510.392z"/>
	<path class="st0" d="M153.627,445.821l-1.775-10.186l-0.44-9.697l1.268-9.597l-0.304-2.334l-0.562-2.206l-0.308-2.342l0.478-2.651
		l1.272-2.186l3.193-4.243l0.634-2.421l-0.589-2.184l-0.62-0.524l0.015-0.009l8.908-5.296l5.027-6.615l1.719-1.085h4.46l2.657,0.45
		l1.056-0.49l0.429-1.898l0.043-4.21l0.275-1.124l1.003-1.003l3.139-1.695l1.102,0.68l1.589,1.528l0.492,0.075l0.96,0.83
		l0.747-0.957l0.383-1.845l-0.121-1.833l-0.26-0.184l-1.191-1.141l-0.528-0.634l-0.024-0.864l0.068-0.985l-0.034-0.76l-1.005-2.217
		l0.041-0.777l0.964-0.812l1.514-0.414l1.34,0.322l1.36,0.518l1.579,0.196l2.085-0.501l0.391-0.938l-0.195-1.353l0.326-1.698
		l0.931-0.909l2.775-0.719l1.391-0.587l1.324-1.208l0.967-1.243l1.099-0.995l1.707-0.489l1.62,0.259l2.611,1.576l1.444,0.512
		l1.143-0.035l1.948-0.581l1.109-0.144l1.037,0.242l1.36,1.036l2.797,0.69l3.573,1.462l1.803-0.391l0.694-0.88l0.926-2.416
		l0.636-0.5l3.117-0.857l0.706-0.316l1.808-1.271l1.977-0.448l2.083,0.316l4.096,2.168l0.858,0.702l0.354,0.846l0.005,1.243
		l0.137,1.375l0.473,1.105l1.008,0.46l1.075-0.294l1.921-1.427l1.114-0.495l1.039-0.075l0.962,0.161l3.809,1.289l1.639,0.875
		l1.114,1.347l1.037,4.382l1.415-0.397l1.526-1.652l0.955-1.434l0.552,2.965l0.509,1.186l1.109,0.484l1.029-0.184l4.188-1.86
		l2.334-1.457l0.82-0.305l-1.275,3.513l-0.608,1.025l-6.661,8.534l-1.222,1.061l-9.788,11.728l-1.02,1.795l-0.034,1.016l0.099,0.728
		l0.212,0.595l0.282,0.462l0.366,0.416l2.389,1.594l0.419,0.358l0.362,0.416l0.28,0.48l0.232,0.508l1.046,4.797l0.188,0.549
		l0.253,0.486l1.516,1.995l0.017,0.046l0.012,0.017l0.113,0.301l0.202,1.434l0.051,1.319l0.123,0.862l0.195,0.677l0.304,0.463
		l0.354,0.417l0.388,0.382l1.914,2.65l0.815,0.747l0.931,0.642l0.557,0.232l2.577,0.689l0.547,0.324l0.456,0.423l0.297,0.729
		l-0.005,0.672l-0.161,0.596l-0.2,0.533l-0.251,0.504l-0.203,0.591l-0.161,0.643l-1.405,10.993l-0.034,1.409l0.101,0.365l0.149,0.4
		l3.896,6.736l1.104,2.647l0.169,0.639l0.26,1.655l0.374,1.307l0.239,0.645l0.222,0.778l0.415,2.823l0.345,1.15l0.21,0.535
		l0.268,0.488l1.642,2.261l0.747,1.25l-9.73-1.529l-7.712,0.006l-2.64-0.349l-0.506-0.285l-1.762-1.372l-1.594-1.511l-1.76-1.063
		l-2.011-0.941l-1.719-0.482l-16.085,4.392l-5.639,0.558l-2.628-0.221l-12.734-4.416l-0.911-0.662l-0.439-0.418l-0.607-0.767
		l0.125,0.134l-0.154-0.203l-0.188-0.314l-0.501-0.494l-0.675-0.517l-1.268-0.656l-0.938-0.261l-7.298-0.227l-2.789,0.505
		l-1.661,0.07l-0.959-0.128l-0.723-0.192l-0.415-0.227l-0.253-0.186l-0.34-0.302l-0.311-0.395l-0.55-0.958l-0.222-0.534l-0.35-1.12
		l-0.458-1.045l-0.26-0.476l-0.581-0.772l-0.497-0.517l-10.528-2.727l-1.608-0.191l-1.495,0.447l-8.71,6.064l-8.407,3.53
		l-1.304,0.383l-2.975,0.534l-0.053,0.006L153.627,445.821z"/>
	<path class="st0" d="M155.875,395.251l-1.965-1.66l-0.592-2.201l0.592-2.037l1.435-1.791l3.36-3.336l0.976-2.235l0.141-2.562
		l-1.568-9.678l-0.083-4.717l1.45-3.573l3.834-1.432l8.671,0.526l4.005-0.345l3.421-1.704l3.508-3.289l1.534-2.011l0.63-1.875
		l0.156-2.581l0.433-2.001l1.386-4.19l0.683-4.46l-0.805-3.328l-1.876-2.658l-4.036-4.284l-0.96-1.843l-0.501-2.032l-0.152-2.321
		l0.178-5.001l-0.171-2.527l-0.699-1.931l0.691-0.83l-0.79-2.85l-1.025-7.734l-1.109-1.586l-0.748-1.748l-1.338-5.879l0.015-0.003
		l2.724-0.509l4.769-0.28l0.791,0.143l1.037,0.446l0.607,0.389l0.424,0.36l0.306,0.354l0.015,0.023l2.526,2.996l0.412,0.36
		l0.448,0.326l2.035,1.115l0.398,0.36l0.311,0.44l0.497,0.973l0.583,1.911l0.116,0.235l0.26,0.343l0.735,0.32l1.121,0.263
		l2.213,0.24l1.946,0.561l0.931,0.641l1.138,0.258l8.173,0.841l0.492,0.298l0.694,0.143l0.846-0.086l1.398-0.653l0.658-0.612
		l0.441-0.607l0.33-2.226l0.152-0.652l0.251-0.543l0.299-0.469l0.419-0.355l16.213-2.448l0.914-0.635l0.386-0.406l0.665-0.875
		l0.28-0.515l0.605-1.589l0.036-0.074l0.089-0.223l0.451-0.892l0.347-0.423l0.412-0.343l0.521-0.223l2.201-0.703l0.439-0.24
		l0.863-0.823l0.294-0.394l0.743-0.783l0.834-0.674l0.487-0.257l0.938-0.086l1.242,0.057l3.346,0.583l0.892,0.052l2.425-0.417
		l1.606-0.577l1.422-0.834l0.663-0.103l0.8,0.069l2.006,0.903l0.882,0.28l0.931,0.097l1.683-0.269l0.904-0.274l0.704-0.314
		l6.102-4.444l0.996-0.485l0.868-0.188l5.921-0.08l1.213-0.223l0.518-0.223l0.935-0.531l1.76-1.319l0.945-0.525l0.475-0.177
		l1.025,0.103l1.401,0.36l5.099,2.358l2.944,1.804l2.278,0.543l2.061,0.126l2.02-0.12l2.339-0.548l0.991,0.069l3.621,0.685
		l1.222,0.097l0.914-0.063l1.15-0.28l0.658-0.034l1.615,0.211l5.111,1.582l0.991,0.6l5.125,4.337l1.266,0.852l2.985,1.589
		l-0.429,5.049l-2.941,12.356l-0.391,1.632l-1.854,2.2l-0.926,1.656l-0.35,2.063v1.375l0.234,2.201l-0.928,3.721l-1.62,3.31
		l-0.82,3.317l-1.779-0.58l-1.695,0.58l-1.056,1.36l-1.84,0.832l-2.765,0.103l-1.637,0.729l-1.258,1.188l-0.824,0.879l-1.037,2.423
		l0.01,0.747l0.041,1.764l-1.206,0.379l-1.753-0.31l-1.598,0.448l-0.518,1.017l0.058,1.115l0.461,2.075l-0.398,1.265l-0.902-0.287
		l-1.538-1.391l-0.504-0.299l-0.634-0.638l-0.788-0.546l-0.969-0.034l-1.082,0.787l-0.014,0.937l0.376,0.868l0.082,0.517
		l-1.316,0.276l-2.056,0.121l-1.567,0.385l0.164,1.081l1.343,1.691l-0.007,0.776l-1.155,0.224h-2.122l-1.827-0.362l-3.804-1.622
		l-1.724-0.362l-1.613,0.431l-1.692,1.064l-1.56,1.346l-1.215,1.306l-0.728,0.431l-1.63,0.247l-0.48,0.495l-0.036,1.225l0.663,0.639
		l0.969,0.086l0.892-0.431l2.03,0.829l-0.227,1.324l0.518,3.338l-0.002,0.662l-0.82,0.305l-2.334,1.457l-4.188,1.86l-1.029,0.184
		l-1.109-0.484l-0.509-1.186l-0.552-2.965l-0.955,1.434l-1.526,1.652l-1.415,0.397l-1.037-4.382l-1.114-1.347l-1.639-0.875
		l-3.809-1.289l-0.962-0.161l-1.039,0.075l-1.114,0.495l-1.921,1.427l-1.075,0.294l-1.008-0.46l-0.473-1.105l-0.137-1.375
		l-0.005-1.243l-0.354-0.846l-0.858-0.702l-4.096-2.168l-2.083-0.316l-1.977,0.448l-1.808,1.271l-0.706,0.316l-3.117,0.857
		l-0.636,0.5l-0.926,2.416l-0.694,0.88l-1.803,0.391l-3.573-1.462l-2.797-0.69l-1.36-1.036l-1.037-0.242l-1.109,0.144l-1.948,0.581
		l-1.143,0.035l-1.444-0.512L208,352.619l-1.62-0.259l-1.707,0.489l-1.099,0.995l-0.967,1.243l-1.324,1.208l-1.391,0.587
		l-2.775,0.719l-0.931,0.909l-0.326,1.698l0.195,1.353l-0.391,0.938l-2.085,0.501l-1.579-0.196l-1.36-0.518l-1.34-0.322
		l-1.514,0.414l-0.964,0.812l-0.041,0.777l1.005,2.217l0.034,0.76l-0.068,0.985l0.024,0.864l0.528,0.634l1.191,1.141l0.26,0.184
		l0.121,1.833l-0.383,1.845l-0.747,0.957l-0.96-0.83l-0.492-0.075l-1.589-1.528l-1.102-0.68l-3.139,1.695l-1.003,1.003l-0.275,1.124
		l-0.043,4.21l-0.429,1.898l-1.056,0.49l-2.657-0.45h-4.46l-1.719,1.085l-5.027,6.615l-8.908,5.296L155.875,395.251z"/>
	<path class="st0" d="M326.825,291.614l4.981-15.029l1.567-2.42l2.751-2.539l3.472-2.55l3.129-2.937l2.818-3.312l0.682-1.938
		l2.686-12.251l0.441-1.298l1.073-1.952l0.48-1.11l0.62-2.298l0.395-4.669l0.002-0.017l0.058-0.762l-0.036-4.684l0.215-1.114
		l0.309-0.778l0.415-0.341l0.475-0.273l0.991-0.352l0.791-0.136l0.405-0.136l0.335-0.324l0.224-0.545l0.068-0.784l-0.193-0.693
		l-0.352-0.665l-2.228-2.788l-0.272-0.67l-0.222-0.874l-0.101-2.577l0.145-2.389l-0.036-0.721l-0.398-1.084l-0.449-0.964
		l-3.055-3.686l0.169-3.027l-0.181-1.508l-0.33-1.122l-0.217-1.207l-0.277-4.662l-0.21-1.223l-0.362-1.082l-0.54-0.951l-0.637-0.861
		l-0.253-0.475l-0.181-0.504l0.263-1.121l2.765-7.678l0.444-0.775l3.038-2.929l0.429-0.633l1.577-3.335l0.489-0.706l0.665-0.424
		l1.738-0.622l0.492-0.243l0.569-0.475l0.603-0.661l0.921-1.271l1.14-1.181l0.432-0.316l0.347-0.746l0.282-1.079l0.697-4.15
		l0.844-1.88l0.547-2.043l2.23-3.447l1.186-1.094l1.567-0.626l0.646-0.135l1.762,0.006l1.367,0.355l0.506,0.271l7.633,6.094
		l4.458,2.535l6.743,2.846l1.577,1.214l0.482,0.508l0.371,0.503l0.962,1.971l0.383,1.073l0.152,0.576l0.077,1.339l-0.145,2.085
		l0.072,0.622l1.41,4.251l0.186,0.39l0.031,0.051l0.323,0.696l0.26,0.441l0.403,0.486l3.122,2.919l0.682,0.492l0.658,0.334
		l3.076,0.996l1.782,0.781l0.851,0.549l0.608,0.504l0.526,0.945l0.386,1.092l0.839,3.561l0.393,1.065l0.133,0.578l-0.014,0.663
		l-0.108,0.646l-0.781,2.34l-0.301,1.303l-0.116,1.422l0.041,0.68l0.125,0.584l0.229,0.504l0.555,0.93l0.21,0.499l0.089,0.578
		l-0.21,1.979l0.051,0.629l0.388,1.077l0.858,1.611l1.005,1.492l0.716,0.675l0.733,0.375l0.663,0.091l0.646-0.023l0.598-0.114
		l1.529-0.652l0.61-0.108l0.678,0.017l2.565,0.601l2.599,0.312l8.173-0.567l2.329-0.584l1.357-0.074l2.7,0.295l9.106,2.292
		l5.767,0.46l3.848-0.443l2.903,0.13l1.444,0.306l3.549,1.612l1.878,0.613l7.175,0.636l1.135,0.267l4.053,1.51l2.102,1.079
		l0.405,0.352l0.354,0.392l1.849,2.641l0.366,0.392l2.541,2.051l1.396,1.585l1.622,2.876l3.884,4.463l1.524,2.224l3.435,3.396
		l1.181,1.809l1.148,2.55l0.62,1.025l1.386,1.52l-2.016,0.558l-1.384,0.159l-3.749-2.237l-2.293-0.786l-1.022,1.144l-0.287,2.539
		l-0.745,1.486l-2.155,2.438l-0.781,1.624l-0.352,1.1l-0.14,1.043l0.326,1.197l0.615,1.225l0.381,1.231l-0.367,1.209l-1.323,2.224
		l-1.979,4.54l-1.533,2.003l-0.914,0.668l-1.955,0.924l-0.952,0.668l-0.861,1.147l-0.641,1.239l-0.772,0.982l-3.317,1.005
		l-1.427,1.451l-1.9,3.233l-1.972,2.257l-2.449,1.903l-2.876,1.32l-3.271,0.492l-3.187-0.669l-6.07-2.423l-3.223,0.206l-8.286,3.864
		l-2.893,0.532l-0.74-0.154l-0.407-0.394l-0.381-0.497l-3.276-1.903l-0.67-0.126l-0.557,0.097l-0.574-0.08l-0.69-0.651l-0.366-0.6
		l-0.183-0.589l-0.145-1.76h-0.012l-0.824-0.771l-1.615-0.463l-1.463,0.754l-0.853,1.166l-0.217,1.537l-0.477,1.623l-0.376,1.852
		l-1.246,1.452l-1.941,0.617l-2.112,0.206l-2.389-0.257l-2.129-0.566l-1.999-0.869l-1.475,0.171l-1.189,1.555l-1.23,3.202
		l-1.521,0.738l-1.709,0.137l-1.533-1.098l-1.999-1.727l-1.825-0.189l-1.07,0.589l-0.203,1.327l0.752,2.042l0.058,1.539
		l-0.911,1.013l-0.477,1.316l-0.463,1.854l-1.507,1.454l-1.999,1.408l-2.519-0.859l-2.273-2.587l-2.011,0.103l-2.216,1.214
		l-1.608,1.821l-1.316,2.073l-2.621,2.606l-2.548,2.967l-3.245,0.602l-3.286,0.206l-3.893,1.444l-4.098,0.63l-1.229,2.27
		l-1.724,2.351l-1.637,2.885l-0.579,3.264l-3.011,0.172l-3.575-0.155l-3.144-0.671l-3.026-0.258l-2.563,2.066l-0.665,1.096
		l-0.984,1.98l-2.027-0.189l-2.013-2.049l-1.924-1.131l-2.377-0.189l-2.372,0.327l-1.608-0.052l-1.868,0.052l-2.257,0.396
		l-1.565,0.717l-1.782,1.36l-1.692,0.431l-2.782-1.653l0.82-3.317l1.62-3.31l0.928-3.721l-0.234-2.201v-1.375l0.35-2.063
		l0.926-1.656l1.854-2.2l0.391-1.632l2.941-12.356L326.825,291.614z"/>
	<path class="st0" d="M316.801,330.494l2.782,1.653l1.692-0.431l1.782-1.36l1.565-0.717l2.257-0.396l1.868-0.052l1.608,0.052
		l2.372-0.327l2.377,0.189l1.924,1.131l2.013,2.049l2.027,0.189l0.984-1.98l0.665-1.096l2.563-2.066l3.026,0.258l3.144,0.671
		l3.575,0.155l3.011-0.172l0.579-3.264l1.637-2.885l1.724-2.351l1.229-2.27l4.098-0.63l3.893-1.444l3.286-0.206l3.245-0.602
		l2.548-2.967l2.621-2.606l1.316-2.073l1.608-1.821l2.216-1.214l2.011-0.103l2.273,2.587l2.519,0.859l1.999-1.408l1.507-1.454
		l0.463-1.854l0.477-1.316l0.911-1.013l-0.058-1.539l-0.752-2.042l0.203-1.327l1.07-0.589l1.825,0.189l1.999,1.727l1.533,1.098
		l1.709-0.137l1.521-0.738l1.23-3.202l1.189-1.555l1.475-0.171l1.999,0.869l2.129,0.566l2.389,0.257l2.112-0.206l1.941-0.617
		l1.246-1.452l0.376-1.852l0.477-1.623l0.217-1.537l0.853-1.166l1.463-0.754l1.615,0.463l0.824,0.771h0.012l0.145,1.76l0.183,0.589
		l0.366,0.6l0.69,0.651l0.574,0.08l0.557-0.097l0.67,0.126l3.276,1.903l0.381,0.497l0.407,0.394l0.74,0.154l2.893-0.532l1.9,3.614
		l0.429,2.414l0.046,1.339l-0.089,1.373l-1.333,5.821l-1.261,3.487l-0.333,1.22l-0.019,1.335l0.159,0.647l2.401,5.633l0.128,0.671
		l-0.007,0.636l-0.164,0.591l-0.335,0.418l-0.504,0.224l-1.227,0.241l-0.494,0.241l-0.407,0.361l-0.263,0.493l-0.154,0.568
		l0.169,0.826l0.429,0.923l1.565,2.369l0.362,0.74l0.147,0.574l0.053,0.637l-0.142,2.106l-0.528,2.629l-0.034,0.677l0.222,1.2
		l0.463,1.206l1.025,1.792l1.755,2.045l1.232,1.086l8.882,5.724l0.251,0.276l0.017,0.023l0.015,0.029l1.044,1.535l0.369,0.391
		l0.976,0.264l1.473,0.121l6.7-0.276l4.8,0.702l-0.875,1.737l-0.299,0.449l-0.665,0.742l-0.829,0.713l-5.222,3.395l-0.8,1.007
		l-0.742,2.343l-4.735,2.614l-1.582,1.083l-5.128,4.914l-1.266,0.911l-1.017,0.49l-0.665-0.052l-0.598-0.173l-1.538-0.841
		l-0.632-0.196l-0.832-0.046l-2.059,1.014l-2.119,1.4l-5.082,2.634l-0.791,0.819l-1.847,2.399l-17.816,10.126l-2.114,0.86
		l-0.687,0.017l-3.457-0.618l-0.839-0.035l-1.143,0.15l-0.661,0.312l-0.463,0.444l-0.323,0.468l-0.6,0.676l-0.89,0.785l-2.449,1.6
		l-5.735,2.628l-3.122,0.994l-0.69,0.098l-1.35-0.081l-0.641-0.145l-0.571-0.208l-1.524-0.855l-0.595-0.179l-0.682-0.069
		l-0.68,0.017l-4.889,0.971l-3.156,0.277l-0.868,0.341l-0.501,0.433l-0.224,0.607l-0.236,1.283l-0.301,0.676l-0.53,0.636
		l-1.941,1.451l-0.894,0.815l-0.69,0.283l-0.711,0.069l-4.54-1.387l-2.599-0.295l-5.287,0.416l-0.67-0.116l-0.6-0.208l-0.513-0.278
		l-0.412-0.353l-0.323-0.445l-0.26-0.491l-0.699-2.26l-0.219-0.52l-0.287-0.474l-0.362-0.399l-0.453-0.312l-0.615-0.168
		l-0.728,0.012l-4.342,0.491l-0.685-0.075l-0.632-0.173l-1.099-0.491l-1.403-0.942l-0.419-0.358l-0.815-0.832l-0.55-0.347
		l-0.935-0.191l-0.497,0.277l-0.27,0.537l-0.043,0.659l0.029,0.688l0.318,2.635l0.053,2.803l-0.227,0.775l-0.518,0.757l-1.213,0.977
		l-0.861,0.393l-0.755,0.191l-7.375-0.174l-1.777-2.104l-0.617-1.318l-0.094-0.624l-0.161-2.699l-0.094-0.624l-0.311-1.034
		l-0.284-0.63l-0.509-0.791l-0.615-0.71l-0.422-0.589l-5.764-6.362l-1.847-3.416l-0.33-0.421l-0.996-0.623l-5.169-2.03l-3.1-0.761
		l-3.643-0.173l-0.817-0.277l-0.851-0.456l-1.135-1.067l-0.506-0.755l-0.28-0.732l-0.27-1.908l-0.371-1.112l-0.526-0.962
		l-0.697-0.841l-0.422-0.352l-1.08-0.449l-5.379-1.273l-3.096-0.38l-5.046,0.72l-1.017-0.254l-3.814-2.189l-4.397-4.382l0.002-0.662
		l-0.518-3.338l0.227-1.324l-2.03-0.829l-0.892,0.431l-0.969-0.086l-0.663-0.639l0.036-1.225l0.48-0.495l1.63-0.247l0.728-0.431
		l1.215-1.306l1.56-1.346l1.692-1.064l1.613-0.431l1.724,0.362l3.804,1.622l1.827,0.362h2.122l1.155-0.224l0.007-0.776l-1.343-1.691
		l-0.164-1.081l1.567-0.385l2.056-0.121l1.316-0.276l-0.082-0.517l-0.376-0.868l0.014-0.937l1.082-0.787l0.969,0.034l0.788,0.546
		l0.634,0.638l0.504,0.299l1.538,1.391l0.902,0.287l0.398-1.265l-0.461-2.075l-0.058-1.115l0.518-1.017l1.598-0.448l1.753,0.31
		l1.206-0.379l-0.041-1.764l-0.01-0.747l1.037-2.423l0.824-0.879l1.258-1.188l1.637-0.729l2.765-0.103l1.84-0.832l1.056-1.36
		l1.695-0.58L316.801,330.494z"/>
	<path class="st0" d="M273.849,361.62l4.397,4.382l3.814,2.189l1.017,0.254l5.046-0.72l3.096,0.38l5.379,1.273l1.08,0.449
		l0.422,0.352l0.697,0.841l0.526,0.962l0.371,1.112l0.27,1.908l0.28,0.732l0.506,0.755l1.135,1.067l0.851,0.456l0.817,0.277
		l3.643,0.173l3.1,0.761l5.169,2.03l0.996,0.623l0.33,0.421l1.847,3.416l5.764,6.362l0.422,0.589l0.615,0.71l0.509,0.791l0.284,0.63
		l0.311,1.034l0.094,0.624l0.161,2.699l0.094,0.624l0.617,1.318l1.777,2.104l1.447,2.949l5.311,19.516l1.396,2.139l1.613,3.171
		l0.4,1.189l0.21,1.003l-0.521,10.463l-0.104,0.726l-0.178,0.645l-0.214,0.592l-0.256,0.534l-0.294,0.494l-0.333,0.447l-0.781,0.825
		l-1.138,0.941l-10.207-5.221l-2.876-0.702l-3.775,3.13l-1.919,1.133l-2.136,0.854l-6.398,1.615l-0.395,0.198l-0.27,0.186
		l-1.557,1.342l-3.872,4.737l-0.762,0.506l-1.09,0.558l-2.302,0.907l-1.285,0.32l-1.066,0.105l-13.484-2.622l-3.99-0.233
		l-0.747-1.25l-1.642-2.261l-0.268-0.488l-0.21-0.535l-0.345-1.15l-0.415-2.823l-0.222-0.778l-0.239-0.645l-0.374-1.307l-0.26-1.655
		l-0.169-0.639l-1.104-2.647l-3.896-6.736l-0.149-0.4l-0.101-0.365l0.034-1.409l1.405-10.993l0.161-0.643l0.203-0.591l0.251-0.504
		l0.2-0.533l0.161-0.596l0.005-0.672l-0.297-0.729l-0.456-0.423l-0.547-0.324l-2.577-0.689l-0.557-0.232l-0.931-0.642l-0.815-0.747
		l-1.914-2.65l-0.388-0.382l-0.354-0.417l-0.304-0.463l-0.195-0.677l-0.123-0.862l-0.051-1.319l-0.202-1.434l-0.113-0.301
		l-0.012-0.017l-0.017-0.046l-1.516-1.995l-0.253-0.486l-0.188-0.549l-1.046-4.797l-0.232-0.508l-0.28-0.48l-0.362-0.416
		l-0.419-0.358l-2.389-1.594l-0.366-0.416l-0.282-0.462l-0.212-0.595l-0.099-0.728l0.034-1.016l1.02-1.795l9.788-11.728l1.222-1.061
		l6.661-8.534l0.608-1.025L273.849,361.62z"/>
	<path class="st0" d="M329.286,403.2l7.375,0.174l0.755-0.191l0.861-0.393l1.213-0.977l0.518-0.757l0.227-0.775l-0.053-2.803
		l-0.318-2.635l-0.029-0.688l0.043-0.659l0.27-0.537l0.497-0.277l0.935,0.191l0.55,0.347l0.815,0.832l0.419,0.358l1.403,0.942
		l1.099,0.491l0.632,0.173l0.685,0.075l4.342-0.491l0.728-0.012l0.615,0.168l0.453,0.312l0.362,0.399l0.287,0.474l0.219,0.52
		l0.699,2.26l0.26,0.491l0.323,0.445l0.412,0.353l0.513,0.278l0.6,0.208l0.67,0.116l5.287-0.416l2.599,0.295l4.54,1.387l0.711-0.069
		l0.69-0.283l0.894-0.815l1.941-1.451l0.53-0.636l0.301-0.676l0.236-1.283l0.224-0.607l0.501-0.433l0.868-0.341l3.156-0.277
		l4.889-0.971l0.68-0.017l0.682,0.069l0.595,0.179l1.524,0.855l0.571,0.208l0.641,0.145l1.35,0.081l0.69-0.098l3.122-0.994
		l5.735-2.628l2.449-1.6l0.89-0.785l0.6-0.676l0.323-0.468l0.463-0.444l0.661-0.312l1.143-0.15l0.839,0.035l3.457,0.618l0.687-0.017
		l2.114-0.86l17.816-10.126l1.847-2.399l0.791-0.819l5.082-2.634l2.119-1.4l2.059-1.014l0.832,0.046l0.632,0.196l1.538,0.841
		l0.598,0.173l0.665,0.052l1.017-0.49l1.266-0.911l5.128-4.914l1.582-1.083l4.735-2.614l0.856,6.064l0.089,3.854l0.921,5.044
		l-0.142,1.09l-0.349,1.413l-1.046,2.676l-0.682,1.142l-0.622,0.756l-1.381,0.94l-0.371,0.41l-0.325,0.467l-0.26,0.589l-0.166,0.71
		l0.137,1.143l0.222,0.745l1.856,2.367l0.6,0.86l0.499,0.941l0.19,0.566l0.111,0.618l0.094,2.056l-0.118,1.456l-0.285,0.89
		l-0.465,0.959l-1.111,1.393l-0.588,0.59l-0.501,0.376l-3.197,1.162l-0.969,0.532l-0.781,0.555l-0.255,0.243l-0.039,0.058
		l-0.072,0.069l-0.21,0.26l-0.46,0.775l-0.62,1.33l-1.663,4.669l-0.47,0.718l-0.899,0.961l-0.637,0.532l-0.583,0.388l-1.049,0.452
		l-2.953,0.753l-1.068,0.434l-0.446,0.318l-0.427,0.619l-0.362,0.886l-0.338,1.749l-0.034,1.013l0.113,0.799l0.207,0.533
		l0.248,0.504l2.343,3.743l0.248,0.504l0.193,0.562l0.128,0.62l0.046,0.672l-0.012,0.678l-0.27,2.957l-0.316,1.369l-3.18,7.281
		l-0.359,1.132l-0.251,3.704l-0.299,0.801l-0.518,0.807l-1.162,1.069l-1.856,1.237l-0.837,0.72l-0.362,0.418l-0.786,1.4l-1.164,3.01
		l-0.986,1.424l-1.085,1.168l-0.639,0.837l-0.463,0.762l-0.354,1.431l0.005,0.012l0.039,0.843l-0.029,0.622l-0.108,0.675
		l-0.176,0.611l-0.412,0.681l-0.595,0.704l-4.513,3.934l-1.107,1.234l-0.458,0.716l-0.506,0.961l-0.786,1.904l-0.622,2.068
		l-0.405,0.845l-0.658,0.921l-2.611,2.756l-2.715,3.917l-11.676,1.65l-2.577,0.875l-6.34,3.902l-0.798,0.309l-1.061,0.292
		l-2.11,0.28l-1.08-0.029l-0.769-0.14l-4.928-2.433l-1.926-0.572l-1.251-0.093l-0.897,0.093l-8.334,5.508l-0.89,0.747l-0.571,0.66
		l-0.256,0.549l-1.196,3.649l-0.824,1.577l-0.704,0.888l-0.959,0.444l-4.639,1.034l-1.56,0.105l-1.08-0.123l-4.125-2.302
		l-1.061-0.368l-0.923-0.158l-1.365-0.053l-2.792,0.199l-1.567,0.403l-1.208,0.502l-0.945,0.578l-0.95,1.735l-1.625,5.739
		l-0.697-1.45l-0.468-0.684l-5.138-5.58l-0.217-0.549l0.01-0.712l0.386-0.964l0.441-0.572l0.509-0.356l1.794-0.975l0.41-0.356
		l0.34-0.444l0.268-0.525l0.198-1.074l0.41-7.463l-0.104-1.091l-0.451-1.685l-1.712-4.343l-0.154-0.589l-0.014-0.682l0.231-0.857
		l0.275-0.647l2.028-3.594l0.217-0.588l0.147-0.949l0.058-1.234l-0.386-4.651l-2.83-13.55l-1.275-3.666l1.138-0.941l0.781-0.825
		l0.333-0.447l0.294-0.494l0.256-0.534l0.214-0.592l0.178-0.645l0.104-0.726l0.521-10.463l-0.21-1.003l-0.4-1.189l-1.613-3.171
		l-1.396-2.139l-5.311-19.516L329.286,403.2z"/>
	<path class="st0" d="M414.555,483.217l2.715-3.917l2.611-2.756l0.658-0.921l0.405-0.845l0.622-2.068l0.786-1.904l0.506-0.961
		l0.458-0.716l1.107-1.234l4.513-3.934l0.595-0.704l0.412-0.681l0.176-0.611l0.108-0.675l0.029-0.622l-0.039-0.843l-0.005-0.012
		l0.354-1.431l0.463-0.762l0.639-0.837l1.085-1.168l0.986-1.424l1.164-3.01l0.786-1.4l0.362-0.418l0.837-0.72l1.856-1.237
		l1.162-1.069l0.518-0.807l0.299-0.801l0.251-3.704l0.359-1.132l3.18-7.281l0.316-1.369l0.27-2.957l0.012-0.678l-0.046-0.672
		l-0.128-0.62l-0.193-0.562l-0.248-0.504l-2.343-3.743l-0.248-0.504l-0.207-0.533l-0.113-0.799l0.034-1.013l0.338-1.749l0.362-0.886
		l0.427-0.619l0.446-0.318l1.068-0.434l2.953-0.753l1.049-0.452l0.583-0.388l0.637-0.532l0.899-0.961l0.47-0.718l1.663-4.669
		l0.62-1.33l0.46-0.775l0.21-0.26l0.072-0.069l0.039-0.058l0.255-0.243l0.781-0.555l0.969-0.532l3.197-1.162l0.501-0.376l0.588-0.59
		l1.111-1.393l0.465-0.959l0.285-0.89l0.118-1.456l-0.094-2.056l-0.111-0.618l-0.19-0.566l-0.499-0.941l-0.6-0.86l4.561-2.719
		l1.813-0.808l4.86-0.854l0.494-0.035l0.28,0.104l0.887,0.502l1.837,0.543l0.521,0.271l0.412,0.364l0.622,0.404l0.817,0.346
		l1.625,0.254l0.928-0.052l0.735-0.185l4.18-2.147l2.384-0.918l0.931-0.081l0.702,0.133l1.422,0.537l1.196,0.289l0.73,0.3
		l0.54,0.381l2.565,2.783l3.209,2.177l2.806,0.791l7.589,1.219l0.61,0.191l0.547,0.237l1.225,1.086l0.501,0.277l6.345,2.011
		l1.094,0.127l0.846-0.052l3.717-1.531l0.451-0.295l0.415-0.364l0.35-0.422l0.323-0.456l0.485-1.074l0.275-1.265l0.203-0.583
		l0.316-0.468l0.417-0.375l0.506-0.283l1.063-0.462l0.485-0.266l3.023-2.384l0.728-0.323l2.724-0.664l1.066-0.046l0.861,0.098
		l0.528,0.242l0.434,0.346l0.299,0.45l0.94,2.073l1.393,2.391l1.444,1.588l0.815,0.699l1.989,1.138l3.37,1.369l2.459,1.601
		l2.31,1.127l-0.446,0.526l-0.535,0.41l-0.653,0.335l-2.24,0.376l-2.196,0.035l-1.649,0.757l-2.001,6.917l-3.51,3.182l-7.493,4.388
		l-1.994,2.224l-0.875,1.743l-0.417,2.317l0.887,6.387l-0.149,0.962l-0.412,1.218l-2.059,3.405l-0.603,0.772l-0.362,0.69
		l-0.335,0.923l-0.316,1.81l-0.166,3.367l-0.239,1.306l-0.395,0.697l-2.833,3.281l-2.266,3.637l-3.889,2.947l-1.061,1.558
		l-0.15,0.663l-0.099,0.704l-0.786,2.535l-1.193,2.577l-0.743,1.105l-0.665,0.716l-2.165,0.85l-4.581,0.594l-0.926,0.326
		l-1.119,0.547l-1.987,1.298l-0.878,0.821l-0.566,0.722l-0.207,0.605l-0.407,0.908l-2.7,4.112l-1.384,3.105l-2.006,3.48
		l-0.277,0.886l0.043,0.356l0.248,0.828l0.08,0.367l0.055,0.472l-0.007,0.595l-0.092,0.636l-0.174,0.624l-0.297,2.304l-0.333,1.12
		l-0.453,0.7l-0.607,0.56l-0.873,0.63l-0.492,0.589l-0.289,0.677l-1.654,5.616l-0.251,1.367l-0.181,2.418l-0.318,1.133l-0.419,0.59
		l-0.535,0.368l-1.666,0.865l-1.403,1.186l-0.87,0.555l-0.779,0.298l-1.721,0.281l-2.895,1.52l-1.133,0.374l-1.999,0.222
		l-1.273,0.719l-1.724,1.281l-5.118,4.89l-1.152,0.878l-0.571,0.187l-1.287,0.193l-2.9-0.228l-1.369,0.035l-0.629,0.105
		l-1.135,0.386l-10.588,8.993l-0.685,0.445l-2.213,1.06l-2.437,0.615l-12.592,0.703l0.01-3.158l-0.523-1.652l-1.538-2.945
		l-3.855-4.729l-0.506-0.878l-0.207-0.468l-0.087-2.469l0.067-1l1.116-5.619l0.072-0.725l-0.137-0.953l-0.354-1.052l-3.884-7.278
		l-1.246-3.695L414.555,483.217z"/>
</g>
<g id="Copyright">
	<text transform="matrix(1 0 0 1 681.6426 577.5916)" class="st1 st2"> Vemaps.com</text>
</g>
</svg>
